<svg width="83" height="154" fill="none" xmlns="http://www.w3.org/2000/svg"><g opacity=".7" fill="#D42428"><path d="M78.924 1.13s8.09 2.381 1.062 21.256S67.81 50.7 67.81 50.7s-1.144 4.322 2.125 4.675c3.35.352 10.378-1.588 12.176 2.557 1.88 4.322-.818 8.82-6.538 13.142-5.802 4.322-18.141 14.2-19.285 15.083-1.063.882-2.125 2.91.163 3.528 2.207.617 18.55.882 17.978 9.261-.572 8.379-18.55 17.464-20.511 18.434-1.961 1.059-2.37 2.029-2.125 3.175.245 1.147 5.72.706 10.379.971 4.657.264 9.97 1.499 9.234 6.262-.736 4.763-10.869 15.7-37.345 21.08l-12.421 1.676-7.682-10.672c-15.2-23.991-15.281-39.426-12.666-43.396 2.615-3.969 7.19-.705 10.623 2.647 3.432 3.351 7.028 7.849 8.008 7.232.981-.617 1.308-1.588.573-3.881-.736-2.205-7.519-22.315-2.452-28.665 5.066-6.35 16.752 5.91 18.795 7.144 1.961 1.235 2.615-.97 2.452-2.382-.164-1.499-2.534-17.904-3.76-25.401-1.307-7.41-.245-12.701 3.923-14.29 4.004-1.587 7.763 5.205 10.296 7.498 2.534 2.293 4.577-1.676 4.577-1.676s2.615-10.76 9.97-29.46C71.65-3.456 79.168 1.13 79.168 1.13" fill-opacity=".5"/><path d="M21.313 153.807c5.312-13.76 14.464-38.368 22.39-59.536 7.927-21.08 15.118-40.22 20.43-53.98 2.615-6.88 4.821-12.436 6.292-16.317.736-1.94 1.308-3.44 1.716-4.41.164-.53.327-.882.409-1.147.082-.265.163-.44.163-.44s-.081.087-.163.352c-.082.264-.245.617-.49 1.146-.409 1.059-.981 2.47-1.798 4.41-1.553 3.793-3.677 9.35-6.374 16.318a5873.09 5873.09 0 00-20.511 53.98c-7.927 21.08-16.998 45.776-22.31 59.535"/><path d="M72.386 61.106s-.327.089-.817.353c-.572.265-1.307.618-2.206 1.059-1.88.97-4.413 2.381-7.273 3.969a875.11 875.11 0 00-7.191 4.145 61.76 61.76 0 01-2.207 1.235c-.49.264-.817.44-.817.529 0 0 .327-.088.817-.353a24.146 24.146 0 002.207-1.146c1.88-.97 4.412-2.382 7.19-3.97 2.78-1.587 5.312-2.998 7.192-4.057a25.556 25.556 0 002.206-1.234c.654-.353.9-.53.9-.53zm-21.41 10.409c.082-.089-2.37-5.91-5.393-13.054-3.106-7.145-5.639-12.878-5.802-12.878-.082.088 2.37 5.91 5.393 13.054 3.105 7.144 5.72 12.966 5.802 12.878zM40.19 104.501s-.164-.264-.573-.793a86.05 86.05 0 00-1.634-2.029c-1.39-1.764-3.35-4.145-5.312-6.791-2.043-2.735-3.759-5.204-5.066-7.057-.572-.882-1.062-1.587-1.471-2.205a5.602 5.602 0 00-.572-.794s.163.353.49.883c.327.529.817 1.323 1.39 2.293 1.225 1.852 2.941 4.41 4.984 7.144a114.793 114.793 0 005.475 6.792c.736.793 1.308 1.499 1.716 1.94.246.441.49.617.573.617zm21.246-4.851s-.327 0-.817.089c-.654.088-1.39.264-2.288.441-1.962.352-4.576.882-7.518 1.499-2.942.617-5.557 1.235-7.518 1.676-.9.176-1.635.441-2.288.529-.572.176-.818.264-.818.264s.327 0 .818-.088c.653-.088 1.389-.264 2.288-.441 1.96-.353 4.576-.882 7.518-1.499 2.942-.617 5.556-1.235 7.518-1.676.899-.176 1.634-.441 2.288-.529.49-.088.817-.176.817-.265zm-6.129 30.43s-.409 0-1.062.176c-.736.177-1.716.353-2.942.53-2.452.441-5.884 1.146-9.643 1.852-3.759.794-7.19 1.499-9.642 2.028-1.145.265-2.125.53-2.942.618-.654.176-1.063.264-1.063.264s.409 0 1.063-.176c.735-.176 1.716-.353 2.942-.529 2.451-.441 5.883-1.147 9.642-1.852 3.76-.794 7.191-1.5 9.643-2.029 1.144-.265 2.125-.529 2.942-.617.654-.089 1.062-.177 1.062-.265zm-26.64 5.204s-.245-.353-.736-.97c-.49-.706-1.225-1.588-2.042-2.646a559.969 559.969 0 01-6.538-8.908c-2.451-3.529-4.658-6.792-6.21-9.173a93.783 93.783 0 00-1.88-2.823c-.409-.617-.654-1.058-.735-.97 0 0 .163.441.572 1.058.408.706.98 1.676 1.716 2.911 1.47 2.381 3.677 5.733 6.129 9.173a148.023 148.023 0 006.619 8.82 113.424 113.424 0 012.124 2.558c.654.706.9.97.981.97z"/></g></svg>