<svg width="202" height="372" fill="none" xmlns="http://www.w3.org/2000/svg"><g opacity=".7" fill="#D42428"><path d="M6.97 126.123s-13.066 7.075 6.122 34.408c19.188 27.333 31.602 40.339 31.602 40.339s3.59 6.447-1.917 8.331c-5.648 1.917-18.5 1.653-20.05 9.006-1.625 7.668 4.71 13.769 16.197 18.367 11.627 4.565 36.613 15.372 38.917 16.32 2.163.981 4.755 3.794 1.038 5.705-3.575 1.878-31.674 8.902-27.552 22.065 4.123 13.163 38.54 20.424 42.286 21.183 3.78.899 4.848 2.285 4.854 4.217.006 1.932-9.605 3.438-17.542 5.742-7.938 2.305-16.64 6.424-13.589 13.74 3.052 7.317 24.627 20.706 72.32 18.613l22.058-2.338 9.259-20.162c17.246-44.488 11.612-69.194 5.615-74.482-5.997-5.288-12.671 1.777-17.339 8.52-4.667 6.744-9.187 15.387-11.11 14.796-1.923-.591-2.85-2.01-2.439-5.972.444-3.822 4.621-38.707-6.497-46.812-11.118-8.105-26.691 16.212-29.754 19.011-2.922 2.766-4.875-.494-5.121-2.816-.279-2.463-2.329-29.644-3.02-42.123-.516-12.371-4.33-20.401-12.114-21.256-7.502-.92-11.447 11.454-14.96 16.143-3.512 4.689-8.522-.831-8.522-.831s-8.538-16.144-28.224-43.063c-19.686-26.919-30.94-16.552-30.94-16.552" fill-opacity=".5"/><path d="M163.499 346.906c-14.313-19.849-39.312-55.488-60.909-86.124-21.564-30.495-41.133-58.185-55.446-78.034-7.086-9.941-12.972-17.932-16.962-23.541-1.995-2.805-3.543-4.971-4.611-6.357-.48-.779-.894-1.277-1.134-1.667a6.089 6.089 0 00-.447-.639s.174.108.414.498.654.888 1.275 1.634c1.1 1.527 2.616 3.552 4.752 6.324 4.098 5.435 9.843 13.459 17.103 23.508a9222.325 9222.325 0 0155.587 78.001c21.564 30.495 46.455 66.308 60.768 86.157M40.693 219.355s.597.009 1.542.234c1.086.192 2.487.459 4.203.801 3.605.791 8.504 2.024 14.033 3.407a1555.624 1555.624 0 0113.958 3.722c1.749.483 3.009.783 4.269 1.082.945.225 1.575.375 1.608.516 0 0-.597-.009-1.542-.234a44.087 44.087 0 01-4.236-.941c-3.606-.792-8.505-2.025-13.892-3.44-5.388-1.416-10.287-2.649-13.925-3.581a46.385 46.385 0 01-4.27-1.083c-1.26-.3-1.748-.483-1.748-.483zm40.833 7.989c-.174-.108 1.878-10.403 4.42-23.044 2.685-12.675 4.91-22.862 5.192-22.928.174.108-1.877 10.403-4.42 23.045-2.684 12.674-5.018 23.035-5.192 22.927z"/><path d="M112.481 275.718s.183-.489.689-1.5c.507-1.011 1.23-2.37 2.061-3.903 1.737-3.381 4.229-7.98 6.623-13.002 2.502-5.195 4.538-9.836 6.101-13.325.657-1.641 1.239-2.967 1.713-4.119.365-.978.689-1.5.689-1.5s-.15.63-.515 1.608a202.63 202.63 0 00-1.539 4.227c-1.422 3.456-3.425 8.238-5.927 13.433-2.502 5.196-4.994 9.795-6.905 13.068-.972 1.566-1.695 2.925-2.235 3.795-.257.804-.614 1.185-.755 1.218zm-38.473.826s.564-.132 1.443-.189c1.161-.123 2.496-.138 4.113-.219 3.516-.228 8.225-.438 13.532-.64 5.307-.201 10.049-.27 13.598-.357 1.617-.081 2.985.045 4.146-.078 1.053.05 1.509.092 1.509.092s-.564.132-1.443.19c-1.161.123-2.496.138-4.113.219-3.516.228-8.225.438-13.532.639-5.307.202-10.05.271-13.598.358-1.617.081-2.985-.045-4.146.078-.879.057-1.476.048-1.509-.093zM95.97 322.71s.704-.165 1.898-.147c1.335-.015 3.093-.129 5.274-.342 4.394-.286 10.58-.544 17.329-.934 6.783-.25 12.968-.508 17.396-.652 2.073-.039 3.864-.012 5.307-.201 1.194.018 1.932-.006 1.932-.006s-.705.165-1.899.147c-1.335.015-3.093.129-5.274.342-4.395.285-10.58.543-17.33.934-6.782.249-12.968.507-17.395.652-2.073.039-3.864.012-5.307.201-1.16.123-1.899.147-1.932.006zm47.909-2.441s.291-.663.906-1.848c.582-1.326 1.52-3.033 2.534-5.055a929.592 929.592 0 007.946-16.88c2.909-6.63 5.495-12.738 7.282-17.171.84-2.13 1.605-3.945 2.187-5.271.474-1.152.732-1.956.906-1.848 0 0-.117.771-.591 1.923a472.268 472.268 0 01-1.872 5.346c-1.646 4.4-4.199 10.649-7.141 17.138-2.91 6.629-5.843 12.521-8.12 16.772-1.155 2.055-2.094 3.762-2.708 4.947-.864 1.392-1.188 1.914-1.329 1.947z"/></g><path d="M180.485 74.765c.138-.054.248.852.173 1.91-.076 1.058-.283 1.93-.462 1.841-.09-.044-.159-.808-.083-1.866.075-1.058.234-1.832.372-1.885zm-3.287-13.911c.138-.054.918 1.304 1.684 3.142.628 1.892.946 3.509.808 3.562-.138.054-.594-1.51-1.27-3.303-.718-1.936-1.36-3.348-1.222-3.401zm-8.978-10.511c.048-.098 1.483.61 2.857 1.895 1.462 1.33 2.38 2.634 2.242 2.688-.138.054-1.2-.957-2.574-2.242-1.373-1.286-2.621-2.145-2.525-2.34zm-12.977-4.208c-.041-.142 1.601-.306 3.546.045 1.945.35 3.339.916 3.243 1.112-.049.097-1.539-.272-3.395-.579-1.904-.208-3.401-.338-3.394-.578zm-13.817 2.923c-.041-.142 1.394-1.017 3.228-1.572 1.883-.654 3.525-.818 3.567-.676.041.142-1.518.59-3.401 1.244-1.835.555-3.352 1.146-3.394 1.004zm-11.311 9.147c-.09-.044.193-.392.572-.935.38-.543.993-1.335 1.697-2.084 1.407-1.496 2.842-2.371 2.931-2.327.042.142-1.172 1.247-2.531 2.646-.703.749-1.358 1.4-1.827 1.898-.518.597-.842.802-.842.802zm-4.625 13.904c-.138.054-.408-1.661-.077-3.689.331-2.027 1.013-3.637 1.192-3.549.18.089-.365 1.645-.695 3.673-.372 1.885-.282 3.511-.42 3.565zm8.446 10.006c-.048.097-1.635-.076-3.291-1.015-1.745-.982-2.615-2.384-2.477-2.438.138-.053 1.152 1.055 2.856 1.895 1.429.948 2.919 1.317 2.912 1.558zm13.292-3.669c.09.045-1.041 1.434-2.841 2.372-1.8.937-3.491 1.2-3.442 1.101-.042-.142 1.517-.59 3.228-1.572 1.662-.884 2.876-1.99 3.055-1.9zm5.881-13.284c.138-.054.18 1.67-.288 3.751-.469 2.081-1.331 3.603-1.421 3.56-.179-.09.455-1.602.876-3.585.516-2.179.744-3.77.833-3.726zm-3.287-13.912c.138-.053 1.104 1.153 1.871 2.991.717 1.936.945 3.509.897 3.606-.138.054-.731-1.455-1.408-3.25-.766-1.837-1.408-3.249-1.36-3.347zm-9.681-9.762c.049-.098 1.484.61 2.905 1.797 1.511 1.232 2.477 2.439 2.429 2.536-.048.098-1.249-.859-2.76-2.09-1.421-1.188-2.622-2.145-2.574-2.243zm-12.48-5.667c.048-.098 1.586.174 3.387.819 1.801.644 3.187 1.45 3.139 1.547-.048.098-1.49-.37-3.291-1.014-1.8-.644-3.332-1.156-3.235-1.352zm-13.729-1.779c-.041-.142 1.601-.306 3.553-.196 1.952.111 3.442.48 3.394.579-.048.098-1.593.066-3.546-.045-1.862-.067-3.408-.098-3.401-.338zm-13.969 1.874c-.041-.142 1.476-.733 3.442-1.102 1.966-.37 3.56-.435 3.512-.337.041.142-1.559.448-3.436.861-1.876.414-3.476.72-3.518.578zm-13.34 5.348c-.041-.142 1.304-1.06 3.145-1.856 1.842-.796 3.36-1.386 3.401-1.244.041.142-1.435.874-3.187 1.714-1.841.796-3.27 1.43-3.359 1.386zm-11.883 8.5c-.042-.142.992-1.336 2.668-2.7 1.538-1.31 2.973-2.185 3.104-1.998.041.142-1.262 1.203-2.752 2.415-1.676 1.364-2.98 2.425-3.02 2.283zm-8.938 12.021c-.09-.044.593-1.654 1.6-3.47 1.096-1.772 2.178-3.063 2.268-3.019.09.044-.862 1.522-1.82 3.24-1.007 1.816-1.869 3.338-2.048 3.25zm-5.309 13.933c-.09-.045.186-1.734.786-3.629.648-1.992 1.372-3.46 1.461-3.416.09.044-.365 1.645-1.013 3.637-.51 1.94-1.054 3.496-1.234 3.408zM57.62 90.364c-.138.054.048-1.68.379-3.708.33-2.027.696-3.672.875-3.584.09.045-.048 1.68-.379 3.708-.42 1.983-.785 3.628-.875 3.584zm-1.148 14.766c-.138.054-.18-1.67-.077-3.688.103-2.018.289-3.752.468-3.663.138-.054.18 1.67.077 3.688-.192 1.974-.378 3.708-.468 3.663zm.355 14.657c-.137.053-.317-1.617-.442-3.626-.125-2.008-.077-3.688.061-3.742.138-.053.318 1.617.443 3.626.076 2.106.118 3.83-.062 3.742zm1.507 10.964c-.138.054-.435-.701-.587-1.749-.152-1.049-.22-1.813-.083-1.867.138-.053.387.799.587 1.75.2.95.221 1.813.083 1.866z" fill="#263238"/></svg>