<svg width="106" height="162" fill="none" xmlns="http://www.w3.org/2000/svg"><g opacity=".7" fill="#D42428"><path d="M4.292 9.384s-8.477 3.24 1.065 21.285c9.541 18.046 16.075 26.893 16.075 26.893s1.683 4.182-1.806 4.885c-3.576.71-11.357-.468-12.865 3.854-1.577 4.506 1.798 8.697 8.417 12.388 6.706 3.682 21.04 12.197 22.366 12.953 1.238.764 2.594 2.67.19 3.531-2.315.852-19.913 2.87-18.425 11.154 1.488 8.284 21.821 15.403 24.037 16.159 2.225.844 2.767 1.766 2.622 2.935-.146 1.168-6.096 1.316-11.092 2.08-4.995.763-10.595 2.563-9.307 7.228 1.288 4.665 13.353 14.471 42.466 16.988l13.57.336 7.174-11.454c13.898-25.527 12.381-40.91 9.149-44.582-3.233-3.672-7.83.07-11.182 3.776-3.353 3.707-6.763 8.573-7.885 8.063-1.121-.509-1.575-1.441-1.02-3.804.564-2.275 5.788-23.033-.337-28.814-6.124-5.782-17.452 7.684-19.526 9.133-1.987 1.44-2.921-.686-2.892-2.109.02-1.51.87-18.105 1.413-25.704.64-7.52-1.056-12.677-5.716-13.81-4.483-1.152-7.83 6.016-10.324 8.572-2.494 2.556-5.11-1.178-5.11-1.178S31.41 39.703 21.535 21.87C11.659 4.035 4.028 9.41 4.028 9.41" fill-opacity=".5"/><path d="M82.222 155.252C75.07 142.12 62.655 118.598 51.918 98.37 41.189 78.23 31.455 59.943 24.304 46.812c-3.532-6.57-6.485-11.867-8.473-15.573-.994-1.853-1.766-3.285-2.307-4.207-.23-.51-.443-.844-.559-1.098-.115-.255-.222-.422-.222-.422s.097.08.213.334c.115.255.328.588.647 1.089.55 1.01 1.313 2.354 2.395 4.199 2.066 3.61 4.932 8.915 8.56 15.564a5644.098 5644.098 0 0127.703 51.55c10.728 20.14 23.064 43.758 30.215 56.889"/><path d="M17.503 68.46s.362.053.92.264c.645.203 1.477.476 2.494.82 2.132.767 5.017 1.904 8.273 3.183a980.399 980.399 0 018.203 3.367c1.026.432 1.77.715 2.513.997.557.211.929.352.938.44 0 0-.362-.053-.92-.264a27.249 27.249 0 01-2.504-.908c-2.132-.767-5.016-1.905-8.184-3.192-3.168-1.287-6.052-2.424-8.194-3.28a28.604 28.604 0 01-2.513-.996c-.743-.282-1.026-.431-1.026-.431zm24.273 8.053c-.098-.08 1.938-6.139 4.452-13.578 2.602-7.447 4.734-13.428 4.91-13.445.098.08-1.938 6.139-4.452 13.578-2.602 7.447-4.813 13.524-4.91 13.445zm15.031 31.637s.149-.281.535-.852a88.96 88.96 0 011.55-2.197c1.316-1.907 3.183-4.49 5.022-7.338 1.92-2.943 3.513-5.588 4.73-7.574.525-.94.98-1.696 1.357-2.355.297-.563.534-.853.534-.853s-.14.37-.437.932-.743 1.406-1.26 2.434c-1.128 1.977-2.713 4.71-4.631 7.654a116.212 116.212 0 01-5.198 7.355c-.71.87-1.254 1.634-1.65 2.117-.218.466-.464.668-.552.677zm-23.522-2.528s.354-.035.893 0c.716.017 1.53.114 2.52.194 2.158.141 5.04.388 8.286.687 3.245.3 6.137.635 8.303.864.99.08 1.814.265 2.53.283.637.114.911.176.911.176s-.354.035-.893 0c-.716-.017-1.53-.114-2.52-.194-2.157-.141-5.04-.388-8.285-.687-3.246-.3-6.138-.635-8.304-.864-.99-.08-1.814-.265-2.53-.283-.539-.035-.902-.088-.91-.176zm9.738 29.595s.442-.044 1.168.062c.813.097 1.892.167 3.236.211 2.697.176 6.481.511 10.62.811 4.147.388 7.932.723 10.638.987 1.265.141 2.353.3 3.245.3.726.106 1.177.15 1.177.15s-.442.044-1.167-.062c-.814-.097-1.893-.167-3.237-.211-2.697-.176-6.481-.511-10.62-.811-4.147-.388-7.932-.723-10.638-.987-1.264-.141-2.352-.3-3.245-.3-.716-.017-1.167-.061-1.177-.15zm29.405 2.295s.228-.378.692-1.045c.456-.756 1.157-1.714 1.928-2.856a562.534 562.534 0 006.122-9.577c2.276-3.779 4.316-7.267 5.742-9.806a91.63 91.63 0 011.733-3.014c.377-.659.595-1.125.692-1.046 0 0-.13.457-.506 1.116a282.52 282.52 0 01-1.548 3.084c-1.338 2.531-3.368 6.107-5.654 9.798a148.97 148.97 0 01-6.22 9.498 113.48 113.48 0 00-2.024 2.776c-.632.774-.869 1.064-.957 1.072z"/></g></svg>