<svg width="201" height="361" fill="none" xmlns="http://www.w3.org/2000/svg"><path d="M194.014 115.123s13.096 7.075-6.136 34.408c-19.232 27.333-31.674 40.339-31.674 40.339s-3.6 6.447 1.92 8.331c5.662 1.917 18.543 1.653 20.097 9.006 1.629 7.668-4.721 13.769-16.234 18.367-11.655 4.565-36.698 15.372-39.007 16.32-2.168.981-4.766 3.794-1.041 5.705 3.584 1.878 31.748 8.902 27.616 22.065-4.132 13.163-38.628 20.424-42.384 21.183-3.788.899-4.859 2.285-4.865 4.217-.006 1.932 9.627 3.438 17.583 5.742 7.956 2.305 16.678 6.424 13.62 13.74-3.059 7.317-24.683 20.706-72.487 18.613l-22.108-2.338-9.28-20.162c-17.287-44.488-11.64-69.194-5.628-74.482 6.01-5.288 12.7 1.777 17.378 8.52 4.678 6.744 9.209 15.387 11.136 14.796 1.927-.591 2.856-2.01 2.445-5.973-.445-3.821-4.632-38.706 6.512-46.811 11.143-8.105 26.752 16.212 29.822 19.011 2.928 2.766 4.886-.494 5.133-2.816.28-2.463 2.334-29.644 3.027-42.123.517-12.371 4.339-20.401 12.142-21.256 7.519-.92 11.473 11.454 14.993 16.143 3.521 4.689 8.542-.831 8.542-.831s8.558-16.144 28.29-43.063c19.731-26.919 31.012-16.552 31.012-16.552" fill="#D42428" fill-opacity=".5"/><path d="M37.125 335.906c14.346-19.849 39.403-55.488 61.05-86.124 21.613-30.495 41.227-58.185 55.573-78.034 7.103-9.941 13.002-17.932 17.001-23.541 2-2.805 3.551-4.971 4.622-6.357.481-.779.896-1.277 1.137-1.667.24-.39.448-.639.448-.639s-.175.108-.415.498c-.241.39-.656.888-1.278 1.634-1.104 1.527-2.622 3.552-4.763 6.324-4.108 5.435-9.866 13.459-17.143 23.508a9215.86 9215.86 0 00-55.715 78.001c-21.614 30.495-46.562 66.308-60.908 86.157" fill="#D42428"/><path d="M160.213 208.355s-.598.009-1.545.234a205.13 205.13 0 00-4.213.801c-3.614.791-8.524 2.024-14.065 3.407a1557.39 1557.39 0 00-13.99 3.722c-1.753.483-3.016.783-4.279 1.082-.947.225-1.579.375-1.612.516 0 0 .599-.009 1.546-.234a44.302 44.302 0 004.245-.941c3.614-.792 8.524-2.025 13.925-3.44 5.4-1.416 10.31-2.649 13.957-3.581a46.51 46.51 0 004.278-1.083c1.263-.3 1.753-.483 1.753-.483zm-40.927 7.989c.174-.108-1.882-10.403-4.431-23.044-2.69-12.675-4.921-22.862-5.203-22.928-.175.108 1.881 10.403 4.43 23.045 2.691 12.674 5.03 23.035 5.204 22.927zM88.26 264.718s-.183-.489-.69-1.5a150.09 150.09 0 00-2.066-3.903c-1.74-3.381-4.24-7.98-6.638-13.002-2.508-5.195-4.549-9.836-6.115-13.325-.659-1.641-1.242-2.967-1.717-4.119-.367-.978-.691-1.5-.691-1.5s.15.63.517 1.608c.366.978.917 2.445 1.542 4.227 1.425 3.456 3.433 8.238 5.94 13.433 2.508 5.196 5.006 9.795 6.921 13.068.974 1.566 1.699 2.925 2.24 3.795.259.804.616 1.185.758 1.218zm38.561.826s-.565-.132-1.446-.189c-1.164-.123-2.501-.138-4.122-.219-3.524-.228-8.244-.438-13.563-.64-5.319-.201-10.073-.27-13.63-.357-1.62-.081-2.991.045-4.155-.078-1.055.05-1.512.092-1.512.092s.565.132 1.446.19c1.163.123 2.502.138 4.122.219 3.524.228 8.244.438 13.563.639 5.319.202 10.073.271 13.63.358 1.62.081 2.991-.045 4.155.078.881.057 1.479.048 1.512-.093zM104.81 311.71s-.707-.165-1.903-.147c-1.338-.015-3.1-.129-5.286-.342-4.405-.286-10.605-.544-17.37-.934-6.798-.25-12.998-.508-17.435-.652-2.078-.039-3.873-.012-5.32-.201-1.196.018-1.936-.006-1.936-.006s.707.165 1.904.147c1.338.015 3.1.129 5.285.342 4.405.285 10.605.543 17.37.934 6.798.249 12.998.507 17.436.652 2.077.039 3.873.012 5.319.201 1.163.123 1.903.147 1.936.006zm-48.02-2.441s-.292-.663-.908-1.848c-.583-1.326-1.524-3.033-2.54-5.055a927.725 927.725 0 01-7.964-16.88c-2.916-6.63-5.508-12.738-7.3-17.171a153.53 153.53 0 00-2.191-5.271c-.475-1.152-.734-1.956-.908-1.848 0 0 .117.771.592 1.923a470.859 470.859 0 001.876 5.346c1.65 4.4 4.209 10.649 7.158 17.138 2.916 6.629 5.856 12.521 8.138 16.772 1.158 2.055 2.099 3.762 2.715 4.947.866 1.392 1.19 1.914 1.332 1.947z" fill="#D42428"/><path d="M20.1 63.765c-.139-.054-.25.852-.174 1.91.076 1.058.283 1.93.463 1.841.09-.044.16-.808.083-1.866-.076-1.058-.234-1.832-.373-1.885zm3.294-13.912c-.138-.053-.92 1.305-1.688 3.143-.63 1.892-.948 3.508-.81 3.562.138.054.595-1.51 1.273-3.303.72-1.936 1.363-3.348 1.225-3.402zm8.999-10.51c-.049-.098-1.487.61-2.863 1.895-1.466 1.33-2.386 2.634-2.248 2.688.138.054 1.203-.957 2.58-2.242 1.376-1.286 2.628-2.145 2.53-2.34zM45.4 35.135c.041-.142-1.605-.306-3.554.044-1.95.351-3.347.917-3.25 1.112.048.098 1.542-.271 3.402-.578 1.908-.209 3.408-.338 3.402-.578zm13.848 2.922c.042-.142-1.396-1.016-3.235-1.572-1.888-.653-3.533-.817-3.575-.675-.041.142 1.521.59 3.408 1.244 1.84.555 3.36 1.146 3.402 1.003zm11.337 9.148c.09-.044-.193-.392-.573-.935a19.584 19.584 0 00-1.7-2.084c-1.411-1.496-2.849-2.371-2.939-2.327-.041.142 1.175 1.247 2.537 2.646.705.749 1.362 1.4 1.832 1.898.518.597.843.802.843.802zm4.636 13.904c.139.054.409-1.661.077-3.689-.331-2.027-1.015-3.637-1.195-3.549-.18.088.366 1.645.698 3.673.372 1.885.282 3.511.42 3.565zm-8.465 10.005c.048.098 1.638-.076 3.298-1.014 1.75-.982 2.621-2.384 2.483-2.438-.138-.054-1.155 1.055-2.863 1.895-1.432.948-2.925 1.317-2.918 1.557zm-13.323-3.668c-.09.045 1.043 1.434 2.848 2.372 1.804.937 3.498 1.2 3.45 1.101.041-.142-1.521-.59-3.236-1.572-1.666-.884-2.883-1.99-3.062-1.9zm-5.895-13.285c-.139-.053-.18 1.671.29 3.752.469 2.081 1.333 3.603 1.423 3.559.18-.088-.456-1.601-.878-3.584-.518-2.18-.745-3.77-.835-3.727zm3.295-13.911c-.139-.053-1.107 1.153-1.875 2.99-.72 1.937-.948 3.51-.9 3.607.139.054.734-1.456 1.412-3.25.768-1.837 1.411-3.249 1.363-3.347zm9.703-9.762c-.048-.098-1.486.61-2.911 1.797-1.515 1.232-2.483 2.438-2.434 2.536.048.098 1.251-.859 2.766-2.09 1.424-1.188 2.628-2.145 2.58-2.243zm12.51-5.667c-.049-.098-1.59.174-3.396.818-1.804.645-3.194 1.45-3.146 1.548.048.098 1.494-.37 3.298-1.014 1.805-.644 3.34-1.156 3.244-1.352zm13.759-1.78c.042-.142-1.604-.306-3.56-.195-1.957.11-3.45.48-3.402.578.048.098 1.597.067 3.554-.044 1.866-.067 3.415-.098 3.408-.338zm14.001 1.875c.042-.142-1.48-.733-3.45-1.102-1.97-.37-3.567-.435-3.519-.337-.041.142 1.563.448 3.443.861 1.88.414 3.485.72 3.526.578zm13.372 5.348c.041-.142-1.307-1.061-3.153-1.857-1.846-.795-3.367-1.386-3.408-1.244-.042.143 1.438.875 3.194 1.715 1.846.796 3.277 1.43 3.367 1.386zm11.911 8.5c.041-.142-.995-1.336-2.675-2.7-1.542-1.31-2.98-2.185-3.111-1.999-.042.143 1.265 1.203 2.758 2.416 1.68 1.364 2.986 2.425 3.028 2.283zm8.958 12.021c.09-.044-.594-1.655-1.603-3.47-1.099-1.772-2.185-3.063-2.274-3.02-.09.045.863 1.523 1.824 3.24 1.009 1.817 1.873 3.339 2.053 3.25zm5.32 13.933c.09-.045-.186-1.734-.787-3.629-.649-1.992-1.375-3.46-1.465-3.417-.09.045.366 1.646 1.016 3.638.511 1.94 1.057 3.496 1.236 3.407zm2.88 14.646c.138.053-.048-1.68-.379-3.708-.332-2.027-.698-3.672-.877-3.584-.09.044.048 1.68.379 3.708.421 1.983.787 3.628.877 3.584zm1.151 14.766c.139.054.181-1.67.077-3.688-.103-2.018-.289-3.752-.469-3.663-.138-.054-.18 1.67-.077 3.688.193 1.974.379 3.708.469 3.663zm-.356 14.657c.138.053.318-1.617.443-3.626.125-2.008.077-3.688-.061-3.742-.138-.054-.319 1.617-.444 3.625-.076 2.107-.118 3.831.062 3.743zm-1.51 10.964c.138.054.436-.701.588-1.749.152-1.049.222-1.813.083-1.867-.138-.053-.387.799-.588 1.75-.201.95-.222 1.812-.083 1.866z" fill="#263238"/></svg>