<svg width="94" height="149" xmlns="http://www.w3.org/2000/svg" viewBox="0 0 93.7 149"><path d="M2.2 144c-.1.2-.7-.3-1.3-.9-.6-.7-1-1.4-.8-1.5.1-.1.6.3 1.2 1s1 1.3.9 1.4zm11.1 4.9c-.1.2-1.5.1-3.2-.2-1.6-.5-2.9-1.1-2.8-1.3.1-.2 1.4.3 3 .7 1.8.4 3.1.6 3 .8zm13.1-2.3c0 .1-1.4 1-3.2 1.6-1.9.6-3.4.7-3.3.5.1-.2 1.5-.6 3.3-1.1 1.7-.5 3.1-1.2 3.2-1zm11.9-9.5c.1 0-1 1.6-2.6 3.2s-3 2.5-3 2.3c0-.1 1.3-1.3 2.8-2.8 1.5-1.6 2.7-2.9 2.8-2.7zm8-14.4c.1 0-.4 1.9-1.3 3.9-.9 2.1-2 3.7-2.1 3.7-.1 0 .7-1.7 1.6-3.8 1-2.1 1.7-3.8 1.8-3.8zm2.3-15.6c.1-.1.1.4.2 1.1.1.7.1 1.7.1 2.7-.1 2.1-.5 4-.6 4-.1 0 .1-1.8.1-3.8 0-1.1.1-2 .1-2.8 0-.7.1-1.2.1-1.2zM43.2 95c.1-.2 1.3.6 2.4 2 1 1.5 1.6 3 1.4 3.1-.2.1-.8-1.3-1.8-2.7-1-1.4-2.1-2.2-2-2.4zm-12.4 2.1c0-.1 1.2-1.5 3-2.4 1.9-1 3.4-1.1 3.3-.9-.1.2-1.5.5-3.2 1.6-1.6.7-2.9 1.8-3.1 1.7zm-7.2 14.3c-.1.1-.2-1.8.5-4s1.7-3.9 1.8-3.8c.1 0-.7 1.7-1.3 3.9-.6 2-.8 3.8-1 3.9zm4.2 12.9c-.1.2-1.2-.8-2.2-2.4-1-1.6-1.3-3.3-1.2-3.3.2-.1.7 1.3 1.6 2.8 1.1 1.8 1.9 2.9 1.8 2.9zm11.2 4.9c-.1.2-1.5.4-3.2 0-1.7-.4-2.9-1.1-2.9-1.2.1-.2 1.4.2 3.1.5 1.6.4 2.9.6 3 .7zm13-3.4c0 .1-1.4 1-3.2 1.6-1.9.7-3.3.9-3.3.8 0-.1 1.4-.7 3.3-1.4 1.7-.5 3.2-1.1 3.2-1zm12.5-8.2c0 .1-1.2 1.4-2.9 2.6-1.7 1.3-3.2 2.1-3.2 2 0-.1 1.3-1.2 3-2.4 1.7-1.3 3.1-2.4 3.1-2.2zm11-11.6c.1 0-1 1.6-2.4 3.4s-2.8 2.9-2.8 2.8c0-.1 1.1-1.5 2.6-3.2 1.3-1.8 2.4-3.2 2.6-3zm8.8-13.9c.1 0-.6 1.8-1.8 3.8-1.2 2-2.3 3.5-2.3 3.4-.1 0 .8-1.7 1.9-3.6 1.1-2 2-3.7 2.2-3.6zm6.1-15.3c.1 0-.3 1.8-1.1 3.9-.8 2.1-1.5 3.9-1.6 3.8-.1 0 .5-1.8 1.2-3.9.8-2.1 1.4-3.8 1.5-3.8zM93.5 61c.1 0 .1 1.7-.2 4-.3 2.2-.7 4-1 4-.1 0 .1-1.8.4-3.9.4-2.3.7-4.1.8-4.1zm-1.2-15c.1-.1.6 1.5 1 3.4.3 2 .4 3.7.3 3.8-.1.1-.3-1.7-.7-3.5-.4-1.9-.8-3.6-.6-3.7zm-5-12.8c.1-.1 1 1.2 1.7 2.8.8 1.7 1.2 3.2 1.1 3.3-.1.1-.8-1.3-1.6-3-.8-1.6-1.4-2.9-1.2-3.1zm-7.2-10.9c.1-.2 1 1 2.1 2.4 1 1.5 1.8 2.7 1.6 2.8-.1.1-1-1-2.1-2.4-.9-1.5-1.7-2.7-1.6-2.8zm-8.5-9.4c.1-.2 1.2.8 2.4 2s2.2 2.4 2 2.5c-.1.2-1.2-.8-2.4-2-1.1-1.3-2.1-2.5-2-2.5zm-9.5-8c.1-.2 1.2.6 2.6 1.6 1.4 1 2.4 2 2.3 2.2s-1.2-.6-2.6-1.6C63 5.9 61.9 5 62.1 4.9zm-8-4.8c.1-.2.8 0 1.5.5.8.5 1.3.8 1.2 1-.1.2-.8-.1-1.5-.5S54 .2 54.1.1z" fill="#263238"/></svg>