<svg width="578" height="553" fill="none" xmlns="http://www.w3.org/2000/svg"><path d="M95.838 50.03L.776 29.99l38.134 73.876 16.798-18.565 14.967 5.385 6.874-2.52 2.61-26.735L95.838 50.03z" fill="#59A6F5"/><path opacity=".5" d="M77.013 87.43L.776 29.99l79.383 31.44-3.146 26z" fill="#000"/><path d="M.322 29c-.104.14 11.605 12.501 26.218 27.657 14.613 15.155 26.553 27.352 26.658 27.212.104-.14-11.605-12.5-26.218-27.656C12.367 41.057.449 28.977.322 29z" fill="#263238"/><path d="M31.465 37.86c-.104.14 12.958 3.137 28.88 6.661 16.05 3.5 29.045 6.15 29.15 6.01.104-.14-12.957-3.136-28.88-6.66-16.05-3.5-29.045-6.15-29.15-6.01zm-6.781-1.09c-.104.14.596.365 1.296.59.828.2 1.483.193 1.439-.038.104-.14-.596-.364-1.296-.589-.827-.2-1.483-.194-1.439.037zm8.352 29.058c-.127.024.878 1.148 2.418 3.008 1.541 1.86 3.827 4.175 6.432 6.788 2.606 2.613 5.122 4.764 6.999 6.32 1.876 1.555 3.09 2.4 3.217 2.375.126-.025-1.005-1.124-2.882-2.68-1.75-1.58-4.288-3.846-6.871-6.344-2.584-2.497-4.891-4.928-6.663-6.623-1.541-1.86-2.546-2.984-2.65-2.844z" fill="#fff"/><path d="M101 58.415c30-18.997 96.113-39.978 111-44.497 14.887-4.52 58-12.5 90.5-12.5s67.432-.62 75.5 0c15.562 1.198 39.559 3.85 59 8.5 14.582 3.488 41.57 11.853 54.5 17.997 20 9.504 32.596 19.418 46 30.5 8.641 7.145 27.124 36.18 30.5 46.504 5.928 18.129 6.363 20.937 8.5 39.996 1.29 11.507.086 37.447 0 49-.125 16.858-7.104 38.868-12.5 55-5.396 16.133-12.344 30.58-20.5 42.5-7.845 11.466-18.544 18.298-29.944 26.611-9.159 6.678-19.799 10.067-30.556 13.111-7.444 2.107-58.343 10.328-62.667 0C405 310.415 454.667 291.415 483 291.415c17.167 0 34.599 2.928 47.279 9.218 14.307 7.096 29.615 22.667 33.721 38.782 6.667 26.167 7.98 54.207 3 77.5-7.153 33.456-28.875 55.26-56.889 74.444-14.14 9.683-24.54 17.987-39.611 26.056-14.588 7.811-34.133 14.671-50.167 19.278-29.676 8.528-104.833 18.222-148.111 14.444" stroke="#000" stroke-linecap="round" stroke-linejoin="round" stroke-dasharray="10 10 10 10 10 10"/></svg>