<svg width="125" height="241" viewBox="0 0 125 241" fill="none" xmlns="http://www.w3.org/2000/svg"><path d="M92.752 54.768L73.845 35.431v-6.995h.395c.564 0 1.129-.398 1.242-.967.112-.739-.452-1.422-1.186-1.422h-.508V20.19l-25.68.17v5.63h-.507c-.564 0-1.129.399-1.242.968-.113.739.452 1.421 1.185 1.421h.565v6.768L29.597 55.962a11.524 11.524 0 00-2.878 7.621v4.834c0 1.65.62 3.242 1.806 4.38v90.824c0 .512.113 1.024.338 1.536a2.941 2.941 0 01-.169 2.389c-.338.682-.564 1.421-.564 2.161l-.282 26.275c0 1.365.112 2.73.508 4.038l-.226 18.767c-.057 3.071.282 6.086 1.072 9.043 1.411 5.403 4.572 12.228 11.74 12.228h4.91c1.467 0 2.821-.683 3.724-1.877l1.13-1.479c.676-.91 2.087-.682 2.482.398.678 1.934 2.54 3.185 4.515 3.128l11.345-.17c1.185 0 2.144-.854 2.483-1.991.395-1.137 1.919-1.308 2.54-.284l.677 1.023c.564.853 1.467 1.365 2.427 1.365h5.474c3.5 0 6.773-1.933 8.466-5.004.056-.057.056-.114.113-.171 1.919-3.64 2.878-7.735 2.878-11.829v-20.986a3.956 3.956 0 010-4.55v-29.289a2.75 2.75 0 01-.113-3.754l.113-.114V72.17l.113-.113a6.27 6.27 0 001.806-4.379v-4.891c0-2.957-1.185-5.858-3.273-8.019z" fill="#F5F5F5"/><path d="M84.06 58.01c3.894-.91 7.731 1.99 7.788 6.028v4.493c0 1.479-.564 2.958-1.58 3.981l-.113.114V156.967l-.113.114c-.847.967-.79 2.503.113 3.413v26.729a3.711 3.711 0 000 4.152v19.166c0 3.754-.847 7.507-2.54 10.806 0 .057-.056.114-.056.17a8.358 8.358 0 01-7.45 4.55h-4.854l-7.28-.114-10.047.171-10.497-.171h-4.346c-6.321 0-9.143-6.199-10.385-11.147-.677-2.673-.96-5.459-.903-8.246l.226-17.119c-.339-1.194-.451-2.445-.451-3.696l.282-24c0-.683.17-1.365.508-1.991a2.756 2.756 0 00.113-2.218c-.17-.455-.282-.91-.282-1.365V73.309a5.81 5.81 0 01-1.58-3.982v-4.492c0-3.868 2.821-7.166 6.602-8.02 3.895-.852 10.16-1.649 16.311 0 10.103 2.674 10.272 4.152 17.496 3.527 4.007-.398 9.256-1.48 13.037-2.332z" fill="#E8505B"/><path opacity=".5" d="M84.06 58.01c3.894-.91 7.731 1.99 7.788 6.028v4.493c0 1.479-.564 2.958-1.58 3.981l-.113.114.113 51.811-.113 32.53-.113.114c-.847.967-.79 2.503.113 3.413v26.729a3.711 3.711 0 000 4.152v19.166c0 3.754-.847 7.507-2.54 10.806 0 .057-.056.114-.056.17a8.358 8.358 0 01-7.45 4.55h-4.854l-7.28-.114-10.047.171-10.497-.171h-4.346c-6.321 0-9.143-6.199-10.385-11.147-.677-2.673-.96-5.459-.903-8.246l.226-17.119c-.339-1.194-.451-2.445-.451-3.696l.282-24c0-.683.17-1.365.508-1.991a2.756 2.756 0 00.113-2.218c-.17-.455-.282-.91-.282-1.365V73.309a5.81 5.81 0 01-1.58-3.982v-4.492c0-3.868 2.821-7.166 6.602-8.02 3.895-.852 10.16-1.649 16.311 0 10.103 2.674 10.272 4.152 17.496 3.527 4.007-.398 9.256-1.48 13.037-2.332z" fill="#fff"/><path d="M94.783 72.854c0 .057-14.787.17-33.073.17s-33.073-.056-33.073-.17c0-.057 14.787-.17 33.073-.17 18.23 0 33.073.056 33.073.17z" fill="#263238"/><path d="M32.249 111.811c3.16-6.711 9.482-11.887 16.706-13.593 6.772-1.592 14.11-.34 20.6-2.957 6.772-2.73 11.23-9.156 14.73-15.583 1.355-2.502 3.048-5.29 5.87-5.63-.734 1.99.451 4.379-.508 6.199-.339.625-.903 1.137-1.411 1.592-4.064 3.867-6.716 8.929-9.03 14.047-1.411 3.129-2.822 6.484-5.475 8.702-1.919 1.592-4.346 2.502-6.772 2.957-6.265 1.138-12.981-.398-18.907 1.877-4.572 1.706-8.071 5.517-10.498 9.782-2.427 4.266-3.781 8.986-5.192 13.706" fill="#fff"/><path d="M91.904 65.915c0 .17-1.016.284-2.709 1.024s-3.894 2.275-6.039 4.834c-1.072 1.251-2.145 2.73-3.217 4.379-1.072 1.65-2.144 3.47-3.386 5.403-1.242 1.877-2.653 3.867-4.515 5.573-1.806 1.763-4.064 3.185-6.547 4.152a21.02 21.02 0 01-7.62 1.422c-2.483-.057-4.797-.455-6.941-.455-4.29-.057-8.127 1.251-11.006 2.843a21.797 21.797 0 00-3.668 2.503c-1.016.796-1.806 1.65-2.483 2.275-1.242 1.365-1.863 2.218-1.976 2.161-.056-.057.057-.285.282-.739.226-.455.621-1.081 1.186-1.877.62-.74 1.354-1.65 2.37-2.56 1.016-.966 2.201-1.933 3.725-2.786 2.935-1.763 6.942-3.299 11.57-3.356 2.314 0 4.628.341 6.942.341s4.74-.455 6.998-1.364a18.874 18.874 0 006.039-3.81c1.693-1.593 3.104-3.413 4.346-5.233 1.241-1.82 2.37-3.64 3.499-5.29 1.129-1.648 2.257-3.184 3.5-4.435 2.37-2.56 4.853-4.038 6.659-4.607 1.919-.569 2.991-.455 2.991-.398zM31.967 188.076c2.37-2.389 6.095-2.844 9.425-2.446 3.33.398 6.603 1.479 9.933 1.479 4.628 0 9.256-2.104 12.304-5.63 1.128-1.308 2.032-2.787 3.16-4.152a18.598 18.598 0 0110.95-6.313c1.918-.341 3.893-.341 5.643-1.08 3.669-1.479 5.531-5.46 7.111-9.1-.225 5.972-.508 11.886-.733 17.858-6.265-1.194-12.191 2.9-17.101 6.995-4.91 4.095-10.216 8.702-16.593 8.702-3.386 0-6.716-1.308-10.102-1.195-6.378.228-11.457 5.289-15.747 10.01" fill="#fff"/><path d="M91.904 160.494c0 .113-.959.17-2.596.625-.846.171-1.806.569-2.934 1.024a26.536 26.536 0 00-3.556 2.047c-1.242.853-2.596 1.877-3.894 3.071-1.355 1.195-2.71 2.56-4.177 4.038-1.467 1.479-2.991 3.014-4.74 4.493-1.75 1.479-3.67 2.901-5.87 4.038-2.201 1.138-4.572 1.763-6.886 1.991-2.314.227-4.515.17-6.547.113-2.031-.113-4.007-.227-5.813-.227s-3.442.114-4.966.341c-1.468.228-2.822.569-3.951 1.024a14.77 14.77 0 00-2.71 1.422c-1.41.966-2.03 1.706-2.144 1.649-.056-.057.395-.967 1.75-2.161a13.019 13.019 0 012.765-1.763c1.13-.569 2.54-1.024 4.064-1.308 1.58-.342 3.273-.512 5.136-.569 1.862-.057 3.838.057 5.87.114 2.031.057 4.176.057 6.32-.171a18.35 18.35 0 006.322-1.877c2.031-1.023 3.894-2.388 5.53-3.753 1.694-1.422 3.218-2.901 4.685-4.323 1.467-1.421 2.935-2.786 4.346-3.981 1.41-1.194 2.822-2.218 4.176-3.014 1.355-.853 2.653-1.479 3.838-1.877 1.185-.398 2.258-.682 3.104-.796 1.919-.455 2.878-.284 2.878-.17zM31.798 217.479c6.66 4.038 15.407 2.844 22.293-.739 6.885-3.583 12.416-9.327 18.173-14.616 5.757-5.29 12.021-10.408 19.584-12.285a5.879 5.879 0 01-1.129-3.185c-8.691 3.868-17.608 7.849-24.268 14.673-2.314 2.332-4.29 5.005-6.886 7.109-2.483 1.991-5.361 3.299-8.296 4.436-5.87 2.332-12.247 4.095-18.512 3.242-.508-.057-1.072-.114-1.41.284-.34.399.225 1.138.563.74M81.125 154.522c0 .966-.79 1.763-1.75 1.763s-1.75-.797-1.75-1.763c0-.967.79-1.763 1.75-1.763s1.75.796 1.75 1.763zM72.546 158.219a.834.834 0 01-.847.853c-.508 0-.846-.398-.846-.853 0-.512.395-.853.846-.853.508 0 .847.398.847.853z" fill="#fff"/><path d="M52.793 207.015a.85.85 0 00.846-.854.85.85 0 00-.846-.853.85.85 0 00-.847.853.85.85 0 00.847.854z" fill="#fff"/><path d="M94.106 168.797c0 .056-14.844.17-33.13.17s-33.13-.057-33.13-.17c0-.114 14.844-.171 33.13-.171 18.286.057 33.13.114 33.13.171zM93.936 198.2c0 .057-14.787.17-33.073.17s-33.073-.057-33.073-.17c0-.057 14.787-.171 33.073-.171 18.286.057 33.073.114 33.073.171zM94.331 202.579c0 .057-14.787.17-33.073.17s-33.073-.056-33.073-.17c0-.057 14.787-.171 33.073-.171s33.073.057 33.073.171zM94.106 164.304c0 .057-14.618.171-32.678.171-18.06 0-32.678-.057-32.678-.171 0-.057 14.617-.17 32.678-.17 18.004 0 32.678.056 32.678.17zM56.461 240.228s-.17 0-.508-.17c-.282-.114-.733-.398-1.129-.796-.902-.853-1.636-2.275-2.483-3.868-.846-1.592-1.636-3.014-2.2-4.038a18.777 18.777 0 01-.847-1.706s.395.569 1.016 1.593c.564 1.023 1.41 2.445 2.257 3.981.847 1.535 1.58 3.014 2.37 3.867.79.91 1.524 1.081 1.524 1.137zM74.917 229.536c.056 0-.057.512-.283 1.251-.225.797-.564 1.82-1.016 3.015a62.17 62.17 0 01-1.241 2.9c-.339.739-.564 1.194-.62 1.138-.057 0 .112-.512.45-1.252.34-.853.734-1.819 1.13-2.957.394-1.081.79-2.104 1.072-2.957.282-.683.451-1.138.508-1.138zM93.936 209.29s-.056.057-.169.114c-.113.113-.226.227-.452.341-.395.284-.959.739-1.693 1.308a63.827 63.827 0 01-6.547 4.436 61.32 61.32 0 01-4.797 2.616c-1.806.853-3.725 1.649-5.87 2.218-4.289 1.137-9.255 1.536-14.278.341-2.484-.569-4.854-1.592-6.886-2.843-2.032-1.252-3.838-2.787-5.53-4.266-1.637-1.478-3.218-2.9-4.685-4.151-1.524-1.252-2.991-2.332-4.402-3.185-2.879-1.763-5.475-2.503-7.337-2.673-.903-.057-1.637-.057-2.145-.057-.226 0-.395.057-.564.057h-.17s.057 0 .17-.057c.112 0 .338-.057.564-.057.508-.057 1.242-.057 2.145 0 1.862.171 4.571.853 7.45 2.616 1.467.853 2.934 1.934 4.458 3.185 1.524 1.251 3.048 2.673 4.74 4.152 1.638 1.478 3.444 2.957 5.475 4.208a22.755 22.755 0 006.83 2.787c4.966 1.137 9.876.796 14.11-.341 2.144-.569 4.063-1.365 5.869-2.162 1.75-.853 3.386-1.706 4.797-2.559 2.878-1.706 5.08-3.298 6.603-4.379.734-.569 1.298-.967 1.75-1.308.17-.114.338-.227.451-.341.057.057.113 0 .113 0z" fill="#263238"/><path d="M94.106 208.607l-.113.114a2.413 2.413 0 01-.395.341c-.17.171-.395.342-.678.569-.282.228-.62.455-.959.739-1.467 1.138-3.668 2.617-6.603 4.209-1.468.796-3.104 1.535-4.91 2.275-1.806.739-3.782 1.422-5.926 1.877-.565.113-1.073.227-1.637.284-.282.057-.565.057-.847.114h-.846c-1.13 0-2.314-.057-3.5-.114-2.37-.171-4.853-.455-7.28-1.137-2.427-.683-4.684-1.764-6.547-3.299-1.862-1.479-3.443-3.185-4.967-4.777-1.523-1.536-3.047-2.958-4.684-3.981-1.637-1.081-3.273-1.82-4.854-2.275-3.104-.967-5.813-1.081-7.675-.967-.452 0-.847.057-1.242.114-.338.057-.62.057-.903.113-.226.057-.395.057-.564.114h-.17s.96-.284 2.822-.455c1.806-.17 4.572-.114 7.732.853a22.195 22.195 0 014.91 2.275c1.637 1.024 3.217 2.446 4.741 4.038 1.524 1.536 3.104 3.242 4.91 4.72 1.863 1.479 4.064 2.56 6.49 3.242 2.428.683 4.855.967 7.225 1.138 1.185.056 2.314.113 3.5.113h.846c.282 0 .564-.057.846-.113.565-.057 1.073-.171 1.637-.285 2.145-.455 4.064-1.137 5.87-1.82 1.806-.739 3.442-1.478 4.853-2.275 2.935-1.535 5.136-3.014 6.604-4.094.395-.285.677-.512.96-.74.281-.227.507-.398.676-.568.17-.114.339-.228.452-.342.17.057.226 0 .226 0zM94.049 72.57c0 .056-14.618.17-32.678.17-18.06 0-32.678-.057-32.678-.17 0-.058 14.618-.171 32.678-.171 18.06 0 32.678.057 32.678.17zM84.342 46.067l-.508.34c-.339.228-.79.57-1.411 1.082-.565.511-1.242 1.137-2.088 1.876-.847.683-1.863 1.479-3.048 2.161-2.37 1.365-5.531 2.446-9.143 2.9-3.612.456-7.62.171-11.74-.568-2.088-.341-4.063-.853-5.982-1.251a32.535 32.535 0 00-5.587-.682 27.29 27.29 0 00-9.425 1.535c-2.54.91-4.572 1.934-5.7 2.957-.565.512-.96.967-1.242 1.252l-.339.511s.056-.227.282-.511c.226-.342.621-.797 1.185-1.308 1.186-1.024 3.161-2.105 5.757-3.015 2.596-.91 5.813-1.649 9.482-1.592 1.806 0 3.725.284 5.644.682 1.919.398 3.894.853 5.982 1.252 4.12.739 8.07 1.023 11.683.625 3.555-.398 6.716-1.479 9.086-2.787 2.427-1.308 3.951-2.957 5.136-3.867.621-.512 1.073-.796 1.411-1.024.17-.113.282-.17.395-.227.113-.285.17-.341.17-.341z" fill="#263238"/><path d="M83.326 44.873s0 .056-.057.113c-.056.114-.169.228-.282.342-.226.284-.564.739-1.072 1.308-.96 1.08-2.427 2.673-4.628 4.151-2.201 1.422-5.249 2.503-8.748 2.616-3.5.171-7.28-.568-11.062-1.876-1.862-.626-3.725-1.365-5.475-1.877-1.806-.512-3.555-.91-5.305-.91-1.693-.057-3.33.227-4.797.625-1.468.399-2.822.797-4.064 1.252-2.426.91-4.289 1.933-5.587 2.673-.62.34-1.072.682-1.355.967-.282.284-.395.454-.395.454s.113-.17.339-.454c.282-.285.734-.626 1.355-1.024 1.241-.74 3.104-1.82 5.53-2.73a49.21 49.21 0 014.064-1.308c1.468-.398 3.104-.683 4.854-.626 1.75 0 3.555.398 5.361.91 1.806.512 3.612 1.194 5.531 1.877 3.725 1.308 7.507 2.047 10.95 1.877 3.442-.057 6.433-1.138 8.635-2.503 2.2-1.421 3.668-2.957 4.628-4.037.507-.57.846-.967 1.128-1.252.113-.114.226-.227.282-.341.113-.227.17-.227.17-.227z" fill="#263238"/><path d="M92.751 54.768s.282.284.79.91c.508.626 1.186 1.65 1.75 3.128.282.74.508 1.592.62 2.616.114.967.057 2.047.114 3.242v1.82c0 .625.056 1.308-.057 1.933a6.577 6.577 0 01-1.862 3.81v-.056c0 18.71.056 51.014.056 92.417v.057l-.056.057a2.505 2.505 0 00-.734 1.763c0 .682.226 1.422.734 1.934l.056.056V197.915a3.736 3.736 0 00-.677 2.105c0 .796.226 1.592.677 2.274V220.607c0 1.536.057 3.128-.056 4.721-.113 1.592-.339 3.128-.79 4.72a25.115 25.115 0 01-1.637 4.493 11.414 11.414 0 01-1.242 2.104 10 10 0 01-1.693 1.763 9.93 9.93 0 01-4.459 1.991c-.79.17-1.636.17-2.483.17h-4.91a3.067 3.067 0 01-2.201-1.194c-.282-.341-.452-.682-.677-1.08a3.084 3.084 0 00-.339-.455c-.17-.114-.282-.228-.508-.285-.339-.114-.79-.057-1.072.171-.17.114-.282.227-.395.398-.113.171-.17.341-.226.569-.339.796-1.072 1.478-1.919 1.649-.452.114-.847.057-1.298.114h-1.242c-1.693 0-3.386.057-5.08.057-.846 0-1.692 0-2.539.056h-1.298c-.395 0-.847 0-1.298-.056-.847-.114-1.693-.512-2.37-1.024-.678-.569-1.242-1.308-1.524-2.161-.17-.398-.508-.74-.903-.796-.395-.114-.903.056-1.186.341-.282.341-.564.739-.903 1.137-.282.398-.564.796-.959 1.138-.734.682-1.693 1.08-2.653 1.251-.508.057-.96.057-1.467.057h-4.402c-.508-.057-.96 0-1.468-.171l-.733-.114c-.226-.057-.452-.17-.734-.227-1.919-.569-3.5-1.877-4.797-3.412-1.298-1.536-2.201-3.356-2.879-5.233-.677-1.877-1.241-3.81-1.58-5.801a36.206 36.206 0 01-.508-6.028c0-2.048.057-4.038.057-6.085.056-4.436.112-8.816.169-13.138v.057c-.395-1.422-.508-2.901-.508-4.379 0-1.479.056-2.901.056-4.379.057-2.901.057-5.801.113-8.645.057-2.844.057-5.744.113-8.588 0-1.421.057-2.843.057-4.265 0-.739.112-1.479.451-2.104.17-.342.339-.626.395-.967.057-.341.113-.683.057-1.024-.057-.341-.17-.625-.283-.967-.113-.341-.169-.682-.225-1.08v-2.105-4.208-8.303-16.266-60.17l.056.113a6.32 6.32 0 01-1.58-2.73 4.824 4.824 0 01-.226-1.535v-1.536-3.071c0-1.024.056-2.047.282-3.014.452-1.99 1.468-3.81 2.766-5.29 1.298-1.478 2.596-2.9 3.837-4.322 5.08-5.687 9.934-11.147 14.505-16.322V28.436l.113.114h-.677c-.226 0-.452-.114-.621-.228a1.402 1.402 0 01-.564-1.137c0-.455.282-.853.677-1.024.17-.114.395-.17.62-.17h.565l-.113.113V20.36h.113c9.708-.056 18.173-.113 25.68-.113h.056v5.857l-.056-.056h.677c.226.056.451.113.62.284.34.284.509.74.452 1.137-.056.398-.338.74-.677.91-.17.114-.339.114-.508.17h-.508l.056-.056v6.995-.056c6.152 6.312 10.893 11.146 14.054 14.445 1.58 1.65 2.822 2.9 3.612 3.697.96.796 1.354 1.194 1.354 1.194l-1.242-1.251c-.79-.853-2.031-2.048-3.612-3.697-3.217-3.242-7.957-8.076-14.11-14.389V28.38h.057c.339 0 .678.057 1.016-.17.282-.17.565-.455.565-.796a1.101 1.101 0 00-.395-1.024c-.17-.114-.34-.228-.565-.228-.17-.057-.451 0-.677 0h-.057v-.057-5.8l.057.056c-7.507.057-15.972.114-25.68.17l.113-.113v5.744h-.113c-.395 0-.79-.057-1.072.17-.339.172-.564.513-.564.854-.057.398.169.74.451.967.339.227.734.17 1.185.17h.113v6.996c-4.571 5.175-9.425 10.578-14.504 16.322-1.298 1.422-2.54 2.9-3.838 4.322a11.704 11.704 0 00-2.71 5.176c-.225.967-.282 1.99-.282 2.957v3.071c0 1.024-.056 2.047.226 3.071.282.967.79 1.877 1.524 2.616l.057.057v91.109c0 .342.113.683.169.967.113.342.226.683.282 1.024.056.341 0 .739-.056 1.081-.057.341-.283.682-.395 1.023-.283.626-.395 1.308-.395 1.991 0 1.422-.057 2.843-.057 4.265-.056 2.844-.056 5.687-.113 8.588-.056 2.844-.056 5.744-.113 8.644 0 1.422-.056 2.901-.056 4.38 0 1.421.113 2.9.451 4.322-.056 4.322-.113 8.701-.169 13.137 0 2.048-.056 4.038-.056 6.086 0 1.99.169 4.038.508 5.971a31.764 31.764 0 001.523 5.744c.734 1.82 1.637 3.64 2.879 5.119 1.241 1.479 2.822 2.73 4.628 3.355 1.806.626 3.781.455 5.7.512h1.467c.508 0 .96 0 1.411-.057a4.55 4.55 0 002.484-1.137c.338-.284.62-.683.903-1.081.282-.398.564-.739.903-1.137.395-.398.96-.569 1.467-.398.508.114.96.512 1.129.967.282.796.79 1.478 1.41 1.99.622.512 1.412.853 2.258.967.395.057.847.057 1.242.057h1.298c.847 0 1.693 0 2.54-.057 1.693 0 3.386-.057 5.08-.057h1.24c.396 0 .847 0 1.243-.057.79-.17 1.41-.796 1.75-1.535.112-.171.112-.398.281-.569.113-.228.282-.398.452-.512.395-.284.846-.341 1.298-.227.226.056.451.17.62.341.17.17.283.341.396.512.226.341.451.739.677 1.023.452.626 1.242 1.024 2.032 1.081h4.854c.846 0 1.636 0 2.426-.171a9.827 9.827 0 004.29-1.933c.62-.512 1.185-1.081 1.636-1.706.452-.626.847-1.365 1.186-2.048a26.256 26.256 0 001.636-4.436c.395-1.535.678-3.071.734-4.663.113-1.536.056-3.128.056-4.664v-18.199.057c-.507-.74-.733-1.593-.733-2.446 0-.853.282-1.649.733-2.275V168.626l.057.057c-.564-.569-.847-1.365-.847-2.104 0-.74.339-1.479.847-1.934l-.056.057c.056-41.346.056-73.65.056-92.417 1.072-1.024 1.693-2.446 1.862-3.754.057-.682.057-1.308.057-1.934v-1.82c0-1.194.056-2.274-.057-3.241a10.611 10.611 0 00-.62-2.56c-.565-1.478-1.242-2.502-1.75-3.127a4.319 4.319 0 00-.564-.683c0-.284-.057-.398-.057-.398z" fill="#263238"/><path d="M73.9 25.877c0 .057-5.756.17-12.868.227-7.11.057-12.867 0-12.867-.056 0-.057 5.756-.171 12.867-.228 7.112-.057 12.868-.057 12.868.057zM74.521 28.38c0 .056-5.926.17-13.15.17-7.28 0-13.206-.057-13.206-.17 0-.057 5.926-.171 13.206-.171 7.28.057 13.15.114 13.15.17zM73.788 30.484c0 .056-5.757.17-12.812.17s-12.811-.057-12.811-.17c0-.114 5.756-.171 12.811-.171 7.111 0 12.812.057 12.812.17zM73.788 32.532c0 .056-5.757.17-12.812.17s-12.811-.057-12.811-.17c0-.057 5.756-.171 12.811-.171 7.111 0 12.812.057 12.812.17z" fill="#263238"/><path d="M48.165 28.436c.395.683 1.072 1.138 1.806 1.365.734.228 1.524.228 2.314.285 6.716.17 13.432-.114 20.092-.797.564-.056 1.185-.227 1.354-.739-1.072-.057-2.144-.057-3.217-.057-6.377 0-12.811 0-19.189.057h-3.499" fill="#E0E0E0"/><path d="M43.706 24.228V4.55S43.536.57 61.202.57c16.085 0 16.029 4.606 16.029 4.606v19.052H43.706z" fill="#E8505B"/><path d="M45.907 20.304c-.056 0-.169-3.412-.169-7.564s.056-7.564.17-7.564c.056 0 .169 3.412.169 7.564 0 4.209-.057 7.564-.17 7.564zM48.899 20.304c-.057 0-.17-3.583-.17-7.962 0-4.436.057-7.962.17-7.962.056 0 .169 3.583.169 7.962s-.057 7.962-.17 7.962zM51.834 20.304c-.057 0-.17-3.697-.17-8.303 0-4.55.057-8.304.17-8.304.112 0 .169 3.697.169 8.304-.057 4.606-.113 8.303-.17 8.303zM54.712 20.304c-.056 0-.17-3.81-.17-8.474 0-4.663.057-8.474.17-8.474.056 0 .17 3.81.17 8.474-.057 4.664-.114 8.474-.17 8.474zM57.59 20.304c-.056 0-.17-3.81-.17-8.474 0-4.663.057-8.474.17-8.474.113 0 .17 3.81.17 8.474-.057 4.664-.113 8.474-.17 8.474zM60.468 20.304c-.056 0-.169-3.81-.169-8.474 0-4.663.056-8.474.17-8.474.112 0 .169 3.81.169 8.474s-.113 8.474-.17 8.474zM63.347 20.304c-.057 0-.17-3.81-.17-8.474 0-4.663.057-8.474.17-8.474.056 0 .169 3.81.169 8.474s-.056 8.474-.17 8.474zM66.225 20.304c-.056 0-.17-3.81-.17-8.474 0-4.663.057-8.474.17-8.474.056 0 .17 3.81.17 8.474s-.057 8.474-.17 8.474zM69.103 20.304c-.056 0-.169-3.64-.169-8.19 0-4.55.056-8.19.17-8.19.112 0 .169 3.64.169 8.19 0 4.55-.057 8.19-.17 8.19zM72.038 20.304c-.056 0-.169-3.526-.169-7.848s.056-7.849.17-7.849c.056 0 .169 3.526.169 7.849-.057 4.322-.113 7.848-.17 7.848zM74.917 20.304c-.057 0-.17-3.298-.17-7.393s.057-7.394.17-7.394c.056 0 .17 3.299.17 7.394-.057 4.095-.114 7.393-.17 7.393z" fill="#263238"/><path d="M76.102 5.915s-.113 0-.339-.057c-.226-.056-.508-.17-.903-.284-.395-.114-.846-.284-1.41-.455a30.024 30.024 0 00-1.92-.512 76.692 76.692 0 00-2.314-.512c-.846-.17-1.75-.284-2.709-.455-1.919-.227-4.007-.454-6.264-.454-2.202 0-4.346.17-6.265.398-.96.113-1.863.227-2.71.398-.846.113-1.636.34-2.313.512-.734.17-1.355.34-1.919.511-.564.171-1.016.285-1.41.399-.396.113-.678.227-.904.284-.226.057-.339.057-.339.057s.113-.057.283-.114c.225-.057.508-.17.903-.341.395-.114.846-.285 1.41-.455.565-.17 1.186-.341 1.92-.512.733-.17 1.467-.398 2.37-.512.846-.17 1.75-.284 2.709-.455a53.814 53.814 0 016.321-.398c2.258 0 4.346.228 6.321.455.96.17 1.863.284 2.71.512.846.17 1.636.341 2.313.569.734.17 1.355.398 1.92.568.563.17 1.015.342 1.41.455.339.114.677.228.903.341a.58.58 0 01.226.057zM76.271 20.36c0 .058-6.998.171-15.633.171-8.635 0-15.634-.056-15.634-.17 0-.114 6.999-.17 15.634-.17 8.635 0 15.633.113 15.633.17z" fill="#263238"/><path d="M97.522 100.665H25.728v46.976h71.794s.463-6.395 0-22.991c-.462-16.596 0-23.985 0-23.985z" fill="#fff"/><path d="M94.106 100.664H28.524s5.65 8.029 5.65 23.986-5.65 22.991-5.65 22.991h65.582s-5.88-6.395-6.302-22.991c-.422-16.596 6.302-23.986 6.302-23.986z" fill="#E8505B"/><path d="M34.883 144.442c-.056 0 4.358-8.361 4.358-18.711 0-10.351-4.47-18.711-4.358-18.711.057 0 2.669 8.36 2.669 18.711 0 10.294-2.612 18.711-2.669 18.711z" fill="#fff"/><path d="M26.081 126.566a.5.5 0 000-.707l-3.182-3.182a.5.5 0 00-.707.707l2.829 2.828-2.829 2.829a.5.5 0 00.707.707l3.182-3.182zm-25.983.146h25.63v-1H.098v1zM98.207 125.859a.5.5 0 000 .707l3.182 3.182a.5.5 0 00.707-.707l-2.829-2.829 2.829-2.828a.5.5 0 00-.707-.707l-3.182 3.182zm25.983-.147H98.56v1h25.63v-1z" fill="#000"/></svg>
