<svg width="129" height="350" viewBox="0 0 129 350" fill="none" xmlns="http://www.w3.org/2000/svg">
<path d="M76.7801 304.526C76.7801 304.526 76.6331 304.232 76.486 303.791C76.1918 303.202 75.8976 302.467 75.4563 301.584C74.5737 299.672 73.3969 296.73 72.5143 292.906C70.602 285.109 69.8666 273.341 72.8085 259.367C74.1324 252.306 76.3389 244.804 78.9866 236.861C81.6344 228.918 84.7234 220.386 87.2241 211.119C89.7248 201.999 91.637 191.996 91.3428 181.552C90.9015 171.108 87.8125 160.664 84.4293 150.221C81.046 139.777 77.5157 129.627 76.486 119.477C75.3092 109.327 77.5156 99.3246 82.0757 91.0872C86.6357 82.8497 92.2254 75.6419 96.4913 68.287C100.757 60.9321 103.552 53.4301 105.17 46.3694C108.406 32.248 107.229 20.3331 105.758 12.5369C104.14 4.5936 102.228 0.621948 102.228 0.621948C102.228 0.621948 102.228 0.916144 102.375 1.35744C102.522 1.94583 102.816 2.68133 103.111 3.71101C103.699 5.77038 104.582 8.71235 105.317 12.684C106.788 20.4802 107.671 32.3951 104.435 46.3694C102.669 53.283 100.022 60.785 95.7558 67.9928C91.4899 75.2006 85.9002 82.2613 81.1931 90.6459C76.486 98.8834 74.1324 109.327 75.3092 119.624C76.3389 130.068 79.8692 140.218 83.2524 150.662C86.6357 161.106 89.7248 171.403 90.1661 181.699C90.6074 191.996 88.6951 201.852 86.1944 210.972C83.6937 220.092 80.7518 228.624 78.104 236.714C75.4563 244.804 73.2498 252.306 71.9259 259.367C69.1311 273.489 69.8666 285.404 72.073 293.2C73.1027 297.024 74.2795 299.966 75.3092 301.878C75.7505 302.761 76.1918 303.497 76.486 304.085C76.6331 304.232 76.7801 304.526 76.7801 304.526Z" fill="#263238"/>
<path d="M90.6074 75.495C90.6074 75.495 99.2862 47.9877 83.8409 31.8069C83.2525 31.2185 82.3699 31.5127 82.2228 32.2482C81.3402 36.9553 80.3105 50.7825 90.6074 75.495Z" fill="#E8505B"/>
<path d="M85.459 41.0742C85.3119 41.0742 85.6062 42.9865 86.0475 46.2226C86.6359 49.753 87.2242 53.8717 87.9597 58.4318C88.6952 62.9918 89.2836 67.1106 89.872 70.6409C90.3133 73.73 90.6075 75.6422 90.7546 75.6422C90.9017 75.6422 90.9017 73.73 90.6075 70.4938C90.3133 67.4047 89.7249 62.9918 88.9894 58.2847C88.2539 53.5776 87.3713 49.3117 86.783 46.2226C86.1946 42.8394 85.6061 41.0742 85.459 41.0742Z" fill="#263238"/>
<path d="M80.6047 140.513C80.6047 140.513 75.3092 112.123 54.1271 105.062C53.3916 104.768 52.6561 105.503 52.9503 106.239C54.2742 110.652 59.8639 123.449 80.6047 140.513Z" fill="#E8505B"/>
<path d="M59.8639 112.416C59.7168 112.563 60.8935 114.034 62.8058 116.682C65.0123 119.477 67.513 122.86 70.1607 126.538C72.9556 130.215 75.4562 133.598 77.5156 136.393C79.4279 138.894 80.6047 140.512 80.6047 140.365C80.7518 140.218 79.7221 138.6 78.104 135.952C76.3388 133.304 73.8382 129.774 70.8962 125.949C67.9542 122.125 65.3065 118.742 63.2471 116.241C61.3349 113.74 60.011 112.269 59.8639 112.416Z" fill="#263238"/>
<path d="M86.1945 211.56C86.1945 211.56 89.4307 182.876 71.1905 170.078C70.6021 169.637 69.7195 170.078 69.7195 170.814C69.7195 175.521 71.3376 189.201 86.1945 211.56Z" fill="#E8505B"/>
<path d="M74.5738 178.757C74.4267 178.757 75.0151 180.669 76.0447 183.611C77.2215 186.994 78.6925 190.819 80.3106 195.085C81.9286 199.351 83.2526 203.322 84.5764 206.706C85.6061 209.648 86.3416 211.56 86.4887 211.413C86.6358 211.413 86.1945 209.5 85.3119 206.411C84.4293 203.322 83.1054 199.204 81.3403 194.791C79.7222 190.231 78.1041 186.259 76.7802 183.317C75.6034 180.375 74.7209 178.757 74.5738 178.757Z" fill="#263238"/>
<path d="M70.3079 283.197C70.3079 283.197 72.5144 254.366 53.8329 242.157C53.2445 241.716 52.3619 242.157 52.3619 243.04C52.509 247.6 54.7155 261.427 70.3079 283.197Z" fill="#E8505B"/>
<path d="M57.5103 250.689C57.3633 250.689 58.0988 252.601 59.2755 255.543C60.5994 258.779 62.2175 262.604 63.9827 266.869C65.7479 271.135 67.2188 274.96 68.5427 278.196C69.7195 281.138 70.455 282.903 70.6021 282.903C70.7492 282.903 70.3079 280.991 69.2782 277.902C68.2485 274.96 66.7775 270.841 65.0124 266.428C63.2472 262.015 61.482 258.043 60.011 255.102C58.5401 252.454 57.6574 250.689 57.5103 250.689Z" fill="#263238"/>
<path d="M102.964 51.3708C102.964 51.3708 128.559 37.9849 129 15.7731C129 15.0376 128.117 14.4492 127.529 14.8905C123.852 17.5383 113.261 26.5113 102.964 51.3708Z" fill="#E8505B"/>
<path d="M123.852 23.2751C123.704 23.128 122.528 24.7461 120.615 27.2468C118.556 30.1887 116.055 33.4249 113.408 37.2494C110.76 40.9269 108.259 44.3101 106.2 47.2521C104.288 49.7528 103.111 51.3708 103.258 51.5179C103.405 51.665 104.729 50.194 106.788 47.8405C108.848 45.4869 111.495 41.9566 114.29 38.132C117.085 34.1604 119.586 30.63 121.204 27.9823C122.969 25.0403 123.852 23.4222 123.852 23.2751Z" fill="#263238"/>
<path d="M75.6035 110.504C75.6035 110.504 101.934 98.736 103.846 76.5242C103.846 75.7887 103.111 75.2003 102.375 75.6416C98.4037 77.8481 87.3713 86.3798 75.6035 110.504Z" fill="#E8505B"/>
<path d="M97.9624 83.7323C97.8153 83.5852 96.4914 85.0561 94.5792 87.5568C92.3727 90.3517 89.725 93.4407 86.783 97.1182C83.841 100.649 81.1932 103.885 78.9868 106.532C76.9274 108.886 75.7506 110.504 75.8977 110.504C76.0448 110.651 77.5158 109.327 79.5752 106.974C81.7816 104.62 84.5765 101.384 87.6655 97.7066C90.7546 94.0291 93.4024 90.4987 95.1675 87.9981C97.0798 85.4974 98.1095 83.8794 97.9624 83.7323Z" fill="#263238"/>
<path d="M90.7544 176.404C90.7544 176.404 108.847 153.898 100.316 133.305C100.022 132.569 98.9919 132.422 98.5506 133.157C96.1971 137.129 90.166 149.632 90.7544 176.404Z" fill="#E8505B"/>
<path d="M98.5506 142.425C98.4035 142.425 97.9622 144.337 97.2267 147.426C96.4912 150.957 95.6087 154.928 94.579 159.488C93.5493 164.048 92.6667 168.02 91.9312 171.55C91.1957 174.64 90.7544 176.552 90.9015 176.552C91.0486 176.552 91.7841 174.787 92.6667 171.698C93.5493 168.609 94.579 164.49 95.6087 159.783C96.6384 155.075 97.3738 150.81 97.9622 147.721C98.4035 144.337 98.6977 142.425 98.5506 142.425Z" fill="#263238"/>
<path d="M72.8086 254.072C72.8086 254.072 98.992 241.863 100.463 219.651C100.463 218.915 99.7275 218.327 98.992 218.768C95.0204 221.122 84.1351 229.654 72.8086 254.072Z" fill="#E8505B"/>
<path d="M94.7262 227.006C94.5791 226.859 93.4023 228.477 91.3429 230.83C89.1364 233.625 86.4887 236.861 83.6938 240.539C80.899 244.069 78.2512 247.452 76.0447 250.1C74.1325 252.601 72.8086 254.072 72.9557 254.219C73.1028 254.366 74.4266 253.042 76.6331 250.688C78.6925 248.335 81.6345 245.099 84.5764 241.274C87.5184 237.45 90.1662 234.066 91.9313 231.419C93.8436 228.624 94.8733 227.006 94.7262 227.006Z" fill="#263238"/>
<path d="M20.7358 140.66C20.7358 140.66 20.7358 140.807 20.7358 141.248C20.7358 141.689 20.7358 142.425 20.7358 143.16C20.8829 144.925 20.883 147.279 21.0301 150.221C21.3242 156.399 21.7655 164.931 22.3539 175.228C24.2662 185.672 29.5617 197.292 36.6224 208.472C41.918 216.709 47.3606 224.211 52.0677 231.272C56.7749 238.186 60.8936 244.658 63.6884 250.395C66.4833 256.132 68.1014 260.986 69.1311 264.516C69.5724 266.281 69.8666 267.605 70.1608 268.488C70.3078 269.37 70.455 269.812 70.6021 269.812C70.6021 269.812 70.6021 269.37 70.455 268.341C70.3079 267.458 70.0137 265.987 69.5724 264.222C68.6898 260.692 67.2188 255.69 64.4239 249.953C61.6291 244.069 57.6575 237.597 52.9503 230.537C48.2432 223.476 42.8006 215.974 37.505 207.736C30.4443 196.557 25.1488 185.23 23.2365 174.933C22.501 164.637 21.9126 156.105 21.4713 149.927C21.1771 146.985 21.03 144.631 20.8829 143.013C20.7358 142.278 20.7358 141.689 20.7358 141.248C20.8829 140.807 20.7358 140.66 20.7358 140.66Z" fill="#263238"/>
<path d="M36.3283 206.265C36.3283 206.265 25.2959 179.64 39.1231 162.136C39.5644 161.547 40.5941 161.694 40.7412 162.43C42.0651 166.843 44.4186 180.523 36.3283 206.265Z" fill="#E8505B"/>
<path d="M38.3876 171.403C38.2405 171.403 37.9463 173.315 37.505 176.404C37.0638 179.493 36.6224 183.906 36.3282 188.613C36.034 193.468 35.887 197.733 35.887 200.97C35.887 204.059 36.034 206.118 36.1811 206.118C36.3282 206.118 36.4754 204.206 36.6225 200.97C36.9166 197.439 37.0638 193.321 37.505 188.76C37.7992 184.2 38.0934 180.082 38.3876 176.551C38.3876 173.315 38.5347 171.403 38.3876 171.403Z" fill="#263238"/>
<g opacity="0.3">
<g opacity="0.3">
<g opacity="0.3">
<g opacity="0.3">
<g opacity="0.3">
<path opacity="0.3" d="M36.3283 206.265C36.3283 206.265 25.2959 179.64 39.1231 162.136C39.5644 161.547 40.5941 161.694 40.7412 162.43C42.0651 166.843 44.4186 180.523 36.3283 206.265Z" fill="black"/>
</g>
</g>
</g>
</g>
</g>
<path d="M70.6019 270.4C70.6019 270.4 61.776 242.892 77.0742 226.712C77.6626 226.123 78.5452 226.417 78.6923 227.153C79.5749 231.713 80.7517 245.54 70.6019 270.4Z" fill="#E8505B"/>
<path d="M75.4562 235.832C75.3091 235.832 74.8678 237.744 74.1324 240.833C73.544 243.922 72.6614 248.188 71.9259 252.895C71.1904 257.602 70.7491 262.015 70.4549 265.104C70.1607 268.193 70.1607 270.253 70.3078 270.253C70.4549 270.253 70.7491 268.34 71.1904 265.251C71.7788 261.721 72.3672 257.602 72.9555 253.042C73.691 248.482 74.2795 244.363 74.8678 240.833C75.3091 237.891 75.6033 235.979 75.4562 235.832Z" fill="#263238"/>
<g opacity="0.3">
<g opacity="0.3">
<g opacity="0.3">
<g opacity="0.3">
<g opacity="0.3">
<path opacity="0.3" d="M70.6019 270.4C70.6019 270.4 61.776 242.892 77.0742 226.712C77.6626 226.123 78.5452 226.417 78.6923 227.153C79.5749 231.713 80.7517 245.54 70.6019 270.4Z" fill="black"/>
</g>
</g>
</g>
</g>
</g>
<path d="M22.2068 173.609C22.2068 173.609 -1.47592 157.135 1.02474 134.923C1.17184 134.187 2.05444 133.746 2.64283 134.334C6.02608 137.423 15.2932 147.72 22.2068 173.609Z" fill="#E8505B"/>
<g opacity="0.3">
<g opacity="0.3">
<g opacity="0.3">
<g opacity="0.3">
<g opacity="0.3">
<path opacity="0.3" d="M22.2068 173.609C22.2068 173.609 -1.47592 157.135 1.02474 134.923C1.17184 134.187 2.05444 133.746 2.64283 134.334C6.02608 137.423 15.2932 147.72 22.2068 173.609Z" fill="black"/>
</g>
</g>
</g>
</g>
</g>
<path d="M5.29041 143.161C5.14331 143.161 5.87883 145.073 7.20271 147.868C8.52659 150.663 10.4388 154.634 12.7924 158.9C15.146 163.166 17.3525 166.843 18.9705 169.638C20.7357 172.286 21.9125 173.904 21.9125 173.757C22.0596 173.61 21.0299 171.992 19.5589 169.197C17.7938 166.108 15.8815 162.43 13.675 158.459C11.4685 154.487 9.55627 150.81 7.79109 147.573C6.32011 144.779 5.43751 143.161 5.29041 143.161Z" fill="#263238"/>
<path d="M61.0407 243.187C61.0407 243.187 32.5037 238.774 24.8546 217.739C24.5604 217.004 25.2959 216.268 26.0314 216.415C30.5914 217.739 43.389 223.035 61.0407 243.187Z" fill="#E8505B"/>
<g opacity="0.3">
<g opacity="0.3">
<g opacity="0.3">
<g opacity="0.3">
<g opacity="0.3">
<path opacity="0.3" d="M61.0407 243.187C61.0407 243.187 32.5037 238.774 24.8546 217.739C24.5604 217.004 25.2959 216.268 26.0314 216.415C30.5914 217.739 43.389 223.035 61.0407 243.187Z" fill="black"/>
</g>
</g>
</g>
</g>
</g>
<path d="M32.3567 223.329C32.2096 223.476 33.6805 224.8 36.1812 226.712C38.6819 228.624 42.0651 231.272 46.0368 234.067C50.0084 236.862 53.5388 239.215 56.3336 240.981C58.9814 242.599 60.7466 243.481 60.8937 243.334C61.0408 243.187 59.4227 242.157 56.7749 240.245C53.833 238.186 50.4497 235.832 46.7723 233.184C43.0948 230.537 39.5645 228.183 36.7696 226.124C34.1219 224.359 32.5038 223.182 32.3567 223.329Z" fill="#263238"/>
<path d="M94.7261 295.701L86.6357 349.244H53.98L42.9476 295.701H94.7261Z" fill="#455A64"/>
<path d="M47.8019 316.294C47.8019 316.294 47.949 316.441 48.0961 316.441C48.2432 316.588 48.5374 316.735 48.9787 316.882C49.7142 317.324 51.0381 317.765 52.6562 317.912C54.2742 318.206 56.3336 318.059 58.6872 317.324C60.8936 316.588 63.3943 315.117 65.1595 312.617C66.0421 311.293 66.6305 309.822 66.6305 308.204C66.7776 306.586 66.0421 304.526 64.424 303.644C62.8059 302.614 60.5994 303.055 58.9813 304.085C57.3633 305.115 56.3336 307.027 55.8923 308.939C55.451 310.851 55.3039 312.911 55.451 314.97C55.5981 317.03 55.8923 319.089 56.7749 321.148C57.5104 323.208 58.8343 325.12 60.5994 326.591C62.3646 328.062 64.5711 329.092 66.9247 329.239C69.2782 329.386 71.6318 328.503 73.397 327.326C75.3092 326.15 76.9273 324.679 78.2512 322.914C79.5751 321.148 80.6048 319.236 80.7519 317.03C80.899 314.97 80.1635 312.617 78.3983 311.293C76.6331 309.969 74.2796 309.969 72.6615 310.999C70.8963 311.881 69.5724 313.499 69.2782 315.412C68.6898 319.089 70.7492 322.472 73.397 323.943C76.0447 325.414 78.9867 325.561 81.3402 325.12C83.6938 324.679 85.459 323.796 86.93 322.914C88.4009 322.031 89.4306 321.295 90.019 320.854C90.7545 320.266 91.0487 319.972 91.0487 319.972C91.0487 319.972 90.6074 320.266 89.8719 320.707C89.1364 321.148 88.1068 321.884 86.6358 322.619C85.1648 323.355 83.3996 324.237 81.046 324.679C78.8396 325.12 76.0447 324.973 73.5441 323.502C71.1905 322.178 69.2782 318.942 69.8666 315.706C70.1608 314.088 71.3376 312.617 72.8086 311.881C74.2796 311.146 76.3389 310.999 77.6628 312.175C78.9867 313.352 79.7222 315.264 79.5751 317.177C79.428 319.089 78.5454 321.001 77.2215 322.619C75.8976 324.237 74.4266 325.708 72.5144 326.738C70.7492 327.915 68.6898 328.65 66.4834 328.503C64.2769 328.356 62.3646 327.474 60.7465 326.15C59.1285 324.826 57.9517 323.061 57.2162 321.148C56.4807 319.236 56.0394 317.177 55.8923 315.264C55.7452 313.205 55.7452 311.293 56.1865 309.528C56.6278 307.762 57.5104 305.997 58.9813 305.115C60.4523 304.085 62.2175 303.938 63.6885 304.673C65.0124 305.409 65.6008 307.174 65.6008 308.645C65.6008 310.116 65.0124 311.587 64.2769 312.764C62.6588 315.117 60.3052 316.588 58.2459 317.324C56.0394 318.059 53.98 318.206 52.509 318.059C49.2729 317.324 47.8019 316.147 47.8019 316.294Z" fill="#263238"/>
</svg>
