<svg width="91" height="241" viewBox="0 0 91 241" fill="none" xmlns="http://www.w3.org/2000/svg">
<path d="M77.5152 54.6786L58.3897 35.342V28.3467H58.7894C59.3603 28.3467 59.9312 27.9486 60.0454 27.3799C60.1595 26.6406 59.5886 25.9581 58.8465 25.9581H58.3326V20.1003L32.3562 20.2709V25.9012H31.8424C31.2715 25.9012 30.7006 26.2994 30.5864 26.8681C30.4722 27.6074 31.0431 28.2899 31.7853 28.2899H32.3562V35.0577L13.6304 55.8729C11.7464 57.9772 10.7188 60.707 10.7188 63.4938V68.3279C10.7188 69.9772 11.3468 71.5696 12.5457 72.7071V163.532C12.5457 164.044 12.6598 164.556 12.8882 165.067C13.1737 165.864 13.1166 166.717 12.7169 167.456C12.3744 168.139 12.146 168.878 12.146 169.617L11.8606 195.892C11.8606 197.257 11.9748 198.622 12.3744 199.93L12.146 218.698C12.0889 221.769 12.4315 224.783 13.2308 227.741C14.658 233.143 17.8551 239.968 25.1057 239.968H30.0726C31.557 239.968 32.9271 239.286 33.8406 238.091L34.9824 236.613C35.6675 235.703 37.0948 235.93 37.4944 237.011C38.1795 238.944 40.0635 240.196 42.0617 240.139L53.537 239.968C54.7359 239.968 55.7064 239.115 56.049 237.978C56.4486 236.84 57.9901 236.67 58.6181 237.693L59.3032 238.717C59.8741 239.57 60.7875 240.082 61.7581 240.082H67.2959C70.8356 240.082 74.1468 238.148 75.8596 235.077C75.9166 235.02 75.9167 234.963 75.9737 234.907C77.9148 231.267 78.8854 227.172 78.8854 223.077V202.091C77.9148 200.726 77.9148 198.906 78.8854 197.542V168.252C77.8577 167.229 77.8007 165.579 78.7712 164.499L78.8854 164.385V133.731V72.0815L78.9996 71.9677C80.1414 70.8303 80.8265 69.2379 80.8265 67.5886V62.6976C80.8265 59.7402 79.6276 56.8397 77.5152 54.6786Z" fill="#F5F5F5"/>
<path d="M68.7224 57.9204C72.6617 57.0104 76.5439 59.9109 76.6009 63.9488V64.0057V68.4417C76.6009 69.9204 76.03 71.3991 75.0024 72.4228L74.8882 72.5365V128.897V156.878L74.774 156.992C73.9177 157.959 73.9748 159.494 74.8882 160.404V187.134C74.0318 188.385 74.0318 190.034 74.8882 191.286V210.452C74.8882 214.205 74.0318 217.959 72.3191 221.257C72.3191 221.314 72.262 221.371 72.262 221.428C70.7777 224.271 67.866 225.978 64.726 225.978H59.8162L52.4515 225.864L42.2893 226.035L31.6703 225.864H27.2743C20.8801 225.864 18.0256 219.665 16.7696 214.717C16.0845 212.044 15.799 209.257 15.8561 206.47L16.0845 189.352C15.742 188.158 15.6278 186.906 15.6278 185.655L15.9132 161.655C15.9132 160.973 16.0845 160.29 16.427 159.665C16.7696 158.982 16.8267 158.186 16.5412 157.447C16.37 156.992 16.2558 156.537 16.2558 156.082V73.219C15.2281 72.1384 14.6572 70.7166 14.6572 69.2379V64.8019V64.745C14.6572 60.8777 17.5118 57.5791 21.3369 56.726C25.2761 55.873 31.6132 55.0767 37.8362 56.726C48.0555 59.399 48.2267 60.8777 55.5344 60.2521C59.5878 59.854 64.8973 58.7734 68.7224 57.9204Z" fill="#E8505B"/>
<path opacity="0.5" d="M68.7224 57.9204C72.6617 57.0104 76.5438 59.9109 76.6009 63.9488V64.0057V68.4417C76.6009 69.9204 76.03 71.3991 75.0024 72.4228L74.8882 72.5365L75.0024 124.348L74.8882 156.878L74.774 156.992C73.9177 157.959 73.9748 159.494 74.8882 160.404V187.134C74.0318 188.385 74.0318 190.034 74.8882 191.286V210.452C74.8882 214.205 74.0318 217.959 72.3191 221.257C72.3191 221.314 72.262 221.371 72.262 221.428C70.7777 224.271 67.866 225.978 64.726 225.978H59.8162L52.4515 225.864L42.2893 226.035L31.6703 225.864H27.2743C20.8801 225.864 18.0256 219.665 16.7696 214.717C16.0845 212.044 15.799 209.257 15.8561 206.47L16.0845 189.352C15.742 188.158 15.6278 186.906 15.6278 185.655L15.9132 161.655C15.9132 160.973 16.0845 160.29 16.427 159.665C16.7696 158.982 16.8267 158.186 16.5412 157.447C16.37 156.992 16.2558 156.537 16.2558 156.082V73.219C15.2281 72.1384 14.6572 70.7166 14.6572 69.2379V64.8019V64.745C14.6572 60.8777 17.5118 57.5791 21.3369 56.726C25.2761 55.873 31.6132 55.0767 37.8362 56.726C48.0555 59.399 48.2267 60.8777 55.5344 60.2521C59.5878 59.854 64.8973 58.7734 68.7224 57.9204Z" fill="white"/>
<path d="M79.5697 72.7642C79.5697 72.821 64.6119 72.9348 46.1144 72.9348C27.6169 72.9348 12.6591 72.8779 12.6591 72.7642C12.6591 72.7073 27.6169 72.5935 46.1144 72.5935C64.5548 72.5935 79.5697 72.6504 79.5697 72.7642Z" fill="#263238"/>
<path d="M16.3129 111.721C19.51 105.01 25.9042 99.835 33.2118 98.1288C40.0627 96.5364 47.4845 97.7876 54.05 95.1715C60.9009 92.4416 65.4111 86.0151 68.9508 79.5885C70.3209 77.0861 72.0337 74.2994 74.8882 73.9582C74.146 75.9487 75.3449 78.3373 74.3744 80.1572C74.0319 80.7828 73.4609 81.2947 72.9471 81.7497C68.8366 85.617 66.1533 90.6786 63.8126 95.7971C62.3853 98.9251 60.958 102.281 58.2747 104.499C56.3337 106.091 53.8787 107.001 51.4238 107.456C45.0867 108.593 38.2929 107.058 32.2983 109.333C27.674 111.039 24.1343 114.849 21.6794 119.115C19.2245 123.38 17.8543 128.1 16.427 132.821" fill="white"/>
<path d="M76.6579 65.8255C76.6579 65.9962 75.6303 66.1099 73.9175 66.8492C72.2048 67.5886 69.9782 69.1241 67.8088 71.6834C66.7241 72.9346 65.6393 74.4132 64.5546 76.0625C63.4699 77.7118 62.3852 79.5317 61.1292 81.4654C59.8731 83.3422 58.4459 85.3327 56.5619 87.0389C54.735 88.8019 52.4513 90.2237 49.9393 91.1905C47.4273 92.1574 44.8011 92.6123 42.232 92.6123C39.72 92.5555 37.3793 92.1574 35.2098 92.1574C30.8709 92.1005 26.9887 93.4085 24.0771 95.001C22.5927 95.7972 21.3938 96.6503 20.3662 97.5034C19.3385 98.2996 18.5393 99.1526 17.8542 99.7782C16.5982 101.143 15.9702 101.996 15.856 101.939C15.7989 101.883 15.9131 101.655 16.1414 101.2C16.3698 100.745 16.7694 100.119 17.3403 99.3233C17.9683 98.5839 18.7105 97.674 19.7382 96.764C20.7658 95.7972 21.9647 94.8304 23.5062 93.9773C26.4749 92.2142 30.5284 90.6787 35.2098 90.6218C37.5506 90.6218 39.8913 90.963 42.232 90.963C44.5728 90.963 47.0277 90.5081 49.3113 89.5981C51.652 88.6882 53.7073 87.3801 55.4201 85.7877C57.1328 84.1953 58.56 82.3753 59.816 80.5554C61.072 78.7355 62.2139 76.9156 63.3557 75.2663C64.4975 73.617 65.6393 72.0815 66.8953 70.8303C69.2931 68.271 71.8052 66.7924 73.6321 66.2236C75.5732 65.6549 76.6579 65.7687 76.6579 65.8255Z" fill="white"/>
<path d="M16.0274 187.986C18.4252 185.598 22.1932 185.143 25.5616 185.541C28.9299 185.939 32.2412 187.02 35.6096 187.02C40.2911 187.02 44.9725 184.915 48.0554 181.389C49.1973 180.081 50.1107 178.602 51.2525 177.238C54.05 173.939 58.0463 171.664 62.3282 170.925C64.2693 170.584 66.2674 170.584 68.0373 169.844C71.7482 168.366 73.6322 164.384 75.2307 160.745C75.0024 166.716 74.7169 172.631 74.4886 178.602C68.1515 177.408 62.1569 181.503 57.19 185.598C52.2231 189.693 46.8565 194.299 40.4052 194.299C36.9798 194.299 33.6114 192.991 30.186 193.105C23.7347 193.332 18.5965 198.394 14.2576 203.114" fill="white"/>
<path d="M76.6581 160.404C76.6581 160.518 75.6875 160.575 74.0319 161.03C73.1755 161.2 72.205 161.598 71.0632 162.053C69.9784 162.565 68.7224 163.248 67.4664 164.101C66.2104 164.954 64.8402 165.978 63.5271 167.172C62.157 168.366 60.7868 169.731 59.3024 171.21C57.818 172.689 56.2766 174.224 54.5068 175.703C52.7369 177.181 50.7959 178.603 48.5693 179.741C46.3428 180.878 43.9449 181.504 41.6042 181.731C39.2635 181.959 37.0369 181.902 34.9816 181.845C32.9264 181.731 30.9282 181.618 29.1013 181.618C27.2744 181.618 25.6187 181.731 24.0773 181.959C22.5929 182.186 21.2227 182.527 20.0809 182.982C18.9391 183.437 18.0256 183.949 17.3405 184.404C15.9133 185.371 15.2853 186.11 15.1711 186.054C15.114 185.997 15.5707 185.087 16.9409 183.892C17.626 183.324 18.5394 182.698 19.7384 182.129C20.8802 181.561 22.3074 181.106 23.8489 180.821C25.4474 180.48 27.1602 180.309 29.0442 180.253C30.9282 180.196 32.9264 180.309 34.9816 180.366C37.0369 180.423 39.2064 180.423 41.3758 180.196C43.5453 179.968 45.7148 179.343 47.77 178.319C49.8253 177.295 51.7093 175.93 53.365 174.565C55.0777 173.144 56.6191 171.665 58.1035 170.243C59.5879 168.821 61.0722 167.456 62.4995 166.262C63.9268 165.068 65.3541 164.044 66.7242 163.248C68.0944 162.395 69.4075 161.769 70.6064 161.371C71.8053 160.973 72.8901 160.689 73.7464 160.575C75.6875 160.12 76.6581 160.29 76.6581 160.404Z" fill="white"/>
<path d="M15.8563 217.39C22.593 221.428 31.4421 220.233 38.4072 216.65C45.3723 213.067 50.9673 207.323 56.7905 202.034C62.6138 196.745 68.9509 191.627 76.6011 189.75C75.916 188.84 75.5164 187.702 75.4593 186.565C66.6673 190.432 57.6469 194.413 50.9102 201.238C48.5694 203.57 46.5712 206.243 43.9451 208.347C41.4331 210.338 38.5214 211.646 35.5527 212.783C29.6152 215.115 23.1639 216.878 16.8268 216.025C16.313 215.968 15.7421 215.911 15.3996 216.309C15.057 216.707 15.6279 217.447 15.9705 217.048" fill="white"/>
<path d="M65.7539 154.432C65.7539 155.399 64.9546 156.195 63.9841 156.195C63.0135 156.195 62.2142 155.399 62.2142 154.432C62.2142 153.465 63.0135 152.669 63.9841 152.669C64.9546 152.669 65.7539 153.465 65.7539 154.432Z" fill="white"/>
<path d="M57.0758 158.129C57.0758 158.641 56.6761 158.982 56.2194 158.982C55.7056 158.982 55.363 158.584 55.363 158.129C55.363 157.617 55.7627 157.276 56.2194 157.276C56.7332 157.276 57.0758 157.674 57.0758 158.129Z" fill="white"/>
<path d="M37.0942 206.925C37.5671 206.925 37.9505 206.543 37.9505 206.072C37.9505 205.601 37.5671 205.219 37.0942 205.219C36.6212 205.219 36.2378 205.601 36.2378 206.072C36.2378 206.543 36.6212 206.925 37.0942 206.925Z" fill="white"/>
<path d="M78.8848 168.707C78.8848 168.764 63.8699 168.878 45.3724 168.878C26.8749 168.878 11.86 168.821 11.86 168.707C11.86 168.593 26.8749 168.536 45.3724 168.536C63.8699 168.593 78.8848 168.65 78.8848 168.707Z" fill="#263238"/>
<path d="M78.7134 198.11C78.7134 198.167 63.7555 198.281 45.258 198.281C26.7606 198.281 11.8027 198.224 11.8027 198.11C11.8027 198.053 26.7606 197.939 45.258 197.939C63.7555 197.996 78.7134 198.053 78.7134 198.11Z" fill="#263238"/>
<path d="M79.1128 202.489C79.1128 202.546 64.155 202.66 45.6575 202.66C27.16 202.66 12.2021 202.603 12.2021 202.489C12.2021 202.432 27.16 202.319 45.6575 202.319C64.155 202.319 79.1128 202.375 79.1128 202.489Z" fill="#263238"/>
<path d="M78.8847 164.215C78.8847 164.272 64.0981 164.385 45.829 164.385C27.5599 164.385 12.7733 164.328 12.7733 164.215C12.7733 164.158 27.5599 164.044 45.829 164.044C64.041 164.044 78.8847 164.101 78.8847 164.215Z" fill="#263238"/>
<path d="M40.8051 240.139C40.8051 240.139 40.6338 240.139 40.2913 239.969C40.0058 239.855 39.5491 239.57 39.1495 239.172C38.236 238.319 37.4938 236.897 36.6375 235.305C35.7811 233.713 34.9818 232.291 34.4109 231.267C33.84 230.243 33.5546 229.561 33.5546 229.561C33.5546 229.561 33.9542 230.13 34.5822 231.153C35.1531 232.177 36.0095 233.599 36.8658 235.134C37.7222 236.67 38.4644 238.149 39.2637 239.002C40.0629 239.912 40.8051 240.082 40.8051 240.139Z" fill="#263238"/>
<path d="M59.4739 229.447C59.531 229.447 59.4168 229.959 59.1884 230.698C58.9601 231.494 58.6175 232.518 58.1608 233.712C57.7041 234.85 57.2473 235.873 56.9048 236.613C56.5623 237.352 56.3339 237.807 56.2768 237.75C56.2197 237.75 56.391 237.238 56.7335 236.499C57.0761 235.646 57.4757 234.679 57.8754 233.542C58.275 232.461 58.6746 231.437 58.9601 230.584C59.2455 229.902 59.4168 229.447 59.4739 229.447Z" fill="#263238"/>
<path d="M78.7134 209.2C78.7134 209.2 78.6563 209.257 78.5422 209.314C78.428 209.428 78.3138 209.541 78.0854 209.655C77.6858 209.94 77.1149 210.395 76.3727 210.963C74.8883 212.101 72.6618 213.693 69.7501 215.399C68.3229 216.252 66.6672 217.162 64.8974 218.015C63.0705 218.868 61.1294 219.665 58.9599 220.233C54.621 221.371 49.597 221.769 44.5159 220.575C42.0039 220.006 39.6061 218.982 37.5508 217.731C35.4955 216.48 33.6686 214.944 31.9559 213.466C30.3003 211.987 28.7017 210.565 27.2174 209.314C25.6759 208.063 24.1915 206.982 22.7643 206.129C19.8526 204.366 17.2264 203.627 15.3424 203.456C14.429 203.399 13.6868 203.399 13.173 203.399C12.9446 203.399 12.7733 203.456 12.6021 203.456C12.4879 203.456 12.4308 203.456 12.4308 203.456C12.4308 203.456 12.4879 203.456 12.6021 203.399C12.7162 203.399 12.9446 203.342 13.173 203.342C13.6868 203.285 14.429 203.285 15.3424 203.342C17.2264 203.513 19.9668 204.195 22.8784 205.958C24.3628 206.812 25.8472 207.892 27.3886 209.143C28.9301 210.395 30.4715 211.816 32.1843 213.295C33.8399 214.774 35.6668 216.252 37.7221 217.504C39.7774 218.755 42.1181 219.722 44.6301 220.29C49.6541 221.428 54.621 221.086 58.9029 219.949C61.0723 219.38 63.0134 218.584 64.8403 217.788C66.6101 216.935 68.2658 216.082 69.6931 215.229C72.6047 213.522 74.8312 211.93 76.3727 210.85C77.1149 210.281 77.6858 209.883 78.1425 209.541C78.3138 209.428 78.4851 209.314 78.5992 209.2C78.6563 209.257 78.7134 209.2 78.7134 209.2Z" fill="#263238"/>
<path d="M78.8848 208.518C78.8848 208.518 78.8277 208.575 78.7707 208.632C78.6565 208.746 78.5423 208.859 78.371 208.973C78.1997 209.144 77.9714 209.314 77.6859 209.542C77.4005 209.769 77.0579 209.997 76.7154 210.281C75.231 211.419 73.0045 212.897 70.0357 214.49C68.5514 215.286 66.8957 216.025 65.0688 216.765C63.2419 217.504 61.2437 218.186 59.0743 218.641C58.5034 218.755 57.9895 218.869 57.4186 218.926C57.1332 218.983 56.8477 218.983 56.5623 219.039C56.2768 219.039 55.9914 219.039 55.7059 219.039C54.5641 219.039 53.3652 218.983 52.1663 218.926C49.7684 218.755 47.2564 218.471 44.8015 217.788C42.3466 217.106 40.063 216.025 38.179 214.49C36.295 213.011 34.6964 211.305 33.155 209.712C31.6135 208.177 30.072 206.755 28.4164 205.731C26.7608 204.651 25.1051 203.911 23.5066 203.456C20.3666 202.49 17.6262 202.376 15.7422 202.49C15.2855 202.49 14.8858 202.547 14.4862 202.603C14.1437 202.66 13.8582 202.66 13.5727 202.717C13.3444 202.774 13.1731 202.774 13.0018 202.831C12.8877 202.831 12.8306 202.831 12.8306 202.831C12.8306 202.831 13.8011 202.547 15.6851 202.376C17.512 202.205 20.3095 202.262 23.5066 203.229C25.1051 203.741 26.8179 204.48 28.4735 205.504C30.1291 206.528 31.7277 207.949 33.2691 209.542C34.8106 211.077 36.4091 212.784 38.2361 214.262C40.1201 215.741 42.3466 216.821 44.8015 217.504C47.2564 218.186 49.7113 218.471 52.1092 218.641C53.3081 218.698 54.4499 218.755 55.6488 218.755C55.9343 218.755 56.2197 218.755 56.5052 218.755C56.7906 218.755 57.0761 218.698 57.3615 218.641C57.9324 218.584 58.4463 218.471 59.0172 218.357C61.1866 217.902 63.1277 217.22 64.9546 216.537C66.7815 215.798 68.4372 215.058 69.8645 214.262C72.8332 212.727 75.0597 211.248 76.5441 210.167C76.9437 209.883 77.2292 209.656 77.5146 209.428C77.8001 209.201 78.0285 209.03 78.1997 208.859C78.371 208.746 78.5423 208.632 78.6565 208.518C78.8277 208.575 78.8848 208.518 78.8848 208.518Z" fill="#263238"/>
<path d="M78.8276 72.4799C78.8276 72.5368 64.041 72.6505 45.7719 72.6505C27.5028 72.6505 12.7162 72.5937 12.7162 72.4799C12.7162 72.423 27.5028 72.3093 45.7719 72.3093C64.041 72.3093 78.8276 72.3662 78.8276 72.4799Z" fill="#263238"/>
<path d="M69.0079 45.9772C69.0079 45.9772 68.8366 46.091 68.4941 46.3184C68.1515 46.5459 67.6948 46.8872 67.0668 47.399C66.4959 47.9109 65.8108 48.5365 64.9544 49.2758C64.0981 49.9583 63.0704 50.7545 61.8715 51.4369C59.4737 52.8019 56.2766 53.8824 52.6228 54.3374C48.9689 54.7924 44.9155 54.508 40.7479 53.7687C38.6355 53.4275 36.6373 52.9156 34.6962 52.5175C32.7551 52.1194 30.8711 51.8919 29.0442 51.835C25.3904 51.7782 22.1362 52.4606 19.51 53.3706C16.9409 54.2805 14.8856 55.3042 13.7438 56.3279C13.1729 56.8398 12.7733 57.2948 12.4878 57.5791C12.2594 57.9204 12.1453 58.091 12.1453 58.091C12.1453 58.091 12.2024 57.8635 12.4307 57.5791C12.6591 57.2379 13.0587 56.7829 13.6296 56.2711C14.8285 55.2474 16.8267 54.1668 19.4529 53.2568C22.0791 52.3469 25.3333 51.6076 29.0442 51.6644C30.8711 51.6644 32.8122 51.9488 34.7533 52.3469C36.6944 52.745 38.6926 53.2 40.8049 53.5981C44.9726 54.3374 48.9689 54.6218 52.6228 54.2237C56.2195 53.8256 59.4166 52.745 61.8144 51.4369C64.2693 50.1289 65.8108 48.4796 67.0097 47.5696C67.6377 47.0578 68.0944 46.7734 68.437 46.5459C68.6083 46.4322 68.7224 46.3753 68.8366 46.3184C68.9508 46.0341 69.0079 45.9772 69.0079 45.9772Z" fill="#263238"/>
<path d="M67.9803 44.7831C67.9803 44.7831 67.9803 44.84 67.9232 44.8968C67.8661 45.0106 67.7519 45.1243 67.6377 45.2381C67.4093 45.5224 67.0668 45.9774 66.553 46.5461C65.5824 47.6267 64.0981 49.2191 61.8715 50.6978C59.645 52.1196 56.5621 53.2002 53.0224 53.3139C49.4828 53.4845 45.6577 52.7452 41.8326 51.4371C39.9486 50.8115 38.0646 50.0722 36.2948 49.5603C34.4678 49.0485 32.698 48.6504 30.9282 48.6504C29.2155 48.5935 27.5598 48.8779 26.0755 49.276C24.5911 49.6741 23.2209 50.0722 21.9649 50.5272C19.51 51.4371 17.626 52.4608 16.3129 53.2002C15.6849 53.5414 15.2282 53.8826 14.9427 54.167C14.6573 54.4514 14.5431 54.622 14.5431 54.622C14.5431 54.622 14.6573 54.4514 14.8856 54.167C15.1711 53.8826 15.6278 53.5414 16.2558 53.1433C17.5118 52.404 19.3958 51.3234 21.8507 50.4134C23.1067 49.9584 24.4769 49.5035 25.9613 49.1054C27.4457 48.7073 29.1013 48.4229 30.8711 48.4798C32.6409 48.4798 34.4678 48.8779 36.2948 49.3897C38.1217 49.9016 39.9486 50.584 41.8897 51.2665C45.6577 52.5746 49.4828 53.3139 52.9653 53.1433C56.4479 53.0864 59.4737 52.0058 61.7002 50.6409C63.9268 49.2191 65.4112 47.6836 66.3817 46.603C66.8955 46.0343 67.2381 45.6362 67.5235 45.3518C67.6377 45.2381 67.7519 45.1243 67.809 45.0106C67.9232 44.7831 67.9803 44.7831 67.9803 44.7831Z" fill="#263238"/>
<path d="M77.5147 54.6786C77.5147 54.6786 77.8001 54.9629 78.3139 55.5885C78.8277 56.2141 79.5128 57.2378 80.0838 58.7165C80.3692 59.4558 80.5976 60.3089 80.7118 61.3326C80.8259 62.2995 80.7689 63.38 80.8259 64.5743C80.8259 65.1431 80.8259 65.7687 80.8259 66.3943C80.8259 67.0199 80.883 67.7023 80.7689 68.3279C80.5976 69.6928 79.9696 71.0578 78.8848 72.1383V72.0815C78.8848 90.7924 78.9419 123.096 78.9419 164.499V164.556L78.8848 164.613C78.4281 165.068 78.1427 165.693 78.1427 166.376C78.1427 167.058 78.371 167.797 78.8848 168.309L78.9419 168.366V168.423C78.9419 177.693 78.9419 187.532 78.9419 197.712V197.769V197.826C78.5423 198.395 78.2569 199.134 78.2569 199.93C78.2569 200.726 78.4852 201.523 78.9419 202.205V202.262V202.319C78.9419 208.233 78.9419 214.319 78.9419 220.518C78.9419 222.053 78.999 223.646 78.8848 225.238C78.7707 226.831 78.5423 228.366 78.0856 229.959C77.6859 231.494 77.115 233.03 76.4299 234.452C76.0874 235.191 75.6877 235.873 75.1739 236.556C74.6601 237.238 74.0892 237.807 73.4612 238.319C72.1481 239.343 70.6066 240.025 68.951 240.309C68.1517 240.48 67.2954 240.48 66.439 240.48C65.6397 240.48 64.7834 240.48 63.9841 240.48C63.1277 240.48 62.3284 240.48 61.4721 240.48C60.6157 240.423 59.7594 239.968 59.2455 239.286C58.9601 238.944 58.7888 238.603 58.5605 238.205C58.4463 238.035 58.3321 237.864 58.2179 237.75C58.0466 237.636 57.9325 237.523 57.7041 237.466C57.3615 237.352 56.9048 237.409 56.6194 237.636C56.4481 237.75 56.3339 237.864 56.2197 238.035C56.1055 238.205 56.0485 238.376 55.9914 238.603C55.6488 239.399 54.9066 240.082 54.0503 240.253C53.5935 240.366 53.1939 240.309 52.7372 240.366H51.4812C49.7684 240.366 48.0557 240.423 46.343 240.423C45.4866 240.423 44.6302 240.423 43.7739 240.48H42.4608C42.0612 240.48 41.6044 240.48 41.1477 240.423C40.2913 240.309 39.435 239.911 38.7499 239.399C38.0648 238.831 37.4939 238.091 37.2084 237.238C37.0371 236.84 36.6946 236.499 36.295 236.442C35.8953 236.328 35.3815 236.499 35.0961 236.783C34.8106 237.125 34.5251 237.523 34.1826 237.921C33.8971 238.319 33.6117 238.717 33.2121 239.058C32.4699 239.741 31.4993 240.139 30.5288 240.309C30.015 240.366 29.5582 240.366 29.0444 240.366H27.56C26.5895 240.366 25.6189 240.366 24.5913 240.366C24.0775 240.309 23.6208 240.366 23.1069 240.196L22.3648 240.082C22.1364 240.025 21.908 239.911 21.6226 239.854C19.6815 239.286 18.0829 237.978 16.7698 236.442C15.4568 234.907 14.5433 233.087 13.8582 231.21C13.1731 229.333 12.6022 227.399 12.2597 225.409C11.9171 223.418 11.7458 221.371 11.7458 219.38C11.7458 217.333 11.8029 215.343 11.8029 213.295C11.86 208.859 11.9171 204.48 11.9742 200.158V200.215C11.5746 198.793 11.4604 197.314 11.4604 195.835C11.4604 194.357 11.5175 192.935 11.5175 191.456C11.5746 188.556 11.5746 185.655 11.6317 182.812C11.6887 179.968 11.6887 177.068 11.7458 174.224C11.7458 172.802 11.8029 171.38 11.8029 169.959C11.8029 169.219 11.9171 168.48 12.2597 167.854C12.4309 167.513 12.6022 167.229 12.6593 166.887C12.7164 166.546 12.7735 166.205 12.7164 165.864C12.6593 165.522 12.5451 165.238 12.4309 164.897C12.3167 164.556 12.2597 164.214 12.2026 163.816C12.2026 163.134 12.2026 162.395 12.2026 161.712C12.2026 160.29 12.2026 158.925 12.2026 157.503C12.2026 154.717 12.2026 151.987 12.2026 149.2C12.2026 143.684 12.2026 138.281 12.2026 132.935C12.2026 111.551 12.2026 91.3612 12.2026 72.7639L12.2597 72.8777C11.5175 72.1383 10.9466 71.1715 10.6611 70.1478C10.4898 69.636 10.4327 69.1241 10.4327 68.6123C10.4327 68.1004 10.4327 67.5886 10.4327 67.0767C10.4327 66.053 10.4327 65.0293 10.4327 64.0056C10.4327 62.9819 10.4898 61.9582 10.7182 60.9914C11.1749 59.0009 12.2026 57.181 13.5157 55.7023C14.8288 54.2236 16.1418 52.8018 17.3978 51.38C22.536 45.6928 27.4459 40.233 32.0702 35.0577V35.1145C32.0702 32.669 32.0702 30.451 32.0702 28.3468L32.1844 28.4605C31.956 28.4605 31.7277 28.4605 31.4993 28.4605C31.271 28.4605 31.0426 28.3468 30.8713 28.233C30.4717 27.9487 30.3004 27.4937 30.3004 27.0956C30.3004 26.6406 30.5859 26.2425 30.9855 26.0719C31.1568 25.9581 31.3851 25.9013 31.6135 25.9013H32.1844L32.0702 26.015C32.0702 23.9676 32.0702 22.1477 32.0702 20.3847V20.2709H32.1844C42.0041 20.214 50.5677 20.1572 58.1608 20.1572H58.2179V20.214C58.2179 22.4889 58.2179 24.252 58.2179 26.015L58.1608 25.9581C58.3892 25.9581 58.6175 25.9581 58.8459 25.9581C59.0743 26.015 59.3026 26.0719 59.4739 26.2425C59.8164 26.5268 59.9877 26.9818 59.9306 27.3799C59.8735 27.778 59.5881 28.1193 59.2455 28.2899C59.0743 28.4036 58.903 28.4036 58.7317 28.4605C58.5604 28.4605 58.3892 28.4605 58.2179 28.4605L58.275 28.4036C58.275 31.1904 58.275 33.3515 58.275 35.3989V35.342C64.4979 41.6549 69.2936 46.489 72.4907 49.7876C74.0892 51.4369 75.3452 52.6881 76.1445 53.4843C77.115 54.2805 77.5147 54.6786 77.5147 54.6786C77.5147 54.6786 77.115 54.2805 76.2587 53.4274C75.4594 52.5743 74.2034 51.38 72.6048 49.7307C69.3506 46.489 64.555 41.6549 58.3321 35.342C58.3321 33.2946 58.3321 31.1335 58.3321 28.3468V28.2899H58.3892C58.7317 28.2899 59.0743 28.3468 59.4168 28.1193C59.7023 27.9487 59.9877 27.6643 59.9877 27.3231C60.0448 26.9818 59.9306 26.5837 59.5881 26.2994C59.4168 26.1856 59.2455 26.0719 59.0172 26.0719C58.8459 26.015 58.5604 26.0719 58.3321 26.0719H58.275V26.015C58.275 24.252 58.275 22.4889 58.275 20.214L58.3321 20.2709C50.739 20.3278 42.1753 20.3847 32.3557 20.4415L32.4699 20.3278C32.4699 22.0908 32.4699 23.9107 32.4699 25.9581V26.0719H32.3557C31.956 26.0719 31.5564 26.015 31.271 26.2425C30.9284 26.4131 30.7 26.7543 30.7 27.0956C30.643 27.4937 30.8713 27.8349 31.1568 28.0624C31.4993 28.2899 31.899 28.233 32.3557 28.233H32.4699V28.3468C32.4699 30.5079 32.4699 32.669 32.4699 35.1145V35.1714V35.2283C27.8455 40.4037 22.9357 45.8065 17.7975 51.5506C16.4844 52.9724 15.2284 54.4511 13.9153 55.8729C12.6022 57.2947 11.6317 59.1146 11.1749 61.0483C10.9466 62.0151 10.8895 63.0388 10.8895 64.0056C10.8895 65.0293 10.8895 66.053 10.8895 67.0767C10.8895 68.1004 10.8324 69.1241 11.1178 70.1478C11.4033 71.1146 11.9171 72.0246 12.6593 72.7639L12.7164 72.8208V72.8777C12.7164 91.418 12.7164 111.608 12.7164 133.048C12.7164 138.394 12.7164 143.797 12.7164 149.314C12.7164 152.044 12.7164 154.831 12.7164 157.617C12.7164 158.982 12.7164 160.404 12.7164 161.826C12.7164 162.508 12.7164 163.248 12.7164 163.93C12.7164 164.271 12.8306 164.613 12.8877 164.897C13.0018 165.238 13.116 165.579 13.1731 165.921C13.2302 166.262 13.1731 166.66 13.116 167.001C13.0589 167.342 12.8306 167.684 12.7164 168.025C12.4309 168.65 12.3167 169.333 12.3167 170.015C12.3167 171.437 12.2597 172.859 12.2597 174.281C12.2026 177.124 12.2026 179.968 12.1455 182.868C12.0884 185.712 12.0884 188.613 12.0313 191.513C12.0313 192.935 11.9742 194.414 11.9742 195.892C11.9742 197.314 12.0884 198.793 12.4309 200.215C12.3738 204.537 12.3167 208.916 12.2597 213.352C12.2597 215.399 12.2026 217.39 12.2026 219.437C12.2026 221.428 12.3738 223.475 12.7164 225.409C13.0589 227.399 13.5728 229.333 14.2578 231.153C15 232.973 15.9135 234.793 17.1695 236.271C18.4255 237.75 20.024 239.001 21.8509 239.627C23.6778 240.253 25.676 240.082 27.6171 240.139H29.1015C29.6153 240.139 30.072 240.139 30.5288 240.082C31.4422 239.968 32.3557 239.57 33.0408 238.944C33.3833 238.66 33.6688 238.262 33.9542 237.864C34.2397 237.466 34.5251 237.125 34.8677 236.726C35.2673 236.328 35.8382 236.158 36.3521 236.328C36.8659 236.442 37.3226 236.84 37.4939 237.295C37.7793 238.091 38.2931 238.774 38.9212 239.286C39.5492 239.798 40.3484 240.139 41.2048 240.253C41.6044 240.309 42.0612 240.309 42.4608 240.309H43.7739C44.6302 240.309 45.4866 240.309 46.343 240.253C48.0557 240.253 49.7684 240.196 51.4812 240.196H52.7372C53.1368 240.196 53.5935 240.196 53.9932 240.139C54.7924 239.968 55.4204 239.343 55.763 238.603C55.8772 238.433 55.8772 238.205 56.0484 238.035C56.1626 237.807 56.3339 237.636 56.5052 237.523C56.9048 237.238 57.3615 237.181 57.8183 237.295C58.0466 237.352 58.275 237.466 58.4463 237.636C58.6175 237.807 58.7317 237.978 58.8459 238.148C59.0743 238.49 59.3026 238.888 59.531 239.172C59.9877 239.798 60.787 240.196 61.5863 240.253C62.4426 240.253 63.2419 240.253 64.0412 240.253C64.8975 240.253 65.6968 240.253 66.4961 240.253C67.3525 240.253 68.1517 240.253 68.951 240.082C70.5496 239.798 72.0339 239.115 73.2899 238.148C73.9179 237.636 74.4888 237.068 74.9456 236.442C75.4023 235.816 75.8019 235.077 76.1445 234.395C76.8296 232.973 77.4005 231.437 77.8001 229.959C78.1997 228.423 78.4852 226.888 78.5423 225.295C78.6565 223.76 78.5994 222.167 78.5994 220.632C78.5994 214.433 78.5994 208.347 78.5994 202.433V202.489C78.0856 201.75 77.8572 200.897 77.8572 200.044C77.8572 199.191 78.1427 198.395 78.5994 197.769V197.826C78.5994 187.646 78.5994 177.807 78.5994 168.537L78.6565 168.594C78.0856 168.025 77.8001 167.229 77.8001 166.489C77.8001 165.75 78.1427 165.011 78.6565 164.556L78.5994 164.613C78.6565 123.266 78.6565 90.963 78.6565 72.1952C79.7412 71.1715 80.3692 69.7497 80.5405 68.4417C80.5976 67.7592 80.5976 67.1336 80.5976 66.508C80.5976 65.8824 80.5976 65.2568 80.5976 64.6881C80.5976 63.4938 80.6547 62.4132 80.5405 61.4464C80.4263 60.4795 80.1979 59.6265 79.9125 58.8871C79.3416 57.4084 78.6565 56.3847 78.1427 55.7592C77.9143 55.4179 77.6859 55.1904 77.5717 55.0767C77.5717 54.7923 77.5147 54.6786 77.5147 54.6786Z" fill="#263238"/>
<path d="M58.446 25.7875C58.446 25.8443 52.6227 25.9581 45.4292 26.015C38.2358 26.0718 32.4125 26.015 32.4125 25.9581C32.4125 25.9012 38.2358 25.7875 45.4292 25.7306C52.6227 25.6737 58.446 25.6737 58.446 25.7875Z" fill="#263238"/>
<path d="M59.074 28.2901C59.074 28.3469 53.0794 28.4607 45.7718 28.4607C38.407 28.4607 32.4125 28.4038 32.4125 28.2901C32.4125 28.2332 38.407 28.1194 45.7718 28.1194C53.1365 28.1763 59.074 28.2332 59.074 28.2901Z" fill="#263238"/>
<path d="M58.3318 30.3943C58.3318 30.4511 52.5085 30.5649 45.3721 30.5649C38.2358 30.5649 32.4125 30.508 32.4125 30.3943C32.4125 30.2805 38.2358 30.2236 45.3721 30.2236C52.5656 30.2236 58.3318 30.2805 58.3318 30.3943Z" fill="#263238"/>
<path d="M58.3318 32.4418C58.3318 32.4987 52.5085 32.6124 45.3721 32.6124C38.2358 32.6124 32.4125 32.5555 32.4125 32.4418C32.4125 32.3849 38.2358 32.2712 45.3721 32.2712C52.5656 32.2712 58.3318 32.3281 58.3318 32.4418Z" fill="#263238"/>
<path d="M32.4127 28.3468C32.8124 29.0293 33.4975 29.4842 34.2396 29.7117C34.9818 29.9392 35.7811 29.9392 36.5804 29.9961C43.3742 30.1667 50.168 29.8824 56.9048 29.1999C57.4757 29.143 58.1037 28.9724 58.275 28.4605C57.1902 28.4037 56.1055 28.4037 55.0208 28.4037C48.5695 28.4037 42.0611 28.4037 35.6098 28.4605C34.4109 28.4605 33.2691 28.4605 32.0702 28.4605" fill="#E0E0E0"/>
<path d="M27.9025 24.1388V4.46103C27.9025 4.46103 27.7313 0.47998 45.6007 0.47998C61.8717 0.47998 61.8146 5.08663 61.8146 5.08663V24.1388H27.9025Z" fill="#E8505B"/>
<path d="M30.1292 20.2148C30.0721 20.2148 29.9579 16.8025 29.9579 12.6508C29.9579 8.49912 30.015 5.08679 30.1292 5.08679C30.1862 5.08679 30.3004 8.49912 30.3004 12.6508C30.3004 16.8593 30.2433 20.2148 30.1292 20.2148Z" fill="#263238"/>
<path d="M33.155 20.2147C33.0979 20.2147 32.9838 16.6318 32.9838 12.2526C32.9838 7.8166 33.0409 4.29053 33.155 4.29053C33.2121 4.29053 33.3263 7.87348 33.3263 12.2526C33.3263 16.6318 33.2692 20.2147 33.155 20.2147Z" fill="#263238"/>
<path d="M36.1239 20.2145C36.0668 20.2145 35.9526 16.5178 35.9526 11.9112C35.9526 7.36141 36.0097 3.60785 36.1239 3.60785C36.2381 3.60785 36.2952 7.30454 36.2952 11.9112C36.2381 16.5178 36.181 20.2145 36.1239 20.2145Z" fill="#263238"/>
<path d="M39.0355 20.2145C38.9784 20.2145 38.8643 16.4041 38.8643 11.7406C38.8643 7.07704 38.9214 3.2666 39.0355 3.2666C39.0926 3.2666 39.2068 7.07704 39.2068 11.7406C39.1497 16.4041 39.0926 20.2145 39.0355 20.2145Z" fill="#263238"/>
<path d="M41.947 20.2145C41.8899 20.2145 41.7758 16.4041 41.7758 11.7406C41.7758 7.07704 41.8328 3.2666 41.947 3.2666C42.0612 3.2666 42.1183 7.07704 42.1183 11.7406C42.0612 16.4041 42.0041 20.2145 41.947 20.2145Z" fill="#263238"/>
<path d="M44.8587 20.2145C44.8016 20.2145 44.6874 16.4041 44.6874 11.7406C44.6874 7.07704 44.7445 3.2666 44.8587 3.2666C44.9728 3.2666 45.0299 7.07704 45.0299 11.7406C45.0299 16.4041 44.9157 20.2145 44.8587 20.2145Z" fill="#263238"/>
<path d="M47.7702 20.2145C47.7131 20.2145 47.5989 16.4041 47.5989 11.7406C47.5989 7.07704 47.656 3.2666 47.7702 3.2666C47.8272 3.2666 47.9414 7.07704 47.9414 11.7406C47.9414 16.4041 47.8843 20.2145 47.7702 20.2145Z" fill="#263238"/>
<path d="M50.6819 20.2145C50.6248 20.2145 50.5106 16.4041 50.5106 11.7406C50.5106 7.07704 50.5677 3.2666 50.6819 3.2666C50.739 3.2666 50.8532 7.07704 50.8532 11.7406C50.8532 16.4041 50.7961 20.2145 50.6819 20.2145Z" fill="#263238"/>
<path d="M53.5935 20.2146C53.5364 20.2146 53.4222 16.5748 53.4222 12.025C53.4222 7.47527 53.4793 3.83545 53.5935 3.83545C53.7077 3.83545 53.7648 7.47527 53.7648 12.025C53.7648 16.5748 53.7077 20.2146 53.5935 20.2146Z" fill="#263238"/>
<path d="M56.5624 20.2149C56.5053 20.2149 56.3911 16.6888 56.3911 12.3665C56.3911 8.0442 56.4482 4.51813 56.5624 4.51813C56.6195 4.51813 56.7337 8.0442 56.7337 12.3665C56.6766 16.6888 56.6195 20.2149 56.5624 20.2149Z" fill="#263238"/>
<path d="M59.474 20.2147C59.4169 20.2147 59.3027 16.9162 59.3027 12.8214C59.3027 8.72657 59.3598 5.42798 59.474 5.42798C59.5311 5.42798 59.6453 8.72657 59.6453 12.8214C59.5882 16.9162 59.5311 20.2147 59.474 20.2147Z" fill="#263238"/>
<path d="M60.6728 5.82607C60.6728 5.82607 60.5586 5.82607 60.3302 5.76919C60.1019 5.71232 59.8164 5.59858 59.4168 5.48483C59.0172 5.37109 58.5604 5.20047 57.9895 5.02986C57.4186 4.85924 56.7906 4.68862 56.0484 4.51801C55.3062 4.34739 54.5641 4.17677 53.7077 4.00616C52.8513 3.83554 51.9379 3.72179 50.9673 3.55118C49.0262 3.32369 46.9139 3.0962 44.6302 3.0962C42.4037 3.0962 40.2342 3.26682 38.2931 3.49431C37.3226 3.60805 36.4091 3.7218 35.5527 3.89241C34.6964 4.00616 33.8971 4.23364 33.212 4.40426C32.4698 4.57488 31.8418 4.74549 31.2709 4.91611C30.7 5.08673 30.2433 5.20047 29.8436 5.31422C29.444 5.42796 29.1586 5.54171 28.9302 5.59858C28.7018 5.65545 28.5876 5.65545 28.5876 5.65545C28.5876 5.65545 28.7018 5.59858 28.8731 5.5417C29.1015 5.48483 29.3869 5.37109 29.7866 5.20047C30.1862 5.08673 30.6429 4.91611 31.2138 4.7455C31.7847 4.57488 32.4127 4.40426 33.1549 4.23364C33.8971 4.06303 34.6393 3.83554 35.5527 3.7218C36.4091 3.55118 37.3226 3.43743 38.2931 3.26682C40.2342 3.03933 42.4037 2.86871 44.6873 2.86871C46.9709 2.86871 49.0833 3.0962 51.0815 3.32369C52.052 3.49431 52.9655 3.60805 53.8219 3.83554C54.6782 4.00616 55.4775 4.17677 56.1626 4.40426C56.9048 4.57488 57.5328 4.80237 58.1037 4.97298C58.6746 5.1436 59.1313 5.31422 59.531 5.42796C59.8735 5.54171 60.2161 5.65545 60.4444 5.76919C60.5586 5.76919 60.6728 5.82607 60.6728 5.82607Z" fill="#263238"/>
<path d="M60.8442 20.2714C60.8442 20.3283 53.7649 20.442 45.03 20.442C36.2951 20.442 29.2158 20.3851 29.2158 20.2714C29.2158 20.1576 36.2951 20.1008 45.03 20.1008C53.7649 20.1008 60.8442 20.2145 60.8442 20.2714Z" fill="#263238"/>
<path d="M82.341 100.575H9.71631V124.561V147.552H82.341C82.341 147.552 82.8086 141.157 82.341 124.561C81.8733 107.965 82.341 100.575 82.341 100.575Z" fill="white"/>
<path d="M78.8848 100.575H12.545C12.545 100.575 0.836182 107.015 0.836182 122.973C0.836182 138.93 12.545 147.551 12.545 147.551H78.8848C78.8848 147.551 90.5132 139.568 90.0861 122.973C89.6589 106.377 78.8848 100.575 78.8848 100.575Z" fill="#E8505B"/>
<path d="M12.9727 142.36C13.0424 142.36 7.59753 134 7.59753 123.649C7.59753 113.298 13.112 104.938 12.9727 104.938C12.9031 104.938 9.68108 113.298 9.68108 123.649C9.68108 133.943 12.9031 142.36 12.9727 142.36Z" fill="white"/>
</svg>
