<svg width="129" height="241" viewBox="0 0 129 241" fill="none" xmlns="http://www.w3.org/2000/svg">
<path d="M101.401 54.5695L82.1833 35.233V28.2378H82.5849C83.1585 28.2378 83.7322 27.8397 83.8469 27.271C83.9616 26.5316 83.388 25.8492 82.6422 25.8492H82.1259V19.9913L56.0245 20.162V25.7923H55.5083C54.9346 25.7923 54.3609 26.1904 54.2462 26.7591C54.1315 27.4984 54.7051 28.1809 55.4509 28.1809H56.0245V34.9487L37.2086 55.7639C35.3155 57.8681 34.283 60.598 34.283 63.3847V68.2188C34.283 69.8681 34.914 71.4605 36.1187 72.598V163.423C36.1187 163.934 36.2334 164.446 36.4629 164.958C36.7497 165.754 36.6923 166.607 36.2908 167.347C35.9466 168.029 35.7171 168.769 35.7171 169.508L35.4303 195.783C35.4303 197.148 35.545 198.513 35.9466 199.821L35.7171 218.589C35.6597 221.66 36.0039 224.674 36.8071 227.631C38.2412 233.034 41.4537 239.859 48.7391 239.859H53.7299C55.2214 239.859 56.5982 239.176 57.5161 237.982L58.6634 236.503C59.3518 235.593 60.7859 235.821 61.1875 236.901C61.8758 238.835 63.7689 240.086 65.7767 240.029L77.3072 239.859C78.5119 239.859 79.4871 239.006 79.8313 237.868C80.2328 236.731 81.7817 236.56 82.4127 237.584L83.1011 238.608C83.6748 239.461 84.5926 239.972 85.5679 239.972H91.1323C94.689 239.972 98.0162 238.039 99.7372 234.968C99.7945 234.911 99.7946 234.854 99.8519 234.797C101.802 231.157 102.778 227.062 102.778 222.968V201.982C101.802 200.617 101.802 198.797 102.778 197.432V168.143C101.745 167.119 101.688 165.47 102.663 164.389L102.778 164.276V133.622V71.9724L102.892 71.8586C104.04 70.7212 104.728 69.1288 104.728 67.4795V62.5885C104.728 59.6312 103.523 56.7307 101.401 54.5695Z" fill="#F5F5F5"/>
<path d="M92.5664 57.8114C96.5247 56.9014 100.426 59.8019 100.483 63.8398V63.8967V68.3327C100.483 69.8114 99.9092 71.29 98.8767 72.3137L98.7619 72.4275V128.788V156.769L98.6472 156.882C97.7867 157.849 97.8441 159.385 98.7619 160.295V187.025C97.9014 188.276 97.9014 189.925 98.7619 191.176V210.342C98.7619 214.096 97.9014 217.849 96.1805 221.148C96.1805 221.205 96.1231 221.262 96.1231 221.319C94.6316 224.162 91.7059 225.868 88.5508 225.868H83.6174L76.2172 225.755L66.0061 225.925L55.3361 225.755H50.919C44.494 225.755 41.6257 219.555 40.3637 214.608C39.6753 211.935 39.3885 209.148 39.4458 206.361L39.6753 189.243C39.3311 188.048 39.2164 186.797 39.2164 185.546L39.5032 161.546C39.5032 160.864 39.6753 160.181 40.0195 159.555C40.3637 158.873 40.421 158.077 40.1342 157.337C39.9621 156.882 39.8474 156.428 39.8474 155.973V73.11C38.8148 72.0294 38.2411 70.6076 38.2411 69.1289V64.6929V64.636C38.2411 60.7687 41.1094 57.4701 44.9529 56.6171C48.9112 55.764 55.2787 54.9678 61.5316 56.6171C71.8001 59.29 71.9722 60.7687 79.315 60.1431C83.3879 59.745 88.7229 58.6645 92.5664 57.8114Z" fill="#E8505B"/>
<path opacity="0.5" d="M92.5664 57.8114C96.5247 56.9014 100.426 59.8019 100.483 63.8398V63.8967V68.3327C100.483 69.8114 99.9092 71.29 98.8767 72.3137L98.7619 72.4275V128.788V156.769L98.6472 156.882C97.7867 157.849 97.8441 159.385 98.7619 160.295V187.025C97.9014 188.276 97.9014 189.925 98.7619 191.176V210.342C98.7619 214.096 97.9014 217.849 96.1805 221.148C96.1805 221.205 96.1231 221.262 96.1231 221.319C94.6316 224.162 91.7059 225.868 88.5508 225.868H83.6174L76.2172 225.755L66.0061 225.925L55.3361 225.755H50.919C44.494 225.755 41.6257 219.555 40.3637 214.608C39.6753 211.935 39.3885 209.148 39.4458 206.361L39.6753 189.243C39.3311 188.048 39.2164 186.797 39.2164 185.546L39.5032 161.546C39.5032 160.864 39.6753 160.181 40.0195 159.555C40.3637 158.873 40.421 158.077 40.1342 157.337C39.9621 156.882 39.8474 156.428 39.8474 155.973V73.11C38.8148 72.0294 38.2411 70.6076 38.2411 69.1289V64.6929V64.636C38.2411 60.7687 41.1094 57.4701 44.9529 56.6171C48.9112 55.764 55.2787 54.9678 61.5316 56.6171C71.8001 59.29 71.9722 60.7687 79.315 60.1431C83.3879 59.745 88.7229 58.6645 92.5664 57.8114Z" fill="white"/>
<path d="M103.466 72.655C103.466 72.7119 88.4361 72.8256 69.8496 72.8256C51.2631 72.8256 36.2333 72.7687 36.2333 72.655C36.2333 72.5981 51.2631 72.4844 69.8496 72.4844C88.3787 72.4844 103.466 72.5412 103.466 72.655Z" fill="#263238"/>
<path d="M39.9048 111.612C43.1173 104.901 49.5422 99.7258 56.885 98.0196C63.7689 96.4272 71.2264 97.6784 77.8235 95.0623C84.7074 92.3324 89.2393 85.9059 92.7959 79.4793C94.1727 76.977 95.8937 74.1902 98.7619 73.849C98.0162 75.8395 99.2209 78.2282 98.2457 80.0481C97.9015 80.6737 97.3278 81.1855 96.8115 81.6405C92.6812 85.5078 89.985 90.5694 87.633 95.6879C86.1989 98.8158 84.7647 102.171 82.0686 104.389C80.1181 105.982 77.6514 106.892 75.1847 107.347C68.8171 108.484 61.9906 106.949 55.9672 109.223C51.3206 110.93 47.7639 114.74 45.2972 119.005C42.8304 123.271 41.4537 127.991 40.0195 132.712" fill="white"/>
<path d="M100.54 65.7163C100.54 65.8869 99.5077 66.0006 97.7867 66.74C96.0657 67.4793 93.8285 69.0149 91.6486 71.5741C90.5586 72.8253 89.4687 74.304 88.3787 75.9533C87.2888 77.6025 86.1989 79.4225 84.9368 81.3561C83.6748 83.2329 82.2406 85.2234 80.3476 86.9296C78.5119 88.6926 76.2172 90.1144 73.6931 91.0812C71.169 92.048 68.5302 92.503 65.9488 92.503C63.4247 92.4461 61.0727 92.048 58.8928 92.048C54.533 91.9912 50.6321 93.2992 47.7065 94.8916C46.215 95.6879 45.0103 96.5409 43.9777 97.394C42.9451 98.1902 42.142 99.0433 41.4536 99.6689C40.1916 101.034 39.5606 101.887 39.4458 101.83C39.3885 101.773 39.5032 101.546 39.7327 101.091C39.9621 100.636 40.3637 100.01 40.9373 99.2139C41.5684 98.4746 42.3141 97.5646 43.3467 96.6547C44.3793 95.6879 45.584 94.721 47.1328 93.868C50.1158 92.1049 54.1888 90.5694 58.8928 90.5125C61.2448 90.5125 63.5968 90.8537 65.9488 90.8537C68.3008 90.8537 70.7675 90.3988 73.0621 89.4888C75.4141 88.5788 77.4793 87.2708 79.2002 85.6784C80.9212 84.086 82.3553 82.2661 83.6174 80.4461C84.8794 78.6262 86.0268 76.8063 87.1741 75.157C88.3214 73.5078 89.4687 71.9722 90.7307 70.721C93.1401 68.1618 95.6642 66.6831 97.4999 66.1144C99.4503 65.5457 100.54 65.6594 100.54 65.7163Z" fill="white"/>
<path d="M39.618 187.877C42.0273 185.489 45.8135 185.034 49.1981 185.432C52.5826 185.83 55.9098 186.911 59.2944 186.911C63.9984 186.911 68.7024 184.806 71.8001 181.28C72.9474 179.972 73.8653 178.494 75.0126 177.129C77.8235 173.83 81.8391 171.555 86.1415 170.816C88.092 170.475 90.0998 170.475 91.8781 169.735C95.6069 168.257 97.4999 164.276 99.1062 160.636C98.8767 166.607 98.5899 172.522 98.3604 178.494C91.9928 177.299 85.9694 181.394 80.9786 185.489C75.9878 189.584 70.5954 194.19 64.1131 194.19C60.6712 194.19 57.2866 192.882 53.8447 192.996C47.3624 193.223 42.1995 198.285 37.8397 203.005" fill="white"/>
<path d="M100.54 160.295C100.54 160.408 99.565 160.465 97.9014 160.92C97.0409 161.091 96.0657 161.489 94.9184 161.944C93.8284 162.456 92.5664 163.138 91.3043 163.991C90.0423 164.844 88.6655 165.868 87.3461 167.062C85.9693 168.257 84.5926 169.622 83.1011 171.1C81.6096 172.579 80.0607 174.114 78.2823 175.593C76.504 177.072 74.5536 178.494 72.3163 179.631C70.0791 180.769 67.6697 181.394 65.3177 181.622C62.9657 181.849 60.7284 181.792 58.6633 181.735C56.5981 181.622 54.5903 181.508 52.7546 181.508C50.9189 181.508 49.2553 181.622 47.7064 181.849C46.2149 182.077 44.8382 182.418 43.6908 182.873C42.5435 183.328 41.6257 183.84 40.9373 184.295C39.5032 185.261 38.8721 186.001 38.7574 185.944C38.7 185.887 39.159 184.977 40.5357 183.783C41.2241 183.214 42.142 182.588 43.3467 182.02C44.494 181.451 45.9281 180.996 47.477 180.712C49.0832 180.37 50.8042 180.2 52.6973 180.143C54.5903 180.086 56.5981 180.2 58.6633 180.257C60.7284 180.314 62.9083 180.314 65.0882 180.086C67.2681 179.859 69.448 179.233 71.5132 178.209C73.5784 177.186 75.4714 175.821 77.135 174.456C78.856 173.034 80.4049 171.555 81.8964 170.133C83.3879 168.712 84.8794 167.347 86.3135 166.152C87.7477 164.958 89.1818 163.934 90.5586 163.138C91.9354 162.285 93.2548 161.66 94.4594 161.261C95.6641 160.863 96.7541 160.579 97.6146 160.465C99.565 160.01 100.54 160.181 100.54 160.295Z" fill="white"/>
<path d="M39.4458 217.28C46.215 221.318 55.1067 220.124 62.1053 216.541C69.1039 212.958 74.7257 207.214 80.577 201.925C86.4283 196.636 92.7959 191.517 100.483 189.64C99.7945 188.73 99.393 187.593 99.3356 186.456C90.5013 190.323 81.4375 194.304 74.6684 201.129C72.3164 203.46 70.3086 206.133 67.6698 208.238C65.1457 210.228 62.22 211.536 59.237 212.674C53.271 215.005 46.7887 216.768 40.4211 215.915C39.9048 215.858 39.3311 215.802 38.9869 216.2C38.6427 216.598 39.2164 217.337 39.5606 216.939" fill="white"/>
<path d="M89.5835 154.323C89.5835 155.29 88.7804 156.086 87.8052 156.086C86.83 156.086 86.0269 155.29 86.0269 154.323C86.0269 153.356 86.83 152.56 87.8052 152.56C88.7804 152.56 89.5835 153.356 89.5835 154.323Z" fill="white"/>
<path d="M80.8639 158.02C80.8639 158.532 80.4624 158.873 80.0034 158.873C79.4871 158.873 79.1429 158.475 79.1429 158.02C79.1429 157.508 79.5445 157.167 80.0034 157.167C80.5197 157.167 80.8639 157.565 80.8639 158.02Z" fill="white"/>
<path d="M60.786 206.816C61.2612 206.816 61.6464 206.434 61.6464 205.963C61.6464 205.492 61.2612 205.11 60.786 205.11C60.3107 205.11 59.9255 205.492 59.9255 205.963C59.9255 206.434 60.3107 206.816 60.786 206.816Z" fill="white"/>
<path d="M102.778 168.598C102.778 168.655 87.6904 168.769 69.1039 168.769C50.5174 168.769 35.4302 168.712 35.4302 168.598C35.4302 168.484 50.5174 168.427 69.1039 168.427C87.6904 168.484 102.778 168.541 102.778 168.598Z" fill="#263238"/>
<path d="M102.605 198.001C102.605 198.058 87.5757 198.172 68.9892 198.172C50.4027 198.172 35.3729 198.115 35.3729 198.001C35.3729 197.944 50.4027 197.83 68.9892 197.83C87.5757 197.887 102.605 197.944 102.605 198.001Z" fill="#263238"/>
<path d="M103.007 202.38C103.007 202.437 87.9772 202.551 69.3907 202.551C50.8042 202.551 35.7744 202.494 35.7744 202.38C35.7744 202.323 50.8042 202.209 69.3907 202.209C87.9772 202.209 103.007 202.266 103.007 202.38Z" fill="#263238"/>
<path d="M102.778 164.105C102.778 164.162 87.9198 164.276 69.5628 164.276C51.2058 164.276 36.3481 164.219 36.3481 164.105C36.3481 164.048 51.2058 163.935 69.5628 163.935C87.8624 163.935 102.778 163.991 102.778 164.105Z" fill="#263238"/>
<path d="M64.5146 240.029C64.5146 240.029 64.3425 240.029 63.9983 239.859C63.7115 239.745 63.2526 239.461 62.851 239.062C61.9332 238.209 61.1874 236.788 60.3269 235.195C59.4665 233.603 58.6633 232.181 58.0897 231.157C57.516 230.134 57.2292 229.451 57.2292 229.451C57.2292 229.451 57.6307 230.02 58.2618 231.043C58.8354 232.067 59.6959 233.489 60.5564 235.025C61.4169 236.56 62.1626 238.039 62.9658 238.892C63.7689 239.802 64.5146 239.972 64.5146 240.029Z" fill="#263238"/>
<path d="M83.2732 229.338C83.3306 229.338 83.2158 229.849 82.9864 230.589C82.7569 231.385 82.4127 232.409 81.9538 233.603C81.4949 234.74 81.0359 235.764 80.6917 236.503C80.3476 237.243 80.1181 237.698 80.0607 237.641C80.0034 237.641 80.1755 237.129 80.5197 236.39C80.8638 235.537 81.2654 234.57 81.667 233.432C82.0685 232.352 82.4701 231.328 82.7569 230.475C83.0437 229.793 83.2158 229.338 83.2732 229.338Z" fill="#263238"/>
<path d="M102.605 209.091C102.605 209.091 102.548 209.148 102.433 209.205C102.319 209.318 102.204 209.432 101.974 209.546C101.573 209.83 100.999 210.285 100.253 210.854C98.7619 211.991 96.5247 213.584 93.599 215.29C92.1649 216.143 90.5013 217.053 88.7229 217.906C86.8872 218.759 84.9368 219.555 82.7569 220.124C78.3971 221.262 73.349 221.66 68.2434 220.465C65.7193 219.897 63.31 218.873 61.2448 217.622C59.1796 216.371 57.3439 214.835 55.623 213.356C53.9594 211.878 52.3531 210.456 50.8616 209.205C49.3127 207.953 47.8212 206.873 46.3871 206.02C43.4614 204.257 40.8226 203.517 38.9296 203.347C38.0117 203.29 37.266 203.29 36.7497 203.29C36.5202 203.29 36.3481 203.347 36.176 203.347C36.0613 203.347 36.0039 203.347 36.0039 203.347C36.0039 203.347 36.0613 203.347 36.176 203.29C36.2907 203.29 36.5202 203.233 36.7497 203.233C37.266 203.176 38.0117 203.176 38.9296 203.233C40.8226 203.404 43.5762 204.086 46.5018 205.849C47.9933 206.702 49.4848 207.783 51.0337 209.034C52.5826 210.285 54.1315 211.707 55.8524 213.186C57.516 214.664 59.3517 216.143 61.4169 217.394C63.4821 218.645 65.8341 219.612 68.3581 220.181C73.4063 221.318 78.3971 220.977 82.6996 219.84C84.8794 219.271 86.8299 218.475 88.6656 217.679C90.4439 216.826 92.1075 215.972 93.5417 215.119C96.4673 213.413 98.7046 211.821 100.253 210.74C100.999 210.171 101.573 209.773 102.032 209.432C102.204 209.318 102.376 209.205 102.491 209.091C102.548 209.148 102.605 209.091 102.605 209.091Z" fill="#263238"/>
<path d="M102.778 208.408C102.778 208.408 102.72 208.465 102.663 208.522C102.548 208.636 102.433 208.75 102.261 208.863C102.089 209.034 101.86 209.205 101.573 209.432C101.286 209.66 100.942 209.887 100.598 210.172C99.1061 211.309 96.8689 212.788 93.8858 214.38C92.3943 215.176 90.7307 215.916 88.895 216.655C87.0593 217.394 85.0515 218.077 82.8716 218.532C82.298 218.645 81.7817 218.759 81.208 218.816C80.9212 218.873 80.6344 218.873 80.3476 218.93C80.0607 218.93 79.7739 218.93 79.4871 218.93C78.3398 218.93 77.1351 218.873 75.9304 218.816C73.521 218.645 70.997 218.361 68.5302 217.679C66.0635 216.996 63.7689 215.916 61.8758 214.38C59.9827 212.901 58.3765 211.195 56.8276 209.603C55.2788 208.067 53.7299 206.645 52.0663 205.622C50.4027 204.541 48.7391 203.802 47.1328 203.347C43.9777 202.38 41.2242 202.266 39.3311 202.38C38.8722 202.38 38.4706 202.437 38.0691 202.494C37.7249 202.551 37.438 202.551 37.1512 202.608C36.9217 202.664 36.7496 202.664 36.5775 202.721C36.4628 202.721 36.4055 202.721 36.4055 202.721C36.4055 202.721 37.3807 202.437 39.2737 202.266C41.1094 202.096 43.9204 202.153 47.1328 203.119C48.7391 203.631 50.46 204.371 52.1236 205.394C53.7872 206.418 55.3935 207.84 56.9424 209.432C58.4912 210.968 60.0975 212.674 61.9332 214.153C63.8262 215.631 66.0635 216.712 68.5302 217.394C70.997 218.077 73.4637 218.361 75.873 218.532C77.0777 218.589 78.225 218.645 79.4297 218.645C79.7165 218.645 80.0034 218.645 80.2902 218.645C80.577 218.645 80.8638 218.589 81.1507 218.532C81.7243 218.475 82.2406 218.361 82.8143 218.247C84.9942 217.792 86.9446 217.11 88.7803 216.427C90.616 215.688 92.2796 214.949 93.7137 214.153C96.6968 212.617 98.934 211.138 100.426 210.058C100.827 209.773 101.114 209.546 101.401 209.318C101.688 209.091 101.917 208.92 102.089 208.75C102.261 208.636 102.433 208.522 102.548 208.408C102.72 208.465 102.778 208.408 102.778 208.408Z" fill="#263238"/>
<path d="M102.72 72.3706C102.72 72.4274 87.8624 72.5412 69.5054 72.5412C51.1484 72.5412 36.2907 72.4843 36.2907 72.3706C36.2907 72.3137 51.1484 72.2 69.5054 72.2C87.8624 72.2 102.72 72.2568 102.72 72.3706Z" fill="#263238"/>
<path d="M92.8532 45.8684C92.8532 45.8684 92.6811 45.9822 92.3369 46.2096C91.9927 46.4371 91.5338 46.7784 90.9028 47.2902C90.3291 47.8021 89.6407 48.4277 88.7802 49.167C87.9197 49.8495 86.8872 50.6457 85.6825 51.3281C83.2731 52.6931 80.0606 53.7736 76.3892 54.2286C72.7178 54.6836 68.6449 54.3992 64.4572 53.6599C62.3347 53.3186 60.3268 52.8068 58.3764 52.4087C56.426 52.0106 54.5329 51.7831 52.6972 51.7262C49.0258 51.6694 45.756 52.3518 43.1172 53.2618C40.5357 54.1717 38.4705 55.1954 37.3232 56.2191C36.7496 56.731 36.348 57.186 36.0612 57.4703C35.8317 57.8115 35.717 57.9822 35.717 57.9822C35.717 57.9822 35.7743 57.7547 36.0038 57.4703C36.2333 57.1291 36.6348 56.6741 37.2085 56.1623C38.4132 55.1386 40.421 54.058 43.0598 53.148C45.6986 52.2381 48.9685 51.4987 52.6972 51.5556C54.5329 51.5556 56.4834 51.84 58.4338 52.2381C60.3842 52.6362 62.392 53.0912 64.5145 53.4893C68.7022 54.2286 72.7178 54.513 76.3892 54.1149C80.0033 53.7168 83.2157 52.6362 85.6251 51.3281C88.0918 50.0201 89.6407 48.3708 90.8454 47.4608C91.4764 46.949 91.9353 46.6646 92.2795 46.4371C92.4516 46.3234 92.5664 46.2665 92.6811 46.2096C92.7958 45.9253 92.8532 45.8684 92.8532 45.8684Z" fill="#263238"/>
<path d="M91.8206 44.6741C91.8206 44.6741 91.8206 44.7309 91.7632 44.7878C91.7059 44.9016 91.5911 45.0153 91.4764 45.129C91.2469 45.4134 90.9027 45.8684 90.3865 46.4371C89.4112 47.5177 87.9197 49.1101 85.6825 50.5888C83.4452 52.0106 80.3475 53.0911 76.7908 53.2049C73.2341 53.3755 69.3906 52.6362 65.5471 51.3281C63.6541 50.7025 61.761 49.9632 59.9827 49.4513C58.147 48.9395 56.3686 48.5414 54.5903 48.5414C52.8693 48.4845 51.2057 48.7689 49.7142 49.167C48.2227 49.5651 46.8459 49.9632 45.5839 50.4181C43.1172 51.3281 41.2241 52.3518 39.9047 53.0911C39.2737 53.4324 38.8147 53.7736 38.5279 54.058C38.2411 54.3423 38.1263 54.5129 38.1263 54.5129C38.1263 54.5129 38.2411 54.3423 38.4705 54.058C38.7574 53.7736 39.2163 53.4324 39.8473 53.0343C41.1094 52.2949 43.0024 51.2144 45.4691 50.3044C46.7312 49.8494 48.108 49.3944 49.5995 48.9963C51.091 48.5982 52.7546 48.3139 54.5329 48.3708C56.3113 48.3708 58.147 48.7689 59.9827 49.2807C61.8184 49.7926 63.6541 50.475 65.6045 51.1575C69.3906 52.4655 73.2341 53.2049 76.7334 53.0343C80.2327 52.9774 83.2731 51.8968 85.5104 50.5319C87.7476 49.1101 89.2391 47.5745 90.2144 46.494C90.7306 45.9253 91.0748 45.5272 91.3617 45.2428C91.4764 45.129 91.5911 45.0153 91.6485 44.9016C91.7632 44.6741 91.8206 44.6741 91.8206 44.6741Z" fill="#263238"/>
<path d="M101.401 54.5699C101.401 54.5699 101.688 54.8543 102.204 55.4799C102.72 56.1055 103.409 57.1292 103.982 58.6078C104.269 59.3472 104.498 60.2002 104.613 61.2239C104.728 62.1908 104.671 63.2713 104.728 64.4657C104.728 65.0344 104.728 65.66 104.728 66.2856C104.728 66.9112 104.785 67.5936 104.671 68.2192C104.498 69.5841 103.867 70.9491 102.778 72.0296V71.9728C102.778 90.6837 102.835 122.987 102.835 164.39V164.447L102.778 164.504C102.319 164.959 102.032 165.584 102.032 166.267C102.032 166.949 102.261 167.688 102.778 168.2L102.835 168.257V168.314C102.835 177.584 102.835 187.423 102.835 197.603V197.66V197.717C102.433 198.286 102.147 199.025 102.147 199.821C102.147 200.617 102.376 201.414 102.835 202.096V202.153V202.21C102.835 208.124 102.835 214.21 102.835 220.409C102.835 221.944 102.892 223.537 102.778 225.129C102.663 226.722 102.433 228.257 101.974 229.85C101.573 231.385 100.999 232.921 100.311 234.342C99.9666 235.082 99.565 235.764 99.0488 236.447C98.5325 237.129 97.9588 237.698 97.3278 238.21C96.0084 239.233 94.4595 239.916 92.7959 240.2C91.9928 240.371 91.1323 240.371 90.2718 240.371C89.4687 240.371 88.6082 240.371 87.8051 240.371C86.9446 240.371 86.1415 240.371 85.281 240.371C84.4205 240.314 83.56 239.859 83.0437 239.177C82.7569 238.835 82.5848 238.494 82.3554 238.096C82.2406 237.925 82.1259 237.755 82.0112 237.641C81.8391 237.527 81.7243 237.414 81.4949 237.357C81.1507 237.243 80.6917 237.3 80.4049 237.527C80.2328 237.641 80.1181 237.755 80.0034 237.925C79.8886 238.096 79.8313 238.267 79.7739 238.494C79.4297 239.29 78.6839 239.973 77.8235 240.143C77.3645 240.257 76.963 240.2 76.5041 240.257H75.242C73.521 240.257 71.8001 240.314 70.0791 240.314C69.2186 240.314 68.3581 240.314 67.4976 240.371H66.1782C65.7767 240.371 65.3177 240.371 64.8588 240.314C63.9983 240.2 63.1379 239.802 62.4495 239.29C61.7611 238.722 61.1874 237.982 60.9006 237.129L61.0153 237.243L60.9006 237.129C60.7285 236.731 60.3843 236.39 59.9827 236.333C59.5812 236.219 59.0649 236.39 58.7781 236.674C58.4912 237.015 58.2044 237.414 57.8602 237.812C57.5734 238.21 57.2866 238.608 56.885 238.949C56.1392 239.632 55.164 240.03 54.1888 240.2C53.6725 240.257 53.2136 240.257 52.6973 240.257H51.2058C50.2306 240.257 49.2554 240.257 48.2228 240.257C47.7065 240.2 47.2476 240.257 46.7313 240.087L45.9855 239.973C45.7561 239.916 45.5266 239.802 45.2398 239.745C43.2893 239.177 41.6831 237.869 40.3637 236.333C39.0443 234.797 38.1264 232.978 37.438 231.101C36.7496 229.224 36.176 227.29 35.8318 225.3C35.4876 223.309 35.3155 221.262 35.3155 219.271C35.3155 217.224 35.3729 215.233 35.3729 213.186C35.4302 208.75 35.4876 204.371 35.545 200.049V200.105C35.1434 198.684 35.0287 197.205 35.0287 195.726C35.0287 194.248 35.086 192.826 35.086 191.347C35.1434 188.447 35.1434 185.546 35.2008 182.703C35.2581 179.859 35.2581 176.959 35.3155 174.115C35.3155 172.693 35.3729 171.271 35.3729 169.85C35.3729 169.11 35.4876 168.371 35.8318 167.745C36.0039 167.404 36.176 167.12 36.2334 166.778C36.2907 166.437 36.3481 166.096 36.2907 165.755C36.2334 165.414 36.1186 165.129 36.0039 164.788C35.8892 164.447 35.8318 164.105 35.7744 163.707C35.7744 163.025 35.7744 162.286 35.7744 161.603C35.7744 160.181 35.7744 158.816 35.7744 157.395C35.7744 154.608 35.7744 151.878 35.7744 149.091C35.7744 143.575 35.7744 138.172 35.7744 132.826C35.7744 111.442 35.7744 91.2524 35.7744 72.6552L35.8318 72.769C35.086 72.0296 34.5124 71.0628 34.2256 70.0391C34.0535 69.5273 33.9961 69.0154 33.9961 68.5036C33.9961 67.9917 33.9961 67.4799 33.9961 66.968C33.9961 65.9443 33.9961 64.9206 33.9961 63.8969C33.9961 62.8732 34.0535 61.8495 34.2829 60.8827C34.7418 58.8922 35.7744 57.0723 37.0938 55.5936C38.4133 54.1149 39.7327 52.6931 40.9947 51.2713C46.1576 45.5841 51.0911 40.1244 55.7377 34.9491V35.0059C55.7377 32.5604 55.7377 30.3424 55.7377 28.2382L55.8524 28.3519C55.623 28.3519 55.3935 28.3519 55.164 28.3519C54.9346 28.3519 54.7051 28.2382 54.533 28.1244C54.1314 27.8401 53.9593 27.3851 53.9593 26.987C53.9593 26.532 54.2462 26.1339 54.6477 25.9633C54.8198 25.8495 55.0493 25.7927 55.2788 25.7927H55.8524L55.7377 25.9064C55.7377 23.859 55.7377 22.0391 55.7377 20.2761V20.1623H55.8524C65.7193 20.1055 74.3242 20.0486 81.9538 20.0486H82.0112V20.1055C82.0112 22.3803 82.0112 24.1434 82.0112 25.9064L81.9538 25.8495C82.1833 25.8495 82.4127 25.8495 82.6422 25.8495C82.8716 25.9064 83.1011 25.9633 83.2732 26.1339C83.6174 26.4183 83.7895 26.8732 83.7321 27.2713C83.6748 27.6694 83.3879 28.0107 83.0437 28.1813C82.8716 28.295 82.6995 28.295 82.5274 28.3519C82.3554 28.3519 82.1833 28.3519 82.0112 28.3519L82.0685 28.295C82.0685 31.0818 82.0685 33.2429 82.0685 35.2903V35.2334C88.3214 41.5462 93.1401 46.3803 96.3526 49.6789C97.9588 51.3282 99.2209 52.5794 100.024 53.3756C100.999 54.1718 101.401 54.5699 101.401 54.5699C101.401 54.5699 100.999 54.1718 100.139 53.3187C99.3356 52.4657 98.0735 51.2713 96.4673 49.6221C93.1975 46.3803 88.3787 41.5462 82.1259 35.2334C82.1259 33.186 82.1259 31.0249 82.1259 28.2382V28.1813H82.1833C82.5274 28.1813 82.8716 28.2382 83.2158 28.0107C83.5027 27.8401 83.7895 27.5557 83.7895 27.2145C83.8469 26.8732 83.7321 26.4751 83.3879 26.1908C83.2158 26.077 83.0437 25.9633 82.8143 25.9633C82.6422 25.9064 82.3553 25.9633 82.1259 25.9633H82.0685V25.9064C82.0685 24.1434 82.0685 22.3803 82.0685 20.1055L82.1259 20.1623C74.4962 20.2192 65.8914 20.2761 56.0245 20.3329L56.1392 20.2192C56.1392 21.9822 56.1392 23.8021 56.1392 25.8495V25.9633H56.0245C55.623 25.9633 55.2214 25.9064 54.9346 26.1339C54.5904 26.3045 54.3609 26.6457 54.3609 26.987C54.3035 27.3851 54.533 27.7263 54.8198 27.9538C55.164 28.1813 55.5656 28.1244 56.0245 28.1244H56.1392V28.2382C56.1392 30.3993 56.1392 32.5604 56.1392 35.0059V35.0628V35.1197C51.4926 40.295 46.5592 45.6979 41.3963 51.442C40.0769 52.8638 38.8148 54.3424 37.4954 55.7642C36.176 57.186 35.2008 59.0059 34.7418 60.9396C34.5124 61.9064 34.455 62.9301 34.455 63.8969C34.455 64.9206 34.455 65.9443 34.455 66.968C34.455 67.9917 34.3977 69.0154 34.6845 70.0391C34.9713 71.0059 35.4876 71.9159 36.2334 72.6552L36.2907 72.7121V72.769C36.2907 91.3093 36.2907 111.499 36.2907 132.94C36.2907 138.286 36.2907 143.688 36.2907 149.205C36.2907 151.935 36.2907 154.722 36.2907 157.508C36.2907 158.873 36.2907 160.295 36.2907 161.717C36.2907 162.399 36.2907 163.139 36.2907 163.821C36.2907 164.162 36.4055 164.504 36.4628 164.788C36.5776 165.129 36.6923 165.47 36.7496 165.812C36.807 166.153 36.7497 166.551 36.6923 166.892C36.6349 167.233 36.4055 167.575 36.2907 167.916C36.0039 168.542 35.8892 169.224 35.8892 169.906C35.8892 171.328 35.8318 172.75 35.8318 174.172C35.7744 177.015 35.7744 179.859 35.7171 182.76C35.6597 185.603 35.6597 188.504 35.6023 191.404C35.6023 192.826 35.545 194.305 35.545 195.783C35.545 197.205 35.6597 198.684 36.0039 200.105C35.9465 204.428 35.8892 208.807 35.8318 213.243C35.8318 215.29 35.7744 217.281 35.7744 219.328C35.7744 221.319 35.9465 223.366 36.2907 225.3C36.6349 227.29 37.1512 229.224 37.8396 231.044C38.5854 232.864 39.5032 234.684 40.7652 236.162C42.0273 237.641 43.6335 238.892 45.4692 239.518C47.3049 240.143 49.3127 239.973 51.2632 240.03H52.7547C53.271 240.03 53.7299 240.03 54.1888 239.973C55.1067 239.859 56.0245 239.461 56.7129 238.835C57.0571 238.551 57.3439 238.153 57.6308 237.755C57.9176 237.357 58.2044 237.015 58.5486 236.617C58.9502 236.219 59.5238 236.049 60.0401 236.219C60.5564 236.333 61.0153 236.731 61.1874 237.186L61.0727 237.072L61.1874 237.186C61.4743 237.982 61.9905 238.665 62.6216 239.177C63.2526 239.688 64.0557 240.03 64.9162 240.143C65.3178 240.2 65.7767 240.2 66.1782 240.2H67.4976C68.3581 240.2 69.2186 240.2 70.0791 240.143C71.8001 240.143 73.521 240.087 75.242 240.087H76.5041C76.9056 240.087 77.3645 240.087 77.7661 240.03C78.5692 239.859 79.2002 239.233 79.5444 238.494C79.6592 238.324 79.6592 238.096 79.8313 237.925C79.946 237.698 80.1181 237.527 80.2902 237.414C80.6917 237.129 81.1507 237.072 81.6096 237.186C81.8391 237.243 82.0685 237.357 82.2406 237.527C82.4127 237.698 82.5275 237.869 82.6422 238.039C82.8716 238.38 83.1011 238.778 83.3306 239.063C83.7895 239.688 84.5926 240.087 85.3957 240.143C86.2562 240.143 87.0593 240.143 87.8624 240.143C88.7229 240.143 89.5261 240.143 90.3292 240.143C91.1897 240.143 91.9928 240.143 92.7959 239.973C94.4021 239.688 95.8936 239.006 97.1557 238.039C97.7867 237.527 98.3604 236.959 98.8193 236.333C99.2782 235.707 99.6798 234.968 100.024 234.286C100.712 232.864 101.286 231.328 101.688 229.85C102.089 228.314 102.376 226.779 102.433 225.186C102.548 223.651 102.491 222.058 102.491 220.523C102.491 214.324 102.491 208.238 102.491 202.324V202.38C101.974 201.641 101.745 200.788 101.745 199.935C101.745 199.082 102.032 198.286 102.491 197.66V197.717C102.491 187.537 102.491 177.698 102.491 168.428L102.548 168.485C101.974 167.916 101.688 167.12 101.688 166.38C101.688 165.641 102.032 164.902 102.548 164.447L102.491 164.504C102.548 123.158 102.548 90.8543 102.548 72.0865C103.638 71.0628 104.269 69.641 104.441 68.333C104.499 67.6505 104.498 67.0249 104.498 66.3993C104.498 65.7737 104.498 65.1481 104.498 64.5794C104.498 63.3851 104.556 62.3045 104.441 61.3377C104.326 60.3709 104.097 59.5178 103.81 58.7784C103.236 57.2998 102.548 56.2761 102.032 55.6505C101.802 55.3092 101.573 55.0818 101.458 54.968C101.458 54.6837 101.401 54.5699 101.401 54.5699Z" fill="#263238"/>
<path d="M82.2407 25.6787C82.2407 25.7356 76.3894 25.8493 69.1613 25.9062C61.9332 25.9631 56.0819 25.9062 56.0819 25.8493C56.0819 25.7924 61.9332 25.6787 69.1613 25.6218C76.3894 25.565 82.2407 25.565 82.2407 25.6787Z" fill="#263238"/>
<path d="M82.8717 28.1809C82.8717 28.2377 76.8483 28.3515 69.5055 28.3515C62.1053 28.3515 56.0819 28.2946 56.0819 28.1809C56.0819 28.124 62.1053 28.0103 69.5055 28.0103C76.9056 28.0671 82.8717 28.124 82.8717 28.1809Z" fill="#263238"/>
<path d="M82.1259 30.2851C82.1259 30.342 76.2746 30.4557 69.1039 30.4557C61.9332 30.4557 56.0819 30.3989 56.0819 30.2851C56.0819 30.1714 61.9332 30.1145 69.1039 30.1145C76.332 30.1145 82.1259 30.1714 82.1259 30.2851Z" fill="#263238"/>
<path d="M82.1259 32.3326C82.1259 32.3895 76.2746 32.5032 69.1039 32.5032C61.9332 32.5032 56.0819 32.4463 56.0819 32.3326C56.0819 32.2757 61.9332 32.162 69.1039 32.162C76.332 32.162 82.1259 32.2189 82.1259 32.3326Z" fill="#263238"/>
<path d="M56.0819 28.2378C56.4834 28.9203 57.1718 29.3752 57.9176 29.6027C58.6633 29.8302 59.4664 29.8302 60.2696 29.8871C67.0961 30.0577 73.9226 29.7733 80.6917 29.0909C81.2654 29.034 81.8964 28.8634 82.0685 28.3515C80.9786 28.2947 79.8886 28.2947 78.7987 28.2947C72.3163 28.2947 65.7767 28.2947 59.2943 28.3515C58.0897 28.3515 56.9423 28.3515 55.7377 28.3515" fill="#E0E0E0"/>
<path d="M51.55 24.0291V4.3514C51.55 4.3514 51.3779 0.370361 69.3333 0.370361C85.6826 0.370361 85.6252 4.977 85.6252 4.977V24.0291H51.55Z" fill="#E8505B"/>
<path d="M53.7873 20.105C53.73 20.105 53.6152 16.6927 53.6152 12.541C53.6152 8.38937 53.6726 4.97705 53.7873 4.97705C53.8447 4.97705 53.9594 8.38937 53.9594 12.541C53.9594 16.7496 53.9021 20.105 53.7873 20.105Z" fill="#263238"/>
<path d="M56.8277 20.105C56.7704 20.105 56.6556 16.522 56.6556 12.1429C56.6556 7.70685 56.713 4.18079 56.8277 4.18079C56.8851 4.18079 56.9998 7.76373 56.9998 12.1429C56.9998 16.522 56.9425 20.105 56.8277 20.105Z" fill="#263238"/>
<path d="M59.8107 20.1049C59.7533 20.1049 59.6386 16.4082 59.6386 11.8016C59.6386 7.25185 59.696 3.49829 59.8107 3.49829C59.9254 3.49829 59.9828 7.19498 59.9828 11.8016C59.9254 16.4082 59.8681 20.1049 59.8107 20.1049Z" fill="#263238"/>
<path d="M62.7363 20.1051C62.6789 20.1051 62.5642 16.2947 62.5642 11.6312C62.5642 6.96765 62.6216 3.15723 62.7363 3.15723C62.7937 3.15723 62.9084 6.96765 62.9084 11.6312C62.851 16.2947 62.7937 20.1051 62.7363 20.1051Z" fill="#263238"/>
<path d="M65.662 20.1051C65.6046 20.1051 65.4899 16.2947 65.4899 11.6312C65.4899 6.96765 65.5472 3.15723 65.662 3.15723C65.7767 3.15723 65.8341 6.96765 65.8341 11.6312C65.7767 16.2947 65.7193 20.1051 65.662 20.1051Z" fill="#263238"/>
<path d="M68.5877 20.1051C68.5303 20.1051 68.4156 16.2947 68.4156 11.6312C68.4156 6.96765 68.473 3.15723 68.5877 3.15723C68.7024 3.15723 68.7598 6.96765 68.7598 11.6312C68.7598 16.2947 68.6451 20.1051 68.5877 20.1051Z" fill="#263238"/>
<path d="M71.5133 20.1051C71.456 20.1051 71.3412 16.2947 71.3412 11.6312C71.3412 6.96765 71.3986 3.15723 71.5133 3.15723C71.5707 3.15723 71.6854 6.96765 71.6854 11.6312C71.6854 16.2947 71.6281 20.1051 71.5133 20.1051Z" fill="#263238"/>
<path d="M74.4389 20.1051C74.3816 20.1051 74.2668 16.2947 74.2668 11.6312C74.2668 6.96765 74.3242 3.15723 74.4389 3.15723C74.4963 3.15723 74.611 6.96765 74.611 11.6312C74.611 16.2947 74.5537 20.1051 74.4389 20.1051Z" fill="#263238"/>
<path d="M77.3646 20.1049C77.3072 20.1049 77.1925 16.465 77.1925 11.9153C77.1925 7.36552 77.2499 3.72571 77.3646 3.72571C77.4793 3.72571 77.5367 7.36552 77.5367 11.9153C77.5367 16.465 77.4793 20.1049 77.3646 20.1049Z" fill="#263238"/>
<path d="M80.3476 20.105C80.2903 20.105 80.1755 16.5789 80.1755 12.2567C80.1755 7.93439 80.2329 4.40833 80.3476 4.40833C80.405 4.40833 80.5197 7.93439 80.5197 12.2567C80.4624 16.5789 80.405 20.105 80.3476 20.105Z" fill="#263238"/>
<path d="M83.2732 20.1051C83.2159 20.1051 83.1011 16.8065 83.1011 12.7117C83.1011 8.61694 83.1585 5.31836 83.2732 5.31836C83.3306 5.31836 83.4453 8.61694 83.4453 12.7117C83.388 16.8065 83.3306 20.1051 83.2732 20.1051Z" fill="#263238"/>
<path d="M84.4779 5.71638C84.4779 5.71638 84.3632 5.71638 84.1337 5.65951C83.9042 5.60263 83.6174 5.48889 83.2159 5.37515C82.8143 5.2614 82.3554 5.09079 81.7817 4.92017C81.2081 4.74955 80.577 4.57894 79.8313 4.40832C79.0855 4.23771 78.3398 4.06709 77.4793 3.89647C76.6188 3.72586 75.701 3.61211 74.7257 3.4415C72.7753 3.21401 70.6528 2.98652 68.3582 2.98652C66.1209 2.98652 63.941 3.15714 61.9906 3.38462C61.0153 3.49837 60.0975 3.61211 59.237 3.78273C58.3765 3.89647 57.5734 4.12396 56.885 4.29458C56.1393 4.46519 55.5082 4.63581 54.9346 4.80643C54.3609 4.97704 53.902 5.09079 53.5004 5.20453C53.0989 5.31828 52.8121 5.43202 52.5826 5.48889C52.3531 5.54576 52.2384 5.54576 52.2384 5.54576C52.2384 5.54576 52.3531 5.48889 52.5252 5.43202C52.7547 5.37515 53.0415 5.2614 53.4431 5.09079C53.8446 4.97704 54.3036 4.80643 54.8772 4.63581C55.4509 4.46519 56.0819 4.29458 56.8277 4.12396C57.5734 3.95334 58.3192 3.72586 59.237 3.61211C60.0975 3.4415 61.0153 3.32775 61.9906 3.15714C63.941 2.92965 66.1209 2.75903 68.4155 2.75903C70.7101 2.75903 72.8327 2.98652 74.8405 3.21401C75.8157 3.38463 76.7335 3.49837 77.594 3.72586C78.4545 3.89647 79.2576 4.06709 79.946 4.29458C80.6918 4.46519 81.3228 4.69268 81.8964 4.8633C82.4701 5.03391 82.929 5.20453 83.3306 5.31828C83.6748 5.43202 84.019 5.54576 84.2484 5.65951C84.3632 5.65951 84.4779 5.71638 84.4779 5.71638Z" fill="#263238"/>
<path d="M84.65 20.162C84.65 20.2188 77.5367 20.3326 68.7597 20.3326C59.9828 20.3326 52.8694 20.2757 52.8694 20.162C52.8694 20.0482 59.9828 19.9913 68.7597 19.9913C77.5367 19.9913 84.65 20.1051 84.65 20.162Z" fill="#263238"/>
<path d="M102.778 100.465H36.1187V147.441H102.778V100.465Z" fill="#E8505B"/>
<path d="M40.6505 144.029C40.5931 144.029 40.4784 135.669 40.4784 125.318C40.4784 114.967 40.5358 106.607 40.6505 106.607C40.7079 106.607 40.8226 114.967 40.8226 125.318C40.8226 135.612 40.7079 144.029 40.6505 144.029Z" fill="white"/>
<g clip-path="url(#clip0)">
<path d="M39.789 27.1804C39.6922 26.9837 39.4504 26.8853 39.257 26.8361C38.1446 26.8361 28.5687 26.4427 28.5687 15.1321C28.5687 14.7879 28.2785 14.4928 27.9399 14.4928C27.6014 14.4928 27.3112 14.7879 27.3112 15.1321C27.3112 26.4427 17.7353 26.8361 16.6713 26.8361C16.5262 26.8361 16.3811 26.8853 16.2844 26.9837C16.1876 27.0328 16.1393 27.1312 16.0909 27.1804C15.9942 27.3771 15.9942 27.623 16.0909 27.8197C16.1876 28.0164 16.4295 28.1639 16.6713 28.1639C16.6713 28.1639 16.6713 28.1639 16.7196 28.1639C17.832 28.1639 27.3596 28.5573 27.3596 39.868C27.3596 40.2122 27.6498 40.5073 27.9883 40.5073C28.3269 40.5073 28.617 40.2122 28.617 39.868C28.617 28.6065 38.1446 28.1639 39.257 28.1639C39.4988 28.1639 39.6922 28.0164 39.8373 27.8197C39.9341 27.623 39.9341 27.3771 39.789 27.1804ZM27.9399 35.0486C26.5374 30.3769 23.1036 28.3606 20.3953 27.4754C23.1036 26.5903 26.5374 24.574 27.9399 19.9022C29.3425 24.574 32.7763 26.5903 35.4846 27.4754C32.7763 28.3606 29.3425 30.3769 27.9399 35.0486Z" fill="black"/>
<path d="M19.9599 14.3945C20.2985 14.3945 20.5887 14.0994 20.5887 13.706C20.5887 13.3617 20.2985 13.0667 19.9599 13.0667C19.3796 13.0667 14.1563 12.87 14.1563 6.67372C14.1563 6.32948 13.8661 6.03442 13.5276 6.03442C13.1891 6.03442 12.8989 6.32948 12.8989 6.67372C12.8989 12.87 7.67564 13.0667 7.09528 13.0667C7.04691 13.0667 7.04691 13.0667 7.04691 13.0667C6.70837 13.1159 6.46655 13.3617 6.46655 13.706C6.46655 14.0502 6.75673 14.3453 7.09528 14.3453C7.724 14.3453 12.8989 14.542 12.8989 20.7382C12.8989 21.0825 13.1891 21.3775 13.5276 21.3775C13.8178 21.4267 14.108 21.1317 14.108 20.7874C14.108 14.5912 19.3312 14.3945 19.9116 14.3945H19.9599ZM13.4792 17.1975C12.7054 15.3288 11.3029 14.2961 9.99708 13.706C11.3996 13.1159 12.7054 11.9848 13.4792 10.2144C14.2531 12.0832 15.6556 13.1159 16.9614 13.706C15.5589 14.2961 14.2531 15.4272 13.4792 17.1975Z" fill="black"/>
<path d="M14.3982 35.2454C13.8178 35.2454 8.59457 35.0487 8.59457 28.8524C8.59457 28.5082 8.30439 28.2131 7.96584 28.2131C7.6273 28.2131 7.33712 28.5082 7.33712 28.8524C7.33712 35.0487 2.11387 35.2454 1.53351 35.2454C1.48515 35.2454 1.48515 35.2454 1.48515 35.2454C1.1466 35.2946 0.904785 35.5405 0.904785 35.8847C0.904785 36.2289 1.19497 36.524 1.53351 36.524C2.16223 36.524 7.33712 36.7207 7.33712 42.917C7.33712 43.2612 7.6273 43.5562 7.96584 43.5562C8.25602 43.6546 8.5462 43.3595 8.5462 42.9661C8.5462 36.7699 13.7695 36.5732 14.3498 36.5732H14.3982C14.7367 36.5732 15.0269 36.2781 15.0269 35.8847C15.0269 35.5405 14.7367 35.2454 14.3982 35.2454ZM7.91748 39.4254C7.0953 37.5567 5.74113 36.524 4.43531 35.9339C5.83785 35.3437 7.14366 34.2127 7.91748 32.4423C8.69129 34.311 10.0938 35.3437 11.3996 35.9339C9.99711 36.524 8.69129 37.6551 7.91748 39.4254Z" fill="black"/>
</g>
<g clip-path="url(#clip1)">
<path d="M111.236 41.6911C111.574 41.6911 111.864 41.396 111.864 41.0026C111.864 40.6584 111.574 40.3633 111.236 40.3633C110.655 40.3633 105.432 40.1666 105.432 33.9704C105.432 33.6261 105.142 33.3311 104.803 33.3311C104.465 33.3311 104.175 33.6261 104.175 33.9704C104.175 40.1666 98.9514 40.3633 98.371 40.3633C98.3227 40.3633 98.3227 40.3633 98.3227 40.3633C97.9841 40.4125 97.7423 40.6584 97.7423 41.0026C97.7423 41.3468 98.0325 41.6419 98.371 41.6419C98.9998 41.6419 104.175 41.8386 104.175 48.0349C104.175 48.3791 104.465 48.6742 104.803 48.6742C105.094 48.7233 105.384 48.4283 105.384 48.084C105.384 41.8878 110.607 41.6911 111.187 41.6911H111.236ZM104.755 44.4942C103.981 42.6254 102.579 41.5927 101.273 41.0026C102.675 40.4125 103.981 39.2814 104.755 37.5111C105.529 39.3798 106.931 40.4125 108.237 41.0026C106.835 41.5927 105.529 42.7238 104.755 44.4942Z" fill="black"/>
</g>
<path d="M122.533 17.6646C122.436 17.4679 122.194 17.3696 122.001 17.3204C120.888 17.3204 111.312 16.927 111.312 5.61635C111.312 5.27211 111.022 4.97705 110.684 4.97705C110.345 4.97705 110.055 5.27211 110.055 5.61635C110.055 16.927 100.479 17.3204 99.4149 17.3204C99.2698 17.3204 99.1247 17.3696 99.028 17.4679C98.9312 17.5171 98.8829 17.6155 98.8345 17.6646C98.7378 17.8613 98.7378 18.1072 98.8345 18.3039C98.9312 18.5006 99.1731 18.6482 99.4149 18.6482C99.4149 18.6482 99.4149 18.6482 99.4632 18.6482C100.576 18.6482 110.103 19.0416 110.103 30.3522C110.103 30.6964 110.393 30.9915 110.732 30.9915C111.07 30.9915 111.361 30.6964 111.361 30.3522C111.361 19.0908 120.888 18.6482 122.001 18.6482C122.242 18.6482 122.436 18.5006 122.581 18.3039C122.678 18.1072 122.678 17.8613 122.533 17.6646ZM110.684 25.5329C109.281 20.8611 105.847 18.8449 103.139 17.9597C105.847 17.0745 109.281 15.0583 110.684 10.3865C112.086 15.0583 115.52 17.0745 118.228 17.9597C115.52 18.8449 112.086 20.8611 110.684 25.5329Z" fill="black"/>
<path d="M27.7333 83.1014C27.1529 83.1014 21.9296 82.9046 21.9296 76.7084C21.9296 76.3642 21.6395 76.0691 21.3009 76.0691C20.9624 76.0691 20.6722 76.3642 20.6722 76.7084C20.6722 82.9046 15.449 83.1014 14.8686 83.1014C14.8202 83.1014 14.8202 83.1014 14.8202 83.1014C14.4817 83.1505 14.2399 83.3964 14.2399 83.7406C14.2399 84.0849 14.53 84.3799 14.8686 84.3799C15.4973 84.3799 20.6722 84.5767 20.6722 90.7729C20.6722 91.1171 20.9624 91.4122 21.3009 91.4122C21.5911 91.5106 21.8813 91.2155 21.8813 90.8221C21.8813 84.6258 27.1045 84.4291 27.6849 84.4291H27.7333C28.0718 84.4291 28.362 84.1341 28.362 83.7406C28.362 83.3964 28.0718 83.1014 27.7333 83.1014ZM21.2526 87.2814C20.4304 85.4127 19.0762 84.3799 17.7704 83.7898C19.1729 83.1997 20.4787 82.0686 21.2526 80.2983C22.0264 82.167 23.4289 83.1997 24.7347 83.7898C23.3322 84.3799 22.0264 85.511 21.2526 87.2814Z" fill="black"/>
<path d="M123.579 124.141C122.999 124.141 117.776 123.944 117.776 117.748C117.776 117.403 117.486 117.108 117.147 117.108C116.809 117.108 116.518 117.403 116.518 117.748C116.518 123.944 111.295 124.141 110.715 124.141C110.666 124.141 110.666 124.141 110.666 124.141C110.328 124.19 110.086 124.436 110.086 124.78C110.086 125.124 110.376 125.419 110.715 125.419C111.344 125.419 116.518 125.616 116.518 131.812C116.518 132.156 116.809 132.452 117.147 132.452C117.437 132.55 117.727 132.255 117.727 131.861C117.727 125.665 122.951 125.468 123.531 125.468H123.579C123.918 125.468 124.208 125.173 124.208 124.78C124.208 124.436 123.918 124.141 123.579 124.141ZM117.099 128.321C116.277 126.452 114.922 125.419 113.617 124.829C115.019 124.239 116.325 123.108 117.099 121.338C117.873 123.206 119.275 124.239 120.581 124.829C119.178 125.419 117.873 126.55 117.099 128.321Z" fill="black"/>
<path d="M22.4507 181.172C21.8704 181.172 16.6471 180.975 16.6471 174.779C16.6471 174.435 16.3569 174.14 16.0184 174.14C15.6799 174.14 15.3897 174.435 15.3897 174.779C15.3897 180.975 10.1664 181.172 9.58606 181.172C9.5377 181.172 9.5377 181.172 9.5377 181.172C9.19915 181.221 8.95734 181.467 8.95734 181.811C8.95734 182.155 9.24752 182.45 9.58606 182.45C10.2148 182.45 15.3897 182.647 15.3897 188.843C15.3897 189.188 15.6799 189.483 16.0184 189.483C16.3086 189.581 16.5988 189.286 16.5988 188.893C16.5988 182.696 21.822 182.5 22.4024 182.5H22.4507C22.7893 182.5 23.0795 182.204 23.0795 181.811C23.0795 181.467 22.7893 181.172 22.4507 181.172ZM15.97 185.352C15.1479 183.483 13.7937 182.45 12.4879 181.86C13.8904 181.27 15.1962 180.139 15.97 178.369C16.7438 180.237 18.1464 181.27 19.4522 181.86C18.0497 182.45 16.7438 183.581 15.97 185.352Z" fill="black"/>
<defs>
<clipPath id="clip0">
<rect width="39" height="39.6558" fill="white" transform="translate(0.904785 4.97705)"/>
</clipPath>
<clipPath id="clip1">
<rect width="39" height="39.6558" fill="white" transform="translate(89.5835 33.3311)"/>
</clipPath>
</defs>
</svg>
