<svg width="122" height="241" viewBox="0 0 122 241" fill="none" xmlns="http://www.w3.org/2000/svg">
<path d="M96.9151 54.7612L77.6976 35.4247V28.4294H78.0991C78.6728 28.4294 79.2464 28.0313 79.3612 27.4626C79.4759 26.7233 78.9023 26.0408 78.1565 26.0408H77.6402V20.183L51.5388 20.3536V25.9839H51.0225C50.4489 25.9839 49.8752 26.382 49.7605 26.9508C49.6458 27.6901 50.2194 28.3726 50.9652 28.3726H51.5388V35.1403L32.7229 55.9555C30.8298 58.0598 29.7972 60.7896 29.7972 63.5764V68.4105C29.7972 70.0598 30.4283 71.6522 31.6329 72.7896V163.614C31.6329 164.126 31.7477 164.638 31.9771 165.15C32.264 165.946 32.2066 166.799 31.805 167.538C31.4608 168.221 31.2314 168.96 31.2314 169.7L30.9446 195.974C30.9446 197.339 31.0593 198.704 31.4609 200.012L31.2314 218.78C31.174 221.851 31.5182 224.865 32.3213 227.823C33.7555 233.226 36.968 240.05 44.2534 240.05H49.2442C50.7357 240.05 52.1125 239.368 53.0303 238.174L54.1776 236.695C54.866 235.785 56.3002 236.012 56.7017 237.093C57.3901 239.027 59.2832 240.278 61.291 240.221L72.8215 240.05C74.0262 240.05 75.0014 239.197 75.3456 238.06C75.7471 236.922 77.296 236.752 77.927 237.775L78.6154 238.799C79.1891 239.652 80.1069 240.164 81.0821 240.164H86.6466C90.2033 240.164 93.5305 238.23 95.2515 235.159C95.3088 235.102 95.3088 235.046 95.3662 234.989C97.3166 231.349 98.2918 227.254 98.2918 223.159V202.174C97.3166 200.809 97.3166 198.989 98.2918 197.624V168.335C97.2593 167.311 97.2019 165.662 98.1771 164.581L98.2918 164.467V133.813V72.164L98.4066 72.0503C99.5539 70.9129 100.242 69.3204 100.242 67.6711V62.7802C100.242 59.8228 99.0376 56.9223 96.9151 54.7612Z" fill="#F5F5F5"/>
<path d="M88.0807 58.003C92.0389 57.0931 95.9398 59.9935 95.9972 64.0315V64.0883V68.5244C95.9972 70.003 95.4235 71.4817 94.3909 72.5054L94.2762 72.6191V128.979V156.96L94.1615 157.074C93.301 158.041 93.3583 159.577 94.2762 160.486V187.216C93.4157 188.468 93.4157 190.117 94.2762 191.368V210.534C94.2762 214.287 93.4157 218.041 91.6947 221.34C91.6947 221.396 91.6374 221.453 91.6374 221.51C90.1459 224.354 87.2202 226.06 84.0651 226.06H79.1317L71.7315 225.946L61.5204 226.117L50.8504 225.946H46.4332C40.0083 225.946 37.14 219.747 35.878 214.799C35.1896 212.126 34.9027 209.34 34.9601 206.553L35.1896 189.434C34.8454 188.24 34.7306 186.989 34.7306 185.738L35.0175 161.738C35.0175 161.055 35.1896 160.373 35.5338 159.747C35.878 159.065 35.9353 158.268 35.6485 157.529C35.4764 157.074 35.3617 156.619 35.3617 156.164V73.3016C34.3291 72.221 33.7554 70.7992 33.7554 69.3206V64.8845V64.8277C33.7554 60.9604 36.6237 57.6618 40.4672 56.8087C44.4254 55.9556 50.793 55.1594 57.0459 56.8087C67.3143 59.4817 67.4864 60.9604 74.8292 60.3348C78.9022 59.9367 84.2372 58.8561 88.0807 58.003Z" fill="#E8505B"/>
<path opacity="0.5" d="M88.0807 58.003C92.0389 57.0931 95.9398 59.9935 95.9972 64.0315V64.0883V68.5244C95.9972 70.003 95.4235 71.4817 94.3909 72.5054L94.2762 72.6191V128.979V156.96L94.1615 157.074C93.301 158.041 93.3583 159.577 94.2762 160.486V187.216C93.4157 188.468 93.4157 190.117 94.2762 191.368V210.534C94.2762 214.287 93.4157 218.041 91.6947 221.34C91.6947 221.396 91.6374 221.453 91.6374 221.51C90.1459 224.354 87.2202 226.06 84.0651 226.06H79.1317L71.7315 225.946L61.5204 226.117L50.8504 225.946H46.4332C40.0083 225.946 37.14 219.747 35.878 214.799C35.1896 212.126 34.9027 209.34 34.9601 206.553L35.1896 189.434C34.8454 188.24 34.7306 186.989 34.7306 185.738L35.0175 161.738C35.0175 161.055 35.1896 160.373 35.5338 159.747C35.878 159.065 35.9353 158.268 35.6485 157.529C35.4764 157.074 35.3617 156.619 35.3617 156.164V73.3016C34.3291 72.221 33.7554 70.7992 33.7554 69.3206V64.8845V64.8277C33.7554 60.9604 36.6237 57.6618 40.4672 56.8087C44.4254 55.9556 50.793 55.1594 57.0459 56.8087C67.3143 59.4817 67.4864 60.9604 74.8292 60.3348C78.9022 59.9367 84.2372 58.8561 88.0807 58.003Z" fill="white"/>
<path d="M98.9802 72.8466C98.9802 72.9035 83.9504 73.0173 65.3639 73.0173C46.7774 73.0173 31.7476 72.9604 31.7476 72.8466C31.7476 72.7898 46.7774 72.676 65.3639 72.676C83.893 72.676 98.9802 72.7329 98.9802 72.8466Z" fill="#263238"/>
<path d="M35.4191 111.804C38.6315 105.093 45.0565 99.9174 52.3993 98.2113C59.2832 96.6189 66.7407 97.87 73.3378 95.2539C80.2216 92.5241 84.7535 86.0975 88.3102 79.671C89.687 77.1686 91.4079 74.3819 94.2762 74.0406C93.5305 76.0312 94.7352 78.4198 93.7599 80.2397C93.4157 80.8653 92.8421 81.3772 92.3258 81.8321C88.1955 85.6994 85.4993 90.761 83.1473 95.8795C81.7132 99.0075 80.279 102.363 77.5828 104.581C75.6324 106.173 73.1657 107.083 70.6989 107.538C64.3314 108.676 57.5048 107.14 51.4815 109.415C46.8348 111.121 43.2782 114.932 40.8114 119.197C38.3447 123.462 36.9679 128.183 35.5338 132.903" fill="white"/>
<path d="M96.0545 65.9081C96.0545 66.0787 95.022 66.1924 93.301 66.9318C91.58 67.6711 89.3428 69.2066 87.1629 71.7659C86.0729 73.0171 84.983 74.4957 83.893 76.145C82.8031 77.7943 81.7131 79.6142 80.4511 81.5479C79.189 83.4247 77.7549 85.4152 75.8618 87.1213C74.0261 88.8844 71.7315 90.3062 69.2074 91.273C66.6833 92.2398 64.0445 92.6948 61.4631 92.6948C58.939 92.6379 56.587 92.2398 54.4071 92.2398C50.0473 92.1829 46.1464 93.491 43.2208 95.0834C41.7293 95.8796 40.5246 96.7327 39.492 97.5858C38.4594 98.382 37.6563 99.2351 36.9679 99.8607C35.7059 101.226 35.0748 102.079 34.9601 102.022C34.9027 101.965 35.0175 101.737 35.2469 101.282C35.4764 100.828 35.878 100.202 36.4516 99.4057C37.0826 98.6664 37.8284 97.7564 38.861 96.8465C39.8936 95.8796 41.0982 94.9128 42.6471 94.0597C45.6301 92.2967 49.7031 90.7611 54.4071 90.7043C56.7591 90.7043 59.1111 91.0455 61.4631 91.0455C63.815 91.0455 66.2818 90.5905 68.5764 89.6806C70.9284 88.7706 72.9936 87.4626 74.7145 85.8701C76.4355 84.2777 77.8696 82.4578 79.1317 80.6379C80.3937 78.818 81.541 76.9981 82.6883 75.3488C83.8357 73.6995 84.983 72.164 86.245 70.9128C88.6544 68.3536 91.1785 66.8749 93.0142 66.3062C94.9646 65.7374 96.0545 65.8512 96.0545 65.9081Z" fill="white"/>
<path d="M35.1323 188.069C37.5416 185.681 41.3278 185.226 44.7123 185.624C48.0969 186.022 51.4241 187.102 54.8087 187.102C59.5127 187.102 64.2167 184.998 67.3144 181.472C68.4617 180.164 69.3796 178.685 70.5269 177.32C73.3378 174.022 77.3534 171.747 81.6558 171.008C83.6063 170.666 85.6141 170.666 87.3924 169.927C91.1212 168.448 93.0142 164.467 94.6205 160.827C94.391 166.799 94.1042 172.714 93.8747 178.685C87.5071 177.491 81.4837 181.586 76.4929 185.681C71.5021 189.775 66.1097 194.382 59.6274 194.382C56.1855 194.382 52.8009 193.074 49.359 193.188C42.8766 193.415 37.7137 198.477 33.3539 203.197" fill="white"/>
<path d="M96.0545 160.486C96.0545 160.6 95.0793 160.657 93.4157 161.112C92.5552 161.283 91.58 161.681 90.4327 162.136C89.3427 162.647 88.0807 163.33 86.8186 164.183C85.5566 165.036 84.1798 166.06 82.8604 167.254C81.4836 168.448 80.1068 169.813 78.6153 171.292C77.1238 172.771 75.575 174.306 73.7966 175.785C72.0183 177.264 70.0679 178.685 67.8306 179.823C65.5933 180.96 63.184 181.586 60.832 181.813C58.48 182.041 56.2427 181.984 54.1776 181.927C52.1124 181.813 50.1046 181.7 48.2689 181.7C46.4332 181.7 44.7696 181.813 43.2207 182.041C41.7292 182.268 40.3524 182.61 39.2051 183.065C38.0578 183.52 37.14 184.031 36.4516 184.486C35.0174 185.453 34.3864 186.193 34.2717 186.136C34.2143 186.079 34.6732 185.169 36.05 183.975C36.7384 183.406 37.6563 182.78 38.8609 182.211C40.0082 181.643 41.4424 181.188 42.9913 180.903C44.5975 180.562 46.3185 180.392 48.2115 180.335C50.1046 180.278 52.1124 180.392 54.1776 180.448C56.2427 180.505 58.4226 180.505 60.6025 180.278C62.7824 180.05 64.9623 179.425 67.0275 178.401C69.0926 177.377 70.9857 176.012 72.6493 174.647C74.3703 173.226 75.9192 171.747 77.4107 170.325C78.9022 168.903 80.3937 167.539 81.8278 166.344C83.262 165.15 84.6961 164.126 86.0729 163.33C87.4497 162.477 88.7691 161.851 89.9737 161.453C91.1784 161.055 92.2684 160.771 93.1288 160.657C95.0793 160.202 96.0545 160.373 96.0545 160.486Z" fill="white"/>
<path d="M34.9601 217.472C41.7293 221.51 50.621 220.316 57.6196 216.733C64.6182 213.15 70.24 207.406 76.0913 202.117C81.9426 196.827 88.3102 191.709 95.9972 189.832C95.3088 188.922 94.9072 187.785 94.8499 186.647C86.0156 190.515 76.9518 194.496 70.1827 201.32C67.8307 203.652 65.8229 206.325 63.184 208.429C60.66 210.42 57.7343 211.728 54.7513 212.865C48.7853 215.197 42.3029 216.96 35.9354 216.107C35.4191 216.05 34.8454 215.993 34.5012 216.391C34.157 216.79 34.7307 217.529 35.0749 217.131" fill="white"/>
<path d="M85.0978 154.515C85.0978 155.481 84.2947 156.278 83.3195 156.278C82.3443 156.278 81.5411 155.481 81.5411 154.515C81.5411 153.548 82.3443 152.752 83.3195 152.752C84.2947 152.752 85.0978 153.548 85.0978 154.515Z" fill="white"/>
<path d="M76.3782 158.211C76.3782 158.723 75.9766 159.064 75.5177 159.064C75.0014 159.064 74.6572 158.666 74.6572 158.211C74.6572 157.7 75.0588 157.358 75.5177 157.358C76.034 157.358 76.3782 157.756 76.3782 158.211Z" fill="white"/>
<path d="M56.3002 207.007C56.7755 207.007 57.1607 206.626 57.1607 206.154C57.1607 205.683 56.7755 205.301 56.3002 205.301C55.825 205.301 55.4398 205.683 55.4398 206.154C55.4398 206.626 55.825 207.007 56.3002 207.007Z" fill="white"/>
<path d="M98.2918 168.79C98.2918 168.847 83.2046 168.96 64.6182 168.96C46.0317 168.96 30.9445 168.903 30.9445 168.79C30.9445 168.676 46.0317 168.619 64.6182 168.619C83.2046 168.676 98.2918 168.733 98.2918 168.79Z" fill="#263238"/>
<path d="M98.1198 198.193C98.1198 198.249 83.09 198.363 64.5035 198.363C45.917 198.363 30.8872 198.306 30.8872 198.193C30.8872 198.136 45.917 198.022 64.5035 198.022C83.09 198.079 98.1198 198.136 98.1198 198.193Z" fill="#263238"/>
<path d="M98.5213 202.572C98.5213 202.629 83.4914 202.742 64.905 202.742C46.3185 202.742 31.2887 202.685 31.2887 202.572C31.2887 202.515 46.3185 202.401 64.905 202.401C83.4914 202.401 98.5213 202.458 98.5213 202.572Z" fill="#263238"/>
<path d="M98.2918 164.297C98.2918 164.354 83.4341 164.467 65.0771 164.467C46.7201 164.467 31.8624 164.411 31.8624 164.297C31.8624 164.24 46.7201 164.126 65.0771 164.126C83.3767 164.126 98.2918 164.183 98.2918 164.297Z" fill="#263238"/>
<path d="M60.0289 240.221C60.0289 240.221 59.8568 240.221 59.5126 240.05C59.2258 239.937 58.7669 239.652 58.3653 239.254C57.4475 238.401 56.7017 236.979 55.8412 235.387C54.9807 233.794 54.1776 232.373 53.604 231.349C53.0303 230.325 52.7435 229.643 52.7435 229.643C52.7435 229.643 53.145 230.211 53.7761 231.235C54.3497 232.259 55.2102 233.681 56.0707 235.216C56.9312 236.752 57.6769 238.23 58.48 239.083C59.2832 239.993 60.0289 240.164 60.0289 240.221Z" fill="#263238"/>
<path d="M78.7875 229.529C78.8448 229.529 78.7301 230.041 78.5007 230.78C78.2712 231.577 77.927 232.6 77.4681 233.795C77.0092 234.932 76.5502 235.956 76.206 236.695C75.8618 237.434 75.6324 237.889 75.575 237.833C75.5177 237.833 75.6897 237.321 76.0339 236.581C76.3781 235.728 76.7797 234.761 77.1813 233.624C77.5828 232.543 77.9844 231.52 78.2712 230.667C78.558 229.984 78.7301 229.529 78.7875 229.529Z" fill="#263238"/>
<path d="M98.1197 209.283C98.1197 209.283 98.0624 209.339 97.9476 209.396C97.8329 209.51 97.7182 209.624 97.4887 209.738C97.0871 210.022 96.5135 210.477 95.7677 211.046C94.2762 212.183 92.039 213.776 89.1133 215.482C87.6792 216.335 86.0156 217.245 84.2372 218.098C82.4015 218.951 80.4511 219.747 78.2712 220.316C73.9114 221.453 68.8632 221.851 63.7577 220.657C61.2336 220.088 58.8242 219.065 56.7591 217.813C54.6939 216.562 52.8582 215.027 51.1373 213.548C49.4736 212.069 47.8674 210.648 46.3759 209.396C44.827 208.145 43.3355 207.065 41.9014 206.212C38.9757 204.448 36.3369 203.709 34.4438 203.539C33.526 203.482 32.7802 203.482 32.2639 203.482C32.0345 203.482 31.8624 203.539 31.6903 203.539C31.5756 203.539 31.5182 203.539 31.5182 203.539C31.5182 203.539 31.5756 203.539 31.6903 203.482C31.805 203.482 32.0345 203.425 32.2639 203.425C32.7802 203.368 33.526 203.368 34.4438 203.425C36.3369 203.595 39.0905 204.278 42.0161 206.041C43.5076 206.894 44.9991 207.975 46.548 209.226C48.0969 210.477 49.6457 211.899 51.3667 213.377C53.0303 214.856 54.866 216.335 56.9312 217.586C58.9963 218.837 61.3483 219.804 63.8724 220.373C68.9206 221.51 73.9114 221.169 78.2138 220.031C80.3937 219.463 82.3442 218.667 84.1799 217.87C85.9582 217.017 87.6218 216.164 89.056 215.311C91.9816 213.605 94.2189 212.012 95.7677 210.932C96.5135 210.363 97.0871 209.965 97.5461 209.624C97.7182 209.51 97.8903 209.396 98.005 209.283C98.0624 209.339 98.1197 209.283 98.1197 209.283Z" fill="#263238"/>
<path d="M98.2918 208.6C98.2918 208.6 98.2344 208.657 98.1771 208.714C98.0623 208.828 97.9476 208.941 97.7755 209.055C97.6034 209.226 97.374 209.396 97.0871 209.624C96.8003 209.851 96.4561 210.079 96.1119 210.363C94.6204 211.501 92.3831 212.979 89.4001 214.572C87.9086 215.368 86.245 216.107 84.4093 216.847C82.5736 217.586 80.5658 218.268 78.3859 218.723C77.8123 218.837 77.296 218.951 76.7223 219.008C76.4355 219.065 76.1487 219.065 75.8618 219.122C75.575 219.122 75.2882 219.122 75.0014 219.122C73.854 219.122 72.6494 219.065 71.4447 219.008C69.0353 218.837 66.5112 218.553 64.0445 217.87C61.5778 217.188 59.2832 216.107 57.3901 214.572C55.497 213.093 53.8908 211.387 52.3419 209.795C50.793 208.259 49.2442 206.837 47.5806 205.813C45.917 204.733 44.2534 203.994 42.6471 203.539C39.492 202.572 36.7384 202.458 34.8454 202.572C34.3865 202.572 33.9849 202.629 33.5833 202.686C33.2391 202.742 32.9523 202.742 32.6655 202.799C32.436 202.856 32.2639 202.856 32.0918 202.913C31.9771 202.913 31.9197 202.913 31.9197 202.913C31.9197 202.913 32.895 202.629 34.788 202.458C36.6237 202.287 39.4346 202.344 42.6471 203.311C44.2534 203.823 45.9743 204.562 47.6379 205.586C49.3015 206.61 50.9078 208.031 52.4566 209.624C54.0055 211.159 55.6118 212.866 57.4475 214.344C59.3405 215.823 61.5778 216.904 64.0445 217.586C66.5112 218.268 68.978 218.553 71.3873 218.723C72.592 218.78 73.7393 218.837 74.944 218.837C75.2308 218.837 75.5176 218.837 75.8045 218.837C76.0913 218.837 76.3781 218.78 76.665 218.723C77.2386 218.667 77.7549 218.553 78.3286 218.439C80.5084 217.984 82.4589 217.302 84.2946 216.619C86.1303 215.88 87.7939 215.14 89.228 214.344C92.211 212.809 94.4483 211.33 95.9398 210.249C96.3414 209.965 96.6282 209.738 96.915 209.51C97.2019 209.283 97.4313 209.112 97.6034 208.941C97.7755 208.828 97.9476 208.714 98.0623 208.6C98.2344 208.657 98.2918 208.6 98.2918 208.6Z" fill="#263238"/>
<path d="M98.2344 72.5622C98.2344 72.6191 83.3767 72.7328 65.0197 72.7328C46.6627 72.7328 31.805 72.676 31.805 72.5622C31.805 72.5053 46.6627 72.3916 65.0197 72.3916C83.3767 72.3916 98.2344 72.4485 98.2344 72.5622Z" fill="#263238"/>
<path d="M88.3675 46.0601C88.3675 46.0601 88.1954 46.1738 87.8512 46.4013C87.507 46.6288 87.0481 46.97 86.417 47.4819C85.8434 47.9937 85.155 48.6193 84.2945 49.3586C83.434 50.0411 82.4014 50.8373 81.1968 51.5198C78.7874 52.8847 75.5749 53.9653 71.9035 54.4202C68.2321 54.8752 64.1592 54.5909 59.9715 53.8515C57.8489 53.5103 55.8411 52.9984 53.8907 52.6003C51.9403 52.2022 50.0472 51.9748 48.2115 51.9179C44.5401 51.861 41.2703 52.5435 38.6314 53.4534C36.05 54.3634 33.9848 55.3871 32.8375 56.4108C32.2638 56.9226 31.8623 57.3776 31.5755 57.662C31.346 58.0032 31.2313 58.1738 31.2313 58.1738C31.2313 58.1738 31.2886 57.9463 31.5181 57.662C31.7476 57.3207 32.1491 56.8658 32.7228 56.3539C33.9275 55.3302 35.9352 54.2496 38.5741 53.3397C41.2129 52.4297 44.4827 51.6904 48.2115 51.7473C50.0472 51.7473 51.9976 52.0316 53.9481 52.4297C55.8985 52.8278 57.9063 53.2828 60.0288 53.6809C64.2165 54.4203 68.2321 54.7046 71.9035 54.3065C75.5176 53.9084 78.73 52.8278 81.1394 51.5198C83.6061 50.2117 85.155 48.5624 86.3597 47.6525C86.9907 47.1406 87.4496 46.8563 87.7938 46.6288C87.9659 46.515 88.0806 46.4582 88.1954 46.4013C88.3101 46.1169 88.3675 46.0601 88.3675 46.0601Z" fill="#263238"/>
<path d="M87.3349 44.8657C87.3349 44.8657 87.3349 44.9225 87.2775 44.9794C87.2201 45.0931 87.1054 45.2069 86.9907 45.3206C86.7612 45.605 86.417 46.06 85.9007 46.6287C84.9255 47.7093 83.434 49.3017 81.1968 50.7804C78.9595 52.2022 75.8617 53.2827 72.3051 53.3965C68.7484 53.5671 64.9049 52.8277 61.0614 51.5197C59.1683 50.8941 57.2753 50.1548 55.4969 49.6429C53.6612 49.1311 51.8829 48.733 50.1046 48.733C48.3836 48.6761 46.72 48.9604 45.2285 49.3586C43.737 49.7567 42.3602 50.1548 41.0982 50.6097C38.6314 51.5197 36.7384 52.5434 35.419 53.2827C34.7879 53.624 34.329 53.9652 34.0422 54.2495C33.7554 54.5339 33.6406 54.7045 33.6406 54.7045C33.6406 54.7045 33.7554 54.5339 33.9848 54.2495C34.2716 53.9652 34.7306 53.624 35.3616 53.2259C36.6236 52.4865 38.5167 51.4059 40.9834 50.496C42.2455 50.041 43.6222 49.586 45.1138 49.1879C46.6053 48.7898 48.2689 48.5055 50.0472 48.5623C51.8255 48.5623 53.6612 48.9604 55.4969 49.4723C57.3326 49.9841 59.1683 50.6666 61.1188 51.3491C64.9049 52.6571 68.7484 53.3965 72.2477 53.2259C75.747 53.169 78.7874 52.0884 81.0247 50.7235C83.2619 49.3017 84.7534 47.7661 85.7286 46.6856C86.2449 46.1168 86.5891 45.7187 86.8759 45.4344C86.9907 45.3206 87.1054 45.2069 87.1628 45.0931C87.2775 44.8657 87.3349 44.8657 87.3349 44.8657Z" fill="#263238"/>
<path d="M96.915 54.7616C96.915 54.7616 97.2019 55.0459 97.7181 55.6715C98.2344 56.2971 98.9228 57.3208 99.4965 58.7995C99.7833 59.5388 100.013 60.3919 100.128 61.4156C100.242 62.3824 100.185 63.463 100.242 64.6573C100.242 65.226 100.242 65.8516 100.242 66.4772C100.242 67.1028 100.3 67.7853 100.185 68.4109C100.013 69.7758 99.3818 71.1407 98.2918 72.2213V72.1644C98.2918 90.8753 98.3492 123.179 98.3492 164.581V164.638L98.2918 164.695C97.8329 165.15 97.5461 165.776 97.5461 166.458C97.5461 167.141 97.7755 167.88 98.2918 168.392L98.3492 168.449V168.506C98.3492 177.776 98.3492 187.615 98.3492 197.795V197.852V197.909C97.9476 198.477 97.6608 199.217 97.6608 200.013C97.6608 200.809 97.8902 201.605 98.3492 202.288V202.345V202.401C98.3492 208.316 98.3492 214.401 98.3492 220.6C98.3492 222.136 98.4065 223.728 98.2918 225.321C98.1771 226.913 97.9476 228.449 97.4887 230.041C97.0871 231.577 96.5135 233.112 95.8251 234.534C95.4809 235.273 95.0793 235.956 94.563 236.638C94.0467 237.321 93.4731 237.89 92.8421 238.401C91.5227 239.425 89.9738 240.108 88.3102 240.392C87.5071 240.563 86.6466 240.563 85.7861 240.563C84.983 240.563 84.1225 240.563 83.3194 240.563C82.4589 240.563 81.6558 240.563 80.7953 240.563C79.9348 240.506 79.0743 240.051 78.558 239.368C78.2712 239.027 78.0991 238.686 77.8696 238.288C77.7549 238.117 77.6402 237.946 77.5254 237.833C77.3533 237.719 77.2386 237.605 77.0092 237.548C76.665 237.435 76.206 237.491 75.9192 237.719C75.7471 237.833 75.6324 237.946 75.5176 238.117C75.4029 238.288 75.3456 238.458 75.2882 238.686C74.944 239.482 74.1982 240.164 73.3377 240.335C72.8788 240.449 72.4773 240.392 72.0183 240.449H70.7563C69.0353 240.449 67.3144 240.506 65.5934 240.506C64.7329 240.506 63.8724 240.506 63.0119 240.563H61.6925C61.291 240.563 60.832 240.563 60.3731 240.506C59.5126 240.392 58.6521 239.994 57.9637 239.482C57.2754 238.913 56.7017 238.174 56.4149 237.321L56.5296 237.435L56.4149 237.321C56.2428 236.923 55.8986 236.582 55.497 236.525C55.0955 236.411 54.5792 236.582 54.2923 236.866C54.0055 237.207 53.7187 237.605 53.3745 238.003C53.0877 238.401 52.8008 238.8 52.3993 239.141C51.6535 239.823 50.6783 240.221 49.7031 240.392C49.1868 240.449 48.7279 240.449 48.2116 240.449H46.7201C45.7449 240.449 44.7696 240.449 43.7371 240.449C43.2208 240.392 42.7619 240.449 42.2456 240.278L41.4998 240.164C41.2703 240.108 41.0409 239.994 40.754 239.937C38.8036 239.368 37.1974 238.06 35.878 236.525C34.5586 234.989 33.6407 233.169 32.9523 231.292C32.2639 229.416 31.6903 227.482 31.3461 225.491C31.0019 223.501 30.8298 221.454 30.8298 219.463C30.8298 217.416 30.8872 215.425 30.8872 213.378C30.9445 208.942 31.0019 204.563 31.0593 200.24V200.297C30.6577 198.875 30.543 197.397 30.543 195.918C30.543 194.439 30.6003 193.018 30.6003 191.539C30.6577 188.638 30.6577 185.738 30.7151 182.894C30.7724 180.051 30.7724 177.15 30.8298 174.307C30.8298 172.885 30.8872 171.463 30.8872 170.041C30.8872 169.302 31.0019 168.563 31.3461 167.937C31.5182 167.596 31.6903 167.311 31.7476 166.97C31.805 166.629 31.8624 166.288 31.805 165.946C31.7476 165.605 31.6329 165.321 31.5182 164.98C31.4034 164.638 31.3461 164.297 31.2887 163.899C31.2887 163.217 31.2887 162.477 31.2887 161.795C31.2887 160.373 31.2887 159.008 31.2887 157.586C31.2887 154.799 31.2887 152.07 31.2887 149.283C31.2887 143.766 31.2887 138.363 31.2887 133.018C31.2887 111.634 31.2887 91.444 31.2887 72.8469L31.3461 72.9606C30.6003 72.2213 30.0267 71.2545 29.7398 70.2308C29.5677 69.7189 29.5104 69.2071 29.5104 68.6952C29.5104 68.1834 29.5104 67.6715 29.5104 67.1597C29.5104 66.136 29.5104 65.1123 29.5104 64.0886C29.5104 63.0649 29.5677 62.0412 29.7972 61.0744C30.2561 59.0838 31.2887 57.2639 32.6081 55.7853C33.9275 54.3066 35.2469 52.8848 36.509 51.463C41.6719 45.7758 46.6053 40.3161 51.252 35.1407V35.1976C51.252 32.7521 51.252 30.5341 51.252 28.4298L51.3667 28.5436C51.1372 28.5436 50.9078 28.5436 50.6783 28.5436C50.4488 28.5436 50.2194 28.4298 50.0473 28.3161C49.6457 28.0317 49.4736 27.5767 49.4736 27.1786C49.4736 26.7236 49.7605 26.3255 50.162 26.1549C50.3341 26.0412 50.5636 25.9843 50.793 25.9843H51.3667L51.252 26.0981C51.252 24.0507 51.252 22.2308 51.252 20.4677V20.354H51.3667C61.2336 20.2971 69.8384 20.2402 77.4681 20.2402H77.5254V20.2971C77.5254 22.572 77.5254 24.335 77.5254 26.0981L77.4681 26.0412C77.6975 26.0412 77.927 26.0412 78.1565 26.0412C78.3859 26.0981 78.6154 26.1549 78.7875 26.3255C79.1317 26.6099 79.3038 27.0649 79.2464 27.463C79.189 27.8611 78.9022 28.2023 78.558 28.3729C78.3859 28.4867 78.2138 28.4867 78.0417 28.5436C77.8696 28.5436 77.6975 28.5436 77.5254 28.5436L77.5828 28.4867C77.5828 31.2734 77.5828 33.4345 77.5828 35.4819V35.4251C83.8357 41.7379 88.6544 46.572 91.8669 49.8706C93.4731 51.5199 94.7351 52.771 95.5383 53.5673C96.5135 54.3635 96.915 54.7616 96.915 54.7616C96.915 54.7616 96.5135 54.3635 95.653 53.5104C94.8499 52.6573 93.5878 51.463 91.9816 49.8137C88.7117 46.572 83.893 41.7379 77.6402 35.4251C77.6402 33.3777 77.6402 31.2165 77.6402 28.4298V28.3729H77.6975C78.0417 28.3729 78.3859 28.4298 78.7301 28.2023C79.017 28.0317 79.3038 27.7473 79.3038 27.4061C79.3611 27.0649 79.2464 26.6668 78.9022 26.3824C78.7301 26.2687 78.558 26.1549 78.3286 26.1549C78.1565 26.0981 77.8696 26.1549 77.6402 26.1549H77.5828V26.0981C77.5828 24.335 77.5828 22.572 77.5828 20.2971L77.6402 20.354C70.0105 20.4108 61.4057 20.4677 51.5388 20.5246L51.6535 20.4108C51.6535 22.1739 51.6535 23.9938 51.6535 26.0412V26.1549H51.5388C51.1372 26.1549 50.7357 26.0981 50.4488 26.3255C50.1046 26.4962 49.8752 26.8374 49.8752 27.1786C49.8178 27.5767 50.0473 27.918 50.3341 28.1454C50.6783 28.3729 51.0799 28.3161 51.5388 28.3161H51.6535V28.4298C51.6535 30.5909 51.6535 32.7521 51.6535 35.1976V35.2545V35.3113C47.0069 40.4867 42.0735 45.8895 36.9106 51.6336C35.5911 53.0554 34.3291 54.5341 33.0097 55.9559C31.6903 57.3777 30.7151 59.1976 30.2561 61.1312C30.0267 62.0981 29.9693 63.1218 29.9693 64.0886C29.9693 65.1123 29.9693 66.136 29.9693 67.1597C29.9693 68.1834 29.9119 69.2071 30.1988 70.2308C30.4856 71.1976 31.0019 72.1075 31.7476 72.8469L31.805 72.9037V72.9606C31.805 91.5009 31.805 111.69 31.805 133.131C31.805 138.477 31.805 143.88 31.805 149.397C31.805 152.127 31.805 154.913 31.805 157.7C31.805 159.065 31.805 160.487 31.805 161.909C31.805 162.591 31.805 163.33 31.805 164.013C31.805 164.354 31.9197 164.695 31.9771 164.98C32.0918 165.321 32.2066 165.662 32.2639 166.003C32.3213 166.345 32.2639 166.743 32.2066 167.084C32.1492 167.425 31.9197 167.766 31.805 168.108C31.5182 168.733 31.4034 169.416 31.4034 170.098C31.4034 171.52 31.3461 172.942 31.3461 174.363C31.2887 177.207 31.2887 180.051 31.2313 182.951C31.174 185.795 31.174 188.695 31.1166 191.596C31.1166 193.018 31.0593 194.496 31.0593 195.975C31.0593 197.397 31.174 198.875 31.5182 200.297C31.4608 204.619 31.4034 208.999 31.3461 213.435C31.3461 215.482 31.2887 217.473 31.2887 219.52C31.2887 221.51 31.4608 223.558 31.805 225.491C32.1492 227.482 32.6655 229.416 33.3539 231.236C34.0996 233.055 35.0175 234.875 36.2795 236.354C37.5416 237.833 39.1478 239.084 40.9835 239.71C42.8192 240.335 44.827 240.164 46.7774 240.221H48.269C48.7852 240.221 49.2442 240.221 49.7031 240.164C50.6209 240.051 51.5388 239.653 52.2272 239.027C52.5714 238.743 52.8582 238.345 53.145 237.946C53.4319 237.548 53.7187 237.207 54.0629 236.809C54.4644 236.411 55.0381 236.24 55.5544 236.411C56.0707 236.525 56.5296 236.923 56.7017 237.378L56.587 237.264L56.7017 237.378C56.9885 238.174 57.5048 238.856 58.1358 239.368C58.7669 239.88 59.57 240.221 60.4305 240.335C60.832 240.392 61.291 240.392 61.6925 240.392H63.0119C63.8724 240.392 64.7329 240.392 65.5934 240.335C67.3144 240.335 69.0353 240.278 70.7563 240.278H72.0183C72.4199 240.278 72.8788 240.278 73.2804 240.221C74.0835 240.051 74.7145 239.425 75.0587 238.686C75.1734 238.515 75.1734 238.288 75.3455 238.117C75.4603 237.89 75.6324 237.719 75.8045 237.605C76.206 237.321 76.665 237.264 77.1239 237.378C77.3533 237.435 77.5828 237.548 77.7549 237.719C77.927 237.89 78.0417 238.06 78.1565 238.231C78.3859 238.572 78.6154 238.97 78.8448 239.254C79.3038 239.88 80.1069 240.278 80.91 240.335C81.7705 240.335 82.5736 240.335 83.3767 240.335C84.2372 240.335 85.0403 240.335 85.8435 240.335C86.7039 240.335 87.5071 240.335 88.3102 240.164C89.9164 239.88 91.4079 239.198 92.67 238.231C93.301 237.719 93.8746 237.15 94.3336 236.525C94.7925 235.899 95.1941 235.16 95.5383 234.477C96.2266 233.055 96.8003 231.52 97.2019 230.041C97.6034 228.506 97.8903 226.97 97.9476 225.378C98.0624 223.842 98.005 222.25 98.005 220.714C98.005 214.515 98.005 208.43 98.005 202.515V202.572C97.4887 201.833 97.2592 200.98 97.2592 200.127C97.2592 199.273 97.5461 198.477 98.005 197.852V197.909C98.005 187.728 98.005 177.89 98.005 168.619L98.0623 168.676C97.4887 168.108 97.2019 167.311 97.2019 166.572C97.2019 165.833 97.5461 165.093 98.0623 164.638L98.005 164.695C98.0623 123.349 98.0623 91.0459 98.0623 72.2782C99.1523 71.2545 99.7833 69.8327 99.9554 68.5246C100.013 67.8421 100.013 67.2165 100.013 66.591C100.013 65.9654 100.013 65.3398 100.013 64.7711C100.013 63.5767 100.07 62.4962 99.9554 61.5293C99.8407 60.5625 99.6112 59.7094 99.3244 58.9701C98.7507 57.4914 98.0623 56.4677 97.5461 55.8421C97.3166 55.5009 97.0871 55.2734 96.9724 55.1597C96.9724 54.8753 96.915 54.7616 96.915 54.7616Z" fill="#263238"/>
<path d="M77.7549 25.8704C77.7549 25.9273 71.9036 26.041 64.6756 26.0979C57.4475 26.1548 51.5962 26.0979 51.5962 26.041C51.5962 25.9842 57.4475 25.8704 64.6756 25.8135C71.9036 25.7567 77.7549 25.7567 77.7549 25.8704Z" fill="#263238"/>
<path d="M78.386 28.3725C78.386 28.4294 72.3626 28.5431 65.0198 28.5431C57.6196 28.5431 51.5962 28.4863 51.5962 28.3725C51.5962 28.3156 57.6196 28.2019 65.0198 28.2019C72.4199 28.2588 78.386 28.3156 78.386 28.3725Z" fill="#263238"/>
<path d="M77.6402 30.4768C77.6402 30.5336 71.7889 30.6474 64.6182 30.6474C57.4475 30.6474 51.5962 30.5905 51.5962 30.4768C51.5962 30.363 57.4475 30.3062 64.6182 30.3062C71.8463 30.3062 77.6402 30.363 77.6402 30.4768Z" fill="#263238"/>
<path d="M77.6402 32.5242C77.6402 32.5811 71.7889 32.6948 64.6182 32.6948C57.4475 32.6948 51.5962 32.6379 51.5962 32.5242C51.5962 32.4673 57.4475 32.3536 64.6182 32.3536C71.8463 32.3536 77.6402 32.4105 77.6402 32.5242Z" fill="#263238"/>
<path d="M51.5961 28.4294C51.9977 29.1118 52.6861 29.5668 53.4318 29.7943C54.1776 30.0218 54.9807 30.0218 55.7838 30.0787C62.6104 30.2493 69.4369 29.9649 76.206 29.2825C76.7797 29.2256 77.4107 29.055 77.5828 28.5431C76.4928 28.4863 75.4029 28.4863 74.3129 28.4863C67.8306 28.4863 61.2909 28.4863 54.8086 28.5431C53.6039 28.5431 52.4566 28.5431 51.252 28.5431" fill="#E0E0E0"/>
<path d="M47.0643 24.2208V4.54306C47.0643 4.54306 46.8922 0.562012 64.8476 0.562012C81.1968 0.562012 81.1395 5.16865 81.1395 5.16865V24.2208H47.0643Z" fill="#E8505B"/>
<path d="M49.3016 20.2967C49.2442 20.2967 49.1295 16.8844 49.1295 12.7327C49.1295 8.58108 49.1869 5.16876 49.3016 5.16876C49.359 5.16876 49.4737 8.58108 49.4737 12.7327C49.4737 16.9413 49.4163 20.2967 49.3016 20.2967Z" fill="#263238"/>
<path d="M52.342 20.2966C52.2847 20.2966 52.1699 16.7137 52.1699 12.3345C52.1699 7.8985 52.2273 4.37244 52.342 4.37244C52.3994 4.37244 52.5141 7.95538 52.5141 12.3345C52.5141 16.7137 52.4568 20.2966 52.342 20.2966Z" fill="#263238"/>
<path d="M55.325 20.2965C55.2676 20.2965 55.1529 16.5998 55.1529 11.9932C55.1529 7.44344 55.2103 3.68988 55.325 3.68988C55.4397 3.68988 55.4971 7.38657 55.4971 11.9932C55.4397 16.5998 55.3823 20.2965 55.325 20.2965Z" fill="#263238"/>
<path d="M58.2506 20.2968C58.1932 20.2968 58.0785 16.4863 58.0785 11.8228C58.0785 7.15931 58.1359 3.34888 58.2506 3.34888C58.308 3.34888 58.4227 7.15931 58.4227 11.8228C58.3653 16.4863 58.308 20.2968 58.2506 20.2968Z" fill="#263238"/>
<path d="M61.1762 20.2968C61.1189 20.2968 61.0042 16.4863 61.0042 11.8228C61.0042 7.15931 61.0615 3.34888 61.1762 3.34888C61.291 3.34888 61.3483 7.15931 61.3483 11.8228C61.291 16.4863 61.2336 20.2968 61.1762 20.2968Z" fill="#263238"/>
<path d="M64.102 20.2968C64.0446 20.2968 63.9299 16.4863 63.9299 11.8228C63.9299 7.15931 63.9872 3.34888 64.102 3.34888C64.2167 3.34888 64.2741 7.15931 64.2741 11.8228C64.2741 16.4863 64.1593 20.2968 64.102 20.2968Z" fill="#263238"/>
<path d="M67.0276 20.2968C66.9703 20.2968 66.8555 16.4863 66.8555 11.8228C66.8555 7.15931 66.9129 3.34888 67.0276 3.34888C67.085 3.34888 67.1997 7.15931 67.1997 11.8228C67.1997 16.4863 67.1424 20.2968 67.0276 20.2968Z" fill="#263238"/>
<path d="M69.9532 20.2968C69.8959 20.2968 69.7811 16.4863 69.7811 11.8228C69.7811 7.15931 69.8385 3.34888 69.9532 3.34888C70.0106 3.34888 70.1253 7.15931 70.1253 11.8228C70.1253 16.4863 70.0679 20.2968 69.9532 20.2968Z" fill="#263238"/>
<path d="M72.8789 20.2966C72.8215 20.2966 72.7068 16.6568 72.7068 12.107C72.7068 7.55723 72.7641 3.91742 72.8789 3.91742C72.9936 3.91742 73.051 7.55723 73.051 12.107C73.051 16.6568 72.9936 20.2966 72.8789 20.2966Z" fill="#263238"/>
<path d="M75.8619 20.2967C75.8046 20.2967 75.6898 16.7706 75.6898 12.4483C75.6898 8.12604 75.7472 4.59998 75.8619 4.59998C75.9193 4.59998 76.034 8.12604 76.034 12.4483C75.9767 16.7706 75.9193 20.2967 75.8619 20.2967Z" fill="#263238"/>
<path d="M78.7875 20.2967C78.7301 20.2967 78.6154 16.9982 78.6154 12.9034C78.6154 8.80859 78.6728 5.51001 78.7875 5.51001C78.8449 5.51001 78.9596 8.80859 78.9596 12.9034C78.9022 16.9982 78.8449 20.2967 78.7875 20.2967Z" fill="#263238"/>
<path d="M79.9922 5.90803C79.9922 5.90803 79.8774 5.90803 79.648 5.85116C79.4185 5.79429 79.1317 5.68054 78.7301 5.5668C78.3286 5.45305 77.8697 5.28244 77.296 5.11182C76.7224 4.94121 76.0913 4.77059 75.3456 4.59997C74.5998 4.42936 73.8541 4.25874 72.9936 4.08812C72.1331 3.91751 71.2152 3.80376 70.24 3.63315C68.2896 3.40566 66.1671 3.17817 63.8724 3.17817C61.6352 3.17817 59.4553 3.34879 57.5048 3.57628C56.5296 3.69002 55.6118 3.80376 54.7513 3.97438C53.8908 4.08812 53.0877 4.31561 52.3993 4.48623C51.6536 4.65684 51.0225 4.82746 50.4489 4.99808C49.8752 5.16869 49.4163 5.28244 49.0147 5.39618C48.6132 5.50993 48.3263 5.62367 48.0969 5.68054C47.8674 5.73741 47.7527 5.73741 47.7527 5.73741C47.7527 5.73741 47.8674 5.68054 48.0395 5.62367C48.269 5.5668 48.5558 5.45305 48.9574 5.28244C49.3589 5.16869 49.8179 4.99808 50.3915 4.82746C50.9652 4.65684 51.5962 4.48623 52.3419 4.31561C53.0877 4.145 53.8334 3.91751 54.7513 3.80376C55.6118 3.63315 56.5296 3.5194 57.5048 3.34879C59.4553 3.1213 61.6352 2.95068 63.9298 2.95068C66.2244 2.95068 68.347 3.17817 70.3548 3.40566C71.33 3.57628 72.2478 3.69002 73.1083 3.91751C73.9688 4.08812 74.7719 4.25874 75.4603 4.48623C76.2061 4.65684 76.8371 4.88433 77.4107 5.05495C77.9844 5.22556 78.4433 5.39618 78.8449 5.50993C79.1891 5.62367 79.5333 5.73741 79.7627 5.85116C79.8775 5.85116 79.9922 5.90803 79.9922 5.90803Z" fill="#263238"/>
<path d="M80.1643 20.3536C80.1643 20.4105 73.051 20.5242 64.274 20.5242C55.4971 20.5242 48.3837 20.4673 48.3837 20.3536C48.3837 20.2399 55.4971 20.183 64.274 20.183C73.051 20.183 80.1643 20.2967 80.1643 20.3536Z" fill="#263238"/>
<path d="M98.2918 100.657H31.6329V147.633H98.2918V100.657Z" fill="#E8505B"/>
<path d="M36.1647 144.221C36.1073 144.221 35.9926 135.86 35.9926 125.51C35.9926 115.159 36.05 106.799 36.1647 106.799C36.2221 106.799 36.3368 115.159 36.3368 125.51C36.3368 135.804 36.2221 144.221 36.1647 144.221Z" fill="white"/>
<path d="M12.3761 25.8167L14.0045 26.5287C14.4462 25.7111 15.038 24.9825 15.7494 24.3803L14.6973 22.9546C14.5726 22.7879 14.5474 22.5678 14.6315 22.3777C14.7155 22.1877 14.8958 22.0568 15.104 22.0349C15.3122 22.0129 15.5162 22.1032 15.6387 22.2715L16.688 23.6934C17.4844 23.206 18.3642 22.8676 19.2838 22.6951L19.092 20.9433C19.068 20.7372 19.1573 20.5341 19.3259 20.4111C19.4946 20.2882 19.7167 20.2642 19.9081 20.3484C20.0994 20.4325 20.2306 20.6119 20.2519 20.8183L20.4448 22.5745C21.3798 22.5432 22.3125 22.6856 23.1946 22.9942L23.9128 21.3798C24.0428 21.0875 24.3871 20.9551 24.6819 21.084C24.9766 21.2129 25.1102 21.5542 24.9802 21.8465L24.2621 23.4609C25.0869 23.8985 25.8219 24.4853 26.4291 25.1908L27.8672 24.1478C28.0353 24.0241 28.2574 23.9992 28.4491 24.0825C28.6408 24.1658 28.7728 24.3446 28.7949 24.5509C28.8171 24.7573 28.726 24.9596 28.5563 25.0811L27.1223 26.1221C27.6139 26.9116 27.9552 27.7838 28.1292 28.6955L29.896 28.5047C30.1039 28.4809 30.3088 28.5694 30.4328 28.7365C30.5568 28.9037 30.5809 29.124 30.4961 29.3137C30.4112 29.5034 30.2303 29.6334 30.022 29.6545L28.2506 29.8458C28.2819 30.7727 28.1383 31.6973 27.8273 32.5719L29.4557 33.2839C29.7505 33.4128 29.8841 33.7541 29.7541 34.0464C29.6241 34.3386 29.2797 34.4711 28.985 34.3422L27.3565 33.6302C26.9149 34.4478 26.3231 35.1764 25.6116 35.7786L26.6637 37.2043C26.7885 37.371 26.8136 37.5911 26.7296 37.7812C26.6455 37.9713 26.4652 38.1021 26.257 38.1241C26.0489 38.146 25.8448 38.0557 25.7223 37.8875L24.673 36.4655C23.8767 36.9529 22.9968 37.2913 22.0773 37.4638L22.269 39.2156C22.293 39.4218 22.2037 39.6249 22.0351 39.7478C21.8665 39.8708 21.6443 39.8947 21.453 39.8105C21.2616 39.7264 21.1304 39.5471 21.1092 39.3406L20.9162 37.5844C19.9812 37.6157 19.0486 37.4734 18.1664 37.1647L17.4483 38.7792C17.3183 39.0714 16.9739 39.2038 16.6792 39.075C16.3844 38.9461 16.2508 38.6047 16.3808 38.3125L17.0989 36.698C16.2741 36.2604 15.5391 35.6737 14.9319 34.9681L13.4938 36.0112C13.3257 36.1349 13.1037 36.1598 12.912 36.0765C12.7202 35.9931 12.5882 35.8144 12.5661 35.608C12.5439 35.4016 12.635 35.1993 12.8047 35.0779L14.2388 34.0368C13.7471 33.2474 13.4058 32.3751 13.2318 31.4634L11.4651 31.6543C11.2571 31.6781 11.0523 31.5896 10.9283 31.4224C10.8042 31.2552 10.7801 31.035 10.865 30.8453C10.9499 30.6556 11.1308 30.5255 11.339 30.5044L13.1104 30.3131C13.0791 29.3862 13.2227 28.4616 13.5338 27.587L11.9053 26.875C11.6106 26.7462 11.477 26.4048 11.607 26.1125C11.737 25.8203 12.0813 25.6879 12.3761 25.8167ZM18.0914 35.9001C21.3339 37.3177 25.1217 35.8609 26.5516 32.6463C27.9816 29.4317 26.5122 25.6765 23.2696 24.2589C20.0271 22.8412 16.2393 24.298 14.8094 27.5126C13.384 30.7274 14.8521 34.4794 18.0914 35.9001Z" fill="black"/>
<path d="M23.0138 26.6096C23.9803 26.6096 24.7638 27.3864 24.7638 28.3446C24.7638 29.3027 23.9803 30.0795 23.0138 30.0795C22.0473 30.0795 21.2638 29.3027 21.2638 28.3446C21.2638 27.3864 22.0473 26.6096 23.0138 26.6096ZM23.0138 28.9229C23.336 28.9229 23.5971 28.664 23.5971 28.3446C23.5971 28.0252 23.336 27.7662 23.0138 27.7662C22.6916 27.7662 22.4305 28.0252 22.4305 28.3446C22.4305 28.664 22.6916 28.9229 23.0138 28.9229Z" fill="black"/>
<path d="M18.3471 29.5013C19.6358 29.5013 20.6805 30.537 20.6805 31.8145C20.6805 33.0921 19.6358 34.1278 18.3471 34.1278C17.0585 34.1278 16.0138 33.0921 16.0138 31.8145C16.0138 30.537 17.0585 29.5013 18.3471 29.5013ZM18.3471 32.9712C18.9915 32.9712 19.5138 32.4533 19.5138 31.8145C19.5138 31.1758 18.9915 30.6579 18.3471 30.6579C17.7028 30.6579 17.1805 31.1758 17.1805 31.8145C17.1805 32.4533 17.7028 32.9712 18.3471 32.9712Z" fill="black"/>
<path d="M19.5138 27.188C19.1917 27.188 18.9305 26.9291 18.9305 26.6097C18.9305 26.2903 19.1917 26.0314 19.5138 26.0314C19.836 26.0314 20.0972 26.2903 20.0972 26.6097C20.0972 26.9291 19.836 27.188 19.5138 27.188Z" fill="black"/>
<path d="M23.0138 32.9711C22.6916 32.9711 22.4304 32.7122 22.4304 32.3928C22.4304 32.0734 22.6916 31.8145 23.0138 31.8145C23.3359 31.8145 23.5971 32.0734 23.5971 32.3928C23.5971 32.7122 23.3359 32.9711 23.0138 32.9711Z" fill="black"/>
<path d="M19.514 81.7135H17.7342C17.6628 82.6382 17.4179 83.5416 17.012 84.3772L18.555 85.2609C18.7369 85.3634 18.8495 85.5548 18.85 85.7623C18.8504 85.9699 18.7387 86.1617 18.5572 86.2651C18.3757 86.3684 18.1522 86.3675 17.9716 86.2625L16.4328 85.3812C15.9025 86.1457 15.2352 86.8073 14.464 87.333L15.3525 88.8591C15.4583 89.0382 15.4593 89.2597 15.3551 89.4397C15.2508 89.6196 15.0573 89.7304 14.8479 89.7299C14.6386 89.7295 14.4456 89.6179 14.3421 89.4375L13.4508 87.9078C12.608 88.3105 11.6968 88.5533 10.764 88.6238V90.3882C10.764 90.7076 10.5028 90.9665 10.1806 90.9665C9.85846 90.9665 9.59729 90.7076 9.59729 90.3882V88.6238C8.66448 88.5533 7.75321 88.3105 6.91045 87.9078L6.01912 89.4375C5.91566 89.6179 5.72263 89.7295 5.5133 89.7299C5.30398 89.7304 5.11045 89.6196 5.00619 89.4397C4.90193 89.2597 4.90292 89.0382 5.00879 88.8591L5.8972 87.333C5.12602 86.8073 4.45872 86.1457 3.92845 85.3812L2.38962 86.2625C2.20904 86.3675 1.98557 86.3684 1.80406 86.2651C1.62255 86.1617 1.51081 85.9699 1.51127 85.7623C1.51173 85.5548 1.62432 85.3634 1.80629 85.2609L3.3492 84.3772C2.94334 83.5416 2.69842 82.6382 2.62704 81.7135H0.847286C0.52512 81.7135 0.263954 81.4546 0.263954 81.1352C0.263954 80.8158 0.52512 80.5569 0.847286 80.5569H2.62704C2.69842 79.6321 2.94334 78.7287 3.3492 77.8931L1.80629 77.0095C1.62432 76.9069 1.51173 76.7155 1.51127 76.508C1.51081 76.3005 1.62255 76.1086 1.80406 76.0053C1.98557 75.9019 2.20904 75.9029 2.38962 76.0078L3.92845 76.8892C4.45872 76.1246 5.12602 75.4631 5.8972 74.9374L5.00879 73.4112C4.90292 73.2322 4.90193 73.0106 5.00619 72.8307C5.11045 72.6507 5.30398 72.54 5.5133 72.5404C5.72263 72.5409 5.91566 72.6525 6.01912 72.8329L6.91045 74.3625C7.75321 73.9599 8.66448 73.7171 9.59729 73.6466V71.8821C9.59729 71.5628 9.85846 71.3038 10.1806 71.3038C10.5028 71.3038 10.764 71.5628 10.764 71.8821V73.6466C11.6968 73.7171 12.608 73.9599 13.4508 74.3625L14.3421 72.8329C14.4456 72.6525 14.6386 72.5409 14.8479 72.5404C15.0573 72.54 15.2508 72.6507 15.3551 72.8307C15.4593 73.0106 15.4583 73.2322 15.3525 73.4112L14.464 74.9374C15.2352 75.4631 15.9025 76.1246 16.4328 76.8892L17.9716 76.0078C18.1522 75.9029 18.3757 75.9019 18.5572 76.0053C18.7387 76.1086 18.8504 76.3005 18.85 76.508C18.8495 76.7155 18.7369 76.9069 18.555 77.0095L17.012 77.8931C17.4179 78.7287 17.6628 79.6321 17.7342 80.5569H19.514C19.8361 80.5569 20.0973 80.8158 20.0973 81.1352C20.0973 81.4546 19.8361 81.7135 19.514 81.7135ZM10.1806 74.7737C6.63679 74.7737 3.76395 77.6218 3.76395 81.1352C3.76395 84.6485 6.63679 87.4966 10.1806 87.4966C13.7244 87.4966 16.5973 84.6485 16.5973 81.1352C16.5931 77.6236 13.7227 74.7779 10.1806 74.7737Z" fill="black"/>
<path d="M12.514 81.1355C11.5475 81.1355 10.764 80.3588 10.764 79.4006C10.764 78.4424 11.5475 77.6656 12.514 77.6656C13.4805 77.6656 14.264 78.4424 14.264 79.4006C14.264 80.3588 13.4805 81.1355 12.514 81.1355ZM12.514 78.8223C12.1918 78.8223 11.9306 79.0812 11.9306 79.4006C11.9306 79.72 12.1918 79.9789 12.514 79.9789C12.8361 79.9789 13.0973 79.72 13.0973 79.4006C13.0973 79.0812 12.8361 78.8223 12.514 78.8223Z" fill="black"/>
<path d="M7.84727 85.1836C6.5586 85.1836 5.51393 84.1479 5.51393 82.8703C5.51393 81.5927 6.5586 80.5571 7.84727 80.5571C9.13593 80.5571 10.1806 81.5927 10.1806 82.8703C10.1806 84.1479 9.13593 85.1836 7.84727 85.1836ZM7.84727 81.7137C7.20293 81.7137 6.6806 82.2315 6.6806 82.8703C6.6806 83.5091 7.20293 84.027 7.84727 84.027C8.4916 84.027 9.01393 83.5091 9.01393 82.8703C9.01393 82.2315 8.4916 81.7137 7.84727 81.7137Z" fill="black"/>
<path d="M9.01396 78.2438C8.69179 78.2438 8.43062 77.9849 8.43062 77.6655C8.43062 77.3461 8.69179 77.0872 9.01396 77.0872C9.33612 77.0872 9.59729 77.3461 9.59729 77.6655C9.59729 77.9849 9.33612 78.2438 9.01396 78.2438Z" fill="black"/>
<path d="M12.514 84.0271C12.1918 84.0271 11.9306 83.7682 11.9306 83.4488C11.9306 83.1294 12.1918 82.8705 12.514 82.8705C12.8361 82.8705 13.0973 83.1294 13.0973 83.4488C13.0973 83.7682 12.8361 84.0271 12.514 84.0271Z" fill="black"/>
<path d="M106.246 18.9177H104.861C104.805 19.6376 104.615 20.3409 104.299 20.9914L105.5 21.6794C105.641 21.7592 105.729 21.9082 105.729 22.0698C105.73 22.2314 105.643 22.3807 105.501 22.4612C105.36 22.5417 105.186 22.5409 105.046 22.4592L103.848 21.773C103.435 22.3682 102.915 22.8833 102.315 23.2925L103.007 24.4807C103.089 24.6201 103.09 24.7925 103.009 24.9326C102.927 25.0727 102.777 25.159 102.614 25.1586C102.451 25.1583 102.301 25.0714 102.22 24.9309L101.526 23.7401C100.87 24.0535 100.161 24.2426 99.4343 24.2975V25.6711C99.4343 25.9197 99.231 26.1213 98.9802 26.1213C98.7294 26.1213 98.5261 25.9197 98.5261 25.6711V24.2975C97.7999 24.2426 97.0904 24.0535 96.4343 23.7401L95.7404 24.9309C95.6599 25.0714 95.5096 25.1583 95.3466 25.1586C95.1837 25.159 95.033 25.0727 94.9518 24.9326C94.8707 24.7925 94.8714 24.6201 94.9538 24.4807L95.6455 23.2925C95.0451 22.8833 94.5256 22.3682 94.1128 21.773L92.9148 22.4592C92.7742 22.5409 92.6002 22.5417 92.4589 22.4612C92.3176 22.3807 92.2306 22.2314 92.231 22.0698C92.2313 21.9082 92.319 21.7592 92.4607 21.6794L93.6618 20.9914C93.3459 20.3409 93.1552 19.6376 93.0996 18.9177H91.7141C91.4632 18.9177 91.2599 18.7161 91.2599 18.4675C91.2599 18.2188 91.4632 18.0173 91.7141 18.0173H93.0996C93.1552 17.2973 93.3459 16.594 93.6618 15.9435L92.4607 15.2556C92.319 15.1757 92.2313 15.0267 92.231 14.8652C92.2306 14.7036 92.3176 14.5543 92.4589 14.4738C92.6002 14.3933 92.7742 14.3941 92.9148 14.4758L94.1128 15.1619C94.5256 14.5667 95.0451 14.0517 95.6455 13.6424L94.9538 12.4543C94.8714 12.3149 94.8707 12.1424 94.9518 12.0023C95.033 11.8622 95.1837 11.776 95.3466 11.7764C95.5096 11.7767 95.6599 11.8636 95.7404 12.0041L96.4343 13.1949C97.0904 12.8814 97.7999 12.6924 98.5261 12.6375V11.2639C98.5261 11.0152 98.7294 10.8137 98.9802 10.8137C99.231 10.8137 99.4343 11.0152 99.4343 11.2639V12.6375C100.161 12.6924 100.87 12.8814 101.526 13.1949L102.22 12.0041C102.301 11.8636 102.451 11.7767 102.614 11.7764C102.777 11.776 102.927 11.8622 103.009 12.0023C103.09 12.1424 103.089 12.3149 103.007 12.4543L102.315 13.6424C102.915 14.0517 103.435 14.5667 103.848 15.1619L105.046 14.4758C105.186 14.3941 105.36 14.3933 105.501 14.4738C105.643 14.5543 105.73 14.7036 105.729 14.8652C105.729 15.0267 105.641 15.1757 105.5 15.2556L104.299 15.9435C104.615 16.594 104.805 17.2973 104.861 18.0173H106.246C106.497 18.0173 106.7 18.2188 106.7 18.4675C106.7 18.7161 106.497 18.9177 106.246 18.9177ZM98.9802 13.515C96.2213 13.515 93.9847 15.7323 93.9847 18.4675C93.9847 21.2027 96.2213 23.42 98.9802 23.42C101.739 23.42 103.976 21.2027 103.976 18.4675C103.972 15.7336 101.738 13.5182 98.9802 13.515Z" fill="black"/>
<path d="M100.797 18.4678C100.044 18.4678 99.4344 17.863 99.4344 17.1171C99.4344 16.3711 100.044 15.7664 100.797 15.7664C101.549 15.7664 102.159 16.3711 102.159 17.1171C102.159 17.863 101.549 18.4678 100.797 18.4678ZM100.797 16.6669C100.546 16.6669 100.343 16.8684 100.343 17.1171C100.343 17.3657 100.546 17.5673 100.797 17.5673C101.048 17.5673 101.251 17.3657 101.251 17.1171C101.251 16.8684 101.048 16.6669 100.797 16.6669Z" fill="black"/>
<path d="M97.1636 21.619C96.1604 21.619 95.3471 20.8127 95.3471 19.8181C95.3471 18.8234 96.1604 18.0172 97.1636 18.0172C98.1669 18.0172 98.9802 18.8234 98.9802 19.8181C98.9802 20.8127 98.1669 21.619 97.1636 21.619ZM97.1636 18.9176C96.662 18.9176 96.2554 19.3207 96.2554 19.8181C96.2554 20.3154 96.662 20.7185 97.1636 20.7185C97.6653 20.7185 98.0719 20.3154 98.0719 19.8181C98.0719 19.3207 97.6653 18.9176 97.1636 18.9176Z" fill="black"/>
<path d="M98.0719 16.2162C97.8211 16.2162 97.6177 16.0146 97.6177 15.766C97.6177 15.5173 97.8211 15.3157 98.0719 15.3157C98.3227 15.3157 98.526 15.5173 98.526 15.766C98.526 16.0146 98.3227 16.2162 98.0719 16.2162Z" fill="black"/>
<path d="M100.797 20.7189C100.546 20.7189 100.343 20.5173 100.343 20.2686C100.343 20.02 100.546 19.8184 100.797 19.8184C101.048 19.8184 101.251 20.02 101.251 20.2686C101.251 20.5173 101.048 20.7189 100.797 20.7189Z" fill="black"/>
<path d="M22.355 135.117H21.5148C21.4811 135.554 21.3655 135.98 21.1739 136.375L21.9023 136.792C21.9882 136.84 22.0414 136.93 22.0416 137.028C22.0418 137.126 21.989 137.217 21.9033 137.266C21.8177 137.315 21.7122 137.314 21.6269 137.265L20.9004 136.849C20.6501 137.209 20.335 137.522 19.971 137.77L20.3904 138.49C20.4404 138.575 20.4408 138.68 20.3916 138.765C20.3424 138.849 20.251 138.902 20.1522 138.902C20.0534 138.901 19.9622 138.849 19.9134 138.763L19.4926 138.041C19.0947 138.231 18.6645 138.346 18.2241 138.379V139.212C18.2241 139.363 18.1008 139.485 17.9487 139.485C17.7967 139.485 17.6734 139.363 17.6734 139.212V138.379C17.233 138.346 16.8028 138.231 16.4049 138.041L15.9841 138.763C15.9353 138.849 15.8441 138.901 15.7453 138.902C15.6465 138.902 15.5551 138.849 15.5059 138.765C15.4567 138.68 15.4571 138.575 15.5071 138.49L15.9265 137.77C15.5625 137.522 15.2474 137.209 14.9971 136.849L14.2706 137.265C14.1853 137.314 14.0798 137.315 13.9942 137.266C13.9085 137.217 13.8557 137.126 13.8559 137.028C13.8561 136.93 13.9093 136.84 13.9952 136.792L14.7236 136.375C14.532 135.98 14.4164 135.554 14.3827 135.117H13.5425C13.3904 135.117 13.2671 134.995 13.2671 134.844C13.2671 134.693 13.3904 134.571 13.5425 134.571H14.3827C14.4164 134.134 14.532 133.708 14.7236 133.313L13.9952 132.896C13.9093 132.848 13.8561 132.757 13.8559 132.659C13.8557 132.562 13.9085 132.471 13.9942 132.422C14.0798 132.373 14.1853 132.374 14.2706 132.423L14.9971 132.839C15.2474 132.478 15.5625 132.166 15.9265 131.918L15.5071 131.197C15.4571 131.113 15.4567 131.008 15.5059 130.923C15.5551 130.838 15.6465 130.786 15.7453 130.786C15.8441 130.787 15.9353 130.839 15.9841 130.924L16.4049 131.647C16.8028 131.457 17.233 131.342 17.6734 131.309V130.476C17.6734 130.325 17.7967 130.203 17.9487 130.203C18.1008 130.203 18.2241 130.325 18.2241 130.476V131.309C18.6645 131.342 19.0947 131.457 19.4926 131.647L19.9134 130.924C19.9622 130.839 20.0534 130.787 20.1522 130.786C20.251 130.786 20.3424 130.838 20.3916 130.923C20.4408 131.008 20.4404 131.113 20.3904 131.197L19.971 131.918C20.335 132.166 20.6501 132.478 20.9004 132.839L21.6269 132.423C21.7122 132.374 21.8177 132.373 21.9033 132.422C21.989 132.471 22.0418 132.562 22.0416 132.659C22.0414 132.757 21.9882 132.848 21.9023 132.896L21.1739 133.313C21.3655 133.708 21.4811 134.134 21.5148 134.571H22.355C22.5071 134.571 22.6304 134.693 22.6304 134.844C22.6304 134.995 22.5071 135.117 22.355 135.117ZM17.9487 131.841C16.2757 131.841 14.9194 133.185 14.9194 134.844C14.9194 136.503 16.2757 137.847 17.9487 137.847C19.6218 137.847 20.9781 136.503 20.9781 134.844C20.9761 133.186 19.621 131.843 17.9487 131.841Z" fill="black"/>
<path d="M19.0503 134.844C18.5941 134.844 18.2242 134.478 18.2242 134.025C18.2242 133.573 18.5941 133.206 19.0503 133.206C19.5066 133.206 19.8765 133.573 19.8765 134.025C19.8765 134.478 19.5066 134.844 19.0503 134.844ZM19.0503 133.752C18.8983 133.752 18.775 133.874 18.775 134.025C18.775 134.176 18.8983 134.298 19.0503 134.298C19.2024 134.298 19.3257 134.176 19.3257 134.025C19.3257 133.874 19.2024 133.752 19.0503 133.752Z" fill="black"/>
<path d="M16.8472 136.755C16.2388 136.755 15.7456 136.266 15.7456 135.663C15.7456 135.06 16.2388 134.571 16.8472 134.571C17.4555 134.571 17.9487 135.06 17.9487 135.663C17.9487 136.266 17.4555 136.755 16.8472 136.755ZM16.8472 135.117C16.543 135.117 16.2964 135.362 16.2964 135.663C16.2964 135.965 16.543 136.209 16.8472 136.209C17.1513 136.209 17.3979 135.965 17.3979 135.663C17.3979 135.362 17.1513 135.117 16.8472 135.117Z" fill="black"/>
<path d="M17.3979 133.479C17.2459 133.479 17.1226 133.357 17.1226 133.206C17.1226 133.055 17.2459 132.933 17.3979 132.933C17.55 132.933 17.6733 133.055 17.6733 133.206C17.6733 133.357 17.55 133.479 17.3979 133.479Z" fill="black"/>
<path d="M19.0504 136.209C18.8983 136.209 18.775 136.087 18.775 135.936C18.775 135.786 18.8983 135.663 19.0504 135.663C19.2024 135.663 19.3257 135.786 19.3257 135.936C19.3257 136.087 19.2024 136.209 19.0504 136.209Z" fill="black"/>
<path d="M120.733 69.2626H119.163C119.1 70.0784 118.884 70.8753 118.526 71.6125L119.887 72.392C120.048 72.4825 120.147 72.6513 120.148 72.8344C120.148 73.0175 120.049 73.1867 119.889 73.2779C119.729 73.3691 119.532 73.3682 119.373 73.2757L118.015 72.4982C117.547 73.1726 116.959 73.7562 116.278 74.22L117.062 75.5663C117.155 75.7243 117.156 75.9197 117.064 76.0785C116.972 76.2372 116.802 76.3349 116.617 76.3345C116.432 76.3341 116.262 76.2357 116.171 76.0765L115.385 74.7271C114.641 75.0823 113.837 75.2965 113.014 75.3587V76.9152C113.014 77.197 112.784 77.4254 112.5 77.4254C112.215 77.4254 111.985 77.197 111.985 76.9152V75.3587C111.162 75.2965 110.358 75.0823 109.615 74.7271L108.828 76.0765C108.737 76.2357 108.567 76.3341 108.382 76.3345C108.198 76.3349 108.027 76.2372 107.935 76.0785C107.843 75.9197 107.844 75.7243 107.937 75.5663L108.721 74.22C108.041 73.7562 107.452 73.1726 106.984 72.4982L105.627 73.2757C105.467 73.3682 105.27 73.3691 105.11 73.2779C104.95 73.1867 104.851 73.0175 104.852 72.8344C104.852 72.6513 104.952 72.4825 105.112 72.392L106.473 71.6125C106.115 70.8753 105.899 70.0784 105.836 69.2626H104.266C103.982 69.2626 103.751 69.0342 103.751 68.7525C103.751 68.4707 103.982 68.2423 104.266 68.2423H105.836C105.899 67.4265 106.115 66.6296 106.473 65.8924L105.112 65.1129C104.952 65.0224 104.852 64.8536 104.852 64.6705C104.851 64.4874 104.95 64.3182 105.11 64.227C105.27 64.1358 105.467 64.1367 105.627 64.2293L106.984 65.0068C107.452 64.3323 108.041 63.7487 108.721 63.2849L107.937 61.9386C107.844 61.7807 107.843 61.5852 107.935 61.4265C108.027 61.2677 108.198 61.17 108.382 61.1704C108.567 61.1708 108.737 61.2693 108.828 61.4284L109.615 62.7778C110.358 62.4226 111.162 62.2084 111.985 62.1462V60.5897C111.985 60.3079 112.215 60.0795 112.5 60.0795C112.784 60.0795 113.014 60.3079 113.014 60.5897V62.1462C113.837 62.2084 114.641 62.4226 115.385 62.7778L116.171 61.4284C116.262 61.2693 116.432 61.1708 116.617 61.1704C116.802 61.17 116.972 61.2677 117.064 61.4265C117.156 61.5852 117.155 61.7807 117.062 61.9386L116.278 63.2849C116.959 63.7487 117.547 64.3323 118.015 65.0068L119.373 64.2293C119.532 64.1367 119.729 64.1358 119.889 64.227C120.049 64.3182 120.148 64.4874 120.148 64.6705C120.147 64.8536 120.048 65.0224 119.887 65.1129L118.526 65.8924C118.884 66.6296 119.1 67.4265 119.163 68.2423H120.733C121.017 68.2423 121.248 68.4707 121.248 68.7525C121.248 69.0342 121.017 69.2626 120.733 69.2626ZM112.5 63.1406C109.373 63.1406 106.839 65.6531 106.839 68.7525C106.839 71.8518 109.373 74.3644 112.5 74.3644C115.626 74.3644 118.16 71.8518 118.16 68.7525C118.157 65.6546 115.624 63.1442 112.5 63.1406Z" fill="black"/>
<path d="M114.558 68.753C113.706 68.753 113.014 68.0678 113.014 67.2225C113.014 66.3772 113.706 65.692 114.558 65.692C115.411 65.692 116.102 66.3772 116.102 67.2225C116.102 68.0678 115.411 68.753 114.558 68.753ZM114.558 66.7123C114.274 66.7123 114.044 66.9407 114.044 67.2225C114.044 67.5042 114.274 67.7326 114.558 67.7326C114.842 67.7326 115.073 67.5042 115.073 67.2225C115.073 66.9407 114.842 66.7123 114.558 66.7123Z" fill="black"/>
<path d="M110.441 72.3238C109.304 72.3238 108.383 71.4101 108.383 70.2831C108.383 69.156 109.304 68.2424 110.441 68.2424C111.578 68.2424 112.5 69.156 112.5 70.2831C112.5 71.4101 111.578 72.3238 110.441 72.3238ZM110.441 69.2627C109.873 69.2627 109.412 69.7195 109.412 70.2831C109.412 70.8466 109.873 71.3034 110.441 71.3034C111.01 71.3034 111.47 70.8466 111.47 70.2831C111.47 69.7195 111.01 69.2627 110.441 69.2627Z" fill="black"/>
<path d="M111.47 66.2016C111.186 66.2016 110.956 65.9732 110.956 65.6914C110.956 65.4097 111.186 65.1813 111.47 65.1813C111.755 65.1813 111.985 65.4097 111.985 65.6914C111.985 65.9732 111.755 66.2016 111.47 66.2016Z" fill="black"/>
<path d="M114.558 71.3038C114.274 71.3038 114.043 71.0754 114.043 70.7937C114.043 70.5119 114.274 70.2835 114.558 70.2835C114.842 70.2835 115.073 70.5119 115.073 70.7937C115.073 71.0754 114.842 71.3038 114.558 71.3038Z" fill="black"/>
</svg>
