<svg width="599" height="581" viewBox="0 0 599 581" fill="none" xmlns="http://www.w3.org/2000/svg">
<path d="M92.6665 208.498C114.649 179.413 137.985 183.641 154.05 190.574C170.114 197.507 180.936 215.262 179.922 232.849C179.584 237.414 178.569 242.318 180.598 246.546C183.642 253.31 192.435 255.339 197.508 260.75C204.441 268.19 202.919 280.027 200.552 290.004C198.184 299.981 195.648 311.311 201.566 319.597C206.978 327.206 217.124 329.404 225.579 333.463C236.739 338.874 245.701 348.851 248.914 360.857C252.127 372.863 249.253 386.391 240.967 395.522C232.85 404.484 220.506 408.374 208.5 410.065C173.665 415.138 136.801 403.977 110.76 380.303C84.7188 356.629 70.0072 320.949 71.8672 285.777" fill="#263238"/>
<path d="M155.233 191.927C155.233 192.096 152.189 191.588 147.455 192.434C142.72 193.11 136.294 195.309 129.192 197.676C122.09 200.212 115.326 201.565 110.422 201.227C107.885 201.058 106.025 200.72 104.672 200.212C103.32 199.874 102.643 199.536 102.643 199.367C102.643 199.198 105.518 200.382 110.422 200.551C115.326 200.72 121.921 199.198 128.854 196.83C135.787 194.294 142.382 192.265 147.285 191.757C149.653 191.419 151.682 191.419 153.035 191.588C154.557 191.588 155.233 191.757 155.233 191.927Z" fill="#455A64"/>
<path d="M205.963 422.579C206.809 425.115 224.395 507.974 224.395 507.974L357.814 559.211L350.374 578.657L236.063 568.681C169.269 558.704 165.549 525.898 169.607 489.373L176.54 426.637L205.963 422.579Z" fill="#FFBE9D"/>
<path d="M14.2043 378.936C27.9014 358.137 48.8697 346.131 67.978 339.536L138.154 344.609C138.154 344.609 161.828 341.227 180.936 360.335L187.531 534.169L203.596 579.826H36.5255L14.2043 378.936Z" fill="#E8505B"/>
<path d="M183.304 431.695C183.304 431.695 183.135 431.695 182.966 431.357C182.627 431.188 182.289 430.85 181.782 430.511C181.275 430.173 180.767 429.666 179.922 429.159C179.076 428.651 178.231 428.144 177.216 427.468C176.202 426.96 175.018 426.284 173.665 425.607C172.312 425.1 170.959 424.424 169.268 423.916C166.056 422.733 162.335 422.056 158.277 421.549C154.05 421.211 149.484 421.38 144.58 422.395C139.845 423.409 134.772 425.438 130.207 428.482C125.641 431.526 121.244 435.753 118.877 441.165C117.693 443.87 117.017 446.914 117.355 449.958C117.693 453.002 118.708 456.045 120.737 458.413C122.597 460.949 125.472 462.64 128.516 462.978C131.559 463.317 134.772 462.302 136.125 459.766C137.647 457.229 137.309 454.016 136.294 451.48C135.787 450.127 135.11 448.943 134.265 447.76C133.419 446.576 132.405 445.561 131.39 444.716C127.332 440.996 122.259 438.797 117.524 437.783C112.789 436.768 108.054 436.599 103.827 436.937C95.372 437.783 88.9463 439.981 84.3806 441.503C82.1823 442.179 80.4913 442.856 79.3076 443.194C78.8003 443.363 78.293 443.532 77.9548 443.701C77.6166 443.87 77.4475 443.87 77.4475 443.87C77.4475 443.87 77.6166 443.87 77.9548 443.701C78.293 443.532 78.8003 443.363 79.3076 443.194C80.4913 442.687 82.1823 442.01 84.3806 441.334C88.7772 439.812 95.372 437.444 103.827 436.43C108.054 435.923 112.789 436.092 117.693 437.106C122.597 438.121 127.67 440.319 131.898 444.208C132.405 444.716 132.912 445.223 133.419 445.73C133.927 446.238 134.434 446.745 134.772 447.421C135.618 448.605 136.294 449.958 136.801 451.311C137.816 454.016 138.323 457.398 136.632 460.273C135.787 461.626 134.434 462.809 133.081 463.317C131.559 463.993 129.868 464.162 128.346 463.824C125.134 463.486 122.09 461.626 120.061 458.92C118.031 456.384 116.848 453.171 116.509 449.958C116.171 446.745 116.848 443.532 118.2 440.657C120.737 434.908 125.134 430.68 129.868 427.637C134.603 424.593 139.676 422.564 144.58 421.549C149.484 420.535 154.219 420.365 158.446 420.873C162.674 421.38 166.394 422.056 169.607 423.409C171.298 423.917 172.65 424.593 174.003 425.269C175.356 425.946 176.371 426.622 177.385 427.129C178.4 427.806 179.245 428.313 179.922 428.82C180.598 429.328 181.275 429.835 181.782 430.342C182.289 430.68 182.627 431.019 182.796 431.188C183.304 431.526 183.304 431.695 183.304 431.695Z" fill="#FAFAFA"/>
<path d="M180.767 360.335L222.197 434.738L176.202 448.943L180.767 360.335Z" fill="#E8505B"/>
<path d="M186.347 534.676C186.347 534.676 186.347 534.169 186.178 533.323C186.178 532.309 186.009 531.125 186.009 529.603C185.84 526.221 185.671 521.655 185.333 515.906C184.826 504.238 184.318 488.174 183.811 470.587C183.304 452.832 182.965 436.768 182.796 425.1C182.796 419.35 182.796 414.616 182.796 411.403C182.796 409.881 182.796 408.528 182.796 407.682C182.796 406.837 182.796 406.33 182.796 406.33C182.796 406.33 182.796 406.837 182.965 407.682C182.965 408.697 182.966 409.881 183.135 411.403C183.135 414.785 183.304 419.35 183.473 425.1C183.811 436.768 184.149 452.832 184.656 470.418C185.164 488.174 185.671 504.069 186.009 515.737C186.178 521.486 186.347 526.221 186.347 529.434C186.347 530.956 186.347 532.309 186.347 533.154C186.347 534.338 186.347 534.676 186.347 534.676Z" fill="#263238"/>
<path d="M193.112 382.994C193.112 382.994 192.773 383.163 192.097 383.671C191.421 384.178 190.406 384.685 189.222 385.192C186.686 386.376 182.458 387.729 177.385 387.729C172.312 387.898 165.887 386.545 160.137 382.656C158.615 381.641 157.263 380.627 156.079 379.274C154.895 377.921 153.881 376.23 153.542 374.201C153.204 372.341 153.542 370.143 155.064 368.621C156.417 367.099 158.784 366.592 160.814 366.93C162.843 367.268 164.703 368.621 165.718 370.312C166.732 372.003 166.901 374.201 166.563 376.061C166.225 377.921 165.379 379.781 164.196 381.134C163.012 382.656 161.49 383.671 159.968 384.516C156.924 386.207 153.542 386.883 150.668 387.222C147.624 387.56 144.749 387.56 142.213 387.391C136.971 386.883 133.081 385.7 130.376 384.516C129.023 384.009 128.008 383.501 127.332 383.163C126.656 382.825 126.317 382.656 126.317 382.656C126.317 382.656 126.656 382.825 127.332 383.163C128.008 383.501 129.023 383.84 130.376 384.347C133.081 385.362 137.14 386.545 142.213 386.883C144.749 387.053 147.624 387.053 150.499 386.714C153.542 386.376 156.586 385.7 159.63 384.009C161.152 383.163 162.505 382.149 163.519 380.796C164.534 379.443 165.379 377.752 165.718 376.061C166.056 374.37 165.887 372.51 164.872 370.819C164.027 369.297 162.336 368.283 160.475 367.775C158.615 367.437 156.755 367.775 155.572 369.128C154.388 370.481 154.05 372.341 154.219 374.032C154.388 375.723 155.402 377.414 156.417 378.598C157.601 379.95 158.954 380.965 160.306 381.98C165.887 385.869 172.143 387.053 177.047 387.053C182.12 387.053 186.179 385.869 188.884 384.854C191.59 383.84 192.943 382.825 193.112 382.994Z" fill="#FAFAFA"/>
<path d="M184.149 533.324C184.149 533.324 183.98 533.155 183.642 532.986C183.304 532.817 182.796 532.478 182.289 531.971C181.105 531.126 179.245 529.942 176.709 528.758C171.805 526.222 163.857 523.516 153.88 523.685C143.904 523.685 132.067 527.067 120.737 533.662C117.862 535.353 115.157 537.213 112.62 539.581C110.084 541.779 107.716 544.485 106.194 547.697C104.672 550.91 103.827 554.631 104.672 558.012C105.18 559.703 106.025 561.394 107.209 562.578C108.562 563.762 110.422 564.269 112.113 563.762C113.804 563.255 115.157 561.902 116.002 560.38C116.848 558.858 117.355 556.998 117.355 555.138C117.355 551.587 116.171 548.036 114.142 545.161C112.113 542.286 109.576 539.75 106.702 538.059C103.827 536.199 100.614 535.015 97.4012 534.339C90.9755 532.986 84.5497 533.324 78.8003 534.169C73.0509 535.015 67.6397 536.199 62.905 537.721C53.2663 540.595 45.995 544.146 41.0911 546.683C38.5546 548.036 36.6945 549.05 35.5108 549.896C34.8344 550.234 34.4963 550.572 34.1581 550.741C33.8199 550.91 33.6508 551.079 33.6508 551.079C33.6508 551.079 33.8199 550.91 34.1581 550.741C34.4963 550.572 35.0035 550.234 35.5108 549.727C36.6945 548.881 38.5546 547.697 41.0911 546.345C45.995 543.639 53.2663 539.919 62.905 537.044C67.6397 535.522 73.0509 534.339 78.9694 533.493C84.7188 532.648 91.3136 532.14 97.7394 533.662C100.952 534.339 104.334 535.522 107.378 537.382C110.422 539.242 113.127 541.779 115.157 544.823C117.186 547.867 118.539 551.587 118.539 555.307C118.539 557.167 118.031 559.196 117.017 560.887C116.002 562.578 114.649 564.1 112.62 564.776C110.591 565.453 108.393 564.776 106.871 563.424C105.349 562.071 104.503 560.211 103.996 558.351C103.151 554.461 103.996 550.741 105.518 547.359C107.209 544.146 109.576 541.272 112.113 538.904C114.649 536.537 117.524 534.677 120.399 532.986C131.898 526.391 143.904 523.178 153.88 523.178C164.026 523.009 171.974 525.884 176.878 528.589C181.951 530.957 184.149 533.324 184.149 533.324Z" fill="#FAFAFA"/>
<path d="M65.1031 398.215C60.0301 372.173 23.1664 371.328 16.7406 396.862C16.5715 397.2 16.5715 397.707 16.4024 398.046C6.93287 438.46 38.8927 558.014 47.5167 564.947C56.1408 571.88 64.5958 579.658 79.3074 573.571C87.9315 570.02 177.216 491.05 177.216 491.05C177.216 491.05 197.846 510.835 204.779 509.144C211.712 507.453 224.902 487.161 224.902 487.161C224.902 487.161 237.754 506.269 239.275 506.607C243.841 507.453 246.208 502.38 244.517 499.674C242.826 497.138 226.593 461.458 226.593 461.458C226.593 461.458 239.445 460.105 236.908 455.708C236.908 455.708 236.57 451.819 227.946 452.496C219.322 453.172 219.322 443.364 203.257 444.379C187.193 445.393 153.711 449.452 106.871 485.47L85.2259 500.858L65.1031 398.215Z" fill="#FFBE9D"/>
<path d="M106.702 485.469C106.702 485.469 106.871 485.3 107.209 484.962C107.547 484.624 108.054 484.286 108.9 483.778C110.422 482.764 112.451 481.073 115.157 479.043C120.906 475.154 129.023 469.236 140.352 463.148C151.513 457.061 165.548 450.635 182.627 446.745C186.855 445.9 191.251 445.054 195.817 444.547C198.184 444.378 200.383 444.04 202.75 443.871C205.117 443.702 207.485 443.702 210.021 444.209C212.389 444.716 214.756 445.562 216.954 446.915C219.153 448.267 220.844 449.958 223.042 451.142C224.057 451.818 225.24 451.988 226.593 451.988C227.777 451.988 229.13 451.818 230.482 451.818C231.835 451.818 233.188 451.988 234.372 452.495C235.555 453.002 236.908 453.848 237.246 455.539V455.37C237.585 455.877 237.754 456.553 237.585 457.23C237.415 457.906 236.908 458.413 236.57 458.752C235.724 459.428 234.541 459.935 233.526 460.273C231.328 460.95 229.13 461.457 226.762 461.795L227.1 461.119C230.821 469.067 234.71 477.352 238.599 485.977C240.628 490.204 242.657 494.601 244.856 498.828C245.025 499.335 245.532 499.843 245.701 500.519C245.87 501.195 245.87 501.872 245.701 502.548C245.532 503.901 244.856 505.085 243.841 505.93C242.827 506.776 241.474 507.283 240.121 507.114H239.614C239.614 507.114 239.445 507.114 239.275 506.945C239.106 506.945 239.106 506.776 239.106 506.776C238.768 506.607 238.599 506.268 238.43 506.099C237.923 505.592 237.585 505.085 237.246 504.747C232.85 499.166 228.96 493.248 225.071 487.498H225.748C222.704 492.233 219.322 496.799 215.771 500.857C213.911 502.886 212.22 504.916 210.021 506.776C209.514 507.283 209.007 507.621 208.33 508.129C207.823 508.467 207.147 508.805 206.47 509.143C205.794 509.312 205.117 509.65 204.441 509.82C203.765 509.82 202.919 509.82 202.412 509.481C199.706 508.805 197.508 507.283 195.141 505.93C192.942 504.577 190.744 502.886 188.715 501.365C184.656 498.152 180.767 494.77 177.216 491.388H177.723C149.315 516.245 125.133 537.214 107.716 551.756C99.0921 559.027 92.159 564.608 87.2551 568.328C84.8877 570.188 82.8585 571.541 81.5058 572.386C80.153 573.232 79.4766 573.57 79.4766 573.57C79.4766 573.57 80.153 573.232 81.5058 572.217C82.8585 571.372 84.7186 569.85 87.086 567.99C91.8208 564.27 98.7539 558.52 107.378 551.249C124.626 536.706 148.807 515.569 177.047 490.711L177.385 490.542L177.723 490.88C181.274 494.262 185.164 497.644 189.222 500.688C191.251 502.21 193.28 503.732 195.479 505.254C197.677 506.607 200.044 507.959 202.412 508.636C204.948 509.65 207.147 507.79 209.176 506.099C211.205 504.408 213.065 502.379 214.756 500.181C218.307 495.953 221.52 491.557 224.564 486.822L224.902 486.315L225.24 486.822C229.13 492.571 233.019 498.49 237.415 504.07C237.754 504.577 238.261 505.085 238.599 505.423C238.768 505.592 238.937 505.93 239.275 505.93L239.445 506.099C239.445 506.099 239.445 506.099 239.445 506.268C239.445 506.268 239.445 506.607 239.445 506.099H239.783C240.966 506.268 241.981 505.93 242.827 505.254C244.518 503.901 245.194 501.195 243.672 499.335C241.474 495.108 239.445 490.711 237.415 486.484C233.526 478.029 229.637 469.743 225.917 461.626L225.748 461.119H226.255C228.453 460.781 230.821 460.443 232.85 459.766C233.864 459.428 234.879 458.921 235.724 458.413C236.063 458.075 236.401 457.737 236.57 457.399C236.739 457.061 236.57 456.553 236.401 456.215V456.046C236.232 455.031 235.217 454.186 234.033 453.679C232.85 453.171 231.666 453.171 230.313 453.002C229.13 453.002 227.777 453.171 226.424 453.171C225.071 453.171 223.718 452.833 222.535 452.157C220.167 450.973 218.476 449.113 216.278 447.929C214.249 446.576 212.05 445.731 209.683 445.393C204.948 444.547 200.214 445.224 195.648 445.731C191.082 446.238 186.686 447.084 182.458 447.929C165.548 451.649 151.344 458.075 140.183 463.994C129.023 469.912 120.737 475.661 114.987 479.551C112.282 481.58 110.084 483.102 108.562 484.116C107.885 484.624 107.378 484.962 106.871 485.3C106.871 485.469 106.702 485.469 106.702 485.469Z" fill="#EB996E"/>
<path d="M76.9401 529.942C76.9401 529.942 76.771 529.435 76.6019 528.759C76.4328 527.913 76.2637 526.729 76.0946 525.208C75.9255 522.164 76.0946 517.936 77.2783 513.54C78.462 509.143 80.4912 505.423 82.1822 502.886C83.0277 501.703 83.8732 500.688 84.3805 500.012C84.8878 499.335 85.226 498.997 85.3951 499.166C85.5642 499.335 84.3805 500.688 82.6895 503.225C81.1676 505.761 79.3075 509.481 78.1238 513.709C76.9401 518.105 76.6019 522.164 76.6019 525.039C76.9401 528.082 77.1092 529.942 76.9401 529.942Z" fill="#EB996E"/>
<path d="M40.0765 353.234C39.231 353.741 9.46951 362.703 4.73472 393.141C-5.79801e-05 423.579 2.87463 476.846 2.87463 476.846L83.535 471.265L60.5375 364.056L40.0765 353.234Z" fill="#E8505B"/>
<path d="M211.543 504.916C211.374 504.916 211.543 503.902 211.543 502.211C211.543 500.52 211.036 498.152 209.852 495.954C208.668 493.756 206.978 492.065 205.625 491.05C204.272 490.036 203.257 489.697 203.257 489.528C203.257 489.359 204.441 489.697 205.963 490.543C207.485 491.388 209.345 493.079 210.698 495.616C211.881 497.983 212.389 500.52 212.22 502.38C212.22 504.071 211.712 505.085 211.543 504.916Z" fill="#EB996E"/>
<path d="M218.984 495.954C218.645 495.954 218.645 492.234 216.278 488.683C213.911 484.962 210.698 483.271 210.698 483.102C210.698 482.933 211.712 483.271 212.896 484.117C214.08 484.962 215.771 486.315 216.954 488.175C218.138 490.035 218.815 492.065 218.984 493.587C219.322 495.108 219.153 495.954 218.984 495.954Z" fill="#EB996E"/>
<path d="M218.984 476.676C218.984 476.507 219.66 476.846 220.675 477.691C221.52 478.537 222.704 479.889 223.549 481.58C224.395 483.271 224.564 485.131 224.564 486.315C224.564 487.499 224.395 488.344 224.226 488.344C223.888 488.344 224.226 485.3 222.704 482.088C221.351 478.706 218.815 476.846 218.984 476.676Z" fill="#EB996E"/>
<path d="M73.7273 420.704C73.7273 420.704 73.5582 420.704 73.3891 420.704C73.0509 420.704 72.7127 420.704 72.2054 420.535C71.1908 420.366 69.4998 420.197 67.4707 420.197C63.4123 420.197 57.3247 420.704 50.5607 423.41C43.7967 426.116 36.1873 431.019 30.7761 439.136C28.0705 443.025 26.0413 447.929 26.3795 453.171C26.5486 455.708 27.225 458.414 28.7469 460.612C30.0997 462.81 32.298 464.67 34.8345 465.516C37.371 466.361 40.2457 466.192 42.613 465.178C44.9804 464.163 46.6714 461.796 47.3478 459.428C48.0242 456.892 47.686 454.355 47.0096 451.988C46.3332 449.62 45.1495 447.422 43.7967 445.393C38.0474 437.614 29.5924 433.725 22.4902 432.71C15.2189 431.696 9.30047 433.387 5.58028 434.909C3.72019 435.754 2.36739 436.431 1.35279 436.938C0.845496 437.276 0.507299 437.445 0.3382 437.614C0.169101 437.783 0 437.783 0 437.783C0 437.783 1.69099 436.262 5.58028 434.571C9.30047 432.88 15.2189 431.019 22.6593 432.034C29.9306 432.88 38.7238 436.938 44.6422 444.886C46.1641 446.915 47.3478 449.113 48.0242 451.65C48.7006 454.186 49.0388 456.892 48.3624 459.597C47.686 462.303 45.8259 464.67 43.1203 465.854C40.5839 467.038 37.5401 467.207 34.6654 466.192C31.7907 465.347 29.5924 463.317 28.0705 460.95C26.5486 458.583 25.7031 455.877 25.534 453.171C25.1958 447.76 27.3941 442.687 30.0997 438.629C35.68 430.512 43.4585 425.439 50.2225 422.903C57.1556 420.197 63.2432 419.859 67.3016 420.028C71.529 420.028 73.7273 420.704 73.7273 420.704Z" fill="#FAFAFA"/>
<path d="M71.0216 376.908C71.0216 376.908 70.3452 377.246 68.9924 377.922C68.316 378.261 67.4705 378.599 66.4559 378.768C65.4413 379.106 64.4267 379.444 63.0739 379.783C61.8902 380.121 60.3683 380.459 58.8464 380.628C57.3246 380.966 55.6336 380.966 53.9426 381.135C50.5606 381.304 46.6713 381.135 42.782 380.459C38.8927 379.783 35.1725 378.599 32.1287 377.246C30.6069 376.57 29.085 375.893 27.7322 375.048C26.3794 374.371 25.1957 373.526 24.012 372.849C22.8283 372.173 21.9828 371.328 21.1373 370.82C20.2918 370.144 19.6154 369.637 19.1081 369.129C18.0935 368.115 17.4171 367.607 17.5862 367.607C17.7553 367.438 19.9536 369.637 24.3502 372.511C25.3648 373.188 26.7176 373.864 28.0704 374.54C29.4232 375.217 30.9451 375.893 32.4669 376.57C35.6798 377.753 39.2309 378.937 43.1202 379.613C47.0095 380.29 50.7297 380.459 54.1117 380.459C55.8027 380.29 57.4937 380.29 58.8464 380.121C60.3683 379.952 61.7211 379.783 62.9048 379.444C67.9778 377.922 70.8525 376.739 71.0216 376.908Z" fill="#FAFAFA"/>
<path d="M77.6166 428.652C77.6166 428.652 77.7857 428.99 77.7857 429.498C77.9548 430.174 77.9548 430.851 78.1239 431.865C78.4621 434.063 78.9694 436.938 79.4767 440.658C80.6604 448.268 82.1823 458.921 83.8733 471.265V471.773H83.366C77.4475 472.111 71.1908 472.618 64.4268 473.125C47.3478 474.309 31.9598 475.324 20.6301 476C15.0498 476.338 10.6532 476.507 7.44035 476.846C5.91845 476.846 4.73475 477.015 3.88926 477.015C3.04376 477.015 2.70557 477.015 2.70557 477.015C2.70557 477.015 3.21286 476.846 3.88926 476.846C4.73475 476.846 5.91845 476.676 7.44035 476.507C10.6532 476.169 15.2189 475.831 20.6301 475.493C31.9598 474.647 47.3478 473.633 64.4268 472.28C71.0217 471.773 77.4475 471.434 83.366 470.927L83.0278 471.434C81.3368 459.09 79.984 448.437 78.9694 440.827C78.4621 437.107 78.1239 434.063 77.7857 431.865C77.6166 430.851 77.6166 430.174 77.4475 429.498C77.6166 428.821 77.6166 428.652 77.6166 428.652Z" fill="#263238"/>
<g opacity="0.2">
<g opacity="0.2">
<path opacity="0.2" d="M38.5546 352.388C37.7091 355.263 40.0765 357.968 41.4293 360.505C44.304 365.409 44.4731 371.496 44.6422 377.077C45.1495 387.561 46.1641 398.045 49.377 407.853C52.5899 417.829 58.1701 427.13 66.456 433.556C74.7419 439.982 85.7334 443.025 95.8793 440.489C106.025 437.783 114.48 428.99 115.326 418.506C116.171 408.191 109.915 398.89 106.363 389.083C103.658 381.642 102.305 373.695 100.783 365.916C99.2613 358.137 97.2321 350.19 93.0046 343.426C88.7771 336.662 82.3514 330.912 74.4037 329.391C66.6251 328.038 57.6628 331.589 54.45 339.029" fill="black"/>
</g>
</g>
<path d="M77.4476 214.924V223.887L76.9403 358.49C76.9403 374.047 90.2992 386.56 107.04 386.56C123.95 386.56 137.816 373.709 138.154 357.813C138.492 341.242 139.169 323.824 139.169 323.824C139.169 323.824 160.644 320.611 165.548 292.879C167.916 279.013 167.747 256.354 166.901 237.753C166.225 221.012 151.682 208.329 134.941 209.682L77.4476 214.924Z" fill="#FFBE9D"/>
<path d="M160.306 254.832C160.306 256.692 158.784 258.383 156.755 258.383C154.726 258.383 153.204 257.03 153.204 255.17C153.204 253.31 154.726 251.619 156.755 251.619C158.615 251.45 160.306 252.803 160.306 254.832Z" fill="#263238"/>
<path d="M161.659 249.59C161.152 250.097 158.615 248.068 154.726 247.899C150.837 247.729 147.962 249.759 147.624 249.251C147.455 249.082 147.962 248.237 149.146 247.391C150.329 246.546 152.528 245.7 154.895 245.7C157.262 245.7 159.292 246.715 160.475 247.56C161.49 248.575 161.997 249.42 161.659 249.59Z" fill="#263238"/>
<path d="M123.95 254.155C123.95 256.015 122.428 257.706 120.399 257.706C118.37 257.706 116.848 256.353 116.848 254.493C116.848 252.633 118.37 250.942 120.399 250.942C122.259 250.773 123.781 252.295 123.95 254.155Z" fill="#263238"/>
<path d="M123.95 249.59C123.442 250.097 120.906 248.068 117.017 247.899C113.127 247.729 110.253 249.759 109.915 249.251C109.745 249.082 110.253 248.237 111.436 247.391C112.62 246.546 114.818 245.7 117.186 245.7C119.553 245.7 121.582 246.715 122.766 247.56C123.781 248.575 124.119 249.42 123.95 249.59Z" fill="#263238"/>
<path d="M137.309 278.336C137.309 278.167 139.676 277.829 143.565 277.321C144.58 277.321 145.426 276.983 145.595 276.476C145.764 275.799 145.426 274.785 144.918 273.601C144.073 271.234 143.058 268.697 142.213 266.161C138.323 255.508 135.618 246.714 136.125 246.545C136.632 246.376 140.014 255 143.904 265.654C144.749 268.359 145.764 270.896 146.609 273.263C146.947 274.447 147.624 275.63 147.117 277.152C146.778 277.829 146.102 278.336 145.426 278.505C144.749 278.674 144.242 278.674 143.735 278.674C139.845 278.505 137.309 278.505 137.309 278.336Z" fill="#263238"/>
<path d="M139.169 323.824C139.169 323.824 120.399 324.67 101.967 313.171C101.967 313.171 110.76 332.448 138.662 330.419L139.169 323.824Z" fill="#EB996E"/>
<path d="M135.618 287.637C134.265 285.777 131.898 284.762 129.53 284.931C127.839 285.1 126.148 285.777 125.134 287.13C124.119 288.482 123.781 290.343 124.795 291.695C125.81 293.217 128.008 293.555 129.868 293.048C131.729 292.541 133.25 291.357 134.772 290.173C135.111 289.835 135.618 289.497 135.956 288.99C135.956 288.652 135.956 288.144 135.618 287.637Z" fill="#EB996E"/>
<path d="M125.979 280.873C126.655 280.873 126.486 285.1 130.037 287.975C133.588 291.019 137.985 290.68 137.985 291.188C137.985 291.526 136.97 292.033 135.11 292.033C133.25 292.033 130.545 291.357 128.515 289.497C126.317 287.637 125.472 285.269 125.303 283.409C125.133 281.718 125.641 280.703 125.979 280.873Z" fill="#263238"/>
<path d="M125.134 234.54C124.795 235.554 120.906 235.047 116.34 235.554C111.775 235.893 108.224 237.245 107.547 236.231C107.209 235.724 107.885 234.878 109.407 233.863C110.929 232.849 113.297 232.003 116.002 231.665C118.708 231.496 121.244 231.834 122.766 232.511C124.457 233.187 125.303 234.033 125.134 234.54Z" fill="#263238"/>
<path d="M160.475 238.429C159.799 239.275 157.093 238.26 154.049 238.26C150.836 238.091 148.131 238.767 147.624 237.753C147.285 237.245 147.793 236.4 148.976 235.554C150.16 234.709 152.189 234.033 154.218 234.202C156.417 234.371 158.277 235.216 159.461 236.062C160.475 237.076 160.813 237.922 160.475 238.429Z" fill="#263238"/>
<path d="M112.451 205.624C120.061 215.432 112.451 229.467 103.827 238.598C95.3721 247.56 85.057 258.045 87.4244 270.22C90.2991 284.255 109.576 293.048 106.871 307.253C105.856 312.326 101.798 316.891 101.967 322.133C101.967 331.603 114.311 335.999 117.862 344.793C122.766 356.799 109.576 368.974 109.576 381.825C109.576 389.266 113.804 396.03 114.142 403.301C114.818 418.351 97.063 429.511 82.3514 425.96C67.6398 422.409 57.6629 408.205 54.2809 393.493C50.8989 378.782 53.0972 363.394 55.2955 348.513C53.9427 354.939 44.304 356.122 39.5693 351.726C34.8345 347.329 34.1581 339.889 35.1727 333.463C37.7092 317.399 48.1933 303.532 53.0972 287.975C57.3247 274.278 57.3247 259.736 59.0157 245.7C60.7067 231.665 65.1033 216.784 75.7565 207.315C86.4098 197.845 105.18 196.492 113.973 207.822" fill="#263238"/>
<path d="M74.2347 420.549C74.2347 420.549 74.4038 420.38 74.5729 420.041C74.9111 419.703 75.2493 419.196 75.5875 418.519C76.433 417.167 77.7858 414.968 78.8004 411.925C79.815 408.881 80.8296 405.161 80.9987 400.595C81.1678 396.029 80.4914 390.787 78.2931 385.714C76.0948 380.472 72.2055 375.568 67.978 370.157C65.9488 367.451 63.7505 364.746 62.0595 361.533C60.1995 358.32 58.8467 354.938 58.1703 351.049C57.4939 347.329 57.4939 343.101 59.1849 339.381C60.0304 337.521 61.2141 335.83 62.5669 334.308C64.0887 332.786 65.6106 331.602 67.3016 330.419C70.6836 328.051 74.2347 325.684 75.9257 321.795C77.7858 318.074 77.7858 313.678 76.7712 309.45C74.742 300.995 68.8235 294.401 65.1033 286.96C63.2433 283.24 61.7213 279.351 61.5522 275.292C61.3831 271.234 62.2286 267.345 63.7505 263.793C66.7943 256.691 71.8673 251.28 76.9403 246.714C82.0133 242.149 86.9172 238.429 90.9755 234.37C95.0339 230.481 98.2468 226.253 100.276 222.195C102.305 218.137 103.32 214.247 103.489 211.204C103.658 207.991 103.32 205.623 102.812 203.932C102.305 202.241 101.967 201.565 101.967 201.565C101.967 201.565 102.474 202.41 102.982 203.932C103.489 205.454 103.996 207.991 103.827 211.204C103.658 214.416 102.813 218.306 100.783 222.533C98.7541 226.592 95.5412 230.819 91.4828 234.878C87.4245 238.936 82.5206 242.825 77.4476 247.391C72.5437 251.787 67.6398 257.199 64.596 264.132C63.0741 267.514 62.2287 271.403 62.5669 275.292C62.736 279.182 64.0887 283.071 65.9488 286.622C67.8089 290.173 70.1763 293.724 72.3746 297.275C74.5729 300.826 76.6021 304.885 77.6167 309.112C78.6313 313.34 78.8004 318.074 76.7712 321.964C74.742 326.022 71.0218 328.389 67.8089 330.926C66.1179 332.11 64.596 333.293 63.0741 334.815C61.7213 336.168 60.5377 337.859 59.8613 339.55C58.3394 343.101 58.3394 347.16 59.0158 350.711C59.6922 354.431 61.045 357.813 62.905 360.857C64.596 363.9 66.7943 366.775 68.8235 369.312C72.8819 374.554 76.7712 379.627 79.1386 385.038C81.506 390.28 82.0133 395.691 81.8442 400.257C81.6751 404.822 80.6605 408.712 79.4768 411.755C78.2931 414.799 76.9403 416.828 76.0948 418.35C75.5875 419.027 75.2493 419.534 74.9111 419.872C74.4038 420.38 74.2347 420.549 74.2347 420.549Z" fill="#455A64"/>
<path d="M281.551 454.509L217.462 566.453L126.656 569.666V579.643H391.803L464.009 461.442C466.714 457.046 463.501 451.296 458.259 451.296H287.469C285.102 451.127 282.734 452.48 281.551 454.509Z" fill="#263238"/>
<path d="M361.873 514.201C357.814 520.457 351.727 523.67 348.007 521.303C344.455 518.935 344.794 512.002 348.683 505.746C352.741 499.489 358.829 496.276 362.549 498.644C366.269 501.011 365.931 507.944 361.873 514.201Z" fill="#E0E0E0"/>
<path d="M598.007 579.642C598.007 579.778 465.334 580.05 301.803 580.05C138.137 580.05 5.46375 579.914 5.46375 579.642C5.46375 579.506 138.137 579.234 301.803 579.234C465.334 579.234 598.007 579.37 598.007 579.642Z" fill="#263238"/>
<path d="M215.971 29.3395L200.542 29.4221L200.951 105.907L216.38 105.825L215.971 29.3395Z" fill="#E0E0E0"/>
<path d="M107.267 29.5382L67.442 29.7513L67.6679 71.9502L107.493 71.737L107.267 29.5382Z" fill="#EBEBEB"/>
<path d="M146.829 29.2745L107.004 29.4878L107.23 71.6866L147.055 71.4733L146.829 29.2745Z" fill="#F5F5F5"/>
<path d="M67.4211 41.38C93.9272 41.6438 120.433 41.38 146.808 40.9844C147.335 40.9844 147.335 40.1932 146.808 40.1932C120.301 40.0613 93.7954 40.1932 67.4211 40.7207C67.0255 40.7207 67.0255 41.38 67.4211 41.38Z" fill="#E0E0E0"/>
<path d="M114.936 70.99L42.5386 71.3779L42.723 105.796L115.12 105.408L114.936 70.99Z" fill="#EBEBEB"/>
<path d="M186.939 70.5949L114.541 70.9827L114.726 105.401L187.123 105.013L186.939 70.5949Z" fill="#F5F5F5"/>
<path d="M42.6294 80.9406C90.6306 81.4681 138.895 80.9406 187.028 80.2813C187.556 80.2813 187.556 79.49 187.028 79.49C139.027 79.2263 90.7624 79.2263 42.7613 80.2813C42.1019 80.2813 42.1019 80.9406 42.6294 80.9406Z" fill="#E0E0E0"/>
<path d="M295.822 105.865H15.5958V118.261H295.822V105.865Z" fill="#E0E0E0"/>
<path d="M72.828 111.799H61.4871V153.866H72.828V111.799Z" fill="#E0E0E0"/>
<path d="M242.678 111.799H231.337V153.866H242.678V111.799Z" fill="#E0E0E0"/>
<path d="M231.059 0.723089L215.63 0.805664L216.193 106.039L231.622 105.956L231.059 0.723089Z" fill="#EBEBEB"/>
<path d="M254.981 20.3498L231.112 20.4779L231.57 105.799L255.439 105.671L254.981 20.3498Z" fill="#F5F5F5"/>
<path d="M254.81 36.7646C254.81 37.0284 249.404 37.1602 242.81 37.1602C236.216 37.1602 230.81 37.0284 230.81 36.7646C230.81 36.5009 236.216 36.369 242.81 36.369C249.535 36.369 254.81 36.5009 254.81 36.7646Z" fill="#E0E0E0"/>
<path d="M254.81 33.2038C254.81 33.4676 249.404 33.5995 242.81 33.5995C236.216 33.5995 230.81 33.4676 230.81 33.2038C230.81 32.9401 236.216 32.8082 242.81 32.8082C249.535 32.8082 254.81 32.9401 254.81 33.2038Z" fill="#E0E0E0"/>
<path d="M254.81 92.8099C254.81 93.0737 249.404 93.2055 242.81 93.2055C236.216 93.2055 230.81 93.0737 230.81 92.8099C230.81 92.5462 236.216 92.4143 242.81 92.4143C249.535 92.4143 254.81 92.5462 254.81 92.8099Z" fill="#E0E0E0"/>
<path d="M254.81 89.2491C254.81 89.5129 249.404 89.6447 242.81 89.6447C236.216 89.6447 230.81 89.5129 230.81 89.2491C230.81 88.9854 236.216 88.8535 242.81 88.8535C249.535 88.8535 254.81 88.9854 254.81 89.2491Z" fill="#E0E0E0"/>
<path d="M243.337 81.337C243.074 81.337 242.942 72.7653 242.942 62.0838C242.942 51.5341 243.074 42.8306 243.337 42.8306C243.601 42.8306 243.733 51.4022 243.733 62.0838C243.733 72.7653 243.469 81.337 243.337 81.337Z" fill="#E0E0E0"/>
<path d="M281.053 41.2479H255.074V105.601H281.053V41.2479Z" fill="#EBEBEB"/>
<path d="M223.029 23.1816C225.506 23.1816 227.513 21.1742 227.513 18.698C227.513 16.2217 225.506 14.2144 223.029 14.2144C220.553 14.2144 218.546 16.2217 218.546 18.698C218.546 21.1742 220.553 23.1816 223.029 23.1816Z" fill="#E0E0E0"/>
<path d="M224.48 30.8303H221.711V93.4692H224.48V30.8303Z" fill="#E0E0E0"/>
</svg>
