<svg width="125" height="241" viewBox="0 0 125 241" fill="none" xmlns="http://www.w3.org/2000/svg">
<path d="M92.7517 54.768L73.8448 35.4314V28.4362H74.2399C74.8043 28.4362 75.3686 28.0381 75.4815 27.4693C75.5944 26.73 75.03 26.0475 74.2963 26.0475H73.7884V20.1897L48.1089 20.3603V25.9907H47.601C47.0366 25.9907 46.4722 26.3888 46.3593 26.9575C46.2464 27.6968 46.8108 28.3793 47.5445 28.3793H48.1089V35.1471L29.5971 55.9623C27.7346 58.0666 26.7188 60.7964 26.7188 63.5832V68.4173C26.7188 70.0666 27.3396 71.659 28.5248 72.7965V163.621C28.5248 164.133 28.6377 164.645 28.8634 165.157C29.1456 165.953 29.0892 166.806 28.6941 167.546C28.3555 168.228 28.1297 168.967 28.1297 169.707L27.8475 195.982C27.8475 197.347 27.9604 198.712 28.3555 200.02L28.1297 218.787C28.0733 221.858 28.4119 224.873 29.202 227.83C30.613 233.233 33.7736 240.058 40.9412 240.058H45.8514C47.3188 240.058 48.6733 239.375 49.5763 238.181L50.7051 236.702C51.3823 235.792 52.7933 236.02 53.1884 237.1C53.8656 239.034 55.7281 240.285 57.7034 240.228L69.0476 240.058C70.2328 240.058 71.1922 239.204 71.5308 238.067C71.9259 236.93 73.4497 236.759 74.0706 237.783L74.7478 238.806C75.3122 239.659 76.2152 240.171 77.1747 240.171H82.6492C86.1484 240.171 89.4218 238.238 91.115 235.167C91.1714 235.11 91.1714 235.053 91.2279 234.996C93.1468 231.356 94.1062 227.261 94.1062 223.167V202.181C93.1467 200.816 93.1467 198.996 94.1062 197.631V168.342C93.0903 167.318 93.0339 165.669 93.9933 164.588L94.1062 164.474V133.82V72.1709L94.2191 72.0571C95.3478 70.9197 96.0251 69.3273 96.0251 67.678V62.787C96.0251 59.8296 94.8399 56.9291 92.7517 54.768Z" fill="#F5F5F5"/>
<path d="M84.0594 58.0099C87.9536 57.0999 91.7914 60.0004 91.8479 64.0383V64.0952V68.5312C91.8479 70.0099 91.2835 71.4886 90.2676 72.5123L90.1547 72.626V128.986V156.967L90.0418 157.081C89.1953 158.048 89.2517 159.584 90.1547 160.494V187.223C89.3081 188.475 89.3081 190.124 90.1547 191.375V210.541C90.1547 214.295 89.3081 218.048 87.615 221.347C87.615 221.404 87.5585 221.461 87.5585 221.517C86.0911 224.361 83.2128 226.067 80.1087 226.067H75.255L67.9744 225.953L57.9284 226.124L47.4308 225.953H43.0851C36.764 225.953 33.942 219.754 32.7004 214.806C32.0231 212.133 31.7409 209.347 31.7974 206.56L32.0231 189.441C31.6845 188.247 31.5716 186.996 31.5716 185.745L31.8538 161.745C31.8538 161.062 32.0231 160.38 32.3618 159.754C32.7004 159.072 32.7568 158.276 32.4747 157.536C32.3053 157.081 32.1925 156.626 32.1925 156.171V73.3085C31.1766 72.2279 30.6122 70.8061 30.6122 69.3274V64.8914V64.8345C30.6122 60.9672 33.4341 57.6686 37.2155 56.8156C41.1097 55.9625 47.3744 55.1663 53.5262 56.8156C63.6286 59.4885 63.798 60.9672 71.0221 60.3416C75.0292 59.9435 80.278 58.8629 84.0594 58.0099Z" fill="#E8505B"/>
<path opacity="0.5" d="M84.0594 58.0099C87.9536 57.0999 91.7914 60.0004 91.8479 64.0383V64.0952V68.5312C91.8479 70.0099 91.2835 71.4886 90.2676 72.5123L90.1547 72.626L90.2676 124.437L90.1547 156.967L90.0418 157.081C89.1953 158.048 89.2517 159.584 90.1547 160.494V187.223C89.3081 188.475 89.3081 190.124 90.1547 191.375V210.541C90.1547 214.295 89.3081 218.048 87.615 221.347C87.615 221.404 87.5585 221.461 87.5585 221.517C86.0911 224.361 83.2128 226.067 80.1087 226.067H75.255L67.9744 225.953L57.9284 226.124L47.4308 225.953H43.0851C36.764 225.953 33.942 219.754 32.7004 214.806C32.0231 212.133 31.7409 209.347 31.7974 206.56L32.0231 189.441C31.6845 188.247 31.5716 186.996 31.5716 185.745L31.8538 161.745C31.8538 161.062 32.0231 160.38 32.3618 159.754C32.7004 159.072 32.7568 158.276 32.4747 157.536C32.3053 157.081 32.1925 156.626 32.1925 156.171V73.3085C31.1766 72.2279 30.6122 70.8061 30.6122 69.3274V64.8914V64.8345C30.6122 60.9672 33.4341 57.6686 37.2155 56.8156C41.1097 55.9625 47.3744 55.1663 53.5262 56.8156C63.6286 59.4885 63.798 60.9672 71.0221 60.3416C75.0292 59.9435 80.278 58.8629 84.0594 58.0099Z" fill="white"/>
<path d="M94.7827 72.8537C94.7827 72.9106 79.9958 73.0243 61.7097 73.0243C43.4237 73.0243 28.6368 72.9675 28.6368 72.8537C28.6368 72.7969 43.4237 72.6831 61.7097 72.6831C79.9394 72.6831 94.7827 72.74 94.7827 72.8537Z" fill="#263238"/>
<path d="M32.2489 111.811C35.4095 105.1 41.7306 99.9244 48.9547 98.2183C55.7273 96.6259 63.0643 97.8771 69.5547 95.2609C76.3273 92.5311 80.7859 86.1045 84.2851 79.678C85.6396 77.1756 87.3328 74.3888 90.1547 74.0476C89.421 76.0381 90.6062 78.4268 89.6468 80.2467C89.3081 80.8723 88.7437 81.3841 88.2358 81.8391C84.1722 85.7064 81.5196 90.768 79.2057 95.8865C77.7947 99.0145 76.3837 102.37 73.7311 104.588C71.8122 106.18 69.3854 107.09 66.9585 107.545C60.6939 108.683 53.9777 107.147 48.0517 109.422C43.4801 111.128 39.981 114.939 37.5541 119.204C35.1273 123.47 33.7727 128.19 32.3618 132.91" fill="white"/>
<path d="M91.9041 65.915C91.9041 66.0856 90.8882 66.1994 89.1951 66.9387C87.5019 67.6781 85.3008 69.2136 83.1562 71.7728C82.0838 73.024 81.0115 74.5027 79.9392 76.152C78.8669 77.8013 77.7945 79.6212 76.5529 81.5549C75.3112 83.4317 73.9003 85.4222 72.0378 87.1283C70.2318 88.8914 67.9743 90.3132 65.491 91.28C63.0077 92.2468 60.4115 92.7018 57.8718 92.7018C55.3885 92.6449 53.0745 92.2468 50.9298 92.2468C46.6405 92.19 42.8027 93.498 39.9244 95.0904C38.457 95.8867 37.2718 96.7397 36.2559 97.5928C35.24 98.389 34.4498 99.2421 33.7726 99.8677C32.5309 101.233 31.9101 102.086 31.7972 102.029C31.7408 101.972 31.8537 101.744 32.0794 101.29C32.3052 100.835 32.7002 100.209 33.2646 99.4127C33.8854 98.6734 34.6191 97.7634 35.635 96.8535C36.6509 95.8867 37.8361 94.9198 39.36 94.0668C42.2948 92.3037 46.3019 90.7682 50.9298 90.7113C53.2438 90.7113 55.5578 91.0525 57.8718 91.0525C60.1857 91.0525 62.6126 90.5975 64.8701 89.6876C67.1841 88.7776 69.2159 87.4696 70.909 85.8772C72.6022 84.2847 74.0132 82.4648 75.2548 80.6449C76.4964 78.825 77.6252 77.0051 78.754 75.3558C79.8828 73.7065 81.0115 72.171 82.2532 70.9198C84.6236 68.3605 87.1069 66.8818 88.9129 66.3131C90.8318 65.7444 91.9041 65.8581 91.9041 65.915Z" fill="white"/>
<path d="M31.9667 188.076C34.3372 185.687 38.0621 185.232 41.392 185.63C44.7218 186.028 47.9953 187.109 51.3251 187.109C55.9531 187.109 60.581 185.005 63.6287 181.479C64.7575 180.171 65.6605 178.692 66.7892 177.327C69.5547 174.028 73.5054 171.753 77.7383 171.014C79.6572 170.673 81.6325 170.673 83.3821 169.934C87.0506 168.455 88.9131 164.474 90.4934 160.834C90.2676 166.806 89.9854 172.72 89.7597 178.692C83.495 177.498 77.569 181.592 72.6588 185.687C67.7487 189.782 62.4435 194.389 56.0659 194.389C52.6796 194.389 49.3498 193.081 45.9635 193.194C39.5859 193.422 34.5065 198.483 30.2172 203.204" fill="white"/>
<path d="M91.9044 160.494C91.9044 160.607 90.945 160.664 89.3082 161.119C88.4617 161.29 87.5022 161.688 86.3735 162.143C85.3011 162.655 84.0595 163.337 82.8178 164.19C81.5762 165.043 80.2217 166.067 78.9236 167.261C77.5691 168.456 76.2145 169.821 74.7471 171.299C73.2797 172.778 71.7559 174.313 70.0063 175.792C68.2567 177.271 66.3378 178.693 64.1367 179.83C61.9356 180.968 59.5652 181.593 57.2512 181.821C54.9373 182.048 52.7361 181.991 50.7044 181.934C48.6726 181.821 46.6972 181.707 44.8912 181.707C43.0852 181.707 41.4485 181.821 39.9246 182.048C38.4572 182.276 37.1027 182.617 35.9739 183.072C34.8452 183.527 33.9422 184.039 33.2649 184.494C31.8539 185.46 31.2331 186.2 31.1202 186.143C31.0638 186.086 31.5153 185.176 32.8698 183.982C33.5471 183.413 34.4501 182.787 35.6353 182.219C36.7641 181.65 38.175 181.195 39.6989 180.911C41.2792 180.569 42.9723 180.399 44.8348 180.342C46.6972 180.285 48.6726 180.399 50.7044 180.456C52.7361 180.513 54.8808 180.513 57.0255 180.285C59.1701 180.058 61.3148 179.432 63.3466 178.408C65.3784 177.385 67.2408 176.02 68.8775 174.655C70.5707 173.233 72.0945 171.754 73.5619 170.332C75.0293 168.911 76.4967 167.546 77.9077 166.351C79.3186 165.157 80.7296 164.133 82.0841 163.337C83.4387 162.484 84.7367 161.858 85.9219 161.46C87.1071 161.062 88.1795 160.778 89.026 160.664C90.945 160.209 91.9044 160.38 91.9044 160.494Z" fill="white"/>
<path d="M31.7976 217.479C38.4573 221.517 47.2053 220.323 54.0908 216.74C60.9763 213.157 66.5072 207.413 72.264 202.124C78.0207 196.834 84.2853 191.716 91.8481 189.839C91.1708 188.929 90.7757 187.792 90.7193 186.654C82.0278 190.522 73.1105 194.503 66.4508 201.327C64.1368 203.659 62.1615 206.332 59.5653 208.436C57.082 210.427 54.2037 211.735 51.2689 212.872C45.3993 215.204 39.0217 216.967 32.7571 216.114C32.2491 216.057 31.6847 216 31.3461 216.398C31.0075 216.797 31.5719 217.536 31.9105 217.138" fill="white"/>
<path d="M81.1248 154.522C81.1248 155.488 80.3347 156.285 79.3752 156.285C78.4158 156.285 77.6256 155.488 77.6256 154.522C77.6256 153.555 78.4158 152.759 79.3752 152.759C80.3347 152.759 81.1248 153.555 81.1248 154.522Z" fill="white"/>
<path d="M72.5459 158.219C72.5459 158.731 72.1509 159.072 71.6994 159.072C71.1914 159.072 70.8528 158.674 70.8528 158.219C70.8528 157.707 71.2479 157.366 71.6994 157.366C72.2073 157.366 72.5459 157.764 72.5459 158.219Z" fill="white"/>
<path d="M52.7927 207.015C53.2603 207.015 53.6393 206.633 53.6393 206.161C53.6393 205.69 53.2603 205.308 52.7927 205.308C52.3252 205.308 51.9462 205.69 51.9462 206.161C51.9462 206.633 52.3252 207.015 52.7927 207.015Z" fill="white"/>
<path d="M94.1056 168.797C94.1056 168.853 79.2623 168.967 60.9763 168.967C42.6902 168.967 27.8469 168.91 27.8469 168.797C27.8469 168.683 42.6902 168.626 60.9763 168.626C79.2623 168.683 94.1056 168.74 94.1056 168.797Z" fill="#263238"/>
<path d="M93.9362 198.2C93.9362 198.257 79.1494 198.37 60.8633 198.37C42.5773 198.37 27.7904 198.313 27.7904 198.2C27.7904 198.143 42.5773 198.029 60.8633 198.029C79.1494 198.086 93.9362 198.143 93.9362 198.2Z" fill="#263238"/>
<path d="M94.331 202.579C94.331 202.636 79.5441 202.749 61.2581 202.749C42.972 202.749 28.1852 202.693 28.1852 202.579C28.1852 202.522 42.972 202.408 61.2581 202.408C79.5441 202.408 94.331 202.465 94.331 202.579Z" fill="#263238"/>
<path d="M94.1056 164.304C94.1056 164.361 79.488 164.475 61.4277 164.475C43.3674 164.475 28.7499 164.418 28.7499 164.304C28.7499 164.247 43.3674 164.134 61.4277 164.134C79.4316 164.134 94.1056 164.19 94.1056 164.304Z" fill="#263238"/>
<path d="M56.4613 240.228C56.4613 240.228 56.2919 240.228 55.9533 240.058C55.6711 239.944 55.2196 239.66 54.8245 239.262C53.9215 238.409 53.1878 236.987 52.3413 235.394C51.4947 233.802 50.7045 232.38 50.1402 231.356C49.5758 230.333 49.2936 229.65 49.2936 229.65C49.2936 229.65 49.6886 230.219 50.3095 231.243C50.8739 232.266 51.7204 233.688 52.567 235.224C53.4136 236.759 54.1473 238.238 54.9374 239.091C55.7276 240.001 56.4613 240.172 56.4613 240.228Z" fill="#263238"/>
<path d="M74.9166 229.536C74.973 229.536 74.8602 230.048 74.6344 230.787C74.4086 231.584 74.07 232.607 73.6185 233.802C73.167 234.939 72.7155 235.963 72.3769 236.702C72.0382 237.441 71.8125 237.896 71.7561 237.84C71.6996 237.84 71.8689 237.328 72.2076 236.588C72.5462 235.735 72.9413 234.769 73.3363 233.631C73.7314 232.55 74.1265 231.527 74.4087 230.674C74.6908 229.991 74.8602 229.536 74.9166 229.536Z" fill="#263238"/>
<path d="M93.9363 209.29C93.9363 209.29 93.8798 209.347 93.767 209.404C93.6541 209.517 93.5412 209.631 93.3154 209.745C92.9204 210.029 92.356 210.484 91.6223 211.053C90.1549 212.19 87.9538 213.783 85.0754 215.489C83.6645 216.342 82.0277 217.252 80.2782 218.105C78.4721 218.958 76.5532 219.754 74.4086 220.323C70.1192 221.46 65.1527 221.859 60.1297 220.664C57.6464 220.095 55.2759 219.072 53.2442 217.821C51.2124 216.569 49.4064 215.034 47.7132 213.555C46.0765 212.077 44.4962 210.655 43.0288 209.404C41.505 208.152 40.0376 207.072 38.6266 206.219C35.7483 204.456 33.1521 203.716 31.2896 203.546C30.3866 203.489 29.6529 203.489 29.145 203.489C28.9192 203.489 28.7499 203.546 28.5806 203.546C28.4677 203.546 28.4113 203.546 28.4113 203.546C28.4113 203.546 28.4677 203.546 28.5806 203.489C28.6934 203.489 28.9192 203.432 29.145 203.432C29.6529 203.375 30.3866 203.375 31.2896 203.432C33.1521 203.603 35.8611 204.285 38.7395 206.048C40.2069 206.901 41.6743 207.982 43.1981 209.233C44.722 210.484 46.2458 211.906 47.9389 213.385C49.5757 214.863 51.3817 216.342 53.4135 217.593C55.4453 218.844 57.7592 219.811 60.2425 220.38C65.2091 221.517 70.1192 221.176 74.3521 220.039C76.4968 219.47 78.4157 218.674 80.2217 217.877C81.9713 217.024 83.608 216.171 85.019 215.318C87.8974 213.612 90.0984 212.02 91.6223 210.939C92.356 210.37 92.9204 209.972 93.3719 209.631C93.5412 209.517 93.7105 209.404 93.8234 209.29C93.8798 209.347 93.9363 209.29 93.9363 209.29Z" fill="#263238"/>
<path d="M94.1056 208.607C94.1056 208.607 94.0492 208.664 93.9928 208.721C93.8799 208.835 93.767 208.949 93.5977 209.062C93.4284 209.233 93.2026 209.404 92.9204 209.631C92.6382 209.859 92.2996 210.086 91.961 210.37C90.4936 211.508 88.2925 212.987 85.3577 214.579C83.8903 215.375 82.2536 216.114 80.4475 216.854C78.6415 217.593 76.6662 218.276 74.5215 218.731C73.9571 218.844 73.4492 218.958 72.8848 219.015C72.6026 219.072 72.3204 219.072 72.0382 219.129C71.756 219.129 71.4738 219.129 71.1916 219.129C70.0629 219.129 68.8777 219.072 67.6925 219.015C65.322 218.844 62.8388 218.56 60.4119 217.878C57.9851 217.195 55.7275 216.114 53.865 214.579C52.0026 213.1 50.4223 211.394 48.8985 209.802C47.3746 208.266 45.8508 206.844 44.2141 205.821C42.5774 204.74 40.9407 204.001 39.3604 203.546C36.2563 202.579 33.5472 202.465 31.6847 202.579C31.2332 202.579 30.8382 202.636 30.4431 202.693C30.1045 202.75 29.8223 202.75 29.5401 202.806C29.3143 202.863 29.145 202.863 28.9757 202.92C28.8628 202.92 28.8064 202.92 28.8064 202.92C28.8064 202.92 29.7658 202.636 31.6283 202.465C33.4343 202.295 36.1998 202.351 39.3604 203.318C40.9407 203.83 42.6338 204.569 44.2705 205.593C45.9072 206.617 47.4875 208.039 49.0113 209.631C50.5352 211.167 52.1155 212.873 53.9215 214.351C55.784 215.83 57.9851 216.911 60.4119 217.593C62.8388 218.276 65.2656 218.56 67.636 218.731C68.8212 218.787 69.95 218.844 71.1352 218.844C71.4174 218.844 71.6996 218.844 71.9818 218.844C72.264 218.844 72.5462 218.787 72.8284 218.731C73.3927 218.674 73.9007 218.56 74.4651 218.446C76.6097 217.991 78.5286 217.309 80.3347 216.626C82.1407 215.887 83.7774 215.148 85.1884 214.351C88.1232 212.816 90.3243 211.337 91.7917 210.257C92.1867 209.972 92.4689 209.745 92.7511 209.517C93.0333 209.29 93.2591 209.119 93.4284 208.949C93.5977 208.835 93.767 208.721 93.8799 208.607C94.0492 208.664 94.1056 208.607 94.1056 208.607Z" fill="#263238"/>
<path d="M94.049 72.5693C94.049 72.6262 79.4315 72.7399 61.3712 72.7399C43.3109 72.7399 28.6934 72.683 28.6934 72.5693C28.6934 72.5124 43.3109 72.3987 61.3712 72.3987C79.4315 72.3987 94.049 72.4556 94.049 72.5693Z" fill="#263238"/>
<path d="M84.3417 46.0667C84.3417 46.0667 84.1724 46.1804 83.8337 46.4079C83.4951 46.6354 83.0436 46.9766 82.4228 47.4885C81.8584 48.0003 81.1811 48.6259 80.3346 49.3652C79.488 50.0477 78.4721 50.8439 77.2869 51.5264C74.9165 52.8913 71.7559 53.9719 68.1439 54.4269C64.5318 54.8818 60.5247 54.5975 56.4047 53.8581C54.3165 53.5169 52.3411 53.0051 50.4222 52.607C48.5033 52.2088 46.6408 51.9814 44.8348 51.9245C41.2227 51.8676 38.0058 52.5501 35.4096 53.46C32.8699 54.37 30.8381 55.3937 29.7093 56.4174C29.1449 56.9292 28.7499 57.3842 28.4677 57.6686C28.2419 58.0098 28.129 58.1804 28.129 58.1804C28.129 58.1804 28.1855 57.9529 28.4112 57.6686C28.637 57.3273 29.032 56.8724 29.5964 56.3605C30.7816 55.3368 32.757 54.2562 35.3531 53.3463C37.9493 52.4363 41.1663 51.697 44.8348 51.7539C46.6408 51.7539 48.5597 52.0382 50.4786 52.4363C52.3975 52.8344 54.3729 53.2894 56.4611 53.6875C60.5811 54.4269 64.5318 54.7112 68.1439 54.3131C71.6995 53.915 74.86 52.8344 77.2304 51.5264C79.6573 50.2183 81.1811 48.569 82.3663 47.6591C82.9872 47.1472 83.4387 46.8629 83.7773 46.6354C83.9466 46.5216 84.0595 46.4648 84.1724 46.4079C84.2853 46.1235 84.3417 46.0667 84.3417 46.0667Z" fill="#263238"/>
<path d="M83.3257 44.8726C83.3257 44.8726 83.3257 44.9294 83.2693 44.9863C83.2129 45.1 83.1 45.2138 82.9871 45.3275C82.7614 45.6119 82.4227 46.0669 81.9148 46.6356C80.9553 47.7162 79.4879 49.3086 77.2868 50.7873C75.0857 52.2091 72.0381 53.2896 68.5389 53.4034C65.0397 53.574 61.2583 52.8347 57.4769 51.5266C55.6145 50.901 53.752 50.1617 52.0024 49.6498C50.1964 49.138 48.4468 48.7399 46.6972 48.7399C45.0041 48.683 43.3673 48.9674 41.8999 49.3655C40.4325 49.7636 39.078 50.1617 37.8364 50.6166C35.4095 51.5266 33.5471 52.5503 32.249 53.2896C31.6282 53.6309 31.1766 53.9721 30.8945 54.2565C30.6123 54.5408 30.4994 54.7114 30.4994 54.7114C30.4994 54.7114 30.6123 54.5408 30.838 54.2565C31.1202 53.9721 31.5717 53.6309 32.1925 53.2328C33.4342 52.4934 35.2966 51.4129 37.7235 50.5029C38.9651 50.0479 40.3197 49.5929 41.7871 49.1948C43.2545 48.7967 44.8912 48.5124 46.6408 48.5693C48.3904 48.5693 50.1964 48.9674 52.0024 49.4792C53.8084 49.9911 55.6145 50.6735 57.5334 51.356C61.2583 52.664 65.0397 53.4034 68.4824 53.2328C71.9252 53.1759 74.9164 52.0953 77.1175 50.7304C79.3186 49.3086 80.786 47.773 81.7455 46.6925C82.2534 46.1237 82.592 45.7256 82.8742 45.4413C82.9871 45.3275 83.1 45.2138 83.1564 45.1C83.2693 44.8726 83.3257 44.8726 83.3257 44.8726Z" fill="#263238"/>
<path d="M92.7512 54.768C92.7512 54.768 93.0334 55.0524 93.5413 55.678C94.0492 56.3036 94.7265 57.3273 95.2909 58.8059C95.5731 59.5453 95.7988 60.3983 95.9117 61.422C96.0246 62.3889 95.9682 63.4694 96.0246 64.6638C96.0246 65.2325 96.0246 65.8581 96.0246 66.4837C96.0246 67.1093 96.081 67.7917 95.9682 68.4173C95.7989 69.7823 95.178 71.1472 94.1057 72.2278V72.1709C94.1057 90.8818 94.1621 123.185 94.1621 164.588V164.645L94.1057 164.702C93.6542 165.157 93.372 165.783 93.372 166.465C93.372 167.147 93.5977 167.887 94.1057 168.399L94.1621 168.455V168.512C94.1621 177.783 94.1621 187.621 94.1621 197.802V197.858V197.915C93.7671 198.484 93.4849 199.223 93.4849 200.02C93.4849 200.816 93.7106 201.612 94.1621 202.294V202.351V202.408C94.1621 208.323 94.1621 214.408 94.1621 220.607C94.1621 222.143 94.2186 223.735 94.1057 225.328C93.9928 226.92 93.7671 228.456 93.3156 230.048C92.9205 231.584 92.3561 233.119 91.6788 234.541C91.3402 235.28 90.9451 235.963 90.4372 236.645C89.9292 237.328 89.3649 237.896 88.744 238.408C87.446 239.432 85.9221 240.114 84.2854 240.399C83.4953 240.569 82.6487 240.569 81.8021 240.569C81.012 240.569 80.1654 240.569 79.3753 240.569C78.5287 240.569 77.7385 240.569 76.892 240.569C76.0454 240.513 75.1988 240.058 74.6909 239.375C74.4087 239.034 74.2394 238.693 74.0136 238.295C73.9008 238.124 73.7879 237.953 73.675 237.84C73.5057 237.726 73.3928 237.612 73.167 237.555C72.8284 237.441 72.3769 237.498 72.0947 237.726C71.9254 237.84 71.8125 237.953 71.6996 238.124C71.5868 238.295 71.5303 238.465 71.4739 238.693C71.1353 239.489 70.4016 240.171 69.555 240.342C69.1035 240.456 68.7084 240.399 68.2569 240.456H67.0153C65.3221 240.456 63.629 240.513 61.9358 240.513C61.0892 240.513 60.2426 240.513 59.3961 240.569H58.098C57.7029 240.569 57.2514 240.569 56.7999 240.513C55.9533 240.399 55.1068 240.001 54.4295 239.489C53.7522 238.92 53.1878 238.181 52.9057 237.328C52.7363 236.93 52.3977 236.588 52.0026 236.532C51.6076 236.418 51.0996 236.588 50.8174 236.873C50.5352 237.214 50.253 237.612 49.9144 238.01C49.6322 238.408 49.35 238.806 48.955 239.148C48.2213 239.83 47.2618 240.228 46.3024 240.399C45.7944 240.456 45.3429 240.456 44.835 240.456H43.3676C42.4081 240.456 41.4487 240.456 40.4328 240.456C39.9248 240.399 39.4733 240.456 38.9654 240.285L38.2317 240.171C38.0059 240.114 37.7802 240.001 37.498 239.944C35.5791 239.375 33.9988 238.067 32.7007 236.532C31.4026 234.996 30.4996 233.176 29.8223 231.299C29.1451 229.422 28.5807 227.489 28.2421 225.498C27.9034 223.508 27.7341 221.46 27.7341 219.47C27.7341 217.422 27.7906 215.432 27.7906 213.385C27.847 208.949 27.9034 204.569 27.9599 200.247V200.304C27.5648 198.882 27.4519 197.403 27.4519 195.925C27.4519 194.446 27.5084 193.024 27.5084 191.546C27.5648 188.645 27.5648 185.745 27.6212 182.901C27.6777 180.057 27.6777 177.157 27.7341 174.313C27.7341 172.892 27.7906 171.47 27.7906 170.048C27.7906 169.309 27.9034 168.569 28.2421 167.944C28.4114 167.602 28.5807 167.318 28.6371 166.977C28.6936 166.636 28.75 166.294 28.6936 165.953C28.6371 165.612 28.5243 165.328 28.4114 164.986C28.2985 164.645 28.2421 164.304 28.1856 163.906C28.1856 163.223 28.1856 162.484 28.1856 161.801C28.1856 160.38 28.1856 159.015 28.1856 157.593C28.1856 154.806 28.1856 152.076 28.1856 149.29C28.1856 143.773 28.1856 138.37 28.1856 133.024C28.1856 111.64 28.1856 91.4506 28.1856 72.8534L28.2421 72.9671C27.5084 72.2278 26.944 71.2609 26.6618 70.2372C26.4925 69.7254 26.436 69.2135 26.436 68.7017C26.436 68.1898 26.436 67.678 26.436 67.1661C26.436 66.1424 26.436 65.1187 26.436 64.095C26.436 63.0713 26.4925 62.0476 26.7182 61.0808C27.1697 59.0903 28.1856 57.2704 29.4837 55.7917C30.7818 54.313 32.0799 52.8912 33.3215 51.4694C38.401 45.7822 43.2547 40.3225 47.8262 35.1471V35.204C47.8262 32.7585 47.8262 30.5404 47.8262 28.4362L47.9391 28.5499C47.7133 28.5499 47.4876 28.5499 47.2618 28.5499C47.0361 28.5499 46.8103 28.4362 46.641 28.3224C46.2459 28.0381 46.0766 27.5831 46.0766 27.185C46.0766 26.73 46.3588 26.3319 46.7539 26.1613C46.9232 26.0475 47.1489 25.9907 47.3747 25.9907H47.9391L47.8262 26.1044C47.8262 24.057 47.8262 22.2371 47.8262 20.4741V20.3603H47.9391C57.6465 20.3035 66.1122 20.2466 73.6186 20.2466H73.675V20.3035C73.675 22.5783 73.675 24.3414 73.675 26.1044L73.6186 26.0475C73.8443 26.0475 74.0701 26.0475 74.2958 26.0475C74.5216 26.1044 74.7473 26.1613 74.9166 26.3319C75.2553 26.6163 75.4246 27.0712 75.3681 27.4693C75.3117 27.8675 75.0295 28.2087 74.6909 28.3793C74.5216 28.493 74.3522 28.493 74.1829 28.5499C74.0136 28.5499 73.8443 28.5499 73.675 28.5499L73.7314 28.493C73.7314 31.2798 73.7314 33.4409 73.7314 35.4883V35.4315C79.8832 41.7443 84.624 46.5784 87.7846 49.877C89.3649 51.5263 90.6065 52.7775 91.3967 53.5737C92.3561 54.3699 92.7512 54.768 92.7512 54.768C92.7512 54.768 92.3561 54.3699 91.5095 53.5168C90.7194 52.6637 89.4777 51.4694 87.8975 49.8201C84.6805 46.5784 79.9396 41.7443 73.7879 35.4315C73.7879 33.3841 73.7879 31.2229 73.7879 28.4362V28.3793H73.8443C74.1829 28.3793 74.5216 28.4362 74.8602 28.2087C75.1424 28.0381 75.4246 27.7537 75.4246 27.4125C75.481 27.0712 75.3681 26.6731 75.0295 26.3888C74.8602 26.275 74.6909 26.1613 74.4651 26.1613C74.2958 26.1044 74.0136 26.1613 73.7879 26.1613H73.7314V26.1044C73.7314 24.3414 73.7314 22.5783 73.7314 20.3035L73.7879 20.3603C66.2815 20.4172 57.8158 20.4741 48.1084 20.5309L48.2213 20.4172C48.2213 22.1802 48.2213 24.0001 48.2213 26.0475V26.1613H48.1084C47.7133 26.1613 47.3182 26.1044 47.0361 26.3319C46.6974 26.5025 46.4717 26.8438 46.4717 27.185C46.4152 27.5831 46.641 27.9243 46.9232 28.1518C47.2618 28.3793 47.6569 28.3224 48.1084 28.3224H48.2213V28.4362C48.2213 30.5973 48.2213 32.7585 48.2213 35.204V35.2608V35.3177C43.6498 40.4931 38.7961 45.8959 33.7166 51.64C32.4185 53.0618 31.1769 54.5405 29.8788 55.9623C28.5807 57.3841 27.6212 59.204 27.1697 61.1377C26.944 62.1045 26.8875 63.1282 26.8875 64.095C26.8875 65.1187 26.8875 66.1424 26.8875 67.1661C26.8875 68.1898 26.8311 69.2135 27.1133 70.2372C27.3955 71.2041 27.9034 72.114 28.6371 72.8534L28.6936 72.9102V72.9671C28.6936 91.5074 28.6936 111.697 28.6936 133.138C28.6936 138.484 28.6936 143.887 28.6936 149.403C28.6936 152.133 28.6936 154.92 28.6936 157.707C28.6936 159.072 28.6936 160.493 28.6936 161.915C28.6936 162.598 28.6936 163.337 28.6936 164.019C28.6936 164.361 28.8065 164.702 28.8629 164.986C28.9758 165.328 29.0886 165.669 29.1451 166.01C29.2015 166.351 29.1451 166.749 29.0886 167.091C29.0322 167.432 28.8064 167.773 28.6936 168.114C28.4114 168.74 28.2985 169.422 28.2985 170.105C28.2985 171.527 28.2421 172.948 28.2421 174.37C28.1856 177.214 28.1856 180.057 28.1292 182.958C28.0727 185.802 28.0728 188.702 28.0163 191.602C28.0163 193.024 27.9599 194.503 27.9599 195.982C27.9599 197.403 28.0727 198.882 28.4114 200.304C28.3549 204.626 28.2985 209.005 28.2421 213.441C28.2421 215.489 28.1856 217.479 28.1856 219.527C28.1856 221.517 28.3549 223.565 28.6936 225.498C29.0322 227.489 29.5402 229.423 30.2174 231.242C30.9511 233.062 31.8541 234.882 33.0958 236.361C34.3374 237.84 35.9177 239.091 37.7237 239.716C39.5297 240.342 41.5051 240.171 43.424 240.228H44.8914C45.3993 240.228 45.8509 240.228 46.3024 240.171C47.2054 240.058 48.1084 239.659 48.7857 239.034C49.1243 238.75 49.4065 238.351 49.6887 237.953C49.9709 237.555 50.253 237.214 50.5917 236.816C50.9867 236.418 51.5511 236.247 52.0591 236.418C52.567 236.532 53.0185 236.93 53.1878 237.385C53.47 238.181 53.978 238.863 54.5988 239.375C55.2196 239.887 56.0098 240.228 56.8563 240.342C57.2514 240.399 57.7029 240.399 58.098 240.399H59.3961C60.2426 240.399 61.0892 240.399 61.9358 240.342C63.629 240.342 65.3221 240.285 67.0153 240.285H68.2569C68.652 240.285 69.1035 240.285 69.4986 240.228C70.2887 240.058 70.9095 239.432 71.2481 238.693C71.361 238.522 71.361 238.295 71.5303 238.124C71.6432 237.896 71.8125 237.726 71.9818 237.612C72.3769 237.328 72.8284 237.271 73.2799 237.385C73.5057 237.441 73.7314 237.555 73.9007 237.726C74.0701 237.896 74.1829 238.067 74.2958 238.238C74.5216 238.579 74.7473 238.977 74.9731 239.261C75.4246 239.887 76.2147 240.285 77.0049 240.342C77.8514 240.342 78.6416 240.342 79.4317 240.342C80.2783 240.342 81.0684 240.342 81.8586 240.342C82.7051 240.342 83.4953 240.342 84.2854 240.171C85.8657 239.887 87.3331 239.205 88.5747 238.238C89.1956 237.726 89.7599 237.157 90.2114 236.532C90.6629 235.906 91.058 235.167 91.3967 234.484C92.0739 233.062 92.6383 231.527 93.0334 230.048C93.4284 228.513 93.7106 226.977 93.7671 225.385C93.8799 223.849 93.8235 222.257 93.8235 220.721C93.8235 214.522 93.8235 208.437 93.8235 202.522V202.579C93.3156 201.839 93.0898 200.986 93.0898 200.133C93.0898 199.28 93.372 198.484 93.8235 197.858V197.915C93.8235 187.735 93.8235 177.896 93.8235 168.626L93.8799 168.683C93.3156 168.114 93.0334 167.318 93.0334 166.579C93.0334 165.839 93.372 165.1 93.8799 164.645L93.8235 164.702C93.8799 123.356 93.8799 91.0525 93.8799 72.2846C94.9523 71.2609 95.5731 69.8391 95.7424 68.5311C95.7989 67.8486 95.7988 67.223 95.7988 66.5974C95.7988 65.9718 95.7988 65.3462 95.7988 64.7775C95.7988 63.5832 95.8553 62.5026 95.7424 61.5358C95.6295 60.569 95.4038 59.7159 95.1216 58.9765C94.5572 57.4979 93.8799 56.4742 93.372 55.8486C93.1462 55.5073 92.9205 55.2798 92.8076 55.1661C92.8076 54.8817 92.7512 54.768 92.7512 54.768Z" fill="#263238"/>
<path d="M73.9005 25.8769C73.9005 25.9338 68.1437 26.0476 61.0325 26.1044C53.9213 26.1613 48.1646 26.1044 48.1646 26.0476C48.1646 25.9907 53.9213 25.8769 61.0325 25.8201C68.1437 25.7632 73.9005 25.7632 73.9005 25.8769Z" fill="#263238"/>
<path d="M74.5213 28.3796C74.5213 28.4365 68.5953 28.5502 61.3711 28.5502C54.0906 28.5502 48.1646 28.4933 48.1646 28.3796C48.1646 28.3227 54.0906 28.209 61.3711 28.209C68.6517 28.2659 74.5213 28.3227 74.5213 28.3796Z" fill="#263238"/>
<path d="M73.7876 30.4836C73.7876 30.5405 68.0309 30.6542 60.9761 30.6542C53.9213 30.6542 48.1646 30.5974 48.1646 30.4836C48.1646 30.3699 53.9213 30.313 60.9761 30.313C68.0873 30.313 73.7876 30.3699 73.7876 30.4836Z" fill="#263238"/>
<path d="M73.7876 32.5315C73.7876 32.5883 68.0309 32.7021 60.9761 32.7021C53.9213 32.7021 48.1646 32.6452 48.1646 32.5315C48.1646 32.4746 53.9213 32.3608 60.9761 32.3608C68.0873 32.3608 73.7876 32.4177 73.7876 32.5315Z" fill="#263238"/>
<path d="M48.1648 28.4363C48.5599 29.1187 49.2371 29.5737 49.9708 29.8012C50.7045 30.0287 51.4947 30.0287 52.2848 30.0856C59.001 30.2562 65.7171 29.9718 72.3769 29.2894C72.9413 29.2325 73.5621 29.0619 73.7314 28.55C72.6591 28.4932 71.5867 28.4932 70.5144 28.4932C64.1369 28.4932 57.7029 28.4932 51.3254 28.55C50.1401 28.55 49.0114 28.55 47.8262 28.55" fill="#E0E0E0"/>
<path d="M43.7061 24.2282V4.55039C43.7061 4.55039 43.5368 0.569336 61.202 0.569336C77.287 0.569336 77.2305 5.17598 77.2305 5.17598V24.2282H43.7061Z" fill="#E8505B"/>
<path d="M45.9073 20.304C45.8509 20.304 45.738 16.8917 45.738 12.74C45.738 8.58836 45.7945 5.17603 45.9073 5.17603C45.9638 5.17603 46.0767 8.58836 46.0767 12.74C46.0767 16.9486 46.0202 20.304 45.9073 20.304Z" fill="#263238"/>
<path d="M48.8986 20.3039C48.8421 20.3039 48.7292 16.7209 48.7292 12.3417C48.7292 7.90571 48.7857 4.37964 48.8986 4.37964C48.955 4.37964 49.0679 7.96259 49.0679 12.3417C49.0679 16.7209 49.0114 20.3039 48.8986 20.3039Z" fill="#263238"/>
<path d="M51.8335 20.3039C51.7771 20.3039 51.6642 16.6073 51.6642 12.0006C51.6642 7.45083 51.7206 3.69727 51.8335 3.69727C51.9464 3.69727 52.0028 7.39396 52.0028 12.0006C51.9464 16.6073 51.8899 20.3039 51.8335 20.3039Z" fill="#263238"/>
<path d="M54.7119 20.3041C54.6555 20.3041 54.5426 16.4937 54.5426 11.8302C54.5426 7.16664 54.599 3.3562 54.7119 3.3562C54.7684 3.3562 54.8812 7.16664 54.8812 11.8302C54.8248 16.4937 54.7684 20.3041 54.7119 20.3041Z" fill="#263238"/>
<path d="M57.5901 20.3041C57.5337 20.3041 57.4208 16.4937 57.4208 11.8302C57.4208 7.16664 57.4772 3.3562 57.5901 3.3562C57.703 3.3562 57.7594 7.16664 57.7594 11.8302C57.703 16.4937 57.6465 20.3041 57.5901 20.3041Z" fill="#263238"/>
<path d="M60.4684 20.3041C60.412 20.3041 60.2991 16.4937 60.2991 11.8302C60.2991 7.16664 60.3555 3.3562 60.4684 3.3562C60.5813 3.3562 60.6377 7.16664 60.6377 11.8302C60.6377 16.4937 60.5248 20.3041 60.4684 20.3041Z" fill="#263238"/>
<path d="M63.3467 20.3041C63.2902 20.3041 63.1774 16.4937 63.1774 11.8302C63.1774 7.16664 63.2338 3.3562 63.3467 3.3562C63.4031 3.3562 63.516 7.16664 63.516 11.8302C63.516 16.4937 63.4596 20.3041 63.3467 20.3041Z" fill="#263238"/>
<path d="M66.2251 20.3041C66.1687 20.3041 66.0558 16.4937 66.0558 11.8302C66.0558 7.16664 66.1122 3.3562 66.2251 3.3562C66.2815 3.3562 66.3944 7.16664 66.3944 11.8302C66.3944 16.4937 66.338 20.3041 66.2251 20.3041Z" fill="#263238"/>
<path d="M69.1034 20.304C69.047 20.304 68.9341 16.6642 68.9341 12.1144C68.9341 7.56463 68.9905 3.9248 69.1034 3.9248C69.2163 3.9248 69.2727 7.56463 69.2727 12.1144C69.2727 16.6642 69.2163 20.304 69.1034 20.304Z" fill="#263238"/>
<path d="M72.0383 20.3041C71.9819 20.3041 71.869 16.7781 71.869 12.4558C71.869 8.1335 71.9255 4.60742 72.0383 4.60742C72.0948 4.60742 72.2077 8.1335 72.2077 12.4558C72.1512 16.7781 72.0948 20.3041 72.0383 20.3041Z" fill="#263238"/>
<path d="M74.9167 20.3041C74.8603 20.3041 74.7474 17.0055 74.7474 12.9107C74.7474 8.81592 74.8039 5.51733 74.9167 5.51733C74.9732 5.51733 75.0861 8.81592 75.0861 12.9107C75.0296 17.0055 74.9732 20.3041 74.9167 20.3041Z" fill="#263238"/>
<path d="M76.1018 5.91536C76.1018 5.91536 75.9889 5.91536 75.7632 5.85849C75.5374 5.80162 75.2552 5.68787 74.8602 5.57413C74.4651 5.46038 74.0136 5.28977 73.4492 5.11915C72.8848 4.94853 72.264 4.77792 71.5303 4.6073C70.7966 4.43668 70.0629 4.26607 69.2163 4.09545C68.3698 3.92484 67.4667 3.81109 66.5073 3.64047C64.5884 3.41298 62.5002 3.1855 60.2426 3.1855C58.0415 3.1855 55.8969 3.35611 53.978 3.5836C53.0185 3.69735 52.1155 3.81109 51.2689 3.98171C50.4223 4.09545 49.6322 4.32294 48.9549 4.49356C48.2212 4.66417 47.6004 4.83479 47.036 5.00541C46.4716 5.17602 46.0201 5.28977 45.6251 5.40351C45.23 5.51726 44.9478 5.631 44.7221 5.68787C44.4963 5.74474 44.3834 5.74474 44.3834 5.74474C44.3834 5.74474 44.4963 5.68787 44.6656 5.631C44.8914 5.57413 45.1736 5.46038 45.5686 5.28977C45.9637 5.17602 46.4152 5.00541 46.9796 4.83479C47.544 4.66417 48.1648 4.49356 48.8985 4.32294C49.6322 4.15232 50.3659 3.92484 51.2689 3.81109C52.1155 3.64047 53.0185 3.52673 53.978 3.35611C55.8969 3.12862 58.0415 2.95801 60.2991 2.95801C62.5566 2.95801 64.6448 3.1855 66.6202 3.41298C67.5796 3.5836 68.4826 3.69734 69.3292 3.92483C70.1758 4.09545 70.9659 4.26607 71.6432 4.49356C72.3769 4.66417 72.9977 4.89166 73.5621 5.06228C74.1265 5.23289 74.578 5.40351 74.973 5.51726C75.3117 5.631 75.6503 5.74474 75.8761 5.85849C75.9889 5.85849 76.1018 5.91536 76.1018 5.91536Z" fill="#263238"/>
<path d="M76.2713 20.3608C76.2713 20.4177 69.2729 20.5314 60.6378 20.5314C52.0028 20.5314 45.0044 20.4745 45.0044 20.3608C45.0044 20.2471 52.0028 20.1902 60.6378 20.1902C69.2729 20.1902 76.2713 20.3039 76.2713 20.3608Z" fill="#263238"/>
<path d="M97.5224 100.665H25.7279V124.65V147.641H97.5224C97.5224 147.641 97.9847 141.246 97.5224 124.65C97.0601 108.054 97.5224 100.665 97.5224 100.665Z" fill="white"/>
<path d="M94.1057 100.664H28.5243C28.5243 100.664 34.1736 108.693 34.1736 124.65C34.1736 140.607 28.5243 147.641 28.5243 147.641H94.1057C94.1057 147.641 88.2264 141.246 87.8041 124.65C87.3818 108.054 94.1057 100.664 94.1057 100.664Z" fill="#E8505B"/>
<path d="M34.8832 144.442C34.8268 144.442 39.2412 136.081 39.2412 125.731C39.2412 115.38 34.7703 107.02 34.8832 107.02C34.9396 107.02 37.5519 115.38 37.5519 125.731C37.5519 136.025 34.9396 144.442 34.8832 144.442Z" fill="white"/>
<path d="M26.0814 126.566C26.2767 126.37 26.2767 126.054 26.0814 125.859L22.8994 122.677C22.7042 122.481 22.3876 122.481 22.1923 122.677C21.9971 122.872 21.9971 123.188 22.1923 123.384L25.0208 126.212L22.1923 129.041C21.9971 129.236 21.9971 129.552 22.1923 129.748C22.3876 129.943 22.7042 129.943 22.8994 129.748L26.0814 126.566ZM0.0976562 126.712H25.7279V125.712H0.0976562V126.712Z" fill="black"/>
<path d="M98.2067 125.859C98.0114 126.054 98.0114 126.37 98.2067 126.566L101.389 129.748C101.584 129.943 101.9 129.943 102.096 129.748C102.291 129.552 102.291 129.236 102.096 129.041L99.2673 126.212L102.096 123.384C102.291 123.188 102.291 122.872 102.096 122.677C101.9 122.481 101.584 122.481 101.389 122.677L98.2067 125.859ZM124.19 125.712H98.5602V126.712H124.19V125.712Z" fill="black"/>
</svg>
