<svg width="96" height="254" viewBox="0 0 96 254" fill="none" xmlns="http://www.w3.org/2000/svg">
<path d="M77.7767 67.5717L58.6512 48.2351V41.2398H59.0508C59.6217 41.2398 60.1926 40.8417 60.3068 40.273C60.421 39.5337 59.8501 38.8512 59.1079 38.8512H58.5941V32.9934L32.6177 33.164V38.7943H32.1039C31.533 38.7943 30.9621 39.1924 30.8479 39.7612C30.7337 40.5005 31.3046 41.183 32.0468 41.183H32.6177V47.9508L13.8919 68.766C12.0079 70.8702 10.9802 73.6001 10.9802 76.3868V81.221C10.9802 82.8703 11.6082 84.4627 12.8071 85.6001V176.425C12.8071 176.937 12.9213 177.449 13.1497 177.961C13.4351 178.757 13.378 179.61 12.9784 180.349C12.6359 181.032 12.4075 181.771 12.4075 182.51L12.122 208.785C12.122 210.15 12.2362 211.515 12.6359 212.823L12.4075 231.591C12.3504 234.662 12.693 237.676 13.4922 240.634C14.9195 246.037 18.1166 252.861 25.3672 252.861H30.3341C31.8184 252.861 33.1886 252.179 34.1021 250.984L35.2439 249.506C35.929 248.596 37.3563 248.823 37.7559 249.904C38.441 251.838 40.325 253.089 42.3232 253.032L53.7985 252.861C54.9974 252.861 55.9679 252.008 56.3105 250.871C56.7101 249.733 58.2516 249.563 58.8796 250.586L59.5647 251.61C60.1356 252.463 61.049 252.975 62.0196 252.975H67.5574C71.097 252.975 74.4083 251.041 76.121 247.97C76.1781 247.913 76.1781 247.857 76.2352 247.8C78.1763 244.16 79.1469 240.065 79.1469 235.97V214.984C78.1763 213.619 78.1763 211.8 79.1469 210.435V181.145C78.1192 180.122 78.0621 178.472 79.0327 177.392L79.1469 177.278V146.624V84.9745L79.261 84.8608C80.4029 83.7234 81.088 82.1309 81.088 80.4816V75.5906C81.088 72.6333 79.889 69.7328 77.7767 67.5717Z" fill="#F5F5F5"/>
<path d="M68.9839 70.8132C72.9231 69.9033 76.8053 72.8038 76.8624 76.8417V76.8986V81.3346C76.8624 82.8133 76.2915 84.2919 75.2639 85.3156L75.1497 85.4294V141.79V169.771L75.0355 169.885C74.1792 170.851 74.2362 172.387 75.1497 173.297V200.027C74.2933 201.278 74.2933 202.927 75.1497 204.178V223.344C75.1497 227.098 74.2933 230.852 72.5806 234.15C72.5806 234.207 72.5235 234.264 72.5235 234.321C71.0392 237.164 68.1275 238.871 64.9875 238.871H60.0777L52.7129 238.757L42.5507 238.927L31.9318 238.757H27.5358C21.1416 238.757 18.2871 232.558 17.0311 227.61C16.346 224.937 16.0605 222.15 16.1176 219.363L16.346 202.245C16.0034 201.051 15.8892 199.799 15.8892 198.548L16.1747 174.548C16.1747 173.866 16.346 173.183 16.6885 172.558C17.0311 171.875 17.0882 171.079 16.8027 170.34C16.6314 169.885 16.5173 169.43 16.5173 168.975V86.1119C15.4896 85.0313 14.9187 83.6095 14.9187 82.1308V77.6948V77.6379C14.9187 73.7706 17.7732 70.472 21.5983 69.6189C25.5376 68.7658 31.8747 67.9696 38.0976 69.6189C48.3169 72.2919 48.4882 73.7706 55.7958 73.145C59.8493 72.7469 65.1588 71.6663 68.9839 70.8132Z" fill="#E8505B"/>
<path opacity="0.5" d="M68.9839 70.8132C72.9231 69.9033 76.8053 72.8038 76.8624 76.8417V76.8986V81.3346C76.8624 82.8133 76.2915 84.2919 75.2639 85.3156L75.1497 85.4294L75.2639 137.241L75.1497 169.771L75.0355 169.885C74.1791 170.851 74.2362 172.387 75.1497 173.297V200.027C74.2933 201.278 74.2933 202.927 75.1497 204.178V223.344C75.1497 227.098 74.2933 230.852 72.5806 234.15C72.5806 234.207 72.5235 234.264 72.5235 234.321C71.0391 237.164 68.1275 238.871 64.9875 238.871H60.0777L52.7129 238.757L42.5507 238.927L31.9318 238.757H27.5358C21.1416 238.757 18.2871 232.558 17.0311 227.61C16.346 224.937 16.0605 222.15 16.1176 219.363L16.346 202.245C16.0034 201.051 15.8892 199.799 15.8892 198.548L16.1747 174.548C16.1747 173.866 16.346 173.183 16.6885 172.558C17.0311 171.875 17.0882 171.079 16.8027 170.34C16.6314 169.885 16.5173 169.43 16.5173 168.975V86.1119C15.4896 85.0313 14.9187 83.6095 14.9187 82.1308V77.6948V77.6379C14.9187 73.7706 17.7732 70.472 21.5983 69.6189C25.5376 68.7658 31.8747 67.9696 38.0976 69.6189C48.3169 72.2919 48.4882 73.7706 55.7958 73.145C59.8493 72.7469 65.1588 71.6663 68.9839 70.8132Z" fill="white"/>
<path d="M79.8312 85.657C79.8312 85.7139 64.8733 85.8277 46.3758 85.8277C27.8784 85.8277 12.9205 85.7708 12.9205 85.657C12.9205 85.6002 27.8784 85.4864 46.3758 85.4864C64.8162 85.4864 79.8312 85.5433 79.8312 85.657Z" fill="#263238"/>
<path d="M16.5743 124.614C19.7714 117.903 26.1656 112.728 33.4733 111.022C40.3242 109.429 47.746 110.68 54.3115 108.064C61.1624 105.335 65.6726 98.908 69.2122 92.4814C70.5824 89.979 72.2951 87.1923 75.1497 86.851C74.4075 88.8416 75.6064 91.2302 74.6359 93.0501C74.2933 93.6757 73.7224 94.1876 73.2086 94.6425C69.098 98.5098 66.4148 103.571 64.074 108.69C62.6468 111.818 61.2195 115.173 58.5362 117.391C56.5951 118.984 54.1402 119.894 51.6853 120.349C45.3482 121.486 38.5544 119.951 32.5598 122.226C27.9354 123.932 24.3958 127.742 21.9409 132.008C19.486 136.273 18.1158 140.993 16.6885 145.714" fill="white"/>
<path d="M76.9194 78.7184C76.9194 78.889 75.8917 79.0028 74.179 79.7421C72.4663 80.4815 70.2397 82.017 68.0703 84.5763C66.9855 85.8274 65.9008 87.3061 64.8161 88.9554C63.7314 90.6047 62.6466 92.4246 61.3906 94.3583C60.1346 96.2351 58.7073 98.2256 56.8233 99.9317C54.9964 101.695 52.7128 103.117 50.2008 104.083C47.6888 105.05 45.0626 105.505 42.4935 105.505C39.9815 105.448 37.6408 105.05 35.4713 105.05C31.1324 104.993 27.2502 106.301 24.3386 107.894C22.8542 108.69 21.6553 109.543 20.6276 110.396C19.6 111.192 18.8007 112.046 18.1156 112.671C16.8596 114.036 16.2316 114.889 16.1175 114.832C16.0604 114.775 16.1745 114.548 16.4029 114.093C16.6313 113.638 17.0309 113.012 17.6018 112.216C18.2298 111.477 18.972 110.567 19.9996 109.657C21.0273 108.69 22.2262 107.723 23.7677 106.87C26.7364 105.107 30.7898 103.572 35.4713 103.515C37.812 103.515 40.1528 103.856 42.4935 103.856C44.8342 103.856 47.2891 103.401 49.5728 102.491C51.9135 101.581 53.9688 100.273 55.6815 98.6806C57.3943 97.0881 58.8215 95.2682 60.0775 93.4483C61.3335 91.6284 62.4753 89.8085 63.6172 88.1592C64.759 86.5099 65.9008 84.9744 67.1568 83.7232C69.5546 81.1639 72.0666 79.6853 73.8936 79.1165C75.8346 78.5478 76.9194 78.6616 76.9194 78.7184Z" fill="white"/>
<path d="M16.2889 200.879C18.6867 198.491 22.4547 198.036 25.8231 198.434C29.1914 198.832 32.5027 199.912 35.8711 199.912C40.5525 199.912 45.234 197.808 48.3169 194.282C49.4587 192.974 50.3722 191.495 51.514 190.13C54.3115 186.832 58.3078 184.557 62.5896 183.818C64.5307 183.476 66.5289 183.476 68.2987 182.737C72.0097 181.258 73.8937 177.277 75.4922 173.638C75.2638 179.609 74.9784 185.524 74.75 191.495C68.4129 190.301 62.4184 194.396 57.4515 198.491C52.4845 202.585 47.118 207.192 40.6667 207.192C37.2412 207.192 33.8729 205.884 30.4474 205.998C23.9961 206.225 18.858 211.287 14.519 216.007" fill="white"/>
<path d="M76.9195 173.297C76.9195 173.411 75.949 173.468 74.2934 173.923C73.437 174.093 72.4665 174.491 71.3246 174.946C70.2399 175.458 68.9839 176.141 67.7279 176.994C66.4719 177.847 65.1017 178.871 63.7886 180.065C62.4184 181.259 61.0483 182.624 59.5639 184.103C58.0795 185.581 56.5381 187.117 54.7682 188.596C52.9984 190.074 51.0573 191.496 48.8308 192.634C46.6042 193.771 44.2064 194.397 41.8657 194.624C39.5249 194.852 37.2984 194.795 35.2431 194.738C33.1878 194.624 31.1897 194.51 29.3628 194.51C27.5358 194.51 25.8802 194.624 24.3387 194.852C22.8544 195.079 21.4842 195.42 20.3424 195.875C19.2006 196.33 18.2871 196.842 17.602 197.297C16.1747 198.264 15.5467 199.003 15.4325 198.946C15.3755 198.89 15.8322 197.98 17.2024 196.785C17.8875 196.217 18.8009 195.591 19.9998 195.022C21.1416 194.454 22.5689 193.999 24.1104 193.714C25.7089 193.373 27.4217 193.202 29.3057 193.145C31.1897 193.089 33.1878 193.202 35.2431 193.259C37.2984 193.316 39.4679 193.316 41.6373 193.089C43.8068 192.861 45.9762 192.235 48.0315 191.212C50.0868 190.188 51.9708 188.823 53.6264 187.458C55.3392 186.036 56.8806 184.558 58.365 183.136C59.8493 181.714 61.3337 180.349 62.761 179.155C64.1883 177.961 65.6155 176.937 66.9857 176.141C68.3559 175.288 69.669 174.662 70.8679 174.264C72.0668 173.866 73.1515 173.581 74.0079 173.468C75.949 173.013 76.9195 173.183 76.9195 173.297Z" fill="white"/>
<path d="M16.1178 230.283C22.8545 234.321 31.7036 233.126 38.6687 229.543C45.6338 225.96 51.2287 220.216 57.052 214.927C62.8753 209.638 69.2124 204.519 76.8626 202.643C76.1775 201.733 75.7778 200.595 75.7207 199.458C66.9287 203.325 57.9084 207.306 51.1716 214.131C48.8309 216.463 46.8327 219.136 44.2065 221.24C41.6945 223.23 38.7829 224.538 35.8142 225.676C29.8767 228.008 23.4254 229.771 17.0883 228.918C16.5745 228.861 16.0036 228.804 15.661 229.202C15.3185 229.6 15.8894 230.339 16.232 229.941" fill="white"/>
<path d="M66.0153 167.325C66.0153 168.292 65.2161 169.088 64.2455 169.088C63.275 169.088 62.4757 168.292 62.4757 167.325C62.4757 166.358 63.275 165.562 64.2455 165.562C65.2161 165.562 66.0153 166.358 66.0153 167.325Z" fill="white"/>
<path d="M57.3372 171.022C57.3372 171.534 56.9376 171.875 56.4809 171.875C55.9671 171.875 55.6245 171.477 55.6245 171.022C55.6245 170.51 56.0241 170.169 56.4809 170.169C56.9947 170.169 57.3372 170.567 57.3372 171.022Z" fill="white"/>
<path d="M37.3556 219.818C37.8286 219.818 38.212 219.436 38.212 218.965C38.212 218.494 37.8286 218.112 37.3556 218.112C36.8827 218.112 36.4993 218.494 36.4993 218.965C36.4993 219.436 36.8827 219.818 37.3556 219.818Z" fill="white"/>
<path d="M79.1463 181.6C79.1463 181.657 64.1314 181.771 45.6339 181.771C27.1364 181.771 12.1215 181.714 12.1215 181.6C12.1215 181.486 27.1364 181.43 45.6339 181.43C64.1314 181.486 79.1463 181.543 79.1463 181.6Z" fill="#263238"/>
<path d="M78.9748 211.003C78.9748 211.06 64.017 211.174 45.5195 211.174C27.022 211.174 12.0642 211.117 12.0642 211.003C12.0642 210.946 27.022 210.833 45.5195 210.833C64.017 210.889 78.9748 210.946 78.9748 211.003Z" fill="#263238"/>
<path d="M79.3743 215.382C79.3743 215.439 64.4164 215.553 45.9189 215.553C27.4215 215.553 12.4636 215.496 12.4636 215.382C12.4636 215.325 27.4215 215.212 45.9189 215.212C64.4164 215.212 79.3743 215.269 79.3743 215.382Z" fill="#263238"/>
<path d="M79.1461 177.108C79.1461 177.165 64.3596 177.278 46.0905 177.278C27.8214 177.278 13.0348 177.221 13.0348 177.108C13.0348 177.051 27.8214 176.937 46.0905 176.937C64.3025 176.937 79.1461 176.994 79.1461 177.108Z" fill="#263238"/>
<path d="M41.0666 253.032C41.0666 253.032 40.8953 253.032 40.5528 252.862C40.2673 252.748 39.8106 252.464 39.411 252.065C38.4975 251.212 37.7553 249.791 36.899 248.198C36.0426 246.606 35.2433 245.184 34.6724 244.16C34.1015 243.137 33.816 242.454 33.816 242.454C33.816 242.454 34.2157 243.023 34.8437 244.046C35.4146 245.07 36.271 246.492 37.1273 248.028C37.9837 249.563 38.7259 251.042 39.5251 251.895C40.3244 252.805 41.0666 252.975 41.0666 253.032Z" fill="#263238"/>
<path d="M59.7354 242.34C59.7925 242.34 59.6783 242.852 59.4499 243.591C59.2215 244.387 58.879 245.411 58.4223 246.605C57.9656 247.743 57.5088 248.767 57.1663 249.506C56.8237 250.245 56.5954 250.7 56.5383 250.643C56.4812 250.643 56.6525 250.132 56.995 249.392C57.3376 248.539 57.7372 247.572 58.1368 246.435C58.5365 245.354 58.9361 244.331 59.2216 243.477C59.507 242.795 59.6783 242.34 59.7354 242.34Z" fill="#263238"/>
<path d="M78.9749 222.093C78.9749 222.093 78.9178 222.15 78.8036 222.207C78.6895 222.321 78.5753 222.435 78.3469 222.548C77.9473 222.833 77.3764 223.288 76.6342 223.856C75.1498 224.994 72.9233 226.586 70.0116 228.292C68.5843 229.145 66.9287 230.055 65.1589 230.908C63.332 231.762 61.3909 232.558 59.2214 233.127C54.8825 234.264 49.8585 234.662 44.7774 233.468C42.2654 232.899 39.8676 231.875 37.8123 230.624C35.757 229.373 33.9301 227.837 32.2174 226.359C30.5617 224.88 28.9632 223.458 27.4788 222.207C25.9374 220.956 24.453 219.875 23.0257 219.022C20.1141 217.259 17.4879 216.52 15.6039 216.349C14.6904 216.292 13.9483 216.292 13.4344 216.292C13.2061 216.292 13.0348 216.349 12.8635 216.349C12.7494 216.349 12.6923 216.349 12.6923 216.349C12.6923 216.349 12.7494 216.349 12.8635 216.292C12.9777 216.292 13.2061 216.235 13.4344 216.235C13.9483 216.179 14.6904 216.179 15.6039 216.235C17.4879 216.406 20.2283 217.089 23.1399 218.852C24.6243 219.705 26.1087 220.785 27.6501 222.036C29.1916 223.288 30.733 224.709 32.4457 226.188C34.1014 227.667 35.9283 229.145 37.9836 230.397C40.0388 231.648 42.3796 232.615 44.8916 233.183C49.9156 234.321 54.8825 233.98 59.1643 232.842C61.3338 232.273 63.2749 231.477 65.1018 230.681C66.8716 229.828 68.5273 228.975 69.9545 228.122C72.8662 226.416 75.0927 224.823 76.6342 223.743C77.3764 223.174 77.9473 222.776 78.404 222.435C78.5753 222.321 78.7465 222.207 78.8607 222.093C78.9178 222.15 78.9749 222.093 78.9749 222.093Z" fill="#263238"/>
<path d="M79.1463 221.411C79.1463 221.411 79.0892 221.468 79.0321 221.525C78.9179 221.639 78.8038 221.752 78.6325 221.866C78.4612 222.037 78.2329 222.207 77.9474 222.435C77.6619 222.662 77.3194 222.89 76.9769 223.174C75.4925 224.312 73.2659 225.79 70.2972 227.383C68.8128 228.179 67.1572 228.918 65.3303 229.658C63.5034 230.397 61.5052 231.079 59.3357 231.534C58.7648 231.648 58.251 231.762 57.6801 231.819C57.3946 231.876 57.1092 231.876 56.8237 231.933C56.5383 231.933 56.2528 231.933 55.9674 231.933C54.8256 231.933 53.6266 231.876 52.4277 231.819C50.0299 231.648 47.5179 231.364 45.063 230.681C42.6081 229.999 40.3244 228.918 38.4404 227.383C36.5564 225.904 34.9579 224.198 33.4164 222.605C31.875 221.07 30.3335 219.648 28.6779 218.624C27.0222 217.544 25.3666 216.805 23.7681 216.35C20.628 215.383 17.8877 215.269 16.0037 215.383C15.5469 215.383 15.1473 215.44 14.7477 215.496C14.4051 215.553 14.1197 215.553 13.8342 215.61C13.6059 215.667 13.4346 215.667 13.2633 215.724C13.1491 215.724 13.092 215.724 13.092 215.724C13.092 215.724 14.0626 215.44 15.9466 215.269C17.7735 215.098 20.571 215.155 23.7681 216.122C25.3666 216.634 27.0793 217.373 28.735 218.397C30.3906 219.421 31.9892 220.842 33.5306 222.435C35.0721 223.97 36.6706 225.677 38.4975 227.155C40.3815 228.634 42.6081 229.715 45.063 230.397C47.5179 231.079 49.9728 231.364 52.3706 231.534C53.5695 231.591 54.7114 231.648 55.9103 231.648C56.1957 231.648 56.4812 231.648 56.7666 231.648C57.0521 231.648 57.3376 231.591 57.623 231.534C58.1939 231.478 58.7077 231.364 59.2786 231.25C61.4481 230.795 63.3892 230.113 65.2161 229.43C67.043 228.691 68.6987 227.951 70.1259 227.155C73.0947 225.62 75.3212 224.141 76.8056 223.06C77.2052 222.776 77.4907 222.549 77.7761 222.321C78.0616 222.094 78.2899 221.923 78.4612 221.752C78.6325 221.639 78.8038 221.525 78.9179 221.411C79.0892 221.468 79.1463 221.411 79.1463 221.411Z" fill="#263238"/>
<path d="M79.089 85.373C79.089 85.4299 64.3025 85.5436 46.0333 85.5436C27.7642 85.5436 12.9777 85.4867 12.9777 85.373C12.9777 85.3161 27.7642 85.2024 46.0333 85.2024C64.3025 85.2024 79.089 85.2592 79.089 85.373Z" fill="#263238"/>
<path d="M69.2694 58.8703C69.2694 58.8703 69.0981 58.984 68.7555 59.2115C68.413 59.439 67.9563 59.7802 67.3283 60.2921C66.7574 60.8039 66.0723 61.4295 65.2159 62.1689C64.3595 62.8513 63.3319 63.6475 62.133 64.33C59.7352 65.6949 56.5381 66.7755 52.8842 67.2305C49.2304 67.6855 45.177 67.4011 41.0093 66.6618C38.897 66.3205 36.8988 65.8087 34.9577 65.4106C33.0166 65.0125 31.1326 64.785 29.3057 64.7281C25.6519 64.6712 22.3977 65.3537 19.7715 66.2637C17.2024 67.1736 15.1471 68.1973 14.0053 69.221C13.4344 69.7329 13.0347 70.1878 12.7493 70.4722C12.5209 70.8134 12.4067 70.984 12.4067 70.984C12.4067 70.984 12.4638 70.7566 12.6922 70.4722C12.9206 70.131 13.3202 69.676 13.8911 69.1641C15.09 68.1404 17.0882 67.0599 19.7144 66.1499C22.3406 65.24 25.5948 64.5006 29.3057 64.5575C31.1326 64.5575 33.0737 64.8418 35.0148 65.24C36.9559 65.6381 38.9541 66.093 41.0664 66.4911C45.2341 67.2305 49.2304 67.5148 52.8842 67.1167C56.481 66.7186 59.6781 65.6381 62.0759 64.33C64.5308 63.0219 66.0723 61.3726 67.2712 60.4627C67.8992 59.9508 68.3559 59.6665 68.6985 59.439C68.8697 59.3252 68.9839 59.2684 69.0981 59.2115C69.2123 58.9271 69.2694 58.8703 69.2694 58.8703Z" fill="#263238"/>
<path d="M68.2417 57.6761C68.2417 57.6761 68.2417 57.733 68.1846 57.7899C68.1275 57.9036 68.0134 58.0174 67.8992 58.1311C67.6708 58.4155 67.3283 58.8705 66.8145 59.4392C65.8439 60.5198 64.3595 62.1122 62.133 63.5909C59.9064 65.0127 56.8235 66.0932 53.2839 66.207C49.7442 66.3776 45.9191 65.6383 42.094 64.3302C40.21 63.7046 38.326 62.9653 36.5562 62.4534C34.7293 61.9416 32.9595 61.5434 31.1897 61.5434C29.4769 61.4866 27.8213 61.7709 26.3369 62.169C24.8526 62.5672 23.4824 62.9653 22.2264 63.4202C19.7715 64.3302 17.8875 65.3539 16.5744 66.0932C15.9464 66.4345 15.4897 66.7757 15.2042 67.0601C14.9187 67.3444 14.8046 67.515 14.8046 67.515C14.8046 67.515 14.9187 67.3444 15.1471 67.0601C15.4326 66.7757 15.8893 66.4345 16.5173 66.0364C17.7733 65.297 19.6573 64.2164 22.1122 63.3065C23.3682 62.8515 24.7384 62.3965 26.2228 61.9984C27.7071 61.6003 29.3628 61.316 31.1326 61.3728C32.9024 61.3728 34.7293 61.7709 36.5562 62.2828C38.3831 62.7946 40.2101 63.4771 42.1511 64.1596C45.9191 65.4676 49.7442 66.207 53.2268 66.0364C56.7093 65.9795 59.7352 64.8989 61.9617 63.534C64.1883 62.1122 65.6726 60.5766 66.6432 59.4961C67.157 58.9273 67.4995 58.5292 67.785 58.2449C67.8992 58.1311 68.0134 58.0174 68.0704 57.9036C68.1846 57.6761 68.2417 57.6761 68.2417 57.6761Z" fill="#263238"/>
<path d="M77.7761 67.5717C77.7761 67.5717 78.0616 67.856 78.5754 68.4816C79.0892 69.1072 79.7743 70.1309 80.3452 71.6096C80.6307 72.3489 80.859 73.202 80.9732 74.2257C81.0874 75.1926 81.0303 76.2731 81.0874 77.4674C81.0874 78.0362 81.0874 78.6618 81.0874 79.2874C81.0874 79.9129 81.1445 80.5954 81.0303 81.221C80.8591 82.5859 80.231 83.9509 79.1463 85.0314V84.9746C79.1463 103.686 79.2034 135.989 79.2034 177.392V177.449L79.1463 177.506C78.6896 177.961 78.4041 178.586 78.4041 179.269C78.4041 179.951 78.6325 180.69 79.1463 181.202L79.2034 181.259V181.316C79.2034 190.586 79.2034 200.425 79.2034 210.605V210.662V210.719C78.8038 211.288 78.5183 212.027 78.5183 212.823C78.5183 213.619 78.7467 214.416 79.2034 215.098V215.155V215.212C79.2034 221.127 79.2034 227.212 79.2034 233.411C79.2034 234.947 79.2605 236.539 79.1463 238.131C79.0321 239.724 78.8038 241.259 78.347 242.852C77.9474 244.387 77.3765 245.923 76.6914 247.345C76.3489 248.084 75.9492 248.766 75.4354 249.449C74.9216 250.131 74.3507 250.7 73.7227 251.212C72.4096 252.236 70.8681 252.918 69.2125 253.202C68.4132 253.373 67.5568 253.373 66.7005 253.373C65.9012 253.373 65.0448 253.373 64.2456 253.373C63.3892 253.373 62.5899 253.373 61.7336 253.373C60.8772 253.316 60.0208 252.861 59.507 252.179C59.2216 251.838 59.0503 251.496 58.8219 251.098C58.7078 250.928 58.5936 250.757 58.4794 250.643C58.3081 250.53 58.1939 250.416 57.9656 250.359C57.623 250.245 57.1663 250.302 56.8808 250.53C56.7096 250.643 56.5954 250.757 56.4812 250.928C56.367 251.098 56.3099 251.269 56.2528 251.496C55.9103 252.293 55.1681 252.975 54.3117 253.146C53.855 253.259 53.4554 253.203 52.9986 253.259H51.7426C50.0299 253.259 48.3172 253.316 46.6045 253.316C45.7481 253.316 44.8917 253.316 44.0354 253.373H42.7223C42.3226 253.373 41.8659 253.373 41.4092 253.316C40.5528 253.202 39.6964 252.804 39.0114 252.293C38.3263 251.724 37.7554 250.984 37.4699 250.131C37.2986 249.733 36.9561 249.392 36.5564 249.335C36.1568 249.221 35.643 249.392 35.3575 249.676C35.0721 250.018 34.7866 250.416 34.4441 250.814C34.1586 251.212 33.8732 251.61 33.4735 251.951C32.7313 252.634 31.7608 253.032 30.7903 253.202C30.2764 253.259 29.8197 253.259 29.3059 253.259H27.8215C26.851 253.259 25.8804 253.259 24.8528 253.259C24.339 253.203 23.8822 253.259 23.3684 253.089L22.6262 252.975C22.3979 252.918 22.1695 252.804 21.8841 252.748C19.943 252.179 18.3444 250.871 17.0313 249.335C15.7182 247.8 14.8048 245.98 14.1197 244.103C13.4346 242.226 12.8637 240.293 12.5211 238.302C12.1786 236.311 12.0073 234.264 12.0073 232.274C12.0073 230.226 12.0644 228.236 12.0644 226.188C12.1215 221.752 12.1786 217.373 12.2357 213.051V213.108C11.836 211.686 11.7219 210.207 11.7219 208.728C11.7219 207.25 11.7789 205.828 11.7789 204.349C11.836 201.449 11.836 198.548 11.8931 195.705C11.9502 192.861 11.9502 189.961 12.0073 187.117C12.0073 185.695 12.0644 184.273 12.0644 182.852C12.0644 182.112 12.1786 181.373 12.5211 180.747C12.6924 180.406 12.8637 180.122 12.9208 179.781C12.9779 179.439 13.0349 179.098 12.9779 178.757C12.9208 178.416 12.8066 178.131 12.6924 177.79C12.5782 177.449 12.5211 177.108 12.464 176.709C12.464 176.027 12.464 175.288 12.464 174.605C12.464 173.183 12.464 171.818 12.464 170.397C12.464 167.61 12.464 164.88 12.464 162.093C12.464 156.577 12.464 151.174 12.464 145.828C12.464 124.444 12.464 104.254 12.464 85.657L12.5211 85.7708C11.7789 85.0314 11.208 84.0646 10.9226 83.0409C10.7513 82.5291 10.6942 82.0172 10.6942 81.5054C10.6942 80.9935 10.6942 80.4817 10.6942 79.9698C10.6942 78.9461 10.6942 77.9224 10.6942 76.8987C10.6942 75.875 10.7513 74.8513 10.9797 73.8845C11.4364 71.894 12.464 70.0741 13.7771 68.5954C15.0902 67.1167 16.4033 65.6949 17.6593 64.2731C22.7975 58.5859 27.7073 53.1261 32.3317 47.9508V48.0076C32.3317 45.5621 32.3317 43.3441 32.3317 41.2399L32.4459 41.3536C32.2175 41.3536 31.9892 41.3536 31.7608 41.3536C31.5324 41.3536 31.3041 41.2399 31.1328 41.1261C30.7332 40.8418 30.5619 40.3868 30.5619 39.9887C30.5619 39.5337 30.8473 39.1356 31.247 38.965C31.4182 38.8512 31.6466 38.7944 31.875 38.7944H32.4459L32.3317 38.9081C32.3317 36.8607 32.3317 35.0408 32.3317 33.2777V33.164H32.4459C42.2655 33.1071 50.8292 33.0503 58.4223 33.0503H58.4794V33.1071C58.4794 35.382 58.4794 37.1451 58.4794 38.9081L58.4223 38.8512C58.6507 38.8512 58.879 38.8512 59.1074 38.8512C59.3358 38.9081 59.5641 38.965 59.7354 39.1356C60.0779 39.4199 60.2492 39.8749 60.1921 40.273C60.135 40.6711 59.8496 41.0124 59.507 41.183C59.3357 41.2967 59.1645 41.2967 58.9932 41.3536C58.8219 41.3536 58.6507 41.3536 58.4794 41.3536L58.5365 41.2967C58.5365 44.0835 58.5365 46.2446 58.5365 48.292V48.2351C64.7594 54.5479 69.555 59.3821 72.7521 62.6807C74.3507 64.33 75.6067 65.5812 76.406 66.3774C77.3765 67.1736 77.7761 67.5717 77.7761 67.5717C77.7761 67.5717 77.3765 67.1736 76.5201 66.3205C75.7209 65.4674 74.4649 64.2731 72.8663 62.6238C69.6121 59.3821 64.8165 54.5479 58.5936 48.2351C58.5936 46.1877 58.5936 44.0266 58.5936 41.2399V41.183H58.6506C58.9932 41.183 59.3358 41.2399 59.6783 41.0124C59.9638 40.8418 60.2492 40.5574 60.2492 40.2162C60.3063 39.8749 60.1921 39.4768 59.8496 39.1925C59.6783 39.0787 59.507 38.965 59.2787 38.965C59.1074 38.9081 58.8219 38.965 58.5936 38.965H58.5365V38.9081C58.5365 37.1451 58.5365 35.382 58.5365 33.1071L58.5936 33.164C51.0005 33.2209 42.4368 33.2778 32.6172 33.3346L32.7313 33.2209C32.7313 34.9839 32.7313 36.8038 32.7313 38.8512V38.965H32.6172C32.2175 38.965 31.8179 38.9081 31.5324 39.1356C31.1899 39.3062 30.9615 39.6474 30.9615 39.9887C30.9044 40.3868 31.1328 40.728 31.4182 40.9555C31.7608 41.183 32.1604 41.1261 32.6172 41.1261H32.7313V41.2399C32.7313 43.401 32.7313 45.5621 32.7313 48.0076V48.0645V48.1214C28.107 53.2968 23.1971 58.6996 18.059 64.4437C16.7459 65.8655 15.4899 67.3442 14.1768 68.766C12.8637 70.1878 11.8931 72.0077 11.4364 73.9414C11.208 74.9082 11.1509 75.9319 11.1509 76.8987C11.1509 77.9224 11.1509 78.9461 11.1509 79.9698C11.1509 80.9935 11.0939 82.0172 11.3793 83.0409C11.6648 84.0077 12.1786 84.9177 12.9208 85.657L12.9779 85.7139V85.7708C12.9779 104.311 12.9779 124.501 12.9779 145.942C12.9779 151.288 12.9779 156.69 12.9779 162.207C12.9779 164.937 12.9779 167.724 12.9779 170.51C12.9779 171.875 12.9779 173.297 12.9779 174.719C12.9779 175.401 12.9779 176.141 12.9779 176.823C12.9779 177.164 13.092 177.506 13.1491 177.79C13.2633 178.131 13.3775 178.472 13.4346 178.814C13.4917 179.155 13.4346 179.553 13.3775 179.894C13.3204 180.236 13.092 180.577 12.9779 180.918C12.6924 181.544 12.5782 182.226 12.5782 182.908C12.5782 184.33 12.5211 185.752 12.5211 187.174C12.464 190.018 12.464 192.861 12.4069 195.762C12.3499 198.605 12.3499 201.506 12.2928 204.406C12.2928 205.828 12.2357 207.307 12.2357 208.785C12.2357 210.207 12.3499 211.686 12.6924 213.108C12.6353 217.43 12.5782 221.809 12.5211 226.245C12.5211 228.292 12.464 230.283 12.464 232.33C12.464 234.321 12.6353 236.368 12.9779 238.302C13.3204 240.293 13.8342 242.226 14.5193 244.046C15.2615 245.866 16.175 247.686 17.431 249.165C18.687 250.643 20.2855 251.894 22.1124 252.52C23.9393 253.146 25.9375 252.975 27.8786 253.032H29.363C29.8768 253.032 30.3335 253.032 30.7903 252.975C31.7037 252.861 32.6172 252.463 33.3023 251.838C33.6448 251.553 33.9303 251.155 34.2157 250.757C34.5012 250.359 34.7866 250.018 35.1292 249.62C35.5288 249.221 36.0997 249.051 36.6135 249.221C37.1273 249.335 37.5841 249.733 37.7554 250.188C38.0408 250.984 38.5546 251.667 39.1826 252.179C39.8106 252.691 40.6099 253.032 41.4663 253.146C41.8659 253.203 42.3226 253.202 42.7223 253.202H44.0354C44.8917 253.202 45.7481 253.203 46.6045 253.146C48.3172 253.146 50.0299 253.089 51.7426 253.089H52.9986C53.3983 253.089 53.855 253.089 54.2547 253.032C55.0539 252.861 55.6819 252.236 56.0245 251.496C56.1386 251.326 56.1386 251.098 56.3099 250.928C56.4241 250.7 56.5954 250.53 56.7667 250.416C57.1663 250.131 57.623 250.075 58.0797 250.188C58.3081 250.245 58.5365 250.359 58.7077 250.53C58.879 250.7 58.9932 250.871 59.1074 251.041C59.3358 251.383 59.5641 251.781 59.7925 252.065C60.2492 252.691 61.0485 253.089 61.8477 253.146C62.7041 253.146 63.5034 253.146 64.3027 253.146C65.159 253.146 65.9583 253.146 66.7576 253.146C67.6139 253.146 68.4132 253.146 69.2125 252.975C70.811 252.691 72.2954 252.008 73.5514 251.041C74.1794 250.53 74.7503 249.961 75.207 249.335C75.6638 248.71 76.0634 247.97 76.406 247.288C77.091 245.866 77.6619 244.33 78.0616 242.852C78.4612 241.316 78.7467 239.781 78.8038 238.188C78.918 236.653 78.8609 235.06 78.8609 233.525C78.8609 227.326 78.8609 221.24 78.8609 215.326V215.382C78.347 214.643 78.1187 213.79 78.1187 212.937C78.1187 212.084 78.4041 211.288 78.8609 210.662V210.719C78.8609 200.539 78.8609 190.7 78.8609 181.43L78.918 181.487C78.347 180.918 78.0616 180.122 78.0616 179.382C78.0616 178.643 78.4041 177.904 78.918 177.449L78.8609 177.506C78.9179 136.16 78.918 103.856 78.918 85.0883C80.0027 84.0646 80.6307 82.6428 80.802 81.3347C80.8591 80.6523 80.859 80.0267 80.859 79.4011C80.859 78.7755 80.859 78.1499 80.859 77.5812C80.859 76.3869 80.9161 75.3063 80.802 74.3395C80.6878 73.3726 80.4594 72.5196 80.174 71.7802C79.6031 70.3015 78.918 69.2778 78.4041 68.6522C78.1758 68.311 77.9474 68.0835 77.8332 67.9698C77.8332 67.6854 77.7761 67.5717 77.7761 67.5717Z" fill="#263238"/>
<path d="M58.7074 38.6805C58.7074 38.7374 52.8842 38.8511 45.6907 38.908C38.4972 38.9649 32.674 38.908 32.674 38.8512C32.674 38.7943 38.4972 38.6805 45.6907 38.6237C52.8842 38.5668 58.7074 38.5668 58.7074 38.6805Z" fill="#263238"/>
<path d="M59.3354 41.1831C59.3354 41.24 53.3409 41.3537 46.0332 41.3537C38.6685 41.3537 32.674 41.2969 32.674 41.1831C32.674 41.1263 38.6685 41.0125 46.0332 41.0125C53.398 41.0694 59.3354 41.1263 59.3354 41.1831Z" fill="#263238"/>
<path d="M58.5933 43.2873C58.5933 43.3442 52.77 43.458 45.6336 43.458C38.4972 43.458 32.674 43.4011 32.674 43.2873C32.674 43.1736 38.4972 43.1167 45.6336 43.1167C52.8271 43.1167 58.5933 43.1736 58.5933 43.2873Z" fill="#263238"/>
<path d="M58.5933 45.3349C58.5933 45.3918 52.77 45.5055 45.6336 45.5055C38.4972 45.5055 32.674 45.4486 32.674 45.3349C32.674 45.278 38.4972 45.1643 45.6336 45.1643C52.8271 45.1643 58.5933 45.2211 58.5933 45.3349Z" fill="#263238"/>
<path d="M32.6742 41.2399C33.0738 41.9224 33.7589 42.3774 34.5011 42.6048C35.2433 42.8323 36.0426 42.8323 36.8418 42.8892C43.6357 43.0598 50.4295 42.7755 57.1662 42.093C57.7371 42.0361 58.3652 41.8655 58.5364 41.3537C57.4517 41.2968 56.367 41.2968 55.2822 41.2968C48.831 41.2968 42.3226 41.2968 35.8713 41.3537C34.6724 41.3537 33.5306 41.3537 32.3317 41.3537" fill="#E0E0E0"/>
<path d="M28.164 37.0319V17.3541C28.164 17.3541 27.9927 13.373 45.8622 13.373C62.1331 13.373 62.076 17.9797 62.076 17.9797V37.0319H28.164Z" fill="#E8505B"/>
<path d="M30.3906 33.1078C30.3335 33.1078 30.2194 29.6955 30.2194 25.5438C30.2194 21.3922 30.2764 17.9798 30.3906 17.9798C30.4477 17.9798 30.5619 21.3922 30.5619 25.5438C30.5619 29.7524 30.5048 33.1078 30.3906 33.1078Z" fill="#263238"/>
<path d="M33.4165 33.1078C33.3594 33.1078 33.2452 29.5248 33.2452 25.1457C33.2452 20.7097 33.3023 17.1836 33.4165 17.1836C33.4736 17.1836 33.5878 20.7665 33.5878 25.1457C33.5878 29.5248 33.5307 33.1078 33.4165 33.1078Z" fill="#263238"/>
<path d="M36.3854 33.1076C36.3283 33.1076 36.2141 29.4109 36.2141 24.8042C36.2141 20.2545 36.2712 16.5009 36.3854 16.5009C36.4996 16.5009 36.5567 20.1976 36.5567 24.8042C36.4996 29.4109 36.4425 33.1076 36.3854 33.1076Z" fill="#263238"/>
<path d="M39.297 33.1076C39.2399 33.1076 39.1257 29.2972 39.1257 24.6336C39.1257 19.9701 39.1828 16.1597 39.297 16.1597C39.3541 16.1597 39.4683 19.9701 39.4683 24.6336C39.4112 29.2972 39.3541 33.1076 39.297 33.1076Z" fill="#263238"/>
<path d="M42.2085 33.1076C42.1514 33.1076 42.0372 29.2972 42.0372 24.6336C42.0372 19.9701 42.0943 16.1597 42.2085 16.1597C42.3227 16.1597 42.3798 19.9701 42.3798 24.6336C42.3227 29.2972 42.2656 33.1076 42.2085 33.1076Z" fill="#263238"/>
<path d="M45.1201 33.1076C45.063 33.1076 44.9489 29.2972 44.9489 24.6336C44.9489 19.9701 45.0059 16.1597 45.1201 16.1597C45.2343 16.1597 45.2914 19.9701 45.2914 24.6336C45.2914 29.2972 45.1772 33.1076 45.1201 33.1076Z" fill="#263238"/>
<path d="M48.0316 33.1076C47.9745 33.1076 47.8604 29.2972 47.8604 24.6336C47.8604 19.9701 47.9174 16.1597 48.0316 16.1597C48.0887 16.1597 48.2029 19.9701 48.2029 24.6336C48.2029 29.2972 48.1458 33.1076 48.0316 33.1076Z" fill="#263238"/>
<path d="M50.9434 33.1076C50.8863 33.1076 50.7721 29.2972 50.7721 24.6336C50.7721 19.9701 50.8292 16.1597 50.9434 16.1597C51.0005 16.1597 51.1146 19.9701 51.1146 24.6336C51.1146 29.2972 51.0575 33.1076 50.9434 33.1076Z" fill="#263238"/>
<path d="M53.855 33.1077C53.7979 33.1077 53.6837 29.4679 53.6837 24.9181C53.6837 20.3684 53.7408 16.7285 53.855 16.7285C53.9692 16.7285 54.0262 20.3684 54.0262 24.9181C54.0262 29.4679 53.9692 33.1077 53.855 33.1077Z" fill="#263238"/>
<path d="M56.8239 33.108C56.7668 33.108 56.6526 29.5819 56.6526 25.2596C56.6526 20.9373 56.7097 17.4112 56.8239 17.4112C56.881 17.4112 56.9951 20.9373 56.9951 25.2596C56.938 29.5819 56.881 33.108 56.8239 33.108Z" fill="#263238"/>
<path d="M59.7355 33.1078C59.6784 33.1078 59.5642 29.8092 59.5642 25.7144C59.5642 21.6196 59.6213 18.321 59.7355 18.321C59.7926 18.321 59.9068 21.6196 59.9068 25.7144C59.8497 29.8092 59.7926 33.1078 59.7355 33.1078Z" fill="#263238"/>
<path d="M60.9343 18.7192C60.9343 18.7192 60.8201 18.7192 60.5917 18.6623C60.3633 18.6054 60.0779 18.4917 59.6783 18.3779C59.2786 18.2642 58.8219 18.0936 58.251 17.923C57.6801 17.7523 57.0521 17.5817 56.3099 17.4111C55.5677 17.2405 54.8255 17.0699 53.9692 16.8993C53.1128 16.7286 52.1993 16.6149 51.2288 16.4443C49.2877 16.2168 47.1753 15.9893 44.8917 15.9893C42.6651 15.9893 40.4957 16.1599 38.5546 16.3874C37.584 16.5011 36.6706 16.6149 35.8142 16.7855C34.9579 16.8993 34.1586 17.1267 33.4735 17.2974C32.7313 17.468 32.1033 17.6386 31.5324 17.8092C30.9615 17.9798 30.5048 18.0936 30.1051 18.2073C29.7055 18.3211 29.42 18.4348 29.1917 18.4917C28.9633 18.5485 28.8491 18.5485 28.8491 18.5485C28.8491 18.5485 28.9633 18.4917 29.1346 18.4348C29.3629 18.3779 29.6484 18.2642 30.048 18.0936C30.4477 17.9798 30.9044 17.8092 31.4753 17.6386C32.0462 17.468 32.6742 17.2974 33.4164 17.1267C34.1586 16.9561 34.9008 16.7286 35.8142 16.6149C36.6706 16.4443 37.584 16.3305 38.5546 16.1599C40.4957 15.9324 42.6651 15.7618 44.9488 15.7618C47.2324 15.7618 49.3448 15.9893 51.343 16.2168C52.3135 16.3874 53.227 16.5011 54.0833 16.7286C54.9397 16.8993 55.739 17.0699 56.4241 17.2974C57.1663 17.468 57.7943 17.6955 58.3652 17.8661C58.9361 18.0367 59.3928 18.2073 59.7924 18.3211C60.135 18.4348 60.4775 18.5485 60.7059 18.6623C60.8201 18.6623 60.9343 18.7192 60.9343 18.7192Z" fill="#263238"/>
<path d="M61.1057 33.1645C61.1057 33.2213 54.0264 33.3351 45.2915 33.3351C36.5566 33.3351 29.4773 33.2782 29.4773 33.1645C29.4773 33.0507 36.5566 32.9939 45.2915 32.9939C54.0264 32.9939 61.1057 33.1076 61.1057 33.1645Z" fill="#263238"/>
<path d="M82.6025 113.468H9.97778V137.454V160.445H82.6025C82.6025 160.445 83.0701 154.05 82.6025 137.454C82.1348 120.858 82.6025 113.468 82.6025 113.468Z" fill="white"/>
<path d="M79.1462 113.468H12.8065V137.25V160.444H79.1462C79.1462 160.444 79.5734 153.846 79.1462 137.25C78.7191 120.654 79.1462 113.468 79.1462 113.468Z" fill="#E8505B"/>
<path d="M16.5768 156.674C16.6464 156.674 16.5768 148.313 16.5768 137.963C16.5768 127.612 16.716 119.252 16.5768 119.252C16.5072 119.252 17.9402 127.612 17.9402 137.963C17.9402 148.256 16.5072 156.674 16.5768 156.674Z" fill="white"/>
<path d="M90.8446 33.4299C99.8901 46.7521 91.338 55.3042 82.9504 54.4813C79.595 54.1521 72.2158 51.8696 71.109 44.6135C69.6288 34.9102 76.5362 29.7301 82.9504 31.7853C87.0748 33.1068 89.2822 38.0355 87.8843 41.6532C84.7738 49.7029 80.4834 48.4785 79.0032 47.9028C77.1639 47.1874 74.5627 45.0248 75.714 41.6532C76.858 38.3029 80.2367 36.4726 82.2925 39.8442" stroke="black"/>
<path d="M24.2943 181.342C33.3398 194.664 24.7877 203.216 16.4001 202.393C13.0447 202.064 5.66554 199.782 4.55868 192.526C3.07852 182.822 9.98596 177.642 16.4001 179.697C20.5246 181.019 22.7319 185.948 21.334 189.565C18.2235 197.615 13.9331 196.391 12.4529 195.815C10.6136 195.1 8.0124 192.937 9.16367 189.565C10.3077 186.215 13.6864 184.385 15.7422 187.756" stroke="black"/>
<path d="M35.2561 3.52756C44.3016 16.8497 35.7495 25.4018 27.3619 24.5789C24.0065 24.2497 16.6273 21.9672 15.5205 14.7111C14.0403 5.00783 20.9477 -0.172205 27.3619 1.88292C31.4863 3.20444 33.6937 8.13313 32.2958 11.7508C29.1853 19.8005 24.8949 18.5762 23.4147 18.0005C21.5754 17.2851 18.9742 15.1224 20.1255 11.7508C21.2695 8.40055 24.6482 6.5703 26.704 9.94181" stroke="black"/>
<path d="M90.8446 127.448C99.8901 140.771 91.338 149.323 82.9504 148.5C79.595 148.171 72.2158 145.888 71.109 138.632C69.6288 128.929 76.5362 123.749 82.9504 125.804C87.0748 127.125 89.2822 132.054 87.8843 135.672C84.7738 143.721 80.4834 142.497 79.0032 141.921C77.1639 141.206 74.5627 139.043 75.714 135.672C76.858 132.321 80.2367 130.491 82.2925 133.863" stroke="black"/>
<path d="M20.8407 58.7439C29.8862 72.066 21.3341 80.6181 12.9465 79.7952C9.59106 79.466 2.21192 77.1835 1.10506 69.9274C-0.375091 60.2241 6.53234 55.0441 12.9465 57.0992C17.0709 58.4207 19.2783 63.3494 17.8804 66.9671C14.7699 75.0168 10.4795 73.7925 8.99933 73.2168C7.15997 72.5014 4.55878 70.3387 5.71005 66.9671C6.85405 63.6169 10.2328 61.7866 12.2886 65.1581" stroke="black"/>
</svg>
