<svg width="137" height="241" viewBox="0 0 137 241" fill="none" xmlns="http://www.w3.org/2000/svg">
<path d="M95.0095 65.5164L79.0485 48.8139V42.7715H79.3821C79.8585 42.7715 80.3349 42.4276 80.4302 41.9363C80.5255 41.2977 80.0491 40.7082 79.4297 40.7082H79.0009V35.6483L57.3226 35.7957V40.6591H56.8938C56.4173 40.6591 55.9409 41.003 55.8456 41.4942C55.7503 42.1328 56.2268 42.7223 56.8461 42.7223H57.3226V48.5682L41.6951 66.548C40.1229 68.3657 39.2653 70.7237 39.2653 73.1308V77.3064C39.2653 78.7311 39.7894 80.1066 40.7899 81.0891V159.542C40.7899 159.984 40.8852 160.426 41.0758 160.868C41.314 161.556 41.2663 162.293 40.9328 162.932C40.647 163.521 40.4564 164.16 40.4564 164.798L40.2182 187.494C40.2182 188.673 40.3134 189.852 40.647 190.982L40.4564 207.193C40.4087 209.846 40.6946 212.45 41.3616 215.004C42.5527 219.671 45.2208 225.566 51.2717 225.566H55.4168C56.6556 225.566 57.799 224.977 58.5613 223.945L59.5142 222.668C60.086 221.882 61.2771 222.078 61.6106 223.012C62.1823 224.682 63.7546 225.763 65.4222 225.714L74.9987 225.566C75.9993 225.566 76.8092 224.829 77.0951 223.847C77.4286 222.864 78.715 222.717 79.2391 223.601L79.8109 224.485C80.2873 225.222 81.0496 225.664 81.8596 225.664H86.4811C89.4351 225.664 92.1985 223.994 93.6278 221.341C93.6754 221.292 93.6755 221.243 93.7231 221.194C95.343 218.05 96.153 214.513 96.153 210.976V192.849C95.343 191.67 95.343 190.098 96.153 188.919V163.619C95.2954 162.735 95.2477 161.31 96.0577 160.377L96.153 160.279V133.8V80.5487L96.2483 80.4504C97.2012 79.4679 97.7729 78.0924 97.7729 76.6678V72.4431C97.7729 69.8885 96.7724 67.3832 95.0095 65.5164Z" fill="#F5F5F5"/>
<path d="M87.6728 68.3166C90.9603 67.5306 94.2001 70.036 94.2478 73.5239V73.573V77.4048C94.2478 78.682 93.7713 79.9593 92.9137 80.8435L92.8184 80.9418V129.625V153.794L92.7232 153.893C92.0085 154.728 92.0561 156.054 92.8184 156.84V179.929C92.1038 181.01 92.1038 182.434 92.8184 183.515V200.07C92.8184 203.312 92.1038 206.555 90.6744 209.404C90.6744 209.453 90.6268 209.502 90.6268 209.551C89.388 212.008 86.9582 213.481 84.3377 213.481H80.2403L74.0941 213.383L65.6134 213.531L56.7515 213.383H53.0828C47.7466 213.383 45.3644 208.028 44.3162 203.755C43.7445 201.446 43.5062 199.039 43.5539 196.631L43.7445 181.845C43.4586 180.813 43.3633 179.732 43.3633 178.652L43.6015 157.921C43.6015 157.331 43.7445 156.742 44.0303 156.201C44.3162 155.612 44.3638 154.924 44.1256 154.286C43.9827 153.893 43.8874 153.5 43.8874 153.107V81.5313C43.0298 80.5979 42.5533 79.3698 42.5533 78.0925V74.2607V74.2116C42.5533 70.8711 44.9356 68.0219 48.1278 67.285C51.4152 66.5481 56.7038 65.8603 61.8971 67.285C70.4255 69.5939 70.5684 70.8711 76.6669 70.3307C80.0497 69.9869 84.4806 69.0535 87.6728 68.3166Z" fill="#E8505B"/>
<path opacity="0.5" d="M87.6728 68.3166C90.9603 67.5306 94.2001 70.036 94.2478 73.5239V73.573V77.4048C94.2478 78.682 93.7713 79.9593 92.9137 80.8435L92.8184 80.9418V129.625V153.794L92.7232 153.893C92.0085 154.728 92.0561 156.054 92.8184 156.84V179.929C92.1038 181.01 92.1038 182.434 92.8184 183.515V200.07C92.8184 203.312 92.1038 206.555 90.6744 209.404C90.6744 209.453 90.6268 209.502 90.6268 209.551C89.388 212.008 86.9582 213.481 84.3377 213.481H80.2403L74.0941 213.383L65.6134 213.531L56.7515 213.383H53.0828C47.7466 213.383 45.3644 208.028 44.3162 203.755C43.7445 201.446 43.5062 199.039 43.5539 196.631L43.7445 181.845C43.4586 180.813 43.3633 179.732 43.3633 178.652L43.6015 157.921C43.6015 157.331 43.7445 156.742 44.0303 156.201C44.3162 155.612 44.3638 154.924 44.1256 154.286C43.9827 153.893 43.8874 153.5 43.8874 153.107V81.5313C43.0298 80.5979 42.5533 79.3698 42.5533 78.0925V74.2607V74.2116C42.5533 70.8711 44.9356 68.0219 48.1278 67.285C51.4152 66.5481 56.7038 65.8603 61.8971 67.285C70.4255 69.5939 70.5684 70.8711 76.6669 70.3307C80.0497 69.9869 84.4806 69.0535 87.6728 68.3166Z" fill="white"/>
<path d="M96.7247 81.1386C96.7247 81.1877 84.2418 81.286 68.8049 81.286C53.368 81.286 40.8851 81.2368 40.8851 81.1386C40.8851 81.0895 53.368 80.9912 68.8049 80.9912C84.1941 80.9912 96.7247 81.0403 96.7247 81.1386Z" fill="#263238"/>
<path d="M43.9346 114.789C46.6027 108.992 51.9389 104.522 58.0374 103.048C63.7547 101.672 69.9485 102.753 75.4277 100.493C81.145 98.1355 84.909 92.5843 87.8629 87.0332C89.0064 84.8717 90.4357 82.4646 92.818 82.1698C92.1986 83.8892 93.1991 85.9524 92.3892 87.5244C92.1033 88.0648 91.6269 88.5069 91.1981 88.9C87.7676 92.2405 85.5283 96.6126 83.5749 101.034C82.3838 103.736 81.1927 106.634 78.9534 108.55C77.3335 109.926 75.2847 110.712 73.236 111.105C67.9475 112.087 62.2778 110.761 57.2751 112.726C53.4159 114.199 50.4619 117.491 48.4132 121.175C46.3645 124.86 45.221 128.937 44.0299 133.014" fill="white"/>
<path d="M94.2948 75.1452C94.2948 75.2925 93.4372 75.3908 92.0079 76.0294C90.5785 76.668 88.7204 77.9944 86.9099 80.205C86.0047 81.2858 85.0994 82.5631 84.1942 83.9877C83.2889 85.4123 82.3837 86.9843 81.3355 88.6546C80.2873 90.2757 79.0962 91.9951 77.5239 93.4688C75.9993 94.9917 74.0935 96.2198 71.9971 97.055C69.9008 97.8901 67.7091 98.2831 65.5651 98.2831C63.4687 98.234 61.5153 97.8901 59.7048 97.8901C56.0838 97.841 52.844 98.9708 50.4141 100.346C49.1754 101.034 48.1748 101.771 47.3172 102.508C46.4596 103.196 45.7926 103.932 45.2208 104.473C44.1727 105.652 43.6486 106.389 43.5533 106.34C43.5056 106.29 43.6009 106.094 43.7915 105.701C43.9821 105.308 44.3156 104.768 44.792 104.08C45.3161 103.441 45.9355 102.655 46.7931 101.869C47.6507 101.034 48.6513 100.199 49.9377 99.4621C52.4152 97.9392 55.798 96.6128 59.7048 96.5637C61.6582 96.5637 63.6117 96.8585 65.5651 96.8585C67.5185 96.8585 69.5673 96.4655 71.473 95.6795C73.4265 94.8935 75.1417 93.7636 76.571 92.3881C78.0004 91.0126 79.1915 89.4406 80.2397 87.8686C81.2878 86.2966 82.2407 84.7246 83.1936 83.2999C84.1465 81.8753 85.0994 80.5489 86.1476 79.4682C88.1487 77.2575 90.245 75.9803 91.7697 75.489C93.3896 74.9978 94.2948 75.096 94.2948 75.1452Z" fill="white"/>
<path d="M43.6963 180.666C45.6974 178.603 48.842 178.21 51.653 178.554C54.464 178.897 57.2274 179.831 60.0385 179.831C63.9453 179.831 67.8522 178.013 70.425 174.967C71.3779 173.838 72.1402 172.56 73.0931 171.381C75.4277 168.532 78.7628 166.567 82.3361 165.928C83.9561 165.634 85.6236 165.634 87.1006 164.995C90.1975 163.718 91.7698 160.279 93.1038 157.135C92.9133 162.293 92.675 167.402 92.4845 172.56C87.1959 171.529 82.1932 175.066 78.0481 178.603C73.903 182.14 69.4244 186.119 64.0406 186.119C61.1819 186.119 58.3709 184.989 55.5122 185.087C50.1284 185.284 45.8404 189.656 42.2194 193.733" fill="white"/>
<path d="M94.2949 156.84C94.2949 156.938 93.4849 156.987 92.1032 157.38C91.3885 157.528 90.5786 157.872 89.6257 158.265C88.7204 158.707 87.6723 159.296 86.6241 160.033C85.5759 160.77 84.4324 161.654 83.3366 162.686C82.1931 163.718 81.0497 164.897 79.8109 166.174C78.5721 167.451 77.2857 168.777 75.8087 170.055C74.3318 171.332 72.7118 172.56 70.8537 173.543C68.9956 174.525 66.9945 175.065 65.041 175.262C63.0876 175.458 61.2295 175.409 59.5143 175.36C57.7991 175.262 56.1315 175.164 54.6069 175.164C53.0822 175.164 51.7005 175.262 50.4141 175.458C49.1754 175.655 48.0319 175.95 47.079 176.343C46.1261 176.736 45.3638 177.178 44.7921 177.571C43.601 178.406 43.0769 179.045 42.9816 178.995C42.9339 178.946 43.3151 178.16 44.4586 177.129C45.0303 176.637 45.7926 176.097 46.7931 175.606C47.746 175.115 48.9372 174.722 50.2236 174.476C51.5576 174.181 52.987 174.034 54.5592 173.985C56.1315 173.936 57.7991 174.034 59.5143 174.083C61.2295 174.132 63.04 174.132 64.8505 173.936C66.661 173.739 68.4715 173.199 70.1867 172.314C71.9019 171.43 73.4742 170.251 74.8559 169.072C76.2852 167.844 77.5716 166.567 78.8103 165.339C80.0491 164.111 81.2879 162.932 82.479 161.9C83.6701 160.868 84.8612 159.984 86.0047 159.296C87.1482 158.559 88.244 158.019 89.2445 157.675C90.2451 157.331 91.1503 157.086 91.865 156.987C93.4849 156.594 94.2949 156.742 94.2949 156.84Z" fill="white"/>
<path d="M43.5533 206.063C49.1754 209.551 56.5603 208.52 62.3729 205.425C68.1856 202.33 72.8548 197.368 77.7145 192.8C82.5743 188.231 87.8628 183.81 94.2472 182.189C93.6755 181.403 93.3419 180.42 93.2943 179.438C85.957 182.778 78.4292 186.217 72.8071 192.112C70.8537 194.126 69.1861 196.435 66.9945 198.252C64.8981 199.972 62.4682 201.102 59.9907 202.084C55.0356 204.098 49.6518 205.621 44.3632 204.884C43.9344 204.835 43.458 204.786 43.1721 205.13C42.8863 205.474 43.3627 206.112 43.6486 205.769" fill="white"/>
<path d="M85.1948 151.682C85.1948 152.517 84.5278 153.205 83.7178 153.205C82.9079 153.205 82.2408 152.517 82.2408 151.682C82.2408 150.847 82.9079 150.159 83.7178 150.159C84.5278 150.159 85.1948 150.847 85.1948 151.682Z" fill="white"/>
<path d="M77.9533 154.875C77.9533 155.318 77.6197 155.612 77.2384 155.612C76.8094 155.612 76.5234 155.268 76.5234 154.875C76.5234 154.433 76.8571 154.138 77.2384 154.138C77.6673 154.138 77.9533 154.482 77.9533 154.875Z" fill="white"/>
<path d="M61.2774 197.025C61.6723 197.025 61.9924 196.695 61.9924 196.288C61.9924 195.881 61.6723 195.551 61.2774 195.551C60.8826 195.551 60.5625 195.881 60.5625 196.288C60.5625 196.695 60.8826 197.025 61.2774 197.025Z" fill="white"/>
<path d="M96.1528 164.012C96.1528 164.061 83.6223 164.16 68.1854 164.16C52.7486 164.16 40.218 164.11 40.218 164.012C40.218 163.914 52.7486 163.865 68.1854 163.865C83.6223 163.914 96.1528 163.963 96.1528 164.012Z" fill="#263238"/>
<path d="M96.0101 189.41C96.0101 189.459 83.5272 189.557 68.0903 189.557C52.6534 189.557 40.1705 189.508 40.1705 189.41C40.1705 189.361 52.6534 189.263 68.0903 189.263C83.5272 189.312 96.0101 189.361 96.0101 189.41Z" fill="#263238"/>
<path d="M96.3436 193.193C96.3436 193.242 83.8607 193.34 68.4238 193.34C52.9869 193.34 40.504 193.291 40.504 193.193C40.504 193.144 52.9869 193.045 68.4238 193.045C83.8607 193.045 96.3436 193.094 96.3436 193.193Z" fill="#263238"/>
<path d="M96.153 160.131C96.153 160.181 83.813 160.279 68.5667 160.279C53.3204 160.279 40.9805 160.23 40.9805 160.131C40.9805 160.082 53.3204 159.984 68.5667 159.984C83.7654 159.984 96.153 160.033 96.153 160.131Z" fill="#263238"/>
<path d="M64.3739 225.713C64.3739 225.713 64.2309 225.713 63.9451 225.566C63.7068 225.468 63.3257 225.222 62.9922 224.878C62.2299 224.141 61.6105 222.913 60.8958 221.538C60.1811 220.162 59.5141 218.934 59.0377 218.05C58.5612 217.166 58.323 216.576 58.323 216.576C58.323 216.576 58.6565 217.067 59.1806 217.952C59.657 218.836 60.3717 220.064 61.0864 221.39C61.8011 222.717 62.4204 223.994 63.0875 224.731C63.7545 225.517 64.3739 225.664 64.3739 225.713Z" fill="#263238"/>
<path d="M79.9537 216.478C80.0014 216.478 79.9061 216.92 79.7155 217.559C79.5249 218.247 79.2391 219.131 78.8579 220.162C78.4768 221.145 78.0956 222.029 77.8097 222.668C77.5239 223.306 77.3333 223.699 77.2856 223.65C77.238 223.65 77.3809 223.208 77.6668 222.57C77.9527 221.833 78.2862 220.998 78.6197 220.015C78.9532 219.082 79.2867 218.197 79.5249 217.461C79.7632 216.871 79.9061 216.478 79.9537 216.478Z" fill="#263238"/>
<path d="M96.01 198.99C96.01 198.99 95.9624 199.039 95.8671 199.088C95.7718 199.186 95.6765 199.284 95.4859 199.383C95.1524 199.628 94.676 200.021 94.0566 200.512C92.8178 201.495 90.9597 202.87 88.5298 204.344C87.3387 205.081 85.957 205.867 84.48 206.604C82.9554 207.341 81.3355 208.029 79.525 208.52C75.904 209.502 71.7113 209.846 67.4709 208.815C65.3745 208.323 63.3734 207.439 61.6582 206.358C59.943 205.278 58.4184 203.951 56.9891 202.674C55.6074 201.397 54.2733 200.169 53.0345 199.088C51.7481 198.007 50.5094 197.074 49.3183 196.337C46.8884 194.814 44.6967 194.175 43.1245 194.028C42.3621 193.979 41.7428 193.979 41.314 193.979C41.1234 193.979 40.9804 194.028 40.8375 194.028C40.7422 194.028 40.6946 194.028 40.6946 194.028C40.6946 194.028 40.7422 194.028 40.8375 193.979C40.9328 193.979 41.1234 193.93 41.314 193.93C41.7428 193.881 42.3621 193.881 43.1245 193.93C44.6967 194.077 46.9837 194.667 49.4136 196.189C50.6523 196.926 51.8911 197.86 53.1775 198.94C54.4639 200.021 55.7503 201.249 57.1796 202.527C58.5613 203.804 60.086 205.081 61.8012 206.162C63.5164 207.243 65.4698 208.078 67.5662 208.569C71.7589 209.551 75.904 209.257 79.4773 208.274C81.2878 207.783 82.9077 207.095 84.4324 206.407C85.9094 205.671 87.2911 204.934 88.4822 204.197C90.9121 202.723 92.7702 201.348 94.0566 200.414C94.676 199.923 95.1524 199.579 95.5336 199.284C95.6765 199.186 95.8194 199.088 95.9147 198.99C95.9624 199.039 96.01 198.99 96.01 198.99Z" fill="#263238"/>
<path d="M96.1529 198.4C96.1529 198.4 96.1053 198.449 96.0577 198.498C95.9624 198.596 95.8671 198.694 95.7241 198.793C95.5812 198.94 95.3906 199.087 95.1524 199.284C94.9142 199.48 94.6283 199.677 94.3424 199.923C93.1037 200.905 91.2455 202.182 88.768 203.558C87.5293 204.246 86.1476 204.884 84.6229 205.523C83.0983 206.162 81.4307 206.751 79.6202 207.144C79.1438 207.242 78.715 207.34 78.2386 207.39C78.0003 207.439 77.7621 207.439 77.5239 207.488C77.2857 207.488 77.0474 207.488 76.8092 207.488C75.8563 207.488 74.8558 207.439 73.8552 207.39C71.8542 207.242 69.7578 206.997 67.7091 206.407C65.6604 205.818 63.7546 204.884 62.1823 203.558C60.61 202.281 59.276 200.807 57.9896 199.431C56.7032 198.105 55.4168 196.877 54.0351 195.993C52.6534 195.059 51.2717 194.421 49.9376 194.028C47.3172 193.192 45.0302 193.094 43.4579 193.192C43.0768 193.192 42.7433 193.242 42.4098 193.291C42.1239 193.34 41.8857 193.34 41.6475 193.389C41.4569 193.438 41.3139 193.438 41.171 193.487C41.0757 193.487 41.0281 193.487 41.0281 193.487C41.0281 193.487 41.838 193.242 43.4103 193.094C44.9349 192.947 47.2695 192.996 49.9376 193.831C51.2717 194.273 52.701 194.912 54.0827 195.796C55.4644 196.68 56.7985 197.908 58.0849 199.284C59.3713 200.61 60.7053 202.084 62.2299 203.361C63.8022 204.639 65.6604 205.572 67.7091 206.161C69.7578 206.751 71.8065 206.997 73.8076 207.144C74.8081 207.193 75.761 207.242 76.7616 207.242C76.9998 207.242 77.238 207.242 77.4762 207.242C77.7145 207.242 77.9527 207.193 78.1909 207.144C78.6674 207.095 79.0962 206.997 79.5726 206.898C81.3831 206.505 83.003 205.916 84.5276 205.326C86.0523 204.688 87.434 204.049 88.6251 203.361C91.1026 202.035 92.9608 200.758 94.1995 199.824C94.533 199.579 94.7712 199.382 95.0095 199.186C95.2477 198.989 95.4383 198.842 95.5812 198.694C95.7241 198.596 95.8671 198.498 95.9624 198.4C96.1053 198.449 96.1529 198.4 96.1529 198.4Z" fill="#263238"/>
<path d="M96.1054 80.8925C96.1054 80.9416 83.7654 81.0399 68.5191 81.0399C53.2728 81.0399 40.9329 80.9907 40.9329 80.8925C40.9329 80.8434 53.2728 80.7451 68.5191 80.7451C83.7654 80.7451 96.1054 80.7942 96.1054 80.8925Z" fill="#263238"/>
<path d="M87.9103 58.001C87.9103 58.001 87.7673 58.0992 87.4815 58.2957C87.1956 58.4922 86.8144 58.787 86.2903 59.2291C85.8139 59.6712 85.2421 60.2116 84.5275 60.8502C83.8128 61.4397 82.9552 62.1275 81.9547 62.717C79.9536 63.896 77.2855 64.8294 74.2362 65.2224C71.187 65.6154 67.8042 65.3697 64.3261 64.7311C62.5633 64.4364 60.8957 63.9942 59.2758 63.6504C57.6559 63.3065 56.0836 63.11 54.559 63.0609C51.5097 63.0117 48.794 63.6012 46.6023 64.3872C44.4583 65.1732 42.7431 66.0575 41.7902 66.9418C41.3138 67.3839 40.9803 67.7769 40.742 68.0225C40.5515 68.3173 40.4562 68.4646 40.4562 68.4646C40.4562 68.4646 40.5038 68.2681 40.6944 68.0225C40.885 67.7278 41.2185 67.3348 41.6949 66.8926C42.6955 66.0084 44.363 65.075 46.5547 64.289C48.7463 63.503 51.4621 62.8644 54.559 62.9135C56.0836 62.9135 57.7035 63.1591 59.3235 63.503C60.9434 63.8469 62.6109 64.2399 64.3738 64.5837C67.8519 65.2224 71.187 65.468 74.2362 65.1241C77.2378 64.7802 79.9059 63.8469 81.907 62.717C83.9557 61.5871 85.2422 60.1625 86.2427 59.3765C86.7668 58.9344 87.1479 58.6887 87.4338 58.4922C87.5767 58.394 87.672 58.3449 87.7673 58.2957C87.8626 58.0501 87.9103 58.001 87.9103 58.001Z" fill="#263238"/>
<path d="M87.0534 56.9688C87.0534 56.9688 87.0534 57.0179 87.0058 57.067C86.9581 57.1652 86.8628 57.2635 86.7675 57.3617C86.577 57.6074 86.2911 58.0004 85.8623 58.4916C85.0523 59.425 83.8136 60.8005 81.9554 62.0778C80.0973 63.3059 77.5245 64.2393 74.5705 64.3375C71.6165 64.4849 68.4243 63.8463 65.2321 62.7164C63.6599 62.176 62.0876 61.5374 60.6106 61.0953C59.086 60.6531 57.609 60.3093 56.132 60.3093C54.7027 60.2601 53.321 60.5058 52.0822 60.8496C50.8435 61.1935 49.7 61.5374 48.6518 61.9304C46.6031 62.7164 45.0308 63.6006 43.935 64.2393C43.4109 64.534 43.0297 64.8288 42.7915 65.0744C42.5533 65.32 42.458 65.4674 42.458 65.4674C42.458 65.4674 42.5533 65.32 42.7439 65.0744C42.9821 64.8288 43.3633 64.534 43.8873 64.1901C44.9355 63.5515 46.5078 62.6181 48.5565 61.8321C49.6047 61.4391 50.7482 61.0461 51.9869 60.7023C53.2257 60.3584 54.6074 60.1128 56.0844 60.1619C57.5614 60.1619 59.086 60.5058 60.6106 60.9479C62.1352 61.39 63.6599 61.9795 65.2798 62.569C68.4243 63.6989 71.6165 64.3375 74.5228 64.1901C77.4292 64.141 79.9543 63.2076 81.8125 62.0286C83.6706 60.8005 84.9094 59.4741 85.7193 58.5408C86.1481 58.0495 86.434 57.7056 86.6722 57.46C86.7675 57.3618 86.8628 57.2635 86.9105 57.1652C87.0057 56.9687 87.0534 56.9688 87.0534 56.9688Z" fill="#263238"/>
<path d="M95.0096 65.5167C95.0096 65.5167 95.2478 65.7623 95.6766 66.3027C96.1054 66.8431 96.6771 67.7273 97.1536 69.0046C97.3918 69.6432 97.5824 70.3801 97.6777 71.2643C97.773 72.0995 97.7253 73.0328 97.773 74.0645C97.773 74.5557 97.773 75.0961 97.773 75.6365C97.773 76.1769 97.8206 76.7664 97.7253 77.3067C97.5824 78.4857 97.0583 79.6647 96.153 80.5981V80.549C96.153 96.7112 96.2007 124.614 96.2007 160.377V160.426L96.153 160.476C95.7719 160.869 95.5337 161.409 95.5337 161.998C95.5337 162.588 95.7242 163.227 96.153 163.669L96.2007 163.718V163.767C96.2007 171.774 96.2007 180.273 96.2007 189.066V189.116V189.165C95.8672 189.656 95.6289 190.295 95.6289 190.982C95.6289 191.67 95.8195 192.358 96.2007 192.947V192.996V193.046C96.2007 198.155 96.2007 203.411 96.2007 208.766C96.2007 210.092 96.2483 211.467 96.153 212.843C96.0577 214.218 95.8672 215.545 95.486 216.92C95.1525 218.247 94.6761 219.573 94.1043 220.801C93.8184 221.44 93.4849 222.029 93.0561 222.619C92.6273 223.208 92.1509 223.7 91.6268 224.142C90.531 225.026 89.2446 225.616 87.8629 225.861C87.1958 226.008 86.4812 226.009 85.7665 226.009C85.0995 226.009 84.3848 226.009 83.7178 226.009C83.0031 226.009 82.3361 226.009 81.6214 226.009C80.9067 225.959 80.1921 225.566 79.7633 224.977C79.5251 224.682 79.3821 224.387 79.1915 224.044C79.0963 223.896 79.001 223.749 78.9057 223.65C78.7627 223.552 78.6675 223.454 78.4769 223.405C78.191 223.307 77.8098 223.356 77.5716 223.552C77.4287 223.651 77.3334 223.749 77.2381 223.896C77.1428 224.044 77.0952 224.191 77.0475 224.387C76.7617 225.075 76.1423 225.665 75.4276 225.812C75.0465 225.91 74.7129 225.861 74.3318 225.91H73.2836C71.8543 225.91 70.4249 225.959 68.9956 225.959C68.2809 225.959 67.5662 225.959 66.8516 226.009H65.7558C65.4222 226.009 65.0411 226.009 64.6599 225.959C63.9453 225.861 63.2306 225.517 62.6588 225.075C62.0871 224.584 61.6107 223.945 61.3724 223.208L61.4677 223.307L61.3724 223.208C61.2295 222.865 60.9436 222.57 60.6101 222.521C60.2766 222.422 59.8478 222.57 59.6096 222.815C59.3714 223.11 59.1331 223.454 58.8473 223.798C58.6091 224.142 58.3708 224.486 58.0373 224.78C57.4179 225.37 56.608 225.714 55.798 225.861C55.3692 225.91 54.9881 225.91 54.5593 225.91H53.3205C52.5105 225.91 51.7006 225.91 50.843 225.91C50.4142 225.861 50.033 225.91 49.6042 225.763L48.9848 225.665C48.7943 225.616 48.6037 225.517 48.3655 225.468C46.7455 224.977 45.4115 223.847 44.3157 222.521C43.2198 221.194 42.4575 219.622 41.8858 218.001C41.314 216.38 40.8376 214.71 40.5517 212.99C40.2659 211.271 40.1229 209.502 40.1229 207.783C40.1229 206.015 40.1706 204.295 40.1706 202.527C40.2182 198.695 40.2659 194.912 40.3135 191.179V191.228C39.98 190 39.8847 188.723 39.8847 187.445C39.8847 186.168 39.9324 184.94 39.9324 183.663C39.98 181.157 39.98 178.652 40.0276 176.196C40.0753 173.739 40.0753 171.234 40.1229 168.778C40.1229 167.55 40.1706 166.321 40.1706 165.093C40.1706 164.455 40.2659 163.816 40.5517 163.276C40.6947 162.981 40.8376 162.735 40.8852 162.441C40.9329 162.146 40.9805 161.851 40.9329 161.556C40.8852 161.262 40.79 161.016 40.6947 160.721C40.5994 160.426 40.5517 160.132 40.5041 159.788C40.5041 159.198 40.5041 158.56 40.5041 157.97C40.5041 156.742 40.5041 155.563 40.5041 154.335C40.5041 151.928 40.5041 149.57 40.5041 147.163C40.5041 142.398 40.5041 137.731 40.5041 133.113C40.5041 114.642 40.5041 97.2024 40.5041 81.1385L40.5517 81.2368C39.9324 80.5981 39.4559 79.763 39.2177 78.8787C39.0747 78.4366 39.0271 77.9945 39.0271 77.5524C39.0271 77.1102 39.0271 76.6681 39.0271 76.226C39.0271 75.3417 39.0271 74.4575 39.0271 73.5732C39.0271 72.689 39.0747 71.8047 39.2653 70.9696C39.6465 69.2502 40.5041 67.6782 41.5999 66.401C42.6957 65.1237 43.7916 63.8956 44.8398 62.6674C49.1278 57.7549 53.2252 53.0389 57.0844 48.5685V48.6177C57.0844 46.5053 57.0844 44.5894 57.0844 42.7718L57.1797 42.87C56.9891 42.87 56.7986 42.87 56.608 42.87C56.4174 42.87 56.2268 42.7718 56.0839 42.6735C55.7504 42.4279 55.6074 42.0349 55.6074 41.691C55.6074 41.298 55.8457 40.9541 56.1792 40.8068C56.3221 40.7085 56.5127 40.6594 56.7033 40.6594H57.1797L57.0844 40.7576C57.0844 38.9891 57.0844 37.4171 57.0844 35.8943V35.796H57.1797C65.3746 35.7469 72.5213 35.6978 78.858 35.6978H78.9057V35.7469C78.9057 37.7119 78.9057 39.2348 78.9057 40.7576L78.858 40.7085C79.0486 40.7085 79.2392 40.7085 79.4298 40.7085C79.6203 40.7576 79.8109 40.8068 79.9538 40.9541C80.2397 41.1998 80.3827 41.5928 80.335 41.9366C80.2874 42.2805 80.0491 42.5753 79.7633 42.7226C79.6203 42.8209 79.4774 42.8209 79.3345 42.87C79.1915 42.87 79.0486 42.87 78.9057 42.87L78.9533 42.8209C78.9533 45.228 78.9533 47.0948 78.9533 48.8633V48.8142C84.1466 54.2671 88.1487 58.4427 90.8168 61.2919C92.1509 62.7166 93.1991 63.7973 93.8661 64.4851C94.6761 65.1728 95.0096 65.5167 95.0096 65.5167C95.0096 65.5167 94.6761 65.1728 93.9614 64.436C93.2944 63.6991 92.2462 62.6675 90.9121 61.2428C88.1964 58.4427 84.1942 54.2671 79.001 48.8142C79.001 47.0457 79.001 45.1789 79.001 42.7718V42.7226H79.0486C79.3345 42.7226 79.6203 42.7718 79.9062 42.5753C80.1444 42.4279 80.3827 42.1823 80.3827 41.8875C80.4303 41.5928 80.335 41.2489 80.0491 41.0033C79.9062 40.905 79.7633 40.8068 79.5727 40.8068C79.4298 40.7576 79.1915 40.8068 79.001 40.8068H78.9533V40.7576C78.9533 39.2348 78.9533 37.7119 78.9533 35.7469L79.001 35.796C72.6642 35.8451 65.5175 35.8943 57.3226 35.9434L57.4179 35.8451C57.4179 37.368 57.4179 38.94 57.4179 40.7085V40.8068H57.3226C56.9891 40.8068 56.6556 40.7576 56.4174 40.9541C56.1315 41.1015 55.941 41.3963 55.941 41.691C55.8933 42.0349 56.0839 42.3296 56.3221 42.5261C56.608 42.7226 56.9415 42.6735 57.3226 42.6735H57.4179V42.7718C57.4179 44.6385 57.4179 46.5053 57.4179 48.6177V48.6668V48.7159C53.5587 53.1863 49.4613 57.8532 45.1733 62.8148C44.0774 64.043 43.0293 65.3202 41.9334 66.5483C40.8376 67.7765 40.0276 69.3485 39.6465 71.0187C39.4559 71.8538 39.4083 72.7381 39.4083 73.5732C39.4083 74.4575 39.4083 75.3417 39.4083 76.226C39.4083 77.1102 39.3606 77.9945 39.5988 78.8787C39.8371 79.7139 40.2659 80.4999 40.8852 81.1385L40.9329 81.1876V81.2368C40.9329 97.2515 40.9329 114.691 40.9329 133.211C40.9329 137.829 40.9329 142.496 40.9329 147.261C40.9329 149.619 40.9329 152.026 40.9329 154.433C40.9329 155.612 40.9329 156.84 40.9329 158.068C40.9329 158.658 40.9329 159.297 40.9329 159.886C40.9329 160.181 41.0282 160.476 41.0758 160.721C41.1711 161.016 41.2664 161.311 41.314 161.605C41.3617 161.9 41.314 162.244 41.2664 162.539C41.2188 162.834 41.0282 163.128 40.9329 163.423C40.6947 163.963 40.5994 164.553 40.5994 165.142C40.5994 166.371 40.5517 167.599 40.5517 168.827C40.5041 171.283 40.5041 173.739 40.4564 176.245C40.4088 178.701 40.4088 181.206 40.3612 183.712C40.3612 184.94 40.3135 186.217 40.3135 187.494C40.3135 188.723 40.4088 190 40.6947 191.228C40.647 194.961 40.5994 198.744 40.5517 202.576C40.5517 204.344 40.5041 206.064 40.5041 207.832C40.5041 209.552 40.647 211.32 40.9329 212.99C41.2188 214.71 41.6476 216.38 42.2193 217.952C42.8387 219.524 43.601 221.096 44.6492 222.373C45.6974 223.651 47.0314 224.731 48.556 225.272C50.0807 225.812 51.7482 225.665 53.3681 225.714H54.6069C55.0357 225.714 55.4169 225.714 55.798 225.665C56.5603 225.566 57.3226 225.223 57.8944 224.682C58.1803 224.437 58.4185 224.093 58.6567 223.749C58.8949 223.405 59.1331 223.11 59.419 222.766C59.7525 222.422 60.229 222.275 60.6578 222.422C61.0866 222.521 61.4677 222.865 61.6107 223.258L61.5154 223.159L61.6107 223.258C61.8489 223.945 62.2777 224.535 62.8018 224.977C63.3259 225.419 63.9929 225.714 64.7076 225.812C65.0411 225.861 65.4222 225.861 65.7558 225.861H66.8516C67.5662 225.861 68.2809 225.861 68.9956 225.812C70.4249 225.812 71.8543 225.763 73.2836 225.763H74.3318C74.6653 225.763 75.0465 225.763 75.38 225.714C76.047 225.566 76.5711 225.026 76.8569 224.387C76.9522 224.24 76.9522 224.044 77.0952 223.896C77.1905 223.7 77.3334 223.552 77.4763 223.454C77.8098 223.208 78.191 223.159 78.5722 223.258C78.7627 223.307 78.9533 223.405 79.0963 223.552C79.2392 223.7 79.3345 223.847 79.4298 223.994C79.6203 224.289 79.8109 224.633 80.0015 224.879C80.3827 225.419 81.0497 225.763 81.7167 225.812C82.4314 225.812 83.0984 225.812 83.7654 225.812C84.4801 225.812 85.1471 225.812 85.8141 225.812C86.5288 225.812 87.1958 225.812 87.8629 225.665C89.1969 225.419 90.4357 224.83 91.4839 223.994C92.0079 223.552 92.4844 223.061 92.8656 222.521C93.2467 221.98 93.5802 221.342 93.8661 220.752C94.4378 219.524 94.9143 218.198 95.2478 216.92C95.5813 215.594 95.8195 214.268 95.8672 212.892C95.9625 211.566 95.9148 210.19 95.9148 208.864C95.9148 203.509 95.9148 198.253 95.9148 193.144V193.193C95.486 192.554 95.2954 191.817 95.2954 191.081C95.2954 190.344 95.5336 189.656 95.9148 189.116V189.165C95.9148 180.371 95.9148 171.873 95.9148 163.865L95.9625 163.914C95.486 163.423 95.2478 162.735 95.2478 162.097C95.2478 161.458 95.5337 160.819 95.9625 160.426L95.9148 160.476C95.9625 124.762 95.9625 96.8585 95.9625 80.6473C96.8677 79.763 97.3918 78.5349 97.5347 77.405C97.5824 76.8155 97.5824 76.2751 97.5824 75.7347C97.5824 75.1944 97.5824 74.654 97.5824 74.1627C97.5824 73.1311 97.63 72.1977 97.5347 71.3626C97.4394 70.5275 97.2489 69.7906 97.0106 69.152C96.5342 67.8747 95.9625 66.9905 95.5337 66.4501C95.3431 66.1553 95.1525 65.9588 95.0572 65.8606C95.0572 65.615 95.0096 65.5167 95.0096 65.5167Z" fill="#263238"/>
<path d="M79.0962 40.561C79.0962 40.6101 74.2364 40.7084 68.2332 40.7575C62.23 40.8066 57.3702 40.7575 57.3702 40.7084C57.3702 40.6593 62.23 40.561 68.2332 40.5119C74.2364 40.4628 79.0962 40.4628 79.0962 40.561Z" fill="#263238"/>
<path d="M79.6203 42.7221C79.6203 42.7712 74.6176 42.8695 68.5191 42.8695C62.3729 42.8695 57.3702 42.8203 57.3702 42.7221C57.3702 42.673 62.3729 42.5747 68.5191 42.5747C74.6653 42.6238 79.6203 42.673 79.6203 42.7221Z" fill="#263238"/>
<path d="M79.0009 44.5398C79.0009 44.589 74.1412 44.6872 68.1856 44.6872C62.23 44.6872 57.3702 44.6381 57.3702 44.5398C57.3702 44.4416 62.23 44.3925 68.1856 44.3925C74.1888 44.3925 79.0009 44.4416 79.0009 44.5398Z" fill="#263238"/>
<path d="M79.0009 46.3085C79.0009 46.3576 74.1412 46.4559 68.1856 46.4559C62.23 46.4559 57.3702 46.4068 57.3702 46.3085C57.3702 46.2594 62.23 46.1611 68.1856 46.1611C74.1888 46.1611 79.0009 46.2103 79.0009 46.3085Z" fill="#263238"/>
<path d="M57.3702 42.7714C57.7037 43.3609 58.2755 43.7539 58.8948 43.9504C59.5142 44.1469 60.1812 44.1469 60.8483 44.196C66.518 44.3434 72.1877 44.0977 77.8098 43.5082C78.2862 43.4591 78.8103 43.3117 78.9532 42.8696C78.048 42.8205 77.1427 42.8205 76.2375 42.8205C70.8537 42.8205 65.4222 42.8205 60.0383 42.8696C59.0378 42.8696 58.0849 42.8696 57.0844 42.8696" fill="#E0E0E0"/>
<path d="M53.6063 39.1364V22.1391C53.6063 22.1391 53.4633 18.7003 68.3761 18.7003C81.9548 18.7003 81.9072 22.6795 81.9072 22.6795V39.1364H53.6063Z" fill="#E8505B"/>
<path d="M55.4645 35.7467C55.4168 35.7467 55.3215 32.7992 55.3215 29.2131C55.3215 25.627 55.3692 22.6794 55.4645 22.6794C55.5121 22.6794 55.6074 25.627 55.6074 29.2131C55.6074 32.8483 55.5598 35.7467 55.4645 35.7467Z" fill="#263238"/>
<path d="M57.9896 35.7469C57.942 35.7469 57.8467 32.652 57.8467 28.8693C57.8467 25.0376 57.8943 21.9918 57.9896 21.9918C58.0373 21.9918 58.1326 25.0867 58.1326 28.8693C58.1326 32.652 58.0849 35.7469 57.9896 35.7469Z" fill="#263238"/>
<path d="M60.4671 35.7468C60.4195 35.7468 60.3242 32.5536 60.3242 28.5745C60.3242 24.6445 60.3719 21.4022 60.4671 21.4022C60.5624 21.4022 60.6101 24.5954 60.6101 28.5745C60.5624 32.5536 60.5148 35.7468 60.4671 35.7468Z" fill="#263238"/>
<path d="M62.897 35.7467C62.8493 35.7467 62.754 32.4553 62.754 28.4271C62.754 24.3988 62.8017 21.1074 62.897 21.1074C62.9446 21.1074 63.0399 24.3988 63.0399 28.4271C62.9923 32.4553 62.9446 35.7467 62.897 35.7467Z" fill="#263238"/>
<path d="M65.3269 35.7467C65.2793 35.7467 65.184 32.4553 65.184 28.4271C65.184 24.3988 65.2316 21.1074 65.3269 21.1074C65.4222 21.1074 65.4698 24.3988 65.4698 28.4271C65.4222 32.4553 65.3745 35.7467 65.3269 35.7467Z" fill="#263238"/>
<path d="M67.7568 35.7467C67.7092 35.7467 67.6139 32.4553 67.6139 28.4271C67.6139 24.3988 67.6615 21.1074 67.7568 21.1074C67.8521 21.1074 67.8998 24.3988 67.8998 28.4271C67.8998 32.4553 67.8045 35.7467 67.7568 35.7467Z" fill="#263238"/>
<path d="M70.1866 35.7467C70.139 35.7467 70.0437 32.4553 70.0437 28.4271C70.0437 24.3988 70.0913 21.1074 70.1866 21.1074C70.2343 21.1074 70.3296 24.3988 70.3296 28.4271C70.3296 32.4553 70.2819 35.7467 70.1866 35.7467Z" fill="#263238"/>
<path d="M72.6164 35.7467C72.5688 35.7467 72.4735 32.4553 72.4735 28.4271C72.4735 24.3988 72.5211 21.1074 72.6164 21.1074C72.6641 21.1074 72.7594 24.3988 72.7594 28.4271C72.7594 32.4553 72.7117 35.7467 72.6164 35.7467Z" fill="#263238"/>
<path d="M75.0464 35.7467C74.9987 35.7467 74.9034 32.6027 74.9034 28.6727C74.9034 24.7426 74.9511 21.5986 75.0464 21.5986C75.1417 21.5986 75.1893 24.7426 75.1893 28.6727C75.1893 32.6027 75.1417 35.7467 75.0464 35.7467Z" fill="#263238"/>
<path d="M77.5239 35.7466C77.4763 35.7466 77.381 32.7009 77.381 28.9674C77.381 25.2339 77.4286 22.1881 77.5239 22.1881C77.5716 22.1881 77.6669 25.2339 77.6669 28.9674C77.6192 32.7009 77.5716 35.7466 77.5239 35.7466Z" fill="#263238"/>
<path d="M79.9538 35.7468C79.9062 35.7468 79.8109 32.8975 79.8109 29.3605C79.8109 25.8235 79.8586 22.9742 79.9538 22.9742C80.0015 22.9742 80.0968 25.8235 80.0968 29.3605C80.0491 32.8975 80.0015 35.7468 79.9538 35.7468Z" fill="#263238"/>
<path d="M80.9545 23.3189C80.9545 23.3189 80.8592 23.3189 80.6686 23.2698C80.4781 23.2207 80.2399 23.1224 79.9063 23.0242C79.5728 22.9259 79.1917 22.7785 78.7152 22.6312C78.2388 22.4838 77.7147 22.3364 77.0953 22.189C76.4759 22.0417 75.8565 21.8943 75.1419 21.7469C74.4272 21.5995 73.6649 21.5013 72.8549 21.3539C71.235 21.1574 69.4722 20.9609 67.5664 20.9609C65.7082 20.9609 63.8977 21.1083 62.2778 21.3048C61.4679 21.403 60.7055 21.5013 59.9909 21.6487C59.2762 21.7469 58.6092 21.9434 58.0374 22.0908C57.4181 22.2382 56.894 22.3855 56.4175 22.5329C55.9411 22.6803 55.5599 22.7785 55.2264 22.8768C54.8929 22.975 54.6547 23.0733 54.4641 23.1224C54.2735 23.1715 54.1782 23.1715 54.1782 23.1715C54.1782 23.1715 54.2735 23.1224 54.4164 23.0733C54.607 23.0242 54.8453 22.9259 55.1788 22.7785C55.5123 22.6803 55.8934 22.5329 56.3699 22.3855C56.8463 22.2382 57.3704 22.0908 57.9898 21.9434C58.6092 21.796 59.2286 21.5995 59.9909 21.5013C60.7055 21.3539 61.4679 21.2557 62.2778 21.1083C63.8977 20.9118 65.7082 20.7644 67.614 20.7644C69.5198 20.7644 71.2827 20.9609 72.9502 21.1574C73.7602 21.3048 74.5225 21.403 75.2372 21.5995C75.9518 21.7469 76.6189 21.8943 77.1906 22.0908C77.81 22.2382 78.3341 22.4347 78.8105 22.582C79.287 22.7294 79.6681 22.8768 80.0016 22.975C80.2875 23.0733 80.5734 23.1715 80.7639 23.2698C80.8592 23.2698 80.9545 23.3189 80.9545 23.3189Z" fill="#263238"/>
<path d="M81.0974 35.7958C81.0974 35.8449 75.1895 35.9432 67.8998 35.9432C60.6102 35.9432 54.7023 35.8941 54.7023 35.7958C54.7023 35.6976 60.6102 35.6484 67.8998 35.6484C75.1895 35.6484 81.0974 35.7467 81.0974 35.7958Z" fill="#263238"/>
<path d="M96.153 105.161H40.7899V145.738H96.153V105.161Z" fill="#E8505B"/>
<path d="M44.5538 142.791C44.5062 142.791 44.4109 135.569 44.4109 126.628C44.4109 117.688 44.4585 110.466 44.5538 110.466C44.6015 110.466 44.6968 117.688 44.6968 126.628C44.6968 135.52 44.6015 142.791 44.5538 142.791Z" fill="white"/>
<rect x="26.0291" y="12.6978" width="84.5459" height="222.508" rx="33.5" stroke="black" stroke-dasharray="10 10 10 10 10 10"/>
<path d="M24.79 15.7243C25.0618 15.7243 25.2823 15.497 25.2823 15.2167L25.2823 10.6484C25.2823 10.3681 25.0618 10.1408 24.79 10.1408C24.5181 10.1408 24.2977 10.3681 24.2977 10.6484L24.2977 14.7091L20.3593 14.7091C20.0874 14.7091 19.867 14.9364 19.867 15.2167C19.867 15.497 20.0874 15.7243 20.3593 15.7243L24.79 15.7243ZM10.2997 0.994052L24.4419 15.5756L25.1381 14.8578L10.9959 0.276211L10.2997 0.994052Z" fill="black"/>
<path d="M25.2823 226.009C25.2823 225.728 25.0618 225.501 24.79 225.501L20.3593 225.501C20.0874 225.501 19.867 225.728 19.867 226.009C19.867 226.289 20.0874 226.516 20.3593 226.516L24.2977 226.516L24.2977 230.577C24.2977 230.857 24.5181 231.085 24.79 231.085C25.0618 231.085 25.2823 230.857 25.2823 230.577L25.2823 226.009ZM10.9959 240.949L25.1381 226.368L24.4419 225.65L10.2997 240.231L10.9959 240.949Z" fill="black"/>
<path d="M115.219 225.501C114.947 225.501 114.727 225.728 114.727 226.009L114.727 230.577C114.727 230.857 114.947 231.085 115.219 231.085C115.491 231.085 115.711 230.857 115.711 230.577L115.711 226.516L119.65 226.516C119.921 226.516 120.142 226.289 120.142 226.009C120.142 225.728 119.921 225.501 119.65 225.501L115.219 225.501ZM129.709 240.231L115.567 225.65L114.871 226.368L129.013 240.949L129.709 240.231Z" fill="black"/>
<path d="M114.727 15.1719C114.727 15.4522 114.947 15.6795 115.219 15.6795L119.65 15.6795C119.921 15.6795 120.142 15.4523 120.142 15.1719C120.142 14.8916 119.921 14.6643 119.65 14.6643L115.711 14.6643L115.711 10.6036C115.711 10.3233 115.491 10.096 115.219 10.096C114.947 10.096 114.727 10.3233 114.727 10.6036L114.727 15.1719ZM129.013 0.231412L114.871 14.813L115.567 15.5308L129.709 0.949252L129.013 0.231412Z" fill="black"/>
<path d="M20.4512 124.305C20.6465 124.11 20.6465 123.793 20.4512 123.598L17.2692 120.416C17.074 120.221 16.7574 120.221 16.5621 120.416C16.3669 120.611 16.3669 120.928 16.5621 121.123L19.3905 123.951L16.5621 126.78C16.3669 126.975 16.3669 127.292 16.5621 127.487C16.7574 127.682 17.074 127.682 17.2692 127.487L20.4512 124.305ZM0.0976563 124.451H20.0977V123.451H0.0976562L0.0976563 124.451Z" fill="black"/>
<path d="M115.888 123.598C115.693 123.793 115.693 124.11 115.888 124.305L119.07 127.487C119.265 127.682 119.582 127.682 119.777 127.487C119.972 127.292 119.972 126.975 119.777 126.78L116.949 123.951L119.777 121.123C119.972 120.928 119.972 120.611 119.777 120.416C119.582 120.221 119.265 120.221 119.07 120.416L115.888 123.598ZM136.242 123.451H116.242V124.451H136.242V123.451Z" fill="black"/>
</svg>
