<svg width="149" height="241" viewBox="0 0 149 241" fill="none" xmlns="http://www.w3.org/2000/svg">
<path d="M106.946 54.5965L87.8203 35.26V28.2647H88.2199C88.7908 28.2647 89.3617 27.8666 89.4759 27.2979C89.5901 26.5585 89.0192 25.8761 88.277 25.8761H87.7632V20.0182L61.7868 20.1889V25.8192H61.273C60.702 25.8192 60.1311 26.2173 60.017 26.786C59.9028 27.5254 60.4737 28.2078 61.2159 28.2078H61.7868V34.9756L43.0609 55.7908C41.1769 57.8951 40.1493 60.625 40.1493 63.4117V68.2459C40.1493 69.8951 40.7773 71.4876 41.9762 72.625V163.45C41.9762 163.962 42.0904 164.474 42.3188 164.985C42.6042 165.782 42.5471 166.635 42.1475 167.374C41.8049 168.057 41.5766 168.796 41.5766 169.535L41.2911 195.81C41.2911 197.175 41.4053 198.54 41.8049 199.848L41.5766 218.616C41.5195 221.687 41.862 224.701 42.6613 227.659C44.0886 233.061 47.2857 239.886 54.5362 239.886H59.5031C60.9875 239.886 62.3577 239.204 63.2711 238.009L64.413 236.531C65.0981 235.621 66.5253 235.848 66.925 236.929C67.6101 238.862 69.4941 240.114 71.4922 240.057L82.9675 239.886C84.1664 239.886 85.137 239.033 85.4795 237.896C85.8792 236.758 87.4206 236.588 88.0486 237.611L88.7337 238.635C89.3046 239.488 90.2181 240 91.1886 240H96.7265C100.266 240 103.577 238.066 105.29 234.995C105.347 234.938 105.347 234.881 105.404 234.824C107.345 231.185 108.316 227.09 108.316 222.995V202.009C107.345 200.644 107.345 198.824 108.316 197.459V168.17C107.288 167.147 107.231 165.497 108.202 164.417L108.316 164.303V133.649V71.9994L108.43 71.8857C109.572 70.7482 110.257 69.1558 110.257 67.5065V62.6155C110.257 59.6582 109.058 56.7577 106.946 54.5965Z" fill="#F5F5F5"/>
<path d="M98.1528 57.8384C102.092 56.9284 105.974 59.8289 106.031 63.8668V63.9237V68.3597C106.031 69.8384 105.46 71.3171 104.433 72.3408L104.319 72.4545V128.815V156.796L104.204 156.91C103.348 157.877 103.405 159.412 104.319 160.322V187.052C103.462 188.303 103.462 189.952 104.319 191.204V210.37C104.319 214.123 103.462 217.877 101.75 221.175C101.75 221.232 101.692 221.289 101.692 221.346C100.208 224.189 97.2964 225.896 94.1564 225.896H89.2466L81.8819 225.782L71.7197 225.952L61.1008 225.782H56.7048C50.3106 225.782 47.456 219.583 46.2 214.635C45.5149 211.962 45.2295 209.175 45.2866 206.388L45.5149 189.27C45.1724 188.076 45.0582 186.824 45.0582 185.573L45.3436 161.573C45.3436 160.891 45.5149 160.208 45.8575 159.583C46.2 158.9 46.2571 158.104 45.9717 157.365C45.8004 156.91 45.6862 156.455 45.6862 156V73.137C44.6586 72.0564 44.0876 70.6346 44.0876 69.1559V64.7199V64.663C44.0876 60.7957 46.9422 57.4971 50.7673 56.644C54.7066 55.791 61.0437 54.9947 67.2666 56.644C77.4859 59.317 77.6571 60.7957 84.9648 60.1701C89.0183 59.772 94.3277 58.6914 98.1528 57.8384Z" fill="#E8505B"/>
<path opacity="0.5" d="M98.1528 57.8384C102.092 56.9284 105.974 59.8289 106.031 63.8668V63.9237V68.3597C106.031 69.8384 105.46 71.3171 104.433 72.3408L104.319 72.4545L104.433 124.266L104.319 156.796L104.204 156.91C103.348 157.877 103.405 159.412 104.319 160.322V187.052C103.462 188.303 103.462 189.952 104.319 191.204V210.37C104.319 214.123 103.462 217.877 101.75 221.175C101.75 221.232 101.692 221.289 101.692 221.346C100.208 224.189 97.2964 225.896 94.1564 225.896H89.2466L81.8819 225.782L71.7197 225.952L61.1008 225.782H56.7047C50.3106 225.782 47.456 219.583 46.2 214.635C45.5149 211.962 45.2295 209.175 45.2866 206.388L45.5149 189.27C45.1724 188.076 45.0582 186.824 45.0582 185.573L45.3436 161.573C45.3436 160.891 45.5149 160.208 45.8575 159.583C46.2 158.9 46.2571 158.104 45.9717 157.365C45.8004 156.91 45.6862 156.455 45.6862 156V73.137C44.6586 72.0564 44.0876 70.6346 44.0876 69.1559V64.7199V64.663C44.0876 60.7957 46.9422 57.4971 50.7673 56.644C54.7066 55.791 61.0437 54.9947 67.2666 56.644C77.4859 59.317 77.6571 60.7957 84.9648 60.1701C89.0182 59.772 94.3277 58.6914 98.1528 57.8384Z" fill="white"/>
<path d="M109 72.6822C109 72.739 94.0423 72.8528 75.5448 72.8528C57.0474 72.8528 42.0895 72.7959 42.0895 72.6822C42.0895 72.6253 57.0474 72.5115 75.5448 72.5115C93.9852 72.5115 109 72.5684 109 72.6822Z" fill="#263238"/>
<path d="M45.7434 111.639C48.9405 104.928 55.3347 99.753 62.6423 98.0468C69.4933 96.4544 76.9151 97.7056 83.4805 95.0895C90.3315 92.3596 94.8417 85.9331 98.3813 79.5065C99.7515 77.0041 101.464 74.2174 104.319 73.8762C103.577 75.8667 104.775 78.2553 103.805 80.0752C103.462 80.7008 102.891 81.2127 102.378 81.6677C98.2671 85.535 95.5838 90.5966 93.2431 95.7151C91.8158 98.8431 90.3886 102.199 87.7053 104.417C85.7642 106.009 83.3093 106.919 80.8544 107.374C74.5173 108.511 67.7234 106.976 61.7289 109.251C57.1045 110.957 53.5649 114.767 51.11 119.033C48.6551 123.298 47.2849 128.018 45.8576 132.739" fill="white"/>
<path d="M106.088 65.7436C106.088 65.9142 105.061 66.0279 103.348 66.7672C101.635 67.5066 99.4087 69.0421 97.2393 71.6014C96.1545 72.8526 95.0698 74.3313 93.9851 75.9805C92.9004 77.6298 91.8156 79.4497 90.5596 81.3834C89.3036 83.2602 87.8764 85.2507 85.9924 86.9569C84.1654 88.7199 81.8818 90.1417 79.3698 91.1085C76.8578 92.0754 74.2316 92.5303 71.6625 92.5303C69.1505 92.4735 66.8098 92.0754 64.6403 92.0754C60.3014 92.0185 56.4192 93.3266 53.5076 94.919C52.0232 95.7152 50.8243 96.5683 49.7967 97.4214C48.769 98.2176 47.9697 99.0707 47.2846 99.6962C46.0286 101.061 45.4006 101.914 45.2865 101.857C45.2294 101.801 45.3436 101.573 45.5719 101.118C45.8003 100.663 46.1999 100.037 46.7708 99.2413C47.3988 98.5019 48.141 97.592 49.1687 96.682C50.1963 95.7152 51.3952 94.7484 52.9367 93.8953C55.9054 92.1322 59.9589 90.5967 64.6403 90.5398C66.981 90.5398 69.3218 90.8811 71.6625 90.8811C74.0032 90.8811 76.4581 90.4261 78.7418 89.5161C81.0825 88.6062 83.1378 87.2981 84.8505 85.7057C86.5633 84.1133 87.9905 82.2934 89.2465 80.4734C90.5025 78.6535 91.6444 76.8336 92.7862 75.1843C93.928 73.535 95.0698 71.9995 96.3258 70.7483C98.7236 68.189 101.236 66.7104 103.063 66.1417C105.004 65.5729 106.088 65.6867 106.088 65.7436Z" fill="white"/>
<path d="M45.4579 187.904C47.8557 185.516 51.6238 185.061 54.9921 185.459C58.3605 185.857 61.6718 186.937 65.0401 186.937C69.7216 186.937 74.4031 184.833 77.486 181.307C78.6278 179.999 79.5412 178.52 80.6831 177.155C83.4805 173.857 87.4769 171.582 91.7587 170.843C93.6998 170.501 95.698 170.501 97.4678 169.762C101.179 168.283 103.063 164.302 104.661 160.662C104.433 166.634 104.147 172.549 103.919 178.52C97.582 177.326 91.5874 181.421 86.6205 185.516C81.6536 189.61 76.2871 194.217 69.8358 194.217C66.4103 194.217 63.042 192.909 59.6165 193.023C53.1652 193.25 48.027 198.312 43.6881 203.032" fill="white"/>
<path d="M106.089 160.322C106.089 160.436 105.118 160.493 103.462 160.948C102.606 161.118 101.635 161.516 100.494 161.971C99.4089 162.483 98.1529 163.166 96.8969 164.019C95.6409 164.872 94.2707 165.895 92.9576 167.09C91.5874 168.284 90.2173 169.649 88.7329 171.128C87.2485 172.606 85.7071 174.142 83.9373 175.621C82.1674 177.099 80.2263 178.521 77.9998 179.658C75.7732 180.796 73.3754 181.422 71.0347 181.649C68.694 181.876 66.4674 181.82 64.4121 181.763C62.3568 181.649 60.3587 181.535 58.5318 181.535C56.7048 181.535 55.0492 181.649 53.5078 181.876C52.0234 182.104 50.6532 182.445 49.5114 182.9C48.3696 183.355 47.4561 183.867 46.771 184.322C45.3437 185.289 44.7157 186.028 44.6016 185.971C44.5445 185.914 45.0012 185.004 46.3714 183.81C47.0565 183.241 47.9699 182.616 49.1688 182.047C50.3107 181.478 51.7379 181.023 53.2794 180.739C54.8779 180.398 56.5907 180.227 58.4747 180.17C60.3587 180.113 62.3568 180.227 64.4121 180.284C66.4674 180.341 68.6369 180.341 70.8063 180.113C72.9758 179.886 75.1452 179.26 77.2005 178.237C79.2558 177.213 81.1398 175.848 82.7954 174.483C84.5082 173.061 86.0496 171.583 87.534 170.161C89.0183 168.739 90.5027 167.374 91.93 166.18C93.3573 164.985 94.7845 163.962 96.1547 163.166C97.5249 162.312 98.838 161.687 100.037 161.289C101.236 160.891 102.321 160.606 103.177 160.493C105.118 160.038 106.089 160.208 106.089 160.322Z" fill="white"/>
<path d="M45.2868 217.308C52.0235 221.346 60.8726 220.151 67.8377 216.568C74.8028 212.985 80.3977 207.241 86.221 201.952C92.0443 196.663 98.3814 191.545 106.032 189.668C105.346 188.758 104.947 187.62 104.89 186.483C96.0977 190.35 87.0774 194.331 80.3406 201.156C77.9999 203.488 76.0017 206.161 73.3755 208.265C70.8635 210.256 67.9519 211.564 64.9832 212.701C59.0457 215.033 52.5944 216.796 46.2573 215.943C45.7435 215.886 45.1726 215.829 44.83 216.227C44.4875 216.625 45.0584 217.365 45.401 216.966" fill="white"/>
<path d="M95.1843 154.35C95.1843 155.317 94.385 156.113 93.4145 156.113C92.4439 156.113 91.6447 155.317 91.6447 154.35C91.6447 153.383 92.4439 152.587 93.4145 152.587C94.385 152.587 95.1843 153.383 95.1843 154.35Z" fill="white"/>
<path d="M86.5063 158.047C86.5063 158.559 86.1067 158.9 85.6499 158.9C85.1361 158.9 84.7936 158.502 84.7936 158.047C84.7936 157.536 85.1932 157.194 85.6499 157.194C86.1638 157.194 86.5063 157.592 86.5063 158.047Z" fill="white"/>
<path d="M66.5246 206.843C66.9976 206.843 67.381 206.461 67.381 205.99C67.381 205.519 66.9976 205.137 66.5246 205.137C66.0517 205.137 65.6683 205.519 65.6683 205.99C65.6683 206.461 66.0517 206.843 66.5246 206.843Z" fill="white"/>
<path d="M108.315 168.625C108.315 168.682 93.3004 168.796 74.803 168.796C56.3055 168.796 41.2905 168.739 41.2905 168.625C41.2905 168.512 56.3055 168.455 74.803 168.455C93.3004 168.512 108.315 168.568 108.315 168.625Z" fill="#263238"/>
<path d="M108.144 198.028C108.144 198.085 93.186 198.199 74.6885 198.199C56.191 198.199 41.2332 198.142 41.2332 198.028C41.2332 197.971 56.191 197.858 74.6885 197.858C93.186 197.915 108.144 197.971 108.144 198.028Z" fill="#263238"/>
<path d="M108.543 202.407C108.543 202.464 93.5855 202.578 75.088 202.578C56.5905 202.578 41.6327 202.521 41.6327 202.407C41.6327 202.351 56.5905 202.237 75.088 202.237C93.5855 202.237 108.543 202.294 108.543 202.407Z" fill="#263238"/>
<path d="M108.315 164.133C108.315 164.19 93.5286 164.303 75.2595 164.303C56.9904 164.303 42.2038 164.247 42.2038 164.133C42.2038 164.076 56.9904 163.962 75.2595 163.962C93.4715 163.962 108.315 164.019 108.315 164.133Z" fill="#263238"/>
<path d="M70.2357 240.057C70.2357 240.057 70.0644 240.057 69.7218 239.887C69.4364 239.773 68.9797 239.489 68.58 239.091C67.6666 238.238 66.9244 236.816 66.068 235.223C65.2117 233.631 64.4124 232.209 63.8415 231.185C63.2706 230.162 62.9851 229.479 62.9851 229.479C62.9851 229.479 63.3847 230.048 64.0127 231.072C64.5837 232.095 65.44 233.517 66.2964 235.053C67.1528 236.588 67.8949 238.067 68.6942 238.92C69.4935 239.83 70.2357 240.001 70.2357 240.057Z" fill="#263238"/>
<path d="M88.9044 229.365C88.9615 229.365 88.8473 229.877 88.619 230.616C88.3906 231.412 88.0481 232.436 87.5913 233.63C87.1346 234.768 86.6779 235.791 86.3353 236.531C85.9928 237.27 85.7644 237.725 85.7074 237.668C85.6503 237.668 85.8215 237.156 86.1641 236.417C86.5066 235.564 86.9063 234.597 87.3059 233.46C87.7055 232.379 88.1052 231.355 88.3906 230.502C88.6761 229.82 88.8473 229.365 88.9044 229.365Z" fill="#263238"/>
<path d="M108.144 209.118C108.144 209.118 108.087 209.175 107.973 209.232C107.859 209.346 107.744 209.46 107.516 209.573C107.116 209.858 106.545 210.313 105.803 210.881C104.319 212.019 102.092 213.611 99.1807 215.318C97.7534 216.171 96.0978 217.081 94.3279 217.934C92.501 218.787 90.5599 219.583 88.3905 220.152C84.0516 221.289 79.0276 221.687 73.9465 220.493C71.4345 219.924 69.0366 218.9 66.9814 217.649C64.9261 216.398 63.0992 214.863 61.3865 213.384C59.7308 211.905 58.1323 210.483 56.6479 209.232C55.1064 207.981 53.6221 206.9 52.1948 206.047C49.2832 204.284 46.657 203.545 44.773 203.374C43.8595 203.317 43.1173 203.317 42.6035 203.317C42.3751 203.317 42.2039 203.374 42.0326 203.374C41.9184 203.374 41.8613 203.374 41.8613 203.374C41.8613 203.374 41.9184 203.374 42.0326 203.317C42.1468 203.317 42.3751 203.261 42.6035 203.261C43.1173 203.204 43.8595 203.204 44.773 203.261C46.657 203.431 49.3973 204.114 52.309 205.877C53.7933 206.73 55.2777 207.81 56.8192 209.062C58.3606 210.313 59.9021 211.735 61.6148 213.213C63.2705 214.692 65.0974 216.171 67.1526 217.422C69.2079 218.673 71.5486 219.64 74.0607 220.209C79.0847 221.346 84.0516 221.005 88.3334 219.867C90.5028 219.299 92.444 218.502 94.2709 217.706C96.0407 216.853 97.6963 216 99.1236 215.147C102.035 213.441 104.262 211.848 105.803 210.768C106.545 210.199 107.116 209.801 107.573 209.46C107.744 209.346 107.916 209.232 108.03 209.118C108.087 209.175 108.144 209.118 108.144 209.118Z" fill="#263238"/>
<path d="M108.315 208.436C108.315 208.436 108.258 208.493 108.201 208.55C108.087 208.664 107.973 208.777 107.802 208.891C107.63 209.062 107.402 209.232 107.116 209.46C106.831 209.687 106.488 209.915 106.146 210.199C104.662 211.337 102.435 212.815 99.4663 214.408C97.9819 215.204 96.3263 215.943 94.4994 216.683C92.6724 217.422 90.6743 218.104 88.5048 218.559C87.9339 218.673 87.4201 218.787 86.8492 218.844C86.5637 218.901 86.2783 218.901 85.9928 218.957C85.7074 218.957 85.4219 218.957 85.1364 218.957C83.9946 218.957 82.7957 218.901 81.5968 218.844C79.199 218.673 76.687 218.389 74.2321 217.706C71.7771 217.024 69.4935 215.943 67.6095 214.408C65.7255 212.929 64.127 211.223 62.5855 209.63C61.044 208.095 59.5026 206.673 57.8469 205.649C56.1913 204.569 54.5357 203.829 52.9371 203.374C49.7971 202.408 47.0567 202.294 45.1727 202.408C44.716 202.408 44.3164 202.464 43.9167 202.521C43.5742 202.578 43.2887 202.578 43.0033 202.635C42.7749 202.692 42.6036 202.692 42.4324 202.749C42.3182 202.749 42.2611 202.749 42.2611 202.749C42.2611 202.749 43.2317 202.464 45.1157 202.294C46.9426 202.123 49.74 202.18 52.9371 203.147C54.5357 203.659 56.2484 204.398 57.904 205.422C59.5597 206.446 61.1582 207.867 62.6997 209.46C64.2411 210.995 65.8397 212.701 67.6666 214.18C69.5506 215.659 71.7771 216.739 74.2321 217.422C76.687 218.104 79.1419 218.389 81.5397 218.559C82.7386 218.616 83.8804 218.673 85.0793 218.673C85.3648 218.673 85.6503 218.673 85.9357 218.673C86.2212 218.673 86.5066 218.616 86.7921 218.559C87.363 218.502 87.8768 218.389 88.4477 218.275C90.6172 217.82 92.5583 217.138 94.3852 216.455C96.2121 215.716 97.8677 214.976 99.295 214.18C102.264 212.645 104.49 211.166 105.975 210.085C106.374 209.801 106.66 209.574 106.945 209.346C107.231 209.119 107.459 208.948 107.63 208.777C107.802 208.664 107.973 208.55 108.087 208.436C108.258 208.493 108.315 208.436 108.315 208.436Z" fill="#263238"/>
<path d="M108.258 72.3979C108.258 72.4548 93.4714 72.5685 75.2023 72.5685C56.9332 72.5685 42.1466 72.5116 42.1466 72.3979C42.1466 72.341 56.9332 72.2273 75.2023 72.2273C93.4714 72.2273 108.258 72.2841 108.258 72.3979Z" fill="#263238"/>
<path d="M98.4382 45.8952C98.4382 45.8952 98.267 46.0089 97.9244 46.2364C97.5819 46.4639 97.1252 46.8052 96.4972 47.317C95.9262 47.8288 95.2411 48.4544 94.3848 49.1938C93.5284 49.8763 92.5008 50.6725 91.3019 51.3549C88.9041 52.7199 85.707 53.8004 82.0531 54.2554C78.3993 54.7104 74.3459 54.426 70.1782 53.6867C68.0658 53.3454 66.0677 52.8336 64.1266 52.4355C62.1855 52.0374 60.3015 51.8099 58.4746 51.753C54.8207 51.6962 51.5666 52.3786 48.9404 53.2886C46.3713 54.1985 44.316 55.2222 43.1742 56.2459C42.6033 56.7578 42.2036 57.2128 41.9182 57.4971C41.6898 57.8384 41.5756 58.009 41.5756 58.009C41.5756 58.009 41.6327 57.7815 41.8611 57.4971C42.0894 57.1559 42.4891 56.7009 43.06 56.1891C44.2589 55.1654 46.2571 54.0848 48.8833 53.1748C51.5095 52.2649 54.7636 51.5255 58.4746 51.5824C60.3015 51.5824 62.2426 51.8668 64.1837 52.2649C66.1248 52.663 68.1229 53.118 70.2353 53.5161C74.4029 54.2554 78.3993 54.5398 82.0531 54.1417C85.6499 53.7436 88.847 52.663 91.2448 51.3549C93.6997 50.0469 95.2412 48.3976 96.4401 47.4876C97.0681 46.9758 97.5248 46.6914 97.8673 46.4639C98.0386 46.3502 98.1528 46.2933 98.267 46.2364C98.3812 45.9521 98.4382 45.8952 98.4382 45.8952Z" fill="#263238"/>
<path d="M97.4107 44.7011C97.4107 44.7011 97.4107 44.7579 97.3536 44.8148C97.2965 44.9286 97.1823 45.0423 97.0681 45.156C96.8398 45.4404 96.4972 45.8954 95.9834 46.4641C95.0129 47.5447 93.5285 49.1371 91.3019 50.6158C89.0754 52.0376 85.9925 53.1181 82.4528 53.2319C78.9132 53.4025 75.0881 52.6632 71.263 51.3551C69.379 50.7295 67.495 49.9902 65.7252 49.4783C63.8983 48.9665 62.1284 48.5684 60.3586 48.5684C58.6459 48.5115 56.9903 48.7959 55.5059 49.194C54.0215 49.5921 52.6513 49.9902 51.3953 50.4452C48.9404 51.3551 47.0564 52.3788 45.7433 53.1181C45.1153 53.4594 44.6586 53.8006 44.3731 54.085C44.0877 54.3693 43.9735 54.5399 43.9735 54.5399C43.9735 54.5399 44.0877 54.3693 44.3161 54.085C44.6015 53.8006 45.0582 53.4594 45.6862 53.0613C46.9422 52.3219 48.8262 51.2414 51.2811 50.3314C52.5372 49.8764 53.9073 49.4215 55.3917 49.0233C56.8761 48.6252 58.5317 48.3409 60.3015 48.3978C62.0713 48.3978 63.8983 48.7959 65.7252 49.3077C67.5521 49.8196 69.379 50.502 71.3201 51.1845C75.0881 52.4926 78.9132 53.2319 82.3957 53.0613C85.8783 53.0044 88.9041 51.9238 91.1307 50.5589C93.3572 49.1371 94.8416 47.6015 95.8121 46.521C96.3259 45.9523 96.6685 45.5541 96.9539 45.2698C97.0681 45.156 97.1823 45.0423 97.2394 44.9286C97.3536 44.7011 97.4107 44.7011 97.4107 44.7011Z" fill="#263238"/>
<path d="M106.945 54.5966C106.945 54.5966 107.231 54.8809 107.744 55.5065C108.258 56.1321 108.943 57.1558 109.514 58.6345C109.8 59.3738 110.028 60.2269 110.142 61.2506C110.256 62.2175 110.199 63.298 110.256 64.4923C110.256 65.0611 110.256 65.6867 110.256 66.3123C110.256 66.9379 110.314 67.6203 110.199 68.2459C110.028 69.6108 109.4 70.9758 108.315 72.0563V71.9995C108.315 90.7104 108.372 123.014 108.372 164.417V164.474L108.315 164.531C107.859 164.986 107.573 165.611 107.573 166.294C107.573 166.976 107.801 167.715 108.315 168.227L108.372 168.284V168.341C108.372 177.611 108.372 187.45 108.372 197.63V197.687V197.744C107.973 198.313 107.687 199.052 107.687 199.848C107.687 200.644 107.916 201.441 108.372 202.123V202.18V202.237C108.372 208.151 108.372 214.237 108.372 220.436C108.372 221.971 108.429 223.564 108.315 225.156C108.201 226.749 107.973 228.284 107.516 229.877C107.116 231.412 106.546 232.948 105.86 234.37C105.518 235.109 105.118 235.791 104.604 236.474C104.091 237.156 103.52 237.725 102.892 238.237C101.579 239.261 100.037 239.943 98.3815 240.227C97.5822 240.398 96.7259 240.398 95.8695 240.398C95.0702 240.398 94.2139 240.398 93.4146 240.398C92.5582 240.398 91.7589 240.398 90.9026 240.398C90.0462 240.341 89.1898 239.886 88.676 239.204C88.3906 238.862 88.2193 238.521 87.9909 238.123C87.8768 237.953 87.7626 237.782 87.6484 237.668C87.4771 237.554 87.3629 237.441 87.1346 237.384C86.792 237.27 86.3353 237.327 86.0498 237.554C85.8786 237.668 85.7644 237.782 85.6502 237.952C85.536 238.123 85.4789 238.294 85.4218 238.521C85.0793 239.317 84.3371 240 83.4807 240.171C83.024 240.284 82.6244 240.227 82.1676 240.284H80.9116C79.1989 240.284 77.4862 240.341 75.7735 240.341C74.9171 240.341 74.0607 240.341 73.2044 240.398H71.8913C71.4916 240.398 71.0349 240.398 70.5782 240.341C69.7218 240.227 68.8654 239.829 68.1804 239.317C67.4953 238.749 66.9244 238.009 66.6389 237.156C66.4676 236.758 66.1251 236.417 65.7254 236.36C65.3258 236.246 64.812 236.417 64.5265 236.701C64.2411 237.043 63.9556 237.441 63.6131 237.839C63.3276 238.237 63.0422 238.635 62.6425 238.976C61.9003 239.659 60.9298 240.057 59.9593 240.227C59.4454 240.284 58.9887 240.284 58.4749 240.284H56.9905C56.02 240.284 55.0494 240.284 54.0218 240.284C53.508 240.227 53.0512 240.284 52.5374 240.114L51.7952 240C51.5669 239.943 51.3385 239.829 51.0531 239.772C49.112 239.204 47.5134 237.896 46.2003 236.36C44.8872 234.825 43.9738 233.005 43.2887 231.128C42.6036 229.251 42.0327 227.317 41.6901 225.327C41.3476 223.336 41.1763 221.289 41.1763 219.298C41.1763 217.251 41.2334 215.261 41.2334 213.213C41.2905 208.777 41.3476 204.398 41.4047 200.076V200.133C41.005 198.711 40.8909 197.232 40.8909 195.753C40.8909 194.275 40.948 192.853 40.948 191.374C41.005 188.474 41.005 185.573 41.0621 182.73C41.1192 179.886 41.1192 176.986 41.1763 174.142C41.1763 172.72 41.2334 171.298 41.2334 169.877C41.2334 169.137 41.3476 168.398 41.6901 167.772C41.8614 167.431 42.0327 167.147 42.0898 166.805C42.1469 166.464 42.204 166.123 42.1469 165.782C42.0898 165.44 41.9756 165.156 41.8614 164.815C41.7472 164.474 41.6901 164.132 41.633 163.734C41.633 163.052 41.633 162.313 41.633 161.63C41.633 160.208 41.633 158.843 41.633 157.421C41.633 154.635 41.633 151.905 41.633 149.118C41.633 143.602 41.633 138.199 41.633 132.853C41.633 111.469 41.633 91.2792 41.633 72.6819L41.6901 72.7957C40.948 72.0563 40.377 71.0895 40.0916 70.0658C39.9203 69.554 39.8632 69.0421 39.8632 68.5303C39.8632 68.0184 39.8632 67.5066 39.8632 66.9947C39.8632 65.971 39.8632 64.9473 39.8632 63.9236C39.8632 62.8999 39.9203 61.8762 40.1487 60.9094C40.6054 58.9189 41.633 57.099 42.9461 55.6203C44.2592 54.1416 45.5723 52.7198 46.8283 51.298C51.9665 45.6108 56.8763 40.151 61.5007 34.9757V35.0325C61.5007 32.587 61.5007 30.369 61.5007 28.2648L61.6149 28.3785C61.3865 28.3785 61.1582 28.3785 60.9298 28.3785C60.7014 28.3785 60.4731 28.2648 60.3018 28.151C59.9022 27.8667 59.7309 27.4117 59.7309 27.0136C59.7309 26.5586 60.0163 26.1605 60.416 25.9899C60.5872 25.8761 60.8156 25.8193 61.044 25.8193H61.6149L61.5007 25.933C61.5007 23.8856 61.5007 22.0657 61.5007 20.3027V20.1889H61.6149C71.4345 20.132 79.9982 20.0752 87.5913 20.0752H87.6484V20.132C87.6484 22.4069 87.6484 24.17 87.6484 25.933L87.5913 25.8761C87.8197 25.8761 88.048 25.8761 88.2764 25.8761C88.5048 25.933 88.7331 25.9899 88.9044 26.1605C89.2469 26.4448 89.4182 26.8998 89.3611 27.2979C89.304 27.696 89.0186 28.0373 88.676 28.2079C88.5047 28.3216 88.3335 28.3216 88.1622 28.3785C87.9909 28.3785 87.8197 28.3785 87.6484 28.3785L87.7055 28.3216C87.7055 31.1084 87.7055 33.2695 87.7055 35.3169V35.26C93.9284 41.5729 98.724 46.407 101.921 49.7056C103.52 51.3549 104.776 52.6061 105.575 53.4023C106.546 54.1985 106.945 54.5966 106.945 54.5966C106.945 54.5966 106.546 54.1985 105.689 53.3454C104.89 52.4923 103.634 51.298 102.035 49.6487C98.7811 46.407 93.9855 41.5729 87.7626 35.26C87.7626 33.2126 87.7626 31.0515 87.7626 28.2648V28.2079H87.8197C88.1622 28.2079 88.5048 28.2648 88.8473 28.0373C89.1328 27.8667 89.4182 27.5823 89.4182 27.2411C89.4753 26.8998 89.3611 26.5017 89.0186 26.2174C88.8473 26.1036 88.676 25.9899 88.4477 25.9899C88.2764 25.933 87.9909 25.9899 87.7626 25.9899H87.7055V25.933C87.7055 24.17 87.7055 22.4069 87.7055 20.132L87.7626 20.1889C80.1695 20.2458 71.6058 20.3027 61.7862 20.3595L61.9003 20.2458C61.9003 22.0088 61.9003 23.8287 61.9003 25.8761V25.9899H61.7862C61.3865 25.9899 60.9869 25.933 60.7014 26.1605C60.3589 26.3311 60.1305 26.6723 60.1305 27.0136C60.0734 27.4117 60.3018 27.7529 60.5873 27.9804C60.9298 28.2079 61.3294 28.151 61.7862 28.151H61.9003V28.2648C61.9003 30.4259 61.9003 32.587 61.9003 35.0325V35.0894V35.1463C57.276 40.3217 52.3662 45.7245 47.228 51.4686C45.9149 52.8904 44.6589 54.3691 43.3458 55.7909C42.0327 57.2127 41.0621 59.0326 40.6054 60.9663C40.377 61.9331 40.3199 62.9568 40.3199 63.9236C40.3199 64.9473 40.3199 65.971 40.3199 66.9947C40.3199 68.0184 40.2629 69.0421 40.5483 70.0658C40.8338 71.0326 41.3476 71.9426 42.0898 72.6819L42.1469 72.7388V72.7957C42.1469 91.336 42.1469 111.526 42.1469 132.966C42.1469 138.312 42.1469 143.715 42.1469 149.232C42.1469 151.962 42.1469 154.749 42.1469 157.535C42.1469 158.9 42.1469 160.322 42.1469 161.744C42.1469 162.426 42.1469 163.166 42.1469 163.848C42.1469 164.189 42.261 164.531 42.3181 164.815C42.4323 165.156 42.5465 165.497 42.6036 165.839C42.6607 166.18 42.6036 166.578 42.5465 166.919C42.4894 167.26 42.261 167.602 42.1469 167.943C41.8614 168.568 41.7472 169.251 41.7472 169.933C41.7472 171.355 41.6901 172.777 41.6901 174.199C41.633 177.042 41.633 179.886 41.576 182.786C41.5189 185.63 41.5189 188.531 41.4618 191.431C41.4618 192.853 41.4047 194.332 41.4047 195.81C41.4047 197.232 41.5189 198.711 41.8614 200.133C41.8043 204.455 41.7472 208.834 41.6901 213.27C41.6901 215.317 41.633 217.308 41.633 219.355C41.633 221.346 41.8043 223.393 42.1469 225.327C42.4894 227.317 43.0032 229.251 43.6883 231.071C44.4305 232.891 45.344 234.711 46.6 236.189C47.856 237.668 49.4545 238.919 51.2814 239.545C53.1083 240.171 55.1065 240 57.0476 240.057H58.532C59.0458 240.057 59.5025 240.057 59.9593 240C60.8727 239.886 61.7862 239.488 62.4713 238.862C62.8138 238.578 63.0993 238.18 63.3847 237.782C63.6702 237.384 63.9556 237.043 64.2982 236.644C64.6978 236.246 65.2687 236.076 65.7825 236.246C66.2964 236.36 66.7531 236.758 66.9244 237.213C67.2098 238.009 67.7236 238.692 68.3516 239.204C68.9796 239.716 69.7789 240.057 70.6353 240.171C71.0349 240.227 71.4916 240.227 71.8913 240.227H73.2044C74.0607 240.227 74.9171 240.227 75.7735 240.171C77.4862 240.171 79.1989 240.114 80.9116 240.114H82.1676C82.5673 240.114 83.024 240.114 83.4237 240.057C84.2229 239.886 84.8509 239.261 85.1935 238.521C85.3076 238.351 85.3076 238.123 85.4789 237.952C85.5931 237.725 85.7644 237.554 85.9357 237.441C86.3353 237.156 86.792 237.099 87.2487 237.213C87.4771 237.27 87.7055 237.384 87.8767 237.554C88.048 237.725 88.1622 237.896 88.2764 238.066C88.5048 238.408 88.7331 238.806 88.9615 239.09C89.4182 239.716 90.2175 240.114 91.0168 240.171C91.8731 240.171 92.6724 240.171 93.4717 240.171C94.328 240.171 95.1273 240.171 95.9266 240.171C96.783 240.171 97.5822 240.171 98.3815 240C99.98 239.716 101.464 239.033 102.72 238.066C103.348 237.554 103.919 236.986 104.376 236.36C104.833 235.734 105.232 234.995 105.575 234.313C106.26 232.891 106.831 231.355 107.231 229.877C107.63 228.341 107.916 226.806 107.973 225.213C108.087 223.678 108.03 222.085 108.03 220.55C108.03 214.351 108.03 208.265 108.03 202.351V202.407C107.516 201.668 107.288 200.815 107.288 199.962C107.288 199.109 107.573 198.313 108.03 197.687V197.744C108.03 187.564 108.03 177.725 108.03 168.455L108.087 168.512C107.516 167.943 107.231 167.147 107.231 166.407C107.231 165.668 107.573 164.929 108.087 164.474L108.03 164.531C108.087 123.184 108.087 90.881 108.087 72.1132C109.172 71.0895 109.8 69.6677 109.971 68.3596C110.028 67.6772 110.028 67.0516 110.028 66.426C110.028 65.8004 110.028 65.1748 110.028 64.6061C110.028 63.4118 110.085 62.3312 109.971 61.3644C109.857 60.3975 109.628 59.5445 109.343 58.8051C108.772 57.3264 108.087 56.3027 107.573 55.6772C107.345 55.3359 107.116 55.1084 107.002 54.9947C107.002 54.7103 106.945 54.5966 106.945 54.5966Z" fill="#263238"/>
<path d="M87.8764 25.7054C87.8764 25.7623 82.0532 25.8761 74.8597 25.9329C67.6662 25.9898 61.843 25.9329 61.843 25.8761C61.843 25.8192 67.6662 25.7054 74.8597 25.6486C82.0532 25.5917 87.8764 25.5917 87.8764 25.7054Z" fill="#263238"/>
<path d="M88.5045 28.208C88.5045 28.2649 82.5099 28.3786 75.2023 28.3786C67.8375 28.3786 61.843 28.3218 61.843 28.208C61.843 28.1512 67.8375 28.0374 75.2023 28.0374C82.567 28.0943 88.5045 28.1512 88.5045 28.208Z" fill="#263238"/>
<path d="M87.7623 30.3122C87.7623 30.3691 81.939 30.4829 74.8026 30.4829C67.6662 30.4829 61.843 30.426 61.843 30.3122C61.843 30.1985 67.6662 30.1416 74.8026 30.1416C81.9961 30.1416 87.7623 30.1985 87.7623 30.3122Z" fill="#263238"/>
<path d="M87.7623 32.3598C87.7623 32.4167 81.939 32.5304 74.8026 32.5304C67.6662 32.5304 61.843 32.4735 61.843 32.3598C61.843 32.3029 67.6662 32.1892 74.8026 32.1892C81.9961 32.1892 87.7623 32.246 87.7623 32.3598Z" fill="#263238"/>
<path d="M61.8432 28.2648C62.2428 28.9473 62.9279 29.4023 63.6701 29.6297C64.4123 29.8572 65.2116 29.8572 66.0109 29.9141C72.8047 30.0847 79.5985 29.8004 86.3352 29.1179C86.9062 29.061 87.5342 28.8904 87.7054 28.3786C86.6207 28.3217 85.536 28.3217 84.4512 28.3217C78 28.3217 71.4916 28.3217 65.0403 28.3786C63.8414 28.3786 62.6996 28.3786 61.5007 28.3786" fill="#E0E0E0"/>
<path d="M57.3331 24.0568V4.379C57.3331 4.379 57.1618 0.397949 75.0313 0.397949C91.3022 0.397949 91.2451 5.0046 91.2451 5.0046V24.0568H57.3331Z" fill="#E8505B"/>
<path d="M59.5598 20.1327C59.5027 20.1327 59.3885 16.7204 59.3885 12.5687C59.3885 8.41706 59.4456 5.00473 59.5598 5.00473C59.6168 5.00473 59.731 8.41706 59.731 12.5687C59.731 16.7773 59.6739 20.1327 59.5598 20.1327Z" fill="#263238"/>
<path d="M62.5856 20.1327C62.5286 20.1327 62.4144 16.5497 62.4144 12.1706C62.4144 7.73456 62.4715 4.20848 62.5856 4.20848C62.6427 4.20848 62.7569 7.79143 62.7569 12.1706C62.7569 16.5497 62.6998 20.1327 62.5856 20.1327Z" fill="#263238"/>
<path d="M65.5544 20.1325C65.4973 20.1325 65.3831 16.4358 65.3831 11.8291C65.3831 7.27937 65.4402 3.5258 65.5544 3.5258C65.6686 3.5258 65.7257 7.2225 65.7257 11.8291C65.6686 16.4358 65.6115 20.1325 65.5544 20.1325Z" fill="#263238"/>
<path d="M68.466 20.1325C68.4089 20.1325 68.2947 16.3221 68.2947 11.6585C68.2947 6.99502 68.3518 3.18459 68.466 3.18459C68.5231 3.18459 68.6373 6.99502 68.6373 11.6585C68.5802 16.3221 68.5231 20.1325 68.466 20.1325Z" fill="#263238"/>
<path d="M71.3775 20.1325C71.3204 20.1325 71.2062 16.3221 71.2062 11.6585C71.2062 6.99502 71.2633 3.18459 71.3775 3.18459C71.4917 3.18459 71.5488 6.99502 71.5488 11.6585C71.4917 16.3221 71.4346 20.1325 71.3775 20.1325Z" fill="#263238"/>
<path d="M74.2893 20.1325C74.2322 20.1325 74.118 16.3221 74.118 11.6585C74.118 6.99502 74.1751 3.18459 74.2893 3.18459C74.4034 3.18459 74.4605 6.99502 74.4605 11.6585C74.4605 16.3221 74.3463 20.1325 74.2893 20.1325Z" fill="#263238"/>
<path d="M77.2008 20.1325C77.1437 20.1325 77.0295 16.3221 77.0295 11.6585C77.0295 6.99502 77.0866 3.18459 77.2008 3.18459C77.2578 3.18459 77.372 6.99502 77.372 11.6585C77.372 16.3221 77.3149 20.1325 77.2008 20.1325Z" fill="#263238"/>
<path d="M80.1125 20.1325C80.0554 20.1325 79.9412 16.3221 79.9412 11.6585C79.9412 6.99502 79.9983 3.18459 80.1125 3.18459C80.1696 3.18459 80.2838 6.99502 80.2838 11.6585C80.2838 16.3221 80.2267 20.1325 80.1125 20.1325Z" fill="#263238"/>
<path d="M83.024 20.1326C82.967 20.1326 82.8528 16.4928 82.8528 11.943C82.8528 7.39327 82.9099 3.75345 83.024 3.75345C83.1382 3.75345 83.1953 7.39327 83.1953 11.943C83.1953 16.4928 83.1382 20.1326 83.024 20.1326Z" fill="#263238"/>
<path d="M85.9929 20.1329C85.9358 20.1329 85.8216 16.6068 85.8216 12.2845C85.8216 7.9622 85.8787 4.43613 85.9929 4.43613C86.05 4.43613 86.1641 7.9622 86.1641 12.2845C86.1071 16.6068 86.05 20.1329 85.9929 20.1329Z" fill="#263238"/>
<path d="M88.9045 20.1327C88.8474 20.1327 88.7332 16.8341 88.7332 12.7393C88.7332 8.64453 88.7903 5.34595 88.9045 5.34595C88.9616 5.34595 89.0758 8.64453 89.0758 12.7393C89.0187 16.8341 88.9616 20.1327 88.9045 20.1327Z" fill="#263238"/>
<path d="M90.1034 5.74406C90.1034 5.74406 89.9892 5.74407 89.7608 5.68719C89.5325 5.63032 89.247 5.51658 88.8474 5.40283C88.4478 5.28909 87.991 5.11847 87.4201 4.94786C86.8492 4.77724 86.2212 4.60662 85.479 4.436C84.7368 4.26539 83.9947 4.09477 83.1383 3.92416C82.2819 3.75354 81.3685 3.63979 80.3979 3.46918C78.4568 3.24169 76.3445 3.0142 74.0608 3.0142C71.8343 3.0142 69.6648 3.18482 67.7237 3.41231C66.7532 3.52605 65.8397 3.6398 64.9833 3.81041C64.127 3.92416 63.3277 4.15164 62.6426 4.32226C61.9004 4.49288 61.2724 4.66349 60.7015 4.83411C60.1306 5.00473 59.6739 5.11847 59.2742 5.23222C58.8746 5.34596 58.5892 5.45971 58.3608 5.51658C58.1324 5.57345 58.0182 5.57345 58.0182 5.57345C58.0182 5.57345 58.1324 5.51658 58.3037 5.4597C58.5321 5.40283 58.8175 5.28909 59.2172 5.11847C59.6168 5.00473 60.0735 4.83411 60.6444 4.66349C61.2153 4.49288 61.8433 4.32226 62.5855 4.15164C63.3277 3.98103 64.0699 3.75354 64.9833 3.6398C65.8397 3.46918 66.7532 3.35543 67.7237 3.18482C69.6648 2.95733 71.8343 2.78671 74.1179 2.78671C76.4015 2.78671 78.5139 3.0142 80.5121 3.24169C81.4827 3.41231 82.3961 3.52605 83.2525 3.75354C84.1088 3.92415 84.9081 4.09477 85.5932 4.32226C86.3354 4.49288 86.9634 4.72037 87.5343 4.89098C88.1052 5.0616 88.5619 5.23222 88.9616 5.34596C89.3041 5.45971 89.6467 5.57345 89.875 5.68719C89.9892 5.68719 90.1034 5.74406 90.1034 5.74406Z" fill="#263238"/>
<path d="M90.2747 20.1894C90.2747 20.2462 83.1954 20.36 74.4605 20.36C65.7256 20.36 58.6463 20.3031 58.6463 20.1894C58.6463 20.0756 65.7256 20.0188 74.4605 20.0188C83.1954 20.0188 90.2747 20.1325 90.2747 20.1894Z" fill="#263238"/>
<path d="M111.772 100.493H39.1469V124.479V147.469H111.772C111.772 147.469 112.239 141.075 111.772 124.479C111.304 107.883 111.772 100.493 111.772 100.493Z" fill="white"/>
<path d="M108.314 100.493H41.5756V122.891V147.469H108.314C108.314 147.469 108.744 139.486 108.314 122.891C107.884 106.295 108.314 100.493 108.314 100.493Z" fill="#E8505B"/>
<path d="M49.5382 144.27C48.2098 144.27 49.5386 135.91 49.5386 125.559C49.5386 115.208 46.8813 106.848 49.5382 106.848C50.8667 106.848 49.5386 115.208 49.5386 125.559C49.5386 135.853 50.8667 144.27 49.5382 144.27Z" fill="white"/>
<path d="M110.563 120.475L113.892 118.099C113.12 117.59 112.392 116.981 111.722 116.281C111.595 116.148 111.516 115.957 111.503 115.75C111.489 115.544 111.541 115.339 111.648 115.18C111.755 115.022 111.908 114.923 112.073 114.906C112.238 114.889 112.402 114.954 112.529 115.088C120.325 123.335 140.541 118.013 140.731 117.962C145.668 116.506 146.5 114.61 146.5 110.91V81.8564L135.559 76.8158L132.857 83.5705L136.136 89.0393L141.996 87.4924C142.159 87.4496 142.328 87.4891 142.467 87.6022C142.606 87.7153 142.703 87.8928 142.737 88.0955C142.771 88.2983 142.74 88.5097 142.649 88.6833C142.559 88.8569 142.417 88.9785 142.255 89.0213L141.226 89.2924C139.476 94.5729 138.233 100.094 137.524 105.741C137.924 106.193 138.16 106.499 138.203 106.556C138.262 106.63 138.308 106.717 138.338 106.814C138.369 106.91 138.384 107.013 138.383 107.117C138.382 107.221 138.364 107.323 138.33 107.418C138.297 107.513 138.249 107.599 138.189 107.671C138.128 107.742 138.057 107.798 137.98 107.835C137.902 107.871 137.819 107.888 137.736 107.885C137.653 107.881 137.572 107.857 137.496 107.813C137.421 107.77 137.353 107.708 137.297 107.631C137.245 107.563 132.03 100.803 125.243 100.694H125.077C121.296 100.694 117.719 102.769 114.442 106.866C114.324 107.008 114.166 107.087 114.002 107.085C113.839 107.083 113.682 107.001 113.566 106.856C113.45 106.711 113.384 106.516 113.383 106.311C113.381 106.106 113.444 105.908 113.558 105.761C114.139 105.035 114.75 104.349 115.389 103.705C114.787 102.997 114.077 102.448 113.301 102.091C112.526 101.733 111.701 101.574 110.875 101.622C110.709 101.622 110.55 101.54 110.433 101.393C110.316 101.247 110.25 101.048 110.25 100.841C110.25 100.634 110.316 100.435 110.433 100.288C110.55 100.142 110.709 100.06 110.875 100.06C111.895 99.9975 112.915 100.204 113.867 100.666C114.819 101.128 115.683 101.834 116.403 102.74C118.964 100.367 122.072 99.0998 125.259 99.1291C130.17 99.2072 134.213 102.393 136.413 104.568C137.112 99.475 138.231 94.4857 139.75 89.6799L136.007 90.6674C135.89 90.6989 135.769 90.6878 135.657 90.6354C135.545 90.5831 135.447 90.4917 135.375 90.3721L131.625 84.1221C131.556 84.0061 131.513 83.8682 131.503 83.7239C131.493 83.5796 131.515 83.4345 131.566 83.3049L134.691 75.4924C134.76 75.3203 134.877 75.186 135.02 75.115C135.163 75.0441 135.322 75.0416 135.466 75.108L147.341 80.5768C147.461 80.632 147.565 80.7319 147.638 80.8629C147.711 80.994 147.75 81.1498 147.75 81.3096V110.91C147.75 115.832 146.051 117.998 141.007 119.486C137.235 120.42 133.411 120.995 129.57 121.205C128.715 121.249 127.885 121.271 127.08 121.271C122.231 121.271 118.28 120.481 115.264 118.914L111.188 121.831C111.093 121.9 110.985 121.935 110.875 121.935C110.737 121.935 110.603 121.879 110.493 121.774C110.384 121.669 110.305 121.522 110.269 121.355C110.234 121.189 110.243 121.012 110.296 120.853C110.349 120.694 110.443 120.561 110.563 120.475Z" fill="black"/>
<path d="M118.58 111.821C126.253 115.142 130.469 111.955 130.539 111.899C130.678 111.788 130.848 111.75 131.01 111.794C131.172 111.838 131.313 111.961 131.402 112.136C131.492 112.31 131.522 112.522 131.487 112.724C131.451 112.927 131.353 113.103 131.213 113.215C131.088 113.317 129.041 114.909 125.241 114.909C122.829 114.868 120.439 114.323 118.171 113.296C118.015 113.227 117.888 113.085 117.816 112.899C117.744 112.713 117.735 112.499 117.789 112.304C117.842 112.109 117.956 111.949 118.104 111.858C118.252 111.767 118.423 111.754 118.58 111.82V111.821Z" fill="black"/>
<path d="M38.9031 120.475L35.5737 118.099C36.3461 117.59 37.0734 116.981 37.7437 116.281C37.8703 116.148 37.9493 115.957 37.9632 115.75C37.9771 115.544 37.9248 115.339 37.8178 115.18C37.7108 115.022 37.5578 114.923 37.3926 114.906C37.2274 114.889 37.0635 114.954 36.9368 115.088C29.1412 123.335 8.92495 118.013 8.73433 117.962C3.79808 116.506 2.96558 114.61 2.96558 110.91L2.96558 81.8564L13.9068 76.8158L16.6087 83.5705L13.3293 89.0393L7.46933 87.4924C7.30713 87.4496 7.13798 87.4891 6.99909 87.6022C6.86019 87.7153 6.76293 87.8928 6.7287 88.0955C6.69447 88.2983 6.72608 88.5097 6.81656 88.6833C6.90705 88.8569 7.04901 88.9785 7.2112 89.0213L8.23933 89.2924C9.98954 94.5729 11.2324 100.094 11.9418 105.741C11.5418 106.193 11.3056 106.499 11.2625 106.556C11.2042 106.63 11.1582 106.717 11.1274 106.814C11.0965 106.91 11.0813 107.013 11.0827 107.117C11.0841 107.221 11.102 107.323 11.1354 107.418C11.1688 107.513 11.217 107.599 11.2772 107.671C11.3374 107.742 11.4085 107.798 11.4861 107.835C11.5638 107.871 11.6465 107.888 11.7295 107.885C11.8125 107.881 11.8941 107.857 11.9695 107.813C12.0449 107.77 12.1126 107.708 12.1687 107.631C12.2206 107.563 17.4362 100.803 24.2231 100.694H24.3887C28.1693 100.694 31.7468 102.769 35.0237 106.866C35.1416 107.008 35.2995 107.087 35.4633 107.085C35.6272 107.083 35.784 107.001 35.8998 106.856C36.0157 106.711 36.0815 106.516 36.0829 106.311C36.0843 106.106 36.0213 105.908 35.9075 105.761C35.327 105.035 34.716 104.349 34.0768 103.705C34.6792 102.997 35.3892 102.448 36.1646 102.091C36.9399 101.733 37.765 101.574 38.5906 101.622C38.7563 101.622 38.9153 101.54 39.0325 101.393C39.1497 101.247 39.2156 101.048 39.2156 100.841C39.2156 100.634 39.1497 100.435 39.0325 100.288C38.9153 100.142 38.7563 100.06 38.5906 100.06C37.5703 99.9975 36.5511 100.204 35.5988 100.666C34.6465 101.128 33.7824 101.834 33.0625 102.74C30.5022 100.367 27.3939 99.0998 24.2068 99.1291C19.2962 99.2072 15.2525 102.393 13.0525 104.568C12.3534 99.475 11.2352 94.4857 9.71558 89.6799L13.4587 90.6674C13.5756 90.6989 13.6973 90.6878 13.8093 90.6354C13.9213 90.5831 14.0189 90.4917 14.0906 90.3721L17.8406 84.1221C17.91 84.0061 17.9523 83.8682 17.9627 83.7239C17.9731 83.5796 17.9511 83.4345 17.8993 83.3049L14.7743 75.4924C14.7056 75.3203 14.5886 75.186 14.4456 75.115C14.3026 75.0441 14.1437 75.0416 13.9993 75.108L2.12433 80.5768C2.00443 80.632 1.90097 80.7319 1.82789 80.8629C1.7548 80.994 1.71561 81.1498 1.71558 81.3096L1.71558 110.91C1.71558 115.832 3.41433 117.998 8.4587 119.486C12.2309 120.42 16.0544 120.995 19.8962 121.205C20.7512 121.249 21.5812 121.271 22.3862 121.271C27.235 121.271 31.1862 120.481 34.2018 118.914L38.2781 121.831C38.3731 121.9 38.4809 121.935 38.5906 121.935C38.7286 121.935 38.8628 121.879 38.9724 121.774C39.082 121.669 39.1608 121.522 39.1965 121.355C39.2322 121.189 39.2227 121.012 39.1697 120.853C39.1166 120.694 39.0229 120.561 38.9031 120.475Z" fill="black"/>
<path d="M30.8862 111.821C23.2125 115.142 18.9969 111.955 18.9269 111.899C18.7873 111.788 18.6179 111.75 18.456 111.794C18.2941 111.838 18.1528 111.961 18.0634 112.136C17.974 112.31 17.9437 112.522 17.9791 112.724C18.0146 112.927 18.1129 113.103 18.2525 113.215C18.3775 113.317 20.4244 114.909 24.225 114.909C26.6371 114.868 29.0268 114.323 31.295 113.296C31.4506 113.227 31.5781 113.085 31.6497 112.899C31.7213 112.713 31.7312 112.499 31.6772 112.304C31.6233 112.109 31.5098 111.949 31.3616 111.858C31.2134 111.767 31.0425 111.754 30.8862 111.82V111.821Z" fill="black"/>
</svg>
