<svg width="129" height="241" viewBox="0 0 129 241" fill="none" xmlns="http://www.w3.org/2000/svg"><path d="M101.401 54.57L82.183 35.233v-6.995h.402c.574 0 1.147-.398 1.262-.967.115-.74-.459-1.422-1.205-1.422h-.516v-5.858l-26.102.171v5.63h-.516c-.573 0-1.147.398-1.262.967-.114.74.46 1.422 1.205 1.422h.574v6.768L37.209 55.764a11.417 11.417 0 00-2.926 7.62v4.835c0 1.65.631 3.242 1.836 4.379v90.825c0 .511.114 1.023.344 1.535.287.796.23 1.649-.172 2.389-.344.682-.574 1.422-.574 2.161l-.287 26.275c0 1.365.115 2.73.517 4.038l-.23 18.768c-.057 3.071.287 6.085 1.09 9.042 1.434 5.403 4.647 12.228 11.932 12.228h4.99a4.743 4.743 0 003.787-1.877l1.147-1.479c.689-.91 2.123-.682 2.525.398.688 1.934 2.58 3.185 4.589 3.128l11.53-.17c1.205 0 2.18-.853 2.524-1.991.402-1.137 1.95-1.308 2.582-.284l.688 1.024c.574.853 1.492 1.364 2.467 1.364h5.564c3.557 0 6.884-1.933 8.605-5.004.058-.057.058-.114.115-.171 1.95-3.64 2.926-7.735 2.926-11.829v-20.986a3.901 3.901 0 010-4.55v-29.289a2.717 2.717 0 01-.115-3.754l.115-.113V71.972l.114-.113a6.216 6.216 0 001.836-4.38v-4.89c0-2.958-1.205-5.858-3.327-8.02z" fill="#F5F5F5"/><path d="M92.566 57.811c3.959-.91 7.86 1.99 7.917 6.029v4.493c0 1.478-.574 2.957-1.606 3.98l-.115.114v84.342l-.115.113c-.86.967-.803 2.503.115 3.413v26.73a3.66 3.66 0 000 4.151v19.166c0 3.754-.86 7.507-2.582 10.806 0 .057-.057.114-.057.171-1.491 2.843-4.417 4.549-7.572 4.549h-4.934l-7.4-.113-10.21.17-10.67-.17h-4.418c-6.425 0-9.293-6.2-10.555-11.147-.689-2.673-.975-5.46-.918-8.247l.23-17.118c-.345-1.195-.46-2.446-.46-3.697l.287-24c0-.682.172-1.365.517-1.991a2.715 2.715 0 00.114-2.218c-.172-.455-.287-.909-.287-1.364V73.11a5.759 5.759 0 01-1.606-3.981v-4.493c0-3.867 2.868-7.166 6.712-8.019 3.958-.853 10.326-1.65 16.579 0 10.268 2.673 10.44 4.152 17.783 3.526 4.073-.398 9.408-1.479 13.251-2.332z" fill="#E8505B"/><path opacity=".5" d="M92.566 57.811c3.959-.91 7.86 1.99 7.917 6.029v4.493c0 1.478-.574 2.957-1.606 3.98l-.115.114v84.342l-.115.113c-.86.967-.803 2.503.115 3.413v26.73a3.66 3.66 0 000 4.151v19.166c0 3.754-.86 7.507-2.582 10.806 0 .057-.057.114-.057.171-1.491 2.843-4.417 4.549-7.572 4.549h-4.934l-7.4-.113-10.21.17-10.67-.17h-4.418c-6.425 0-9.293-6.2-10.555-11.147-.689-2.673-.975-5.46-.918-8.247l.23-17.118c-.345-1.195-.46-2.446-.46-3.697l.287-24c0-.682.172-1.365.517-1.991a2.715 2.715 0 00.114-2.218c-.172-.455-.287-.909-.287-1.364V73.11a5.759 5.759 0 01-1.606-3.981v-4.493c0-3.867 2.868-7.166 6.712-8.019 3.958-.853 10.326-1.65 16.579 0 10.268 2.673 10.44 4.152 17.783 3.526 4.073-.398 9.408-1.479 13.251-2.332z" fill="#fff"/><path d="M103.466 72.655c0 .057-15.03.17-33.616.17-18.587 0-33.617-.056-33.617-.17 0-.057 15.03-.17 33.617-.17 18.529 0 33.616.056 33.616.17z" fill="#263238"/><path d="M39.905 111.612c3.212-6.711 9.637-11.886 16.98-13.592 6.884-1.593 14.341-.342 20.938-2.958 6.884-2.73 11.416-9.156 14.973-15.583 1.377-2.502 3.098-5.289 5.966-5.63-.746 1.99.459 4.38-.516 6.2-.344.625-.918 1.136-1.434 1.591-4.13 3.868-6.827 8.93-9.179 14.048-1.434 3.128-2.868 6.483-5.564 8.701-1.95 1.593-4.418 2.503-6.884 2.958-6.368 1.137-13.194-.398-19.218 1.876-4.646 1.707-8.203 5.517-10.67 9.782-2.467 4.266-3.843 8.986-5.277 13.707" fill="#fff"/><path d="M100.54 65.716c0 .17-1.032.285-2.753 1.024-1.721.74-3.959 2.275-6.138 4.834-1.09 1.251-2.18 2.73-3.27 4.38-1.09 1.649-2.18 3.469-3.442 5.402-1.262 1.877-2.696 3.867-4.59 5.574-1.835 1.763-4.13 3.184-6.654 4.151a21.676 21.676 0 01-7.744 1.422c-2.524-.057-4.876-.455-7.056-.455-4.36-.057-8.26 1.251-11.187 2.844a22.175 22.175 0 00-3.728 2.502c-1.033.796-1.836 1.65-2.524 2.275-1.262 1.365-1.893 2.218-2.008 2.161-.057-.057.057-.284.287-.739.23-.455.63-1.081 1.204-1.877.631-.74 1.377-1.65 2.41-2.56 1.032-.966 2.237-1.933 3.786-2.786 2.983-1.763 7.056-3.299 11.76-3.355 2.352 0 4.704.34 7.056.34a19.5 19.5 0 007.113-1.364 19.23 19.23 0 006.138-3.81c1.721-1.593 3.155-3.413 4.417-5.233 1.262-1.82 2.41-3.64 3.557-5.289 1.147-1.65 2.295-3.185 3.557-4.436 2.41-2.56 4.933-4.038 6.769-4.607 1.95-.568 3.04-.455 3.04-.398zM39.618 187.877c2.41-2.388 6.195-2.843 9.58-2.445 3.385.398 6.712 1.479 10.096 1.479 4.704 0 9.408-2.105 12.506-5.631 1.147-1.308 2.065-2.786 3.213-4.151 2.81-3.299 6.826-5.574 11.128-6.313 1.951-.341 3.959-.341 5.737-1.081 3.729-1.478 5.622-5.459 7.228-9.099-.23 5.971-.516 11.886-.746 17.858-6.367-1.195-12.39 2.9-17.381 6.995-4.991 4.095-10.384 8.701-16.866 8.701-3.442 0-6.826-1.308-10.268-1.194-6.483.227-11.645 5.289-16.005 10.009" fill="#fff"/><path d="M100.54 160.295c0 .113-.975.17-2.639.625-.86.171-1.835.569-2.983 1.024a27.09 27.09 0 00-3.614 2.047c-1.262.853-2.639 1.877-3.958 3.071-1.377 1.195-2.753 2.56-4.245 4.038-1.491 1.479-3.04 3.014-4.819 4.493-1.778 1.479-3.728 2.901-5.966 4.038-2.237 1.138-4.646 1.763-6.998 1.991-2.352.227-4.59.17-6.655.113-2.065-.113-4.073-.227-5.908-.227-1.836 0-3.5.114-5.049.341-1.491.228-2.868.569-4.015 1.024a15.095 15.095 0 00-2.754 1.422c-1.434.966-2.065 1.706-2.18 1.649-.057-.057.402-.967 1.779-2.161a13.26 13.26 0 012.81-1.763c1.148-.569 2.582-1.024 4.131-1.308 1.606-.342 3.327-.512 5.22-.569 1.893-.057 3.901.057 5.966.114 2.065.057 4.245.057 6.425-.171a18.88 18.88 0 006.425-1.877c2.065-1.023 3.958-2.388 5.622-3.753 1.721-1.422 3.27-2.901 4.761-4.323 1.492-1.421 2.983-2.786 4.418-3.981 1.434-1.194 2.868-2.218 4.245-3.014 1.376-.853 2.696-1.478 3.9-1.877 1.205-.398 2.295-.682 3.156-.796 1.95-.455 2.925-.284 2.925-.17zM39.446 217.28c6.769 4.038 15.66 2.844 22.66-.739 6.998-3.583 12.62-9.327 18.471-14.616 5.851-5.289 12.219-10.408 19.906-12.285a5.819 5.819 0 01-1.147-3.184c-8.835 3.867-17.898 7.848-24.668 14.673-2.352 2.331-4.36 5.004-6.998 7.109-2.524 1.99-5.45 3.298-8.433 4.436-5.966 2.331-12.448 4.094-18.816 3.241-.516-.057-1.09-.113-1.434.285-.344.398.23 1.137.574.739M89.584 154.323a1.78 1.78 0 01-3.557 0 1.78 1.78 0 013.556 0zM80.864 158.02c0 .512-.402.853-.86.853a.841.841 0 01-.861-.853c0-.512.401-.853.86-.853.517 0 .86.398.86.853z" fill="#fff"/><path d="M60.786 206.816c.475 0 .86-.382.86-.853a.857.857 0 00-.86-.853.857.857 0 00-.86.853c0 .471.385.853.86.853z" fill="#fff"/><path d="M102.778 168.598c0 .057-15.088.171-33.674.171-18.587 0-33.674-.057-33.674-.171 0-.114 15.087-.171 33.674-.171 18.586.057 33.674.114 33.674.171zM102.605 198.001c0 .057-15.03.171-33.616.171s-33.616-.057-33.616-.171c0-.057 15.03-.171 33.616-.171 18.587.057 33.616.114 33.616.171zM103.007 202.38c0 .057-15.03.171-33.616.171-18.587 0-33.617-.057-33.617-.171 0-.057 15.03-.171 33.617-.171 18.586 0 33.616.057 33.616.171zM102.778 164.105c0 .057-14.858.171-33.215.171-18.357 0-33.215-.057-33.215-.171 0-.057 14.858-.17 33.215-.17 18.3 0 33.215.056 33.215.17zM64.515 240.029s-.172 0-.517-.17c-.286-.114-.745-.398-1.147-.797-.918-.853-1.664-2.274-2.524-3.867-.86-1.592-1.664-3.014-2.237-4.038a18.64 18.64 0 01-.86-1.706s.4.569 1.032 1.592c.573 1.024 1.434 2.446 2.294 3.982.86 1.535 1.607 3.014 2.41 3.867.803.91 1.549 1.08 1.549 1.137zM83.273 229.338c.058 0-.057.511-.287 1.251-.23.796-.573 1.82-1.032 3.014a61.568 61.568 0 01-1.262 2.9c-.344.74-.574 1.195-.631 1.138-.058 0 .114-.512.459-1.251.344-.853.745-1.82 1.147-2.958.401-1.08.803-2.104 1.09-2.957.287-.682.459-1.137.516-1.137zM102.605 209.091s-.057.057-.172.114c-.114.113-.229.227-.459.341-.401.284-.975.739-1.721 1.308a64.874 64.874 0 01-6.654 4.436 62.63 62.63 0 01-4.876 2.616c-1.836.853-3.786 1.649-5.966 2.218-4.36 1.138-9.408 1.536-14.514.341-2.524-.568-4.933-1.592-6.998-2.843-2.065-1.251-3.901-2.787-5.622-4.266-1.664-1.478-3.27-2.9-4.761-4.151-1.55-1.252-3.04-2.332-4.475-3.185-2.926-1.763-5.564-2.503-7.457-2.673-.918-.057-1.664-.057-2.18-.057-.23 0-.402.057-.574.057h-.172s.057 0 .172-.057c.115 0 .344-.057.574-.057.516-.057 1.262-.057 2.18 0 1.893.171 4.646.853 7.572 2.616 1.491.853 2.983 1.934 4.532 3.185 1.549 1.251 3.098 2.673 4.818 4.152 1.664 1.478 3.5 2.957 5.565 4.208a23.344 23.344 0 006.941 2.787c5.048 1.137 10.04.796 14.342-.341 2.18-.569 4.13-1.365 5.966-2.161 1.778-.853 3.442-1.707 4.876-2.56 2.925-1.706 5.163-3.298 6.711-4.379.746-.569 1.32-.967 1.779-1.308.172-.114.344-.227.459-.341.057.057.114 0 .114 0z" fill="#263238"/><path d="M102.778 208.408l-.115.114c-.115.114-.23.228-.402.341-.172.171-.401.342-.688.569-.287.228-.631.455-.975.74-1.492 1.137-3.73 2.616-6.712 4.208-1.492.796-3.155 1.536-4.991 2.275-1.836.739-3.843 1.422-6.023 1.877-.574.113-1.09.227-1.664.284-.287.057-.574.057-.86.114h-.86c-1.148 0-2.353-.057-3.558-.114-2.409-.171-4.933-.455-7.4-1.137-2.466-.683-4.761-1.763-6.654-3.299-1.893-1.479-3.5-3.185-5.048-4.777-1.55-1.536-3.098-2.958-4.762-3.981-1.663-1.081-3.327-1.82-4.933-2.275-3.155-.967-5.909-1.081-7.802-.967-.459 0-.86.057-1.262.114-.344.057-.631.057-.918.114-.23.056-.401.056-.574.113h-.171s.975-.284 2.868-.455c1.835-.17 4.646-.113 7.859.853a22.782 22.782 0 014.99 2.275c1.664 1.024 3.27 2.446 4.82 4.038 1.548 1.536 3.154 3.242 4.99 4.721 1.893 1.478 4.13 2.559 6.597 3.241 2.467.683 4.934.967 7.343 1.138 1.205.057 2.352.113 3.557.113h.86c.287 0 .574-.056.86-.113.574-.057 1.09-.171 1.664-.285 2.18-.455 4.13-1.137 5.966-1.82 1.836-.739 3.5-1.478 4.934-2.274 2.983-1.536 5.22-3.015 6.712-4.095.401-.285.688-.512.975-.74.287-.227.516-.398.688-.568.172-.114.344-.228.459-.342.172.057.23 0 .23 0zM102.72 72.37c0 .057-14.858.171-33.215.171-18.357 0-33.214-.057-33.214-.17 0-.057 14.857-.171 33.214-.171s33.215.057 33.215.17zM92.853 45.868l-.516.342c-.344.227-.803.568-1.434 1.08-.574.512-1.262 1.138-2.123 1.877-.86.682-1.893 1.479-3.097 2.161-2.41 1.365-5.622 2.446-9.294 2.9-3.671.456-7.744.171-11.932-.568-2.122-.341-4.13-.853-6.08-1.251a33.597 33.597 0 00-5.68-.683 28.15 28.15 0 00-9.58 1.536c-2.581.91-4.646 1.933-5.794 2.957-.573.512-.975.967-1.262 1.251l-.344.512s.057-.227.287-.512c.23-.34.63-.796 1.205-1.308 1.204-1.023 3.212-2.104 5.85-3.014 2.64-.91 5.91-1.65 9.638-1.592 1.836 0 3.786.284 5.737.682 1.95.398 3.958.853 6.08 1.251 4.188.74 8.204 1.024 11.875.626 3.614-.398 6.827-1.479 9.236-2.787 2.467-1.308 4.016-2.957 5.22-3.867.631-.512 1.09-.796 1.434-1.024.173-.114.287-.17.402-.227.115-.285.172-.342.172-.342z" fill="#263238"/><path d="M91.82 44.674s0 .057-.057.114c-.057.114-.172.227-.287.341-.23.284-.573.74-1.09 1.308-.975 1.08-2.466 2.673-4.703 4.152-2.238 1.422-5.336 2.502-8.892 2.616-3.557.17-7.4-.569-11.244-1.877-1.893-.626-3.786-1.365-5.564-1.877-1.836-.511-3.614-.91-5.393-.91-1.72-.056-3.384.228-4.876.626-1.491.398-2.868.796-4.13 1.251-2.467.91-4.36 1.934-5.68 2.673-.63.341-1.09.683-1.376.967a3.446 3.446 0 00-.402.455s.115-.17.345-.455c.286-.284.745-.626 1.376-1.024 1.262-.74 3.155-1.82 5.622-2.73a50.624 50.624 0 014.13-1.308c1.492-.398 3.156-.682 4.934-.625 1.778 0 3.614.398 5.45.91 1.835.512 3.671 1.194 5.622 1.877 3.786 1.307 7.63 2.047 11.128 1.876 3.5-.057 6.54-1.137 8.777-2.502 2.238-1.422 3.73-2.957 4.704-4.038.517-.569.86-.967 1.148-1.251.114-.114.23-.228.287-.341.114-.228.172-.228.172-.228z" fill="#263238"/><path d="M101.401 54.57s.287.284.803.91c.516.626 1.205 1.65 1.778 3.128.287.74.516 1.592.631 2.616.115.967.058 2.047.115 3.242v1.82c0 .625.057 1.308-.057 1.933a6.546 6.546 0 01-1.893 3.81v-.056c0 18.71.057 51.014.057 92.417v.057l-.057.057a2.483 2.483 0 00-.746 1.763c0 .682.229 1.421.746 1.933l.057.057V197.717a3.69 3.69 0 00-.688 2.104c0 .796.229 1.593.688 2.275V220.409c0 1.535.057 3.128-.057 4.72-.115 1.593-.345 3.128-.804 4.721a24.83 24.83 0 01-1.663 4.492c-.344.74-.746 1.422-1.262 2.105a10.111 10.111 0 01-1.721 1.763 10.172 10.172 0 01-4.532 1.99c-.803.171-1.664.171-2.524.171H85.28c-.86-.057-1.721-.512-2.237-1.194-.287-.342-.46-.683-.689-1.081a3.158 3.158 0 00-.344-.455c-.172-.114-.287-.227-.516-.284-.344-.114-.803-.057-1.09.17a1.344 1.344 0 00-.402.398c-.114.171-.172.342-.23.569-.343.796-1.09 1.479-1.95 1.649-.458.114-.86.057-1.319.114h-1.262c-1.721 0-3.442.057-5.163.057-.86 0-1.72 0-2.581.057h-1.32c-.401 0-.86 0-1.32-.057-.86-.114-1.72-.512-2.409-1.024-.688-.568-1.262-1.308-1.548-2.161l.114.114-.114-.114c-.173-.398-.517-.739-.918-.796-.402-.114-.918.057-1.205.341-.287.341-.574.74-.918 1.138-.287.398-.573.796-.975 1.137-.746.683-1.721 1.081-2.696 1.251-.517.057-.975.057-1.492.057h-4.474c-.517-.057-.975 0-1.492-.17l-.745-.114c-.23-.057-.46-.171-.746-.228-1.95-.568-3.557-1.876-4.876-3.412-1.32-1.536-2.238-3.355-2.926-5.232-.688-1.877-1.262-3.811-1.606-5.801a35.653 35.653 0 01-.517-6.029c0-2.047.058-4.038.058-6.085.057-4.436.115-8.815.172-13.137v.056c-.402-1.421-.516-2.9-.516-4.379 0-1.478.057-2.9.057-4.379.057-2.9.057-5.801.115-8.644.057-2.844.057-5.744.114-8.588 0-1.422.058-2.844.058-4.265 0-.74.115-1.479.459-2.105.172-.341.344-.625.401-.967.058-.341.115-.682.058-1.023-.058-.341-.172-.626-.287-.967-.115-.341-.172-.683-.23-1.081v-2.104-4.208-8.304-16.265-60.17l.058.113a6.296 6.296 0 01-1.606-2.73 4.752 4.752 0 01-.23-1.535v-1.536-3.071c0-1.024.057-2.047.287-3.014.459-1.99 1.491-3.81 2.81-5.29 1.32-1.478 2.64-2.9 3.902-4.322A4027.038 4027.038 0 0055.738 34.95V28.238l.114.114h-.688c-.23 0-.459-.114-.631-.228a1.394 1.394 0 01-.574-1.137c0-.455.287-.853.689-1.024.172-.114.401-.17.63-.17h.574l-.114.113v-5.744h.114c9.867-.056 18.472-.113 26.102-.113h.057v5.857l-.057-.056h.688c.23.056.46.113.631.284.344.284.517.74.46 1.137-.058.398-.345.74-.69.91-.171.114-.344.114-.516.17h-.516l.058-.056v6.995-.057C88.32 41.546 93.14 46.38 96.353 49.68c1.606 1.65 2.868 2.9 3.671 3.697.975.796 1.377 1.194 1.377 1.194l-1.262-1.251c-.803-.853-2.066-2.048-3.672-3.697-3.27-3.242-8.088-8.076-14.341-14.389V28.181h.057c.344 0 .689.057 1.033-.17.287-.17.574-.455.574-.796a1.092 1.092 0 00-.402-1.024c-.172-.114-.344-.228-.574-.228-.172-.057-.459 0-.688 0h-.058v-.057-5.8l.058.056c-7.63.057-16.235.114-26.102.17l.115-.113v5.744h-.114c-.402 0-.804-.057-1.09.17-.345.172-.574.513-.574.854-.057.398.172.74.459.967.344.227.746.17 1.205.17h.114v6.996c-4.646 5.175-9.58 10.578-14.743 16.322-1.32 1.422-2.581 2.9-3.9 4.322a11.643 11.643 0 00-2.754 5.176c-.23.966-.287 1.99-.287 2.957v3.071c0 1.024-.057 2.047.23 3.071a6.126 6.126 0 001.548 2.616l.058.057v91.109c0 .341.115.683.172.967.115.341.23.682.287 1.024.057.341 0 .739-.058 1.08-.057.341-.286.683-.401 1.024-.287.626-.402 1.308-.402 1.99 0 1.422-.057 2.844-.057 4.266-.058 2.843-.058 5.687-.115 8.588-.057 2.843-.057 5.744-.115 8.644 0 1.422-.057 2.901-.057 4.379 0 1.422.115 2.901.459 4.322-.057 4.323-.115 8.702-.172 13.138 0 2.047-.058 4.038-.058 6.085 0 1.991.172 4.038.517 5.972.344 1.99.86 3.924 1.549 5.744.745 1.82 1.663 3.64 2.925 5.118 1.262 1.479 2.868 2.73 4.704 3.356 1.836.625 3.844.455 5.794.512h1.492c.516 0 .975 0 1.434-.057.918-.114 1.836-.512 2.524-1.138.344-.284.63-.682.918-1.08.287-.398.573-.74.918-1.138.401-.398.975-.568 1.491-.398.516.114.975.512 1.147.967l-.114-.114.114.114a4.59 4.59 0 001.435 1.991 4.616 4.616 0 002.294.966c.402.057.86.057 1.262.057h1.32c.86 0 1.72 0 2.581-.057 1.721 0 3.442-.056 5.163-.056h1.262c.402 0 .86 0 1.262-.057.803-.171 1.434-.797 1.778-1.536.115-.17.115-.398.287-.569.115-.227.287-.398.46-.511.4-.285.86-.342 1.319-.228.23.057.459.171.63.341.173.171.288.342.402.512.23.341.46.739.689 1.024.459.625 1.262 1.024 2.065 1.08h4.933c.86 0 1.664 0 2.467-.17a10.081 10.081 0 004.36-1.934c.63-.512 1.204-1.08 1.663-1.706.46-.626.86-1.365 1.205-2.047a26.083 26.083 0 001.664-4.436c.401-1.536.688-3.071.745-4.664.115-1.535.058-3.128.058-4.663v-18.199.056c-.517-.739-.746-1.592-.746-2.445 0-.853.287-1.649.746-2.275V168.428l.057.057c-.574-.569-.86-1.365-.86-2.105 0-.739.344-1.478.86-1.933l-.057.057c.057-41.346.057-73.65.057-92.417 1.09-1.024 1.721-2.446 1.893-3.754.058-.683.057-1.308.057-1.934v-1.82c0-1.194.058-2.274-.057-3.241a10.474 10.474 0 00-.631-2.56c-.574-1.478-1.262-2.502-1.778-3.127a4.352 4.352 0 00-.574-.683c0-.284-.057-.398-.057-.398z" fill="#263238"/><path d="M82.24 25.679c0 .057-5.85.17-13.079.227-7.228.057-13.08 0-13.08-.057s5.852-.17 13.08-.227c7.228-.057 13.08-.057 13.08.057zM82.872 28.18c0 .058-6.024.172-13.367.172-7.4 0-13.423-.057-13.423-.171 0-.057 6.023-.17 13.423-.17 7.4.056 13.367.113 13.367.17zM82.126 30.285c0 .057-5.851.17-13.022.17-7.17 0-13.022-.056-13.022-.17 0-.114 5.851-.17 13.022-.17 7.228 0 13.022.056 13.022.17zM82.126 32.333c0 .056-5.851.17-13.022.17-7.17 0-13.022-.057-13.022-.17 0-.057 5.851-.171 13.022-.171 7.228 0 13.022.057 13.022.17z" fill="#263238"/><path d="M56.082 28.238c.401.682 1.09 1.137 1.836 1.365.745.227 1.548.227 2.352.284 6.826.17 13.653-.114 20.422-.796.573-.057 1.204-.228 1.377-.74-1.09-.056-2.18-.056-3.27-.056-6.483 0-13.022 0-19.505.056h-3.556" fill="#E0E0E0"/><path d="M51.55 24.03V4.35S51.378.371 69.333.371c16.35 0 16.292 4.606 16.292 4.606v19.052H51.55z" fill="#E8505B"/><path d="M53.787 20.105c-.057 0-.172-3.412-.172-7.564s.058-7.564.172-7.564c.058 0 .172 3.412.172 7.564 0 4.209-.057 7.564-.172 7.564zM56.828 20.105c-.058 0-.172-3.583-.172-7.962 0-4.436.057-7.962.172-7.962.057 0 .172 3.583.172 7.962s-.057 7.962-.172 7.962zM59.81 20.105c-.057 0-.171-3.697-.171-8.303 0-4.55.057-8.304.172-8.304.114 0 .172 3.697.172 8.304-.058 4.606-.115 8.303-.172 8.303zM62.736 20.105c-.057 0-.172-3.81-.172-8.474 0-4.663.058-8.474.172-8.474.058 0 .172 3.81.172 8.474-.057 4.664-.114 8.474-.172 8.474zM65.662 20.105c-.057 0-.172-3.81-.172-8.474 0-4.663.057-8.474.172-8.474.115 0 .172 3.81.172 8.474-.057 4.664-.115 8.474-.172 8.474zM68.588 20.105c-.058 0-.172-3.81-.172-8.474 0-4.663.057-8.474.172-8.474.114 0 .172 3.81.172 8.474s-.115 8.474-.172 8.474zM71.513 20.105c-.057 0-.172-3.81-.172-8.474 0-4.663.058-8.474.172-8.474.058 0 .172 3.81.172 8.474s-.057 8.474-.172 8.474zM74.439 20.105c-.057 0-.172-3.81-.172-8.474 0-4.663.057-8.474.172-8.474.057 0 .172 3.81.172 8.474s-.057 8.474-.172 8.474zM77.365 20.105c-.058 0-.172-3.64-.172-8.19 0-4.55.057-8.19.172-8.19.114 0 .172 3.64.172 8.19 0 4.55-.058 8.19-.172 8.19zM80.348 20.105c-.058 0-.172-3.526-.172-7.848 0-4.323.057-7.849.172-7.849.057 0 .172 3.526.172 7.849-.058 4.322-.115 7.848-.172 7.848zM83.273 20.105c-.057 0-.172-3.299-.172-7.393 0-4.095.058-7.394.172-7.394.058 0 .172 3.299.172 7.394-.057 4.095-.114 7.393-.172 7.393z" fill="#263238"/><path d="M84.478 5.716s-.115 0-.344-.056c-.23-.057-.517-.171-.918-.285-.402-.114-.86-.284-1.434-.455a30.915 30.915 0 00-1.95-.512c-.746-.17-1.492-.34-2.353-.512-.86-.17-1.778-.284-2.753-.454-1.95-.228-4.073-.455-6.368-.455-2.237 0-4.417.17-6.367.398-.976.113-1.894.227-2.754.398-.86.113-1.664.341-2.352.512-.746.17-1.377.34-1.95.511-.574.171-1.033.285-1.435.399-.401.113-.688.227-.917.284-.23.057-.345.057-.345.057s.115-.057.287-.114c.23-.057.517-.17.918-.341.402-.114.86-.285 1.434-.455.574-.17 1.205-.341 1.95-.512.746-.17 1.492-.398 2.41-.512.86-.17 1.778-.284 2.754-.455 1.95-.227 4.13-.398 6.424-.398 2.295 0 4.418.228 6.425.455.976.17 1.894.284 2.754.512.86.17 1.664.341 2.352.569.746.17 1.377.398 1.95.568.574.17 1.033.342 1.435.455.344.114.688.228.917.342.115 0 .23.056.23.056zM84.65 20.162c0 .057-7.113.17-15.89.17-8.777 0-15.89-.056-15.89-.17 0-.114 7.113-.17 15.89-.17 8.777 0 15.89.113 15.89.17z" fill="#263238"/><path d="M102.778 100.465h-66.66v46.976h66.66v-46.976z" fill="#E8505B"/><path d="M40.65 144.029c-.057 0-.172-8.36-.172-18.711 0-10.351.058-18.711.172-18.711.058 0 .173 8.36.173 18.711 0 10.294-.115 18.711-.172 18.711z" fill="#fff"/><g clip-path="url(#clip0)" fill="#000"><path d="M39.789 27.18c-.097-.196-.339-.295-.532-.344-1.112 0-10.688-.393-10.688-11.704 0-.344-.29-.64-.63-.64a.646.646 0 00-.628.64c0 11.31-9.576 11.704-10.64 11.704-.145 0-.29.05-.387.148-.096.049-.145.147-.193.196a.74.74 0 000 .64.67.67 0 00.58.344h.049c1.112 0 10.64.393 10.64 11.704 0 .344.29.64.628.64a.646.646 0 00.629-.64c0-11.262 9.528-11.704 10.64-11.704.242 0 .435-.148.58-.344a.613.613 0 00-.048-.64zm-11.85 7.869c-1.402-4.672-4.835-6.688-7.544-7.574 2.709-.885 6.142-2.901 7.545-7.573 1.402 4.672 4.836 6.688 7.545 7.573-2.709.886-6.142 2.902-7.545 7.574zM19.96 14.395c.338 0 .629-.296.629-.689 0-.344-.29-.64-.63-.64-.58 0-5.803-.196-5.803-6.392 0-.345-.29-.64-.628-.64a.646.646 0 00-.63.64c0 6.196-5.222 6.393-5.803 6.393h-.048c-.339.049-.58.295-.58.639 0 .344.29.64.628.64.629 0 5.804.196 5.804 6.392 0 .345.29.64.629.64.29.049.58-.246.58-.59 0-6.197 5.223-6.393 5.804-6.393h.048zm-6.48 2.803c-.775-1.87-2.177-2.902-3.483-3.492 1.403-.59 2.708-1.721 3.482-3.492.774 1.87 2.177 2.902 3.482 3.492-1.402.59-2.708 1.721-3.482 3.492zM14.398 35.245c-.58 0-5.803-.196-5.803-6.393 0-.344-.29-.639-.63-.639a.646.646 0 00-.628.64c0 6.196-5.223 6.392-5.803 6.392h-.049c-.338.05-.58.296-.58.64 0 .344.29.639.629.639.628 0 5.803.197 5.803 6.393 0 .344.29.64.629.64.29.098.58-.198.58-.59 0-6.197 5.224-6.394 5.804-6.394h.048c.339 0 .629-.295.629-.688 0-.344-.29-.64-.629-.64zm-6.48 4.18c-.823-1.868-2.177-2.901-3.483-3.491 1.403-.59 2.709-1.721 3.482-3.492.774 1.869 2.177 2.902 3.483 3.492-1.403.59-2.709 1.721-3.483 3.491z"/></g><g clip-path="url(#clip1)"><path d="M111.236 41.691c.338 0 .628-.295.628-.688 0-.345-.29-.64-.628-.64-.581 0-5.804-.196-5.804-6.393 0-.344-.29-.639-.629-.639a.645.645 0 00-.628.64c0 6.196-5.224 6.392-5.804 6.392h-.048c-.339.05-.58.295-.58.64 0 .344.29.639.628.639.629 0 5.804.197 5.804 6.393 0 .344.29.64.628.64.291.048.581-.247.581-.591 0-6.196 5.223-6.393 5.803-6.393h.049zm-6.481 2.803c-.774-1.869-2.176-2.901-3.482-3.491 1.402-.59 2.708-1.722 3.482-3.492.774 1.869 2.176 2.901 3.482 3.492-1.402.59-2.708 1.72-3.482 3.491z" fill="#000"/></g><path d="M122.533 17.665c-.097-.197-.339-.295-.532-.345-1.113 0-10.689-.393-10.689-11.704 0-.344-.29-.639-.628-.639a.646.646 0 00-.629.64c0 11.31-9.576 11.703-10.64 11.703-.145 0-.29.05-.387.148-.097.05-.145.148-.194.197a.74.74 0 000 .639.67.67 0 00.58.344h.05c1.112 0 10.639.394 10.639 11.704 0 .344.29.64.629.64a.646.646 0 00.629-.64c0-11.261 9.527-11.704 10.64-11.704.241 0 .435-.147.58-.344a.613.613 0 00-.048-.64zm-11.849 7.868c-1.403-4.672-4.837-6.688-7.545-7.573 2.708-.886 6.142-2.902 7.545-7.574 1.402 4.672 4.836 6.689 7.544 7.574-2.708.885-6.142 2.901-7.544 7.573zM27.733 83.101c-.58 0-5.803-.196-5.803-6.393 0-.344-.29-.639-.63-.639a.646.646 0 00-.628.64c0 6.196-5.223 6.392-5.803 6.392h-.049c-.338.05-.58.295-.58.64 0 .344.29.639.629.639.628 0 5.803.197 5.803 6.393 0 .344.29.64.629.64.29.098.58-.197.58-.59 0-6.197 5.224-6.394 5.804-6.394h.048c.339 0 .629-.295.629-.688 0-.345-.29-.64-.629-.64zm-6.48 4.18c-.823-1.868-2.177-2.901-3.483-3.491 1.403-.59 2.709-1.721 3.483-3.492.773 1.869 2.176 2.902 3.482 3.492-1.403.59-2.709 1.721-3.482 3.491zM123.579 124.141c-.58 0-5.803-.197-5.803-6.393 0-.345-.29-.64-.629-.64a.646.646 0 00-.629.64c0 6.196-5.223 6.393-5.803 6.393h-.049c-.338.049-.58.295-.58.639 0 .344.29.639.629.639.629 0 5.803.197 5.803 6.393 0 .344.291.64.629.64.29.098.58-.197.58-.591 0-6.196 5.224-6.393 5.804-6.393h.048c.339 0 .629-.295.629-.688a.645.645 0 00-.629-.639zm-6.48 4.18c-.822-1.869-2.177-2.902-3.482-3.492 1.402-.59 2.708-1.721 3.482-3.491.774 1.868 2.176 2.901 3.482 3.491-1.403.59-2.708 1.721-3.482 3.492zM22.45 181.172c-.58 0-5.803-.197-5.803-6.393a.646.646 0 00-.629-.639.646.646 0 00-.628.639c0 6.196-5.224 6.393-5.804 6.393h-.048c-.339.049-.58.295-.58.639 0 .344.29.639.628.639.629 0 5.804.197 5.804 6.393 0 .345.29.64.628.64.29.098.58-.197.58-.59 0-6.197 5.224-6.393 5.804-6.393h.049c.338 0 .628-.296.628-.689a.646.646 0 00-.628-.639zm-6.48 4.18c-.822-1.869-2.176-2.902-3.482-3.492 1.402-.59 2.708-1.721 3.482-3.491.774 1.868 2.176 2.901 3.482 3.491-1.402.59-2.708 1.721-3.482 3.492z" fill="#000"/><defs><clipPath id="clip0"><path fill="#fff" transform="translate(.905 4.977)" d="M0 0h39v39.656H0z"/></clipPath><clipPath id="clip1"><path fill="#fff" transform="translate(89.584 33.331)" d="M0 0h39v39.656H0z"/></clipPath></defs></svg>
