<svg width="35" height="36" xmlns="http://www.w3.org/2000/svg"><path d="M11.348 23.127h18.525c.46 0 .861-.303.986-.744L34.96 8.028a1.024 1.024 0 00-.986-1.307H8.98l-.733-3.299a1.025 1.025 0 00-1-.803H1.024a1.025 1.025 0 100 2.05h5.398l3.703 16.663a3.078 3.078 0 00-1.855 2.82 3.08 3.08 0 003.077 3.077h18.525a1.025 1.025 0 100-2.051H11.348c-.565 0-1.026-.46-1.026-1.025 0-.566.46-1.026 1.026-1.026zm-1.026 7.178a3.08 3.08 0 003.077 3.076 3.08 3.08 0 003.076-3.076 3.08 3.08 0 00-3.076-3.076 3.08 3.08 0 00-3.077 3.076zm14.424 0a3.08 3.08 0 003.076 3.076 3.08 3.08 0 003.077-3.076 3.08 3.08 0 00-3.077-3.076 3.08 3.08 0 00-3.076 3.076z"/></svg>