<svg width="31" height="31" xmlns="http://www.w3.org/2000/svg"><path d="M27.605 27.874h-8.276v2.069h8.276v-2.069z"/><path d="M30.708 2.012h-30v16.552h30V2.012z" fill="#fff"/><path d="M26.57 4.081V6.15h2.07v8.276h-2.07v2.069H4.846v-2.07H2.777V6.15h2.07V4.081H26.57z"/><path d="M15.708 14.426a4.138 4.138 0 110-8.276 4.138 4.138 0 010 8.276zm0-7.242a3.103 3.103 0 100 6.207 3.103 3.103 0 000-6.207zM3.294 3.563H2.26v1.035h1.034V3.563zm25.862 0h-1.034v1.035h1.034V3.563zM3.294 15.977H2.26v1.035h1.034v-1.035z" fill="#fff"/><path d="M27.346 12.615c-.714 0-1.293.58-1.293 1.293v-.775a1.293 1.293 0 10-2.586 0v-.776a1.293 1.293 0 00-2.586 0V7.96a1.293 1.293 0 00-2.587 0v8.017a2.586 2.586 0 00-2.586 2.587v.051c0 .929.497 1.786 1.303 2.246l1.5.856c.506.29.818.828.818 1.411v1.125h8.276v-2.069a9.8 9.8 0 001.034-4.382v-3.894c0-.714-.579-1.293-1.293-1.293zm1.294 11.638H18.293v4.138H28.64v-4.138z" fill="#fff"/><path d="M27.088 25.805h-1.035v1.035h1.035v-1.035zM20.88 14.943a.517.517 0 01-.517-.517v-1.552a.517.517 0 111.035 0v1.552a.517.517 0 01-.517.517zm-2.585 3.104a.517.517 0 01-.518-.518v-1.034a.517.517 0 111.035 0v1.034a.517.517 0 01-.517.518zm5.172-3.104a.517.517 0 01-.517-.517V13.39a.517.517 0 111.034 0v1.035a.517.517 0 01-.517.517zm2.586 0a.517.517 0 01-.517-.517v-.517a.517.517 0 011.034 0v.517a.517.517 0 01-.517.517z" fill="#fff"/></svg>