<svg width="31" height="31" xmlns="http://www.w3.org/2000/svg"><circle cx="15.608" cy="15.977" r="15"/><path d="M20.08 8.959h-8.942a2.591 2.591 0 00-2.588 2.588v8.942a2.592 2.592 0 002.588 2.588h8.941a2.592 2.592 0 002.589-2.588v-8.942a2.591 2.591 0 00-2.589-2.588zm-4.471 11.707a4.653 4.653 0 01-4.648-4.648 4.653 4.653 0 014.647-4.648 4.653 4.653 0 014.648 4.648 4.653 4.653 0 01-4.648 4.648zm4.797-8.335a1.101 1.101 0 111.1-1.1 1.1 1.1 0 01-1.1 1.1z" fill="#fff"/><path d="M15.608 13.335a2.687 2.687 0 00-2.684 2.683 2.688 2.688 0 002.684 2.684 2.687 2.687 0 002.684-2.684 2.687 2.687 0 00-2.684-2.684z" fill="#fff"/><path d="M15.608.978c-8.284 0-15 6.716-15 15 0 8.284 6.716 15 15 15 8.284 0 15-6.716 15-15 0-8.284-6.716-15-15-15zm9.023 19.51a4.557 4.557 0 01-4.552 4.553h-8.941a4.557 4.557 0 01-4.553-4.552v-8.942a4.557 4.557 0 014.553-4.552h8.941a4.557 4.557 0 014.552 4.552v8.942z" fill="#fff"/></svg>