<svg width="31" height="31" fill="none" xmlns="http://www.w3.org/2000/svg"><g clip-path="url(#clip0)"><path d="M30.458 15.979c0 4.952-4 9-9 9-4.952 0-9-4.048-9-9 0-4.953 4-9 8.953-9 5.047 0 9.047 4.047 9.047 9z" fill="#fff"/><path d="M21.458 6.979c4.953 0 9 4.047 9 9 0 4.952-4 9-9 9-4.952 0-9-4.048-9-9" fill="#fff"/><path d="M21.458 6.979c4.953 0 9 4.047 9 9 0 4.952-4 9-9 9m-12.095-18c-4.905.047-8.905 4.047-8.905 9 0 4.952 4 9 9 9 2.334 0 4.429-.905 6.048-2.334.333-.285.619-.619.905-.952h-1.858a10.974 10.974 0 01-.666-.905h3.19c.19-.286.381-.619.524-.952h-4.238a5.681 5.681 0 01-.38-.953h4.951c.286-.904.477-1.857.477-2.857 0-.666-.096-1.286-.19-1.905h-5.525c.048-.333.143-.619.238-.952h4.953a5.678 5.678 0 00-.381-.952h-4.19c.142-.334.333-.62.523-.953h3.19a4.533 4.533 0 00-.714-.952h-1.762a8.14 8.14 0 01.905-.905c-1.571-1.476-3.714-2.333-6.047-2.333 0-.095 0-.095-.048-.095z" fill="#fff"/><path d="M.458 15.98c0 4.953 4 9 9 9 2.334 0 4.429-.904 6.048-2.332.333-.286.619-.62.905-.953h-1.858a10.99 10.99 0 01-.666-.904h3.19a6.1 6.1 0 00.524-.953h-4.238a5.678 5.678 0 01-.38-.952h4.951c.286-.905.477-1.857.477-2.857 0-.667-.096-1.286-.19-1.905h-5.525c.048-.334.143-.62.238-.953h4.953a5.678 5.678 0 00-.381-.952h-4.19c.142-.333.333-.619.523-.952h3.19a4.53 4.53 0 00-.714-.953h-1.762c.286-.333.572-.619.905-.904-1.571-1.477-3.714-2.334-6.047-2.334h-.048" fill="#fff"/><path d="M9.458 24.98c2.333 0 4.429-.904 6.048-2.332.333-.286.619-.62.904-.953h-1.857a10.99 10.99 0 01-.666-.904h3.19a6.1 6.1 0 00.524-.953h-4.238a5.678 5.678 0 01-.381-.952h4.952c.286-.905.476-1.857.476-2.857 0-.667-.095-1.286-.19-1.905h-5.524c.048-.334.143-.62.238-.953h4.953a5.678 5.678 0 00-.381-.952h-4.19c.142-.333.333-.619.523-.952h3.19a4.53 4.53 0 00-.714-.953h-1.762c.286-.333.572-.619.905-.904-1.571-1.477-3.714-2.334-6.047-2.334h-.048" fill="#fff"/><path d="M12.649 18.264l.143-.81c-.048 0-.143.048-.239.048-.333 0-.38-.19-.333-.286l.286-1.667h.524l.143-.904h-.477l.095-.572h-.952s-.571 3.143-.571 3.524c0 .572.333.81.762.81.285 0 .523-.096.619-.143zm.333-1.524c0 1.333.905 1.666 1.667 1.666.714 0 1-.143 1-.143l.19-.904s-.524.238-1 .238c-1.047 0-.857-.762-.857-.762h1.953s.142-.62.142-.857c0-.62-.333-1.381-1.38-1.381-1-.095-1.715.952-1.715 2.143zm1.667-1.381c.524 0 .428.619.428.666H14.03c0-.047.095-.666.619-.666zm6.047 2.908l.19-1.047s-.475.238-.809.238c-.666 0-.952-.524-.952-1.095 0-1.143.571-1.762 1.238-1.762.476 0 .857.285.857.285l.143-1s-.571-.238-1.095-.238c-1.095 0-2.19.953-2.19 2.762 0 1.19.57 2 1.714 2 .38 0 .904-.143.904-.143zM7.41 14.508c-.666 0-1.142.19-1.142.19l-.143.81s.429-.19 1.048-.19c.333 0 .619.047.619.333 0 .19-.048.238-.048.238h-.429c-.809 0-1.714.333-1.714 1.428 0 .858.572 1.048.905 1.048.667 0 .952-.428 1-.428l-.048.38h.857l.381-2.619c0-1.143-.952-1.19-1.285-1.19zm.191 2.143c0 .143-.095.905-.666.905-.286 0-.381-.239-.381-.381 0-.239.142-.572.857-.572.143.048.19.048.19.048zm2 1.713c.238 0 1.429.047 1.429-1.238 0-1.19-1.143-.953-1.143-1.429 0-.238.19-.333.524-.333.143 0 .667.047.667.047l.143-.857s-.334-.095-.905-.095c-.715 0-1.429.286-1.429 1.238 0 1.095 1.19 1 1.19 1.429 0 .285-.333.333-.57.333-.43 0-.858-.143-.858-.143l-.143.857c.048.096.286.19 1.095.19zm19-4.623l-.19 1.286s-.381-.476-.905-.476c-.857 0-1.619 1.047-1.619 2.286 0 .761.381 1.57 1.19 1.57.572 0 .905-.38.905-.38l-.047.333h.952l.714-4.571-1-.048zm-.428 2.524c0 .524-.238 1.19-.762 1.19-.333 0-.524-.285-.524-.761 0-.762.334-1.238.762-1.238.333 0 .524.238.524.809zM2.22 18.313l.572-3.429.095 3.429h.667l1.238-3.429-.524 3.429h1l.762-4.572H4.458l-.952 2.81-.048-2.81h-1.38l-.763 4.572h.905zm14.762.002c.286-1.572.333-2.857 1-2.62.095-.618.238-.856.333-1.094h-.19c-.429 0-.762.571-.762.571l.095-.524h-.904l-.62 3.715h1.048v-.048zm5.905-3.807c-.667 0-1.143.19-1.143.19l-.143.81s.429-.19 1.048-.19c.333 0 .619.047.619.333 0 .19-.048.238-.048.238h-.428c-.81 0-1.715.333-1.715 1.428 0 .858.572 1.048.905 1.048.667 0 .953-.428 1-.428l-.047.38h.857l.38-2.619c.048-1.143-.952-1.19-1.285-1.19zm.238 2.143c0 .143-.095.905-.667.905-.285 0-.38-.239-.38-.381 0-.239.142-.572.857-.572.142.048.142.048.19.048zm1.857 1.664c.286-1.572.334-2.857 1-2.62.095-.618.238-.856.334-1.094h-.191c-.429 0-.762.571-.762.571l.095-.524h-.904l-.62 3.715h1.048v-.048z" fill="#000"/><path d="M11.172 17.597c0 .572.334.81.762.81.334 0 .62-.096.715-.143l.143-.81c-.048 0-.143.048-.239.048-.333 0-.38-.19-.333-.286l.286-1.667h.524l.143-.904h-.477l.096-.572m.666 2.667c0 1.333.429 1.666 1.19 1.666.715 0 1-.143 1-.143l.191-.904s-.524.238-1 .238c-1.047 0-.857-.762-.857-.762h1.953s.142-.62.142-.857c0-.62-.333-1.381-1.38-1.381-1-.095-1.239.952-1.239 2.143zm1.19-1.381c.525 0 .62.619.62.666H14.03c0-.047.095-.666.619-.666zm6.048 2.908l.19-1.047s-.475.238-.809.238c-.666 0-.952-.524-.952-1.095 0-1.143.571-1.762 1.238-1.762.476 0 .857.285.857.285l.143-1s-.571-.238-1.095-.238c-1.095 0-1.715.953-1.715 2.762 0 1.19.096 2 1.239 2 .38 0 .904-.143.904-.143zM6.125 15.553s.429-.19 1.048-.19c.333 0 .619.047.619.333 0 .19-.048.238-.048.238h-.429c-.809 0-1.714.333-1.714 1.428 0 .858.572 1.048.905 1.048.667 0 .952-.429 1-.429l-.048.381h.857l.381-2.619c0-1.095-.952-1.142-1.333-1.142l-1.238.952zm1.952 1.095c0 .143-.571.905-1.142.905-.286 0-.381-.238-.381-.381 0-.238.142-.572.857-.572.143.048.666.048.666.048zm.476 1.62s.286.096 1.096.096c.238 0 1.428.047 1.428-1.238 0-1.19-1.143-.953-1.143-1.429 0-.238.19-.333.524-.333.143 0 .667.047.667.047l.143-.857s-.334-.095-.905-.095c-.714 0-.952.286-.952 1.238 0 1.095.714 1 .714 1.429 0 .285-.333.333-.572.333m18.857-2.431s-.38-.476-.904-.476c-.857 0-1.143 1.048-1.143 2.286 0 .761-.095 1.57.714 1.57.572 0 .905-.38.905-.38l-.048.333h.953l.714-4.571-1.19 1.238zm-.047 1.238c0 .524-.429 1.19-.953 1.19-.333 0-.523-.285-.523-.761 0-.762.333-1.238.762-1.238.333 0 .714.238.714.81zM2.22 18.313l.572-3.429.095 3.429h.667l1.238-3.429-.524 3.429h1l.762-4.572H4.84l-1.334 2.81-.048-2.81h-.523l-1.62 4.572h.905zm13.762.002h1c.286-1.572.334-2.857 1-2.62.096-.618.238-.856.334-1.094h-.19c-.43 0-.763.571-.763.571l.095-.524m4.143.905s.429-.19 1.048-.19c.333 0 .619.047.619.333 0 .19-.048.238-.048.238h-.428c-.81 0-1.715.333-1.715 1.428 0 .858.572 1.048.905 1.048.667 0 .953-.429 1-.429l-.047.381h.857l.38-2.619c0-1.095-.952-1.142-1.333-1.142l-1.238.952zm1.953 1.095c0 .143-.572.905-1.143.905-.286 0-.381-.238-.381-.381 0-.238.143-.572.857-.572.19.048.667.048.667.048zm.428 1.667h1c.286-1.572.334-2.857 1-2.62.096-.618.239-.856.334-1.094h-.19c-.43 0-.763.571-.763.571l.096-.524" fill="#000"/></g><defs><clipPath id="clip0"><path fill="#fff" transform="translate(.458 .978)" d="M0 0h30v30H0z"/></clipPath></defs></svg>