<svg width="31" height="31" xmlns="http://www.w3.org/2000/svg"><g fill="#fff"><path d="M11.084 20.287l1.523-8.571h2.381l-1.476 8.571h-2.428z"/><path d="M11.084 20.287l1.952-8.571h1.952l-1.476 8.571h-2.428zM22.13 11.81c-.475-.19-1.237-.38-2.19-.38-2.38 0-4.095 1.19-4.095 2.904 0 1.286 1.19 1.953 2.143 2.381.953.429 1.238.715 1.238 1.096 0 .571-.762.857-1.428.857-.953 0-1.477-.143-2.286-.476l-.334-.143L14.845 20c.572.238 1.62.476 2.714.476 2.524 0 4.191-1.19 4.191-3 0-1-.62-1.762-2.048-2.38-.857-.43-1.38-.667-1.38-1.096 0-.38.428-.762 1.38-.762.81 0 1.381.143 1.81.333l.238.096.38-1.857z"/><path d="M22.13 11.81c-.475-.19-1.237-.38-2.19-.38-2.38 0-3.666 1.19-3.666 2.904 0 1.286.762 1.953 1.714 2.381.953.429 1.238.715 1.238 1.096 0 .571-.762.857-1.428.857-.953 0-1.477-.143-2.286-.476l-.334-.143L14.845 20c.572.238 1.62.476 2.714.476 2.524 0 4.191-1.19 4.191-3 0-1-.62-1.762-2.048-2.38-.857-.43-1.38-.667-1.38-1.096 0-.38.428-.762 1.38-.762.81 0 1.381.143 1.81.333l.238.096.38-1.857zm4.096-.094c-.571 0-1 .047-1.238.619l-3.571 7.952h2.571l.476-1.428h3.048l.286 1.428h2.285l-2-8.571h-1.857zm-1.095 5.714c.143-.428.952-2.524.952-2.524s.19-.524.334-.857l.142.81s.477 2.143.572 2.619h-2v-.048z"/><path d="M26.798 11.716c-.572 0-1 .047-1.238.619l-4.143 7.952h2.571l.476-1.428h3.048l.286 1.428h2.285l-2-8.571h-1.285zM25.13 17.43c.19-.476.952-2.524.952-2.524s.19-.524.334-.857l.142.81s.477 2.143.572 2.619h-2v-.048zm-18.428.286l-.238-1.239c-.429-1.428-1.81-3-3.333-3.761l2.143 7.619h2.571l3.857-8.572H9.131l-2.429 5.953z"/><path d="M6.702 17.716l-.238-1.239c-.429-1.428-1.81-3-3.333-3.761l2.143 7.619h2.571l3.857-8.572H9.607l-2.905 5.953z"/><path d="M.083 11.716l.429.095c3.047.714 5.143 2.524 5.952 4.667l-.857-4.048c-.143-.571-.571-.714-1.095-.714H.083z"/><path d="M.083 11.716c3.048.714 5.572 2.571 6.381 4.714l-.81-3.38a1.162 1.162 0 00-1.142-.906l-4.429-.428z"/><path d="M.083 11.716c3.048.714 5.572 2.571 6.381 4.714l-.571-1.857c-.143-.572-.334-1.143-1-1.381l-4.81-1.476z"/><path d="M9.083 17.43l-1.619-1.62-.762 1.81-.19-1.19c-.429-1.429-1.81-3-3.334-3.762l2.143 7.619h2.572l1.19-2.857zm4.429 2.857l-2.048-2.095-.38 2.095h2.428zm5.476-2.952c.19.19.286.333.238.524 0 .571-.762.857-1.428.857-.953 0-1.477-.143-2.286-.476l-.334-.143-.333 1.952c.571.238 1.62.476 2.714.476 1.524 0 2.762-.428 3.477-1.19l-2.048-2zm2.762 2.952h2.238l.476-1.429h3.048l.285 1.429h2.286l-.81-3.476-2.857-2.762.143.762s.477 2.143.572 2.619h-2c.19-.476.952-2.524.952-2.524s.19-.524.334-.857"/></g></svg>