<svg width="31" height="31" xmlns="http://www.w3.org/2000/svg"><path fill-rule="evenodd" clip-rule="evenodd" d="M14.642 22.556h1.177s.356-.039.537-.234c.167-.18.162-.517.162-.517s-.023-1.58.71-1.813c.723-.229 1.651 1.527 2.635 2.202.744.511 1.309.4 1.309.4l2.63-.038s1.376-.084.724-1.166c-.054-.089-.38-.8-1.956-2.263-1.65-1.53-1.428-1.283.558-3.931 1.21-1.613 1.694-2.597 1.543-3.019-.144-.402-1.034-.295-1.034-.295l-2.962.018s-.22-.03-.382.067c-.159.096-.261.318-.261.318s-.47 1.248-1.094 2.31c-1.32 2.239-1.846 2.357-2.062 2.218-.501-.324-.376-1.302-.376-1.997 0-2.17.33-3.075-.641-3.309-.322-.078-.559-.129-1.382-.137-1.057-.011-1.951.003-2.458.251-.337.165-.597.533-.438.554.196.026.639.12.874.44.303.412.293 1.34.293 1.34s.174 2.554-.408 2.872c-.399.217-.946-.227-2.122-2.259a18.878 18.878 0 01-1.057-2.19s-.088-.216-.245-.33c-.19-.14-.455-.184-.455-.184l-2.814.018s-.422.012-.577.196c-.138.163-.011.5-.011.5s2.203 5.156 4.698 7.753c2.287 2.382 4.885 2.226 4.885 2.226z"/></svg>