<svg width="31" height="31" xmlns="http://www.w3.org/2000/svg"><path d="M14.646 13.166c.475 0 .846-.15 1.118-.366.27-.215.405-.509.405-.885V9.64a1 1 0 00-.412-.824c-.277-.213-.63-.319-1.064-.319-.473 0-.852.1-1.132.302a.952.952 0 00-.422.815v2.282c0 .375.137.671.41.893.274.222.641.377 1.098.377zm-.495-3.441c0-.087.045-.156.134-.211a.676.676 0 01.349-.08c.155 0 .28.026.375.08.096.055.143.124.143.21v2.162a.286.286 0 01-.14.253.693.693 0 01-.378.09c-.155 0-.275-.028-.359-.09a.293.293 0 01-.124-.252V9.724zm3.634 3.438c.167 0 .337-.095.513-.19.178-.098.348-.241.511-.427v.506h.886V8.49h-.886v3.462a1.23 1.23 0 01-.273.245.503.503 0 01-.247.096c-.084 0-.144-.023-.18-.073-.038-.048-.058-.126-.058-.232V8.492h-.884v3.81c0 .273.053.476.155.611.104.136.258.25.463.25zm2.577 1.886H9.655c-1.702 0-3.081 1.326-3.081 2.96v2.503c0 1.636 1.379 2.962 3.081 2.962h10.707c1.701 0 3.081-1.326 3.081-2.962V18.01c0-1.634-1.38-2.96-3.081-2.96zm-9.114 2.54h-.947v3.92h-.916v-3.92h-.947v-.668h2.81v.668zm2.826 3.975h-.987v-.407a2.11 2.11 0 01-.571.343c-.196.08-.387.119-.573.119-.229 0-.4-.056-.516-.167-.114-.11-.173-.275-.173-.495V17.86h.987v2.84c0 .088.02.15.06.19.043.04.112.057.204.057a.68.68 0 00.275-.078 1.26 1.26 0 00.307-.198V17.86h.987v3.704zm3.737-.705c0 .243-.077.428-.23.558-.151.13-.374.194-.662.194-.192 0-.363-.024-.51-.074a1.284 1.284 0 01-.418-.232v.262h-.985v-4.646h.985v1.497c.133-.103.273-.184.418-.238.149-.055.3-.082.45-.082.308 0 .544.073.706.218.164.146.246.36.246.641v1.902zm3.755-1.045h-1.819v.67c0 .186.03.315.093.388.064.073.172.108.323.108.16 0 .268-.03.332-.092.062-.062.095-.196.095-.406v-.16h.978v.181c0 .364-.117.638-.359.822-.238.184-.594.276-1.068.276-.426 0-.762-.098-1.006-.293-.244-.193-.368-.463-.368-.804v-1.596c0-.306.135-.56.405-.753.27-.194.614-.29 1.04-.29.436 0 .77.09 1.005.269.233.179.35.438.35.773v.907zm-10.848-6.637h1.118V10.45l1.302-3.844h-1.137l-.692 2.627h-.071l-.726-2.627H9.384l1.333 3.967v2.603zm5.68 5.465l-.206.034-.202.104v2.136a.856.856 0 00.232.12l.235.037c.12 0 .207-.024.263-.073.056-.048.085-.127.085-.235v-1.77c0-.118-.033-.205-.102-.264a.462.462 0 00-.304-.089z"/><path d="M20.215 18.486c-.152 0-.26.032-.326.098-.066.063-.098.17-.098.319v.358h.841v-.358c0-.15-.034-.255-.1-.32-.065-.065-.172-.097-.317-.097z"/></svg>