<svg width="106" height="162" viewBox="0 0 106 162" fill="none" xmlns="http://www.w3.org/2000/svg">
<g opacity="0.7">
<path d="M4.29242 9.38355C4.29242 9.38355 -4.18469 12.6238 5.35681 30.6694C14.8983 48.7151 21.4316 57.5625 21.4316 57.5625C21.4316 57.5625 23.1148 61.7443 19.6263 62.4466C16.0497 63.1576 8.26893 61.9791 6.76111 66.301C5.18351 70.8074 8.55943 74.9983 15.1778 78.6891C21.8842 82.371 36.2187 90.8858 37.5442 91.6415C38.7816 92.406 40.1382 94.3125 37.7348 95.1731C35.4195 96.0248 17.8213 98.0425 19.3094 106.327C20.7975 114.611 41.1303 121.73 43.3462 122.486C45.5714 123.33 46.1129 124.252 45.9677 125.421C45.8225 126.589 39.8721 126.737 34.8763 127.501C29.8805 128.264 24.2805 130.064 25.5688 134.729C26.8572 139.394 38.9222 149.2 68.0352 151.717L81.605 152.053L88.7795 140.599C102.677 115.072 101.16 99.6899 97.9276 96.0174C94.6948 92.3448 90.0989 96.0864 86.746 99.793C83.3931 103.5 79.9831 108.366 78.8614 107.856C77.7396 107.347 77.2862 106.415 77.841 104.052C78.4049 101.777 83.6287 81.0193 77.5045 75.2379C71.3802 69.4564 60.0525 82.9218 57.9777 84.371C55.991 85.8114 55.0567 83.6853 55.0863 82.2622C55.1066 80.7512 55.9567 64.1567 56.4991 56.5579C57.1389 49.0381 55.443 43.8812 50.7834 42.7472C46.3 41.5956 42.9522 48.7635 40.4587 51.3195C37.9651 53.8755 35.3492 50.1415 35.3492 50.1415C35.3492 50.1415 31.4103 39.7045 21.5347 21.8696C11.659 4.03477 4.02804 9.40987 4.02804 9.40987" fill="#D42428" fill-opacity="0.5"/>
<path d="M82.2215 155.252C75.0705 142.12 62.6553 118.598 51.9178 98.3704C41.1894 78.2301 31.4549 59.943 24.3039 46.8118C20.7724 40.2419 17.8185 34.9454 15.8309 31.2389C14.8371 29.3856 14.0652 27.9539 13.5243 27.0316C13.2932 26.5222 13.0805 26.1884 12.965 25.9337C12.8495 25.679 12.7432 25.5121 12.7432 25.5121C12.7432 25.5121 12.8403 25.5911 12.9559 25.8459C13.0714 26.1006 13.2841 26.4344 13.6031 26.935C14.1532 27.9451 14.916 29.289 15.9978 31.1335C18.0642 34.7435 20.9301 40.0487 24.5588 46.6978C31.7098 59.829 41.5231 78.0194 52.2606 98.2475C62.989 118.388 75.3254 142.006 82.4764 155.137" fill="#D42428"/>
<path d="M17.5029 68.4595C17.5029 68.4595 17.8653 68.5125 18.4227 68.724C19.0684 68.9269 19.8999 69.2002 20.9172 69.5441C23.0493 70.3112 25.9338 71.4485 29.19 72.7268C32.3578 74.0139 35.154 75.16 37.3928 76.0944C38.4193 76.5264 39.1625 76.8085 39.9057 77.0906C40.4631 77.3022 40.8347 77.4433 40.844 77.5314C40.844 77.5314 40.4816 77.4784 39.9242 77.2668C39.2785 77.0639 38.447 76.7906 37.4205 76.3586C35.2883 75.5916 32.4038 74.4543 29.236 73.1672C26.0682 71.8801 23.1837 70.7428 21.0424 69.8876C20.0251 69.5438 19.1843 69.1823 18.5294 68.8914C17.7862 68.6093 17.5029 68.4595 17.5029 68.4595Z" fill="#D42428"/>
<path d="M41.7755 76.513C41.6782 76.4339 43.7137 70.3741 46.2277 62.9355C48.8298 55.4882 50.9625 49.5075 51.1386 49.49C51.2358 49.5691 49.2003 55.6289 46.6863 63.0675C44.0842 70.5148 41.8727 76.5921 41.7755 76.513Z" fill="#D42428"/>
<path d="M56.8072 108.15C56.8072 108.15 56.9559 107.869 57.3415 107.298C57.727 106.726 58.2705 105.962 58.8929 105.101C60.2075 103.194 62.0748 100.611 63.9145 97.7634C65.8331 94.8196 67.4267 92.1746 68.6439 90.1886C69.169 89.2483 69.6243 88.4925 70.0007 87.8335C70.2981 87.271 70.5349 86.981 70.5349 86.981C70.5349 86.981 70.3954 87.3502 70.098 87.9126C69.8006 88.475 69.3545 89.3187 68.8386 90.3469C67.7096 92.3241 66.1252 95.0571 64.2065 98.0009C62.2879 100.945 60.4207 103.528 59.0087 105.356C58.2981 106.226 57.7546 106.99 57.3599 107.473C57.1414 107.939 56.8954 108.141 56.8072 108.15Z" fill="#D42428"/>
<path d="M33.2852 105.622C33.2852 105.622 33.6386 105.587 34.178 105.622C34.8941 105.639 35.7077 105.736 36.6981 105.816C38.8556 105.957 41.7383 106.204 44.9836 106.503C48.229 106.803 51.1209 107.138 53.2875 107.367C54.2779 107.447 55.1007 107.632 55.8168 107.65C56.4537 107.764 56.728 107.826 56.728 107.826C56.728 107.826 56.3745 107.861 55.8351 107.826C55.119 107.809 54.3054 107.712 53.315 107.632C51.1576 107.491 48.2749 107.244 45.0295 106.945C41.7841 106.645 38.8922 106.31 36.7256 106.081C35.7352 106.001 34.9124 105.816 34.1963 105.798C33.657 105.763 33.2943 105.71 33.2852 105.622Z" fill="#D42428"/>
<path d="M43.0234 135.217C43.0234 135.217 43.4653 135.173 44.1906 135.279C45.0042 135.376 46.083 135.446 47.4268 135.49C50.1237 135.666 53.9085 136.001 58.0468 136.301C62.1942 136.689 65.979 137.024 68.6851 137.288C69.9497 137.429 71.0376 137.588 71.9305 137.588C72.6558 137.694 73.1068 137.738 73.1068 137.738C73.1068 137.738 72.6649 137.782 71.9396 137.676C71.126 137.579 70.0472 137.509 68.7034 137.465C66.0065 137.289 62.2217 136.954 58.0834 136.654C53.936 136.266 50.1512 135.931 47.4452 135.667C46.1805 135.526 45.0926 135.367 44.1997 135.367C43.4836 135.35 43.0326 135.306 43.0234 135.217Z" fill="#D42428"/>
<path d="M72.4282 137.512C72.4282 137.512 72.6558 137.134 73.1203 136.467C73.5755 135.711 74.2768 134.753 75.0479 133.611C76.6597 131.142 78.8058 127.821 81.1702 124.034C83.4465 120.255 85.486 116.767 86.9124 114.228C87.5861 113.006 88.19 111.969 88.6453 111.214C89.0216 110.555 89.24 110.089 89.3374 110.168C89.3374 110.168 89.2071 110.625 88.8308 111.284C88.4637 112.031 87.9479 113.059 87.2834 114.368C85.9452 116.899 83.9149 120.475 81.6294 124.166C79.353 127.944 77.1188 131.274 75.4097 133.664C74.5505 134.815 73.8492 135.773 73.3847 136.44C72.7532 137.214 72.5163 137.504 72.4282 137.512Z" fill="#D42428"/>
</g>
</svg>
