<svg width="83" height="154" viewBox="0 0 83 154" fill="none" xmlns="http://www.w3.org/2000/svg">
<g opacity="0.7">
<path d="M78.9237 1.1296C78.9237 1.1296 87.0137 3.51105 79.986 22.3862C72.9583 41.2613 67.8101 50.6989 67.8101 50.6989C67.8101 50.6989 66.666 55.0207 69.9347 55.3735C73.2851 55.7263 80.3129 53.7859 82.1107 57.9314C83.9902 62.2532 81.2935 66.7515 75.5732 71.0734C69.7713 75.3953 57.4319 85.2738 56.2878 86.1559C55.2255 87.0379 54.1632 89.0665 56.4513 89.6839C58.6577 90.3013 75.0012 90.5659 74.4292 98.9451C73.8572 107.324 55.8793 116.409 53.918 117.379C51.9568 118.438 51.5482 119.408 51.7934 120.554C52.0385 121.701 57.5136 121.26 62.1715 121.525C66.8294 121.789 72.1411 123.024 71.4056 127.787C70.6702 132.55 60.5372 143.487 34.0606 148.867L21.6395 150.543L13.958 139.871C-1.24148 115.88 -1.3232 100.445 1.29177 96.4754C3.90675 92.5064 8.48294 95.7698 11.9151 99.1215C15.3472 102.473 18.9428 106.971 19.9234 106.354C20.904 105.737 21.2309 104.766 20.4955 102.473C19.76 100.268 12.9774 80.1581 18.0439 73.8076C23.1104 67.4571 34.7961 79.7171 36.839 80.952C38.8002 82.1868 39.454 79.9818 39.2905 78.5705C39.1271 77.0711 36.7573 60.6656 35.5315 53.1685C34.224 45.7596 35.2864 40.4675 39.454 38.8799C43.4582 37.2922 47.2172 44.0838 49.7504 46.377C52.2837 48.6702 54.3266 44.7011 54.3266 44.7011C54.3266 44.7011 56.9416 33.9406 64.2962 15.2418C71.6508 -3.45688 79.1688 1.1296 79.1688 1.1296" fill="#D42428" fill-opacity="0.5"/>
<path d="M21.3129 153.807C26.6245 140.047 35.7769 115.439 43.7036 94.2705C51.6302 73.1903 58.8214 54.0505 64.133 40.2911C66.748 33.4114 68.9544 27.8547 70.4253 23.9738C71.1607 22.0333 71.7328 20.5339 72.1414 19.5637C72.3048 19.0345 72.4682 18.6817 72.5499 18.4171C72.6317 18.1525 72.7134 17.9761 72.7134 17.9761C72.7134 17.9761 72.6317 18.0643 72.5499 18.3289C72.4682 18.5935 72.3048 18.9463 72.0596 19.4755C71.651 20.5339 71.079 21.9452 70.2618 23.8856C68.7092 27.6783 66.5845 33.235 63.8879 40.2029C58.5762 53.9624 51.3033 73.0139 43.3767 94.1823C35.4501 115.263 26.3794 139.959 21.0677 153.718" fill="#D42428"/>
<path d="M72.3862 61.1064C72.3862 61.1064 72.0594 61.1946 71.5691 61.4592C70.997 61.7238 70.2616 62.0766 69.3627 62.5176C67.4832 63.4878 64.9499 64.899 62.0898 66.4866C59.3114 68.0742 56.8598 69.4854 54.8986 70.632C53.9997 71.1612 53.346 71.514 52.6922 71.8668C52.2019 72.1314 51.8751 72.3078 51.8751 72.396C51.8751 72.396 52.2019 72.3078 52.6922 72.0432C53.2643 71.7786 53.9997 71.4258 54.8986 70.8966C56.7781 69.9264 59.3114 68.5152 62.0898 66.9276C64.8682 65.34 67.4014 63.9288 69.281 62.8704C70.1798 62.4294 70.9153 61.9884 71.4873 61.6356C72.1411 61.2828 72.3862 61.1064 72.3862 61.1064Z" fill="#D42428"/>
<path d="M50.976 71.5146C51.0578 71.4264 48.6062 65.605 45.5827 58.4606C42.4774 51.3162 39.9441 45.583 39.7807 45.583C39.699 45.6712 42.1505 51.4926 45.1741 58.637C48.2794 65.7815 50.8943 71.6028 50.976 71.5146Z" fill="#D42428"/>
<path d="M40.1895 104.501C40.1895 104.501 40.026 104.237 39.6174 103.708C39.2088 103.178 38.6368 102.473 37.9831 101.679C36.5939 99.915 34.6326 97.5336 32.6714 94.8875C30.6285 92.1533 28.9124 89.6836 27.6049 87.8314C27.0329 86.9494 26.5426 86.2438 26.134 85.6264C25.8071 85.0971 25.562 84.8325 25.562 84.8325C25.562 84.8325 25.7254 85.1853 26.0523 85.7145C26.3791 86.2437 26.8694 87.0376 27.4415 88.0078C28.6672 89.86 30.3833 92.4179 32.4263 95.1521C34.4692 97.8863 36.4304 100.268 37.9013 101.944C38.6368 102.737 39.2088 103.443 39.6174 103.884C39.8626 104.325 40.1077 104.501 40.1895 104.501Z" fill="#D42428"/>
<path d="M61.436 99.6504C61.436 99.6504 61.1092 99.6504 60.6189 99.7386C59.9651 99.8268 59.2297 100.003 58.3308 100.18C56.3695 100.532 53.7546 101.062 50.8127 101.679C47.8709 102.296 45.2559 102.914 43.2947 103.355C42.3958 103.531 41.6603 103.796 41.0066 103.884C40.4345 104.06 40.1894 104.148 40.1894 104.148C40.1894 104.148 40.5163 104.148 41.0066 104.06C41.6603 103.972 42.3958 103.796 43.2947 103.619C45.2559 103.266 47.8709 102.737 50.8127 102.12C53.7546 101.503 56.3695 100.885 58.3308 100.444C59.2297 100.268 59.9651 100.003 60.6189 99.915C61.1092 99.8268 61.436 99.7386 61.436 99.6504Z" fill="#D42428"/>
<path d="M55.3071 130.08C55.3071 130.08 54.8985 130.08 54.2448 130.256C53.5093 130.433 52.5287 130.609 51.303 130.786C48.8514 131.227 45.4193 131.932 41.6603 132.638C37.9013 133.432 34.4691 134.137 32.0176 134.666C30.8735 134.931 29.8929 135.196 29.0758 135.284C28.422 135.46 28.0134 135.548 28.0134 135.548C28.0134 135.548 28.422 135.548 29.0758 135.372C29.8112 135.196 30.7918 135.019 32.0176 134.843C34.4691 134.402 37.9013 133.696 41.6603 132.991C45.4193 132.197 48.8514 131.491 51.303 130.962C52.447 130.697 53.4276 130.433 54.2448 130.345C54.8985 130.256 55.3071 130.168 55.3071 130.08Z" fill="#D42428"/>
<path d="M28.667 135.284C28.667 135.284 28.4218 134.931 27.9315 134.314C27.4412 133.608 26.7058 132.726 25.8886 131.668C24.1725 129.375 21.8844 126.288 19.3512 122.76C16.8996 119.231 14.6933 115.968 13.1406 113.587C12.4052 112.44 11.7514 111.47 11.2611 110.764C10.8525 110.147 10.6074 109.706 10.5257 109.794C10.5257 109.794 10.6891 110.235 11.0977 110.852C11.5063 111.558 12.0783 112.528 12.8138 113.763C14.2847 116.144 16.4911 119.496 18.9426 122.936C21.3941 126.464 23.7639 129.551 25.5617 131.756C26.4606 132.815 27.1961 133.697 27.6864 134.314C28.3401 135.02 28.5853 135.284 28.667 135.284Z" fill="#D42428"/>
</g>
</svg>
