<svg width="201" height="361" viewBox="0 0 201 361" fill="none" xmlns="http://www.w3.org/2000/svg">
<path d="M194.014 115.123C194.014 115.123 207.11 122.198 187.878 149.531C168.646 176.864 156.204 189.87 156.204 189.87C156.204 189.87 152.604 196.317 158.124 198.201C163.786 200.118 176.667 199.854 178.221 207.207C179.85 214.875 173.5 220.976 161.987 225.574C150.332 230.139 125.289 240.946 122.98 241.894C120.812 242.875 118.214 245.688 121.939 247.599C125.523 249.477 153.687 256.501 149.555 269.664C145.423 282.827 110.927 290.088 107.171 290.847C103.383 291.746 102.312 293.132 102.306 295.064C102.3 296.996 111.933 298.502 119.889 300.806C127.845 303.111 136.567 307.23 133.509 314.546C130.45 321.863 108.826 335.252 61.0222 333.159L38.914 330.821L29.6333 310.659C12.3471 266.171 17.9949 241.465 24.0056 236.177C30.0162 230.889 36.7058 237.954 41.3839 244.697C46.062 251.441 50.5926 260.084 52.5199 259.493C54.4473 258.902 55.3764 257.483 54.9647 253.52C54.5199 249.699 50.3333 214.814 61.4766 206.709C72.6198 198.604 88.2294 222.921 91.2991 225.72C94.2275 228.486 96.185 225.226 96.4317 222.904C96.7114 220.441 98.7664 193.26 99.4586 180.781C99.9763 168.41 103.798 160.38 111.601 159.525C119.12 158.605 123.074 170.979 126.594 175.668C130.115 180.357 135.136 174.837 135.136 174.837C135.136 174.837 143.694 158.693 163.426 131.774C183.157 104.855 194.438 115.222 194.438 115.222" fill="#D42428" fill-opacity="0.5"/>
<path d="M37.125 335.906C51.471 316.057 76.5276 280.418 98.1744 249.782C119.788 219.287 139.402 191.597 153.748 171.748C160.851 161.807 166.75 153.816 170.749 148.207C172.749 145.402 174.3 143.236 175.371 141.85C175.852 141.071 176.267 140.573 176.508 140.183C176.748 139.793 176.956 139.544 176.956 139.544C176.956 139.544 176.781 139.652 176.541 140.042C176.3 140.432 175.885 140.93 175.263 141.676C174.159 143.203 172.641 145.228 170.5 148C166.392 153.435 160.634 161.459 153.357 171.508C139.011 191.357 119.289 218.873 97.6422 249.509C76.0285 280.004 51.0801 315.817 36.7341 335.666" fill="#D42428"/>
<path d="M160.213 208.355C160.213 208.355 159.615 208.364 158.668 208.589C157.579 208.781 156.175 209.048 154.455 209.39C150.841 210.181 145.931 211.414 140.39 212.797C134.99 214.212 130.221 215.478 126.4 216.519C124.647 217.002 123.384 217.302 122.121 217.601C121.174 217.826 120.542 217.976 120.509 218.117C120.509 218.117 121.108 218.108 122.055 217.883C123.143 217.691 124.547 217.425 126.3 216.942C129.914 216.15 134.824 214.917 140.225 213.502C145.625 212.086 150.535 210.853 154.182 209.921C155.902 209.579 157.339 209.171 158.46 208.838C159.723 208.538 160.213 208.355 160.213 208.355Z" fill="#D42428"/>
<path d="M119.286 216.344C119.46 216.236 117.404 205.941 114.855 193.3C112.165 180.625 109.934 170.438 109.652 170.372C109.477 170.48 111.533 180.775 114.082 193.417C116.773 206.091 119.112 216.452 119.286 216.344Z" fill="#D42428"/>
<path d="M88.2606 264.718C88.2606 264.718 88.0773 264.229 87.5692 263.218C87.0611 262.207 86.3366 260.848 85.5038 259.315C83.7631 255.934 81.2647 251.335 78.8656 246.313C76.3583 241.118 74.317 236.477 72.7507 232.988C72.0923 231.347 71.509 230.021 71.034 228.869C70.6673 227.891 70.3426 227.369 70.3426 227.369C70.3426 227.369 70.4929 227.999 70.8597 228.977C71.2264 229.955 71.7766 231.422 72.4019 233.204C73.8269 236.66 75.8351 241.442 78.3424 246.637C80.8498 251.833 83.3481 256.432 85.2632 259.705C86.2373 261.271 86.9619 262.63 87.503 263.5C87.7616 264.304 88.1193 264.685 88.2606 264.718Z" fill="#D42428"/>
<path d="M126.821 265.544C126.821 265.544 126.256 265.412 125.375 265.355C124.211 265.232 122.874 265.217 121.253 265.136C117.729 264.908 113.009 264.698 107.69 264.496C102.371 264.295 97.6173 264.226 94.0604 264.139C92.4398 264.058 91.0687 264.184 89.9051 264.061C88.8498 264.111 88.3927 264.153 88.3927 264.153C88.3927 264.153 88.958 264.285 89.839 264.343C91.0025 264.466 92.3405 264.481 93.9611 264.562C97.485 264.79 102.205 265 107.524 265.201C112.843 265.403 117.597 265.472 121.154 265.559C122.774 265.64 124.145 265.514 125.309 265.637C126.19 265.694 126.788 265.685 126.821 265.544Z" fill="#D42428"/>
<path d="M104.81 311.71C104.81 311.71 104.103 311.545 102.907 311.563C101.569 311.548 99.8069 311.434 97.6211 311.221C93.2163 310.935 87.0165 310.677 80.2514 310.287C73.4533 310.037 67.2535 309.779 62.8156 309.635C60.738 309.596 58.943 309.623 57.4968 309.434C56.3001 309.452 55.5604 309.428 55.5604 309.428C55.5604 309.428 56.267 309.593 57.4637 309.575C58.8017 309.59 60.5636 309.704 62.7494 309.917C67.1542 310.202 73.354 310.46 80.1191 310.851C86.9172 311.1 93.117 311.358 97.5549 311.503C99.6325 311.542 101.428 311.515 102.874 311.704C104.037 311.827 104.777 311.851 104.81 311.71Z" fill="#D42428"/>
<path d="M56.7899 309.269C56.7899 309.269 56.4983 308.606 55.882 307.421C55.2987 306.095 54.3577 304.388 53.3416 302.366C51.2341 298.007 48.4352 292.149 45.3777 285.486C42.4615 278.856 39.8701 272.748 38.0783 268.315C37.2365 266.185 36.4699 264.37 35.8867 263.044C35.4117 261.892 35.1531 261.088 34.9787 261.196C34.9787 261.196 35.096 261.967 35.571 263.119C36.0129 264.412 36.6382 266.194 37.4469 268.465C39.0973 272.865 41.6557 279.114 44.605 285.603C47.5211 292.232 50.4614 298.124 52.7432 302.375C53.9007 304.43 54.8417 306.137 55.458 307.322C56.3239 308.714 56.6486 309.236 56.7899 309.269Z" fill="#D42428"/>
<path d="M20.0994 63.7647C19.9611 63.711 19.8502 64.6174 19.926 65.6753C20.0018 66.7332 20.209 67.6048 20.3888 67.5163C20.4787 67.4721 20.5481 66.7079 20.4723 65.65C20.3965 64.592 20.2376 63.8184 20.0994 63.7647Z" fill="#263238"/>
<path d="M23.3939 49.8535C23.2556 49.7998 22.474 51.1578 21.706 52.9959C21.0763 54.8876 20.7579 56.5045 20.8962 56.5581C21.0344 56.6118 21.4912 55.0486 22.1692 53.2548C22.8888 51.3188 23.5322 49.9072 23.3939 49.8535Z" fill="#263238"/>
<path d="M32.3927 39.3432C32.3444 39.2453 30.906 39.9528 29.5297 41.2383C28.0636 42.5679 27.1436 43.8723 27.2819 43.926C27.4202 43.9796 28.4852 42.969 29.8615 41.6835C31.2378 40.3981 32.4895 39.539 32.3927 39.3432Z" fill="#263238"/>
<path d="M45.3996 35.1349C45.4411 34.9927 43.7955 34.8287 41.8456 35.1795C39.8956 35.5302 38.4988 36.0957 38.5955 36.2914C38.6439 36.3893 40.1375 36.0197 41.9976 35.7131C43.906 35.5045 45.4064 35.3749 45.3996 35.1349Z" fill="#263238"/>
<path d="M59.2481 38.0575C59.2896 37.9154 57.8516 37.0408 56.0126 36.4853C54.1251 35.8318 52.4795 35.6677 52.438 35.8098C52.3965 35.952 53.959 36.4002 55.8465 37.0537C57.6856 37.6093 59.2066 38.1997 59.2481 38.0575Z" fill="#263238"/>
<path d="M70.5853 47.205C70.6752 47.1608 70.3918 46.8134 70.0116 46.2703C69.6314 45.7272 69.0163 44.9346 68.3112 44.1863C66.901 42.6895 65.4631 41.8149 65.3732 41.8592C65.3316 42.0013 66.5483 43.1064 67.9101 44.5052C68.6151 45.2536 69.2718 45.9041 69.7419 46.403C70.2603 46.9998 70.5853 47.205 70.5853 47.205Z" fill="#263238"/>
<path d="M75.2214 61.1089C75.3597 61.1626 75.6298 59.4478 75.2984 57.4204C74.967 55.3931 74.2829 53.7826 74.1031 53.871C73.9233 53.9595 74.4691 55.5163 74.8005 57.5436C75.1734 59.4289 75.0832 61.0553 75.2214 61.1089Z" fill="#263238"/>
<path d="M66.7556 71.1143C66.804 71.2122 68.3943 71.0384 70.054 70.1003C71.8036 69.1179 72.6751 67.7157 72.5368 67.662C72.3986 67.6084 71.3819 68.7169 69.6738 69.5571C68.2423 70.5047 66.7487 70.8743 66.7556 71.1143Z" fill="#263238"/>
<path d="M53.4327 67.4464C53.3428 67.4906 54.4764 68.88 56.2808 69.8177C58.0852 70.7554 59.7791 71.0173 59.7308 70.9194C59.7723 70.7773 58.2097 70.3291 56.4952 69.3471C54.8291 68.4631 53.6125 67.3579 53.4327 67.4464Z" fill="#263238"/>
<path d="M47.5377 54.1615C47.3994 54.1078 47.3575 55.8321 47.8272 57.9131C48.2968 59.9942 49.1607 61.5162 49.2506 61.472C49.4304 61.3836 48.7947 59.871 48.3734 57.8878C47.8554 55.7089 47.6276 54.1173 47.5377 54.1615Z" fill="#263238"/>
<path d="M50.8328 40.2501C50.6945 40.1965 49.7262 41.4029 48.9583 43.2409C48.2387 45.1768 48.0101 46.7495 48.0585 46.8474C48.1968 46.9011 48.7918 45.3915 49.4698 43.5977C50.2378 41.7597 50.8812 40.348 50.8328 40.2501Z" fill="#263238"/>
<path d="M60.5363 30.4878C60.488 30.3899 59.0496 31.0974 57.625 32.285C56.1104 33.5168 55.1421 34.7232 55.1905 34.8211C55.2388 34.919 56.4422 33.962 57.9567 32.7302C59.3814 31.5427 60.5847 30.5857 60.5363 30.4878Z" fill="#263238"/>
<path d="M73.0457 24.8211C72.9973 24.7232 71.4553 24.9949 69.6505 25.6394C67.8457 26.2838 66.4557 27.0892 66.5041 27.1871C66.5525 27.285 67.9977 26.8175 69.8025 26.1731C71.6073 25.5286 73.1424 25.0169 73.0457 24.8211Z" fill="#263238"/>
<path d="M86.8054 23.0415C86.8469 22.8994 85.2013 22.7353 83.2446 22.8461C81.2878 22.9568 79.7942 23.3265 79.8426 23.4244C79.8909 23.5223 81.4398 23.4905 83.3966 23.3797C85.2635 23.3132 86.8123 23.2815 86.8054 23.0415Z" fill="#263238"/>
<path d="M100.806 24.9159C100.848 24.7737 99.3269 24.1834 97.3564 23.8141C95.3859 23.4449 93.7887 23.3787 93.8371 23.4766C93.7956 23.6187 95.3996 23.9249 97.2802 24.3383C99.1608 24.7518 100.765 25.058 100.806 24.9159Z" fill="#263238"/>
<path d="M114.178 30.2639C114.219 30.1218 112.871 29.203 111.025 28.4074C109.179 27.6118 107.658 27.0214 107.617 27.1635C107.575 27.3056 109.055 28.0381 110.811 28.878C112.657 29.6736 114.088 30.3081 114.178 30.2639Z" fill="#263238"/>
<path d="M126.089 38.7638C126.13 38.6217 125.094 37.4281 123.414 36.064C121.872 34.7537 120.434 33.8791 120.303 34.0654C120.261 34.2075 121.568 35.2684 123.061 36.4809C124.741 37.845 126.047 38.9059 126.089 38.7638Z" fill="#263238"/>
<path d="M135.047 50.7851C135.137 50.7409 134.453 49.1304 133.444 47.3147C132.345 45.5432 131.259 44.2517 131.17 44.2959C131.08 44.3402 132.033 45.818 132.994 47.5358C134.003 49.3515 134.867 50.8736 135.047 50.7851Z" fill="#263238"/>
<path d="M140.367 64.7175C140.457 64.6733 140.181 62.9838 139.58 61.0891C138.931 59.0965 138.205 57.6281 138.115 57.6723C138.025 57.7166 138.481 59.3176 139.131 61.3102C139.642 63.2491 140.188 64.806 140.367 64.7175Z" fill="#263238"/>
<path d="M143.247 79.3638C143.385 79.4175 143.199 77.6838 142.868 75.6564C142.536 73.629 142.17 71.9838 141.991 72.0722C141.901 72.1164 142.039 73.7522 142.37 75.7796C142.791 77.7628 143.157 79.408 143.247 79.3638Z" fill="#263238"/>
<path d="M144.398 94.1304C144.537 94.1841 144.579 92.4598 144.475 90.4419C144.372 88.424 144.186 86.6903 144.006 86.7787C143.868 86.725 143.826 88.4493 143.929 90.4672C144.122 92.4409 144.308 94.1746 144.398 94.1304Z" fill="#263238"/>
<path d="M144.042 108.787C144.18 108.84 144.36 107.17 144.485 105.161C144.61 103.153 144.562 101.473 144.424 101.419C144.286 101.365 144.105 103.036 143.98 105.044C143.904 107.151 143.862 108.875 144.042 108.787Z" fill="#263238"/>
<path d="M142.532 119.751C142.67 119.805 142.968 119.05 143.12 118.002C143.272 116.953 143.342 116.189 143.203 116.135C143.065 116.082 142.816 116.934 142.615 117.885C142.414 118.835 142.393 119.697 142.532 119.751Z" fill="#263238"/>
</svg>
