<svg width="94" height="149" xmlns="http://www.w3.org/2000/svg" viewBox="0 0 93.7 149">
<style type="text/css">
	.st0{fill:#263238;}
</style>
<path class="st0" d="M2.2,144c-0.1,0.2-0.7-0.3-1.3-0.9c-0.6-0.7-1-1.4-0.8-1.5c0.1-0.1,0.6,0.3,1.2,1C1.9,143.3,2.3,143.9,2.2,144z
	"/>
<path class="st0" d="M13.3,148.9c-0.1,0.2-1.5,0.1-3.2-0.2c-1.6-0.5-2.9-1.1-2.8-1.3c0.1-0.2,1.4,0.3,3,0.7
	C12.1,148.5,13.4,148.7,13.3,148.9z"/>
<path class="st0" d="M26.4,146.6c0,0.1-1.4,1-3.2,1.6c-1.9,0.6-3.4,0.7-3.3,0.5c0.1-0.2,1.5-0.6,3.3-1.1
	C24.9,147.1,26.3,146.4,26.4,146.6z"/>
<path class="st0" d="M38.3,137.1c0.1,0-1,1.6-2.6,3.2c-1.6,1.6-3,2.5-3,2.3c0-0.1,1.3-1.3,2.8-2.8C37,138.2,38.2,136.9,38.3,137.1z"
	/>
<path class="st0" d="M46.3,122.7c0.1,0-0.4,1.9-1.3,3.9c-0.9,2.1-2,3.7-2.1,3.7c-0.1,0,0.7-1.7,1.6-3.8
	C45.5,124.4,46.2,122.7,46.3,122.7z"/>
<path class="st0" d="M48.6,107.1c0.1-0.1,0.1,0.4,0.2,1.1c0.1,0.7,0.1,1.7,0.1,2.7c-0.1,2.1-0.5,4-0.6,4c-0.1,0,0.1-1.8,0.1-3.8
	c0-1.1,0.1-2,0.1-2.8C48.5,107.6,48.6,107.1,48.6,107.1z"/>
<path class="st0" d="M43.2,95c0.1-0.2,1.3,0.6,2.4,2c1,1.5,1.6,3,1.4,3.1c-0.2,0.1-0.8-1.3-1.8-2.7C44.2,96,43.1,95.2,43.2,95z"/>
<path class="st0" d="M30.8,97.1c0-0.1,1.2-1.5,3-2.4c1.9-1,3.4-1.1,3.3-0.9c-0.1,0.2-1.5,0.5-3.2,1.6C32.3,96.1,31,97.2,30.8,97.1z"
	/>
<path class="st0" d="M23.6,111.4c-0.1,0.1-0.2-1.8,0.5-4c0.7-2.2,1.7-3.9,1.8-3.8c0.1,0-0.7,1.7-1.3,3.9
	C24,109.5,23.8,111.3,23.6,111.4z"/>
<path class="st0" d="M27.8,124.3c-0.1,0.2-1.2-0.8-2.2-2.4c-1-1.6-1.3-3.3-1.2-3.3c0.2-0.1,0.7,1.3,1.6,2.8
	C27.1,123.2,27.9,124.3,27.8,124.3z"/>
<path class="st0" d="M39,129.2c-0.1,0.2-1.5,0.4-3.2,0c-1.7-0.4-2.9-1.1-2.9-1.2c0.1-0.2,1.4,0.2,3.1,0.5
	C37.6,128.9,38.9,129.1,39,129.2z"/>
<path class="st0" d="M52,125.8c0,0.1-1.4,1-3.2,1.6c-1.9,0.7-3.3,0.9-3.3,0.8c0-0.1,1.4-0.7,3.3-1.4C50.5,126.3,52,125.7,52,125.8z"
	/>
<path class="st0" d="M64.5,117.6c0,0.1-1.2,1.4-2.9,2.6c-1.7,1.3-3.2,2.1-3.2,2c0-0.1,1.3-1.2,3-2.4
	C63.1,118.5,64.5,117.4,64.5,117.6z"/>
<path class="st0" d="M75.5,106c0.1,0-1,1.6-2.4,3.4s-2.8,2.9-2.8,2.8c0-0.1,1.1-1.5,2.6-3.2C74.2,107.2,75.3,105.8,75.5,106z"/>
<path class="st0" d="M84.3,92.1c0.1,0-0.6,1.8-1.8,3.8c-1.2,2-2.3,3.5-2.3,3.4c-0.1,0,0.8-1.7,1.9-3.6C83.2,93.7,84.1,92,84.3,92.1z
	"/>
<path class="st0" d="M90.4,76.8c0.1,0-0.3,1.8-1.1,3.9c-0.8,2.1-1.5,3.9-1.6,3.8c-0.1,0,0.5-1.8,1.2-3.9
	C89.7,78.5,90.3,76.8,90.4,76.8z"/>
<path class="st0" d="M93.5,61c0.1,0,0.1,1.7-0.2,4c-0.3,2.2-0.7,4-1,4c-0.1,0,0.1-1.8,0.4-3.9C93.1,62.8,93.4,61,93.5,61z"/>
<path class="st0" d="M92.3,46c0.1-0.1,0.6,1.5,1,3.4c0.3,2,0.4,3.7,0.3,3.8c-0.1,0.1-0.3-1.7-0.7-3.5C92.5,47.8,92.1,46.1,92.3,46z"
	/>
<path class="st0" d="M87.3,33.2c0.1-0.1,1,1.2,1.7,2.8c0.8,1.7,1.2,3.2,1.1,3.3c-0.1,0.1-0.8-1.3-1.6-3
	C87.7,34.7,87.1,33.4,87.3,33.2z"/>
<path class="st0" d="M80.1,22.3c0.1-0.2,1,1,2.1,2.4c1,1.5,1.8,2.7,1.6,2.8c-0.1,0.1-1-1-2.1-2.4C80.8,23.6,80,22.4,80.1,22.3z"/>
<path class="st0" d="M71.6,12.9c0.1-0.2,1.2,0.8,2.4,2c1.2,1.2,2.2,2.4,2,2.5c-0.1,0.2-1.2-0.8-2.4-2C72.5,14.1,71.5,12.9,71.6,12.9
	z"/>
<path class="st0" d="M62.1,4.9c0.1-0.2,1.2,0.6,2.6,1.6c1.4,1,2.4,2,2.3,2.2s-1.2-0.6-2.6-1.6C63,5.9,61.9,5,62.1,4.9z"/>
<path class="st0" d="M54.1,0.1c0.1-0.2,0.8,0,1.5,0.5c0.8,0.5,1.3,0.8,1.2,1c-0.1,0.2-0.8-0.1-1.5-0.5C54.6,0.7,54,0.2,54.1,0.1z"/>
</svg>
