<svg width="193" height="270" viewBox="0 0 193 270" fill="none" xmlns="http://www.w3.org/2000/svg"><path d="M123.406 214.837l-85.505 52.499 13.195-91.218 22.196 14.28 12.747-10.642 7.456.433 11.094 27.635 18.817 7.013z" fill="#59A6F5" fill-opacity=".5"/><path opacity=".5" d="M93.212 181.149l-55.31 86.187 66.687-59.512-11.377-26.675z" fill="#000"/><path d="M37.78 268.54c-.145-.114 7.215-17.122 16.488-38.06 9.273-20.938 16.91-37.847 17.056-37.732.146.115-7.215 17.123-16.488 38.061S37.911 268.525 37.78 268.54z" fill="#263238"/><path d="M65.057 248.895c-.146-.115 11.524-7.588 25.793-16.56 14.399-8.988 26.116-16.07 26.262-15.955.145.115-11.525 7.588-25.793 16.56-14.4 8.988-26.116 16.07-26.262 15.955zM58.849 252.279c-.146-.115.46-.584 1.064-1.052.736-.485 1.372-.693 1.403-.432.146.115-.459.584-1.064 1.052-.736.485-1.372.693-1.403.432zM57.61 218.578c-.13.016.48-1.511 1.374-3.998.894-2.486 2.362-5.702 4.044-9.34 1.682-3.639 3.426-6.755 4.742-9.028 1.316-2.272 2.22-3.57 2.35-3.585.13-.016-.612 1.527-1.928 3.8-1.185 2.256-2.914 5.503-4.611 9.011-1.698 3.508-3.15 6.854-4.32 9.241-.894 2.487-1.505 4.014-1.651 3.899z" fill="#fff"/><path d="M103.22 157.476c.047.14-.864.204-1.917.075-1.052-.129-1.912-.38-1.815-.555.049-.087.816-.117 1.868.012 1.053.129 1.818.327 1.864.468zM117.281 154.901c.046.141-1.35.851-3.224 1.522-1.922.531-3.553.766-3.599.626-.047-.141 1.538-.516 3.364-1.101 1.97-.618 3.412-1.187 3.459-1.047zM128.235 146.471c.095.053-.685 1.45-2.038 2.756-1.403 1.393-2.752 2.243-2.799 2.103-.046-.141 1.017-1.15 2.371-2.456s2.275-2.509 2.466-2.403zM133.099 133.725c.144-.034.224 1.614-.225 3.539-.45 1.925-1.086 3.288-1.276 3.182-.096-.053.35-1.523.75-3.36.306-1.891.511-3.38.751-3.361zM130.884 119.778c.144-.035.944 1.443 1.406 3.304.556 1.914.636 3.562.492 3.596-.144.034-.512-1.546-1.069-3.46-.461-1.861-.973-3.406-.829-3.44zM122.325 108.015c.048-.087.381.213.904.619.523.407 1.283 1.06 1.995 1.801 1.423 1.481 2.223 2.958 2.175 3.046-.144.034-1.186-1.235-2.514-2.663-.712-.741-1.328-1.428-1.802-1.922-.57-.547-.758-.881-.758-.881zM108.674 102.687c-.046-.14 1.68-.322 3.688.112 2.008.433 3.582 1.197 3.484 1.371-.097.175-1.624-.448-3.632-.882-1.864-.467-3.493-.46-3.54-.601zM98.252 110.613c-.096-.054.159-1.629 1.18-3.235 1.07-1.694 2.515-2.491 2.561-2.35.047.14-1.112 1.097-2.038 2.756-1.019 1.378-1.464 2.848-1.703 2.829zM101.238 124.075c-.049.087-1.379-1.113-2.224-2.959-.845-1.846-1.02-3.547-.925-3.494.144-.034.513 1.546 1.406 3.304.798 1.705 1.84 2.974 1.743 3.149zM114.206 130.625c.046.14-1.678.094-3.732-.48-2.055-.574-3.531-1.512-3.482-1.599.097-.175 1.575.536 3.535 1.056 2.149.628 3.727.936 3.679 1.023zM128.266 128.051c.047.14-1.207 1.044-3.082 1.715-1.97.619-3.552.766-3.647.713-.047-.14 1.491-.656 3.317-1.241 1.875-.671 3.317-1.24 3.412-1.187zM138.509 118.88c.096.053-.684 1.45-1.943 2.809-1.307 1.447-2.561 2.35-2.656 2.297-.095-.053.922-1.204 2.229-2.65 1.258-1.359 2.275-2.509 2.37-2.456zM144.805 106.704c.095.053-.255 1.576-.99 3.341-.736 1.766-1.611 3.11-1.706 3.057-.095-.054.445-1.47 1.18-3.235.736-1.766 1.325-3.269 1.516-3.163zM147.281 93.084c.144-.034.224 1.614.014 3.558-.21 1.944-.655 3.414-.75 3.36-.095-.053.015-1.594.225-3.538.161-1.857.272-3.399.511-3.38zM146.121 79.038c.144-.034.656 1.512.925 3.494.269 1.982.253 3.577.158 3.524-.144.034-.368-1.58-.685-3.475-.318-1.895-.542-3.509-.398-3.543zM141.46 65.442c.144-.034.993 1.356 1.693 3.236.701 1.88 1.213 3.426 1.069 3.46-.144.034-.8-1.478-1.549-3.27-.701-1.88-1.262-3.338-1.213-3.425zM133.576 53.141c.144-.034 1.284 1.06 2.561 2.803 1.23 1.603 2.03 3.08 1.837 3.202-.144.034-1.137-1.322-2.272-2.872-1.277-1.743-2.27-3.099-2.126-3.133zM122.026 43.603c.049-.088 1.622.676 3.384 1.774 1.714 1.185 2.948 2.332 2.9 2.42-.049.087-1.476-.939-3.143-1.983-1.762-1.098-3.238-2.037-3.141-2.211zM108.382 37.591c.049-.087 1.722.274 3.584.97 1.957.748 3.386 1.546 3.338 1.634-.049.087-1.625-.449-3.582-1.198-1.91-.608-3.437-1.231-3.34-1.406zM93.901 33.976c-.046-.14 1.676.133 3.684.567 2.008.433 3.632.882 3.535 1.057-.049.087-1.676-.134-3.684-.567-1.959-.521-3.583-.97-3.535-1.057zM79.212 32.077c-.046-.14 1.678-.095 3.688.11 2.01.207 3.732.48 3.635.655.046.14-1.678.095-3.688-.111-1.961-.293-3.683-.567-3.635-.654zM64.557 31.685c-.046-.14 1.631-.235 3.643-.257 2.013-.023 3.688.11 3.735.251.046.14-1.631.235-3.644.258-2.107-.032-3.831-.078-3.734-.252zM53.53 32.63c-.047-.14.722-.398 1.777-.496 1.055-.098 1.822-.129 1.868.012.047.14-.817.345-1.777.497-.96.151-1.821.128-1.868-.012z" fill="#263238"/></svg>
