<svg width="129" height="350" viewBox="0 0 129 350" fill="none" xmlns="http://www.w3.org/2000/svg"><path d="M76.78 304.526s-.147-.294-.294-.735c-.294-.589-.588-1.324-1.03-2.207-.882-1.912-2.06-4.854-2.942-8.678-1.912-7.797-2.647-19.565.294-33.539 1.324-7.061 3.53-14.563 6.179-22.506 2.647-7.943 5.736-16.475 8.237-25.742 2.5-9.12 4.413-19.123 4.119-29.567-.442-10.444-3.53-20.888-6.914-31.331-3.383-10.444-6.913-20.594-7.943-30.744-1.177-10.15 1.03-20.152 5.59-28.39 4.56-8.237 10.15-15.445 14.415-22.8 4.266-7.355 7.061-14.857 8.679-21.918 3.236-14.121 2.059-26.036.588-33.832-1.618-7.943-3.53-11.915-3.53-11.915s0 .294.147.735c.147.589.441 1.324.736 2.354.588 2.06 1.471 5.001 2.206 8.973 1.471 7.796 2.354 19.711-.882 33.685-1.766 6.914-4.413 14.416-8.68 21.624C91.49 75.2 85.9 82.26 81.194 90.646c-4.707 8.237-7.06 18.681-5.884 28.978 1.03 10.444 4.56 20.594 7.943 31.038 3.384 10.444 6.473 20.741 6.914 31.037.441 10.297-1.47 20.153-3.972 29.273-2.5 9.12-5.442 17.652-8.09 25.742-2.648 8.09-4.854 15.592-6.178 22.653-2.795 14.122-2.06 26.037.147 33.833 1.03 3.824 2.207 6.766 3.236 8.678.442.883.883 1.619 1.177 2.207.147.147.294.441.294.441z" fill="#263238"/><path d="M90.607 75.495s8.68-27.507-6.766-43.688c-.588-.588-1.471-.294-1.618.441-.883 4.707-1.912 18.535 8.384 43.247z" fill="#E8505B"/><path d="M85.459 41.074c-.147 0 .147 1.913.588 5.149.589 3.53 1.177 7.649 1.913 12.209.735 4.56 1.324 8.679 1.912 12.209.441 3.089.736 5.001.883 5.001.147 0 .147-1.912-.147-5.148-.295-3.09-.883-7.502-1.619-12.21-.735-4.706-1.618-8.972-2.206-12.061-.588-3.384-1.177-5.149-1.324-5.149z" fill="#263238"/><path d="M80.605 140.513s-5.296-28.39-26.478-35.451c-.735-.294-1.47.441-1.177 1.177 1.324 4.413 6.914 17.21 27.655 34.274z" fill="#E8505B"/><path d="M59.864 112.416c-.147.147 1.03 1.618 2.942 4.266 2.206 2.795 4.707 6.178 7.355 9.856a810.171 810.171 0 017.355 9.855c1.912 2.501 3.089 4.119 3.089 3.972.147-.147-.883-1.765-2.501-4.413-1.765-2.648-4.266-6.178-7.208-10.003-2.942-3.824-5.59-7.207-7.649-9.708-1.912-2.501-3.236-3.972-3.383-3.825z" fill="#263238"/><path d="M86.195 211.56s3.236-28.684-15.004-41.482c-.589-.441-1.472 0-1.472.736 0 4.707 1.619 18.387 16.476 40.746z" fill="#E8505B"/><path d="M74.574 178.757c-.147 0 .441 1.912 1.47 4.854 1.178 3.383 2.648 7.208 4.267 11.474 1.618 4.266 2.942 8.237 4.265 11.621 1.03 2.942 1.766 4.854 1.913 4.707.147 0-.294-1.913-1.177-5.002a122.533 122.533 0 00-3.972-11.62c-1.618-4.56-3.236-8.532-4.56-11.474-1.177-2.942-2.06-4.56-2.206-4.56z" fill="#263238"/><path d="M70.308 283.197s2.206-28.831-16.475-41.04c-.588-.441-1.471 0-1.471.883.147 4.56 2.353 18.387 17.946 40.157z" fill="#E8505B"/><path d="M57.51 250.689c-.147 0 .589 1.912 1.766 4.854 1.323 3.236 2.941 7.061 4.707 11.326 1.765 4.266 3.236 8.091 4.56 11.327 1.176 2.942 1.912 4.707 2.06 4.707.146 0-.295-1.912-1.325-5.001-1.03-2.942-2.5-7.061-4.266-11.474-1.765-4.413-3.53-8.385-5.001-11.326-1.47-2.648-2.354-4.413-2.5-4.413z" fill="#263238"/><path d="M102.964 51.37S128.559 37.986 129 15.774c0-.735-.883-1.324-1.471-.883-3.677 2.648-14.268 11.621-24.565 36.48z" fill="#E8505B"/><path d="M123.852 23.275c-.148-.147-1.324 1.471-3.237 3.972-2.059 2.942-4.56 6.178-7.207 10.002-2.648 3.678-5.149 7.061-7.208 10.003-1.912 2.5-3.089 4.119-2.942 4.266.147.147 1.471-1.324 3.53-3.678 2.06-2.353 4.707-5.883 7.502-9.708 2.795-3.972 5.296-7.502 6.914-10.15 1.765-2.942 2.648-4.56 2.648-4.707z" fill="#263238"/><path d="M75.603 110.504s26.331-11.768 28.243-33.98c0-.735-.735-1.324-1.471-.882-3.971 2.206-15.004 10.738-26.772 34.862z" fill="#E8505B"/><path d="M97.962 83.732c-.147-.147-1.47 1.324-3.383 3.825-2.206 2.795-4.854 5.884-7.796 9.561-2.942 3.531-5.59 6.767-7.796 9.414-2.06 2.354-3.236 3.972-3.09 3.972.148.147 1.619-1.177 3.678-3.53 2.207-2.354 5.001-5.59 8.09-9.267a151.29 151.29 0 007.502-9.709c1.913-2.5 2.942-4.119 2.795-4.266z" fill="#263238"/><path d="M90.754 176.404s18.093-22.506 9.562-43.099c-.294-.736-1.324-.883-1.765-.148-2.354 3.972-8.385 16.475-7.797 43.247z" fill="#E8505B"/><path d="M98.55 142.425c-.147 0-.588 1.912-1.323 5.001-.736 3.531-1.618 7.502-2.648 12.062s-1.912 8.532-2.648 12.062c-.735 3.09-1.177 5.002-1.03 5.002.148 0 .883-1.765 1.766-4.854.882-3.089 1.912-7.208 2.942-11.915 1.03-4.708 1.765-8.973 2.353-12.062.441-3.384.736-5.296.589-5.296z" fill="#263238"/><path d="M72.809 254.072s26.183-12.209 27.654-34.421c0-.736-.735-1.324-1.471-.883-3.972 2.354-14.857 10.886-26.183 35.304z" fill="#E8505B"/><path d="M94.726 227.006c-.147-.147-1.324 1.471-3.383 3.824-2.207 2.795-4.854 6.031-7.65 9.709-2.794 3.53-5.442 6.913-7.648 9.561-1.913 2.501-3.236 3.972-3.09 4.119.148.147 1.472-1.177 3.678-3.531 2.06-2.353 5.002-5.589 7.943-9.414 2.942-3.824 5.59-7.208 7.355-9.855 1.913-2.795 2.942-4.413 2.795-4.413zM20.736 140.66v2.5c.147 1.765.147 4.119.294 7.061.294 6.178.735 14.71 1.324 25.007 1.912 10.444 7.208 22.064 14.268 33.244 5.296 8.237 10.739 15.739 15.446 22.8 4.707 6.914 8.826 13.386 11.62 19.123a88.032 88.032 0 015.443 14.121c.441 1.765.736 3.089 1.03 3.972.147.882.294 1.324.441 1.324 0 0 0-.442-.147-1.471a55.962 55.962 0 00-.883-4.119c-.882-3.53-2.353-8.532-5.148-14.269-2.795-5.884-6.767-12.356-11.474-19.416-4.707-7.061-10.15-14.563-15.445-22.801-7.06-11.179-12.356-22.506-14.269-32.803-.735-10.296-1.323-18.828-1.765-25.006-.294-2.942-.441-5.296-.588-6.914-.147-.735-.147-1.324-.147-1.765.147-.441 0-.588 0-.588z" fill="#263238"/><path d="M36.328 206.265s-11.032-26.625 2.795-44.129c.441-.589 1.471-.442 1.618.294 1.324 4.413 3.678 18.093-4.413 43.835z" fill="#E8505B"/><path d="M38.388 171.403c-.148 0-.442 1.912-.883 5.001-.441 3.089-.883 7.502-1.177 12.209-.294 4.855-.441 9.12-.441 12.357 0 3.089.147 5.148.294 5.148s.294-1.912.442-5.148c.294-3.531.44-7.649.882-12.21.294-4.56.588-8.678.883-12.209 0-3.236.147-5.148 0-5.148z" fill="#263238"/><path opacity=".3" d="M36.328 206.265s-11.032-26.625 2.795-44.129c.441-.589 1.471-.442 1.618.294 1.324 4.413 3.678 18.093-4.413 43.835z" fill="#000"/><path d="M70.602 270.4s-8.826-27.508 6.472-43.688c.589-.589 1.471-.295 1.618.441.883 4.56 2.06 18.387-8.09 43.247z" fill="#E8505B"/><path d="M75.456 235.832c-.147 0-.588 1.912-1.324 5.001-.588 3.089-1.47 7.355-2.206 12.062-.736 4.707-1.177 9.12-1.471 12.209-.294 3.089-.294 5.149-.147 5.149s.441-1.913.882-5.002c.589-3.53 1.177-7.649 1.766-12.209.735-4.56 1.323-8.679 1.912-12.209.441-2.942.735-4.854.588-5.001z" fill="#263238"/><path opacity=".3" d="M70.602 270.4s-8.826-27.508 6.472-43.688c.589-.589 1.471-.295 1.618.441.883 4.56 2.06 18.387-8.09 43.247z" fill="#000"/><path d="M22.207 173.609s-23.683-16.474-21.182-38.686c.147-.736 1.03-1.177 1.618-.589 3.383 3.089 12.65 13.386 19.564 39.275z" fill="#E8505B"/><path opacity=".3" d="M22.207 173.609s-23.683-16.474-21.182-38.686c.147-.736 1.03-1.177 1.618-.589 3.383 3.089 12.65 13.386 19.564 39.275z" fill="#000"/><path d="M5.29 143.161c-.147 0 .589 1.912 1.913 4.707s3.236 6.766 5.59 11.032c2.353 4.266 4.56 7.943 6.178 10.738 1.765 2.648 2.942 4.266 2.942 4.119.147-.147-.883-1.765-2.354-4.56-1.765-3.089-3.678-6.767-5.884-10.738-2.207-3.972-4.119-7.649-5.884-10.886-1.47-2.794-2.353-4.412-2.5-4.412z" fill="#263238"/><path d="M61.04 243.187s-28.536-4.413-36.185-25.448c-.295-.735.44-1.471 1.176-1.324 4.56 1.324 17.358 6.62 35.01 26.772z" fill="#E8505B"/><path opacity=".3" d="M61.04 243.187s-28.536-4.413-36.185-25.448c-.295-.735.44-1.471 1.176-1.324 4.56 1.324 17.358 6.62 35.01 26.772z" fill="#000"/><path d="M32.357 223.329c-.147.147 1.324 1.471 3.824 3.383s5.884 4.56 9.856 7.355c3.971 2.795 7.502 5.148 10.297 6.914 2.647 1.618 4.413 2.5 4.56 2.353.147-.147-1.471-1.177-4.12-3.089-2.941-2.059-6.324-4.413-10.002-7.061-3.677-2.647-7.207-5.001-10.002-7.06-2.648-1.765-4.266-2.942-4.413-2.795z" fill="#263238"/><path d="M94.726 295.701l-8.09 53.543H53.98l-11.032-53.543h51.778z" fill="#455A64"/><path d="M47.802 316.294s.147.147.294.147c.147.147.441.294.883.441.735.442 2.06.883 3.677 1.03 1.618.294 3.678.147 6.031-.588 2.207-.736 4.707-2.207 6.472-4.707.883-1.324 1.471-2.795 1.471-4.413.148-1.618-.588-3.678-2.206-4.56-1.618-1.03-3.825-.589-5.443.441-1.618 1.03-2.647 2.942-3.089 4.854-.441 1.912-.588 3.972-.441 6.031.147 2.06.441 4.119 1.324 6.178a12.71 12.71 0 003.824 5.443c1.766 1.471 3.972 2.501 6.326 2.648 2.353.147 4.707-.736 6.472-1.913a17.404 17.404 0 004.854-4.412c1.324-1.766 2.354-3.678 2.5-5.884.148-2.06-.588-4.413-2.353-5.737-1.765-1.324-4.118-1.324-5.736-.294-1.766.882-3.09 2.5-3.384 4.413-.588 3.677 1.471 7.06 4.119 8.531 2.648 1.471 5.59 1.618 7.943 1.177 2.354-.441 4.119-1.324 5.59-2.206 1.47-.883 2.5-1.619 3.089-2.06.735-.588 1.03-.882 1.03-.882s-.442.294-1.177.735c-.736.441-1.765 1.177-3.236 1.912-1.471.736-3.236 1.618-5.59 2.06-2.206.441-5.001.294-7.502-1.177-2.353-1.324-4.266-4.56-3.677-7.796.294-1.618 1.47-3.089 2.942-3.825 1.47-.735 3.53-.882 4.854.294 1.324 1.177 2.06 3.089 1.912 5.002-.147 1.912-1.03 3.824-2.353 5.442-1.324 1.618-2.795 3.089-4.708 4.119-1.765 1.177-3.824 1.912-6.03 1.765-2.207-.147-4.12-1.029-5.737-2.353-1.618-1.324-2.795-3.089-3.53-5.002a21.216 21.216 0 01-1.325-5.884c-.147-2.059-.147-3.971.294-5.736.442-1.766 1.324-3.531 2.795-4.413 1.471-1.03 3.236-1.177 4.707-.442 1.324.736 1.913 2.501 1.913 3.972s-.589 2.942-1.324 4.119c-1.618 2.353-3.972 3.824-6.031 4.56-2.207.735-4.266.882-5.737.735-3.236-.735-4.707-1.912-4.707-1.765z" fill="#263238"/></svg>
