<svg width="174" height="318" viewBox="0 0 174 318" fill="none" xmlns="http://www.w3.org/2000/svg"><path d="M123 9.69c11.259 5.348 23.545 18.763 31.09 25 7.91 11.5 11.892 24.593 13.792 30.403 3.337 10.203 3.582 11.783 4.784 22.509.727 6.476.049 21.074 0 27.576-.07 9.487-3.998 21.874-7.036 30.953-3.038 9.079-6.949 17.21-11.54 23.918-4.416 6.453-10.439 10.298-16.856 14.977-5.156 3.758-11.145 5.665-17.2 7.378-4.19 1.186-32.843 5.812-35.276 0-8.632-11.662 19.327-22.355 35.276-22.355 9.663 0 19.476 1.648 26.614 5.188 8.053 3.993 16.671 12.757 18.982 21.826 3.753 14.726 4.492 30.507 1.689 43.616-4.027 18.828-16.254 31.099-32.024 41.895-7.96 5.45-13.814 10.123-22.298 14.664-8.211 4.396-19.214 8.256-28.24 10.849-16.705 4.8-59.012 10.256-83.373 8.129" stroke="#000" stroke-linecap="round" stroke-linejoin="round" stroke-dasharray="10 10 10 10 10 10"/><path d="M124.961 18.425L80.215 8.921l18.03 34.665 7.88-8.68 7.048 2.542 3.231-1.173 1.195-12.525 7.362-5.325z" fill="#59A6F5"/><path opacity=".5" d="M116.144 35.94L80.214 8.938l37.378 14.826-1.448 12.178z" fill="#000"/><path d="M80 8.499c-.048.065 5.47 5.868 12.354 12.984 6.886 7.115 12.512 12.842 12.56 12.776.049-.065-5.468-5.868-12.353-12.984C85.675 14.16 80.06 8.487 80 8.5z" fill="#263238"/><path d="M94.674 12.649c-.049.065 6.106 1.486 13.609 3.158 7.562 1.661 13.685 2.92 13.734 2.854.049-.066-6.106-1.487-13.609-3.159-7.562-1.66-13.684-2.919-13.734-2.854zM91.48 12.18c-.049.066.281.172.611.278.39.094.698.092.677-.017.05-.065-.28-.17-.61-.277-.39-.094-.699-.092-.678.017zM95.415 25.756c-.06.011.414.54 1.14 1.412.727.872 1.804 1.959 3.031 3.186a47.036 47.036 0 003.297 2.967c.884.73 1.456 1.127 1.515 1.116.06-.011-.473-.528-1.357-1.258-.824-.742-2.02-1.806-3.238-2.979-1.217-1.172-2.304-2.313-3.14-3.109-.726-.873-1.2-1.4-1.248-1.335z" fill="#fff"/></svg>
