<svg width="35" height="36" viewBox="0 0 35 36" xmlns="http://www.w3.org/2000/svg">
  <path d="M11.3477 23.1272H29.8733C30.3321 23.1272 30.7345 22.8239 30.8587 22.3833L34.9605 8.02754C35.0486 7.71806 34.9883 7.38561 34.7941 7.12846C34.5997 6.87211 34.2974 6.7207 33.9749 6.7207H8.98045L8.24745 3.42236C8.14331 2.95266 7.72675 2.61914 7.24609 2.61914H1.02539C0.458756 2.61914 0 3.0779 0 3.64453C0 4.21143 0.458756 4.66992 1.02539 4.66992H6.42311L10.126 21.3325C9.03652 21.8062 8.27148 22.8906 8.27148 24.1526C8.27148 25.8488 9.65149 27.2288 11.3477 27.2288H29.8733C30.4402 27.2288 30.8987 26.7703 30.8987 26.2034C30.8987 25.6368 30.4402 25.178 29.8733 25.178H11.3477C10.7829 25.178 10.3223 24.7184 10.3223 24.1526C10.3223 23.5868 10.7829 23.1272 11.3477 23.1272Z"/>
  <path d="M10.3221 30.3052C10.3221 32.0016 11.7021 33.3813 13.3986 33.3813C15.0947 33.3813 16.4748 32.0016 16.4748 30.3052C16.4748 28.609 15.0947 27.229 13.3986 27.229C11.7021 27.229 10.3221 28.609 10.3221 30.3052Z"/>
  <path d="M24.7463 30.3052C24.7463 32.0016 26.1263 33.3813 27.8224 33.3813C29.5189 33.3813 30.8986 32.0016 30.8986 30.3052C30.8986 28.609 29.5189 27.229 27.8224 27.229C26.1263 27.229 24.7463 28.609 24.7463 30.3052Z"/>
</svg>
