<svg width="31" height="31" viewBox="0 0 31 31" xmlns="http://www.w3.org/2000/svg">
  <g>
    <path d="M27.6047 27.874H19.3289V29.943H27.6047V27.874Z" fill="black"/>
    <path d="M30.7083 2.01221H0.708252V18.5639H30.7083V2.01221Z" fill="white"/>
    <path d="M26.5704 4.08105V6.15002H28.6394V14.4259H26.5704V16.4948H4.84631V14.4259H2.77734V6.15002H4.84631V4.08105H26.5704Z" fill="black"/>
    <path d="M15.7082 14.4258C13.4229 14.4258 11.5703 12.5731 11.5703 10.2878C11.5703 8.00253 13.4229 6.1499 15.7082 6.1499C17.9935 6.1499 19.8462 8.00253 19.8462 10.2878C19.8436 12.5721 17.9925 14.4232 15.7082 14.4258ZM15.7082 7.18439C13.9942 7.18439 12.6048 8.57382 12.6048 10.2878C12.6048 12.0018 13.9942 13.3913 15.7082 13.3913C17.4223 13.3913 18.8117 12.0018 18.8117 10.2878C18.81 8.57454 17.4215 7.18607 15.7082 7.18439Z" fill="white"/>
    <path d="M3.29425 3.56348H2.25977V4.59796H3.29425V3.56348Z" fill="white"/>
    <path d="M29.1563 3.56348H28.1218V4.59796H29.1563V3.56348Z" fill="white"/>
    <path d="M3.29425 15.9775H2.25977V17.012H3.29425V15.9775Z" fill="white"/>
    <path d="M27.3462 12.6153C26.632 12.6153 26.0531 13.1942 26.0531 13.9084V13.1325C26.0531 12.4183 25.4742 11.8394 24.76 11.8394C24.0458 11.8394 23.4669 12.4183 23.4669 13.1325V12.3566C23.4669 11.6425 22.888 11.0635 22.1738 11.0635C21.4596 11.0635 20.8807 11.6425 20.8807 12.3566V7.9601C20.8807 7.24591 20.3017 6.66699 19.5876 6.66699C18.8734 6.66699 18.2945 7.24591 18.2945 7.9601V15.9773C16.8662 15.9773 15.7083 17.1352 15.7083 18.5635V18.6153C15.7081 19.5435 16.2053 20.4006 17.0112 20.8611L18.5112 21.7166C19.0169 22.0068 19.3288 22.5452 19.3289 23.1282V24.2532H27.6048V22.1842C28.285 20.8236 28.6392 19.3234 28.6393 17.8022V13.9084C28.6393 13.1942 28.0604 12.6153 27.3462 12.6153Z" fill="white"/>
    <path d="M28.6393 24.2534H18.2944V28.3913H28.6393V24.2534Z" fill="white"/>
    <path d="M27.0877 25.8052H26.0532V26.8397H27.0877V25.8052Z" fill="white"/>
    <path d="M20.8808 14.9431C20.5951 14.9431 20.3635 14.7115 20.3635 14.4259V12.8742C20.3635 12.5885 20.5951 12.3569 20.8808 12.3569C21.1664 12.3569 21.398 12.5885 21.398 12.8742V14.4259C21.398 14.7115 21.1664 14.9431 20.8808 14.9431Z" fill="white"/>
    <path d="M18.2946 18.0465C18.0089 18.0465 17.7773 17.8149 17.7773 17.5293V16.4948C17.7773 16.2091 18.0089 15.9775 18.2946 15.9775C18.5802 15.9775 18.8118 16.2091 18.8118 16.4948V17.5293C18.8118 17.8149 18.5802 18.0465 18.2946 18.0465Z" fill="white"/>
    <path d="M23.4669 14.943C23.1813 14.943 22.9497 14.7114 22.9497 14.4257V13.3913C22.9497 13.1056 23.1813 12.874 23.4669 12.874C23.7526 12.874 23.9842 13.1056 23.9842 13.3913V14.4257C23.9842 14.7114 23.7526 14.943 23.4669 14.943Z" fill="white"/>
    <path d="M26.0531 14.9433C25.7675 14.9433 25.5359 14.7117 25.5359 14.4261V13.9088C25.5359 13.6232 25.7675 13.3916 26.0531 13.3916C26.3388 13.3916 26.5704 13.6232 26.5704 13.9088V14.4261C26.5704 14.7117 26.3388 14.9433 26.0531 14.9433Z" fill="white"/>
  </g>
</svg>
