<svg width="30" height="31" viewBox="0 0 30 31" xmlns="http://www.w3.org/2000/svg">
  <path d="M26.4844 30.918H3.51562C1.577 30.918 0 29.341 0 27.4023V4.43359C0 2.49496 1.577 0.917969 3.51562 0.917969H26.4844C28.423 0.917969 30 2.49496 30 4.43359V27.4023C30 29.341 28.423 30.918 26.4844 30.918ZM3.51562 3.26172C2.86949 3.26172 2.34375 3.78746 2.34375 4.43359V27.4023C2.34375 28.0485 2.86949 28.5742 3.51562 28.5742H26.4844C27.1305 28.5742 27.6562 28.0485 27.6562 27.4023V4.43359C27.6562 3.78746 27.1305 3.26172 26.4844 3.26172H3.51562ZM25.248 9.78577L23.5018 8.22205L12.664 20.3255L6.3739 14.3462L4.75914 16.0448L12.7993 23.688L25.248 9.78577Z"/>
</svg>
