<svg width="31" height="31" viewBox="0 0 31 31" xmlns="http://www.w3.org/2000/svg">
  <circle cx="15.6084" cy="15.9775" r="15" fill="black"/>
  <path d="M20.0792 8.95898H11.1379C9.71068 8.95898 8.54956 10.1201 8.54956 11.5473V20.4887C8.54956 21.9158 9.71068 23.0773 11.1379 23.0773H20.0792C21.5064 23.0773 22.6679 21.9162 22.6679 20.4887V11.5473C22.6679 10.1201 21.5067 8.95898 20.0792 8.95898ZM15.6085 20.6658C13.046 20.6658 10.961 18.5809 10.961 16.018C10.961 13.4554 13.046 11.3705 15.6085 11.3705C18.1714 11.3705 20.2564 13.4554 20.2564 16.018C20.2564 18.5805 18.1711 20.6658 15.6085 20.6658ZM20.4058 12.3314C19.7991 12.3314 19.3058 11.8381 19.3058 11.2318C19.3058 10.6255 19.7991 10.1321 20.4058 10.1321C21.0121 10.1321 21.5054 10.6255 21.5054 11.2318C21.5054 11.8381 21.0121 12.3314 20.4058 12.3314Z" fill="white"/>
  <path d="M15.6083 13.3345C14.129 13.3345 12.9244 14.5384 12.9244 16.0177C12.9244 17.4977 14.129 18.7019 15.6083 18.7019C17.0883 18.7019 18.2919 17.4977 18.2919 16.0177C18.2919 14.5387 17.088 13.3345 15.6083 13.3345Z" fill="white"/>
  <path d="M15.6084 0.977539C7.32446 0.977539 0.608398 7.6936 0.608398 15.9775C0.608398 24.2615 7.32446 30.9775 15.6084 30.9775C23.8923 30.9775 30.6084 24.2615 30.6084 15.9775C30.6084 7.6936 23.8923 0.977539 15.6084 0.977539ZM24.6313 20.4887C24.6313 22.9991 22.5895 25.0409 20.0791 25.0409H11.1377C8.62763 25.0409 6.58547 22.9991 6.58547 20.4887V11.5473C6.58547 9.03721 8.62763 6.99505 11.1377 6.99505H20.0791C22.5895 6.99505 24.6313 9.03721 24.6313 11.5473V20.4887Z" fill="white"/>
</svg>
