<svg width="31" height="31" viewBox="0 0 31 31" fill="none" xmlns="http://www.w3.org/2000/svg">
<g clip-path="url(#clip0)">
<path d="M30.4582 15.9785C30.4582 20.9309 26.4582 24.9785 21.4582 24.9785C16.5058 24.9785 12.4582 20.9309 12.4582 15.9785C12.4582 11.0261 16.4582 6.97852 21.4106 6.97852C26.4582 6.97852 30.4582 11.0261 30.4582 15.9785Z" fill="white"/>
<path d="M21.4582 6.97852C26.4106 6.97852 30.4582 11.0261 30.4582 15.9785C30.4582 20.9309 26.4582 24.9785 21.4582 24.9785C16.5058 24.9785 12.4582 20.9309 12.4582 15.9785" fill="white"/>
<path d="M21.4584 6.97852C26.4108 6.97852 30.4584 11.0261 30.4584 15.9785C30.4584 20.9309 26.4584 24.9785 21.4584 24.9785" fill="white"/>
<path d="M9.36301 6.97852C4.45825 7.02613 0.458252 11.0261 0.458252 15.9785C0.458252 20.9309 4.45825 24.9785 9.45825 24.9785C11.7916 24.9785 13.8868 24.0738 15.5059 22.6452C15.8392 22.3595 16.1249 22.0261 16.4106 21.6928H14.5535C14.3154 21.4071 14.0773 21.0738 13.8868 20.788H17.0773C17.2678 20.5023 17.4583 20.169 17.6011 19.8357H13.363C13.2202 19.5499 13.0773 19.2166 12.9821 18.8833H17.9344C18.2202 17.9785 18.4106 17.0261 18.4106 16.0261C18.4106 15.3595 18.3154 14.7404 18.2202 14.1214H12.6963C12.744 13.788 12.8392 13.5023 12.9344 13.169H17.8868C17.7916 12.8357 17.6487 12.5023 17.5059 12.2166H13.3154C13.4583 11.8833 13.6487 11.5976 13.8392 11.2642H17.0297C16.8392 10.9309 16.6011 10.5976 16.3154 10.3118H14.5535C14.8392 9.97852 15.1249 9.6928 15.4583 9.40709C13.8868 7.9309 11.744 7.07375 9.41063 7.07375C9.41063 6.97852 9.41063 6.97852 9.36301 6.97852Z" fill="white"/>
<path d="M0.458252 15.9809C0.458252 20.9333 4.45825 24.9809 9.45825 24.9809C11.7916 24.9809 13.8868 24.0762 15.5059 22.6476C15.8392 22.3619 16.1249 22.0286 16.4106 21.6952H14.5535C14.3154 21.4095 14.0773 21.0762 13.8868 20.7905H17.0773C17.2678 20.5047 17.4583 20.1714 17.6011 19.8381H13.363C13.2202 19.5524 13.0773 19.219 12.9821 18.8857H17.9344C18.2202 17.9809 18.4106 17.0286 18.4106 16.0286C18.4106 15.3619 18.3154 14.7428 18.2202 14.1238H12.6963C12.744 13.7905 12.8392 13.5047 12.9344 13.1714H17.8868C17.7916 12.8381 17.6487 12.5047 17.5059 12.219H13.3154C13.4583 11.8857 13.6487 11.6 13.8392 11.2666H17.0297C16.8392 10.9333 16.6011 10.6 16.3154 10.3143H14.5535C14.8392 9.98093 15.1249 9.69522 15.4583 9.40951C13.8868 7.93331 11.744 7.07617 9.41063 7.07617H9.36301" fill="white"/>
<path d="M9.45815 24.9809C11.7915 24.9809 13.8867 24.0762 15.5058 22.6476C15.8391 22.3619 16.1248 22.0286 16.4105 21.6952H14.5534C14.3153 21.4095 14.0772 21.0762 13.8867 20.7905H17.0772C17.2677 20.5047 17.4582 20.1714 17.601 19.8381H13.3629C13.2201 19.5524 13.0772 19.219 12.982 18.8857H17.9343C18.2201 17.9809 18.4105 17.0286 18.4105 16.0286C18.4105 15.3619 18.3153 14.7428 18.2201 14.1238H12.6962C12.7439 13.7905 12.8391 13.5047 12.9343 13.1714H17.8867C17.7915 12.8381 17.6486 12.5047 17.5058 12.219H13.3153C13.4582 11.8857 13.6486 11.6 13.8391 11.2666H17.0296C16.8391 10.9333 16.601 10.6 16.3153 10.3143H14.5534C14.8391 9.98093 15.1248 9.69522 15.4582 9.40951C13.8867 7.93331 11.7439 7.07617 9.41053 7.07617H9.36292" fill="white"/>
<path d="M12.6487 18.2637L12.7915 17.4542C12.7439 17.4542 12.6487 17.5018 12.5534 17.5018C12.2201 17.5018 12.1725 17.3113 12.2201 17.2161L12.5058 15.5494H13.0296L13.1725 14.6447H12.6963L12.7915 14.0732H11.8391C11.8391 14.0732 11.2677 17.2161 11.2677 17.5971C11.2677 18.1685 11.601 18.4066 12.0296 18.4066C12.3153 18.4066 12.5534 18.3113 12.6487 18.2637Z" fill="black"/>
<path d="M12.9822 16.7396C12.9822 18.0729 13.8869 18.4062 14.6488 18.4062C15.3631 18.4062 15.6488 18.2634 15.6488 18.2634L15.8393 17.3586C15.8393 17.3586 15.3155 17.5967 14.8393 17.5967C13.7917 17.5967 13.9822 16.8349 13.9822 16.8349H15.9346C15.9346 16.8349 16.0774 16.2158 16.0774 15.9777C16.0774 15.3587 15.7441 14.5968 14.6965 14.5968C13.6965 14.5016 12.9822 15.5492 12.9822 16.7396ZM14.6488 15.3587C15.1727 15.3587 15.0774 15.9777 15.0774 16.0254H14.0298C14.0298 15.9777 14.125 15.3587 14.6488 15.3587Z" fill="black"/>
<path d="M20.6964 18.2673L20.8869 17.2198C20.8869 17.2198 20.4107 17.4578 20.0773 17.4578C19.4107 17.4578 19.125 16.934 19.125 16.3626C19.125 15.2198 19.6964 14.6008 20.363 14.6008C20.8392 14.6008 21.2202 14.8865 21.2202 14.8865L21.363 13.8865C21.363 13.8865 20.7916 13.6484 20.2678 13.6484C19.1726 13.6484 18.0773 14.6008 18.0773 16.4103C18.0773 17.6007 18.6488 18.4102 19.7916 18.4102C20.1726 18.4102 20.6964 18.2673 20.6964 18.2673Z" fill="black"/>
<path d="M7.41072 14.5078C6.74405 14.5078 6.26786 14.6983 6.26786 14.6983L6.125 15.5079C6.125 15.5079 6.55358 15.3174 7.17262 15.3174C7.50595 15.3174 7.79167 15.365 7.79167 15.6507C7.79167 15.8412 7.74405 15.8888 7.74405 15.8888C7.74405 15.8888 7.45833 15.8888 7.31548 15.8888C6.50596 15.8888 5.6012 16.2222 5.6012 17.3174C5.6012 18.1746 6.17262 18.3651 6.50596 18.3651C7.17262 18.3651 7.45833 17.9365 7.50595 17.9365L7.45833 18.3175H8.31548L8.69643 15.6983C8.69643 14.5554 7.74405 14.5078 7.41072 14.5078ZM7.60119 16.6508C7.60119 16.7936 7.50595 17.5556 6.93453 17.5556C6.64881 17.5556 6.55357 17.3174 6.55357 17.1746C6.55357 16.9365 6.69643 16.6031 7.41072 16.6031C7.55357 16.6508 7.60119 16.6508 7.60119 16.6508Z" fill="black"/>
<path d="M9.6014 18.3637C9.8395 18.3637 11.03 18.4114 11.03 17.1257C11.03 15.9352 9.88712 16.1733 9.88712 15.6971C9.88712 15.459 10.0776 15.3637 10.4109 15.3637C10.5538 15.3637 11.0776 15.4114 11.0776 15.4114L11.2205 14.5542C11.2205 14.5542 10.8871 14.459 10.3157 14.459C9.6014 14.459 8.88712 14.7447 8.88712 15.6971C8.88712 16.7923 10.0776 16.6971 10.0776 17.1257C10.0776 17.4114 9.74426 17.459 9.50617 17.459C9.07759 17.459 8.64902 17.3161 8.64902 17.3161L8.50616 18.1733C8.55378 18.2685 8.79188 18.3637 9.6014 18.3637Z" fill="black"/>
<path d="M28.6014 13.7412L28.411 15.0269C28.411 15.0269 28.03 14.5507 27.5062 14.5507C26.649 14.5507 25.8871 15.5984 25.8871 16.8365C25.8871 17.5984 26.2681 18.4079 27.0776 18.4079C27.6491 18.4079 27.9824 18.0269 27.9824 18.0269L27.9348 18.3603H28.8871L29.6014 13.7888L28.6014 13.7412ZM28.1729 16.265C28.1729 16.7888 27.9348 17.4555 27.411 17.4555C27.0776 17.4555 26.8871 17.1698 26.8871 16.6936C26.8871 15.9317 27.2205 15.4555 27.649 15.4555C27.9824 15.4555 28.1729 15.6936 28.1729 16.265Z" fill="black"/>
<path d="M2.22025 18.3126L2.79168 14.8841L2.88692 18.3126H3.55359L4.79168 14.8841L4.26787 18.3126H5.26787L6.02978 13.7412H4.45835L3.50597 16.5507L3.45835 13.7412H2.0774L1.31549 18.3126H2.22025Z" fill="black"/>
<path d="M16.9821 18.315C17.2678 16.7435 17.3154 15.4578 17.9821 15.6959C18.0773 15.0768 18.2202 14.8387 18.3154 14.6006C18.3154 14.6006 18.2678 14.6006 18.1249 14.6006C17.6964 14.6006 17.363 15.172 17.363 15.172L17.4583 14.6482H16.5535L15.9344 18.3626H16.9821V18.315Z" fill="black"/>
<path d="M22.8869 14.5078C22.2203 14.5078 21.7441 14.6983 21.7441 14.6983L21.6012 15.5079C21.6012 15.5079 22.0298 15.3174 22.6488 15.3174C22.9822 15.3174 23.2679 15.365 23.2679 15.6507C23.2679 15.8412 23.2203 15.8888 23.2203 15.8888C23.2203 15.8888 22.9345 15.8888 22.7917 15.8888C21.9822 15.8888 21.0774 16.2222 21.0774 17.3174C21.0774 18.1746 21.6488 18.3651 21.9822 18.3651C22.6488 18.3651 22.9345 17.9365 22.9822 17.9365L22.9345 18.3175H23.7917L24.1726 15.6983C24.2203 14.5554 23.2203 14.5078 22.8869 14.5078ZM23.125 16.6508C23.125 16.7936 23.0298 17.5556 22.4583 17.5556C22.1726 17.5556 22.0774 17.3174 22.0774 17.1746C22.0774 16.9365 22.2203 16.6031 22.9345 16.6031C23.0774 16.6508 23.0774 16.6508 23.125 16.6508Z" fill="black"/>
<path d="M24.9821 18.315C25.2678 16.7435 25.3155 15.4578 25.9821 15.6959C26.0774 15.0768 26.2202 14.8387 26.3155 14.6006C26.3155 14.6006 26.2678 14.6006 26.125 14.6006C25.6964 14.6006 25.3631 15.172 25.3631 15.172L25.4583 14.6482H24.5536L23.9345 18.3626H24.9821V18.315Z" fill="black"/>
<path d="M11.1725 17.5971C11.1725 18.1685 11.5059 18.4066 11.9345 18.4066C12.2678 18.4066 12.5535 18.3113 12.6487 18.2637L12.7916 17.4542C12.744 17.4542 12.6487 17.5018 12.5535 17.5018C12.2202 17.5018 12.1725 17.3113 12.2202 17.2161L12.5059 15.5494H13.0297L13.1725 14.6447H12.6964L12.7916 14.0732" fill="black"/>
<path d="M13.4584 16.7396C13.4584 18.0729 13.8869 18.4062 14.6488 18.4062C15.3631 18.4062 15.6488 18.2634 15.6488 18.2634L15.8393 17.3586C15.8393 17.3586 15.3155 17.5967 14.8393 17.5967C13.7917 17.5967 13.9822 16.8349 13.9822 16.8349H15.9346C15.9346 16.8349 16.0774 16.2158 16.0774 15.9777C16.0774 15.3587 15.7441 14.5968 14.6965 14.5968C13.6965 14.5016 13.4584 15.5492 13.4584 16.7396ZM14.6488 15.3587C15.1727 15.3587 15.2679 15.9777 15.2679 16.0254H14.0298C14.0298 15.9777 14.125 15.3587 14.6488 15.3587Z" fill="black"/>
<path d="M20.6964 18.2673L20.8869 17.2198C20.8869 17.2198 20.4107 17.4578 20.0773 17.4578C19.4107 17.4578 19.125 16.934 19.125 16.3626C19.125 15.2198 19.6964 14.6008 20.3631 14.6008C20.8392 14.6008 21.2202 14.8865 21.2202 14.8865L21.3631 13.8865C21.3631 13.8865 20.7916 13.6484 20.2678 13.6484C19.1726 13.6484 18.5535 14.6008 18.5535 16.4103C18.5535 17.6007 18.6488 18.4102 19.7916 18.4102C20.1726 18.4102 20.6964 18.2673 20.6964 18.2673Z" fill="black"/>
<path d="M6.125 15.5529C6.125 15.5529 6.55358 15.3625 7.17262 15.3625C7.50595 15.3625 7.79167 15.4101 7.79167 15.6958C7.79167 15.8862 7.74405 15.9339 7.74405 15.9339C7.74405 15.9339 7.45833 15.9339 7.31548 15.9339C6.50596 15.9339 5.6012 16.2672 5.6012 17.3624C5.6012 18.2195 6.17262 18.41 6.50596 18.41C7.17262 18.41 7.45833 17.9814 7.50595 17.9814L7.45833 18.3623H8.31548L8.69643 15.7434C8.69643 14.6482 7.74405 14.6006 7.3631 14.6006L6.125 15.5529ZM8.07738 16.6481C8.07738 16.791 7.50595 17.5528 6.93453 17.5528C6.64881 17.5528 6.55357 17.3148 6.55357 17.1719C6.55357 16.9338 6.69643 16.6005 7.41072 16.6005C7.55357 16.6481 8.07738 16.6481 8.07738 16.6481Z" fill="black"/>
<path d="M8.55347 18.2685C8.55347 18.2685 8.83918 18.3637 9.6487 18.3637C9.8868 18.3637 11.0773 18.4114 11.0773 17.1257C11.0773 15.9352 9.93442 16.1733 9.93442 15.6971C9.93442 15.459 10.1249 15.3637 10.4582 15.3637C10.6011 15.3637 11.1249 15.4114 11.1249 15.4114L11.2678 14.5542C11.2678 14.5542 10.9344 14.459 10.363 14.459C9.6487 14.459 9.41061 14.7447 9.41061 15.6971C9.41061 16.7923 10.1249 16.6971 10.1249 17.1257C10.1249 17.4114 9.79156 17.459 9.55347 17.459" fill="black"/>
<path d="M28.4105 15.0281C28.4105 15.0281 28.0296 14.5519 27.5057 14.5519C26.6486 14.5519 26.3629 15.5995 26.3629 16.8376C26.3629 17.5994 26.2677 18.4089 27.0772 18.4089C27.6486 18.4089 27.9819 18.028 27.9819 18.028L27.9343 18.3613H28.8867L29.601 13.79L28.4105 15.0281ZM28.3629 16.2661C28.3629 16.7899 27.9343 17.4566 27.4105 17.4566C27.0772 17.4566 26.8867 17.1709 26.8867 16.6947C26.8867 15.9328 27.22 15.4567 27.6486 15.4567C27.9819 15.4567 28.3629 15.6947 28.3629 16.2661Z" fill="black"/>
<path d="M2.22025 18.3126L2.79168 14.8841L2.88692 18.3126H3.55359L4.79168 14.8841L4.26787 18.3126H5.26787L6.02978 13.7412H4.8393L3.50597 16.5507L3.45835 13.7412H2.93454L1.31549 18.3126H2.22025Z" fill="black"/>
<path d="M15.9822 18.315H16.9822C17.268 16.7435 17.3156 15.4578 17.9822 15.6959C18.0775 15.0768 18.2203 14.8387 18.3156 14.6006C18.3156 14.6006 18.268 14.6006 18.1251 14.6006C17.6965 14.6006 17.3632 15.172 17.3632 15.172L17.4584 14.6482" fill="black"/>
<path d="M21.6012 15.5529C21.6012 15.5529 22.0298 15.3625 22.6488 15.3625C22.9822 15.3625 23.2679 15.4101 23.2679 15.6958C23.2679 15.8862 23.2202 15.9339 23.2202 15.9339C23.2202 15.9339 22.9345 15.9339 22.7917 15.9339C21.9822 15.9339 21.0774 16.2672 21.0774 17.3624C21.0774 18.2195 21.6488 18.41 21.9822 18.41C22.6488 18.41 22.9345 17.9814 22.9822 17.9814L22.9345 18.3623H23.7917L24.1726 15.7434C24.1726 14.6482 23.2202 14.6006 22.8393 14.6006L21.6012 15.5529ZM23.5536 16.6481C23.5536 16.791 22.9822 17.5528 22.4107 17.5528C22.125 17.5528 22.0298 17.3148 22.0298 17.1719C22.0298 16.9338 22.1726 16.6005 22.8869 16.6005C23.0774 16.6481 23.5536 16.6481 23.5536 16.6481Z" fill="black"/>
<path d="M23.9824 18.315H24.9824C25.2681 16.7435 25.3157 15.4578 25.9824 15.6959C26.0776 15.0768 26.2205 14.8387 26.3157 14.6006C26.3157 14.6006 26.2681 14.6006 26.1252 14.6006C25.6966 14.6006 25.3633 15.172 25.3633 15.172L25.4586 14.6482" fill="black"/>
</g>
<defs>
<clipPath id="clip0">
<rect width="30" height="30" fill="white" transform="translate(0.458252 0.977539)"/>
</clipPath>
</defs>
</svg>
