<svg width="20" height="20" viewBox="0 0 20 20" xmlns="http://www.w3.org/2000/svg">
  <path d="M15.9209 3.4249C14.7071 1.33021 12.5511 0.0504883 10.1537 0.00158203C10.0513 -0.000527344 9.94832 -0.000527344 9.84593 0.00158203C7.44851 0.0504883 5.29257 1.33021 4.07875 3.4249C2.83804 5.566 2.8041 8.13787 3.98793 10.3047L8.94742 19.3823C8.94965 19.3863 8.95187 19.3904 8.95418 19.3944C9.17238 19.7736 9.56328 20 9.99988 20C10.4364 20 10.8273 19.7736 11.0455 19.3944C11.0478 19.3904 11.05 19.3863 11.0523 19.3823L16.0118 10.3047C17.1955 8.13787 17.1616 5.566 15.9209 3.4249ZM9.9998 9.06252C8.44898 9.06252 7.1873 7.80084 7.1873 6.25002C7.1873 4.6992 8.44898 3.43752 9.9998 3.43752C11.5506 3.43752 12.8123 4.6992 12.8123 6.25002C12.8123 7.80084 11.5507 9.06252 9.9998 9.06252Z"/>
</svg>
