<svg width="31" height="31" viewBox="0 0 31 31" xmlns="http://www.w3.org/2000/svg">
  <g>
    <path d="M11.0835 20.2872L12.6073 11.7158H14.9883L13.5121 20.2872H11.0835Z" fill="white"/>
    <path d="M11.0835 20.2872L13.0359 11.7158H14.9883L13.5121 20.2872H11.0835Z" fill="white"/>
    <path d="M22.1309 11.8106C21.6547 11.6202 20.8928 11.4297 19.9405 11.4297C17.5595 11.4297 15.8452 12.6202 15.8452 14.3344C15.8452 15.6202 17.0357 16.2868 17.9881 16.7154C18.9405 17.144 19.2262 17.4297 19.2262 17.8106C19.2262 18.3821 18.4643 18.6678 17.7976 18.6678C16.8452 18.6678 16.3214 18.5249 15.5119 18.1916L15.1785 18.0487L14.8452 20.0011C15.4166 20.2392 16.4643 20.4773 17.5595 20.4773C20.0833 20.4773 21.75 19.2868 21.75 17.4773C21.75 16.4773 21.1309 15.7154 19.7024 15.0964C18.8452 14.6678 18.3214 14.4297 18.3214 14.0011C18.3214 13.6202 18.75 13.2392 19.7024 13.2392C20.5119 13.2392 21.0833 13.3821 21.5119 13.5725L21.75 13.6678L22.1309 11.8106Z" fill="white"/>
    <path d="M22.1309 11.8106C21.6547 11.6202 20.8928 11.4297 19.9405 11.4297C17.5595 11.4297 16.2738 12.6202 16.2738 14.3344C16.2738 15.6202 17.0357 16.2868 17.9881 16.7154C18.9405 17.144 19.2262 17.4297 19.2262 17.8106C19.2262 18.3821 18.4643 18.6678 17.7976 18.6678C16.8452 18.6678 16.3214 18.5249 15.5119 18.1916L15.1785 18.0487L14.8452 20.0011C15.4166 20.2392 16.4643 20.4773 17.5595 20.4773C20.0833 20.4773 21.75 19.2868 21.75 17.4773C21.75 16.4773 21.1309 15.7154 19.7024 15.0964C18.8452 14.6678 18.3214 14.4297 18.3214 14.0011C18.3214 13.6202 18.75 13.2392 19.7024 13.2392C20.5119 13.2392 21.0833 13.3821 21.5119 13.5725L21.75 13.6678L22.1309 11.8106Z" fill="white"/>
    <path d="M26.2262 11.7158C25.6548 11.7158 25.2262 11.7634 24.9881 12.3349L21.4167 20.2872H23.9881L24.4643 18.8587H27.5119L27.7976 20.2872H30.0834L28.0834 11.7158H26.2262ZM25.131 17.4301C25.2738 17.0015 26.0834 14.9063 26.0834 14.9063C26.0834 14.9063 26.2738 14.3825 26.4167 14.0492L26.5595 14.8587C26.5595 14.8587 27.0357 17.0015 27.131 17.4777H25.131V17.4301Z" fill="white"/>
    <path d="M26.7976 11.7158C26.2262 11.7158 25.7976 11.7634 25.5595 12.3349L21.4167 20.2872H23.9881L24.4643 18.8587H27.5119L27.7976 20.2872H30.0834L28.0834 11.7158H26.7976ZM25.131 17.4301C25.3214 16.9539 26.0834 14.9063 26.0834 14.9063C26.0834 14.9063 26.2738 14.3825 26.4167 14.0492L26.5595 14.8587C26.5595 14.8587 27.0357 17.0015 27.131 17.4777H25.131V17.4301Z" fill="white"/>
    <path d="M6.70217 17.7156L6.46407 16.4775C6.0355 15.0489 4.65455 13.4775 3.13074 12.7156L5.27359 20.3346H7.84502L11.7022 11.7632H9.13074L6.70217 17.7156Z" fill="white"/>
    <path d="M6.70217 17.7156L6.46407 16.4775C6.0355 15.0489 4.65455 13.4775 3.13074 12.7156L5.27359 20.3346H7.84502L11.7022 11.7632H9.60693L6.70217 17.7156Z" fill="white"/>
    <path d="M0.083252 11.7158L0.511823 11.8111C3.55944 12.5253 5.65468 14.3349 6.4642 16.4777L5.60706 12.4301C5.4642 11.8587 5.03563 11.7158 4.51182 11.7158H0.083252Z" fill="white"/>
    <path d="M0.083252 11.7158C3.13087 12.4301 5.65468 14.2872 6.4642 16.4301L5.65468 13.0492C5.51182 12.4777 5.03563 12.1444 4.51182 12.1444L0.083252 11.7158Z" fill="white"/>
    <path d="M0.083252 11.7158C3.13087 12.4301 5.65468 14.2872 6.4642 16.4301L5.89278 14.573C5.74992 14.0015 5.55944 13.4301 4.89278 13.192L0.083252 11.7158Z" fill="white"/>
    <path d="M9.08323 17.4299L7.46418 15.8108L6.70228 17.6203L6.5118 16.4299C6.08323 15.0013 4.70228 13.4299 3.17847 12.668L5.32132 20.287H7.89275L9.08323 17.4299Z" fill="white"/>
    <path d="M13.5119 20.2871L11.4643 18.1919L11.0834 20.2871H13.5119Z" fill="white"/>
    <path d="M18.988 17.335C19.1784 17.5254 19.2737 17.6683 19.226 17.8588C19.226 18.4302 18.4641 18.7159 17.7975 18.7159C16.8451 18.7159 16.3213 18.5731 15.5118 18.2397L15.1784 18.0969L14.8451 20.0492C15.4165 20.2873 16.4641 20.5254 17.5594 20.5254C19.0832 20.5254 20.3213 20.0969 21.0356 19.335L18.988 17.335Z" fill="white"/>
    <path d="M21.7499 20.2869H23.988L24.4642 18.8584H27.5118L27.7975 20.2869H30.0832L29.2737 16.8107L26.4165 14.0488L26.5594 14.8107C26.5594 14.8107 27.0356 16.9536 27.1308 17.4298H25.1308C25.3213 16.9536 26.0832 14.906 26.0832 14.906C26.0832 14.906 26.2737 14.3822 26.4165 14.0488" fill="white"/>
  </g>
</svg>
