<svg width="31" height="31" viewBox="0 0 31 31" xmlns="http://www.w3.org/2000/svg">
  <path fill-rule="evenodd" clip-rule="evenodd" d="M14.6418 22.5565H15.8191C15.8191 22.5565 16.1748 22.5175 16.3563 22.3217C16.5234 22.142 16.5181 21.8046 16.5181 21.8046C16.5181 21.8046 16.4951 20.2249 17.2283 19.9922C17.951 19.7631 18.8791 21.519 19.8629 22.1942C20.6067 22.7052 21.172 22.5931 21.172 22.5931L23.8023 22.5565C23.8023 22.5565 25.1783 22.4717 24.5259 21.3899C24.4724 21.3014 24.1459 20.5896 22.5702 19.127C20.9209 17.5962 21.1418 17.8438 23.1285 15.1958C24.3384 13.5832 24.8221 12.5987 24.671 12.177C24.5269 11.7754 23.6371 11.8815 23.6371 11.8815L20.6755 11.9C20.6755 11.9 20.4559 11.87 20.2931 11.9674C20.134 12.0628 20.0316 12.2853 20.0316 12.2853C20.0316 12.2853 19.5628 13.5332 18.9377 14.5945C17.6189 16.8338 17.0916 16.952 16.8761 16.813C16.3748 16.4889 16.4999 15.5111 16.4999 14.8164C16.4999 12.6463 16.8291 11.7414 15.859 11.5072C15.537 11.4294 15.3001 11.378 14.4768 11.3697C13.4201 11.3588 12.5257 11.3729 12.0193 11.6211C11.6824 11.7861 11.4224 12.1537 11.5807 12.1748C11.7765 12.2011 12.2198 12.2944 12.4548 12.6144C12.7583 13.0273 12.7476 13.9546 12.7476 13.9546C12.7476 13.9546 12.922 16.5092 12.3404 16.8266C11.9412 17.0443 11.3936 16.5999 10.2179 14.5682C9.61543 13.5276 9.1606 12.3773 9.1606 12.3773C9.1606 12.3773 9.0729 12.1623 8.91648 12.0473C8.72663 11.908 8.46138 11.8636 8.46138 11.8636L5.64711 11.8821C5.64711 11.8821 5.22463 11.8938 5.06955 12.0775C4.93157 12.2409 5.05858 12.5789 5.05858 12.5789C5.05858 12.5789 7.26187 17.7336 9.75661 20.3313C12.0441 22.7129 14.6418 22.5565 14.6418 22.5565Z"/>
</svg>
