<svg width="31" height="31" viewBox="0 0 31 31" xmlns="http://www.w3.org/2000/svg">
  <path d="M14.6465 13.1661C15.1209 13.1661 15.4922 13.0151 15.7641 12.8005C16.0341 12.5849 16.1691 12.2915 16.1691 11.9146V9.64018C16.1691 9.30549 16.0313 9.02889 15.7566 8.81613C15.4799 8.60327 15.1265 8.49741 14.6934 8.49741C14.22 8.49741 13.8412 8.59771 13.5609 8.79925C13.2797 9.0017 13.139 9.27172 13.139 9.61392V11.8957C13.139 12.2707 13.2759 12.567 13.5496 12.7892C13.8233 13.0114 14.19 13.1661 14.6465 13.1661ZM14.1507 9.72462C14.1507 9.63833 14.1957 9.56902 14.2848 9.51372C14.3748 9.46027 14.491 9.43401 14.6336 9.43401C14.7892 9.43401 14.9148 9.46027 15.0095 9.51372C15.1052 9.56902 15.1521 9.63843 15.1521 9.72462V11.8865C15.1521 11.9934 15.1052 12.0777 15.0114 12.1387C14.9177 12.1987 14.792 12.2296 14.6336 12.2296C14.4789 12.2296 14.3589 12.2006 14.2754 12.1396C14.1929 12.0805 14.1507 11.9962 14.1507 11.8865V9.72462ZM17.7854 13.1633C17.9522 13.1633 18.1219 13.0677 18.2982 12.9721C18.4764 12.8746 18.646 12.732 18.8092 12.5465V13.0518H19.6951V8.49082H18.8092V11.953C18.7267 12.0515 18.6348 12.133 18.5364 12.1977C18.4361 12.2614 18.3536 12.2943 18.2889 12.2943C18.2055 12.2943 18.1446 12.2708 18.1089 12.2212C18.0714 12.1734 18.0508 12.0955 18.0508 11.9886V8.49175H17.1668V12.3027C17.1668 12.5746 17.2202 12.7781 17.3224 12.9131C17.4263 13.0489 17.58 13.1633 17.7854 13.1633ZM20.3616 15.0487H9.6553C7.95284 15.0487 6.57373 16.3753 6.57373 18.0094V20.5125C6.57373 22.1475 7.95284 23.4741 9.6553 23.4741H20.3615C22.063 23.4741 23.4431 22.1475 23.4431 20.5125V18.0094C23.4432 16.3752 22.0631 15.0487 20.3616 15.0487ZM11.2481 17.5893H10.3013V21.5099H9.38539V17.5893H8.43849V16.9209H11.2482C11.2481 16.9209 11.2481 17.5893 11.2481 17.5893ZM14.0738 21.5643H13.0866V21.1574C12.9029 21.3075 12.7144 21.4227 12.5157 21.4997C12.3197 21.5803 12.1285 21.6187 11.9429 21.6187C11.7142 21.6187 11.5435 21.5634 11.4273 21.4519C11.3129 21.3422 11.2539 21.1772 11.2539 20.9568V17.8613H12.241V20.7009C12.241 20.7891 12.2616 20.851 12.3011 20.8903C12.3442 20.9306 12.4126 20.9484 12.5045 20.9484C12.5758 20.9484 12.6695 20.9231 12.7801 20.8705C12.8917 20.819 12.9939 20.7534 13.0867 20.6718V17.8602H14.0739C14.0738 17.8602 14.0738 21.5643 14.0738 21.5643ZM17.8106 20.8593C17.8106 21.1021 17.7337 21.2868 17.5809 21.4172C17.43 21.5474 17.2069 21.6112 16.9191 21.6112C16.7269 21.6112 16.5563 21.5868 16.4081 21.5371C16.2591 21.4875 16.1184 21.4106 15.9909 21.3046V21.5671H15.0056V16.9209H15.9909V18.4181C16.1241 18.315 16.2637 18.2344 16.409 18.18C16.558 18.1247 16.7081 18.0984 16.8591 18.0984C17.1675 18.0984 17.4028 18.1706 17.565 18.3159C17.729 18.4622 17.8106 18.6769 17.8106 18.9572C17.8106 18.9571 17.8106 20.8593 17.8106 20.8593ZM21.5663 19.814H19.7475V20.4833C19.7475 20.6699 19.7775 20.7993 19.8403 20.8724C19.9041 20.9446 20.0119 20.9802 20.1629 20.9802C20.3223 20.9802 20.431 20.9493 20.4948 20.8884C20.5567 20.8265 20.5904 20.6924 20.5904 20.4824V20.3211H21.5682V20.503C21.5682 20.8667 21.451 21.1406 21.2091 21.3252C20.971 21.5089 20.6147 21.6008 20.1413 21.6008C19.7148 21.6008 19.3792 21.5033 19.1345 21.3083C18.8907 21.1152 18.767 20.8452 18.767 20.5039V18.9083C18.767 18.6017 18.902 18.3486 19.172 18.1546C19.4411 17.9615 19.7861 17.8649 20.2126 17.8649C20.6476 17.8649 20.9823 17.9549 21.2167 18.134C21.4501 18.313 21.5664 18.5717 21.5664 18.9074C21.5663 18.9074 21.5663 19.814 21.5663 19.814ZM10.7175 13.1765H11.836V10.4511L13.1382 6.60742H12.001L11.3091 9.23434H11.2378L10.5122 6.60742H9.38436L10.7174 10.574C10.7175 10.574 10.7175 13.1765 10.7175 13.1765ZM16.3987 18.6421L16.1915 18.6758L15.99 18.78V20.9155C16.0688 20.9708 16.1465 21.0131 16.2216 21.0364L16.4569 21.073C16.5769 21.073 16.6641 21.0495 16.7203 20.9999C16.7756 20.9521 16.8047 20.8733 16.8047 20.7655V18.9946C16.8047 18.8774 16.7718 18.7901 16.7025 18.7311C16.6313 18.6721 16.531 18.6421 16.3987 18.6421Z"/>
  <path d="M20.2153 18.4863C20.0634 18.4863 19.9556 18.5183 19.889 18.5838C19.8234 18.6467 19.7915 18.7536 19.7915 18.9026V19.2607H20.6324V18.9026C20.6324 18.7536 20.5977 18.6476 20.5321 18.5838C20.4674 18.5183 20.3596 18.4863 20.2153 18.4863Z"/>
</svg>
