<svg width="91" height="241" fill="none" xmlns="http://www.w3.org/2000/svg"><path d="M77.515 54.679L58.39 35.342v-6.995h.4c.57 0 1.141-.398 1.255-.967.114-.74-.456-1.422-1.199-1.422h-.513V20.1l-25.977.17v5.631h-.514c-.57 0-1.141.398-1.256.967-.114.74.457 1.422 1.2 1.422h.57v6.768L13.63 55.873a11.449 11.449 0 00-2.911 7.62v4.835c0 1.65.628 3.242 1.827 4.38v90.824c0 .512.114 1.024.342 1.535a2.91 2.91 0 01-.171 2.389c-.343.683-.571 1.422-.571 2.161l-.285 26.275c0 1.365.114 2.73.513 4.038l-.228 18.768c-.057 3.071.285 6.085 1.085 9.043 1.427 5.402 4.624 12.227 11.875 12.227h4.967a4.71 4.71 0 003.768-1.877l1.141-1.478c.685-.91 2.113-.683 2.512.398a4.732 4.732 0 004.568 3.128l11.475-.171c1.199 0 2.17-.853 2.512-1.99.4-1.138 1.941-1.308 2.57-.285l.684 1.024c.571.853 1.485 1.365 2.455 1.365h5.538c3.54 0 6.85-1.934 8.564-5.005.057-.057.057-.114.114-.17 1.94-3.64 2.911-7.735 2.911-11.83v-20.986a3.917 3.917 0 010-4.549v-29.29a2.726 2.726 0 01-.114-3.753l.114-.114V72.081l.115-.113a6.234 6.234 0 001.826-4.38v-4.89c0-2.958-1.198-5.858-3.31-8.02z" fill="#F5F5F5"/><path d="M68.722 57.92c3.94-.91 7.822 1.99 7.879 6.029v4.493c0 1.478-.571 2.957-1.599 3.98l-.114.115v84.34l-.114.114c-.856.967-.8 2.502.114 3.412v26.73a3.676 3.676 0 000 4.152v19.166c0 3.753-.856 7.507-2.569 10.805 0 .057-.057.114-.057.171-1.484 2.843-4.396 4.55-7.536 4.55h-4.91l-7.364-.114-10.163.171-10.619-.171h-4.396c-6.394 0-9.248-6.199-10.504-11.147-.686-2.673-.971-5.46-.914-8.247l.228-17.118c-.342-1.194-.456-2.446-.456-3.697l.285-24c0-.682.171-1.365.514-1.99.343-.683.4-1.479.114-2.218-.171-.455-.285-.91-.285-1.365V73.219a5.774 5.774 0 01-1.599-3.981v-4.493c0-3.867 2.855-7.166 6.68-8.019 3.94-.853 10.276-1.65 16.5 0 10.218 2.673 10.39 4.152 17.697 3.526 4.054-.398 9.363-1.479 13.188-2.332z" fill="#E8505B"/><path opacity=".5" d="M68.722 57.92c3.94-.91 7.822 1.99 7.879 6.029v4.493c0 1.478-.571 2.957-1.599 3.98l-.114.115.114 51.811-.114 32.53-.114.114c-.856.967-.8 2.502.114 3.412v26.73a3.676 3.676 0 000 4.152v19.166c0 3.753-.856 7.507-2.569 10.805 0 .057-.057.114-.057.171-1.484 2.843-4.396 4.55-7.536 4.55h-4.91l-7.364-.114-10.163.171-10.619-.171h-4.396c-6.394 0-9.248-6.199-10.504-11.147-.686-2.673-.971-5.46-.914-8.247l.228-17.118c-.342-1.194-.456-2.446-.456-3.697l.285-24c0-.682.171-1.365.514-1.99.343-.683.4-1.479.114-2.218-.171-.455-.285-.91-.285-1.365V73.219a5.774 5.774 0 01-1.599-3.981v-4.493c0-3.867 2.855-7.166 6.68-8.019 3.94-.853 10.276-1.65 16.5 0 10.218 2.673 10.39 4.152 17.697 3.526 4.054-.398 9.363-1.479 13.188-2.332z" fill="#fff"/><path d="M79.57 72.764c0 .057-14.958.17-33.456.17-18.497 0-33.455-.056-33.455-.17 0-.057 14.958-.17 33.455-.17 18.44 0 33.456.056 33.456.17z" fill="#263238"/><path d="M16.313 111.721c3.197-6.711 9.591-11.886 16.899-13.592 6.85-1.593 14.272-.341 20.838-2.958 6.85-2.73 11.361-9.156 14.9-15.583 1.37-2.502 3.084-5.289 5.938-5.63-.742 1.99.457 4.38-.514 6.2-.342.625-.913 1.137-1.427 1.592-4.11 3.867-6.794 8.929-9.134 14.047-1.428 3.128-2.855 6.484-5.538 8.702-1.941 1.592-4.396 2.502-6.851 2.957-6.337 1.137-13.131-.398-19.126 1.877-4.624 1.706-8.164 5.516-10.619 9.782-2.454 4.265-3.825 8.985-5.252 13.706" fill="#fff"/><path d="M76.658 65.826c0 .17-1.028.284-2.74 1.023-1.713.74-3.94 2.275-6.11 4.834-1.084 1.252-2.169 2.73-3.253 4.38-1.085 1.649-2.17 3.469-3.426 5.402-1.256 1.877-2.683 3.868-4.567 5.574-1.827 1.763-4.11 3.185-6.623 4.151a21.478 21.478 0 01-7.707 1.422c-2.512-.056-4.853-.455-7.022-.455-4.34-.056-8.221 1.252-11.133 2.844a22.052 22.052 0 00-3.71 2.502c-1.029.797-1.828 1.65-2.513 2.275-1.256 1.365-1.884 2.218-1.998 2.161-.057-.056.057-.284.285-.739.229-.455.628-1.081 1.2-1.877.627-.74 1.37-1.649 2.397-2.559 1.028-.967 2.227-1.934 3.768-2.787 2.969-1.763 7.022-3.298 11.704-3.355 2.34 0 4.681.341 7.022.341 2.34 0 4.796-.455 7.08-1.365a19.124 19.124 0 006.108-3.81c1.713-1.593 3.14-3.413 4.396-5.233 1.256-1.82 2.398-3.64 3.54-5.289 1.142-1.649 2.283-3.184 3.54-4.436 2.397-2.559 4.91-4.038 6.736-4.606 1.941-.57 3.026-.455 3.026-.398zm-60.631 122.16c2.398-2.388 6.166-2.843 9.535-2.445 3.368.398 6.68 1.479 10.048 1.479 4.681 0 9.362-2.105 12.445-5.631 1.142-1.308 2.056-2.787 3.197-4.151 2.798-3.299 6.794-5.574 11.076-6.313 1.941-.341 3.94-.341 5.71-1.081 3.71-1.478 5.594-5.46 7.193-9.099-.229 5.971-.514 11.886-.742 17.857-6.338-1.194-12.332 2.901-17.299 6.996-4.967 4.095-10.334 8.701-16.785 8.701-3.425 0-6.794-1.308-10.219-1.194-6.451.227-11.59 5.289-15.928 10.009" fill="#fff"/><path d="M76.658 160.404c0 .114-.97.171-2.626.626-.856.17-1.827.568-2.969 1.023a26.935 26.935 0 00-3.597 2.048c-1.256.853-2.626 1.877-3.939 3.071-1.37 1.194-2.74 2.559-4.225 4.038-1.484 1.479-3.025 3.014-4.795 4.493-1.77 1.478-3.711 2.9-5.938 4.038-2.226 1.137-4.624 1.763-6.965 1.99-2.34.228-4.567.171-6.622.114-2.056-.114-4.054-.227-5.88-.227-1.828 0-3.483.113-5.025.341-1.484.227-2.854.568-3.996 1.023a14.999 14.999 0 00-2.74 1.422c-1.428.967-2.056 1.706-2.17 1.65-.057-.057.4-.967 1.77-2.162a13.266 13.266 0 012.797-1.763c1.142-.568 2.57-1.023 4.11-1.308 1.6-.341 3.312-.512 5.196-.568 1.884-.057 3.882.056 5.938.113 2.055.057 4.224.057 6.394-.17a18.744 18.744 0 006.394-1.877c2.055-1.024 3.94-2.389 5.595-3.754 1.713-1.421 3.254-2.9 4.738-4.322 1.485-1.422 2.97-2.787 4.396-3.981 1.428-1.194 2.855-2.218 4.225-3.014 1.37-.853 2.683-1.479 3.882-1.877 1.2-.398 2.284-.682 3.14-.796 1.942-.455 2.912-.285 2.912-.171zM15.856 217.39c6.737 4.038 15.586 2.843 22.551-.74 6.965-3.583 12.56-9.327 18.384-14.616 5.823-5.289 12.16-10.407 19.81-12.284a5.84 5.84 0 01-1.142-3.185c-8.792 3.867-17.812 7.848-24.549 14.673-2.34 2.332-4.339 5.005-6.965 7.109-2.512 1.991-5.424 3.299-8.392 4.436-5.938 2.332-12.39 4.095-18.726 3.242-.514-.057-1.085-.114-1.427.284-.343.398.228 1.138.57.739m49.784-62.616c0 .967-.8 1.763-1.77 1.763s-1.77-.796-1.77-1.763c0-.967.8-1.763 1.77-1.763s1.77.796 1.77 1.763zm-8.678 3.697a.84.84 0 01-.857.853.84.84 0 01-.856-.853c0-.512.4-.853.856-.853a.84.84 0 01.857.853z" fill="#fff"/><path d="M37.094 206.925a.855.855 0 00.856-.853.855.855 0 00-.856-.853.855.855 0 00-.856.853c0 .471.383.853.856.853z" fill="#fff"/><path d="M78.885 168.707c0 .057-15.015.171-33.513.171-18.497 0-33.512-.057-33.512-.171 0-.114 15.015-.171 33.512-.171 18.498.057 33.513.114 33.513.171zm-.172 29.403c0 .057-14.957.171-33.455.171-18.497 0-33.455-.057-33.455-.171 0-.057 14.958-.171 33.455-.171 18.497.057 33.455.114 33.455.171zm.4 4.379c0 .057-14.958.171-33.456.171-18.497 0-33.455-.057-33.455-.171 0-.057 14.958-.17 33.456-.17 18.497 0 33.455.056 33.455.17zm-.228-38.274c0 .057-14.787.17-33.056.17-18.27 0-33.056-.057-33.056-.17 0-.057 14.787-.171 33.056-.171 18.212 0 33.056.057 33.056.171zm-38.08 75.924s-.171 0-.514-.17c-.285-.114-.742-.399-1.141-.797-.914-.853-1.656-2.275-2.512-3.867-.857-1.592-1.656-3.014-2.227-4.038-.571-1.024-.856-1.706-.856-1.706s.4.569 1.027 1.592c.571 1.024 1.428 2.446 2.284 3.981.856 1.536 1.598 3.015 2.398 3.868.799.91 1.541 1.08 1.541 1.137zm18.669-10.692c.057 0-.057.512-.286 1.251a37.82 37.82 0 01-1.027 3.014 61.878 61.878 0 01-1.256 2.901c-.343.739-.571 1.194-.628 1.137-.057 0 .114-.512.456-1.251.343-.853.743-1.82 1.142-2.957.4-1.081.8-2.105 1.085-2.958.285-.682.457-1.137.514-1.137zM78.713 209.2s-.057.057-.17.114a1.576 1.576 0 01-.458.341c-.4.285-.97.74-1.712 1.308a64.442 64.442 0 01-6.623 4.436 62.241 62.241 0 01-4.853 2.616c-1.827.853-3.768 1.65-5.937 2.218-4.339 1.138-9.363 1.536-14.444.342-2.512-.569-4.91-1.593-6.965-2.844-2.056-1.251-3.882-2.787-5.595-4.265-1.656-1.479-3.254-2.901-4.739-4.152-1.541-1.251-3.025-2.332-4.453-3.185-2.911-1.763-5.538-2.502-7.422-2.673-.913-.057-1.655-.057-2.169-.057-.228 0-.4.057-.57.057h-.172s.057 0 .171-.057c.114 0 .343-.057.571-.057.514-.057 1.256-.057 2.17 0 1.883.171 4.624.853 7.535 2.616 1.485.854 2.97 1.934 4.51 3.185 1.542 1.252 3.083 2.673 4.796 4.152 1.656 1.479 3.483 2.957 5.538 4.209a23.14 23.14 0 006.908 2.786c5.024 1.138 9.991.796 14.273-.341 2.17-.569 4.11-1.365 5.937-2.161 1.77-.853 3.426-1.706 4.853-2.559 2.912-1.707 5.138-3.299 6.68-4.379.742-.569 1.313-.967 1.77-1.309.17-.113.342-.227.456-.341.057.057.114 0 .114 0z" fill="#263238"/><path d="M78.885 208.518l-.114.114a2.48 2.48 0 01-.4.341c-.171.171-.4.341-.685.569-.286.227-.628.455-.97.739-1.485 1.138-3.712 2.616-6.68 4.209-1.485.796-3.14 1.535-4.967 2.275-1.827.739-3.825 1.421-5.995 1.876-.57.114-1.084.228-1.655.285-.286.057-.571.057-.857.113h-.856c-1.142 0-2.34-.056-3.54-.113-2.398-.171-4.91-.455-7.364-1.138-2.455-.682-4.739-1.763-6.623-3.298-1.884-1.479-3.483-3.185-5.024-4.778-1.542-1.535-3.083-2.957-4.739-3.981-1.655-1.08-3.31-1.82-4.91-2.275-3.14-.966-5.88-1.08-7.764-.966-.457 0-.856.057-1.256.113-.342.057-.628.057-.913.114-.229.057-.4.057-.571.114h-.171s.97-.284 2.854-.455c1.827-.171 4.624-.114 7.822.853a22.576 22.576 0 014.966 2.275c1.656 1.024 3.255 2.445 4.796 4.038 1.542 1.535 3.14 3.242 4.967 4.72 1.884 1.479 4.11 2.559 6.566 3.242 2.454.682 4.91.967 7.307 1.137 1.2.057 2.34.114 3.54.114h.856c.286 0 .571-.057.856-.114.571-.057 1.085-.17 1.656-.284 2.17-.455 4.11-1.137 5.938-1.82 1.826-.739 3.482-1.479 4.91-2.275 2.968-1.535 5.195-3.014 6.68-4.095.399-.284.684-.511.97-.739.285-.227.513-.398.685-.569a3.09 3.09 0 00.456-.341c.172.057.229 0 .229 0zM78.828 72.48c0 .057-14.787.17-33.056.17-18.27 0-33.056-.056-33.056-.17 0-.057 14.787-.17 33.056-.17s33.056.056 33.056.17zm-9.82-26.503l-.514.341c-.343.228-.8.57-1.427 1.081-.571.512-1.256 1.137-2.113 1.877-.856.682-1.884 1.478-3.082 2.16-2.398 1.366-5.595 2.446-9.25 2.901-3.653.455-7.706.171-11.874-.568-2.112-.341-4.11-.853-6.052-1.252a33.284 33.284 0 00-5.652-.682 27.895 27.895 0 00-9.534 1.536c-2.57.91-4.624 1.933-5.766 2.957-.571.512-.97.967-1.256 1.251l-.343.512s.057-.227.286-.512c.228-.341.628-.796 1.199-1.308 1.198-1.024 3.197-2.104 5.823-3.014 2.626-.91 5.88-1.65 9.591-1.593 1.827 0 3.768.285 5.71.683 1.94.398 3.939.853 6.05 1.251 4.169.74 8.165 1.024 11.819.626 3.596-.398 6.794-1.479 9.191-2.787 2.455-1.308 3.997-2.957 5.196-3.867.628-.512 1.084-.797 1.427-1.024.171-.114.285-.17.4-.228.114-.284.17-.34.17-.34z" fill="#263238"/><path d="M67.98 44.783s0 .057-.057.114c-.057.114-.171.227-.285.341-.229.284-.571.74-1.085 1.308-.97 1.08-2.455 2.673-4.681 4.152-2.227 1.422-5.31 2.502-8.85 2.616-3.54.17-7.364-.569-11.19-1.877-1.883-.625-3.767-1.365-5.537-1.877-1.827-.512-3.597-.91-5.367-.91-1.713-.056-3.368.228-4.852.626-1.485.398-2.855.796-4.111 1.251-2.455.91-4.339 1.934-5.652 2.673-.628.341-1.085.683-1.37.967-.286.284-.4.455-.4.455s.114-.17.343-.455c.285-.284.742-.626 1.37-1.024 1.256-.739 3.14-1.82 5.595-2.73a50.195 50.195 0 014.11-1.308c1.485-.398 3.14-.682 4.91-.625 1.77 0 3.597.398 5.424.91 1.827.512 3.654 1.194 5.595 1.877 3.768 1.308 7.593 2.047 11.075 1.876 3.483-.057 6.509-1.137 8.735-2.502 2.227-1.422 3.711-2.957 4.682-4.038.513-.569.856-.967 1.141-1.251.115-.114.229-.228.286-.341.114-.228.171-.228.171-.228z" fill="#263238"/><path d="M77.515 54.679s.285.284.799.91c.514.625 1.199 1.649 1.77 3.128.285.739.514 1.592.628 2.616.114.967.057 2.047.114 3.241v1.82c0 .626.057 1.308-.057 1.934a6.547 6.547 0 01-1.884 3.81v-.056c0 18.71.057 51.014.057 92.417v.057l-.057.057a2.49 2.49 0 00-.742 1.763c0 .682.228 1.421.742 1.933l.057.057v29.46a3.706 3.706 0 00-.685 2.104c0 .796.228 1.593.685 2.275v18.313c0 1.535.057 3.128-.057 4.72-.114 1.593-.343 3.128-.8 4.721-.4 1.535-.97 3.071-1.655 4.493a11.417 11.417 0 01-1.256 2.104 10.087 10.087 0 01-1.713 1.763 10.089 10.089 0 01-4.51 1.99c-.8.171-1.656.171-2.512.171h-4.967a3.12 3.12 0 01-2.227-1.194c-.285-.342-.456-.683-.684-1.081-.115-.17-.229-.341-.343-.455-.171-.114-.286-.227-.514-.284-.343-.114-.8-.057-1.085.17a1.333 1.333 0 00-.4.399c-.114.17-.17.341-.228.568-.342.796-1.084 1.479-1.94 1.65-.458.113-.857.056-1.314.113h-1.256c-1.713 0-3.425.057-5.138.057-.856 0-1.713 0-2.57.057h-1.312c-.4 0-.857 0-1.313-.057-.857-.114-1.713-.512-2.398-1.024-.685-.568-1.256-1.308-1.542-2.161-.17-.398-.513-.739-.913-.796-.4-.114-.913.057-1.199.341-.285.342-.57.74-.913 1.138-.286.398-.571.796-.97 1.137-.743.683-1.714 1.081-2.684 1.251-.514.057-.97.057-1.485.057h-4.453c-.514-.057-.97 0-1.484-.17l-.742-.114c-.229-.057-.457-.171-.742-.228-1.942-.568-3.54-1.876-4.853-3.412-1.313-1.535-2.227-3.355-2.912-5.232-.685-1.877-1.256-3.811-1.598-5.801a35.815 35.815 0 01-.514-6.029c0-2.047.057-4.037.057-6.085l.171-13.137v.057c-.4-1.422-.514-2.901-.514-4.38 0-1.478.057-2.9.057-4.379.058-2.9.058-5.801.115-8.644.057-2.844.057-5.744.114-8.588 0-1.422.057-2.844.057-4.265 0-.74.114-1.479.457-2.105.17-.341.342-.625.4-.967.056-.341.114-.682.056-1.023-.057-.342-.17-.626-.285-.967-.114-.341-.171-.683-.228-1.081V72.764l.057.114a6.304 6.304 0 01-1.599-2.73 4.772 4.772 0 01-.228-1.536v-4.606c0-1.024.057-2.048.285-3.015.457-1.99 1.485-3.81 2.798-5.289 1.313-1.478 2.626-2.9 3.882-4.322A4014.777 4014.777 0 0032.07 35.058v-6.711l.114.113H31.5c-.228 0-.456-.113-.628-.227-.4-.284-.57-.74-.57-1.137 0-.455.285-.854.684-1.024.172-.114.4-.17.628-.17h.571l-.114.113v-5.744h.114c9.82-.057 18.384-.114 25.977-.114h.057v5.858l-.057-.057h.685c.228.057.457.114.628.285.342.284.514.739.457 1.137-.057.398-.343.74-.685.91-.172.114-.343.114-.514.17h-.514l.057-.056v6.995-.057c6.223 6.313 11.019 11.147 14.216 14.446 1.598 1.649 2.854 2.9 3.653 3.696.971.797 1.37 1.195 1.37 1.195l-1.255-1.252c-.8-.853-2.056-2.047-3.654-3.696-3.254-3.242-8.05-8.076-14.273-14.389V28.29h.057c.343 0 .685.057 1.028-.17.285-.171.57-.456.57-.797a1.095 1.095 0 00-.399-1.024c-.171-.113-.343-.227-.57-.227-.172-.057-.458 0-.686 0h-.057v-5.858l.057.057c-7.593.057-16.157.114-25.976.17l.114-.113v5.744h-.114c-.4 0-.8-.057-1.085.17-.343.171-.571.512-.571.854-.057.398.171.739.457.966.342.228.742.171 1.199.171h.114v6.995c-4.624 5.176-9.534 10.578-14.672 16.323-1.314 1.421-2.57 2.9-3.883 4.322a11.66 11.66 0 00-2.74 5.175c-.228.967-.286 1.99-.286 2.958v3.07c0 1.024-.057 2.048.229 3.072.285.967.8 1.877 1.541 2.616l.057.057v91.109c0 .341.115.683.172.967.114.341.228.682.285 1.024.057.341 0 .739-.057 1.08-.057.341-.285.683-.4 1.024-.285.625-.4 1.308-.4 1.99 0 1.422-.056 2.844-.056 4.266-.057 2.843-.057 5.687-.114 8.587-.058 2.844-.058 5.745-.115 8.645 0 1.422-.057 2.901-.057 4.379 0 1.422.114 2.901.457 4.323l-.171 13.137c0 2.047-.057 4.038-.057 6.085 0 1.991.17 4.038.513 5.972a31.56 31.56 0 001.542 5.744c.742 1.82 1.656 3.64 2.912 5.118 1.255 1.479 2.854 2.73 4.68 3.356 1.828.626 3.826.455 5.767.512h1.485c.513 0 .97 0 1.427-.057.913-.114 1.827-.512 2.512-1.138.342-.284.628-.682.913-1.08.286-.398.571-.739.914-1.138.4-.398.97-.568 1.484-.398.514.114.97.512 1.142.967.285.796.8 1.479 1.427 1.991a4.584 4.584 0 002.284.967c.4.056.856.056 1.256.056h1.313c.856 0 1.713 0 2.569-.056 1.713 0 3.425-.057 5.138-.057h1.256c.4 0 .856 0 1.256-.057.8-.171 1.427-.796 1.77-1.536.114-.17.114-.398.285-.568.115-.228.286-.399.457-.512.4-.285.856-.342 1.313-.228.229.057.457.171.628.341.172.171.286.342.4.512.228.342.457.74.685 1.024.457.626 1.256 1.024 2.055 1.081h4.91c.857 0 1.656 0 2.455-.171a9.997 9.997 0 004.339-1.934c.628-.512 1.199-1.08 1.656-1.706.456-.626.856-1.365 1.198-2.047a26.085 26.085 0 001.656-4.436c.4-1.536.685-3.071.742-4.664.114-1.535.057-3.128.057-4.663v-18.199.056a4.25 4.25 0 01-.742-2.445c0-.853.286-1.649.742-2.275v-29.232l.057.057c-.57-.569-.856-1.365-.856-2.105 0-.739.343-1.478.856-1.933l-.057.057c.057-41.347.057-73.65.057-92.418 1.085-1.023 1.713-2.445 1.884-3.753.058-.683.058-1.308.058-1.934v-1.82c0-1.194.057-2.275-.058-3.242a10.513 10.513 0 00-.628-2.559c-.57-1.479-1.256-2.502-1.77-3.128a4.33 4.33 0 00-.57-.682c0-.285-.057-.398-.057-.398z" fill="#263238"/><path d="M58.446 25.788c0 .056-5.823.17-13.017.227-7.193.057-13.017 0-13.017-.057s5.824-.17 13.017-.227c7.194-.057 13.017-.057 13.017.056zm.628 2.502c0 .057-5.995.17-13.302.17-7.365 0-13.36-.056-13.36-.17 0-.057 5.995-.17 13.36-.17 7.364.056 13.302.113 13.302.17zm-.742 2.104c0 .057-5.824.17-12.96.17-7.136 0-12.96-.056-12.96-.17 0-.113 5.824-.17 12.96-.17 7.194 0 12.96.056 12.96.17zm0 2.048c0 .057-5.824.17-12.96.17-7.136 0-12.96-.056-12.96-.17 0-.057 5.824-.17 12.96-.17 7.194 0 12.96.056 12.96.17z" fill="#263238"/><path d="M32.413 28.347c.4.682 1.085 1.137 1.827 1.365.742.227 1.541.227 2.34.284a161.73 161.73 0 0020.325-.796c.57-.057 1.199-.228 1.37-.74-1.085-.056-2.17-.056-3.254-.056-6.452 0-12.96 0-19.411.056h-3.54" fill="#E0E0E0"/><path d="M27.902 24.139V4.46s-.17-3.98 17.7-3.98c16.27 0 16.214 4.607 16.214 4.607v19.052H27.903z" fill="#E8505B"/><path d="M30.13 20.215c-.058 0-.172-3.413-.172-7.564 0-4.152.057-7.564.171-7.564.057 0 .171 3.412.171 7.564 0 4.208-.057 7.564-.17 7.564zm3.025 0c-.057 0-.171-3.583-.171-7.962 0-4.436.057-7.962.171-7.962.057 0 .171 3.582.171 7.962 0 4.379-.057 7.962-.171 7.962zm2.969 0c-.057 0-.171-3.697-.171-8.304 0-4.55.057-8.303.17-8.303.115 0 .172 3.697.172 8.303-.057 4.607-.114 8.304-.171 8.304zm2.911 0c-.057 0-.17-3.81-.17-8.474s.056-8.474.17-8.474c.058 0 .172 3.81.172 8.474-.057 4.663-.114 8.474-.172 8.474zm2.912 0c-.057 0-.171-3.81-.171-8.474s.057-8.474.171-8.474c.114 0 .171 3.81.171 8.474-.057 4.663-.114 8.474-.171 8.474zm2.912 0c-.057 0-.172-3.81-.172-8.474s.058-8.474.172-8.474c.114 0 .17 3.81.17 8.474 0 4.663-.113 8.474-.17 8.474zm2.911 0c-.057 0-.171-3.81-.171-8.474s.057-8.474.171-8.474c.057 0 .171 3.81.171 8.474 0 4.663-.057 8.474-.17 8.474zm2.912 0c-.057 0-.171-3.81-.171-8.474s.057-8.474.17-8.474c.058 0 .172 3.81.172 8.474 0 4.663-.057 8.474-.171 8.474zm2.911 0c-.057 0-.17-3.64-.17-8.19 0-4.55.056-8.19.17-8.19.115 0 .172 3.64.172 8.19 0 4.55-.057 8.19-.172 8.19zm2.969 0c-.057 0-.17-3.526-.17-7.848 0-4.323.056-7.849.17-7.849.058 0 .172 3.526.172 7.849-.057 4.322-.114 7.848-.172 7.848zm2.912 0c-.057 0-.171-3.299-.171-7.394 0-4.094.057-7.393.171-7.393.057 0 .171 3.299.171 7.393-.057 4.095-.114 7.394-.171 7.394z" fill="#263238"/><path d="M60.673 5.826s-.114 0-.343-.057c-.228-.057-.514-.17-.913-.284-.4-.114-.857-.285-1.428-.455a31.15 31.15 0 00-1.94-.512c-.743-.17-1.485-.341-2.341-.512-.857-.17-1.77-.284-2.74-.455-1.942-.227-4.054-.455-6.338-.455-2.226 0-4.396.17-6.337.398-.97.114-1.884.228-2.74.398-.857.114-1.656.342-2.341.512-.742.17-1.37.341-1.941.512-.571.17-1.028.284-1.427.398-.4.114-.685.228-.914.285-.228.056-.342.056-.342.056s.114-.056.285-.113c.229-.057.514-.17.914-.342.4-.113.856-.284 1.427-.455.57-.17 1.199-.34 1.94-.511.743-.171 1.485-.398 2.399-.512.856-.17 1.77-.285 2.74-.455a55.059 55.059 0 016.394-.398c2.284 0 4.396.227 6.395.455.97.17 1.883.284 2.74.512.856.17 1.655.34 2.34.568.743.17 1.37.398 1.942.569.57.17 1.027.341 1.427.455.343.114.685.227.913.341.115 0 .229.057.229.057zm.171 14.445c0 .057-7.08.171-15.814.171-8.735 0-15.814-.057-15.814-.17 0-.114 7.08-.171 15.814-.171 8.735 0 15.814.114 15.814.17z" fill="#263238"/><path d="M82.341 100.575H9.716v46.977h72.625s.468-6.395 0-22.991 0-23.986 0-23.986z" fill="#fff"/><path d="M78.885 100.575h-66.34S.836 107.015.836 122.973c0 15.957 11.709 24.578 11.709 24.578h66.34s11.628-7.983 11.201-24.578c-.427-16.596-11.201-22.398-11.201-22.398z" fill="#E8505B"/><path d="M12.973 142.36c.07 0-5.375-8.36-5.375-18.711 0-10.351 5.514-18.711 5.375-18.711-.07 0-3.292 8.36-3.292 18.711 0 10.294 3.222 18.711 3.292 18.711z" fill="#fff"/></svg>