<svg width="599" height="581" fill="none" xmlns="http://www.w3.org/2000/svg"><path d="M92.666 208.498c21.983-29.085 45.319-24.857 61.384-17.924 16.064 6.933 26.886 24.688 25.872 42.275-.338 4.565-1.353 9.469.676 13.697 3.044 6.764 11.837 8.793 16.91 14.204 6.933 7.44 5.411 19.277 3.044 29.254-2.368 9.977-4.904 21.307 1.014 29.593 5.412 7.609 15.558 9.807 24.013 13.866 11.16 5.411 20.122 15.388 23.335 27.394 3.213 12.006.339 25.534-7.947 34.665-8.117 8.962-20.461 12.852-32.467 14.543-34.835 5.073-71.699-6.088-97.74-29.762-26.041-23.674-40.753-59.354-38.893-94.526" fill="#263238"/><path d="M155.233 191.927c0 .169-3.044-.339-7.778.507-4.735.676-11.161 2.875-18.263 5.242-7.102 2.536-13.866 3.889-18.77 3.551-2.537-.169-4.397-.507-5.75-1.015-1.352-.338-2.029-.676-2.029-.845 0-.169 2.875 1.015 7.779 1.184 4.904.169 11.499-1.353 18.432-3.721 6.933-2.536 13.528-4.565 18.431-5.073 2.368-.338 4.397-.338 5.75-.169 1.522 0 2.198.169 2.198.339z" fill="#455A64"/><path d="M205.963 422.579c.846 2.536 18.432 85.395 18.432 85.395l133.419 51.237-7.44 19.446-114.311-9.976c-66.794-9.977-70.514-42.783-66.456-79.308l6.933-62.736 29.423-4.058z" fill="#FFBE9D"/><path d="M14.204 378.936c13.697-20.799 34.666-32.805 53.774-39.4l70.176 5.073s23.674-3.382 42.782 15.726l6.595 173.834 16.065 45.657H36.526l-22.322-200.89z" fill="#E8505B"/><path d="M183.304 431.695s-.169 0-.338-.338c-.339-.169-.677-.507-1.184-.846-.507-.338-1.015-.845-1.86-1.352-.846-.508-1.691-1.015-2.706-1.691-1.014-.508-2.198-1.184-3.551-1.861-1.353-.507-2.706-1.183-4.397-1.691-3.212-1.183-6.933-1.86-10.991-2.367a48.131 48.131 0 00-13.697.846c-4.735 1.014-9.808 3.043-14.373 6.087-4.566 3.044-8.963 7.271-11.33 12.683-1.184 2.705-1.86 5.749-1.522 8.793.338 3.044 1.353 6.087 3.382 8.455 1.86 2.536 4.735 4.227 7.779 4.565 3.043.339 6.256-.676 7.609-3.212 1.522-2.537 1.184-5.75.169-8.286-.507-1.353-1.184-2.537-2.029-3.72-.846-1.184-1.86-2.199-2.875-3.044-4.058-3.72-9.131-5.919-13.866-6.933-4.735-1.015-9.47-1.184-13.697-.846-8.455.846-14.88 3.044-19.446 4.566-2.199.676-3.89 1.353-5.073 1.691-.508.169-1.015.338-1.353.507-.338.169-.507.169-.507.169s.169 0 .507-.169c.338-.169.845-.338 1.353-.507a50.092 50.092 0 015.073-1.86c4.396-1.522 10.991-3.89 19.446-4.904 4.227-.507 8.962-.338 13.866.676 4.904 1.015 9.977 3.213 14.205 7.102l1.521 1.522c.508.508 1.015 1.015 1.353 1.691.846 1.184 1.522 2.537 2.029 3.89 1.015 2.705 1.522 6.087-.169 8.962-.845 1.353-2.198 2.536-3.551 3.044-1.522.676-3.213.845-4.735.507-3.212-.338-6.256-2.198-8.285-4.904-2.03-2.536-3.213-5.749-3.552-8.962-.338-3.213.339-6.426 1.691-9.301 2.537-5.749 6.934-9.977 11.668-13.02 4.735-3.044 9.808-5.073 14.712-6.088 4.904-1.014 9.639-1.184 13.866-.676 4.228.507 7.948 1.183 11.161 2.536 1.691.508 3.043 1.184 4.396 1.86 1.353.677 2.368 1.353 3.382 1.86 1.015.677 1.86 1.184 2.537 1.691.676.508 1.353 1.015 1.86 1.522.507.338.845.677 1.014.846.508.338.508.507.508.507z" fill="#FAFAFA"/><path d="M180.767 360.335l41.43 74.403-45.995 14.205 4.565-88.608z" fill="#E8505B"/><path d="M186.347 534.676s0-.507-.169-1.353c0-1.014-.169-2.198-.169-3.72-.169-3.382-.338-7.948-.676-13.697-.507-11.668-1.015-27.732-1.522-45.319-.507-17.755-.846-33.819-1.015-45.487v-18.77s0 .507.169 1.352c0 1.015.001 2.199.17 3.721 0 3.382.169 7.947.338 13.697.338 11.668.676 27.732 1.183 45.318.508 17.756 1.015 33.651 1.353 45.319.169 5.749.338 10.484.338 13.697v5.242z" fill="#263238"/><path d="M193.112 382.994s-.339.169-1.015.677c-.676.507-1.691 1.014-2.875 1.521-2.536 1.184-6.764 2.537-11.837 2.537-5.073.169-11.498-1.184-17.248-5.073-1.522-1.015-2.874-2.029-4.058-3.382-1.184-1.353-2.198-3.044-2.537-5.073-.338-1.86 0-4.058 1.522-5.58 1.353-1.522 3.72-2.029 5.75-1.691 2.029.338 3.889 1.691 4.904 3.382 1.014 1.691 1.183 3.889.845 5.749-.338 1.86-1.184 3.72-2.367 5.073-1.184 1.522-2.706 2.537-4.228 3.382-3.044 1.691-6.426 2.367-9.3 2.706a47.982 47.982 0 01-8.455.169c-5.242-.508-9.132-1.691-11.837-2.875-1.353-.507-2.368-1.015-3.044-1.353l-1.015-.507 1.015.507c.676.338 1.691.677 3.044 1.184a41.642 41.642 0 0011.837 2.536c2.536.17 5.411.17 8.286-.169 3.043-.338 6.087-1.014 9.131-2.705 1.522-.846 2.875-1.86 3.889-3.213 1.015-1.353 1.86-3.044 2.199-4.735.338-1.691.169-3.551-.846-5.242-.845-1.522-2.536-2.536-4.397-3.044-1.86-.338-3.72 0-4.903 1.353-1.184 1.353-1.522 3.213-1.353 4.904.169 1.691 1.183 3.382 2.198 4.566 1.184 1.352 2.537 2.367 3.889 3.382 5.581 3.889 11.837 5.073 16.741 5.073 5.073 0 9.132-1.184 11.837-2.199 2.706-1.014 4.059-2.029 4.228-1.86zm-8.963 150.33s-.169-.169-.507-.338c-.338-.169-.846-.508-1.353-1.015-1.184-.845-3.044-2.029-5.58-3.213-4.904-2.536-12.852-5.242-22.829-5.073-9.976 0-21.813 3.382-33.143 9.977-2.875 1.691-5.58 3.551-8.117 5.919-2.536 2.198-4.904 4.904-6.426 8.116-1.522 3.213-2.367 6.934-1.522 10.315.508 1.691 1.353 3.382 2.537 4.566 1.353 1.184 3.213 1.691 4.904 1.184 1.691-.507 3.044-1.86 3.889-3.382a10.978 10.978 0 001.353-5.242c0-3.551-1.184-7.102-3.213-9.977s-4.566-5.411-7.44-7.102c-2.875-1.86-6.088-3.044-9.3-3.72-6.427-1.353-12.852-1.015-18.602-.17-5.75.846-11.16 2.03-15.895 3.552-9.639 2.874-16.91 6.425-21.814 8.962-2.536 1.353-4.397 2.367-5.58 3.213-.677.338-1.015.676-1.353.845a2.093 2.093 0 00-.507.338s.169-.169.507-.338c.338-.169.846-.507 1.353-1.014 1.183-.846 3.044-2.03 5.58-3.382 4.904-2.706 12.175-6.426 21.814-9.301 4.735-1.522 10.146-2.705 16.064-3.551 5.75-.845 12.345-1.353 18.77.169 3.213.677 6.595 1.86 9.639 3.72 3.044 1.86 5.749 4.397 7.779 7.441 2.029 3.044 3.382 6.764 3.382 10.484 0 1.86-.508 3.889-1.522 5.58-1.015 1.691-2.368 3.213-4.397 3.889-2.029.677-4.227 0-5.749-1.352-1.522-1.353-2.368-3.213-2.875-5.073-.845-3.89 0-7.61 1.522-10.992 1.691-3.213 4.058-6.087 6.595-8.455 2.536-2.367 5.411-4.227 8.286-5.918 11.499-6.595 23.505-9.808 33.481-9.808 10.146-.169 18.094 2.706 22.998 5.411 5.073 2.368 7.271 4.735 7.271 4.735z" fill="#FAFAFA"/><path d="M65.103 398.215c-5.073-26.042-41.937-26.887-48.362-1.353-.17.338-.17.845-.339 1.184-9.47 40.414 22.49 159.968 31.115 166.901 8.624 6.933 17.079 14.711 31.79 8.624 8.624-3.551 97.909-82.521 97.909-82.521s20.63 19.785 27.563 18.094c6.933-1.691 20.123-21.983 20.123-21.983s12.852 19.108 14.373 19.446c4.566.846 6.933-4.227 5.242-6.933-1.691-2.536-17.924-38.216-17.924-38.216s12.852-1.353 10.315-5.75c0 0-.338-3.889-8.962-3.212-8.624.676-8.624-9.132-24.689-8.117-16.064 1.014-49.546 5.073-96.386 41.091l-21.645 15.388-20.123-102.643z" fill="#FFBE9D"/><path d="M106.702 485.469l.507-.507c.338-.338.845-.676 1.691-1.184 1.522-1.014 3.551-2.705 6.257-4.735 5.749-3.889 13.866-9.807 25.195-15.895 11.161-6.087 25.196-12.513 42.275-16.403 4.228-.845 8.624-1.691 13.19-2.198 2.367-.169 4.566-.507 6.933-.676 2.367-.169 4.735-.169 7.271.338 2.368.507 4.735 1.353 6.933 2.706 2.199 1.352 3.89 3.043 6.088 4.227 1.015.676 2.198.846 3.551.846 1.184 0 2.537-.17 3.889-.17 1.353 0 2.706.17 3.89.677 1.183.507 2.536 1.353 2.874 3.044v-.169c.339.507.508 1.183.339 1.86-.17.676-.677 1.183-1.015 1.522-.846.676-2.029 1.183-3.044 1.521a43.599 43.599 0 01-6.764 1.522l.338-.676c3.721 7.948 7.61 16.233 11.499 24.858 2.029 4.227 4.058 8.624 6.257 12.851.169.507.676 1.015.845 1.691a4.123 4.123 0 010 2.029 5.22 5.22 0 01-1.86 3.382c-1.014.846-2.367 1.353-3.72 1.184h-.507s-.169 0-.339-.169c-.169 0-.169-.169-.169-.169-.338-.169-.507-.508-.676-.677-.507-.507-.845-1.014-1.184-1.352-4.396-5.581-8.286-11.499-12.175-17.249h.677c-3.044 4.735-6.426 9.301-9.977 13.359-1.86 2.029-3.551 4.059-5.75 5.919-.507.507-1.014.845-1.691 1.353-.507.338-1.183.676-1.86 1.014-.676.169-1.353.507-2.029.677-.676 0-1.522 0-2.029-.339-2.706-.676-4.904-2.198-7.271-3.551-2.199-1.353-4.397-3.044-6.426-4.565a167.796 167.796 0 01-11.499-9.977h.507c-28.408 24.857-52.59 45.826-70.007 60.368-8.624 7.271-15.557 12.852-20.46 16.572a66.132 66.132 0 01-5.75 4.058c-1.353.846-2.03 1.184-2.03 1.184s.677-.338 2.03-1.353c1.353-.845 3.213-2.367 5.58-4.227 4.735-3.72 11.668-9.47 20.292-16.741 17.248-14.543 41.429-35.68 69.669-60.538l.338-.169.338.338c3.551 3.382 7.441 6.764 11.499 9.808 2.029 1.522 4.058 3.044 6.257 4.566 2.198 1.353 4.565 2.705 6.933 3.382 2.536 1.014 4.735-.846 6.764-2.537 2.029-1.691 3.889-3.72 5.58-5.918 3.551-4.228 6.764-8.624 9.808-13.359l.338-.507.338.507c3.89 5.749 7.779 11.668 12.175 17.248.339.507.846 1.015 1.184 1.353.169.169.338.507.676.507l.17.169h.338c1.183.169 2.198-.169 3.044-.845 1.691-1.353 2.367-4.059.845-5.919-2.198-4.227-4.227-8.624-6.257-12.851-3.889-8.455-7.778-16.741-11.498-24.858l-.169-.507h.507c2.198-.338 4.566-.676 6.595-1.353 1.014-.338 2.029-.845 2.874-1.353.339-.338.677-.676.846-1.014.169-.338 0-.846-.169-1.184v-.169c-.169-1.015-1.184-1.86-2.368-2.367-1.183-.508-2.367-.508-3.72-.677-1.183 0-2.536.169-3.889.169a7.855 7.855 0 01-3.889-1.014c-2.368-1.184-4.059-3.044-6.257-4.228a15.772 15.772 0 00-6.595-2.536c-4.735-.846-9.469-.169-14.035.338-4.566.507-8.962 1.353-13.19 2.198-16.91 3.72-31.114 10.146-42.275 16.065-11.16 5.918-19.446 11.667-25.196 15.557a142.44 142.44 0 01-6.425 4.565c-.677.508-1.184.846-1.691 1.184 0 .169-.169.169-.169.169zM76.94 529.942s-.169-.507-.338-1.183c-.17-.846-.338-2.03-.507-3.551-.17-3.044 0-7.272 1.183-11.668 1.184-4.397 3.213-8.117 4.904-10.654.846-1.183 1.691-2.198 2.198-2.874.508-.677.846-1.015 1.015-.846.17.169-1.014 1.522-2.706 4.059-1.521 2.536-3.381 6.256-4.565 10.484-1.184 4.396-1.522 8.455-1.522 11.33.338 3.043.507 4.903.338 4.903z" fill="#EB996E"/><path d="M40.077 353.234c-.846.507-30.607 9.469-35.342 39.907-4.735 30.438-1.86 83.705-1.86 83.705l80.66-5.581-22.997-107.209-20.461-10.822z" fill="#E8505B"/><path d="M211.543 504.916c-.169 0 0-1.014 0-2.705s-.507-4.059-1.691-6.257c-1.184-2.198-2.874-3.889-4.227-4.904-1.353-1.014-2.368-1.353-2.368-1.522 0-.169 1.184.169 2.706 1.015 1.522.845 3.382 2.536 4.735 5.073 1.183 2.367 1.691 4.904 1.522 6.764 0 1.691-.508 2.705-.677 2.536zm7.441-8.962c-.339 0-.339-3.72-2.706-7.271-2.367-3.721-5.58-5.412-5.58-5.581 0-.169 1.014.169 2.198 1.015 1.184.845 2.875 2.198 4.058 4.058 1.184 1.86 1.861 3.89 2.03 5.412.338 1.521.169 2.367 0 2.367zm0-19.278c0-.169.676.17 1.691 1.015.845.846 2.029 2.198 2.874 3.889.846 1.691 1.015 3.551 1.015 4.735 0 1.184-.169 2.029-.338 2.029-.338 0 0-3.044-1.522-6.256-1.353-3.382-3.889-5.242-3.72-5.412z" fill="#EB996E"/><path d="M73.727 420.704h-.338c-.338 0-.676 0-1.184-.169-1.014-.169-2.705-.338-4.734-.338-4.059 0-10.146.507-16.91 3.213-6.764 2.706-14.374 7.609-19.785 15.726-2.706 3.889-4.735 8.793-4.396 14.035.169 2.537.845 5.243 2.367 7.441 1.353 2.198 3.551 4.058 6.087 4.904 2.537.845 5.412.676 7.779-.338 2.367-1.015 4.058-3.382 4.735-5.75.676-2.536.338-5.073-.338-7.44-.677-2.368-1.86-4.566-3.213-6.595-5.75-7.779-14.205-11.668-21.307-12.683-7.271-1.014-13.19.677-16.91 2.199-1.86.845-3.213 1.522-4.227 2.029-.508.338-.846.507-1.015.676-.169.169-.338.169-.338.169s1.691-1.521 5.58-3.212c3.72-1.691 9.639-3.552 17.08-2.537 7.27.846 16.064 4.904 21.982 12.852 1.522 2.029 2.706 4.227 3.382 6.764.677 2.536 1.015 5.242.338 7.947-.676 2.706-2.536 5.073-5.242 6.257-2.536 1.184-5.58 1.353-8.455.338-2.874-.845-5.073-2.875-6.595-5.242a16.3 16.3 0 01-2.536-7.779c-.338-5.411 1.86-10.484 4.566-14.542 5.58-8.117 13.358-13.19 20.122-15.726 6.934-2.706 13.021-3.044 17.08-2.875 4.227 0 6.425.676 6.425.676zm-2.705-43.796l-2.03 1.014a8.884 8.884 0 01-2.536.846c-1.015.338-2.03.676-3.382 1.015a26.674 26.674 0 01-4.228.845c-1.521.338-3.212.338-4.903.507-3.382.169-7.272 0-11.161-.676-3.89-.676-7.61-1.86-10.653-3.213-1.522-.676-3.044-1.353-4.397-2.198-1.353-.677-2.536-1.522-3.72-2.199-1.184-.676-2.03-1.521-2.875-2.029-.845-.676-1.522-1.183-2.029-1.691-1.015-1.014-1.69-1.522-1.522-1.522.17-.169 2.368 2.03 6.764 4.904 1.015.677 2.368 1.353 3.72 2.029 1.353.677 2.875 1.353 4.397 2.03 3.213 1.183 6.764 2.367 10.653 3.043 3.89.677 7.61.846 10.992.846 1.69-.169 3.382-.169 4.734-.338 1.522-.169 2.875-.338 4.059-.677 5.073-1.522 7.948-2.705 8.117-2.536z" fill="#FAFAFA"/><path d="M77.617 428.652s.169.338.169.846c.169.676.169 1.353.338 2.367.338 2.198.845 5.073 1.353 8.793 1.183 7.61 2.705 18.263 4.396 30.607v.508h-.507c-5.918.338-12.175.845-18.94 1.352-17.078 1.184-32.466 2.199-43.796 2.875-5.58.338-9.977.507-13.19.846-1.522 0-2.705.169-3.55.169H2.705s.507-.169 1.183-.169c.846 0 2.03-.17 3.551-.339 3.213-.338 7.779-.676 13.19-1.014 11.33-.846 26.718-1.86 43.797-3.213 6.595-.507 13.02-.846 18.939-1.353l-.338.507c-1.691-12.344-3.044-22.997-4.059-30.607-.507-3.72-.845-6.764-1.183-8.962-.17-1.014-.17-1.691-.338-2.367.169-.677.169-.846.169-.846z" fill="#263238"/><path opacity=".2" d="M38.555 352.388c-.846 2.875 1.522 5.58 2.874 8.117 2.875 4.904 3.044 10.991 3.213 16.572.508 10.484 1.522 20.968 4.735 30.776 3.213 9.976 8.793 19.277 17.079 25.703 8.286 6.426 19.277 9.469 29.423 6.933 10.146-2.706 18.601-11.499 19.447-21.983.845-10.315-5.411-19.616-8.963-29.423-2.705-7.441-4.058-15.388-5.58-23.167-1.522-7.779-3.55-15.726-7.778-22.49-4.228-6.764-10.654-12.514-18.601-14.035-7.779-1.353-16.741 2.198-19.954 9.638" fill="#000"/><path d="M77.448 214.924v8.963L76.94 358.49c0 15.557 13.36 28.07 30.1 28.07 16.91 0 30.776-12.851 31.114-28.747.338-16.571 1.015-33.989 1.015-33.989s21.475-3.213 26.379-30.945c2.368-13.866 2.199-36.525 1.353-55.126-.676-16.741-15.219-29.424-31.96-28.071l-57.493 5.242z" fill="#FFBE9D"/><path d="M160.306 254.832c0 1.86-1.522 3.551-3.551 3.551s-3.551-1.353-3.551-3.213 1.522-3.551 3.551-3.551c1.86-.169 3.551 1.184 3.551 3.213zm1.353-5.242c-.507.507-3.044-1.522-6.933-1.691-3.889-.17-6.764 1.86-7.102 1.352-.169-.169.338-1.014 1.522-1.86 1.183-.845 3.382-1.691 5.749-1.691 2.367 0 4.397 1.015 5.58 1.86 1.015 1.015 1.522 1.86 1.184 2.03zm-37.709 4.565c0 1.86-1.522 3.551-3.551 3.551s-3.551-1.353-3.551-3.213 1.522-3.551 3.551-3.551c1.86-.169 3.382 1.353 3.551 3.213zm0-4.565c-.508.507-3.044-1.522-6.933-1.691-3.89-.17-6.764 1.86-7.102 1.352-.17-.169.338-1.014 1.521-1.86 1.184-.845 3.382-1.691 5.75-1.691 2.367 0 4.396 1.015 5.58 1.86 1.015 1.015 1.353 1.86 1.184 2.03zm13.359 28.746c0-.169 2.367-.507 6.256-1.015 1.015 0 1.861-.338 2.03-.845.169-.677-.169-1.691-.677-2.875-.845-2.367-1.86-4.904-2.705-7.44-3.89-10.653-6.595-19.447-6.088-19.616.507-.169 3.889 8.455 7.779 19.109.845 2.705 1.86 5.242 2.705 7.609.338 1.184 1.015 2.367.508 3.889a2.688 2.688 0 01-1.691 1.353c-.677.169-1.184.169-1.691.169-3.89-.169-6.426-.169-6.426-.338z" fill="#263238"/><path d="M139.169 323.824s-18.77.846-37.202-10.653c0 0 8.793 19.277 36.695 17.248l.507-6.595zm-3.551-36.187c-1.353-1.86-3.72-2.875-6.088-2.706-1.691.169-3.382.846-4.396 2.199-1.015 1.352-1.353 3.213-.339 4.565 1.015 1.522 3.213 1.86 5.073 1.353 1.861-.507 3.382-1.691 4.904-2.875.339-.338.846-.676 1.184-1.183 0-.338 0-.846-.338-1.353z" fill="#EB996E"/><path d="M125.979 280.873c.676 0 .507 4.227 4.058 7.102 3.551 3.044 7.948 2.705 7.948 3.213 0 .338-1.015.845-2.875.845s-4.565-.676-6.595-2.536c-2.198-1.86-3.043-4.228-3.212-6.088-.17-1.691.338-2.706.676-2.536zm-.845-46.333c-.339 1.014-4.228.507-8.794 1.014-4.565.339-8.116 1.691-8.793.677-.338-.507.338-1.353 1.86-2.368 1.522-1.014 3.89-1.86 6.595-2.198 2.706-.169 5.242.169 6.764.846 1.691.676 2.537 1.522 2.368 2.029zm35.341 3.889c-.676.846-3.382-.169-6.426-.169-3.213-.169-5.918.507-6.425-.507-.339-.508.169-1.353 1.352-2.199 1.184-.845 3.213-1.521 5.242-1.352 2.199.169 4.059 1.014 5.243 1.86 1.014 1.014 1.352 1.86 1.014 2.367z" fill="#263238"/><path d="M112.451 205.624c7.61 9.808 0 23.843-8.624 32.974-8.455 8.962-18.77 19.447-16.403 31.622 2.875 14.035 22.152 22.828 19.447 37.033-1.015 5.073-5.073 9.638-4.904 14.88 0 9.47 12.344 13.866 15.895 22.66 4.904 12.006-8.286 24.181-8.286 37.032 0 7.441 4.228 14.205 4.566 21.476.676 15.05-17.079 26.21-31.79 22.659-14.712-3.551-24.69-17.755-28.071-32.467-3.382-14.711-1.184-30.099 1.014-44.98-1.352 6.426-10.991 7.609-15.726 3.213-4.735-4.397-5.41-11.837-4.396-18.263 2.536-16.064 13.02-29.931 17.924-45.488 4.228-13.697 4.228-28.239 5.919-42.275 1.69-14.035 6.087-28.916 16.74-38.385 10.654-9.47 29.424-10.823 38.217.507" fill="#263238"/><path d="M74.235 420.549s.169-.169.338-.508c.338-.338.676-.845 1.015-1.522.845-1.352 2.198-3.551 3.212-6.594 1.015-3.044 2.03-6.764 2.199-11.33.169-4.566-.508-9.808-2.706-14.881-2.198-5.242-6.088-10.146-10.315-15.557-2.03-2.706-4.227-5.411-5.918-8.624-1.86-3.213-3.213-6.595-3.89-10.484-.676-3.72-.676-7.948 1.015-11.668.845-1.86 2.03-3.551 3.382-5.073 1.522-1.522 3.044-2.706 4.735-3.889 3.382-2.368 6.933-4.735 8.624-8.624 1.86-3.721 1.86-8.117.845-12.345-2.029-8.455-7.948-15.049-11.668-22.49-1.86-3.72-3.382-7.609-3.55-11.668-.17-4.058.676-7.947 2.198-11.499 3.043-7.102 8.116-12.513 13.19-17.079 5.072-4.565 9.976-8.285 14.034-12.344 4.059-3.889 7.272-8.117 9.301-12.175s3.044-7.948 3.213-10.991c.169-3.213-.169-5.581-.677-7.272-.507-1.691-.845-2.367-.845-2.367s.507.845 1.015 2.367c.507 1.522 1.014 4.059.845 7.272-.169 3.212-1.014 7.102-3.044 11.329-2.029 4.059-5.242 8.286-9.3 12.345-4.059 4.058-8.962 7.947-14.035 12.513-4.904 4.396-9.808 9.808-12.852 16.741-1.522 3.382-2.367 7.271-2.03 11.16.17 3.89 1.523 7.779 3.383 11.33s4.227 7.102 6.426 10.653c2.198 3.551 4.227 7.61 5.242 11.837 1.014 4.228 1.183 8.962-.846 12.852-2.029 4.058-5.75 6.425-8.962 8.962-1.691 1.184-3.213 2.367-4.735 3.889-1.353 1.353-2.536 3.044-3.213 4.735-1.522 3.551-1.522 7.61-.845 11.161.676 3.72 2.029 7.102 3.889 10.146 1.691 3.043 3.89 5.918 5.918 8.455 4.059 5.242 7.948 10.315 10.316 15.726 2.367 5.242 2.874 10.653 2.705 15.219a35.326 35.326 0 01-2.367 11.498c-1.184 3.044-2.537 5.073-3.382 6.595-.507.677-.846 1.184-1.184 1.522l-.676.677z" fill="#455A64"/><path d="M281.551 454.509l-64.089 111.944-90.806 3.213v9.977h265.147l72.206-118.201c2.705-4.396-.508-10.146-5.75-10.146h-170.79c-2.367-.169-4.735 1.184-5.918 3.213z" fill="#263238"/><path d="M361.873 514.201c-4.059 6.256-10.146 9.469-13.866 7.102-3.552-2.368-3.213-9.301.676-15.557 4.058-6.257 10.146-9.47 13.866-7.102 3.72 2.367 3.382 9.3-.676 15.557z" fill="#E0E0E0"/><path d="M598.007 579.642c0 .136-132.673.408-296.204.408-163.666 0-296.34-.136-296.34-.408 0-.136 132.674-.408 296.34-.408 163.531 0 296.204.136 296.204.408z" fill="#263238"/><path d="M215.971 29.34l-15.429.082.409 76.485 15.429-.082-.409-76.486z" fill="#E0E0E0"/><path d="M107.267 29.538l-39.825.213.226 42.2 39.825-.214-.226-42.199z" fill="#EBEBEB"/><path d="M146.829 29.274l-39.825.214.226 42.199 39.825-.214-.226-42.198z" fill="#F5F5F5"/><path d="M67.421 41.38c26.506.264 53.012 0 79.387-.396.527 0 .527-.79 0-.79-26.507-.133-53.013 0-79.387.527-.396 0-.396.659 0 .659z" fill="#E0E0E0"/><path d="M114.936 70.99l-72.397.388.184 34.418 72.397-.388-.184-34.418z" fill="#EBEBEB"/><path d="M186.939 70.595l-72.398.388.185 34.418 72.397-.388-.184-34.418z" fill="#F5F5F5"/><path d="M42.63 80.94c48 .528 96.265 0 144.398-.659.528 0 .528-.791 0-.791-48.001-.264-96.266-.264-144.267.791-.66 0-.66.66-.132.66zm253.192 24.925H15.596v12.396h280.226v-12.396z" fill="#E0E0E0"/><path d="M72.828 111.799h-11.34v42.067h11.34v-42.067zm169.85 0h-11.341v42.067h11.341v-42.067z" fill="#E0E0E0"/><path d="M231.059.723L215.63.806l.563 105.233 15.429-.083L231.059.723z" fill="#EBEBEB"/><path d="M254.981 20.35l-23.869.128.458 85.321 23.869-.128-.458-85.321z" fill="#F5F5F5"/><path d="M254.81 36.765c0 .263-5.406.395-12 .395s-12-.132-12-.395c0-.264 5.406-.396 12-.396 6.725 0 12 .132 12 .396zm0-3.561c0 .264-5.406.395-12 .395s-12-.131-12-.395 5.406-.396 12-.396c6.725 0 12 .132 12 .396zm0 59.606c0 .264-5.406.395-12 .395s-12-.131-12-.395 5.406-.396 12-.396c6.725 0 12 .132 12 .396zm0-3.56c0 .263-5.406.395-12 .395s-12-.132-12-.396 5.406-.395 12-.395c6.725 0 12 .131 12 .395zm-11.473-7.913c-.263 0-.395-8.572-.395-19.253 0-10.55.132-19.253.395-19.253.264 0 .396 8.571.396 19.253 0 10.681-.264 19.253-.396 19.253z" fill="#E0E0E0"/><path d="M281.053 41.248h-25.979V105.6h25.979V41.248z" fill="#EBEBEB"/><path d="M223.029 23.182a4.483 4.483 0 10.001-8.967 4.483 4.483 0 00-.001 8.967zm1.451 7.648h-2.769v62.64h2.769V30.83z" fill="#E0E0E0"/></svg>