<svg width="149" height="241" fill="none" xmlns="http://www.w3.org/2000/svg"><path d="M106.946 54.596L87.82 35.26v-6.995h.4c.57 0 1.142-.398 1.256-.967.114-.74-.457-1.422-1.199-1.422h-.514v-5.858l-25.976.17v5.631h-.514c-.571 0-1.142.398-1.256.967-.114.74.457 1.422 1.199 1.422h.57v6.768L43.062 55.79a11.449 11.449 0 00-2.912 7.62v4.835c0 1.65.628 3.242 1.827 4.379v90.825c0 .512.114 1.024.343 1.535a2.91 2.91 0 01-.172 2.389c-.342.683-.57 1.422-.57 2.161l-.286 26.275c0 1.365.114 2.73.514 4.038l-.228 18.768c-.057 3.071.285 6.085 1.084 9.043 1.428 5.402 4.625 12.227 11.875 12.227h4.967a4.709 4.709 0 003.768-1.877l1.142-1.478c.685-.91 2.112-.683 2.512.398a4.732 4.732 0 004.567 3.128l11.475-.171c1.2 0 2.17-.853 2.513-1.99.4-1.138 1.94-1.308 2.569-.285l.685 1.024c.57.853 1.484 1.365 2.455 1.365h5.538c3.539 0 6.85-1.934 8.563-5.005.057-.057.057-.114.114-.171 1.941-3.639 2.912-7.734 2.912-11.829v-20.986a3.918 3.918 0 010-4.55V168.17a2.725 2.725 0 01-.114-3.753l.114-.114V71.999l.114-.113a6.234 6.234 0 001.827-4.38v-4.89c0-2.958-1.199-5.858-3.311-8.02z" fill="#F5F5F5"/><path d="M98.153 57.838c3.939-.91 7.821 1.99 7.878 6.029v4.493c0 1.478-.571 2.957-1.598 3.98l-.114.114v84.342l-.115.114c-.856.967-.799 2.502.115 3.412v26.73a3.674 3.674 0 000 4.152v19.166c0 3.753-.857 7.507-2.569 10.805 0 .057-.058.114-.058.171-1.484 2.843-4.396 4.55-7.536 4.55h-4.91l-7.364-.114-10.162.17-10.62-.17h-4.395c-6.394 0-9.249-6.199-10.505-11.147-.685-2.673-.97-5.46-.913-8.247l.228-17.118c-.343-1.194-.457-2.446-.457-3.697l.286-24c0-.682.17-1.365.514-1.99.342-.683.4-1.479.114-2.218-.172-.455-.286-.91-.286-1.365V73.137a5.774 5.774 0 01-1.598-3.981v-4.493c0-3.867 2.854-7.166 6.68-8.019 3.939-.853 10.276-1.65 16.499 0 10.219 2.673 10.39 4.152 17.698 3.526 4.053-.398 9.363-1.479 13.188-2.332z" fill="#E8505B"/><path opacity=".5" d="M98.153 57.838c3.939-.91 7.821 1.99 7.878 6.029v4.493c0 1.478-.571 2.957-1.598 3.98l-.114.114.114 51.812-.114 32.53-.115.114c-.856.967-.799 2.502.115 3.412v26.73a3.674 3.674 0 000 4.152v19.166c0 3.753-.857 7.507-2.569 10.805 0 .057-.058.114-.058.171-1.484 2.843-4.396 4.55-7.536 4.55h-4.91l-7.364-.114-10.162.17-10.62-.17h-4.395c-6.394 0-9.249-6.199-10.505-11.147-.685-2.673-.97-5.46-.913-8.247l.228-17.118c-.343-1.194-.457-2.446-.457-3.697l.286-24c0-.682.17-1.365.514-1.99.342-.683.4-1.479.114-2.218-.172-.455-.286-.91-.286-1.365V73.137a5.774 5.774 0 01-1.598-3.981v-4.493c0-3.867 2.854-7.166 6.68-8.019 3.939-.853 10.276-1.65 16.499 0 10.219 2.673 10.39 4.152 17.698 3.526 4.053-.398 9.363-1.479 13.188-2.332z" fill="#fff"/><path d="M109 72.682c0 .057-14.958.17-33.455.17-18.498 0-33.456-.056-33.456-.17 0-.057 14.958-.17 33.456-.17 18.44 0 33.455.056 33.455.17z" fill="#263238"/><path d="M45.743 111.639c3.197-6.711 9.592-11.886 16.9-13.592 6.85-1.593 14.272-.341 20.838-2.957 6.85-2.73 11.36-9.157 14.9-15.584 1.37-2.502 3.083-5.289 5.938-5.63-.742 1.99.456 4.38-.514 6.2-.343.625-.914 1.137-1.427 1.592-4.11 3.867-6.794 8.929-9.135 14.047-1.427 3.128-2.854 6.484-5.538 8.702-1.94 1.592-4.396 2.502-6.85 2.957-6.338 1.137-13.132-.398-19.126 1.877-4.624 1.706-8.164 5.516-10.619 9.782-2.455 4.265-3.825 8.985-5.252 13.706" fill="#fff"/><path d="M106.088 65.744c0 .17-1.027.284-2.74 1.023-1.713.74-3.94 2.275-6.109 4.834-1.085 1.252-2.17 2.73-3.254 4.38-1.085 1.649-2.17 3.469-3.425 5.402-1.256 1.877-2.684 3.868-4.568 5.574-1.827 1.763-4.11 3.185-6.622 4.152a21.478 21.478 0 01-7.708 1.421c-2.512-.056-4.852-.455-7.022-.455-4.339-.056-8.22 1.252-11.132 2.844a22.052 22.052 0 00-3.711 2.502c-1.028.797-1.827 1.65-2.512 2.275-1.256 1.365-1.884 2.218-1.998 2.161-.058-.056.057-.284.285-.739.228-.455.628-1.081 1.199-1.877.628-.74 1.37-1.649 2.398-2.559 1.027-.967 2.226-1.934 3.768-2.787 2.968-1.763 7.022-3.298 11.703-3.355 2.341 0 4.682.341 7.022.341a19.33 19.33 0 007.08-1.365 19.122 19.122 0 006.108-3.81c1.713-1.593 3.14-3.413 4.397-5.233 1.255-1.82 2.397-3.64 3.54-5.289 1.141-1.649 2.283-3.184 3.539-4.436 2.398-2.559 4.91-4.038 6.737-4.606 1.941-.57 3.025-.455 3.025-.398zm-60.63 122.16c2.398-2.388 6.166-2.843 9.534-2.445 3.369.398 6.68 1.478 10.048 1.478 4.682 0 9.363-2.104 12.446-5.63 1.142-1.308 2.055-2.787 3.197-4.152 2.797-3.298 6.794-5.573 11.076-6.312 1.94-.342 3.939-.342 5.709-1.081 3.711-1.479 5.595-5.46 7.193-9.1-.228 5.972-.514 11.887-.742 17.858-6.337-1.194-12.332 2.901-17.298 6.996-4.967 4.094-10.334 8.701-16.785 8.701-3.426 0-6.794-1.308-10.22-1.194-6.45.227-11.589 5.289-15.928 10.009" fill="#fff"/><path d="M106.089 160.322c0 .114-.971.171-2.627.626-.856.17-1.827.568-2.968 1.023a26.918 26.918 0 00-3.597 2.048c-1.256.853-2.626 1.876-3.94 3.071-1.37 1.194-2.74 2.559-4.224 4.038-1.484 1.478-3.026 3.014-4.796 4.493-1.77 1.478-3.71 2.9-5.937 4.037-2.227 1.138-4.625 1.764-6.965 1.991-2.341.227-4.568.171-6.623.114-2.055-.114-4.053-.228-5.88-.228s-3.483.114-5.024.341c-1.485.228-2.855.569-3.997 1.024a14.999 14.999 0 00-2.74 1.422c-1.427.967-2.055 1.706-2.17 1.649-.056-.057.4-.967 1.77-2.161a13.227 13.227 0 012.798-1.763c1.142-.569 2.569-1.024 4.11-1.308 1.599-.341 3.312-.512 5.196-.569 1.884-.057 3.882.057 5.937.114s4.225.057 6.394-.171a18.742 18.742 0 006.395-1.876c2.055-1.024 3.939-2.389 5.594-3.754 1.713-1.422 3.255-2.9 4.739-4.322 1.484-1.422 2.969-2.787 4.396-3.981 1.427-1.195 2.854-2.218 4.225-3.014 1.37-.854 2.683-1.479 3.882-1.877 1.199-.398 2.284-.683 3.14-.796 1.941-.455 2.912-.285 2.912-.171zm-60.802 56.986c6.736 4.038 15.586 2.843 22.55-.74 6.966-3.583 12.56-9.327 18.384-14.616 5.823-5.289 12.16-10.407 19.811-12.284a5.832 5.832 0 01-1.142-3.185c-8.792 3.867-17.813 7.848-24.55 14.673-2.34 2.332-4.338 5.005-6.965 7.109-2.511 1.991-5.423 3.299-8.392 4.436-5.937 2.332-12.389 4.095-18.726 3.242-.514-.057-1.084-.114-1.427.284-.343.398.228 1.138.571.739m49.783-62.616c0 .967-.799 1.763-1.77 1.763-.97 0-1.77-.796-1.77-1.763 0-.967.8-1.763 1.77-1.763.971 0 1.77.796 1.77 1.763zm-8.678 3.697a.84.84 0 01-.856.853.839.839 0 01-.856-.853c0-.511.4-.853.856-.853.514 0 .856.398.856.853z" fill="#fff"/><path d="M66.525 206.843a.855.855 0 00.856-.853.855.855 0 00-.856-.853.855.855 0 00-.857.853c0 .471.384.853.857.853z" fill="#fff"/><path d="M108.315 168.625c0 .057-15.015.171-33.512.171s-33.512-.057-33.512-.171c0-.113 15.015-.17 33.512-.17 18.497.057 33.512.113 33.512.17zm-.171 29.403c0 .057-14.958.171-33.456.171-18.497 0-33.455-.057-33.455-.171 0-.057 14.958-.17 33.456-.17 18.497.057 33.455.113 33.455.17zm.399 4.379c0 .057-14.958.171-33.455.171s-33.455-.057-33.455-.171c0-.056 14.957-.17 33.455-.17 18.498 0 33.455.057 33.455.17zm-.228-38.274c0 .057-14.786.17-33.055.17-18.27 0-33.056-.056-33.056-.17 0-.057 14.786-.171 33.056-.171 18.212 0 33.055.057 33.055.171zm-38.079 75.924s-.172 0-.514-.17c-.286-.114-.742-.398-1.142-.796-.913-.853-1.656-2.275-2.512-3.868-.856-1.592-1.656-3.014-2.226-4.038a18.698 18.698 0 01-.857-1.706s.4.569 1.028 1.593c.57 1.023 1.427 2.445 2.283 3.981.857 1.535 1.599 3.014 2.398 3.867.8.91 1.542 1.081 1.542 1.137zm18.668-10.692c.058 0-.057.512-.285 1.251-.228.796-.57 1.82-1.028 3.014a61.771 61.771 0 01-1.256 2.901c-.342.739-.57 1.194-.628 1.137-.057 0 .115-.512.457-1.251.343-.853.742-1.82 1.142-2.957.4-1.081.8-2.105 1.085-2.958.285-.682.456-1.137.513-1.137zm19.24-20.247s-.057.057-.171.114a1.562 1.562 0 01-.457.341c-.4.285-.971.74-1.713 1.308a64.575 64.575 0 01-6.622 4.437 62.244 62.244 0 01-4.853 2.616c-1.827.853-3.768 1.649-5.938 2.218-4.338 1.137-9.362 1.535-14.444.341-2.511-.569-4.91-1.593-6.965-2.844-2.055-1.251-3.882-2.786-5.594-4.265-1.656-1.479-3.255-2.901-4.74-4.152-1.54-1.251-3.025-2.332-4.452-3.185-2.912-1.763-5.538-2.502-7.422-2.673-.914-.057-1.656-.057-2.17-.057-.228 0-.4.057-.57.057h-.172s.057 0 .172-.057c.114 0 .342-.056.57-.056.514-.057 1.256-.057 2.17 0 1.884.17 4.624.853 7.536 2.616 1.484.853 2.969 1.933 4.51 3.185 1.542 1.251 3.083 2.673 4.796 4.151 1.655 1.479 3.482 2.958 5.538 4.209a23.167 23.167 0 006.908 2.787c5.024 1.137 9.99.796 14.272-.342 2.17-.568 4.111-1.365 5.938-2.161 1.77-.853 3.425-1.706 4.853-2.559 2.911-1.706 5.138-3.299 6.679-4.379.742-.569 1.313-.967 1.77-1.308.171-.114.343-.228.457-.342.057.057.114 0 .114 0z" fill="#263238"/><path d="M108.315 208.436l-.114.114a2.477 2.477 0 01-.399.341c-.172.171-.4.341-.686.569-.285.227-.628.455-.97.739-1.484 1.138-3.711 2.616-6.68 4.209-1.484.796-3.14 1.535-4.967 2.275-1.827.739-3.825 1.421-5.994 1.876-.571.114-1.085.228-1.656.285-.285.057-.57.057-.856.113h-.857c-1.141 0-2.34-.056-3.54-.113-2.397-.171-4.909-.455-7.364-1.138-2.455-.682-4.739-1.763-6.623-3.298-1.883-1.479-3.482-3.185-5.023-4.778-1.542-1.535-3.083-2.957-4.74-3.981-1.655-1.08-3.31-1.82-4.909-2.275-3.14-.966-5.88-1.08-7.764-.966a8.57 8.57 0 00-1.256.113c-.343.057-.628.057-.914.114-.228.057-.4.057-.57.114h-.172s.97-.285 2.855-.455c1.827-.171 4.624-.114 7.821.853a22.574 22.574 0 014.967 2.275c1.656 1.024 3.254 2.445 4.796 4.038 1.541 1.535 3.14 3.241 4.967 4.72 1.884 1.479 4.11 2.559 6.565 3.242 2.455.682 4.91.967 7.308 1.137 1.199.057 2.34.114 3.54.114h.856c.285 0 .57-.057.856-.114.571-.057 1.085-.17 1.656-.284 2.17-.455 4.11-1.137 5.937-1.82 1.827-.739 3.483-1.479 4.91-2.275 2.969-1.535 5.195-3.014 6.68-4.095.399-.284.685-.511.97-.739.286-.227.514-.398.685-.569a3.05 3.05 0 00.457-.341c.171.057.228 0 .228 0zm-.057-136.038c0 .057-14.787.17-33.056.17s-33.055-.056-33.055-.17c0-.057 14.786-.17 33.055-.17 18.27 0 33.056.056 33.056.17zm-9.82-26.503l-.514.341c-.342.228-.799.57-1.427 1.081-.57.512-1.256 1.137-2.112 1.877-.857.682-1.884 1.478-3.083 2.16-2.398 1.366-5.595 2.446-9.249 2.901-3.654.455-7.707.171-11.875-.568-2.112-.342-4.11-.853-6.051-1.252a33.284 33.284 0 00-5.652-.682 27.895 27.895 0 00-9.535 1.536c-2.569.91-4.624 1.933-5.766 2.957-.57.512-.97.967-1.256 1.251l-.342.512s.057-.227.285-.512c.228-.341.628-.796 1.199-1.308 1.199-1.024 3.197-2.104 5.823-3.014 2.627-.91 5.88-1.65 9.592-1.593 1.826 0 3.768.285 5.709.683 1.94.398 3.939.853 6.051 1.251 4.168.74 8.164 1.024 11.818.626 3.597-.398 6.794-1.479 9.192-2.787 2.455-1.308 3.996-2.957 5.195-3.867.628-.512 1.085-.797 1.427-1.024.172-.114.286-.17.4-.228.114-.284.171-.34.171-.34z" fill="#263238"/><path d="M97.41 44.701s0 .057-.056.114c-.058.114-.172.227-.286.341-.228.284-.57.74-1.085 1.308-.97 1.08-2.455 2.673-4.681 4.152-2.227 1.422-5.31 2.502-8.85 2.616-3.539.17-7.364-.569-11.189-1.877-1.884-.625-3.768-1.365-5.538-1.877-1.827-.511-3.597-.91-5.366-.91-1.713-.056-3.369.228-4.853.626-1.484.398-2.855.796-4.11 1.251-2.456.91-4.34 1.934-5.653 2.673-.628.341-1.084.683-1.37.967-.285.284-.4.455-.4.455s.115-.17.343-.455c.285-.284.742-.626 1.37-1.024 1.256-.74 3.14-1.82 5.595-2.73a50.245 50.245 0 014.11-1.308c1.485-.398 3.14-.682 4.91-.625 1.77 0 3.597.398 5.424.91 1.827.512 3.654 1.194 5.595 1.877 3.768 1.308 7.593 2.047 11.076 1.876 3.482-.057 6.508-1.137 8.735-2.502 2.226-1.422 3.71-2.957 4.681-4.038.514-.569.856-.967 1.142-1.251.114-.114.228-.228.285-.341.115-.228.172-.228.172-.228z" fill="#263238"/><path d="M106.945 54.597s.286.284.799.91c.514.625 1.199 1.649 1.77 3.128.286.739.514 1.592.628 2.616.114.967.057 2.047.114 3.241v1.82c0 .626.058 1.308-.057 1.934a6.544 6.544 0 01-1.884 3.81V72c0 18.71.057 51.014.057 92.417v.057l-.057.057a2.492 2.492 0 00-.742 1.763c0 .682.228 1.421.742 1.933l.057.057v29.46a3.71 3.71 0 00-.685 2.104c0 .796.229 1.593.685 2.275v18.313c0 1.535.057 3.128-.057 4.72-.114 1.593-.342 3.128-.799 4.721-.4 1.535-.97 3.071-1.656 4.493a11.378 11.378 0 01-1.256 2.104 10.055 10.055 0 01-1.712 1.763 10.09 10.09 0 01-4.51 1.99c-.8.171-1.656.171-2.513.171h-4.966a3.12 3.12 0 01-2.227-1.194c-.285-.342-.457-.683-.685-1.081-.114-.17-.228-.341-.343-.455-.17-.114-.285-.227-.513-.284-.343-.114-.8-.057-1.085.17a1.342 1.342 0 00-.4.398c-.114.171-.171.342-.228.569-.343.796-1.085 1.479-1.941 1.65-.457.113-.857.056-1.313.113h-1.256c-1.713 0-3.426.057-5.139.057-.856 0-1.712 0-2.569.057h-1.313c-.4 0-.856 0-1.313-.057-.856-.114-1.713-.512-2.398-1.024-.685-.568-1.256-1.308-1.541-2.161-.171-.398-.514-.739-.914-.796-.4-.114-.913.057-1.198.341-.286.342-.571.74-.914 1.138-.285.398-.57.796-.97 1.137-.743.683-1.713 1.081-2.684 1.251-.514.057-.97.057-1.484.057h-4.453c-.514-.057-.97 0-1.485-.17l-.742-.114c-.228-.057-.456-.171-.742-.228-1.941-.568-3.54-1.876-4.853-3.412-1.313-1.535-2.226-3.355-2.911-5.232-.685-1.877-1.256-3.811-1.599-5.801a35.826 35.826 0 01-.514-6.029c0-2.047.057-4.037.057-6.085l.172-13.137v.057c-.4-1.422-.514-2.901-.514-4.38 0-1.478.057-2.9.057-4.379.057-2.9.057-5.801.114-8.644.057-2.844.057-5.744.114-8.588 0-1.422.057-2.844.057-4.265 0-.74.115-1.479.457-2.105.171-.341.343-.625.4-.967.057-.341.114-.682.057-1.023-.057-.342-.171-.626-.286-.967-.114-.341-.17-.683-.228-1.081V72.682l.057.114a6.304 6.304 0 01-1.598-2.73 4.772 4.772 0 01-.229-1.536v-4.606c0-1.024.057-2.048.286-3.015.456-1.99 1.484-3.81 2.797-5.289 1.313-1.478 2.626-2.9 3.882-4.322a4022.261 4022.261 0 0014.673-16.322v-6.711l.114.113h-.685c-.229 0-.457-.113-.628-.227-.4-.284-.571-.74-.571-1.137 0-.455.285-.854.685-1.024.171-.114.4-.17.628-.17h.57l-.113.113v-5.744h.114c9.82-.057 18.383-.114 25.976-.114h.057v5.858l-.057-.057h.685c.229.057.457.114.628.284.343.285.514.74.457 1.138-.057.398-.342.74-.685.91-.171.114-.343.114-.514.17h-.514l.058-.056v6.995-.057c6.222 6.313 11.018 11.147 14.215 14.446 1.599 1.649 2.855 2.9 3.654 3.696.971.797 1.37 1.195 1.37 1.195l-1.256-1.252c-.799-.853-2.055-2.047-3.654-3.696-3.254-3.242-8.05-8.076-14.272-14.389v-7.052h.057c.342 0 .685.057 1.027-.17.286-.171.571-.456.571-.797a1.095 1.095 0 00-.4-1.024c-.17-.113-.342-.227-.57-.227-.172-.057-.457 0-.685 0h-.058v-5.858l.058.057c-7.594.057-16.157.114-25.977.17l.114-.113v5.744h-.114c-.4 0-.8-.057-1.085.17-.342.171-.57.512-.57.854-.058.398.17.739.456.966.343.228.742.171 1.2.171h.113v6.995c-4.624 5.176-9.534 10.578-14.672 16.323-1.313 1.421-2.57 2.9-3.882 4.322a11.66 11.66 0 00-2.74 5.175c-.229.967-.286 1.99-.286 2.958v3.07c0 1.024-.057 2.048.228 3.072.286.967.8 1.877 1.542 2.616l.057.057v91.109c0 .341.114.683.171.967.114.341.229.682.286 1.024.057.341 0 .739-.057 1.08-.058.341-.286.683-.4 1.024-.286.625-.4 1.308-.4 1.99 0 1.422-.057 2.844-.057 4.266-.057 2.843-.057 5.687-.114 8.587-.057 2.844-.057 5.745-.114 8.645 0 1.422-.057 2.901-.057 4.379 0 1.422.114 2.901.456 4.323-.057 4.322-.114 8.701-.17 13.137 0 2.047-.058 4.038-.058 6.085 0 1.991.171 4.038.514 5.972a31.51 31.51 0 001.541 5.744c.742 1.82 1.656 3.64 2.912 5.118 1.256 1.479 2.855 2.73 4.681 3.356 1.827.626 3.825.455 5.767.512h1.484c.514 0 .97 0 1.427-.057.914-.114 1.827-.512 2.512-1.138.343-.284.628-.682.914-1.08.285-.398.57-.739.913-1.138.4-.398.97-.568 1.484-.398.514.114.971.512 1.142.967.286.796.8 1.479 1.428 1.991a4.584 4.584 0 002.283.967c.4.056.857.056 1.256.056h1.313c.857 0 1.713 0 2.57-.056 1.712 0 3.425-.057 5.138-.057h1.256c.4 0 .856 0 1.256-.057.799-.171 1.427-.796 1.77-1.536.114-.17.114-.398.285-.569a1.34 1.34 0 01.457-.511c.4-.285.856-.342 1.313-.228.228.057.457.171.628.341.171.171.285.342.4.512.228.342.456.74.684 1.024.457.626 1.257 1.024 2.056 1.081h4.91c.856 0 1.655 0 2.454-.171a9.996 9.996 0 004.339-1.934c.628-.512 1.199-1.08 1.656-1.706.457-.626.856-1.365 1.199-2.047a26.13 26.13 0 001.656-4.436c.399-1.536.685-3.071.742-4.664.114-1.535.057-3.128.057-4.663v-18.199.056c-.514-.739-.742-1.592-.742-2.445 0-.853.285-1.649.742-2.275v-29.232l.057.057c-.571-.569-.856-1.365-.856-2.105 0-.739.342-1.478.856-1.933l-.057.057c.057-41.347.057-73.65.057-92.418 1.085-1.023 1.713-2.445 1.884-3.753.057-.683.057-1.308.057-1.934v-1.82c0-1.194.057-2.275-.057-3.242a10.522 10.522 0 00-.628-2.559c-.571-1.479-1.256-2.502-1.77-3.128a4.29 4.29 0 00-.571-.682c0-.285-.057-.398-.057-.398z" fill="#263238"/><path d="M87.876 25.705c0 .057-5.823.171-13.016.228-7.194.057-13.017 0-13.017-.057s5.823-.17 13.017-.227c7.193-.057 13.016-.057 13.016.056zm.628 2.503c0 .057-5.994.17-13.302.17-7.364 0-13.359-.056-13.359-.17 0-.057 5.995-.17 13.36-.17 7.364.056 13.301.113 13.301.17zm-.742 2.104c0 .057-5.823.17-12.96.17-7.136 0-12.959-.056-12.959-.17 0-.114 5.823-.17 12.96-.17 7.193 0 12.96.056 12.96.17zm0 2.048c0 .057-5.823.17-12.96.17-7.136 0-12.959-.056-12.959-.17 0-.057 5.823-.17 12.96-.17 7.193 0 12.96.056 12.96.17z" fill="#263238"/><path d="M61.843 28.265c.4.682 1.085 1.137 1.827 1.365.742.227 1.542.227 2.34.284 6.795.17 13.588-.114 20.325-.796.571-.057 1.2-.228 1.37-.74-1.084-.056-2.169-.056-3.254-.056-6.451 0-12.96 0-19.41.057H61.5" fill="#E0E0E0"/><path d="M57.333 24.057V4.379S57.162.398 75.031.398c16.271 0 16.214 4.607 16.214 4.607v19.052H57.333z" fill="#E8505B"/><path d="M59.56 20.133c-.057 0-.172-3.413-.172-7.564 0-4.152.058-7.564.172-7.564.057 0 .171 3.412.171 7.564 0 4.208-.057 7.564-.171 7.564zm3.026 0c-.057 0-.172-3.583-.172-7.962 0-4.436.057-7.963.172-7.963.057 0 .17 3.583.17 7.963 0 4.379-.056 7.962-.17 7.962zm2.968 0c-.057 0-.17-3.697-.17-8.304 0-4.55.056-8.303.17-8.303.115 0 .172 3.697.172 8.303-.057 4.607-.114 8.303-.172 8.303zm2.912 0c-.057 0-.171-3.81-.171-8.474s.057-8.474.171-8.474c.057 0 .171 3.81.171 8.473-.057 4.664-.114 8.475-.171 8.475zm2.911 0c-.057 0-.17-3.81-.17-8.474s.056-8.474.17-8.474c.115 0 .172 3.81.172 8.473-.057 4.664-.114 8.475-.172 8.475zm2.913 0c-.058 0-.172-3.81-.172-8.474s.057-8.474.171-8.474c.114 0 .171 3.81.171 8.473 0 4.664-.114 8.475-.17 8.475zm2.91 0c-.056 0-.17-3.81-.17-8.474s.057-8.474.17-8.474c.058 0 .172 3.81.172 8.473 0 4.664-.057 8.475-.171 8.475zm2.912 0c-.057 0-.17-3.81-.17-8.474s.056-8.474.17-8.474c.058 0 .172 3.81.172 8.473 0 4.664-.057 8.475-.172 8.475zm2.912 0c-.057 0-.171-3.64-.171-8.19 0-4.55.057-8.19.171-8.19.114 0 .171 3.64.171 8.19 0 4.55-.057 8.19-.171 8.19zm2.969 0c-.057 0-.171-3.526-.171-7.848 0-4.323.057-7.849.17-7.849.058 0 .172 3.526.172 7.848-.057 4.323-.114 7.849-.171 7.849zm2.911 0c-.057 0-.17-3.299-.17-7.394 0-4.094.056-7.393.17-7.393.058 0 .172 3.299.172 7.393-.057 4.095-.114 7.394-.171 7.394z" fill="#263238"/><path d="M90.103 5.744s-.114 0-.342-.057c-.228-.057-.514-.17-.914-.284-.4-.114-.856-.285-1.427-.455-.57-.17-1.199-.341-1.941-.512-.742-.17-1.484-.341-2.34-.512-.857-.17-1.77-.284-2.741-.455-1.941-.227-4.053-.455-6.337-.455-2.227 0-4.396.17-6.337.398-.97.114-1.884.228-2.74.398-.857.114-1.656.342-2.341.512-.743.17-1.37.341-1.941.512-.571.17-1.028.284-1.428.398-.4.114-.685.228-.913.285-.229.056-.343.056-.343.056s.114-.056.286-.113c.228-.057.514-.17.913-.342.4-.113.857-.284 1.427-.455.571-.17 1.2-.34 1.942-.511.742-.171 1.484-.398 2.397-.512.857-.17 1.77-.285 2.74-.455a55.059 55.059 0 016.395-.398c2.284 0 4.396.227 6.394.455.97.17 1.884.284 2.74.512.857.17 1.656.34 2.341.568.742.17 1.37.398 1.941.569.571.17 1.028.341 1.428.455.342.114.685.227.913.341.114 0 .228.057.228.057zm.172 14.446c0 .056-7.08.17-15.815.17-8.734 0-15.814-.057-15.814-.17 0-.114 7.08-.171 15.814-.171 8.735 0 15.815.114 15.815.17z" fill="#263238"/><path d="M111.772 100.493H39.147v46.976h72.625s.467-6.394 0-22.99c-.468-16.596 0-23.986 0-23.986z" fill="#fff"/><path d="M108.314 100.493H41.576v46.976h66.738s.43-7.983 0-24.578c-.43-16.596 0-22.398 0-22.398z" fill="#E8505B"/><path d="M49.538 144.27c-1.328 0 0-8.36 0-18.711 0-10.351-2.657-18.711 0-18.711 1.329 0 0 8.36 0 18.711 0 10.294 1.329 18.711 0 18.711z" fill="#fff"/><path d="M110.563 120.475l3.329-2.376a12.644 12.644 0 01-2.17-1.818.847.847 0 01-.219-.531.919.919 0 01.145-.57.596.596 0 01.425-.274.55.55 0 01.456.182c7.796 8.247 28.012 2.925 28.202 2.874 4.937-1.456 5.769-3.352 5.769-7.052V81.856l-10.941-5.04-2.702 6.754 3.279 5.47 5.86-1.548a.525.525 0 01.471.11c.139.113.236.29.27.493a.944.944 0 01-.088.588.64.64 0 01-.394.338l-1.029.271a86.651 86.651 0 00-3.702 16.449c.4.452.636.758.679.815a.784.784 0 01.135.258.959.959 0 01-.008.604.81.81 0 01-.141.253.649.649 0 01-.209.164.535.535 0 01-.244.05.526.526 0 01-.24-.072.646.646 0 01-.199-.182c-.052-.068-5.267-6.828-12.054-6.937h-.166c-3.781 0-7.358 2.075-10.635 6.172a.566.566 0 01-.44.219.572.572 0 01-.436-.229.883.883 0 01-.183-.545.89.89 0 01.175-.55 25.838 25.838 0 011.831-2.056 6.113 6.113 0 00-2.088-1.614 5.06 5.06 0 00-2.426-.469.568.568 0 01-.442-.229.89.89 0 01-.183-.552c0-.207.066-.406.183-.553a.57.57 0 01.442-.228 5.987 5.987 0 012.992.606c.952.462 1.816 1.168 2.536 2.074 2.561-2.373 5.669-3.64 8.856-3.61 4.911.077 8.954 3.263 11.154 5.438a90.08 90.08 0 013.337-14.888l-3.743.987a.506.506 0 01-.35-.032.662.662 0 01-.282-.263l-3.75-6.25a.905.905 0 01-.122-.398.969.969 0 01.063-.42l3.125-7.812a.706.706 0 01.329-.377.509.509 0 01.446-.007l11.875 5.469c.12.055.224.155.297.286a.923.923 0 01.112.447v29.6c0 4.922-1.699 7.088-6.743 8.576a61.532 61.532 0 01-11.437 1.719c-.855.044-1.685.066-2.49.066-4.849 0-8.8-.79-11.816-2.357l-4.076 2.917a.53.53 0 01-.695-.057.82.82 0 01-.224-.419.971.971 0 01.027-.502.755.755 0 01.267-.378z" fill="#000"/><path d="M118.58 111.821c7.673 3.321 11.889.134 11.959.078a.526.526 0 01.471-.105.641.641 0 01.392.342c.09.174.12.386.085.588a.804.804 0 01-.274.491c-.125.102-2.172 1.694-5.972 1.694a17.832 17.832 0 01-7.07-1.613.698.698 0 01-.355-.397.96.96 0 01-.027-.595.747.747 0 01.315-.446.513.513 0 01.476-.038v.001zm-79.677 8.654l-3.33-2.376a12.64 12.64 0 002.17-1.818.855.855 0 00.22-.531.92.92 0 00-.145-.57.596.596 0 00-.425-.274.548.548 0 00-.456.182c-7.796 8.247-28.012 2.925-28.203 2.874-4.936-1.456-5.768-3.352-5.768-7.052V81.856l10.94-5.04 2.703 6.754-3.28 5.47-5.86-1.548a.524.524 0 00-.47.11.806.806 0 00-.27.493.946.946 0 00.088.588.64.64 0 00.394.338l1.028.271a86.667 86.667 0 013.703 16.449c-.4.452-.636.758-.68.815a.813.813 0 00-.135.258.95.95 0 00.008.604.816.816 0 00.142.253c.06.071.132.127.21.164.077.036.16.053.242.05a.524.524 0 00.24-.072.643.643 0 00.2-.182c.052-.068 5.267-6.828 12.054-6.937h.166c3.78 0 7.358 2.075 10.635 6.172a.566.566 0 00.44.219.57.57 0 00.436-.229.887.887 0 00.183-.545.895.895 0 00-.175-.55 25.698 25.698 0 00-1.831-2.056 6.122 6.122 0 012.088-1.614 5.062 5.062 0 012.426-.469.568.568 0 00.441-.229.888.888 0 00.184-.552.893.893 0 00-.184-.553.57.57 0 00-.441-.228 5.986 5.986 0 00-2.992.606c-.952.462-1.817 1.168-2.536 2.074-2.56-2.373-5.67-3.64-8.856-3.61-4.91.077-8.955 3.263-11.155 5.438A90.026 90.026 0 009.716 89.68l3.743.987c.117.032.238.02.35-.032a.66.66 0 00.282-.263l3.75-6.25a.952.952 0 00.059-.817l-3.126-7.813a.704.704 0 00-.328-.377.51.51 0 00-.447-.007L2.124 80.577a.665.665 0 00-.296.286.923.923 0 00-.112.447v29.6c0 4.922 1.698 7.088 6.743 8.576a61.53 61.53 0 0011.437 1.719c.855.044 1.685.066 2.49.066 4.849 0 8.8-.79 11.816-2.357l4.076 2.917a.529.529 0 00.694-.057.814.814 0 00.224-.419.964.964 0 00-.026-.502.756.756 0 00-.267-.378z" fill="#000"/><path d="M30.886 111.821c-7.674 3.321-11.89.134-11.96.078a.526.526 0 00-.47-.105.644.644 0 00-.393.342.946.946 0 00-.084.588.803.803 0 00.274.491c.125.102 2.171 1.694 5.972 1.694a17.832 17.832 0 007.07-1.613.697.697 0 00.355-.397.963.963 0 00.027-.595.75.75 0 00-.315-.446.512.512 0 00-.476-.038v.001z" fill="#000"/></svg>