<svg width="137" height="241" fill="none" xmlns="http://www.w3.org/2000/svg"><path d="M95.01 65.516L79.047 48.814v-6.042h.334c.477 0 .953-.344 1.048-.836.095-.638-.38-1.228-1-1.228H79v-5.06l-21.677.148v4.863h-.43c-.476 0-.952.344-1.047.835-.096.639.38 1.228 1 1.228h.477v5.846l-15.628 17.98c-1.572 1.818-2.43 4.176-2.43 6.583v4.175c0 1.425.524 2.8 1.525 3.783v78.453c0 .442.095.884.286 1.326.238.688.19 1.425-.143 2.064-.286.589-.477 1.228-.477 1.866l-.238 22.696c0 1.179.095 2.358.429 3.488l-.19 16.211c-.048 2.653.238 5.257.905 7.811 1.19 4.667 3.859 10.562 9.91 10.562h4.145c1.239 0 2.382-.589 3.144-1.621l.953-1.277c.572-.786 1.763-.59 2.097.344.571 1.67 2.144 2.751 3.811 2.702l9.577-.148c1 0 1.81-.737 2.096-1.719.334-.983 1.62-1.13 2.144-.246l.572.884c.476.737 1.239 1.179 2.049 1.179h4.621c2.954 0 5.718-1.67 7.147-4.323.047-.049.047-.098.095-.147 1.62-3.144 2.43-6.681 2.43-10.218v-18.127a3.482 3.482 0 010-3.93v-25.3a2.415 2.415 0 01-.095-3.242l.095-.098v-79.73l.095-.099a5.481 5.481 0 001.525-3.782v-4.225c0-2.555-1-5.06-2.763-6.927z" fill="#F5F5F5"/><path d="M87.673 68.317c3.287-.786 6.527 1.719 6.575 5.207v3.881c0 1.277-.477 2.554-1.334 3.439l-.096.098v72.852l-.095.099c-.715.835-.667 2.161.095 2.947v23.089a3.267 3.267 0 000 3.586v16.555c0 3.242-.714 6.485-2.144 9.334 0 .049-.047.098-.047.147-1.239 2.457-3.669 3.93-6.29 3.93H80.24l-6.146-.098-8.48.148-8.863-.148h-3.668c-5.336 0-7.719-5.355-8.767-9.628-.572-2.309-.81-4.716-.762-7.124l.19-14.786c-.285-1.032-.38-2.113-.38-3.193l.238-20.731c0-.59.143-1.179.428-1.72a2.429 2.429 0 00.096-1.915c-.143-.393-.239-.786-.239-1.179V81.531a5.082 5.082 0 01-1.334-3.439v-3.881c0-3.34 2.383-6.19 5.575-6.926 3.287-.737 8.576-1.425 13.77 0 8.527 2.309 8.67 3.586 14.769 3.046 3.383-.344 7.814-1.278 11.006-2.014z" fill="#E8505B"/><path opacity=".5" d="M87.673 68.317c3.287-.786 6.527 1.719 6.575 5.207v3.881c0 1.277-.477 2.554-1.334 3.439l-.096.098v72.852l-.095.099c-.715.835-.667 2.161.095 2.947v23.089a3.267 3.267 0 000 3.586v16.555c0 3.242-.714 6.485-2.144 9.334 0 .049-.047.098-.047.147-1.239 2.457-3.669 3.93-6.29 3.93H80.24l-6.146-.098-8.48.148-8.863-.148h-3.668c-5.336 0-7.719-5.355-8.767-9.628-.572-2.309-.81-4.716-.762-7.124l.19-14.786c-.285-1.032-.38-2.113-.38-3.193l.238-20.731c0-.59.143-1.179.428-1.72a2.429 2.429 0 00.096-1.915c-.143-.393-.239-.786-.239-1.179V81.531a5.082 5.082 0 01-1.334-3.439v-3.881c0-3.34 2.383-6.19 5.575-6.926 3.287-.737 8.576-1.425 13.77 0 8.527 2.309 8.67 3.586 14.769 3.046 3.383-.344 7.814-1.278 11.006-2.014z" fill="#fff"/><path d="M96.725 81.139c0 .049-12.483.147-27.92.147-15.437 0-27.92-.05-27.92-.147 0-.05 12.483-.148 27.92-.148 15.39 0 27.92.05 27.92.148z" fill="#263238"/><path d="M43.935 114.789c2.668-5.797 8.004-10.267 14.102-11.741 5.718-1.376 11.911-.295 17.39-2.555 5.718-2.358 9.482-7.909 12.436-13.46 1.143-2.161 2.573-4.568 4.955-4.863-.62 1.72.381 3.782-.429 5.354-.286.54-.762.983-1.19 1.376-3.431 3.34-5.67 7.713-7.624 12.134-1.191 2.702-2.382 5.6-4.622 7.516-1.62 1.376-3.668 2.162-5.717 2.555-5.288.982-10.958-.344-15.96 1.621-3.86 1.473-6.814 4.765-8.863 8.449-2.048 3.685-3.192 7.762-4.383 11.839" fill="#fff"/><path d="M94.295 75.145c0 .148-.858.246-2.287.884-1.43.639-3.288 1.965-5.098 4.176-.905 1.08-1.81 2.358-2.716 3.783-.905 1.424-1.81 2.996-2.859 4.667-1.048 1.62-2.239 3.34-3.811 4.814-1.525 1.523-3.43 2.75-5.527 3.586a17.39 17.39 0 01-6.432 1.228c-2.096-.049-4.05-.393-5.86-.393-3.621-.049-6.861 1.08-9.29 2.456a18.397 18.397 0 00-3.098 2.162c-.857.688-1.524 1.424-2.096 1.965-1.048 1.179-1.572 1.916-1.668 1.867-.047-.05.048-.246.239-.639.19-.393.524-.933 1-1.621.524-.639 1.143-1.425 2.001-2.211.858-.835 1.858-1.67 3.145-2.407 2.477-1.523 5.86-2.85 9.767-2.898 1.953 0 3.907.295 5.86.295a15.65 15.65 0 005.908-1.18 15.888 15.888 0 005.098-3.29c1.43-1.376 2.62-2.948 3.669-4.52 1.048-1.572 2-3.144 2.954-4.57.953-1.424 1.905-2.75 2.954-3.83 2-2.212 4.097-3.489 5.622-3.98 1.62-.491 2.525-.393 2.525-.344zM43.696 180.666c2.001-2.063 5.146-2.456 7.957-2.112 2.811.343 5.574 1.277 8.386 1.277 3.906 0 7.813-1.818 10.386-4.864.953-1.129 1.715-2.407 2.668-3.586 2.335-2.849 5.67-4.814 9.243-5.453 1.62-.294 3.288-.294 4.765-.933 3.097-1.277 4.669-4.716 6.003-7.86-.19 5.158-.429 10.267-.62 15.425-5.288-1.031-10.29 2.506-14.436 6.043-4.145 3.537-8.624 7.516-14.007 7.516-2.86 0-5.67-1.13-8.529-1.032-5.384.197-9.672 4.569-13.293 8.646" fill="#fff"/><path d="M94.295 156.84c0 .098-.81.147-2.192.54-.715.148-1.524.492-2.477.885a22.225 22.225 0 00-3.002 1.768 29.783 29.783 0 00-3.287 2.653c-1.144 1.032-2.287 2.211-3.526 3.488-1.239 1.277-2.525 2.603-4.002 3.881-1.477 1.277-3.097 2.505-4.955 3.488-1.858.982-3.86 1.522-5.813 1.719-1.953.196-3.811.147-5.527.098-1.715-.098-3.383-.196-4.907-.196-1.525 0-2.907.098-4.193.294-1.239.197-2.382.492-3.335.885a12.38 12.38 0 00-2.287 1.228c-1.191.835-1.715 1.474-1.81 1.424-.048-.049.333-.835 1.477-1.866a10.957 10.957 0 012.334-1.523c.953-.491 2.144-.884 3.43-1.13 1.335-.295 2.764-.442 4.336-.491 1.573-.049 3.24.049 4.955.098 1.715.049 3.526.049 5.336-.147a15.24 15.24 0 005.337-1.622c1.715-.884 3.287-2.063 4.669-3.242 1.43-1.228 2.716-2.505 3.954-3.733 1.24-1.228 2.478-2.407 3.669-3.439 1.191-1.032 2.382-1.916 3.526-2.604 1.143-.737 2.239-1.277 3.24-1.621 1-.344 1.905-.589 2.62-.688 1.62-.393 2.43-.245 2.43-.147zm-50.742 49.223c5.622 3.488 13.007 2.457 18.82-.638 5.813-3.095 10.482-8.057 15.342-12.625 4.86-4.569 10.148-8.99 16.532-10.611a5.156 5.156 0 01-.953-2.751c-7.337 3.34-14.865 6.779-20.487 12.674-1.953 2.014-3.62 4.323-5.813 6.14-2.096 1.72-4.526 2.85-7.003 3.832-4.955 2.014-10.34 3.537-15.628 2.8-.429-.049-.905-.098-1.19.246-.287.344.19.982.476.639m41.546-54.087c0 .835-.667 1.523-1.477 1.523s-1.477-.688-1.477-1.523.667-1.523 1.477-1.523 1.477.688 1.477 1.523zm-7.242 3.193a.712.712 0 01-.715.737c-.429 0-.715-.344-.715-.737 0-.442.334-.737.715-.737.43 0 .715.344.715.737z" fill="#fff"/><path d="M61.277 197.025c.395 0 .715-.33.715-.737a.726.726 0 00-.715-.737.726.726 0 00-.715.737c0 .407.32.737.715.737z" fill="#fff"/><path d="M96.153 164.012c0 .049-12.53.148-27.968.148-15.436 0-27.967-.05-27.967-.148 0-.098 12.53-.147 27.967-.147 15.437.049 27.968.098 27.968.147zm-.143 25.398c0 .049-12.483.147-27.92.147-15.437 0-27.92-.049-27.92-.147 0-.049 12.483-.147 27.92-.147 15.437.049 27.92.098 27.92.147zm.334 3.783c0 .049-12.483.147-27.92.147-15.437 0-27.92-.049-27.92-.147 0-.049 12.483-.148 27.92-.148 15.437 0 27.92.049 27.92.148zm-.191-33.062c0 .05-12.34.148-27.586.148-15.247 0-27.586-.049-27.586-.148 0-.049 12.34-.147 27.586-.147 15.198 0 27.586.049 27.586.147zm-31.779 65.582s-.143 0-.429-.147c-.238-.098-.62-.344-.953-.688-.762-.737-1.381-1.965-2.096-3.34-.715-1.376-1.382-2.604-1.858-3.488-.477-.884-.715-1.474-.715-1.474s.334.491.858 1.376c.476.884 1.19 2.112 1.905 3.438.715 1.327 1.334 2.604 2.002 3.341.666.786 1.286.933 1.286.982zm15.58-9.235c.047 0-.048.442-.238 1.081a33.61 33.61 0 01-.858 2.603 54.245 54.245 0 01-1.048 2.506c-.286.638-.477 1.031-.524.982-.048 0 .095-.442.38-1.08.287-.737.62-1.572.954-2.555.333-.933.667-1.818.905-2.554.238-.59.381-.983.429-.983zM96.01 198.99s-.048.049-.143.098c-.095.098-.19.196-.381.295-.334.245-.81.638-1.43 1.129a53.763 53.763 0 01-5.526 3.832 51.402 51.402 0 01-4.05 2.26c-1.525.737-3.145 1.425-4.955 1.916-3.621.982-7.814 1.326-12.054.295-2.097-.492-4.098-1.376-5.813-2.457-1.715-1.08-3.24-2.407-4.669-3.684a192.862 192.862 0 00-3.954-3.586c-1.287-1.081-2.526-2.014-3.717-2.751-2.43-1.523-4.621-2.162-6.194-2.309-.762-.049-1.381-.049-1.81-.049-.19 0-.334.049-.477.049h-.142s.047 0 .142-.049c.096 0 .286-.049.477-.049.429-.049 1.048-.049 1.81 0 1.573.147 3.86.737 6.29 2.259 1.238.737 2.477 1.671 3.764 2.751 1.286 1.081 2.572 2.309 4.002 3.587 1.381 1.277 2.906 2.554 4.621 3.635a18.944 18.944 0 005.765 2.407c4.193.982 8.338.688 11.911-.295 1.81-.491 3.43-1.179 4.955-1.867 1.477-.736 2.86-1.473 4.05-2.21 2.43-1.474 4.288-2.849 5.575-3.783.619-.491 1.095-.835 1.477-1.13.142-.098.285-.196.38-.294.048.049.096 0 .096 0z" fill="#263238"/><path d="M96.153 198.4l-.095.098a2.14 2.14 0 01-.334.295c-.143.147-.333.294-.572.491-.238.196-.524.393-.81.639-1.238.982-3.096 2.259-5.574 3.635-1.239.688-2.62 1.326-4.145 1.965-1.525.639-3.192 1.228-5.003 1.621-.476.098-.905.196-1.381.246-.239.049-.477.049-.715.098h-.715c-.953 0-1.953-.049-2.954-.098-2-.148-4.097-.393-6.146-.983-2.049-.589-3.954-1.523-5.527-2.849-1.572-1.277-2.906-2.751-4.192-4.127-1.287-1.326-2.573-2.554-3.955-3.438-1.382-.934-2.763-1.572-4.097-1.965-2.62-.836-4.908-.934-6.48-.836-.381 0-.715.05-1.048.099-.286.049-.524.049-.762.098-.191.049-.334.049-.477.098h-.143s.81-.245 2.382-.393c1.525-.147 3.86-.098 6.528.737a18.552 18.552 0 014.145 1.965c1.381.884 2.715 2.112 4.002 3.488 1.286 1.326 2.62 2.8 4.145 4.077 1.572 1.278 3.43 2.211 5.48 2.8 2.048.59 4.097.836 6.098.983 1 .049 1.953.098 2.954.098h.714c.239 0 .477-.049.715-.098.476-.049.905-.147 1.382-.246 1.81-.393 3.43-.982 4.955-1.572 1.524-.638 2.906-1.277 4.097-1.965a42.842 42.842 0 005.575-3.537c.333-.245.571-.442.81-.638.238-.197.428-.344.571-.492.143-.098.286-.196.381-.294.143.049.19 0 .19 0zm-.048-117.508c0 .05-12.34.148-27.586.148-15.246 0-27.586-.05-27.586-.148 0-.049 12.34-.147 27.586-.147 15.246 0 27.586.05 27.586.147zM87.91 58.001l-.428.295c-.286.196-.668.491-1.192.933-.476.442-1.048.983-1.763 1.621-.714.59-1.572 1.277-2.572 1.867-2.001 1.179-4.67 2.112-7.719 2.505-3.049.393-6.432.148-9.91-.49-1.763-.296-3.43-.738-5.05-1.082a26.873 26.873 0 00-4.717-.59 22.591 22.591 0 00-7.957 1.327c-2.144.786-3.859 1.67-4.812 2.555-.476.442-.81.835-1.048 1.08l-.286.443s.048-.197.238-.443c.191-.294.524-.687 1-1.13 1.002-.884 2.669-1.817 4.86-2.603 2.192-.786 4.908-1.425 8.005-1.376 1.525 0 3.145.246 4.765.59 1.62.344 3.287.737 5.05 1.08 3.478.64 6.813.885 9.862.541 3.002-.344 5.67-1.277 7.671-2.407 2.049-1.13 3.335-2.554 4.336-3.34.524-.443.905-.688 1.19-.885.144-.098.239-.147.334-.196.096-.246.143-.295.143-.295z" fill="#263238"/><path d="M87.053 56.969s0 .049-.047.098a1.296 1.296 0 01-.239.295c-.19.245-.476.638-.905 1.13-.81.933-2.048 2.309-3.907 3.586-1.858 1.228-4.43 2.161-7.385 2.26-2.953.147-6.146-.492-9.338-1.622-1.572-.54-3.144-1.179-4.621-1.62-1.525-.443-3.002-.787-4.479-.787-1.43-.049-2.811.197-4.05.54-1.239.345-2.382.688-3.43 1.081-2.049.786-3.621 1.67-4.717 2.31-.524.294-.905.589-1.144.834-.238.246-.333.393-.333.393s.095-.147.286-.393c.238-.245.62-.54 1.143-.884 1.048-.639 2.62-1.572 4.67-2.358a40.866 40.866 0 013.43-1.13c1.239-.344 2.62-.59 4.097-.54 1.477 0 3.002.344 4.527.786 1.524.442 3.049 1.032 4.669 1.621 3.144 1.13 6.337 1.769 9.243 1.621a14.15 14.15 0 007.29-2.161c1.858-1.229 3.096-2.555 3.906-3.488.43-.491.715-.835.953-1.081.096-.098.19-.197.239-.295.095-.196.142-.196.142-.196z" fill="#263238"/><path d="M95.01 65.517s.238.245.667.786c.428.54 1 1.424 1.477 2.702.238.638.428 1.375.524 2.26.095.835.047 1.768.095 2.8v1.572c0 .54.048 1.13-.048 1.67a5.733 5.733 0 01-1.572 3.291v-.049c0 16.162.048 44.065.048 79.828v.049l-.048.05c-.381.393-.62.933-.62 1.522 0 .59.191 1.229.62 1.671l.048.049v25.447a3.276 3.276 0 00-.572 1.817c0 .688.19 1.376.572 1.965v15.819c0 1.326.047 2.701-.048 4.077-.095 1.375-.286 2.702-.667 4.077a22 22 0 01-1.382 3.881 9.927 9.927 0 01-1.048 1.818 8.58 8.58 0 01-1.43 1.523 8.284 8.284 0 01-3.763 1.719c-.667.147-1.382.148-2.097.148h-4.145a2.583 2.583 0 01-1.858-1.032c-.238-.295-.38-.59-.572-.933a2.732 2.732 0 00-.285-.394c-.143-.098-.239-.196-.43-.245-.285-.098-.666-.049-.904.147a1.145 1.145 0 00-.334.344 1.507 1.507 0 00-.19.491c-.286.688-.906 1.278-1.62 1.425-.382.098-.715.049-1.096.098h-1.048c-1.43 0-2.86.049-4.288.049-.715 0-1.43 0-2.144.05h-1.096c-.334 0-.715 0-1.096-.05-.715-.098-1.43-.442-2.001-.884-.572-.491-1.048-1.13-1.287-1.867l.096.099-.096-.099c-.142-.343-.428-.638-.762-.687-.333-.099-.762.049-1 .294-.239.295-.477.639-.763.983-.238.344-.476.688-.81.982-.62.59-1.429.934-2.239 1.081-.429.049-.81.049-1.239.049h-3.716c-.429-.049-.81 0-1.239-.147l-.62-.098c-.19-.049-.38-.148-.619-.197-1.62-.491-2.954-1.621-4.05-2.947-1.095-1.327-1.857-2.899-2.43-4.52-.571-1.621-1.047-3.291-1.333-5.011a31.997 31.997 0 01-.43-5.207c0-1.768.049-3.488.049-5.256l.142-11.348v.049c-.333-1.228-.428-2.505-.428-3.783 0-1.277.047-2.505.047-3.782.048-2.506.048-5.011.096-7.467.047-2.457.047-4.962.095-7.418 0-1.228.048-2.457.048-3.685 0-.638.095-1.277.38-1.817.144-.295.287-.541.334-.835.048-.295.096-.59.048-.885-.048-.294-.143-.54-.238-.835a5.352 5.352 0 01-.19-.933v-78.65l.047.099a5.49 5.49 0 01-1.334-2.358 4.254 4.254 0 01-.19-1.327v-3.979c0-.884.047-1.768.237-2.603.382-1.72 1.24-3.292 2.335-4.569 1.096-1.277 2.192-2.505 3.24-3.734a3342.97 3342.97 0 0012.244-14.099v-5.796l.096.098h-.572c-.19 0-.381-.098-.524-.197-.334-.245-.477-.638-.477-.982 0-.393.239-.737.572-.884a.938.938 0 01.524-.148h.477l-.096.099v-4.962h.096c8.195-.05 15.341-.098 21.678-.098h.048v5.059l-.048-.048h.572c.19.049.38.098.524.245.286.246.429.639.381.983a1.079 1.079 0 01-.572.786c-.143.098-.286.098-.428.147h-.43l.048-.05v6.043-.049c5.194 5.453 9.196 9.629 11.864 12.478a229.842 229.842 0 003.05 3.193c.81.688 1.143 1.032 1.143 1.032l-1.049-1.081c-.667-.737-1.715-1.769-3.049-3.193a2038.79 2038.79 0 01-11.911-12.429v-6.092h.048c.285 0 .571.05.857-.147.238-.147.477-.393.477-.688a.963.963 0 00-.334-.884c-.143-.098-.286-.196-.476-.196-.143-.05-.381 0-.572 0h-.048v-5.06l.048.049c-6.337.05-13.484.098-21.678.147l.095-.098v4.962h-.095c-.334 0-.667-.05-.906.147-.285.148-.476.442-.476.737-.048.344.143.639.381.835.286.197.62.147 1 .147h.096v6.043c-3.86 4.47-7.957 9.137-12.245 14.099-1.096 1.228-2.144 2.505-3.24 3.733a10.19 10.19 0 00-2.286 4.47c-.191.836-.239 1.72-.239 2.555v2.653c0 .884-.047 1.769.19 2.653a5.342 5.342 0 001.287 2.26l.048.049v78.698c0 .295.095.59.143.835.095.295.19.59.238.884.048.295 0 .639-.048.934-.047.295-.238.589-.333.884-.238.54-.334 1.13-.334 1.719 0 1.229-.047 2.457-.047 3.685-.048 2.456-.048 4.912-.096 7.418-.047 2.456-.047 4.961-.095 7.467 0 1.228-.047 2.505-.047 3.782 0 1.229.095 2.506.38 3.734l-.142 11.348c0 1.768-.048 3.488-.048 5.256 0 1.72.143 3.488.429 5.158.286 1.72.715 3.39 1.286 4.962.62 1.572 1.382 3.144 2.43 4.421 1.048 1.278 2.382 2.358 3.907 2.899 1.525.54 3.192.393 4.812.442h1.239c.429 0 .81 0 1.191-.049a3.805 3.805 0 002.096-.983c.286-.245.525-.589.763-.933.238-.344.476-.639.762-.983.334-.344.81-.491 1.239-.344.429.099.81.443.953.836l-.096-.099.096.099a3.962 3.962 0 001.19 1.719 3.758 3.758 0 001.907.835c.333.049.714.049 1.048.049h1.096c.714 0 1.429 0 2.144-.049 1.429 0 2.858-.049 4.288-.049h1.048c.333 0 .715 0 1.048-.049.667-.148 1.191-.688 1.477-1.327.095-.147.095-.343.238-.491a1.15 1.15 0 01.381-.442c.334-.246.715-.295 1.096-.196.19.049.381.147.524.294.143.148.239.295.334.442.19.295.38.639.571.885.382.54 1.049.884 1.716.933h4.098c.714 0 1.38 0 2.048-.147a8.21 8.21 0 003.62-1.671 7.974 7.974 0 001.383-1.473c.38-.541.714-1.179 1-1.769a22.991 22.991 0 001.382-3.832c.333-1.326.572-2.652.62-4.028.095-1.326.047-2.702.047-4.028v-15.72.049a3.762 3.762 0 01-.62-2.112c0-.737.239-1.425.62-1.965v-25.251l.047.049c-.476-.491-.714-1.179-.714-1.817 0-.639.286-1.278.715-1.671l-.048.05c.047-35.714.047-63.617.047-79.829.906-.884 1.43-2.112 1.573-3.242.047-.59.047-1.13.047-1.67v-1.572c0-1.032.048-1.965-.047-2.8a9.336 9.336 0 00-.524-2.211c-.477-1.277-1.048-2.162-1.477-2.702a3.71 3.71 0 00-.477-.59c0-.245-.047-.343-.047-.343z" fill="#263238"/><path d="M79.096 40.561c0 .05-4.86.147-10.863.197-6.003.049-10.863 0-10.863-.05 0-.049 4.86-.147 10.863-.196 6.003-.05 10.863-.05 10.863.049zm.524 2.161c0 .05-5.002.148-11.1.148-6.147 0-11.15-.05-11.15-.148 0-.049 5.003-.147 11.15-.147 6.145.049 11.1.098 11.1.147zM79 44.54c0 .049-4.859.147-10.814.147-5.956 0-10.816-.049-10.816-.147 0-.098 4.86-.148 10.816-.148 6.003 0 10.815.05 10.815.148zm0 1.769c0 .049-4.859.147-10.814.147-5.956 0-10.816-.05-10.816-.148 0-.049 4.86-.147 10.816-.147 6.003 0 10.815.05 10.815.148z" fill="#263238"/><path d="M57.37 42.771c.334.59.906.983 1.525 1.18.62.196 1.286.196 1.953.245 5.67.147 11.34-.098 16.962-.688.476-.049 1-.196 1.143-.638-.905-.05-1.81-.05-2.716-.05-5.383 0-10.815 0-16.199.05h-2.954" fill="#E0E0E0"/><path d="M53.606 39.136V22.14s-.143-3.439 14.77-3.439c13.579 0 13.531 3.98 13.531 3.98v16.456h-28.3z" fill="#E8505B"/><path d="M55.465 35.747c-.048 0-.144-2.948-.144-6.534s.048-6.534.144-6.534c.047 0 .142 2.948.142 6.534 0 3.635-.047 6.534-.142 6.534zm2.525 0c-.048 0-.143-3.095-.143-6.878 0-3.831.047-6.877.143-6.877.047 0 .143 3.095.143 6.877 0 3.783-.048 6.878-.143 6.878zm2.477 0c-.047 0-.143-3.193-.143-7.172 0-3.93.048-7.173.143-7.173.095 0 .143 3.193.143 7.172-.048 3.98-.095 7.173-.143 7.173zm2.43 0c-.048 0-.143-3.292-.143-7.32 0-4.028.048-7.32.143-7.32.048 0 .143 3.292.143 7.32-.048 4.028-.095 7.32-.143 7.32zm2.43 0c-.048 0-.143-3.292-.143-7.32 0-4.028.048-7.32.143-7.32.095 0 .143 3.292.143 7.32-.048 4.028-.096 7.32-.143 7.32zm2.43 0c-.048 0-.143-3.292-.143-7.32 0-4.028.047-7.32.143-7.32.095 0 .143 3.292.143 7.32 0 4.028-.096 7.32-.143 7.32zm2.43 0c-.048 0-.143-3.292-.143-7.32 0-4.028.047-7.32.143-7.32.047 0 .143 3.292.143 7.32 0 4.028-.048 7.32-.143 7.32zm2.429 0c-.047 0-.142-3.292-.142-7.32 0-4.028.047-7.32.142-7.32.048 0 .143 3.292.143 7.32 0 4.028-.047 7.32-.143 7.32zm2.43 0c-.047 0-.143-3.144-.143-7.074 0-3.93.048-7.074.143-7.074.096 0 .143 3.144.143 7.074 0 3.93-.047 7.074-.143 7.074zm2.478 0c-.048 0-.143-3.046-.143-6.78 0-3.733.048-6.779.143-6.779.048 0 .143 3.046.143 6.78-.048 3.733-.095 6.779-.143 6.779zm2.43 0c-.048 0-.143-2.85-.143-6.387 0-3.537.048-6.386.143-6.386.047 0 .143 2.85.143 6.386-.048 3.538-.096 6.387-.143 6.387z" fill="#263238"/><path d="M80.954 23.319s-.095 0-.285-.05c-.19-.048-.43-.147-.763-.245s-.714-.245-1.19-.393a25.06 25.06 0 00-1.62-.442c-.62-.147-1.24-.295-1.954-.442-.715-.148-1.477-.246-2.287-.393-1.62-.197-3.383-.393-5.289-.393-1.858 0-3.668.147-5.288.344-.81.098-1.572.196-2.287.344-.715.098-1.382.294-1.954.442a24.91 24.91 0 00-1.62.442c-.476.147-.857.245-1.19.344-.334.098-.572.196-.763.245-.19.05-.286.05-.286.05s.096-.05.238-.099c.191-.049.43-.147.763-.294.333-.099.714-.246 1.19-.393a25.015 25.015 0 011.62-.443c.62-.147 1.24-.344 2.002-.442.715-.147 1.477-.245 2.287-.393 1.62-.196 3.43-.344 5.336-.344 1.906 0 3.669.197 5.336.393.81.148 1.572.246 2.287.442.715.148 1.382.295 1.954.492.619.147 1.143.344 1.62.491.476.147.857.295 1.19.393.286.098.572.197.763.295a.48.48 0 01.19.049zm.143 12.477c0 .049-5.907.147-13.197.147-7.29 0-13.198-.049-13.198-.147 0-.098 5.908-.148 13.198-.148s13.197.099 13.197.148z" fill="#263238"/><path d="M96.153 105.161H40.79v40.577h55.363v-40.577z" fill="#E8505B"/><path d="M44.554 142.791c-.048 0-.143-7.222-.143-16.163 0-8.94.047-16.162.143-16.162.047 0 .143 7.222.143 16.162 0 8.892-.096 16.163-.143 16.163z" fill="#fff"/><rect x="26.029" y="12.698" width="84.546" height="222.508" rx="33.5" stroke="#000" stroke-dasharray="10 10 10 10 10 10"/><path d="M24.79 15.724a.5.5 0 00.492-.507v-4.569a.5.5 0 00-.492-.507.5.5 0 00-.492.507v4.061h-3.939a.5.5 0 00-.492.508.5.5 0 00.492.507h4.431zM10.3.994l14.142 14.582.696-.718L10.996.276 10.3.994zm14.982 225.015a.5.5 0 00-.492-.508h-4.43a.5.5 0 00-.493.508.5.5 0 00.492.507h3.939v4.061a.5.5 0 00.492.508.5.5 0 00.492-.508v-4.568zm-14.286 14.94l14.142-14.581-.696-.718L10.3 240.231l.696.718zm104.223-15.448a.5.5 0 00-.492.508v4.568a.5.5 0 00.492.508.5.5 0 00.492-.508v-4.061h3.939a.5.5 0 00.492-.507.5.5 0 00-.492-.508h-4.431zm14.49 14.73l-14.142-14.581-.696.718 14.142 14.581.696-.718zM114.727 15.172a.5.5 0 00.492.508h4.431a.5.5 0 00.492-.508.5.5 0 00-.492-.508h-3.939v-4.06a.5.5 0 00-.492-.508.5.5 0 00-.492.508v4.568zM129.013.232l-14.142 14.581.696.718L129.709.949l-.696-.718zM20.451 124.305a.5.5 0 000-.707l-3.182-3.182a.5.5 0 00-.707.707l2.828 2.828-2.828 2.829a.5.5 0 00.707.707l3.182-3.182zm-20.353.146h20v-1h-20v1zm115.79-.853a.5.5 0 000 .707l3.182 3.182a.5.5 0 00.707-.707l-2.828-2.829 2.828-2.828a.5.5 0 00-.707-.707l-3.182 3.182zm20.354-.147h-20v1h20v-1z" fill="#000"/></svg>