<svg width="96" height="254" fill="none" xmlns="http://www.w3.org/2000/svg"><path d="M77.777 67.572L58.65 48.235V41.24h.4c.57 0 1.142-.398 1.256-.967.114-.74-.457-1.422-1.2-1.422h-.513v-5.858l-25.976.171v5.63h-.514c-.571 0-1.142.398-1.256.967-.114.74.457 1.422 1.199 1.422h.57v6.768L13.893 68.766a11.449 11.449 0 00-2.912 7.62v4.835c0 1.65.628 3.242 1.827 4.38v90.824c0 .512.114 1.024.343 1.536a2.909 2.909 0 01-.172 2.388c-.342.683-.57 1.422-.57 2.161l-.286 26.275c0 1.365.114 2.73.514 4.038l-.228 18.768c-.058 3.071.285 6.085 1.084 9.043 1.427 5.403 4.625 12.227 11.875 12.227h4.967a4.71 4.71 0 003.768-1.877l1.142-1.478c.685-.91 2.112-.683 2.512.398a4.73 4.73 0 004.567 3.128l11.475-.171c1.2 0 2.17-.853 2.512-1.99.4-1.138 1.942-1.308 2.57-.285l.685 1.024c.57.853 1.484 1.365 2.455 1.365h5.537c3.54 0 6.851-1.934 8.564-5.005.057-.057.057-.113.114-.17 1.941-3.64 2.912-7.735 2.912-11.83v-20.986a3.917 3.917 0 010-4.549v-29.29a2.726 2.726 0 01-.114-3.753l.114-.114V84.974l.114-.113a6.234 6.234 0 001.827-4.38v-4.89c0-2.958-1.199-5.858-3.311-8.02z" fill="#F5F5F5"/><path d="M68.984 70.813c3.94-.91 7.821 1.99 7.878 6.029v4.493c0 1.478-.57 2.957-1.598 3.98l-.114.114v84.342l-.115.114c-.856.966-.799 2.502.115 3.412v26.73a3.674 3.674 0 000 4.151v19.166c0 3.754-.857 7.508-2.57 10.806 0 .057-.056.114-.056.171a8.471 8.471 0 01-7.537 4.55h-4.91l-7.364-.114-10.162.17-10.62-.17h-4.395c-6.394 0-9.249-6.199-10.505-11.147-.685-2.673-.97-5.46-.913-8.247l.228-17.118c-.343-1.194-.457-2.446-.457-3.697l.286-24c0-.682.171-1.365.514-1.99.342-.683.4-1.479.114-2.218-.172-.455-.286-.91-.286-1.365V86.112a5.774 5.774 0 01-1.598-3.981v-4.493c0-3.867 2.854-7.166 6.68-8.02 3.939-.852 10.276-1.648 16.499 0 10.219 2.674 10.39 4.153 17.698 3.527 4.053-.398 9.363-1.479 13.188-2.332z" fill="#E8505B"/><path opacity=".5" d="M68.984 70.813c3.94-.91 7.821 1.99 7.878 6.029v4.493c0 1.478-.57 2.957-1.598 3.98l-.114.114.114 51.812-.114 32.53-.115.114c-.856.966-.799 2.502.115 3.412v26.73a3.674 3.674 0 000 4.151v19.166c0 3.754-.857 7.508-2.57 10.806 0 .057-.056.114-.056.171a8.471 8.471 0 01-7.537 4.55h-4.91l-7.364-.114-10.162.17-10.62-.17h-4.395c-6.394 0-9.249-6.199-10.505-11.147-.685-2.673-.97-5.46-.913-8.247l.228-17.118c-.343-1.194-.457-2.446-.457-3.697l.286-24c0-.682.171-1.365.514-1.99.342-.683.4-1.479.114-2.218-.172-.455-.286-.91-.286-1.365V86.112a5.774 5.774 0 01-1.598-3.981v-4.493c0-3.867 2.854-7.166 6.68-8.02 3.939-.852 10.276-1.648 16.499 0 10.219 2.674 10.39 4.153 17.698 3.527 4.053-.398 9.363-1.479 13.188-2.332z" fill="#fff"/><path d="M79.831 85.657c0 .057-14.958.17-33.455.17-18.498 0-33.455-.056-33.455-.17 0-.057 14.957-.17 33.455-.17 18.44 0 33.455.056 33.455.17z" fill="#263238"/><path d="M16.574 124.614c3.197-6.711 9.592-11.886 16.9-13.592 6.85-1.593 14.272-.342 20.838-2.958 6.85-2.729 11.36-9.156 14.9-15.583 1.37-2.502 3.083-5.289 5.938-5.63-.743 1.99.456 4.38-.514 6.2-.343.625-.914 1.137-1.427 1.591-4.111 3.868-6.794 8.929-9.135 14.048-1.427 3.128-2.855 6.483-5.538 8.701-1.94 1.593-4.396 2.503-6.85 2.958-6.338 1.137-13.132-.398-19.126 1.877-4.625 1.706-8.164 5.516-10.62 9.782-2.454 4.265-3.824 8.985-5.252 13.706" fill="#fff"/><path d="M76.92 78.718c0 .171-1.028.285-2.741 1.024-1.713.74-3.94 2.275-6.109 4.834-1.084 1.251-2.17 2.73-3.254 4.38-1.085 1.649-2.17 3.469-3.425 5.402-1.256 1.877-2.684 3.868-4.568 5.574-1.827 1.763-4.11 3.185-6.622 4.151a21.476 21.476 0 01-7.708 1.422c-2.512-.057-4.852-.455-7.022-.455-4.339-.057-8.22 1.251-11.132 2.844a22.05 22.05 0 00-3.711 2.502c-1.028.796-1.827 1.65-2.512 2.275-1.256 1.365-1.884 2.218-1.998 2.161-.058-.057.056-.284.285-.739.228-.455.628-1.081 1.199-1.877.628-.739 1.37-1.649 2.398-2.559 1.027-.967 2.226-1.934 3.768-2.787 2.968-1.763 7.022-3.298 11.703-3.355 2.341 0 4.682.341 7.023.341 2.34 0 4.795-.455 7.079-1.365a19.124 19.124 0 006.108-3.81c1.713-1.593 3.14-3.413 4.397-5.233 1.255-1.82 2.397-3.64 3.54-5.289 1.141-1.65 2.283-3.185 3.539-4.436 2.398-2.56 4.91-4.038 6.737-4.606 1.94-.57 3.025-.455 3.025-.399zM16.289 200.879c2.398-2.388 6.166-2.843 9.534-2.445 3.368.398 6.68 1.478 10.048 1.478 4.681 0 9.363-2.104 12.446-5.63 1.142-1.308 2.055-2.787 3.197-4.152 2.797-3.298 6.794-5.573 11.076-6.312 1.94-.342 3.939-.342 5.709-1.081 3.71-1.479 5.595-5.46 7.193-9.099-.228 5.971-.514 11.886-.742 17.857-6.337-1.194-12.332 2.901-17.298 6.996-4.968 4.094-10.334 8.701-16.785 8.701-3.426 0-6.794-1.308-10.22-1.194-6.45.227-11.589 5.289-15.928 10.009" fill="#fff"/><path d="M76.92 173.297c0 .114-.971.171-2.627.626-.856.17-1.827.568-2.968 1.023a26.94 26.94 0 00-3.597 2.048c-1.256.853-2.626 1.877-3.94 3.071-1.37 1.194-2.74 2.559-4.224 4.038-1.484 1.478-3.026 3.014-4.796 4.493-1.77 1.478-3.71 2.9-5.937 4.038-2.227 1.137-4.625 1.763-6.965 1.99-2.341.228-4.568.171-6.623.114-2.055-.114-4.053-.228-5.88-.228s-3.483.114-5.024.342c-1.485.227-2.855.568-3.997 1.023a14.999 14.999 0 00-2.74 1.422c-1.427.967-2.055 1.706-2.17 1.649-.056-.056.4-.966 1.77-2.161A13.267 13.267 0 0120 195.022c1.142-.568 2.569-1.023 4.11-1.308 1.599-.341 3.312-.512 5.196-.569 1.884-.056 3.882.057 5.937.114s4.225.057 6.394-.17a18.767 18.767 0 006.395-1.877c2.055-1.024 3.939-2.389 5.594-3.754 1.713-1.422 3.255-2.9 4.739-4.322 1.484-1.422 2.969-2.787 4.396-3.981s2.854-2.218 4.225-3.014c1.37-.853 2.683-1.479 3.882-1.877 1.199-.398 2.284-.683 3.14-.796 1.941-.455 2.912-.285 2.912-.171zm-60.802 56.986c6.737 4.038 15.586 2.843 22.55-.74 6.966-3.583 12.56-9.327 18.384-14.616 5.823-5.289 12.16-10.408 19.81-12.284a5.84 5.84 0 01-1.141-3.185c-8.792 3.867-17.813 7.848-24.55 14.673-2.34 2.332-4.338 5.005-6.965 7.109-2.512 1.99-5.423 3.298-8.392 4.436-5.937 2.332-12.389 4.095-18.726 3.242-.514-.057-1.084-.114-1.427.284-.342.398.228 1.137.571.739m49.783-62.616c0 .967-.799 1.763-1.77 1.763-.97 0-1.77-.796-1.77-1.763 0-.967.8-1.763 1.77-1.763.971 0 1.77.796 1.77 1.763zm-8.678 3.697a.84.84 0 01-.856.853.84.84 0 01-.857-.853c0-.512.4-.853.857-.853.514 0 .856.398.856.853z" fill="#fff"/><path d="M37.356 219.818a.855.855 0 00.856-.853.855.855 0 00-.856-.853.855.855 0 00-.857.853c0 .471.384.853.857.853z" fill="#fff"/><path d="M79.146 181.6c0 .057-15.015.171-33.512.171-18.498 0-33.513-.057-33.513-.171 0-.114 15.015-.17 33.513-.17 18.497.056 33.512.113 33.512.17zm-.171 29.403c0 .057-14.958.171-33.455.171-18.498 0-33.456-.057-33.456-.171 0-.057 14.958-.17 33.456-.17 18.497.056 33.455.113 33.455.17zm.399 4.379c0 .057-14.958.171-33.455.171s-33.455-.057-33.455-.171c0-.057 14.958-.17 33.455-.17s33.455.057 33.455.17zm-.228-38.274c0 .057-14.786.17-33.056.17-18.269 0-33.055-.057-33.055-.17 0-.057 14.786-.171 33.055-.171 18.212 0 33.056.057 33.056.171zm-38.079 75.924s-.172 0-.514-.17c-.286-.114-.742-.398-1.142-.797-.913-.853-1.656-2.274-2.512-3.867-.856-1.592-1.656-3.014-2.227-4.038a18.698 18.698 0 01-.856-1.706s.4.569 1.028 1.592c.57 1.024 1.427 2.446 2.283 3.982.857 1.535 1.599 3.014 2.398 3.867.8.91 1.542 1.08 1.542 1.137zm18.668-10.692c.057 0-.057.512-.285 1.251-.229.796-.571 1.82-1.028 3.014a61.418 61.418 0 01-1.256 2.901c-.342.739-.57 1.194-.628 1.137-.057 0 .115-.511.457-1.251.343-.853.742-1.82 1.142-2.957.4-1.081.8-2.104 1.085-2.958.285-.682.456-1.137.513-1.137zm19.24-20.247s-.057.057-.171.114a1.556 1.556 0 01-.457.341c-.4.285-.97.74-1.713 1.308a64.442 64.442 0 01-6.622 4.436 62.26 62.26 0 01-4.853 2.616c-1.827.854-3.768 1.65-5.938 2.219-4.338 1.137-9.362 1.535-14.444.341-2.512-.569-4.91-1.593-6.965-2.844-2.055-1.251-3.882-2.787-5.595-4.265-1.655-1.479-3.254-2.901-4.738-4.152-1.542-1.251-3.026-2.332-4.453-3.185-2.912-1.763-5.538-2.502-7.422-2.673-.914-.057-1.656-.057-2.17-.057-.228 0-.4.057-.57.057h-.172s.057 0 .171-.057c.115 0 .343-.057.571-.057.514-.056 1.256-.056 2.17 0 1.884.171 4.624.854 7.536 2.617 1.484.853 2.969 1.933 4.51 3.184 1.542 1.252 3.083 2.673 4.796 4.152 1.655 1.479 3.482 2.957 5.538 4.209a23.139 23.139 0 006.908 2.786c5.024 1.138 9.99.797 14.272-.341 2.17-.569 4.11-1.365 5.938-2.161 1.77-.853 3.425-1.706 4.852-2.559 2.912-1.706 5.139-3.299 6.68-4.379.742-.569 1.313-.967 1.77-1.308.171-.114.343-.228.457-.342.057.057.114 0 .114 0z" fill="#263238"/><path d="M79.146 221.411l-.114.114a2.48 2.48 0 01-.4.341c-.17.171-.4.341-.685.569-.285.227-.628.455-.97.739-1.484 1.138-3.711 2.616-6.68 4.209-1.484.796-3.14 1.535-4.967 2.275-1.827.739-3.825 1.421-5.994 1.876-.571.114-1.085.228-1.656.285-.285.057-.57.057-.856.114h-.857c-1.141 0-2.34-.057-3.54-.114-2.397-.171-4.91-.455-7.364-1.138-2.455-.682-4.739-1.763-6.623-3.298-1.884-1.479-3.482-3.185-5.024-4.778-1.541-1.535-3.082-2.957-4.738-3.981-1.656-1.08-3.311-1.819-4.91-2.274-3.14-.967-5.88-1.081-7.764-.967-.457 0-.857.057-1.256.113-.343.057-.628.057-.914.114-.228.057-.4.057-.57.114h-.172s.97-.284 2.855-.455c1.826-.171 4.624-.114 7.821.853a22.578 22.578 0 014.967 2.275c1.656 1.024 3.254 2.445 4.796 4.038 1.541 1.535 3.14 3.242 4.967 4.72 1.884 1.479 4.11 2.56 6.565 3.242 2.455.682 4.91.967 7.308 1.137 1.198.057 2.34.114 3.54.114h.856c.285 0 .57-.057.856-.114.57-.056 1.085-.17 1.656-.284 2.17-.455 4.11-1.137 5.937-1.82 1.827-.739 3.483-1.479 4.91-2.275 2.969-1.535 5.195-3.014 6.68-4.095.4-.284.685-.511.97-.739.286-.227.514-.398.685-.569.171-.113.343-.227.457-.341.171.057.228 0 .228 0zm-.057-136.038c0 .057-14.787.17-33.056.17s-33.055-.056-33.055-.17c0-.057 14.786-.17 33.055-.17 18.27 0 33.056.056 33.056.17zM69.27 58.87l-.514.342c-.343.227-.8.568-1.428 1.08-.57.512-1.256 1.137-2.112 1.877-.856.682-1.884 1.479-3.083 2.161-2.398 1.365-5.595 2.445-9.249 2.9-3.654.456-7.707.171-11.875-.568-2.112-.342-4.11-.853-6.051-1.251a33.284 33.284 0 00-5.652-.683 27.893 27.893 0 00-9.535 1.536c-2.569.91-4.624 1.933-5.766 2.957-.57.512-.97.967-1.256 1.251l-.342.512s.057-.227.285-.512c.229-.341.628-.796 1.2-1.308 1.198-1.024 3.196-2.104 5.822-3.014 2.627-.91 5.88-1.65 9.592-1.593 1.827 0 3.768.285 5.709.683 1.94.398 3.94.853 6.051 1.251 4.168.74 8.164 1.024 11.818.626 3.597-.398 6.794-1.479 9.192-2.787 2.455-1.308 3.996-2.957 5.195-3.867.628-.512 1.085-.797 1.427-1.024.172-.114.286-.17.4-.227.114-.285.171-.342.171-.342z" fill="#263238"/><path d="M68.242 57.676s0 .057-.057.114c-.058.114-.172.227-.286.341-.228.285-.57.74-1.085 1.308-.97 1.08-2.454 2.673-4.681 4.152-2.227 1.422-5.31 2.502-8.85 2.616-3.539.17-7.364-.569-11.189-1.877-1.884-.625-3.768-1.365-5.538-1.877-1.827-.511-3.596-.91-5.366-.91-1.713-.056-3.369.228-4.853.626-1.484.398-2.855.796-4.11 1.251-2.456.91-4.34 1.934-5.653 2.673-.628.341-1.084.683-1.37.967-.285.284-.4.455-.4.455s.115-.17.343-.455c.286-.284.742-.626 1.37-1.024 1.256-.739 3.14-1.82 5.595-2.73a50.194 50.194 0 014.11-1.308c1.485-.398 3.14-.682 4.91-.625 1.77 0 3.597.398 5.424.91 1.827.512 3.654 1.194 5.595 1.877 3.768 1.308 7.593 2.047 11.076 1.876 3.482-.056 6.508-1.137 8.735-2.502 2.226-1.422 3.71-2.957 4.681-4.038.514-.569.856-.967 1.142-1.251.114-.114.228-.228.285-.341.115-.228.172-.228.172-.228z" fill="#263238"/><path d="M77.776 67.572s.286.284.8.91c.513.625 1.198 1.649 1.77 3.128.285.739.513 1.592.627 2.616.114.967.057 2.047.114 3.241v1.82c0 .626.057 1.308-.057 1.934a6.547 6.547 0 01-1.884 3.81v-.056c0 18.711.057 51.014.057 92.417v.057l-.057.057a2.49 2.49 0 00-.742 1.763c0 .682.228 1.421.742 1.933l.057.057v29.46a3.706 3.706 0 00-.685 2.104c0 .796.229 1.593.685 2.275v18.313c0 1.536.057 3.128-.057 4.72-.114 1.593-.342 3.128-.799 4.721-.4 1.535-.97 3.071-1.656 4.493a11.417 11.417 0 01-1.256 2.104 10.087 10.087 0 01-1.712 1.763 10.089 10.089 0 01-4.51 1.99c-.8.171-1.656.171-2.512.171h-4.967a3.12 3.12 0 01-2.227-1.194c-.285-.341-.457-.683-.685-1.081-.114-.17-.228-.341-.343-.455-.17-.113-.285-.227-.513-.284-.343-.114-.8-.057-1.085.171a1.32 1.32 0 00-.4.398c-.114.17-.171.341-.228.568-.343.797-1.085 1.479-1.941 1.65-.457.113-.857.057-1.313.113h-1.256c-1.713 0-3.426.057-5.139.057-.856 0-1.712 0-2.569.057h-1.313c-.4 0-.856 0-1.313-.057-.856-.114-1.713-.512-2.398-1.023-.685-.569-1.256-1.309-1.541-2.162-.171-.398-.514-.739-.914-.796-.4-.114-.913.057-1.198.341-.286.342-.571.74-.914 1.138-.285.398-.57.796-.97 1.137-.743.683-1.713 1.081-2.684 1.251-.514.057-.97.057-1.484.057h-4.453c-.514-.056-.97 0-1.485-.17l-.742-.114c-.228-.057-.457-.171-.742-.227-1.941-.569-3.54-1.877-4.853-3.413-1.313-1.535-2.226-3.355-2.911-5.232-.685-1.877-1.256-3.81-1.599-5.801a35.823 35.823 0 01-.514-6.028c0-2.048.057-4.038.057-6.086.057-4.436.115-8.815.172-13.137v.057c-.4-1.422-.514-2.901-.514-4.38 0-1.478.057-2.9.057-4.379.057-2.9.057-5.801.114-8.644.057-2.844.057-5.744.114-8.588 0-1.422.057-2.844.057-4.265 0-.74.115-1.479.457-2.105.171-.341.343-.625.4-.966.057-.342.114-.683.057-1.024-.057-.341-.171-.626-.286-.967-.114-.341-.17-.682-.228-1.081V85.657l.057.114a6.303 6.303 0 01-1.598-2.73 4.772 4.772 0 01-.229-1.536v-4.606c0-1.024.057-2.048.286-3.014.456-1.991 1.484-3.81 2.797-5.29 1.313-1.478 2.626-2.9 3.882-4.322a4022.261 4022.261 0 0014.673-16.322V41.24l.114.114h-.685c-.229 0-.457-.114-.628-.228-.4-.284-.571-.74-.571-1.137 0-.455.285-.853.685-1.024.171-.114.4-.17.628-.17h.57l-.113.113v-5.744h.114c9.82-.057 18.383-.114 25.976-.114h.057v5.858l-.057-.057h.685c.229.057.457.114.628.285.343.284.514.739.457 1.137-.057.398-.342.74-.685.91-.171.114-.343.114-.514.17h-.514l.057-.056v6.995-.057c6.223 6.313 11.019 11.147 14.216 14.446 1.599 1.649 2.855 2.9 3.654 3.696.97.797 1.37 1.195 1.37 1.195L76.52 66.32c-.8-.853-2.055-2.047-3.654-3.696-3.254-3.242-8.05-8.076-14.272-14.389v-7.052h.057c.342 0 .685.057 1.027-.17.286-.171.571-.456.571-.797a1.095 1.095 0 00-.4-1.023c-.17-.114-.342-.228-.57-.228-.172-.057-.457 0-.685 0h-.058v-5.857l.058.056c-7.593.057-16.157.114-25.977.17l.114-.113v5.744h-.114c-.4 0-.8-.057-1.085.17-.342.171-.57.512-.57.854-.058.398.17.739.456.967.343.227.742.17 1.2.17h.113v6.995C28.107 53.297 23.197 58.7 18.06 64.444c-1.313 1.421-2.57 2.9-3.882 4.322a11.66 11.66 0 00-2.74 5.175c-.229.967-.286 1.99-.286 2.958v3.07c0 1.025-.057 2.048.228 3.072.286.967.8 1.877 1.542 2.616l.057.057v91.109c0 .341.114.683.171.967.114.341.229.682.286 1.024.057.341 0 .739-.058 1.08-.057.342-.285.683-.4 1.024-.285.626-.399 1.308-.399 1.99 0 1.422-.057 2.844-.057 4.266-.057 2.844-.057 5.687-.114 8.588-.057 2.843-.057 5.744-.114 8.644 0 1.422-.057 2.901-.057 4.379 0 1.422.114 2.901.456 4.323-.057 4.322-.114 8.701-.17 13.137 0 2.047-.058 4.038-.058 6.085 0 1.991.171 4.038.514 5.972a31.49 31.49 0 001.541 5.744c.742 1.82 1.656 3.64 2.912 5.119 1.256 1.478 2.854 2.729 4.681 3.355 1.827.626 3.826.455 5.767.512h1.484c.514 0 .97 0 1.427-.057.914-.114 1.827-.512 2.512-1.137.343-.285.628-.683.914-1.081.285-.398.57-.739.913-1.137.4-.399.97-.569 1.485-.399.513.114.97.512 1.141.967.286.796.8 1.479 1.428 1.991a4.584 4.584 0 002.283.967c.4.057.857.056 1.256.056h1.313c.857 0 1.713.001 2.57-.056 1.712 0 3.425-.057 5.138-.057H53c.4 0 .856 0 1.256-.057.799-.171 1.427-.796 1.77-1.536.114-.17.114-.398.285-.568.114-.228.285-.398.457-.512.4-.285.856-.341 1.313-.228.228.057.456.171.628.342.171.17.285.341.4.511.228.342.456.74.684 1.024.457.626 1.256 1.024 2.056 1.081h4.91c.856 0 1.655 0 2.455-.171a9.998 9.998 0 004.338-1.934c.628-.511 1.2-1.08 1.656-1.706.457-.625.856-1.365 1.199-2.047a26.102 26.102 0 001.656-4.436c.4-1.536.685-3.071.742-4.664.114-1.535.057-3.128.057-4.663v-18.199.056c-.514-.739-.742-1.592-.742-2.445 0-.853.285-1.649.742-2.275V181.43l.057.057c-.571-.569-.856-1.365-.856-2.105 0-.739.342-1.478.856-1.933l-.057.057c.057-41.346.057-73.65.057-92.418 1.085-1.023 1.713-2.445 1.884-3.753.057-.683.057-1.308.057-1.934v-1.82c0-1.194.057-2.275-.057-3.242a10.513 10.513 0 00-.628-2.559c-.57-1.478-1.256-2.502-1.77-3.128a4.328 4.328 0 00-.57-.682c0-.285-.058-.398-.058-.398z" fill="#263238"/><path d="M58.707 38.68c0 .057-5.823.171-13.016.228-7.194.057-13.017 0-13.017-.057s5.823-.17 13.017-.227c7.193-.057 13.016-.057 13.016.056zm.628 2.503c0 .057-5.994.17-13.302.17-7.364 0-13.359-.056-13.359-.17 0-.057 5.995-.17 13.36-.17 7.364.056 13.301.113 13.301.17zm-.742 2.104c0 .057-5.823.171-12.96.171-7.136 0-12.959-.057-12.959-.17 0-.114 5.823-.171 12.96-.171 7.193 0 12.96.057 12.96.17zm0 2.048c0 .057-5.823.17-12.96.17-7.136 0-12.959-.056-12.959-.17 0-.057 5.823-.17 12.96-.17 7.193 0 12.96.056 12.96.17z" fill="#263238"/><path d="M32.674 41.24c.4.682 1.085 1.137 1.827 1.365.742.227 1.542.227 2.34.284 6.795.17 13.588-.114 20.325-.796.571-.057 1.2-.228 1.37-.74-1.084-.056-2.169-.056-3.254-.056-6.451 0-12.96 0-19.41.057h-3.54" fill="#E0E0E0"/><path d="M28.164 37.032V17.354s-.171-3.981 17.698-3.981c16.271 0 16.214 4.607 16.214 4.607v19.052H28.164z" fill="#E8505B"/><path d="M30.39 33.108c-.056 0-.17-3.412-.17-7.564s.056-7.564.17-7.564c.058 0 .172 3.412.172 7.564 0 4.208-.057 7.564-.171 7.564zm3.026 0c-.057 0-.17-3.583-.17-7.962 0-4.436.056-7.962.17-7.962.058 0 .172 3.582.172 7.962 0 4.379-.057 7.962-.172 7.962zm2.969 0c-.057 0-.17-3.697-.17-8.304 0-4.55.056-8.303.17-8.303.115 0 .172 3.697.172 8.303-.057 4.607-.114 8.304-.172 8.304zm2.912 0c-.057 0-.171-3.81-.171-8.474s.057-8.474.171-8.474c.057 0 .171 3.81.171 8.474-.057 4.663-.114 8.474-.171 8.474zm2.912 0c-.058 0-.172-3.81-.172-8.474s.057-8.474.172-8.474c.114 0 .17 3.81.17 8.474-.056 4.663-.113 8.474-.17 8.474zm2.911 0c-.057 0-.171-3.81-.171-8.474s.057-8.474.171-8.474c.114 0 .171 3.81.171 8.474 0 4.663-.114 8.474-.17 8.474zm2.912 0c-.057 0-.172-3.81-.172-8.474s.057-8.474.172-8.474c.057 0 .17 3.81.17 8.474 0 4.663-.056 8.474-.17 8.474zm2.911 0c-.057 0-.17-3.81-.17-8.474s.056-8.474.17-8.474c.058 0 .172 3.81.172 8.474 0 4.663-.058 8.474-.172 8.474zm2.912 0c-.057 0-.171-3.64-.171-8.19 0-4.55.057-8.19.171-8.19.114 0 .171 3.64.171 8.19 0 4.55-.057 8.19-.171 8.19zm2.969 0c-.057 0-.171-3.526-.171-7.848 0-4.323.057-7.849.17-7.849.058 0 .172 3.526.172 7.849-.057 4.322-.114 7.848-.171 7.848zm2.912 0c-.058 0-.172-3.299-.172-7.394 0-4.094.057-7.393.172-7.393.057 0 .17 3.299.17 7.393-.056 4.095-.113 7.394-.17 7.394z" fill="#263238"/><path d="M60.934 18.72s-.114 0-.342-.058c-.229-.057-.514-.17-.914-.284-.4-.114-.856-.284-1.427-.455-.57-.17-1.199-.341-1.941-.512a78.424 78.424 0 00-2.34-.512c-.857-.17-1.77-.284-2.741-.455-1.941-.227-4.054-.455-6.337-.455-2.227 0-4.396.17-6.337.398-.971.114-1.884.228-2.74.398-.857.114-1.656.342-2.341.512-.743.171-1.37.342-1.942.512-.57.17-1.027.285-1.427.398-.4.114-.685.228-.913.285-.229.056-.343.056-.343.056s.114-.056.286-.113c.228-.057.513-.17.913-.341.4-.114.856-.285 1.427-.455a30.71 30.71 0 011.941-.512c.743-.17 1.485-.398 2.398-.512.857-.17 1.77-.284 2.74-.455a55.055 55.055 0 016.395-.398c2.283 0 4.396.227 6.394.455.97.17 1.884.284 2.74.512.857.17 1.656.34 2.341.568.742.171 1.37.398 1.941.57.571.17 1.028.34 1.427.454.343.114.685.227.914.341.114 0 .228.057.228.057zm.172 14.444c0 .057-7.08.171-15.815.171-8.734 0-15.814-.057-15.814-.17 0-.114 7.08-.171 15.814-.171 8.735 0 15.815.114 15.815.17z" fill="#263238"/><path d="M82.603 113.468H9.978v46.977h72.625s.467-6.395 0-22.991c-.468-16.596 0-23.986 0-23.986z" fill="#fff"/><path d="M79.146 113.468h-66.34v46.976h66.34s.427-6.598 0-23.194 0-23.782 0-23.782z" fill="#E8505B"/><path d="M16.577 156.674c.07 0 0-8.361 0-18.711 0-10.351.139-18.711 0-18.711-.07 0 1.363 8.36 1.363 18.711 0 10.293-1.433 18.711-1.363 18.711z" fill="#fff"/><path d="M90.845 33.43c9.045 13.322.493 21.874-7.895 21.051-3.355-.329-10.734-2.611-11.841-9.867-1.48-9.704 5.427-14.884 11.841-12.829 4.125 1.322 6.332 6.25 4.934 9.868-3.11 8.05-7.4 6.825-8.88 6.25-1.84-.716-4.441-2.878-3.29-6.25 1.144-3.35 4.523-5.18 6.579-1.809M24.294 181.342c9.046 13.322.494 21.874-7.894 21.051-3.355-.329-10.734-2.611-11.841-9.867-1.48-9.704 5.427-14.884 11.841-12.829 4.125 1.322 6.332 6.251 4.934 9.868-3.11 8.05-7.4 6.826-8.881 6.25-1.84-.715-4.44-2.878-3.29-6.25 1.145-3.35 4.523-5.18 6.58-1.809M35.256 3.528c9.046 13.322.493 21.874-7.894 21.05-3.355-.328-10.735-2.61-11.841-9.867C14.04 5.008 20.947-.172 27.36 1.883c4.125 1.321 6.333 6.25 4.935 9.868-3.11 8.05-7.401 6.825-8.881 6.25-1.84-.716-4.44-2.879-3.29-6.25 1.145-3.35 4.523-5.18 6.579-1.81m64.142 117.507c9.045 13.323.493 21.875-7.895 21.052-3.355-.329-10.734-2.612-11.841-9.868-1.48-9.703 5.427-14.883 11.841-12.828 4.125 1.321 6.332 6.25 4.934 9.868-3.11 8.049-7.4 6.825-8.88 6.249-1.84-.715-4.441-2.878-3.29-6.249 1.144-3.351 4.523-5.181 6.579-1.809M20.84 58.744c9.046 13.322.494 21.874-7.893 21.051-3.356-.329-10.735-2.612-11.842-9.868-1.48-9.703 5.427-14.883 11.841-12.828 4.125 1.322 6.332 6.25 4.934 9.868-3.11 8.05-7.4 6.826-8.88 6.25-1.84-.716-4.441-2.878-3.29-6.25 1.144-3.35 4.523-5.18 6.579-1.809" stroke="#000"/></svg>