<svg width="465" height="579" xmlns="http://www.w3.org/2000/svg" viewBox="0 0 465 579.1"><style>.st0{fill:#263238}.st1{fill:#455a64}.st2{fill:#ffbe9d}.st3{fill:#e8505b}.st4{fill:#fafafa}.st5{fill:#eb996e}.st8{fill:#e0e0e0}.st9{fill:#ebebeb}.st10{fill:#f5f5f5}</style><path class="st0" d="M92.7 207.8c22-29.1 45.3-24.9 61.4-17.9 16.1 6.9 26.9 24.7 25.9 42.3-.3 4.6-1.4 9.5.7 13.7 3 6.8 11.8 8.8 16.9 14.2 6.9 7.4 5.4 19.3 3 29.3-2.4 10-4.9 21.3 1 29.6 5.4 7.6 15.6 9.8 24 13.9 11.2 5.4 20.1 15.4 23.3 27.4 3.2 12 .3 25.5-7.9 34.7-8.1 9-20.5 12.9-32.5 14.5-34.8 5.1-71.7-6.1-97.7-29.8-26-23.7-40.8-59.4-38.9-94.5"/><path class="st1" d="M155.2 191.2c0 .2-3-.3-7.8.5-4.7.7-11.2 2.9-18.3 5.2-7.1 2.5-13.9 3.9-18.8 3.6-2.5-.2-4.4-.5-5.8-1-1.4-.3-2-.7-2-.8 0-.2 2.9 1 7.8 1.2 4.9.2 11.5-1.4 18.4-3.7 6.9-2.5 13.5-4.6 18.4-5.1 2.4-.3 4.4-.3 5.8-.2 1.7 0 2.3.1 2.3.3z"/><path class="st2" d="M206 421.9c.8 2.5 18.4 85.4 18.4 85.4l133.4 51.2-7.4 19.4-114.3-10c-66.8-10-70.5-42.8-66.5-79.3l6.9-62.7 29.5-4z"/><path class="st3" d="M14.2 378.2c13.7-20.8 34.7-32.8 53.8-39.4l70.2 5.1s23.7-3.4 42.8 15.7l6.6 173.8 16.1 45.7H36.5L14.2 378.2z"/><path class="st4" d="M183.3 431s-.2 0-.3-.3c-.3-.2-.7-.5-1.2-.8-.5-.3-1-.8-1.9-1.4-.8-.5-1.7-1-2.7-1.7-1-.5-2.2-1.2-3.6-1.9-1.4-.5-2.7-1.2-4.4-1.7-3.2-1.2-6.9-1.9-11-2.4-4.2-.3-8.8-.2-13.7.8-4.7 1-9.8 3-14.4 6.1-4.6 3-9 7.3-11.3 12.7-1.2 2.7-1.9 5.7-1.5 8.8.3 3 1.4 6.1 3.4 8.5 1.9 2.5 4.7 4.2 7.8 4.6 3 .3 6.3-.7 7.6-3.2 1.5-2.5 1.2-5.8.2-8.3-.5-1.4-1.2-2.5-2-3.7-.8-1.2-1.9-2.2-2.9-3-4.1-3.7-9.1-5.9-13.9-6.9-4.7-1-9.5-1.2-13.7-.8-8.5.8-14.9 3-19.4 4.6-2.2.7-3.9 1.4-5.1 1.7-.5.2-1 .3-1.4.5-.3.2-.5.2-.5.2s.2 0 .5-.2.8-.3 1.4-.5c1.2-.5 2.9-1.2 5.1-1.9 4.4-1.5 11-3.9 19.4-4.9 4.2-.5 9-.3 13.9.7s10 3.2 14.2 7.1l1.5 1.5c.5.5 1 1 1.4 1.7.8 1.2 1.5 2.5 2 3.9 1 2.7 1.5 6.1-.2 9-.8 1.4-2.2 2.5-3.6 3-1.5.7-3.2.8-4.7.5-3.2-.3-6.3-2.2-8.3-4.9-2-2.5-3.2-5.7-3.6-9-.3-3.2.3-6.4 1.7-9.3 2.5-5.7 6.9-10 11.7-13 4.7-3 9.8-5.1 14.7-6.1 4.9-1 9.6-1.2 13.9-.7 4.2.5 7.9 1.2 11.2 2.5 1.7.5 3 1.2 4.4 1.9 1.4.7 2.4 1.4 3.4 1.9 1 .7 1.9 1.2 2.5 1.7.7.5 1.4 1 1.9 1.5.5.3.8.7 1 .8.5.2.5.4.5.4z"/><path class="st3" d="M180.8 359.6l41.4 74.4-46 14.2 4.6-88.6z"/><path class="st0" d="M186.3 534s0-.5-.2-1.4c0-1-.2-2.2-.2-3.7-.2-3.4-.3-7.9-.7-13.7-.5-11.7-1-27.7-1.5-45.3-.5-17.8-.8-33.8-1-45.5v-18.8s0 .5.2 1.4c0 1 0 2.2.2 3.7 0 3.4.2 7.9.3 13.7.3 11.7.7 27.7 1.2 45.3.5 17.8 1 33.7 1.4 45.3.2 5.7.3 10.5.3 13.7v5.3z"/><path class="st4" d="M193.1 382.3s-.3.2-1 .7c-.7.5-1.7 1-2.9 1.5-2.5 1.2-6.8 2.5-11.8 2.5-5.1.2-11.5-1.2-17.2-5.1-1.5-1-2.9-2-4.1-3.4-1.2-1.4-2.2-3-2.5-5.1-.3-1.9 0-4.1 1.5-5.6 1.4-1.5 3.7-2 5.8-1.7 2 .3 3.9 1.7 4.9 3.4 1 1.7 1.2 3.9.8 5.7-.3 1.9-1.2 3.7-2.4 5.1-1.2 1.5-2.7 2.5-4.2 3.4-3 1.7-6.4 2.4-9.3 2.7-3 .3-5.9.3-8.5.2-5.2-.5-9.1-1.7-11.8-2.9-1.4-.5-2.4-1-3-1.4-.7-.3-1-.5-1-.5s.3.2 1 .5 1.7.7 3 1.2c2.7 1 6.8 2.2 11.8 2.5 2.5.2 5.4.2 8.3-.2 3-.3 6.1-1 9.1-2.7 1.5-.8 2.9-1.9 3.9-3.2 1-1.4 1.9-3 2.2-4.7.3-1.7.2-3.6-.8-5.2-.8-1.5-2.5-2.5-4.4-3-1.9-.3-3.7 0-4.9 1.4-1.2 1.4-1.5 3.2-1.4 4.9.2 1.7 1.2 3.4 2.2 4.6 1.2 1.4 2.5 2.4 3.9 3.4 5.6 3.9 11.8 5.1 16.7 5.1 5.1 0 9.1-1.2 11.8-2.2 2.8-1.1 4.1-2.1 4.3-1.9zm-9 150.3s-.2-.2-.5-.3-.8-.5-1.4-1c-1.2-.8-3-2-5.6-3.2-4.9-2.5-12.9-5.2-22.8-5.1-10 0-21.8 3.4-33.1 10-2.9 1.7-5.6 3.6-8.1 5.9-2.5 2.2-4.9 4.9-6.4 8.1-1.5 3.2-2.4 6.9-1.5 10.3.5 1.7 1.4 3.4 2.5 4.6 1.4 1.2 3.2 1.7 4.9 1.2 1.7-.5 3-1.9 3.9-3.4.8-1.5 1.4-3.4 1.4-5.2 0-3.6-1.2-7.1-3.2-10s-4.6-5.4-7.4-7.1c-2.9-1.9-6.1-3-9.3-3.7-6.4-1.4-12.9-1-18.6-.2-5.7.8-11.2 2-15.9 3.6-9.6 2.9-16.9 6.4-21.8 9-2.5 1.4-4.4 2.4-5.6 3.2-.7.3-1 .7-1.4.8-.3.2-.5.3-.5.3s.2-.2.5-.3c.3-.2.8-.5 1.4-1 1.2-.8 3-2 5.6-3.4 4.9-2.7 12.2-6.4 21.8-9.3 4.7-1.5 10.1-2.7 16.1-3.6 5.7-.8 12.3-1.4 18.8.2 3.2.7 6.6 1.9 9.6 3.7 3 1.9 5.7 4.4 7.8 7.4 2 3 3.4 6.8 3.4 10.5 0 1.9-.5 3.9-1.5 5.6-1 1.7-2.4 3.2-4.4 3.9-2 .7-4.2 0-5.7-1.4s-2.4-3.2-2.9-5.1c-.8-3.9 0-7.6 1.5-11 1.7-3.2 4.1-6.1 6.6-8.5 2.5-2.4 5.4-4.2 8.3-5.9 11.5-6.6 23.5-9.8 33.5-9.8 10.1-.2 18.1 2.7 23 5.4 4.9 2.4 7 4.8 7 4.8z"/><path class="st2" d="M65.1 397.5c-5.1-26-41.9-26.9-48.4-1.4-.2.3-.2.8-.3 1.2-9.5 40.4 22.5 160 31.1 166.9 8.6 6.9 17.1 14.7 31.8 8.6 8.6-3.6 97.9-82.5 97.9-82.5s20.6 19.8 27.6 18.1c6.9-1.7 20.1-22 20.1-22s12.9 19.1 14.4 19.4c4.6.8 6.9-4.2 5.2-6.9-1.7-2.5-17.9-38.2-17.9-38.2s12.9-1.4 10.3-5.8c0 0-.3-3.9-9-3.2-8.6.7-8.6-9.1-24.7-8.1s-49.5 5.1-96.4 41.1l-21.6 15.4-20.1-102.6z"/><path class="st5" d="M106.7 484.7l.5-.5c.3-.3.8-.7 1.7-1.2 1.5-1 3.6-2.7 6.3-4.7 5.7-3.9 13.9-9.8 25.2-15.9 11.2-6.1 25.2-12.5 42.3-16.4 4.2-.8 8.6-1.7 13.2-2.2 2.4-.2 4.6-.5 6.9-.7s4.7-.2 7.3.3c2.4.5 4.7 1.4 6.9 2.7 2.2 1.4 3.9 3 6.1 4.2 1 .7 2.2.8 3.6.8 1.2 0 2.5-.2 3.9-.2s2.7.2 3.9.7c1.2.5 2.5 1.4 2.9 3v-.2c.3.5.5 1.2.3 1.9s-.7 1.2-1 1.5c-.8.7-2 1.2-3 1.5-2.2.7-4.4 1.2-6.8 1.5l.3-.7c3.7 7.9 7.6 16.2 11.5 24.9 2 4.2 4.1 8.6 6.3 12.9.2.5.7 1 .8 1.7.2.7.2 1.4 0 2-.2 1.4-.8 2.5-1.9 3.4-1 .8-2.4 1.4-3.7 1.2h-.5s-.2 0-.3-.2c-.2 0-.2-.2-.2-.2-.3-.2-.5-.5-.7-.7-.5-.5-.8-1-1.2-1.4-4.4-5.6-8.3-11.5-12.2-17.2h.7c-3 4.7-6.4 9.3-10 13.4-1.9 2-3.6 4.1-5.8 5.9-.5.5-1 .8-1.7 1.4-.5.3-1.2.7-1.9 1-.7.2-1.4.5-2 .7-.7 0-1.5 0-2-.3-2.7-.7-4.9-2.2-7.3-3.6-2.2-1.4-4.4-3-6.4-4.6-4.1-3.2-7.9-6.6-11.5-10h.5c-28.4 24.9-52.6 45.8-70 60.4-8.6 7.3-15.6 12.9-20.5 16.6-2.4 1.9-4.4 3.2-5.7 4.1-1.4.8-2 1.2-2 1.2s.7-.3 2-1.4c1.4-.8 3.2-2.4 5.6-4.2 4.7-3.7 11.7-9.5 20.3-16.7 17.2-14.5 41.4-35.7 69.7-60.5l.3-.2.3.3c3.6 3.4 7.4 6.8 11.5 9.8 2 1.5 4.1 3 6.3 4.6 2.2 1.4 4.6 2.7 6.9 3.4 2.5 1 4.7-.8 6.8-2.5 2-1.7 3.9-3.7 5.6-5.9 3.6-4.2 6.8-8.6 9.8-13.4l.3-.5.3.5c3.9 5.7 7.8 11.7 12.2 17.2.3.5.8 1 1.2 1.4.2.2.3.5.7.5l.2.2h.3c1.2.2 2.2-.2 3-.8 1.7-1.4 2.4-4.1.8-5.9-2.2-4.2-4.2-8.6-6.3-12.9-3.9-8.5-7.8-16.7-11.5-24.9l-.2-.5h.5c2.2-.3 4.6-.7 6.6-1.4 1-.3 2-.8 2.9-1.4.3-.3.7-.7.8-1 .2-.3 0-.8-.2-1.2v-.2c-.2-1-1.2-1.9-2.4-2.4s-2.4-.5-3.7-.7c-1.2 0-2.5.2-3.9.2s-2.7-.3-3.9-1c-2.4-1.2-4.1-3-6.3-4.2-2-1.4-4.2-2.2-6.6-2.5-4.7-.8-9.5-.2-14 .3-4.6.5-9 1.4-13.2 2.2-16.9 3.7-31.1 10.1-42.3 16.1-11.2 5.9-19.4 11.7-25.2 15.6-2.7 2-4.9 3.6-6.4 4.6-.7.5-1.2.8-1.7 1.2.3.2.1.2.1.2zm-29.8 44.5s-.2-.5-.3-1.2c-.2-.8-.3-2-.5-3.6-.2-3 0-7.3 1.2-11.7 1.2-4.4 3.2-8.1 4.9-10.7.8-1.2 1.7-2.2 2.2-2.9.5-.7.8-1 1-.8.2.2-1 1.5-2.7 4.1-1.5 2.5-3.4 6.3-4.6 10.5-1.2 4.4-1.5 8.5-1.5 11.3.3 3.2.5 5 .3 5z"/><path class="st3" d="M40.1 352.5c-.9.5-30.6 9.5-35.4 39.9-4.7 30.4-1.9 83.7-1.9 83.7l80.7-5.6-23-107.2-20.4-10.8z"/><path class="st5" d="M211.5 504.2c-.2 0 0-1 0-2.7s-.5-4.1-1.7-6.3-2.9-3.9-4.2-4.9c-1.4-1-2.4-1.4-2.4-1.5 0-.2 1.2.2 2.7 1 1.5.8 3.4 2.5 4.7 5.1 1.2 2.4 1.7 4.9 1.5 6.8.1 1.6-.4 2.7-.6 2.5zm7.5-9c-.3 0-.3-3.7-2.7-7.3-2.4-3.7-5.6-5.4-5.6-5.6 0-.2 1 .2 2.2 1 1.2.8 2.9 2.2 4.1 4.1 1.2 1.9 1.9 3.9 2 5.4.3 1.6.2 2.4 0 2.4zm0-19.2c0-.2.7.2 1.7 1 .8.8 2 2.2 2.9 3.9.8 1.7 1 3.6 1 4.7s-.2 2-.3 2c-.3 0 0-3-1.5-6.3-1.4-3.3-4-5.2-3.8-5.3z"/><path class="st4" d="M73.7 420h-.3c-.3 0-.7 0-1.2-.2-1-.2-2.7-.3-4.7-.3-4.1 0-10.1.5-16.9 3.2s-14.4 7.6-19.8 15.7c-2.7 3.9-4.7 8.8-4.4 14 .2 2.5.8 5.2 2.4 7.4 1.4 2.2 3.6 4.1 6.1 4.9 2.5.8 5.4.7 7.8-.3 2.4-1 4.1-3.4 4.7-5.8.7-2.5.3-5.1-.3-7.4-.7-2.4-1.9-4.6-3.2-6.6C38 436.9 29.6 433 22.5 432c-7.3-1-13.2.7-16.9 2.2-1.9.8-3.2 1.5-4.2 2-.5.3-.8.5-1 .7-.2.2-.3.2-.3.2s1.7-1.5 5.6-3.2c3.7-1.7 9.6-3.6 17.1-2.5 7.3.8 16.1 4.9 22 12.9 1.5 2 2.7 4.2 3.4 6.8.7 2.5 1 5.2.3 7.9s-2.5 5.1-5.2 6.3c-2.5 1.2-5.6 1.4-8.5.3-2.9-.8-5.1-2.9-6.6-5.2-1.5-2.4-2.4-5.1-2.5-7.8-.3-5.4 1.9-10.5 4.6-14.5 5.6-8.1 13.4-13.2 20.1-15.7 6.9-2.7 13-3 17.1-2.9 4-.2 6.2.5 6.2.5zM71 376.2s-.7.3-2 1c-.7.3-1.5.7-2.5.8-1 .3-2 .7-3.4 1-1.2.3-2.7.7-4.2.8-1.5.3-3.2.3-4.9.5-3.4.2-7.3 0-11.2-.7-3.9-.7-7.6-1.9-10.7-3.2-1.5-.7-3-1.4-4.4-2.2-1.4-.7-2.5-1.5-3.7-2.2-1.2-.7-2-1.5-2.9-2-.8-.7-1.5-1.2-2-1.7-1-1-1.7-1.5-1.5-1.5.2-.2 2.4 2 6.8 4.9 1 .7 2.4 1.4 3.7 2 1.4.7 2.9 1.4 4.4 2 3.2 1.2 6.8 2.4 10.7 3 3.9.7 7.6.8 11 .8 1.7-.2 3.4-.2 4.7-.3 1.5-.2 2.9-.3 4.1-.7 5-1.3 7.9-2.5 8-2.3z"/><path class="st0" d="M77.6 427.9s.2.3.2.8c.2.7.2 1.4.3 2.4.3 2.2.8 5.1 1.4 8.8 1.2 7.6 2.7 18.3 4.4 30.6v.5h-.5c-5.9.3-12.2.8-18.9 1.4-17.1 1.2-32.5 2.2-43.8 2.9-5.6.3-10 .5-13.2.8-1.5 0-2.7.2-3.6.2H2.7s.5-.2 1.2-.2c.8 0 2-.2 3.6-.3 3.2-.3 7.8-.7 13.2-1 11.3-.8 26.7-1.9 43.8-3.2 6.6-.5 13-.8 18.9-1.4l-.3.5c-1.7-12.3-3-23-4.1-30.6-.5-3.7-.8-6.8-1.2-9-.2-1-.2-1.7-.3-2.4.1-.6.1-.8.1-.8z"/><path d="M38.6 351.7c-.8 2.9 1.5 5.6 2.9 8.1 2.9 4.9 3 11 3.2 16.6.5 10.5 1.5 21 4.7 30.8 3.2 10 8.8 19.3 17.1 25.7s19.3 9.5 29.4 6.9c10.1-2.7 18.6-11.5 19.4-22 .8-10.3-5.4-19.6-9-29.4-2.7-7.4-4.1-15.4-5.6-23.2-1.5-7.8-3.6-15.7-7.8-22.5s-10.7-12.5-18.6-14c-7.8-1.4-16.7 2.2-20 9.6" opacity=".2"/><path class="st2" d="M77.4 214.2v9l-.5 134.6c0 15.6 13.4 28.1 30.1 28.1 16.9 0 30.8-12.9 31.1-28.7.3-16.6 1-34 1-34s21.5-3.2 26.4-30.9c2.4-13.9 2.2-36.5 1.4-55.1-.7-16.7-15.2-29.4-32-28.1l-57.5 5.1z"/><path class="st0" d="M160.3 254.1c0 1.9-1.5 3.6-3.6 3.6-2 0-3.6-1.4-3.6-3.2s1.5-3.6 3.6-3.6c1.9-.2 3.6 1.2 3.6 3.2zm1.4-5.2c-.5.5-3-1.5-6.9-1.7-3.9-.2-6.8 1.9-7.1 1.4-.2-.2.3-1 1.5-1.9 1.2-.8 3.4-1.7 5.7-1.7 2.4 0 4.4 1 5.6 1.9 1 1 1.5 1.8 1.2 2zm-37.8 4.5c0 1.9-1.5 3.6-3.6 3.6s-3.6-1.4-3.6-3.2 1.5-3.6 3.6-3.6c2-.2 3.5 1.4 3.6 3.2zm0-4.5c-.5.5-3-1.5-6.9-1.7-3.9-.2-6.8 1.9-7.1 1.4-.2-.2.3-1 1.5-1.9 1.2-.8 3.4-1.7 5.8-1.7s4.4 1 5.6 1.9c1 1 1.3 1.8 1.1 2zm13.4 28.7c0-.2 2.4-.5 6.3-1 1 0 1.9-.3 2-.8.2-.7-.2-1.7-.7-2.9-.8-2.4-1.9-4.9-2.7-7.4-3.9-10.7-6.6-19.4-6.1-19.6.5-.2 3.9 8.5 7.8 19.1.8 2.7 1.9 5.2 2.7 7.6.3 1.2 1 2.4.5 3.9-.3.7-1 1.2-1.7 1.4-.7.2-1.2.2-1.7.2-3.9-.3-6.4-.3-6.4-.5z"/><path class="st5" d="M139.2 323.1s-18.8.8-37.2-10.7c0 0 8.8 19.3 36.7 17.2l.5-6.5zm-3.6-36.2c-1.4-1.9-3.7-2.9-6.1-2.7-1.7.2-3.4.8-4.4 2.2-1 1.4-1.4 3.2-.3 4.6 1 1.5 3.2 1.9 5.1 1.4 1.9-.5 3.4-1.7 4.9-2.9.3-.3.8-.7 1.2-1.2 0-.4 0-.9-.4-1.4z"/><path class="st0" d="M126 280.1c.7 0 .5 4.2 4.1 7.1 3.6 3 7.9 2.7 7.9 3.2 0 .3-1 .8-2.9.8s-4.6-.7-6.6-2.5c-2.2-1.9-3-4.2-3.2-6.1-.2-1.6.3-2.6.7-2.5zm-.9-46.3c-.3 1-4.2.5-8.8 1-4.6.3-8.1 1.7-8.8.7-.3-.5.3-1.4 1.9-2.4 1.5-1 3.9-1.9 6.6-2.2 2.7-.2 5.2.2 6.8.8 1.7.8 2.5 1.6 2.3 2.1zm35.4 3.9c-.7.8-3.4-.2-6.4-.2-3.2-.2-5.9.5-6.4-.5-.3-.5.2-1.4 1.4-2.2 1.2-.8 3.2-1.5 5.2-1.4 2.2.2 4.1 1 5.2 1.9 1 1.1 1.3 1.9 1 2.4z"/><path class="st0" d="M112.5 204.9c7.6 9.8 0 23.8-8.6 33-8.5 9-18.8 19.4-16.4 31.6 2.9 14 22.2 22.8 19.4 37-1 5.1-5.1 9.6-4.9 14.9 0 9.5 12.3 13.9 15.9 22.7 4.9 12-8.3 24.2-8.3 37 0 7.4 4.2 14.2 4.6 21.5.7 15.1-17.1 26.2-31.8 22.7s-24.7-17.8-28.1-32.5c-3.4-14.7-1.2-30.1 1-45-1.4 6.4-11 7.6-15.7 3.2-4.7-4.4-5.4-11.8-4.4-18.3 2.5-16.1 13-29.9 17.9-45.5 4.2-13.7 4.2-28.2 5.9-42.3 1.7-14 6.1-28.9 16.7-38.4 10.7-9.5 29.4-10.8 38.2.5"/><path class="st1" d="M74.2 419.8s.2-.2.3-.5c.3-.3.7-.8 1-1.5.8-1.4 2.2-3.6 3.2-6.6 1-3 2-6.8 2.2-11.3.2-4.6-.5-9.8-2.7-14.9-2.2-5.2-6.1-10.1-10.3-15.6-2-2.7-4.2-5.4-5.9-8.6-1.9-3.2-3.2-6.6-3.9-10.5-.7-3.7-.7-7.9 1-11.7.8-1.9 2-3.6 3.4-5.1 1.5-1.5 3-2.7 4.7-3.9 3.4-2.4 6.9-4.7 8.6-8.6 1.9-3.7 1.9-8.1.8-12.3-2-8.5-7.9-15-11.7-22.5-1.9-3.7-3.4-7.6-3.6-11.7-.2-4.1.7-7.9 2.2-11.5 3-7.1 8.1-12.5 13.2-17.1 5.1-4.6 10-8.3 14-12.3 4.1-3.9 7.3-8.1 9.3-12.2 2-4.1 3-7.9 3.2-11 .2-3.2-.2-5.6-.7-7.3-.5-1.7-.8-2.4-.8-2.4s.5.8 1 2.4c.5 1.5 1 4.1.8 7.3-.2 3.2-1 7.1-3 11.3-2 4.1-5.2 8.3-9.3 12.3-4.1 4.1-9 7.9-14 12.5-4.9 4.4-9.8 9.8-12.9 16.7-1.5 3.4-2.4 7.3-2 11.2.2 3.9 1.5 7.8 3.4 11.3s4.2 7.1 6.4 10.7c2.2 3.6 4.2 7.6 5.2 11.8 1 4.2 1.2 9-.8 12.9-2 4.1-5.7 6.4-9 9-1.7 1.2-3.2 2.4-4.7 3.9-1.4 1.4-2.5 3-3.2 4.7-1.5 3.6-1.5 7.6-.8 11.2.7 3.7 2 7.1 3.9 10.1 1.7 3 3.9 5.9 5.9 8.5 4.1 5.2 7.9 10.3 10.3 15.7 2.4 5.2 2.9 10.7 2.7 15.2-.2 4.6-1.2 8.5-2.4 11.5s-2.5 5.1-3.4 6.6c-.5.7-.8 1.2-1.2 1.5-.2.7-.4.8-.4.8z"/><path class="st0" d="M281.6 453.8l-64.1 111.9-90.8 3.2v10h265.1L464 460.7c2.7-4.4-.5-10.1-5.8-10.1H287.5c-2.4-.2-4.8 1.2-5.9 3.2z"/><path class="st8" d="M361.9 513.5c-4.1 6.3-10.1 9.5-13.9 7.1-3.6-2.4-3.2-9.3.7-15.6 4.1-6.3 10.1-9.5 13.9-7.1 3.7 2.4 3.3 9.3-.7 15.6z"/><path class="st0" d="M465 578.4c0 .1-102.9.4-229.7.4-126.9 0-229.8-.1-229.8-.4 0-.1 102.9-.4 229.8-.4 126.8 0 229.7.1 229.7.4z"/><path class="st8" d="M216 28.6l-15.4.1.4 76.5 15.4-.1-.4-76.5z"/><path class="st9" d="M107.3 28.8l-39.9.2.2 42.2 39.8-.2-.1-42.2z"/><path class="st10" d="M146.8 28.6l-39.8.2.2 42.2 39.8-.2-.2-42.2z"/><path class="st8" d="M67.4 40.7c26.5.3 53 0 79.4-.4.5 0 .5-.8 0-.8-26.5-.1-53 0-79.4.5-.4 0-.4.7 0 .7z"/><path class="st9" d="M114.9 70.3l-72.4.4.2 34.4 72.4-.4-.2-34.4z"/><path class="st10" d="M186.9 69.9l-72.4.4.2 34.4 72.4-.4-.2-34.4z"/><path class="st8" d="M42.6 80.2c48 .5 96.3 0 144.4-.7.5 0 .5-.8 0-.8-48-.3-96.3-.3-144.3.8-.6.1-.6.7-.1.7zm253.2 24.9H15.6v12.4h280.2v-12.4z"/><path class="st8" d="M72.8 111.1H61.5v42.1h11.3v-42.1zm169.9 0h-11.3v42.1h11.3v-42.1z"/><path class="st9" d="M231.1 0l-15.4.1.6 105.2 15.4-.1L231.1 0z"/><path class="st10" d="M255 19.6l-23.9.1.5 85.3 23.9-.1-.5-85.3z"/><path class="st8" d="M254.8 36c0 .3-5.4.4-12 .4s-12-.1-12-.4c0-.3 5.4-.4 12-.4 6.7 0 12 .2 12 .4zm0-3.5c0 .3-5.4.4-12 .4s-12-.1-12-.4c0-.3 5.4-.4 12-.4 6.7 0 12 .1 12 .4zm0 59.6c0 .3-5.4.4-12 .4s-12-.1-12-.4c0-.3 5.4-.4 12-.4 6.7 0 12 .1 12 .4zm0-3.6c0 .3-5.4.4-12 .4s-12-.1-12-.4c0-.3 5.4-.4 12-.4 6.7 0 12 .2 12 .4zm-11.5-7.9c-.3 0-.4-8.6-.4-19.3 0-10.5.1-19.3.4-19.3.3 0 .4 8.6.4 19.3 0 10.7-.2 19.3-.4 19.3z"/><path class="st9" d="M281.1 40.5h-26v64.4h26V40.5z"/><path class="st8" d="M223 22.5c2.5 0 4.5-2 4.5-4.5s-2-4.5-4.5-4.5-4.5 2-4.5 4.5 2.1 4.5 4.5 4.5zm1.5 7.6h-2.8v62.6h2.8V30.1z"/></svg>