<svg width="122" height="241" fill="none" xmlns="http://www.w3.org/2000/svg"><path d="M96.915 54.761L77.698 35.425v-6.996h.401c.574 0 1.147-.398 1.262-.966a1.233 1.233 0 00-1.205-1.422h-.516v-5.858l-26.101.17v5.63h-.517c-.573 0-1.147.399-1.261.968-.115.74.458 1.422 1.204 1.422h.574v6.767L32.723 55.956a11.417 11.417 0 00-2.926 7.62v4.834c0 1.65.631 3.242 1.836 4.38v90.824c0 .512.115 1.024.344 1.536.287.796.23 1.649-.172 2.388-.344.683-.574 1.422-.574 2.162l-.286 26.274c0 1.365.114 2.73.516 4.038l-.23 18.768c-.057 3.071.287 6.085 1.09 9.043 1.434 5.403 4.647 12.227 11.932 12.227h4.991a4.741 4.741 0 003.786-1.876l1.148-1.479c.688-.91 2.122-.683 2.524.398.688 1.934 2.581 3.185 4.589 3.128l11.53-.171c1.205 0 2.18-.853 2.525-1.99.401-1.138 1.95-1.308 2.581-.285l.688 1.024c.574.853 1.492 1.365 2.467 1.365h5.565c3.556 0 6.883-1.934 8.604-5.005.058-.057.058-.113.115-.17 1.95-3.64 2.926-7.735 2.926-11.83v-20.985a3.904 3.904 0 010-4.55v-29.289a2.718 2.718 0 01-.115-3.754l.115-.114V72.164l.115-.114a6.219 6.219 0 001.835-4.379v-4.89c0-2.958-1.204-5.859-3.327-8.02z" fill="#F5F5F5"/><path d="M88.08 58.003c3.959-.91 7.86 1.99 7.917 6.028v4.493c0 1.479-.573 2.958-1.606 3.981l-.115.114v84.341l-.114.114c-.861.967-.804 2.503.114 3.412v26.73a3.662 3.662 0 000 4.152v19.166c0 3.753-.86 7.507-2.581 10.806 0 .056-.058.113-.058.17-1.491 2.844-4.417 4.55-7.572 4.55h-4.933l-7.4-.114-10.212.171-10.67-.171h-4.417c-6.425 0-9.293-6.199-10.555-11.147-.688-2.673-.975-5.459-.918-8.246l.23-17.119c-.345-1.194-.46-2.445-.46-3.696l.288-24c0-.683.172-1.365.516-1.991a2.716 2.716 0 00.114-2.218c-.172-.455-.286-.91-.286-1.365V73.302a5.759 5.759 0 01-1.607-3.981v-4.493c0-3.868 2.869-7.166 6.712-8.02 3.958-.852 10.326-1.649 16.579 0 10.268 2.674 10.44 4.152 17.783 3.527 4.073-.398 9.408-1.479 13.252-2.332z" fill="#E8505B"/><path opacity=".5" d="M88.08 58.003c3.959-.91 7.86 1.99 7.917 6.028v4.493c0 1.479-.573 2.958-1.606 3.981l-.115.114v84.341l-.114.114c-.861.967-.804 2.503.114 3.412v26.73a3.662 3.662 0 000 4.152v19.166c0 3.753-.86 7.507-2.581 10.806 0 .056-.058.113-.058.17-1.491 2.844-4.417 4.55-7.572 4.55h-4.933l-7.4-.114-10.212.171-10.67-.171h-4.417c-6.425 0-9.293-6.199-10.555-11.147-.688-2.673-.975-5.459-.918-8.246l.23-17.119c-.345-1.194-.46-2.445-.46-3.696l.288-24c0-.683.172-1.365.516-1.991a2.716 2.716 0 00.114-2.218c-.172-.455-.286-.91-.286-1.365V73.302a5.759 5.759 0 01-1.607-3.981v-4.493c0-3.868 2.869-7.166 6.712-8.02 3.958-.852 10.326-1.649 16.579 0 10.268 2.674 10.44 4.152 17.783 3.527 4.073-.398 9.408-1.479 13.252-2.332z" fill="#fff"/><path d="M98.98 72.847c0 .056-15.03.17-33.616.17-18.587 0-33.616-.057-33.616-.17 0-.057 15.03-.171 33.616-.171 18.529 0 33.616.057 33.616.17z" fill="#263238"/><path d="M35.42 111.804c3.212-6.711 9.636-11.887 16.98-13.593 6.883-1.592 14.34-.341 20.938-2.957 6.884-2.73 11.416-9.157 14.972-15.583 1.377-2.502 3.098-5.29 5.966-5.63-.745 1.99.46 4.379-.516 6.199-.344.625-.918 1.137-1.434 1.592-4.13 3.867-6.827 8.929-9.179 14.047-1.434 3.128-2.868 6.484-5.564 8.702-1.95 1.592-4.417 2.502-6.884 2.957-6.368 1.138-13.194-.398-19.218 1.877-4.646 1.706-8.203 5.517-10.67 9.782-2.466 4.265-3.843 8.986-5.277 13.706" fill="#fff"/><path d="M96.055 65.908c0 .17-1.033.284-2.754 1.024s-3.958 2.275-6.138 4.834c-1.09 1.251-2.18 2.73-3.27 4.379-1.09 1.65-2.18 3.47-3.442 5.403-1.262 1.877-2.696 3.867-4.59 5.573-1.835 1.763-4.13 3.185-6.654 4.152a21.676 21.676 0 01-7.744 1.422c-2.524-.057-4.876-.455-7.056-.455-4.36-.057-8.26 1.251-11.186 2.843a22.169 22.169 0 00-3.729 2.503c-1.033.796-1.836 1.65-2.524 2.275-1.262 1.365-1.893 2.218-2.008 2.161-.057-.057.057-.285.287-.74.23-.454.631-1.08 1.205-1.876.63-.74 1.376-1.65 2.409-2.56 1.033-.966 2.237-1.933 3.786-2.786 2.983-1.763 7.056-3.299 11.76-3.356 2.352 0 4.704.342 7.056.342 2.352 0 4.819-.456 7.113-1.365a19.228 19.228 0 006.139-3.81c1.72-1.593 3.155-3.413 4.417-5.233 1.262-1.82 2.409-3.64 3.556-5.29 1.148-1.648 2.295-3.184 3.557-4.435 2.41-2.56 4.933-4.038 6.77-4.607 1.95-.569 3.04-.455 3.04-.398zM35.132 188.069c2.41-2.388 6.196-2.843 9.58-2.445 3.385.398 6.712 1.478 10.097 1.478 4.704 0 9.408-2.104 12.505-5.63 1.148-1.308 2.066-2.787 3.213-4.152 2.81-3.298 6.826-5.573 11.129-6.312 1.95-.342 3.958-.342 5.736-1.081 3.73-1.479 5.622-5.46 7.229-9.1-.23 5.972-.517 11.887-.746 17.858-6.368-1.194-12.391 2.901-17.382 6.996-4.99 4.094-10.383 8.701-16.866 8.701-3.442 0-6.826-1.308-10.268-1.194-6.482.227-11.645 5.289-16.005 10.009" fill="#fff"/><path d="M96.055 160.486c0 .114-.976.171-2.64.626-.86.171-1.835.569-2.982 1.024a26.979 26.979 0 00-3.614 2.047c-1.262.853-2.64 1.877-3.959 3.071-1.376 1.194-2.753 2.559-4.245 4.038-1.491 1.479-3.04 3.014-4.818 4.493-1.779 1.479-3.73 2.9-5.966 4.038-2.238 1.137-4.647 1.763-6.999 1.99-2.352.228-4.59.171-6.654.114-2.066-.114-4.073-.227-5.91-.227-1.835 0-3.498.113-5.047.341-1.492.227-2.869.569-4.016 1.024a15.099 15.099 0 00-2.753 1.421c-1.435.967-2.066 1.707-2.18 1.65-.058-.057.401-.967 1.778-2.161a13.3 13.3 0 012.81-1.764c1.148-.568 2.582-1.023 4.131-1.308 1.606-.341 3.328-.511 5.22-.568 1.894-.057 3.901.057 5.967.113 2.065.057 4.245.057 6.425-.17 2.18-.228 4.36-.853 6.425-1.877 2.065-1.024 3.958-2.389 5.621-3.754 1.721-1.421 3.27-2.9 4.762-4.322 1.491-1.422 2.983-2.786 4.417-3.981 1.434-1.194 2.868-2.218 4.245-3.014 1.377-.853 2.696-1.479 3.9-1.877 1.205-.398 2.295-.682 3.156-.796 1.95-.455 2.925-.284 2.925-.171zM34.96 217.472c6.77 4.038 15.661 2.844 22.66-.739 6.998-3.583 12.62-9.327 18.471-14.616 5.852-5.29 12.22-10.408 19.906-12.285a5.819 5.819 0 01-1.147-3.185c-8.834 3.868-17.898 7.849-24.667 14.673-2.352 2.332-4.36 5.005-6.999 7.109-2.524 1.991-5.45 3.299-8.433 4.436-5.966 2.332-12.448 4.095-18.816 3.242-.516-.057-1.09-.114-1.434.284-.344.399.23 1.138.574.74m50.023-62.616a1.78 1.78 0 01-1.778 1.763 1.78 1.78 0 01-1.779-1.763 1.78 1.78 0 013.557 0zm-8.72 3.696c0 .512-.401.853-.86.853a.841.841 0 01-.86-.853c0-.511.4-.853.86-.853a.84.84 0 01.86.853z" fill="#fff"/><path d="M56.3 207.007c.476 0 .86-.381.86-.853a.857.857 0 00-.86-.853.857.857 0 00-.86.853c0 .472.385.853.86.853z" fill="#fff"/><path d="M98.292 168.79c0 .057-15.087.17-33.674.17-18.586 0-33.673-.057-33.673-.17 0-.114 15.087-.171 33.673-.171 18.587.057 33.674.114 33.674.171zm-.172 29.403c0 .056-15.03.17-33.617.17-18.586 0-33.616-.057-33.616-.17 0-.057 15.03-.171 33.617-.171 18.586.057 33.616.114 33.616.171zm.401 4.379c0 .057-15.03.17-33.616.17-18.587 0-33.616-.057-33.616-.17 0-.057 15.03-.171 33.616-.171s33.616.057 33.616.171zm-.229-38.275c0 .057-14.858.17-33.215.17-18.357 0-33.215-.056-33.215-.17 0-.057 14.858-.171 33.215-.171 18.3 0 33.215.057 33.215.171zm-38.263 75.924s-.172 0-.516-.171c-.287-.113-.746-.398-1.148-.796-.918-.853-1.663-2.275-2.524-3.867-.86-1.593-1.663-3.014-2.237-4.038-.574-1.024-.86-1.706-.86-1.706s.401.568 1.032 1.592c.574 1.024 1.434 2.446 2.295 3.981.86 1.536 1.606 3.014 2.409 3.867.803.91 1.549 1.081 1.549 1.138zm18.758-10.692c.058 0-.057.512-.286 1.251-.23.797-.574 1.82-1.033 3.015a61.568 61.568 0 01-1.262 2.9c-.344.739-.574 1.194-.631 1.138-.057 0 .115-.512.459-1.252.344-.853.746-1.82 1.147-2.957.402-1.081.803-2.104 1.09-2.957.287-.683.46-1.138.516-1.138zm19.333-20.246s-.058.056-.172.113c-.115.114-.23.228-.46.342-.4.284-.975.739-1.72 1.308a64.933 64.933 0 01-6.655 4.436 62.63 62.63 0 01-4.876 2.616c-1.835.853-3.786 1.649-5.966 2.218-4.36 1.137-9.408 1.535-14.513.341-2.524-.569-4.934-1.592-6.999-2.844-2.065-1.251-3.9-2.786-5.622-4.265-1.663-1.479-3.27-2.9-4.761-4.152-1.549-1.251-3.04-2.331-4.475-3.184-2.925-1.764-5.564-2.503-7.457-2.673-.918-.057-1.664-.057-2.18-.057-.23 0-.402.057-.574.057h-.172s.058 0 .172-.057c.115 0 .345-.057.574-.057.516-.057 1.262-.057 2.18 0 1.893.17 4.646.853 7.572 2.616 1.492.853 2.983 1.934 4.532 3.185 1.549 1.251 3.098 2.673 4.819 4.151 1.663 1.479 3.499 2.958 5.564 4.209a23.342 23.342 0 006.941 2.787c5.049 1.137 10.04.796 14.342-.342 2.18-.568 4.13-1.364 5.966-2.161 1.778-.853 3.442-1.706 4.876-2.559 2.926-1.706 5.163-3.299 6.712-4.379.745-.569 1.32-.967 1.778-1.308.172-.114.344-.228.459-.341.057.056.115 0 .115 0z" fill="#263238"/><path d="M98.292 208.6l-.115.114a2.51 2.51 0 01-.402.341c-.172.171-.401.341-.688.569-.287.227-.63.455-.975.739-1.492 1.138-3.729 2.616-6.712 4.209-1.491.796-3.155 1.535-4.99 2.275-1.836.739-3.844 1.421-6.024 1.876-.574.114-1.09.228-1.664.285-.286.057-.573.057-.86.114h-.86c-1.148 0-2.353-.057-3.557-.114-2.41-.171-4.934-.455-7.4-1.138-2.467-.682-4.762-1.763-6.655-3.298-1.893-1.479-3.5-3.185-5.048-4.777-1.549-1.536-3.098-2.958-4.761-3.982-1.664-1.08-3.328-1.819-4.934-2.274-3.155-.967-5.909-1.081-7.802-.967-.459 0-.86.057-1.262.114-.344.056-.63.056-.917.113-.23.057-.402.057-.574.114h-.172s.975-.284 2.868-.455c1.836-.171 4.647-.114 7.86.853a22.735 22.735 0 014.99 2.275c1.663 1.024 3.27 2.445 4.819 4.038 1.548 1.535 3.155 3.242 4.99 4.72 1.893 1.479 4.13 2.56 6.597 3.242 2.467.682 4.934.967 7.343 1.137 1.205.057 2.352.114 3.557.114h.86c.287 0 .574-.057.861-.114.574-.056 1.09-.17 1.664-.284 2.18-.455 4.13-1.137 5.966-1.82 1.835-.739 3.499-1.479 4.933-2.275 2.983-1.535 5.22-3.014 6.712-4.095.401-.284.688-.511.975-.739.287-.227.516-.398.688-.569a3.14 3.14 0 00.46-.341c.171.057.229 0 .229 0zm-.058-136.038c0 .057-14.857.17-33.214.17s-33.215-.056-33.215-.17c0-.057 14.858-.17 33.215-.17 18.357 0 33.214.056 33.214.17zM88.368 46.06l-.517.341c-.344.228-.803.569-1.434 1.08-.574.513-1.262 1.138-2.123 1.878-.86.682-1.893 1.478-3.097 2.16-2.41 1.366-5.622 2.446-9.294 2.901-3.67.455-7.744.17-11.932-.569-2.122-.34-4.13-.853-6.08-1.25a33.597 33.597 0 00-5.68-.683 28.152 28.152 0 00-9.58 1.535c-2.581.91-4.646 1.934-5.794 2.958-.573.512-.975.967-1.262 1.251l-.344.512s.058-.228.287-.512c.23-.341.631-.796 1.205-1.308 1.205-1.024 3.212-2.104 5.851-3.014 2.639-.91 5.909-1.65 9.638-1.593 1.835 0 3.786.285 5.736.683 1.95.398 3.958.853 6.08 1.25 4.188.74 8.204 1.025 11.875.627 3.615-.399 6.827-1.48 9.236-2.787 2.467-1.308 4.016-2.958 5.22-3.867.632-.512 1.09-.797 1.435-1.024.172-.114.287-.17.401-.228.115-.284.173-.34.173-.34z" fill="#263238"/><path d="M87.335 44.866s0 .056-.057.113c-.058.114-.173.228-.287.342-.23.284-.574.739-1.09 1.308-.975 1.08-2.467 2.673-4.704 4.151-2.237 1.422-5.335 2.503-8.892 2.617-3.557.17-7.4-.57-11.244-1.877-1.893-.626-3.786-1.365-5.564-1.877-1.836-.512-3.614-.91-5.392-.91-1.721-.057-3.385.227-4.877.626-1.491.398-2.868.796-4.13 1.25-2.467.91-4.36 1.934-5.679 2.674-.631.341-1.09.682-1.377.966-.287.285-.401.456-.401.456s.114-.171.344-.456c.287-.284.746-.625 1.377-1.023 1.262-.74 3.155-1.82 5.621-2.73a50.612 50.612 0 014.13-1.308c1.492-.398 3.156-.683 4.934-.626 1.779 0 3.614.398 5.45.91 1.836.512 3.671 1.195 5.622 1.877 3.786 1.308 7.63 2.048 11.129 1.877 3.499-.057 6.54-1.138 8.777-2.502 2.237-1.422 3.728-2.958 4.704-4.038.516-.57.86-.967 1.147-1.252.115-.113.23-.227.287-.34.115-.228.172-.228.172-.228z" fill="#263238"/><path d="M96.915 54.762s.287.284.803.91c.516.625 1.205 1.649 1.778 3.128.287.739.517 1.592.632 2.616.114.966.057 2.047.114 3.241v1.82c0 .626.058 1.308-.057 1.934a6.535 6.535 0 01-1.893 3.81v-.057c0 18.711.057 51.015.057 92.417v.057l-.057.057a2.485 2.485 0 00-.746 1.763c0 .683.23 1.422.746 1.934l.057.057v29.46a3.69 3.69 0 00-.688 2.104c0 .796.23 1.592.688 2.275V220.6c0 1.536.057 3.128-.057 4.721-.115 1.592-.344 3.128-.803 4.72a24.857 24.857 0 01-1.664 4.493 11.374 11.374 0 01-1.262 2.104 10.041 10.041 0 01-1.72 1.763 10.163 10.163 0 01-4.533 1.991c-.803.171-1.663.171-2.524.171h-4.991c-.86-.057-1.72-.512-2.237-1.195-.287-.341-.459-.682-.688-1.08a3.089 3.089 0 00-.345-.455c-.172-.114-.286-.228-.516-.285-.344-.113-.803-.057-1.09.171a1.334 1.334 0 00-.401.398c-.115.171-.172.341-.23.569-.344.796-1.09 1.478-1.95 1.649-.46.114-.86.057-1.32.114h-1.262c-1.72 0-3.442.057-5.163.057-.86 0-1.72 0-2.581.057h-1.32c-.401 0-.86 0-1.319-.057-.86-.114-1.72-.512-2.41-1.024-.688-.569-1.261-1.308-1.548-2.161l.115.114-.115-.114c-.172-.398-.516-.739-.918-.796-.401-.114-.918.057-1.205.341-.287.341-.573.739-.918 1.137-.286.398-.573.797-.975 1.138-.745.682-1.72 1.08-2.696 1.251-.516.057-.975.057-1.491.057h-4.475c-.516-.057-.975 0-1.491-.171l-.746-.114c-.23-.056-.46-.17-.746-.227-1.95-.569-3.557-1.877-4.876-3.412-1.32-1.536-2.237-3.356-2.926-5.233-.688-1.876-1.262-3.81-1.606-5.801a35.633 35.633 0 01-.516-6.028c0-2.047.057-4.038.057-6.085l.172-13.138v.057c-.401-1.422-.516-2.9-.516-4.379 0-1.479.057-2.9.057-4.379.058-2.901.058-5.801.115-8.645.057-2.843.057-5.744.115-8.587 0-1.422.057-2.844.057-4.266 0-.739.115-1.478.46-2.104.171-.341.343-.626.4-.967.058-.341.115-.682.058-1.024-.057-.341-.172-.625-.287-.966-.115-.342-.172-.683-.23-1.081V72.847l.058.114a6.297 6.297 0 01-1.606-2.73 4.752 4.752 0 01-.23-1.536v-4.606c0-1.024.058-2.048.287-3.015.46-1.99 1.492-3.81 2.811-5.289 1.32-1.478 2.639-2.9 3.901-4.322a4027.566 4027.566 0 0014.743-16.322V28.43l.115.114h-.689c-.23 0-.459-.114-.63-.228a1.395 1.395 0 01-.574-1.137c0-.455.287-.853.688-1.024.172-.114.402-.17.631-.17h.574l-.115.113v-5.744h.115c9.867-.057 18.471-.114 26.101-.114h.057v5.858l-.057-.057h.688c.23.057.46.114.631.285.345.284.517.739.46 1.137-.058.398-.345.74-.689.91-.172.114-.344.114-.516.17h-.517l.058-.056v6.995-.057c6.253 6.313 11.071 11.147 14.284 14.446 1.606 1.649 2.868 2.9 3.671 3.696.975.797 1.377 1.195 1.377 1.195l-1.262-1.252c-.803-.853-2.065-2.047-3.671-3.696-3.27-3.242-8.089-8.076-14.342-14.389v-7.052h.058c.344 0 .688.057 1.032-.17.287-.171.574-.456.574-.797a1.092 1.092 0 00-.402-1.024c-.172-.113-.344-.227-.573-.227-.172-.057-.46 0-.689 0h-.057v-5.857l.057.056c-7.63.057-16.234.114-26.101.17l.114-.113v5.744h-.114c-.402 0-.803-.057-1.09.17-.344.171-.574.512-.574.854-.057.398.172.739.46.966.343.228.745.171 1.204.171h.114v6.995c-4.646 5.176-9.58 10.578-14.742 16.323-1.32 1.421-2.582 2.9-3.901 4.322a11.643 11.643 0 00-2.754 5.175c-.23.967-.287 1.99-.287 2.958v3.07c0 1.024-.057 2.048.23 3.072a6.128 6.128 0 001.549 2.616l.057.057v91.109c0 .341.115.682.172.967.115.341.23.682.287 1.023.057.342 0 .74-.057 1.081-.058.341-.287.682-.402 1.024-.287.625-.402 1.308-.402 1.99 0 1.422-.057 2.844-.057 4.265-.057 2.844-.057 5.688-.115 8.588-.057 2.844-.057 5.744-.114 8.645 0 1.422-.058 2.9-.058 4.379 0 1.422.115 2.9.46 4.322-.058 4.322-.116 8.702-.173 13.138 0 2.047-.057 4.038-.057 6.085 0 1.99.172 4.038.516 5.971a31.32 31.32 0 001.549 5.745c.746 1.819 1.663 3.639 2.925 5.118 1.263 1.479 2.869 2.73 4.704 3.356 1.836.625 3.844.454 5.794.511h1.492c.516 0 .975 0 1.434-.057.918-.113 1.836-.511 2.524-1.137.344-.284.631-.682.918-1.081.287-.398.574-.739.918-1.137.401-.398.975-.569 1.491-.398.517.114.976.512 1.148.967l-.115-.114.115.114a4.587 4.587 0 001.434 1.99 4.618 4.618 0 002.294.967c.402.057.861.057 1.263.057h1.319c.86 0 1.72 0 2.581-.057 1.721 0 3.442-.057 5.163-.057h1.262c.402 0 .86 0 1.262-.057.803-.17 1.434-.796 1.779-1.535.114-.171.114-.398.287-.569a1.34 1.34 0 01.459-.512c.401-.284.86-.341 1.319-.227.23.057.459.17.63.341.173.171.288.341.402.512.23.341.46.739.689 1.023.459.626 1.262 1.024 2.065 1.081h4.934c.86 0 1.663 0 2.466-.171a10.068 10.068 0 004.36-1.933c.631-.512 1.205-1.081 1.664-1.706.459-.626.86-1.365 1.204-2.048a25.99 25.99 0 001.664-4.436c.401-1.535.688-3.071.746-4.663.114-1.536.057-3.128.057-4.664v-18.199.057a4.233 4.233 0 01-.746-2.445c0-.854.287-1.65.746-2.275v-29.233l.057.057c-.573-.568-.86-1.365-.86-2.104 0-.739.344-1.479.86-1.934l-.057.057c.057-41.346.057-73.65.057-92.417 1.09-1.024 1.721-2.445 1.893-3.753.058-.683.058-1.309.058-1.934v-1.82c0-1.194.057-2.275-.058-3.242a10.467 10.467 0 00-.63-2.559c-.574-1.479-1.263-2.502-1.779-3.128a4.342 4.342 0 00-.574-.682c0-.285-.057-.398-.057-.398z" fill="#263238"/><path d="M77.755 25.87c0 .057-5.851.171-13.08.228-7.227.057-13.079 0-13.079-.057s5.852-.17 13.08-.227c7.228-.057 13.079-.057 13.079.056zm.631 2.502c0 .057-6.023.171-13.366.171-7.4 0-13.424-.057-13.424-.17 0-.057 6.024-.171 13.424-.171 7.4.057 13.366.114 13.366.17zm-.746 2.105c0 .057-5.851.17-13.022.17-7.17 0-13.022-.056-13.022-.17 0-.114 5.852-.17 13.022-.17 7.228 0 13.022.056 13.022.17zm0 2.047c0 .057-5.851.17-13.022.17-7.17 0-13.022-.056-13.022-.17 0-.057 5.852-.17 13.022-.17 7.228 0 13.022.056 13.022.17z" fill="#263238"/><path d="M51.596 28.43c.402.682 1.09 1.137 1.836 1.364.746.228 1.549.228 2.352.285 6.826.17 13.653-.114 20.422-.797.574-.056 1.205-.227 1.377-.739-1.09-.057-2.18-.057-3.27-.057-6.482 0-13.022 0-19.504.057h-3.557" fill="#E0E0E0"/><path d="M47.064 24.22V4.544S46.892.562 64.848.562c16.349 0 16.291 4.607 16.291 4.607V24.22H47.064z" fill="#E8505B"/><path d="M49.302 20.297c-.058 0-.172-3.413-.172-7.564 0-4.152.057-7.564.172-7.564.057 0 .172 3.412.172 7.564 0 4.208-.058 7.564-.172 7.564zm3.04 0c-.057 0-.172-3.583-.172-7.963 0-4.435.057-7.962.172-7.962.057 0 .172 3.583.172 7.963 0 4.379-.057 7.962-.172 7.962zm2.983 0c-.057 0-.172-3.697-.172-8.304 0-4.55.057-8.303.172-8.303.115 0 .172 3.697.172 8.303-.057 4.607-.115 8.304-.172 8.304zm2.925 0c-.057 0-.172-3.81-.172-8.474s.058-8.474.173-8.474c.057 0 .172 3.81.172 8.474-.058 4.663-.115 8.474-.172 8.474zm2.926 0c-.057 0-.172-3.81-.172-8.474s.058-8.474.172-8.474c.115 0 .172 3.81.172 8.474-.057 4.663-.114 8.474-.172 8.474zm2.926 0c-.057 0-.172-3.81-.172-8.474s.057-8.474.172-8.474c.115 0 .172 3.81.172 8.474 0 4.663-.115 8.474-.172 8.474zm2.926 0c-.058 0-.172-3.81-.172-8.474s.057-8.474.172-8.474c.057 0 .172 3.81.172 8.474 0 4.663-.058 8.474-.172 8.474zm2.925 0c-.057 0-.172-3.81-.172-8.474s.057-8.474.172-8.474c.058 0 .172 3.81.172 8.474 0 4.663-.057 8.474-.172 8.474zm2.926 0c-.058 0-.172-3.64-.172-8.19 0-4.55.057-8.19.172-8.19.115 0 .172 3.64.172 8.19 0 4.55-.057 8.19-.172 8.19zm2.983 0c-.057 0-.172-3.526-.172-7.849 0-4.322.057-7.848.172-7.848.057 0 .172 3.526.172 7.848-.057 4.323-.115 7.849-.172 7.849zm2.925 0c-.057 0-.172-3.299-.172-7.394 0-4.094.058-7.393.172-7.393.058 0 .173 3.299.173 7.393-.058 4.095-.115 7.394-.172 7.394z" fill="#263238"/><path d="M79.992 5.908s-.115 0-.344-.057c-.23-.057-.516-.17-.918-.284-.401-.114-.86-.285-1.434-.455a30.921 30.921 0 00-1.95-.512c-.746-.17-1.492-.341-2.352-.512-.86-.17-1.779-.284-2.754-.455-1.95-.227-4.073-.455-6.368-.455-2.237 0-4.417.17-6.367.398-.975.114-1.893.228-2.754.398-.86.114-1.663.342-2.352.512-.745.17-1.377.341-1.95.512-.574.17-1.033.284-1.434.398-.402.114-.689.228-.918.285-.23.056-.344.056-.344.056s.114-.056.286-.113c.23-.057.517-.17.918-.342.402-.113.86-.284 1.434-.455.574-.17 1.205-.34 1.95-.511.747-.171 1.492-.398 2.41-.512.86-.17 1.779-.285 2.754-.455 1.95-.228 4.13-.398 6.425-.398 2.294 0 4.417.227 6.425.455.975.17 1.893.284 2.753.512.86.17 1.664.34 2.352.568.746.17 1.377.398 1.95.569.574.17 1.033.341 1.435.455.344.114.688.227.918.341.114 0 .23.057.23.057zm.172 14.446c0 .056-7.113.17-15.89.17-8.777 0-15.89-.057-15.89-.17 0-.114 7.113-.171 15.89-.171 8.777 0 15.89.114 15.89.17z" fill="#263238"/><path d="M98.292 100.657h-66.66v46.976h66.66v-46.976z" fill="#E8505B"/><path d="M36.165 144.221c-.058 0-.172-8.361-.172-18.711 0-10.351.057-18.711.172-18.711.057 0 .172 8.36.172 18.711 0 10.294-.115 18.711-.172 18.711z" fill="#fff"/><path d="M12.376 25.817l1.629.712a7.463 7.463 0 011.744-2.149l-1.052-1.425a.574.574 0 01-.065-.577.585.585 0 011.007-.106l1.049 1.421a7.688 7.688 0 012.596-.998l-.192-1.752a.576.576 0 01.234-.532.588.588 0 01.582-.063.579.579 0 01.344.47l.193 1.756a7.562 7.562 0 012.75.42l.718-1.614a.585.585 0 01.769-.296c.295.129.428.47.298.762l-.718 1.615a7.49 7.49 0 012.167 1.73l1.438-1.043a.588.588 0 01.582-.066.576.576 0 01.107.999l-1.434 1.041c.492.79.833 1.662 1.007 2.573l1.767-.19a.586.586 0 01.537.232.575.575 0 01.063.577.583.583 0 01-.474.34l-1.771.192a7.391 7.391 0 01-.424 2.726l1.629.712c.294.129.428.47.298.762a.585.585 0 01-.769.296l-1.628-.712a7.46 7.46 0 01-1.745 2.149l1.052 1.425c.124.167.15.387.066.577a.586.586 0 01-1.007.106l-1.05-1.422a7.688 7.688 0 01-2.596.999l.192 1.752a.576.576 0 01-.234.532.587.587 0 01-.582.063.578.578 0 01-.344-.47l-.193-1.757a7.56 7.56 0 01-2.75-.42l-.718 1.615a.585.585 0 01-.769.296.576.576 0 01-.298-.763l.718-1.614a7.489 7.489 0 01-2.167-1.73l-1.438 1.043a.587.587 0 01-.582.066.576.576 0 01-.107-.999l1.434-1.041a7.541 7.541 0 01-1.007-2.574l-1.767.191a.585.585 0 01-.537-.232.574.574 0 01-.063-.577.583.583 0 01.474-.34l1.771-.192a7.39 7.39 0 01.424-2.726l-1.629-.712a.576.576 0 01-.298-.762.585.585 0 01.77-.296zM18.091 35.9c3.243 1.418 7.03-.04 8.46-3.254 1.43-3.214-.039-6.97-3.281-8.387-3.243-1.418-7.03.039-8.46 3.254-1.426 3.214.042 6.966 3.281 8.387z" fill="#000"/><path d="M23.014 26.61c.966 0 1.75.776 1.75 1.735 0 .958-.784 1.735-1.75 1.735-.967 0-1.75-.777-1.75-1.735 0-.959.783-1.735 1.75-1.735zm0 2.313a.58.58 0 00.583-.578.58.58 0 00-.583-.579.58.58 0 00-.584.579c0 .319.262.578.584.578zm-4.667.578a2.323 2.323 0 012.333 2.313 2.323 2.323 0 01-2.333 2.314 2.323 2.323 0 01-2.333-2.314 2.323 2.323 0 012.333-2.313zm0 3.47c.644 0 1.167-.518 1.167-1.156 0-.64-.523-1.157-1.167-1.157s-1.167.518-1.167 1.156c0 .64.523 1.157 1.167 1.157zm1.167-5.783a.58.58 0 01-.584-.578.58.58 0 01.584-.579.58.58 0 01.583.579.58.58 0 01-.583.578zm3.5 5.783a.58.58 0 01-.584-.578.58.58 0 01.584-.579.58.58 0 01.583.579.58.58 0 01-.583.578zm-3.5 48.742h-1.78a7.4 7.4 0 01-.722 2.664l1.543.884a.578.578 0 01.002 1.004.588.588 0 01-.585-.002l-1.54-.882a7.617 7.617 0 01-1.968 1.952l.888 1.526c.106.18.107.4.003.58a.584.584 0 01-1.013-.001l-.891-1.53a7.553 7.553 0 01-2.687.716v1.764a.58.58 0 01-.583.578.58.58 0 01-.584-.578v-1.764a7.553 7.553 0 01-2.687-.716l-.89 1.53a.584.584 0 01-1.014.002.574.574 0 01.003-.58l.888-1.527a7.616 7.616 0 01-1.969-1.952l-1.538.882a.588.588 0 01-.586.002.577.577 0 01.002-1.004l1.543-.884a7.4 7.4 0 01-.722-2.663H.847a.58.58 0 01-.583-.579.58.58 0 01.583-.578h1.78a7.4 7.4 0 01.722-2.664l-1.543-.883a.578.578 0 01-.002-1.005.588.588 0 01.586.003l1.538.881a7.615 7.615 0 011.97-1.952l-.89-1.526a.574.574 0 01-.002-.58.584.584 0 011.013.002l.891 1.53a7.554 7.554 0 012.687-.716v-1.765a.58.58 0 01.584-.578.58.58 0 01.583.578v1.765c.933.07 1.844.313 2.687.715l.891-1.53a.584.584 0 011.013-.001.574.574 0 01-.003.58l-.888 1.526a7.615 7.615 0 011.969 1.952l1.539-.881a.588.588 0 01.585-.003.577.577 0 01-.002 1.005l-1.543.883a7.4 7.4 0 01.722 2.664h1.78a.58.58 0 01.583.578.58.58 0 01-.583.578zm-9.333-6.94c-3.544 0-6.417 2.849-6.417 6.362s2.873 6.362 6.417 6.362c3.543 0 6.416-2.849 6.416-6.362-.004-3.511-2.874-6.357-6.416-6.361z" fill="#000"/><path d="M12.514 81.135c-.966 0-1.75-.776-1.75-1.734 0-.959.784-1.735 1.75-1.735s1.75.776 1.75 1.735c0 .958-.784 1.734-1.75 1.734zm0-2.313a.58.58 0 00-.583.579c0 .319.26.578.583.578a.58.58 0 00.583-.578.58.58 0 00-.583-.579zm-4.667 6.362a2.323 2.323 0 01-2.333-2.314 2.323 2.323 0 012.333-2.313 2.323 2.323 0 012.334 2.313 2.323 2.323 0 01-2.334 2.314zm0-3.47a1.16 1.16 0 00-1.166 1.156c0 .64.522 1.157 1.166 1.157.645 0 1.167-.518 1.167-1.157s-.522-1.156-1.167-1.156zm1.167-3.47a.58.58 0 01-.583-.579.58.58 0 01.583-.578.58.58 0 01.583.578.58.58 0 01-.583.579zm3.5 5.783a.58.58 0 01-.583-.578.58.58 0 01.583-.578.58.58 0 01.583.578.58.58 0 01-.583.578zm93.732-65.109h-1.385a5.768 5.768 0 01-.562 2.073l1.201.688a.45.45 0 01.001.782.456.456 0 01-.455-.002l-1.198-.686a5.938 5.938 0 01-1.533 1.52l.692 1.188a.448.448 0 01-.393.678.455.455 0 01-.394-.228l-.694-1.19a5.879 5.879 0 01-2.092.556v1.374c0 .249-.203.45-.454.45a.452.452 0 01-.454-.45v-1.373a5.883 5.883 0 01-2.092-.558l-.694 1.19a.455.455 0 01-.788.003.447.447 0 01.002-.452l.692-1.189a5.936 5.936 0 01-1.533-1.519l-1.198.686a.458.458 0 01-.456.002.45.45 0 01.002-.782l1.2-.688a5.763 5.763 0 01-.561-2.073h-1.386a.452.452 0 01-.454-.45c0-.25.203-.45.454-.45H93.1c.055-.72.246-1.424.562-2.075l-1.201-.687a.45.45 0 01-.002-.782.458.458 0 01.456.002l1.198.686a5.929 5.929 0 011.532-1.52l-.691-1.188a.447.447 0 01-.002-.452.455.455 0 01.788.002l.694 1.19a5.88 5.88 0 012.092-.557v-1.373c0-.249.203-.45.454-.45s.454.201.454.45v1.373a5.877 5.877 0 012.092.558l.694-1.19a.455.455 0 01.789-.003c.081.14.08.313-.002.452l-.692 1.188c.6.41 1.12.925 1.533 1.52l1.198-.686a.456.456 0 01.683.39.45.45 0 01-.229.39l-1.201.688c.316.65.506 1.353.562 2.073h1.385a.45.45 0 110 .9zm-7.266-5.403c-2.759 0-4.995 2.217-4.995 4.953 0 2.735 2.236 4.952 4.995 4.952s4.996-2.217 4.996-4.953c-.004-2.733-2.238-4.949-4.996-4.952z" fill="#000"/><path d="M100.797 18.468a1.356 1.356 0 01-1.363-1.35c0-.747.61-1.352 1.363-1.352.752 0 1.362.605 1.362 1.351s-.61 1.35-1.362 1.35zm0-1.801a.452.452 0 00-.454.45c0 .249.203.45.454.45a.452.452 0 00.454-.45.452.452 0 00-.454-.45zm-3.633 4.952a1.809 1.809 0 01-1.817-1.8c0-.996.813-1.802 1.817-1.802 1.003 0 1.816.806 1.816 1.801 0 .995-.813 1.801-1.816 1.801zm0-2.701a.904.904 0 00-.909.9c0 .497.407.9.909.9a.904.904 0 00.908-.9c0-.497-.407-.9-.908-.9zm.908-2.702a.452.452 0 01-.454-.45c0-.249.203-.45.454-.45.25 0 .454.201.454.45s-.203.45-.454.45zm2.725 4.503a.452.452 0 01-.454-.45c0-.249.203-.45.454-.45s.454.201.454.45c0 .248-.203.45-.454.45zM22.355 135.117h-.84c-.034.437-.15.863-.341 1.258l.728.417a.27.27 0 01.001.474.278.278 0 01-.276-.001l-.727-.416a3.6 3.6 0 01-.929.921l.42.72a.273.273 0 01-.239.412.277.277 0 01-.239-.139l-.42-.722c-.398.19-.828.305-1.269.338v.833a.274.274 0 01-.275.273.274.274 0 01-.276-.273v-.833a3.562 3.562 0 01-1.268-.338l-.42.722a.277.277 0 01-.48.002.273.273 0 01.002-.275l.42-.72a3.606 3.606 0 01-.93-.921l-.726.416a.278.278 0 01-.277.001.27.27 0 01.001-.474l.729-.417a3.496 3.496 0 01-.341-1.258h-.84a.274.274 0 01-.276-.273c0-.151.123-.273.276-.273h.84c.033-.437.149-.863.34-1.258l-.728-.417a.272.272 0 010-.474.278.278 0 01.276.001l.726.416a3.59 3.59 0 01.93-.921l-.42-.721a.27.27 0 01-.001-.274.276.276 0 01.478.001l.42.723c.399-.19.829-.305 1.27-.338v-.833c0-.151.123-.273.275-.273.152 0 .275.122.275.273v.833c.44.033.87.148 1.269.338l.42-.723a.278.278 0 01.479-.001.27.27 0 01-.002.274l-.419.721c.364.248.68.56.93.921l.726-.416a.278.278 0 01.276-.001.272.272 0 01-.001.474l-.728.417c.192.395.307.821.34 1.258h.841c.152 0 .275.122.275.273a.274.274 0 01-.275.273zm-4.406-3.276c-1.673 0-3.03 1.344-3.03 3.003s1.357 3.003 3.03 3.003c1.673 0 3.03-1.344 3.03-3.003-.003-1.658-1.358-3.001-3.03-3.003z" fill="#000"/><path d="M19.05 134.844a.822.822 0 01-.826-.819c0-.452.37-.819.826-.819.457 0 .826.367.826.819 0 .453-.37.819-.826.819zm0-1.092a.274.274 0 00-.275.273c0 .151.123.273.275.273a.274.274 0 00.276-.273.274.274 0 00-.276-.273zm-2.203 3.003a1.097 1.097 0 01-1.101-1.092c0-.603.493-1.092 1.101-1.092s1.102.489 1.102 1.092c0 .603-.494 1.092-1.102 1.092zm0-1.638a.549.549 0 00-.55.546c0 .302.246.546.55.546.304 0 .55-.244.55-.546a.549.549 0 00-.55-.546zm.551-1.638a.274.274 0 01-.275-.273c0-.151.123-.273.275-.273.152 0 .275.122.275.273a.274.274 0 01-.275.273zm1.652 2.73a.274.274 0 01-.275-.273.275.275 0 01.55 0 .274.274 0 01-.275.273zm101.683-66.946h-1.57a6.53 6.53 0 01-.637 2.35l1.361.779c.161.09.26.26.261.442a.518.518 0 01-.775.441l-1.358-.777a6.713 6.713 0 01-1.737 1.722l.784 1.346a.507.507 0 01.002.513.515.515 0 01-.893-.002l-.786-1.35a6.67 6.67 0 01-2.371.632v1.556c0 .282-.23.51-.514.51a.512.512 0 01-.515-.51V75.36a6.66 6.66 0 01-2.37-.632l-.787 1.35a.514.514 0 01-.891-.51l.784-1.347a6.729 6.729 0 01-1.737-1.722l-1.357.778a.52.52 0 01-.517.002.508.508 0 01.002-.886l1.361-.78a6.53 6.53 0 01-.637-2.35h-1.57a.513.513 0 01-.515-.51c0-.281.231-.51.515-.51h1.57a6.53 6.53 0 01.637-2.35l-1.361-.78a.51.51 0 01-.002-.885.52.52 0 01.517.002l1.357.778a6.728 6.728 0 011.737-1.722l-.784-1.346a.507.507 0 01-.002-.513.516.516 0 01.893.002l.787 1.35a6.66 6.66 0 012.37-.632V60.59c0-.282.23-.51.515-.51.284 0 .514.228.514.51v1.556a6.67 6.67 0 012.371.632l.786-1.35a.514.514 0 01.891.51l-.784 1.347a6.712 6.712 0 011.737 1.722l1.358-.778a.517.517 0 01.775.442.51.51 0 01-.261.442l-1.361.78a6.53 6.53 0 01.637 2.35h1.57c.284 0 .515.228.515.51 0 .281-.231.51-.515.51zM112.5 63.14c-3.127 0-5.661 2.512-5.661 5.611 0 3.1 2.534 5.612 5.661 5.612 3.126 0 5.66-2.512 5.66-5.612-.003-3.097-2.536-5.608-5.66-5.611z" fill="#000"/><path d="M114.558 68.753a1.538 1.538 0 01-1.544-1.53c0-.846.692-1.531 1.544-1.531.853 0 1.544.685 1.544 1.53 0 .846-.691 1.531-1.544 1.531zm0-2.04a.512.512 0 00-.514.51c0 .281.23.51.514.51a.513.513 0 00.515-.51.513.513 0 00-.515-.51zm-4.117 5.611a2.05 2.05 0 01-2.058-2.04 2.05 2.05 0 012.058-2.042 2.05 2.05 0 012.059 2.041 2.05 2.05 0 01-2.059 2.04zm0-3.061c-.568 0-1.029.456-1.029 1.02 0 .564.461 1.02 1.029 1.02.569 0 1.029-.456 1.029-1.02 0-.564-.46-1.02-1.029-1.02zm1.029-3.061a.512.512 0 01-.514-.51c0-.282.23-.51.514-.51.285 0 .515.228.515.51 0 .281-.23.51-.515.51zm3.088 5.102a.513.513 0 01-.515-.51c0-.282.231-.51.515-.51.284 0 .515.228.515.51 0 .281-.231.51-.515.51z" fill="#000"/></svg>